<svg id="Capa_1" data-name="Capa 1" xmlns="http://www.w3.org/2000/svg" viewBox="0 0 141.73 141.73"><defs><style>.cls-1,.cls-4{fill:#74acdf;}.cls-2{fill:#122b40;}.cls-3{fill:none;stroke-width:5px;}.cls-3,.cls-4{stroke:#fff;stroke-miterlimit:10;}.cls-4{stroke-width:8px;}</style></defs><title>add</title><path class="cls-1" d="M126.56,74.44l-26.07.07h0A29.48,29.48,0,1,0,84.62,95.08c.36-.18.71-.37,1.06-.56h0ZM54.94,76.82A18.58,18.58,0,1,1,79.81,85.3,18.58,18.58,0,0,1,54.94,76.82Z"/><path class="cls-1" d="M67.27,126.95l0-26.07h0A29.48,29.48,0,1,0,46.67,85c.18.36.37.71.56,1.07h0ZM65,55.32a18.58,18.58,0,1,1-8.51,24.86A18.58,18.58,0,0,1,65,55.32Z"/><path class="cls-1" d="M14,67.29l26.06-.15h0A29.48,29.48,0,1,0,55.87,46.51c-.36.18-.71.37-1.06.56h0Zm71.62-2.6a18.58,18.58,0,1,1-24.9-8.4A18.58,18.58,0,0,1,85.61,64.68Z"/><path class="cls-1" d="M73.83,14.9,73.66,41h0A29.48,29.48,0,1,0,94.1,57c-.17-.36-.36-.72-.55-1.07h0Zm1.74,71.64a18.58,18.58,0,1,1,8.7-24.79A18.58,18.58,0,0,1,75.57,86.54Z"/><path class="cls-2" d="M55.06,94.52h0c.35.19.7.38,1.06.56A29.5,29.5,0,1,0,40.27,74.48h0L14.2,74.38Zm5.88-9.23a18.58,18.58,0,1,1,24.88-8.45A18.58,18.58,0,0,1,60.94,85.29Z"/><path class="cls-2" d="M94.19,85.88h0c.19-.35.38-.7.56-1.06a29.5,29.5,0,1,0-20.57,15.88h0l-.06,26.07ZM84.95,80a18.58,18.58,0,1,1-8.49-24.87A18.58,18.58,0,0,1,84.95,80Z"/><path class="cls-2" d="M86,46.54h0c-.35-.2-.7-.39-1.05-.58a29.5,29.5,0,1,0,15.51,20.86h0l26.06.53Zm-6,9.13a18.58,18.58,0,1,1-25,8A18.58,18.58,0,0,1,79.93,55.67Z"/><path class="cls-2" d="M46.47,55.64h0c-.19.35-.38.7-.55,1.07a29.5,29.5,0,1,0,20.52-16h0l0-26.07Zm9.26,5.83a18.58,18.58,0,1,1,8.57,24.84A18.58,18.58,0,0,1,55.73,61.48Z"/><circle class="cls-3" cx="70.63" cy="70.87" r="29.45"/><line class="cls-4" x1="70.39" y1="13.43" x2="71.34" y2="128.58"/><line class="cls-4" x1="128.44" y1="70.53" x2="13.29" y2="71.48"/></svg>