<svg id="Capa_1" data-name="Capa 1" xmlns="http://www.w3.org/2000/svg" viewBox="0 0 141.73 141.73"><defs><style>.cls-1{fill:#85a9db;}.cls-2{fill:#212f41;}</style></defs><title>dest</title><path class="cls-1" d="M50.6,101.52C17.45,81,18.4,45.43,36.17,26.88A46.37,46.37,0,0,1,70.61,12.57c-.56,0-1.13,0-1.7,0a46.58,46.58,0,0,0-17.15,3.66A44.1,44.1,0,0,0,37,26.56a44.35,44.35,0,0,0-9.8,15.34A43.62,43.62,0,0,0,24.26,59.2a46.59,46.59,0,0,0,3.66,17.15,44.35,44.35,0,0,0,10.45,14.9,44.35,44.35,0,0,0,15.34,9.8A43.63,43.63,0,0,0,71,104a46.58,46.58,0,0,0,17.15-3.66,47.75,47.75,0,0,0,14.9-10.45,46.08,46.08,0,0,0,9.67-15.2,42.76,42.76,0,0,0,2.92-17.3A46.59,46.59,0,0,0,112,40.22a44.35,44.35,0,0,0-10.45-14.9,47.26,47.26,0,0,0-13.45-9,46.51,46.51,0,0,1,15.23,74.9C40.73,156.43,74.14,116.1,50.6,101.52Z"/><path class="cls-1" d="M101.55,25.31a47.26,47.26,0,0,0-13.45-9,46.49,46.49,0,0,0-17.48-3.75c-.56,0-1.13,0-1.7,0a46.58,46.58,0,0,0-17.15,3.66A44.1,44.1,0,0,0,37,26.56a44.35,44.35,0,0,0-9.8,15.34A43.62,43.62,0,0,0,24.26,59.2a46.59,46.59,0,0,0,3.66,17.15,44.35,44.35,0,0,0,10.45,14.9,44.35,44.35,0,0,0,15.34,9.8A43.63,43.63,0,0,0,71,104a46.58,46.58,0,0,0,17.15-3.66,47.75,47.75,0,0,0,14.9-10.45,46.08,46.08,0,0,0,9.67-15.2,42.76,42.76,0,0,0,2.92-17.3A46.59,46.59,0,0,0,112,40.22,44.35,44.35,0,0,0,101.55,25.31ZM89.7,37.41A31,31,0,0,1,96.48,47a29.77,29.77,0,0,1,2.6,11,26.43,26.43,0,0,1-1.6,11.08,25.67,25.67,0,0,1-6,9.73A25.1,25.1,0,0,1,82,85.19a32.47,32.47,0,0,1-11,2.08,32,32,0,0,1-11.1-2.13,29.63,29.63,0,0,1-9.87-6.37,30.26,30.26,0,0,1-9.25-20.46,29.14,29.14,0,0,1,1.6-11.08,24.56,24.56,0,0,1,6-9.73,25.1,25.1,0,0,1,9.47-6.39,32.47,32.47,0,0,1,11-2.08A32,32,0,0,1,80,31.17,29.38,29.38,0,0,1,89.7,37.41Z"/><circle class="cls-2" cx="69.96" cy="59.08" r="8.42" transform="translate(-1.89 2.31) rotate(-1.87)"/></svg>