<svg id="Capa_1" data-name="Capa 1" xmlns="http://www.w3.org/2000/svg" viewBox="0 0 141.73 141.73"><defs><style>.cls-1{fill:#85a9db;}.cls-2{fill:#212f41;}</style></defs><title>driver</title><path class="cls-1" d="M85.64,34.32c-34.36-8.08-56.51,15.29-57,38.52A42,42,0,0,0,41.52,104c-.36-.36-.72-.72-1.07-1.1a42.16,42.16,0,0,1-8.64-13.32A39.91,39.91,0,0,1,29,73.57,40.14,40.14,0,0,1,32.5,57.48a39.48,39.48,0,0,1,9.2-12.94A42.16,42.16,0,0,1,55,35.91a40.14,40.14,0,0,1,16.22-2.85A40.14,40.14,0,0,1,87.33,36.6a39.48,39.48,0,0,1,12.94,9.2,42.16,42.16,0,0,1,8.64,13.32,43.21,43.21,0,0,1,2.85,16.22,41.7,41.7,0,0,1-3.54,15.92A38.7,38.7,0,0,1,99,104.19a42.16,42.16,0,0,1-13.32,8.64,40.14,40.14,0,0,1-16.22,2.85,42.77,42.77,0,0,1-14.37-2.85,42.09,42.09,0,0,0,57.68-38.19C114.46-7.14,110,40.05,85.64,34.32Z"/><path class="cls-1" d="M85.7,112.83A42.16,42.16,0,0,0,99,104.19a38.7,38.7,0,0,0,9.2-12.94,41.7,41.7,0,0,0,3.54-15.92,43.21,43.21,0,0,0-2.85-16.22,42.16,42.16,0,0,0-8.64-13.32,39.48,39.48,0,0,0-12.94-9.2,40.14,40.14,0,0,0-16.09-3.54A40.14,40.14,0,0,0,55,35.91,42.16,42.16,0,0,0,41.7,44.55a39.48,39.48,0,0,0-9.2,12.94A40.14,40.14,0,0,0,29,73.57a39.91,39.91,0,0,0,2.86,16.05,42.16,42.16,0,0,0,8.64,13.32c.35.38.71.74,1.07,1.1a42.07,42.07,0,0,0,13.59,8.79,42.77,42.77,0,0,0,14.37,2.85A40.14,40.14,0,0,0,85.7,112.83ZM59.41,98.13a28.94,28.94,0,0,1-8.46-5.74A29.38,29.38,0,0,1,45.23,84a22.72,22.72,0,0,1-2-10.14,22.22,22.22,0,0,1,2.4-10.05,26.37,26.37,0,0,1,6.07-8.12,27.48,27.48,0,0,1,29.4-4.93,28.94,28.94,0,0,1,8.46,5.74,29.38,29.38,0,0,1,5.71,8.37,22.72,22.72,0,0,1,2,10.14,23.23,23.23,0,0,1-2.4,10.05,23.92,23.92,0,0,1-6.07,8.12,26.94,26.94,0,0,1-8.7,5.37,28.07,28.07,0,0,1-10.48,1.8A26.59,26.59,0,0,1,59.41,98.13Z"/><circle class="cls-2" cx="70.87" cy="73.86" r="7.62" transform="translate(-31.35 68.41) rotate(-43.13)"/></svg>