<svg id="Capa_1" data-name="Capa 1" xmlns="http://www.w3.org/2000/svg" viewBox="0 0 141.73 141.73"><defs><style>.cls-1{fill:#212f41;}.cls-2{fill:#85a9db;}</style></defs><title>origin</title><path class="cls-1" d="M91.8,101.4c33.26-20.66,32.26-56.36,14.4-75-9.4-9.78-23-12.92-34.6-14.33.56.07,1.13,0,1.7,0a46.77,46.77,0,0,1,17.23,3.65,44.28,44.28,0,0,1,14.85,10.34,44.53,44.53,0,0,1,9.86,15.39,43.8,43.8,0,0,1,3,17.36,46.77,46.77,0,0,1-3.65,17.23,44.53,44.53,0,0,1-10.47,15,44.53,44.53,0,0,1-15.39,9.86,43.8,43.8,0,0,1-17.36,3,46.77,46.77,0,0,1-17.23-3.65,47.94,47.94,0,0,1-15-10.47,46.26,46.26,0,0,1-9.73-15.25,42.93,42.93,0,0,1-3-17.36,46.77,46.77,0,0,1,3.65-17.23A44.53,44.53,0,0,1,40.55,25a47.45,47.45,0,0,1,13.5-9A46.7,46.7,0,0,0,38.86,91.13C101.79,156.52,68.19,116.07,91.8,101.4Z"/><path class="cls-1" d="M30.08,39.93a46.77,46.77,0,0,0-3.65,17.23,42.93,42.93,0,0,0,3,17.36,46.26,46.26,0,0,0,9.73,15.25,47.94,47.94,0,0,0,15,10.47,46.77,46.77,0,0,0,17.23,3.65,43.8,43.8,0,0,0,17.36-3,44.53,44.53,0,0,0,15.39-9.86,44.53,44.53,0,0,0,10.47-15,46.77,46.77,0,0,0,3.65-17.23,43.8,43.8,0,0,0-3-17.36,44.53,44.53,0,0,0-9.86-15.39A44.28,44.28,0,0,0,90.53,15.79,46.77,46.77,0,0,0,73.3,12.14c-.57,0-1.14,0-1.7,0A46.68,46.68,0,0,0,54.05,15.9a47.45,47.45,0,0,0-13.5,9A44.53,44.53,0,0,0,30.08,39.93ZM62.23,30.8a32.11,32.11,0,0,1,11.14-2.15,32.6,32.6,0,0,1,11.05,2.07,25.2,25.2,0,0,1,9.51,6.4,24.65,24.65,0,0,1,6,9.76A29.25,29.25,0,0,1,101.57,58,30.49,30.49,0,0,1,82.4,85a32.11,32.11,0,0,1-11.14,2.15A32.6,32.6,0,0,1,60.21,85a25.2,25.2,0,0,1-9.51-6.4,25.77,25.77,0,0,1-6-9.76,26.54,26.54,0,0,1-1.63-11.13,29.89,29.89,0,0,1,2.6-11,31.14,31.14,0,0,1,6.8-9.64A29.5,29.5,0,0,1,62.23,30.8Z"/><circle class="cls-2" cx="72.03" cy="57.8" r="8.46" transform="translate(-9.73 14.86) rotate(-11.04)"/></svg>