<svg id="Capa_1" data-name="Capa 1" xmlns="http://www.w3.org/2000/svg" viewBox="0 0 141.73 123"><defs><style>.cls-1{opacity:0.51;}.cls-2{fill:#74acdf;}.cls-3{opacity:0.8;}</style></defs><title>passenger</title><g class="cls-1"><path class="cls-2" d="M80.71,69.1c0,.33.05.65.08,1l3,50.56L94.54,91.74A28.26,28.26,0,1,0,80.71,69.1Zm10.43-.62A17.81,17.81,0,1,1,110,85.19,17.81,17.81,0,0,1,91.14,68.47Z"/></g><g class="cls-3"><path class="cls-2" d="M46.53,71.24c.21.31.42.6.64.89l32.16,47.45-6.26-34.3a32,32,0,1,0-26.54-14Zm9.79-6.63a20.15,20.15,0,1,1,28,5.37A20.15,20.15,0,0,1,56.32,64.6Z"/></g><path class="cls-2" d="M16.49,79.29c.34.26.7.5,1,.74L71,120l-20-35.36a37.25,37.25,0,1,0-34.56-5.32Zm8.24-11a23.47,23.47,0,1,1,32.85-4.77A23.47,23.47,0,0,1,24.73,68.25Z"/></svg>