<svg id="Capa_1" data-name="Capa 1" xmlns="http://www.w3.org/2000/svg" viewBox="0 0 141.73 141.73"><defs><style>.cls-1{fill:#74acdf;}.cls-2{fill:#122b40;}</style></defs><title>through_1</title><path class="cls-1" d="M90.83,25.15A29.77,29.77,0,0,1,75.78,76.34l9.52,24.33,18.88-20.42c.38-.38.76-.76,1.13-1.16A47.25,47.25,0,0,0,48.06,5.5L54.51,22A29.79,29.79,0,0,1,90.83,25.15Z"/><path class="cls-1" d="M43.73,34.2a29.67,29.67,0,0,1,7.64-9.89v0a29.58,29.58,0,0,0-7.63,9.91Z"/><path class="cls-1" d="M40,82.88c-.49-.41-1-.83-1.44-1.27a47.21,47.21,0,0,1-2.63-66.69h0a47.25,47.25,0,0,0,2.61,66.77q1.28,1.18,2.63,2.25L40,82.88Z"/><polygon class="cls-1" points="46.67 142.45 73.28 113.67 60.6 101.93 46.67 142.45"/><polygon class="cls-1" points="82.44 103.76 80.92 99.85 82.44 103.77 82.44 103.76"/><path class="cls-2" d="M73.28,113.66,93.55,132.4,82.43,103.77l-1.52-3.91L78.45,93.5,71.88,76.68A29.73,29.73,0,0,1,51.36,24.29l0,0L44.83,7.41A47.28,47.28,0,0,0,36,14.91l0,0a47.21,47.21,0,0,0,2.63,66.69c.47.44,1,.86,1.44,1.27h0L41.16,84l19.44,18Z"/></svg>