<svg id="Capa_1" data-name="Capa 1" xmlns="http://www.w3.org/2000/svg" viewBox="0 0 400.04 104">
    <defs>
        <style>.cls-1{fill:#aaa;}.cls-2{fill:#fcfdfd;}</style>
    </defs>
    <title>mPago_w</title>
    <path class="cls-1"
          d="M80,0c6.74,2,13.88,1.93,20.67,3.9a94,94,0,0,1,25.84,11.46c29.28,19.25,24,53.41,1.28,69.83-16.52,11.91-35.41,15.46-55.21,15.44-16.49,0-32.45-2.84-47-11.08C13.37,82.64,4.28,73.15.9,59.06c-.1-.4-.59-.71-.9-1.06V41c2.82-5,4.41-10.56,8.24-15,10-11.71,23-18.2,37.61-21.94C52.47,2.33,59.28,1.32,66,0ZM52.55,25.53c-5,1.3-10.08,1.85-15.26.51A125.77,125.77,0,0,1,21.11,21.1a4.39,4.39,0,0,0-5.32.91A44.75,44.75,0,0,0,4.62,37.71c-1.32,3.21-.47,4.4,2.67,5.08,8.94,1.94,17.76,4.28,25.88,8.69a3,3,0,0,0,2.82.29c5.76-2.45,11.35,2,17.11.5.37-.1,1,.31,1.33.63,4.47,3.79,13.52,1.6,13.93,10.68,0,.1.24.24.39.27,6.2,1.13,7.88,5.14,7.43,11C76,76.9,78.47,76.78,80,77c1.27.17,2.92.53,3.65-.77.85-1.52-1-2.22-1.68-3.22-1.11-1.61-3-2.72-3.6-5.43,3.78,1,5.48,3.56,7.56,5.56s4.14,2.27,6.22.54c2.54-2.11.39-3.77-.89-5.44-1.8-2.35-4.53-4.07-5.75-7.9,4.46,1.8,6.68,5,9.47,7.43,2.43,2.15,4.94,1.84,7.11-.29s.93-4.22-.87-6-3.49-3.12-5-4.88c-1.32-1.54-3.95-2.42-3.31-5.73,4.79,2.93,8.15,6.88,12.15,10,2.23,1.75,4.41,1.39,6.23-.54s1-4-.81-5.58C101.1,46.85,91.7,38.91,82.18,31.1c-3.48-2.85-7.35-2.82-11.08-.28-3,2.05-5.94,4.25-9,6.32C58.23,39.83,54,39.88,49.81,38c-3-1.31-4-3.44-1.46-6.27C50,29.93,51.53,28,53.12,26.12c.38-.12.88-.26.51-.75C53.54,25.23,52.92,25.46,52.55,25.53Zm18,66.62c18.48-.06,33.77-2.81,47.86-10.37,13.1-7,23.58-16.27,25.09-32.43.21-2.23.5-3.69-2.56-2.92a178.71,178.71,0,0,0-23.79,7.37c-.91.37-2.22.57-2,1.84,1.18,6-1.8,8.66-7.29,9.53a2.25,2.25,0,0,0-1.46,1.17c-2.72,6.66-10.78,6-14.82,10.9-.27.33-1,.26-1.39.51-6.92,4-14.9,0-22,2.92-1.22.5-3.45-.28-4.68-1.18-5.3-3.91-11.74-5.49-17.31-8.73-4-2.31-6.91-6.22-11.46-8-1.4-.53-2.06-2.68-1.82-4.41.45-3.19-1.52-4.34-3.94-5.47-7.45-3.47-15.36-5.33-23.29-7.22-2-.49-2.85-.06-2.72,2a46.13,46.13,0,0,0,.51,5.44c1.82,9.95,7.83,17.14,15.65,23C35.18,88,53.64,91.93,70.58,92.15Zm6-74c-.93.09-1.92.21-2.91.29-9.3.71-15.13,6.89-20.84,13.24-.86,1-2.58,1.8-2,3.13.62,1.5,2.52,1.21,4,1.32,4.51.33,7.29-2.84,10.42-5.19,9.52-7.16,13.23-7.22,22.41.33,7.44,6.12,14.76,12.4,22.09,18.66,1.72,1.47,3.11,2.34,5.66,1.19a119,119,0,0,1,24.11-7.77c3.62-.77,3.72-2,2.62-5-2.12-5.76-5.64-10.43-9.85-14.79-1.92-2-3.44-2.28-6-1.23-12.13,5-24.21,4.83-36.18-.84A38.87,38.87,0,0,0,76.57,18.13Zm-54.42-.33c13.32,6.29,26.52,8.13,40,1.1,6.21-3.23,12.63-4.6,19.73-3.24,5.81,1.11,10.92,4,16.5,5.57C107.84,24,116.83,23,126,18.84,99.68-1.68,47.19-1.2,22.16,17.81ZM44.36,58C43.51,54.79,41.84,53,38.56,54A3.63,3.63,0,0,0,36,59.08c1.46,4.1,4.73,2.87,7.61,1.84.31,1.72.28,3.13.82,4.27,2.23,4.7,9.54,1.37,11.38,7,.16.48,2.12,1,2.68.61,3-2,3.57-.08,4.75,2.19a4.71,4.71,0,0,0,6.35,2.27c2.64-1.06,4-3,3.59-5.81S71,67.2,68.14,66.9c-1.27-.13-2.62.72-3.82-.28,1.1-7.19,0-8.34-7.36-7.33-1.06.14-1.32-.2-1.88-.9C51.34,53.74,49.71,53.66,44.36,58Z"/>
    <path class="cls-2"
          d="M295,104c-3.27-2.32-7.49-3.36-9.32-7.61-1-2.4-.82-3.48,2-3.21,2.24.21,4.45-.43,6.69,1.11,5.71,3.92,9.84,1.62,10.64-6.49-3.25,2.61-6.55,3.76-10.21,3a13.39,13.39,0,0,1-8.36-5.88c-4-5.74-3.52-17.51,1.14-22.58,4.32-4.7,10-4.91,15.71-3.59,5.5,1.27,9.21,4.63,9.88,10.49a111.94,111.94,0,0,1,.1,22.4c-.59,6.78-5.37,10.15-11.23,12.36Zm10.17-29.15c0-3.44-.5-6.85-3.79-8.62a5.65,5.65,0,0,0-7.28,1.19C291.31,70.57,291.24,79,294,82c2.19,2.41,4.88,2.66,7.66,1.09C304.88,81.26,305.06,78.05,305.17,74.85Z"/>
    <path class="cls-1"
          d="M214,33.57c0,2.33,0,4.66,0,7,.06,2.54.49,4.67-3.6,4.64s-4.14-1.86-4-4.84c.16-4.49.05-9,0-13.48,0-3.65-1.44-6.29-5.46-6.23-3.83.06-5.66,2.49-5.75,6.15-.11,4.82-.24,9.66,0,14.47.19,3.2-.93,3.88-3.92,3.85-2.82,0-3.72-.83-3.59-3.66.22-4.65.09-9.32,0-14,0-3.68-1.07-6.83-5.45-6.83s-5.85,3-5.8,7c.06,4.82-.14,9.66.06,14.47.14,3.21-1.83,2.89-3.86,2.86s-4,.54-3.83-2.79c.25-5.65-.17-11.33.15-17a12.82,12.82,0,0,1,20.43-9.94c2,1.44,2.74,1,4.43-.14,8.91-5.92,19.58-.34,20.07,10.4C214.11,28.24,214,30.91,214,33.57Z"/>
    <path class="cls-2"
          d="M229,88.1c0,3.16.1,5.82,0,8.47s-1.65,4.16-4.41,4.43-4.27-.17-4.16-3.6c.25-8.3-.06-16.61.12-24.91.19-8.81,4.85-13.38,14-14.23,8.15-.76,14.31,3.65,16,11.71a24.84,24.84,0,0,1,.31,7.42C249.53,89.6,240.2,94.4,229,88.1ZM242.16,75c.09-4-.33-7.83-4.94-9.15-5-1.43-8.2,2.11-8.23,8.77,0,5.68,2.6,9.32,6.69,9.31C239.62,84,242.11,80.52,242.16,75Z"/>
    <path class="cls-1"
          d="M357,15.69c0-2.42,0-4.72,0-7A4.83,4.83,0,0,1,360,4c4.43-2.06,5.82-1.24,5.82,3.66,0,7.66.09,15.32,0,23-.14,9.86-5.44,15-15.32,15-10.13,0-15.47-5.24-15.54-15.28,0-.17,0-.33,0-.5C335,15.43,344.1,9.46,357,15.69Zm.17,13.77c0-3.64-.66-7-4.48-8.66-2.84-1.25-5.23-.46-7.09,1.85-2.5,3.1-2.47,10.65,0,13.66A5.71,5.71,0,0,0,353.17,38C356.6,36.22,357.23,33,357.16,29.46Z"/>
    <path class="cls-1"
          d="M248,36.54c-3.61,7.37-9.55,10.4-17.18,9.34s-12.08-5.39-13.35-12.65C215.27,21,222.23,12.57,234.13,13c8.88.31,15,7.3,14.48,16.19-.14,2.27-1.08,2.75-3.09,2.72-5.65-.09-11.3.05-17-.06-3-.06-3,1.2-1.9,3.32,1.71,3.37,6.39,5.21,9.84,3C240.12,35.91,243.67,36.59,248,36.54ZM226.15,26c3.83,0,7.31-.08,10.78,0,3.29.09,2.72-1.62,1.55-3.34A6.46,6.46,0,0,0,231.95,20C228.76,20.35,226.94,22.19,226.15,26Z"/>
    <path class="cls-1"
          d="M332.55,28.6c0,2,0,4,0,6-.09,5.13-2.78,8.43-7.49,10a26,26,0,0,1-11.83,1.1c-5.22-.68-8.1-3.55-8.56-8.18-.54-5.44,1.64-8.95,7-10.5,3.17-.92,6.5-1.26,9.76-1.9,1.4-.27,2.61-.9,2.61-2.53,0-1.87-1.31-2.5-2.94-2.75-2.36-.37-5.05-.72-6.27,1.69-1.82,3.61-4.82,2-7.38,2.25-1.78.19-1.71-1.21-1.49-2.38.54-2.92,1.89-5.36,4.65-6.69,6.29-3,12.57-2.56,18.67.52,2.28,1.15,3.07,3.46,3.21,5.87s0,5,0,7.49Zm-8.62,1.77c-1.5.29-2.77.49-4,.78a27.25,27.25,0,0,0-4.26,1.17,3.64,3.64,0,0,0-2.49,4.3c.43,2.13,2.06,2.78,4,2.84C321.78,39.6,324,36.73,323.93,30.37Z"/>
    <path class="cls-1"
          d="M400,29.62c0,10.08-6.11,16.24-16,16.25-10.11,0-16.16-6.24-16.13-16.67s6.08-16.42,16.3-16.38S400.09,19,400,29.62Zm-8.91-.49c0-5.62-2.2-8.79-6.33-9.22-4.75-.49-7.66,2.45-7.93,8-.34,7.07,2.24,10.95,7.24,10.86C388.54,38.72,391.16,35.11,391.14,29.13Z"/>
    <path class="cls-2"
          d="M281,74c0,2.16.1,4.33,0,6.49a10,10,0,0,1-6.48,9.24c-4.78,2-9.83,1.94-14.73,1-3.92-.75-6.24-3.64-6.55-7.79-.33-4.41,1.19-8,5.43-9.68,2.59-1,5.46-1.32,8.21-2,2.13-.49,5,.22,5.54-3a2.35,2.35,0,0,0-1.87-2.61c-2.7-.88-5.62-1.1-7.17,1.55-1.43,2.43-3.28,2.22-5.44,2.4-4,.34-4-1.56-2.87-4.47a9.81,9.81,0,0,1,6.89-6,21.17,21.17,0,0,1,7.92-.65C278.66,59.43,281,62,281,71q0,1.5,0,3ZM265.74,85.09a6.5,6.5,0,0,0,6.8-6.46c0-1.29.2-3.18-1.94-2.34-3.24,1.27-8.42-.26-8.84,5.35C261.59,84,263.38,85.11,265.74,85.09Z"/>
    <path class="cls-2"
          d="M332.24,91.15c-9.86-.05-15.9-6.39-15.8-16.55s6.29-16.49,16-16.53,16,6.51,16.14,16.4C348.63,84.65,342.22,91.2,332.24,91.15Zm-7.08-16.58c0,5.9,2.68,9.51,7.17,9.54s7.41-3.51,7.46-9.34c0-5.65-2.91-9.55-7.28-9.6C328,65.11,325.19,68.65,325.15,74.56Z"/>
    <path class="cls-1"
          d="M271.8,30.39c.08-14.29,11.91-21.57,24-15.68,1.83.89,3.62,1.92,4.39,3.87s3.46,4.76.8,5.86c-2.15.89-6.21,2.41-8.27-1.56-1.49-2.87-4.08-3.25-6.86-2.75s-4.17,2.68-4.69,5.25a19.92,19.92,0,0,0,0,8.44c.65,2.81,2.37,4.79,5.42,5.11a5.57,5.57,0,0,0,6.12-3.28c.92-1.85,7.34-3.2,8.67-1.94,1.11,1.05.19,2.16-.19,3.19C299,43,292.66,46.52,285.51,45.8,277.93,45,273.28,41,272.07,34A28.76,28.76,0,0,1,271.8,30.39Z"/>
    <path class="cls-1"
          d="M252.14,34.19c.18-2.94-.31-6.42.64-9.88A15.28,15.28,0,0,1,267.9,13c1.85,0,3.06.54,2.6,2.5s1.75,4.81-1.88,5.73c-7.73,2-8,2.34-8.06,10.32,0,2.83,0,5.65,0,8.48,0,5-1.54,6.11-6.61,5.07-1.54-.32-1.83-1.05-1.81-2.35C252.17,40,252.14,37.38,252.14,34.19Z"/>
    <path class="cls-2"
          d="M70.58,92.15C53.64,91.93,35.18,88,19.14,76.08c-7.82-5.81-13.82-13-15.65-23A46.13,46.13,0,0,1,3,47.68c-.13-2,.69-2.46,2.72-2C13.64,47.6,21.55,49.46,29,52.93c2.42,1.12,4.39,2.27,3.94,5.47-.24,1.73.42,3.87,1.82,4.41,4.55,1.73,7.48,5.64,11.46,8,5.57,3.23,12,4.81,17.31,8.73,1.23.91,3.46,1.68,4.68,1.18,7.13-2.92,15.11,1,22-2.92.43-.24,1.12-.18,1.39-.51,4-4.85,12.1-4.24,14.82-10.9a2.25,2.25,0,0,1,1.46-1.17c5.5-.86,8.47-3.52,7.29-9.53-.25-1.27,1.06-1.47,2-1.84A178.71,178.71,0,0,1,141,46.43c3.06-.78,2.77.69,2.56,2.92-1.51,16.15-12,25.4-25.09,32.43C104.35,89.34,89.06,92.09,70.58,92.15Z"/>
    <path class="cls-2"
          d="M22.16,17.81c25-19,77.52-19.49,103.82,1C116.83,23,107.84,24,98.4,21.24c-5.58-1.61-10.69-4.46-16.5-5.57-7.1-1.36-13.51,0-19.73,3.24C48.68,25.94,35.47,24.1,22.16,17.81Z"/>
    <path class="cls-2" d="M52.55,25.53c.38-.06,1-.3,1.09-.16.36.5-.13.63-.51.75Q52.83,25.83,52.55,25.53Z"/>
</svg>