<svg id="Capa_1" data-name="Capa 1" xmlns="http://www.w3.org/2000/svg" viewBox="0 0 316 56.07">
    <defs>
        <style>.cls-1{fill:#afafaf;}.cls-2{fill:#fff;}</style>
    </defs>
    <title>rapipago_w</title>
    <path class="cls-1"
          d="M266.24,29c-3.32,2.1-6.2,4.06-9.21,5.79-2.81,1.61-6.12,2.62-3.56,7.1.81,1.42-.47,3.31-1.77,4.38-5.67,4.63-11.26,9.48-19.38,8.84-2.31-.18-4.65,0-7,0,.78-7.27,2.11-8.62,8.59-8.89,1.61-.07,3.54.38,4.27-1.68s-.87-3-2-4.21c-2.46-2.48-5.07-4.83-7.43-7.41-3.34-3.65-3-8.11,1.19-10.62,9-5.37,18.18-10.4,27.3-15.54,3.91-2.2,4.52,2.15,6.6,3.5,1.93,1.25.86,2.19-.55,3.3-2.18,1.73-.5,3.28.8,4.52,2.5,2.38,4.58,4.87,3.67,9,7.67-5.81,15.9-9.74,24-13.83,5.24-2.64,10.33-2.05,14.74,2.09,2.43,2.28,4.8,4.62,7.19,6.93,3,2.87,3.2,6.13,0,8.6-7.94,6.09-16.58,11.12-26.21,14a9.71,9.71,0,0,1-10.1-2.8C273.41,37.95,268.39,34.77,266.24,29Zm23,5.82a36.93,36.93,0,0,0,11-5.63c1.27-.89.38-2-.35-3-3.54-4.85-6.26-5.08-13.27-.74-1.67,1-4.76,1.8-3.45,4.56A8.37,8.37,0,0,0,289.21,34.78Zm-44.58-2.14c3-1.92,6.37-4,9.61-6.27,1.16-.82.68-2.14-.22-3-1.72-1.74-3.31-4.21-6.2-3.21-3.41,1.17-7,2.51-8.92,5.8C237.92,27.55,242.28,32.87,244.63,32.64Z"/>
    <path class="cls-2"
          d="M70.11,56c4-10.22,7.71-19.6,11.34-29,.84-2.19,2.71-5-2-5.13-.77,0-1-.38-1.08-1.22-.21-3.8,3.51-7.79,7.41-7.8,8.65,0,17.31-.19,25.95,0,9.11.25,10.84,3.08,7.59,11.61-1.12,2.95-2.45,5.82-3.43,8.81-2.42,7.37-7.87,10.29-15.17,10.64a14.35,14.35,0,0,1-3,0c-7.57-1.26-12.73.95-14,9.26-.31,2-1.56,3-3.85,2.84C76.93,55.83,73.93,56,70.11,56ZM91.16,34.64c10.79.86,11.46.54,14.21-7.28.59-1.68,2.41-4.5-.3-5-3-.51-7.09-2.44-9.34,1.32C93.82,26.9,92.79,30.63,91.16,34.64Z"/>
    <path class="cls-1"
          d="M135.34,56c4-10.21,7.75-19.58,11.38-29,.81-2.1,2.91-4.9-1.86-5.2-1.51-.1-1.31-1.46-.83-2.24,1.38-2.25.64-6.52,4.2-6.58,10.79-.17,21.63-1,32.37.29,5.47.64,6.8,3.65,4.86,9-1.36,3.73-3.12,7.33-4.34,11.11-2.32,7.22-7.63,10-14.67,10.56a9.18,9.18,0,0,1-2,0c-8-1.17-14.27.33-15.66,9.78-.25,1.69-1.43,2.38-3.24,2.3C142.41,55.91,139.26,56,135.34,56Zm21.22-21.44c10.28,1.13,11.26.67,14-7,.59-1.65,2.46-3.61,0-5.27-1.66-1.1-9-.15-9.6,1.29C159.39,27.12,158,30.8,156.56,34.56Z"/>
    <path class="cls-1"
          d="M229.25,12.93c-2.44,6.16-4.56,11.54-6.72,16.91-1,2.38-1.7,4.61,2,5.1.94.12,1.35.44,1.3,1.58a7.6,7.6,0,0,1-7.7,7.47c-8.49,0-17,0-25.46,0-8.68,0-10.88-3.13-7.94-11.13,1.09-3,2.39-5.85,3.37-8.84,2.4-7.31,7.93-10.6,15.06-11C211.63,12.61,220.11,12.93,229.25,12.93Zm-16.47,9.32c-10.44-.82-11.47-.15-14.37,7.74C197,33.76,198,34.82,202,35.1c4.81.34,7.32-1.25,8.29-5.92A52.12,52.12,0,0,1,212.78,22.26Z"/>
    <path class="cls-2"
          d="M77.9,12.93c-2.33,5.85-4.55,11.34-6.69,16.85-.86,2.21-1.93,4.63,1.93,5.15.77.1,1.5.08,1.47,1.38a7.86,7.86,0,0,1-8,7.66c-8.48,0-17,0-25.43,0S30.47,40.69,33.44,32.7c1.1-3,2.45-5.82,3.42-8.8,2.39-7.36,8-10.51,15.09-10.87C60.39,12.61,68.87,12.93,77.9,12.93ZM61.32,22.34c-9.94-1-11-.53-13.81,6.81-.68,1.81-2.62,3.94.14,5.6,2.12,1.28,9.09,0,9.77-1.75C58.8,29.52,60,26,61.32,22.34Z"/>
    <path class="cls-2"
          d="M0,43.61C3.8,34,7.59,24.45,11.3,14.88c.67-1.74,1.8-2,3.45-2,7.48.06,15,0,22.48,0-1.23,8.43-1.86,9.19-9.91,9-4.55-.1-7.19,1.69-8.48,6-.67,2.22-1.67,4.33-2.53,6.49C12.13,44.94,12.13,44.94,0,43.61Z"/>
    <path class="cls-2"
          d="M141.36,12.92c-2.39,5.91-4.36,11-6.51,16-1.45,3.39-2.26,6.29,3.16,6.34-.3.95-.48,1.58-.71,2.19-2.77,7.25-2.77,7.25-10.26,6.55-6.87-.64-9-4-6.59-10.47,2-5.27,4.45-10.39,6.16-15.75,1.2-3.77,3-5.56,7.07-4.92C136,13.21,138.32,12.92,141.36,12.92Z"/>
    <path class="cls-2"
          d="M135.2,10.11c-2.25-.07-5-.34-5.15-3.94-.1-3,4.74-6.2,9-6.18,2.65,0,5.12.59,5.44,3.73S140.17,10,135.2,10.11Z"/>
</svg>