<svg id="Capa_1" data-name="Capa 1" xmlns="http://www.w3.org/2000/svg" viewBox="0 0 236.75 74.1">
    <defs>
        <style>.cls-1{fill:#fefefe;}.cls-2{fill:#f4f4f4;}</style>
    </defs>
    <title>visa_w</title>
    <path class="cls-1"
          d="M136.27,74.1A133.28,133.28,0,0,1,118,71.45c-3-.67-3.94-2.3-3.37-5.44,1.95-10.76,1.83-10.73,12.24-7.91a35.62,35.62,0,0,0,15.35.32c3.09-.52,5.71-2.09,6.25-5.59s-1.57-5.6-4.36-7.13c-5.82-3.18-12-5.61-16.8-10.58-6.93-7.24-6.93-19.19.75-25.81C140-1,153.92-1.59,168.49,2c2.32.57,3.17,2.26,2.88,4.55-.15,1.15-.4,2.29-.59,3.44-1.2,7.62-1.21,7.66-8.57,5.83a34.77,34.77,0,0,0-13.38-.54c-3.11.44-5.93,1.77-6.57,5.22-.6,3.21,2,4.81,4.22,6.16,3.55,2.15,7.47,3.7,11,5.9,6.4,4,11.53,8.86,11.26,17.47-.32,10.14-7.13,18.59-18.73,21.71C145.22,73,140.2,73.45,136.27,74.1Z"/>
    <path class="cls-1"
          d="M42.66,33.93l3.82,13.65C48.77,47,49,45,49.62,43.46,54.42,31.21,59.28,19,63.84,6.63,65.27,2.77,67.55.92,71.57,1c3.17,0,6.33,0,9.5,0,3.79,0,4.63,1.48,3.12,5C76.84,23.11,69.63,40.31,62.36,57.49c-1.36,3.22-3.12,6.32-4.1,9.65-1.4,4.76-4.43,5.9-9,5.86-13.65-.1-13.71.06-17.25-12.89C27.49,43.74,23.1,27.33,18.66,10.93c2.94-2.31,5.08.22,7,1.57C33.44,17.91,40,24.4,42.66,33.93Z"/>
    <path class="cls-1"
          d="M92,72.93c-9.46,0-9.6,0-8.06-9.35,3.14-19,6.52-38,9.65-57.07C94.14,2.89,96,1.4,99.47,1,113-.51,113.78.2,111.55,13.64c-3,17.88-6.05,35.75-9.09,53.62C101.53,72.66,101,72.93,92,72.93Z"/>
    <path class="cls-2"
          d="M42.66,33.93C37.47,28,33.51,21.09,26.84,16.44c-2.7-1.88-5.52-3.56-8.17-5.51C13.07,6.72,5.78,6,0,1.9,10.93,1.49,21.74-.32,32.55,2a6.45,6.45,0,0,1,5,5C39.71,15.94,42.12,24.76,42.66,33.93Z"/>
    <path class="cls-1"
          d="M236.49,68.05C232.3,49.38,228.37,30.64,224.12,12,221.44.21,220.31-.15,208.17,1.07c-6.34.64-10.5,3.19-12.77,9.24-2,5.44-4.6,10.7-6.94,16-6.09,13.86-12.14,27.74-18.32,41.57-1.56,3.49-.69,5,3.1,5,3.5,0,7-.1,10.49,0,3.13.12,5.29-1.2,5.93-4.18,1.28-6,5.07-7.62,10.61-6.86a33.59,33.59,0,0,0,4.49,0,58.83,58.83,0,0,0,6,0c4.8-.49,7.67,1.15,8.09,6.32.28,3.41,2.43,4.85,5.82,4.72,2.66-.11,5.33-.11,8,0C236.33,73.1,237.28,71.6,236.49,68.05ZM210,47.83l-1.49.08c-11.25.58-11.25.58-7.1-9.9l6.16-15.55,1.21.21c1.53,6.92,3.12,13.82,4.56,20.76C213.9,46,212.81,47.64,210,47.83Z"/>
</svg>