<?xml version="1.0" encoding="utf-8"?>
<!-- Generator: Adobe Illustrator 21.1.0, SVG Export Plug-In . SVG Version: 6.00 Build 0)  -->
<svg version="1.1" id="Capa_1" xmlns="http://www.w3.org/2000/svg"  x="0px" y="0px"
	 viewBox="0 0 113.4 115" style="enable-background:new 0 0 113.4 115;" xml:space="preserve">
<style type="text/css">
	.st0{fill:#FFFFFF;}
	.st1{fill:#74ACDF;stroke:#74ACDF;stroke-miterlimit:10;}
	.st2{fill:#122B40;}
	.st3{fill:none;stroke:#74ACDF;stroke-width:6;stroke-linecap:round;stroke-miterlimit:10;}
	.st4{fill:#122B40;stroke:#122B40;stroke-miterlimit:10;}
	.st5{fill:#74ACDF;}
	.st6{fill:none;stroke:#122B40;stroke-width:6;stroke-linecap:round;stroke-miterlimit:10;}
</style>
<circle class="st0" cx="261.8" cy="57.8" r="56.7"/>
<rect x="410.3" class="st0" width="113.4" height="115"/>
<title>autoqe_2</title>
<g>
	<path class="st1" d="M98,28.6c-2.1-5.6-5.4-10.7-9.7-14.9c-4-3.9-8.8-6.9-14.1-8.7c-5.6-1.9-11.6-2.8-17.5-2.8
		c-6,0-12,1.2-17.5,3.6c-5.3,2.3-10.2,5.6-14.3,9.7c-4,4.1-7.3,8.9-9.7,14.2c-2.3,5.6-3.5,11.5-3.5,17.5c0,6,1.2,12,3.6,17.5
		c2.3,5.3,5.6,10.1,9.7,14.1c4.2,4.1,9,7.3,14.4,9.7c5.5,2.4,11.5,3.6,17.5,3.5c2.8-0.1,5.5-0.4,8.2-0.9c2.8-0.8,7.3-2.4,9.4-0.4
		l27.3,22.3L101.7,50C101.7,42.7,100.5,35.4,98,28.6z"/>
	<path class="st2" d="M48.7,73l35,13.3l0.2-37.5c0.6-13.3-10.3-27-23.2-29.5c-14.5-2.7-28.4,6.8-31.1,21.3c0,0,0,0,0,0
		C27.2,53.6,36.1,68.7,48.7,73z M45.2,51.3c-3.8-5.5-2.4-13.1,3.2-16.9s13.1-2.4,16.9,3.2s2.4,13.1-3.2,16.9c0,0,0,0,0,0
		C56.6,58.3,49,56.9,45.2,51.3L45.2,51.3z"/>
	<line class="st3" x1="64.4" y1="46.2" x2="64.4" y2="78.6"/>
</g>
<g>
	<path class="st4" d="M293.6,35.2c-1.6-4.3-4.1-8.2-7.5-11.4c-3.1-3-6.8-5.3-10.9-6.7c-4.3-1.4-8.9-2.2-13.5-2.1
		c-4.6,0-9.2,0.9-13.5,2.7c-4.1,1.8-7.8,4.3-11,7.5c-3.1,3.2-5.6,6.9-7.4,10.9c-1.8,4.3-2.7,8.9-2.7,13.5c0,4.6,0.9,9.2,2.7,13.5
		c1.8,4.1,4.3,7.8,7.5,10.9c3.2,3.1,6.9,5.7,11,7.4c4.2,1.9,8.8,2.8,13.5,2.7c2.1,0,4.3-0.3,6.3-0.7c2.1-0.6,5.6-1.9,7.3-0.3
		l21,17.1l-0.1-48.4C296.5,46.1,295.5,40.5,293.6,35.2z"/>
	<path class="st5" d="M255.7,69.4l26.9,10.3l0.1-28.8c0.4-10.2-7.9-20.8-17.9-22.7c-11.1-2.1-21.8,5.3-23.9,16.4c0,0,0,0,0,0
		C239.1,54.5,246,66.1,255.7,69.4z M253,52.7c-2.9-4.3-1.8-10.1,2.4-13c4.3-2.9,10.1-1.8,13,2.4s1.8,10.1-2.4,13c0,0,0,0,0,0
		C261.8,58.1,255.9,57,253,52.7L253,52.7z"/>
	<line class="st6" x1="267.7" y1="48.8" x2="267.7" y2="73.7"/>
</g>
<g>
	<path class="st4" d="M508.4,28.6c-2.1-5.6-5.4-10.7-9.7-14.9c-4-3.9-8.8-6.9-14.1-8.7c-5.6-1.9-11.6-2.8-17.5-2.8
		c-6,0-12,1.2-17.5,3.6c-5.3,2.3-10.2,5.6-14.3,9.7c-4,4.1-7.3,8.9-9.7,14.2c-2.3,5.6-3.5,11.5-3.5,17.5c0,6,1.2,12,3.6,17.5
		c2.3,5.3,5.6,10.1,9.7,14.1c4.2,4.1,9,7.3,14.4,9.7c5.5,2.4,11.5,3.6,17.5,3.5c2.8-0.1,5.5-0.4,8.2-0.9c2.8-0.8,7.3-2.4,9.4-0.4
		l27.3,22.3L512,50C512,42.7,510.8,35.4,508.4,28.6z"/>
	<path class="st5" d="M459.1,73l35,13.3l0.2-37.5c0.6-13.3-10.3-27-23.2-29.5c-14.5-2.7-28.4,6.8-31.1,21.3c0,0,0,0,0,0
		C437.5,53.6,446.4,68.7,459.1,73z M455.6,51.3c-3.8-5.5-2.4-13.1,3.2-16.9c5.5-3.8,13.1-2.4,16.9,3.2s2.4,13.1-3.2,16.9
		c0,0,0,0,0,0C467,58.3,459.4,56.9,455.6,51.3L455.6,51.3z"/>
	<line class="st6" x1="474.7" y1="46.2" x2="474.7" y2="78.6"/>
</g>
</svg>
