<svg id="Capa_1" data-name="Capa 1" xmlns="http://www.w3.org/2000/svg" viewBox="0 0 141.73 141.73">
    <defs>
        <style>.cls-1{fill:#606060;}</style>
    </defs>
    <title>autoqe_gray</title>
    <path id="_Trazado_compuesto_" data-name="&lt;Trazado compuesto&gt;" class="cls-1"
          d="M29.2,75.8h0a13.9,13.9,0,0,0-17.88-8.35h0C4.67,69.59.41,77.72,1.61,84.81l2.9,19L21.4,94.28C27.77,90.85,31.35,82.46,29.2,75.8Zm-15,8.72a5.11,5.11,0,0,1-2.27-6.32,5.11,5.11,0,0,1,6.32-2.27,5.11,5.11,0,0,1,2.27,6.32A4.61,4.61,0,0,1,14.2,84.52Z"/>
    <path id="_Trazado_compuesto_2" data-name="&lt;Trazado compuesto&gt;" class="cls-1"
          d="M2.26,122.22h0a13.9,13.9,0,0,0,18.2,7.63h0c6.57-2.41,10.5-10.7,9-17.74L25.8,93.21,9.31,103.45C3.08,107.13-.15,115.65,2.26,122.22ZM16.9,112.9a5.11,5.11,0,0,1,2.53,6.23,5.11,5.11,0,0,1-6.23,2.53,5.11,5.11,0,0,1-2.53-6.23A4.61,4.61,0,0,1,16.9,112.9Z"/>
    <path id="_Trazado_compuesto_3" data-name="&lt;Trazado compuesto&gt;" class="cls-1"
          d="M123.62,64.58h0a14.86,14.86,0,0,0-17.71,11.47h0c-1.83,7.26,3.12,15.73,10.23,18.65l18.9,8.16.9-20.73C136.45,74.41,130.87,66.41,123.62,64.58ZM123,83.13a5.08,5.08,0,1,1-5.5-8.54,5.46,5.46,0,0,1,7,1.52A4.93,4.93,0,0,1,123,83.13Z"/>
    <path id="_Trazado_compuesto_4" data-name="&lt;Trazado compuesto&gt;" class="cls-1"
          d="M123.4,131.24h0a13.9,13.9,0,0,0,16.37-11h0c1.6-6.82-3.17-14.65-9.86-17.27l-17.8-7.33-.51,19.4C111.25,122.25,116.59,129.64,123.4,131.24Zm.27-17.36a4.75,4.75,0,1,1-1.31,6.59A4.61,4.61,0,0,1,123.67,113.88Z"/>
    <path id="_Trazado_compuesto_5" data-name="&lt;Trazado compuesto&gt;" class="cls-1"
          d="M34.23,76.21h0a9,9,0,0,0,9.19-8.84h0c.25-4.52-3.66-9-8.21-9.9L23,54.8l1.85,12.41C25.48,71.85,29.71,76,34.23,76.21ZM32.45,65.13a3.07,3.07,0,1,1-.1,4.34A3,3,0,0,1,32.45,65.13Z"/>
    <path id="_Trazado_compuesto_6" data-name="&lt;Trazado compuesto&gt;" class="cls-1"
          d="M53.25,55.84h0a10.17,10.17,0,0,0-8.43,11.72h0c.64,5.08,5.9,9.24,11.16,9.34l14.08.49L65.47,64C63.88,58.91,58.33,55.2,53.25,55.84Zm4.23,12a3.48,3.48,0,1,1-5.63-4.07A3.74,3.74,0,0,1,56.71,63,3.37,3.37,0,0,1,57.49,67.81Z"/>
    <path id="_Trazado_compuesto_7" data-name="&lt;Trazado compuesto&gt;" class="cls-1"
          d="M81,76.34h0A10.17,10.17,0,0,0,88.68,64.1h0c-1-5-6.5-8.84-11.75-8.59l-14.08.43L68.31,69C70.23,74,76,77.31,81,76.34ZM76,64.67a3.48,3.48,0,1,1,5.89,3.7,3.74,3.74,0,0,1-4.79,1.09A3.37,3.37,0,0,1,76,64.67Z"/>
    <path id="_Trazado_compuesto_8" data-name="&lt;Trazado compuesto&gt;" class="cls-1"
          d="M89.83,68.91h0A9.27,9.27,0,0,0,100,77.2h0c4.66-.31,8.72-4.89,9.09-9.66l1.19-12.79L97.86,58.21C93.18,59.4,89.52,64.25,89.83,68.91Zm11.12-3.22a3.17,3.17,0,1,1-4.46.45A3.08,3.08,0,0,1,100.95,65.69Z"/>
    <path id="_Trazado_compuesto_9" data-name="&lt;Trazado compuesto&gt;" class="cls-1"
          d="M7.68,60.89h0a6.8,6.8,0,0,0,8,5.47h0c3.39-.5,6.1-4.08,6.08-7.6l.13-9.42L12.93,52.6A8,8,0,0,0,7.68,60.89Zm7.94-3a2.5,2.5,0,0,1,.59,3.23,2.5,2.5,0,0,1-3.23.59,2.5,2.5,0,0,1-.59-3.23A2.26,2.26,0,0,1,15.62,57.88Z"/>
    <path id="_Trazado_compuesto_10" data-name="&lt;Trazado compuesto&gt;" class="cls-1"
          d="M3,41H3a6.8,6.8,0,0,0-.62,9.63h0C4.52,53.32,9,53.81,12,52l8.15-4.72-7.37-6A8,8,0,0,0,3,41Zm6.65,5.28a2.5,2.5,0,0,1-2.47,2.16,2.32,2.32,0,0,1,.31-4.64A2.26,2.26,0,0,1,9.62,46.32Z"/>
    <path id="_Trazado_compuesto_11" data-name="&lt;Trazado compuesto&gt;" class="cls-1"
          d="M28.1,34.1h0a6.8,6.8,0,0,0-9.64.45h0c-2.4,2.44-2.39,6.93-.26,9.73l5.59,7.58,5.14-8A8,8,0,0,0,28.1,34.1Zm-4.52,7.19a2.32,2.32,0,1,1-.2-4.64,2.5,2.5,0,0,1,2.42,2.22A2.26,2.26,0,0,1,23.58,41.29Z"/>
    <path id="_Trazado_compuesto_12" data-name="&lt;Trazado compuesto&gt;" class="cls-1"
          d="M128.12,43.9l-7.37,6,8.15,4.72c3,1.81,7.47,1.32,9.64-1.33h0a6.8,6.8,0,0,0-.62-9.63h0A8,8,0,0,0,128.12,43.9Zm5.32,2.55a2.32,2.32,0,1,1-2.16,2.47A2.26,2.26,0,0,1,133.44,46.45Z"/>
    <path id="_Trazado_compuesto_13" data-name="&lt;Trazado compuesto&gt;" class="cls-1"
          d="M122.36,54.59h0a6.33,6.33,0,0,0-7.69-4.66h0c-3.12.64-5.45,4.12-5.26,7.39l.38,8.77,8.12-3.5A7.49,7.49,0,0,0,122.36,54.59Zm-7.23,3.21a2.17,2.17,0,1,1,3-.72A2.1,2.1,0,0,1,115.14,57.8Z"/>
    <path id="_Trazado_compuesto_14" data-name="&lt;Trazado compuesto&gt;" class="cls-1"
          d="M123.39,63.45h0a3.91,3.91,0,0,0,5.5-.7h0a4.48,4.48,0,0,0-.3-5.58L125,53.08l-2.58,4.81A4.62,4.62,0,0,0,123.39,63.45Zm2.26-4.33a1.34,1.34,0,1,1-1.16,1.49A1.3,1.3,0,0,1,125.64,59.12Z"/>
    <path id="_Trazado_compuesto_15" data-name="&lt;Trazado compuesto&gt;" class="cls-1"
          d="M29,23.59h0a4.41,4.41,0,0,0-6,1.65h0a5.07,5.07,0,0,0,1.21,6.2l4.61,4,2.13-5.79A5.22,5.22,0,0,0,29,23.59Zm-1.84,5.2a1.51,1.51,0,1,1,1.06-1.85A1.46,1.46,0,0,1,27.15,28.79Z"/>
    <path id="_Trazado_compuesto_16" data-name="&lt;Trazado compuesto&gt;" class="cls-1"
          d="M30,36.08h0a3.17,3.17,0,0,0,4.49-.31h0a3.64,3.64,0,0,0,0-4.54L31.8,27.75l-2.32,3.78A3.75,3.75,0,0,0,30,36.08Zm2-3.4a1.08,1.08,0,1,1-1,1.15A1.05,1.05,0,0,1,32,32.68Z"/>
    <path id="_Trazado_compuesto_17" data-name="&lt;Trazado compuesto&gt;" class="cls-1"
          d="M38.88,33.17h0a3.17,3.17,0,0,0,2.31-3.86h0a3.64,3.64,0,0,0-3.72-2.61l-4.39.22L34.87,31A3.75,3.75,0,0,0,38.88,33.17Zm-1.63-3.61A1.08,1.08,0,1,1,37.62,31,1.05,1.05,0,0,1,37.25,29.56Z"/>
    <path id="_Trazado_compuesto_18" data-name="&lt;Trazado compuesto&gt;" class="cls-1"
          d="M42.46,76.51h0A18.79,18.79,0,0,0,28.83,99.44h0c2,9.25,12.36,16.07,22.05,15.4l26-1.35-10.6-24C62.52,80.45,51.72,74.52,42.46,76.51Zm9.72,21.36a6.91,6.91,0,0,1-8.81,2.21,6.91,6.91,0,0,1-2.21-8.81A6.91,6.91,0,0,1,50,89.06,6.24,6.24,0,0,1,52.18,97.87Z"/>
    <path id="_Trazado_compuesto_19" data-name="&lt;Trazado compuesto&gt;" class="cls-1"
          d="M97,116h0A18.79,18.79,0,0,0,110.67,93.1h0c-2-9.25-12.37-16.06-22.06-15.39l-26,1.37,10.62,24C77,112.11,87.8,118,97,116ZM87.31,94.69a6.42,6.42,0,1,1,11,6.59,6.91,6.91,0,0,1-8.81,2.22A6.24,6.24,0,0,1,87.31,94.69Z"/>
    <path id="_Trazado_compuesto_20" data-name="&lt;Trazado compuesto&gt;" class="cls-1"
          d="M60.87,10.29h0A6.67,6.67,0,0,0,55.34,18h0c.42,3.33,3.88,6.07,7.33,6.13l9.24.32-3-8.82A7.89,7.89,0,0,0,60.87,10.29Zm2.78,7.86a2.45,2.45,0,0,1-3.19.51A2.45,2.45,0,0,1,60,15.47,2.45,2.45,0,0,1,63.14,15,2.21,2.21,0,0,1,63.65,18.15Z"/>
    <path id="_Trazado_compuesto_21" data-name="&lt;Trazado compuesto&gt;" class="cls-1"
          d="M77.86,23.38h0a6,6,0,0,0,4.69-7h0c-.48-3-3.65-5.28-6.73-5.23H67.57l3,7.77A7,7,0,0,0,77.86,23.38Zm-2.73-6.91a2,2,0,1,1,3.38,2.27,2.19,2.19,0,0,1-2.82.56A2,2,0,0,1,75.13,16.47Z"/>
    <path id="_Trazado_compuesto_22" data-name="&lt;Trazado compuesto&gt;" class="cls-1"
          d="M33.48,13.6h0a6.25,6.25,0,0,0-5.18,7.2h0c.39,3.12,3.63,5.68,6.86,5.74l8.65.3L41,18.59A7.38,7.38,0,0,0,33.48,13.6ZM36.08,21a2.14,2.14,0,1,1-3.46-2.5,2.3,2.3,0,0,1,3-.48A2.07,2.07,0,0,1,36.08,21Z"/>
    <path id="_Trazado_compuesto_23" data-name="&lt;Trazado compuesto&gt;" class="cls-1"
          d="M50.26,24.55h0A6.25,6.25,0,0,0,55,17h0c-.6-3.09-4-5.43-7.22-5.28L39.09,12l3.35,8.05A7.38,7.38,0,0,0,50.26,24.55Zm-3.08-7.17a2.14,2.14,0,1,1,3.62,2.27,2.3,2.3,0,0,1-2.94.67A2.07,2.07,0,0,1,47.18,17.38Z"/>
    <path id="_Trazado_compuesto_24" data-name="&lt;Trazado compuesto&gt;" class="cls-1"
          d="M110.44,40.92l5.14,8,5.59-7.58c2.13-2.79,2.14-7.28-.26-9.73h0a6.8,6.8,0,0,0-9.64-.45h0A8,8,0,0,0,110.44,40.92Zm3.12-5a2.32,2.32,0,1,1,2.22,2.42A2.26,2.26,0,0,1,113.56,35.91Z"/>
    <path id="_Trazado_compuesto_25" data-name="&lt;Trazado compuesto&gt;" class="cls-1"
          d="M110.91,24.35l.53,5,4.48-2.27a4.16,4.16,0,0,0,2.21-4.69h0a3.62,3.62,0,0,0-4.48-2.52h0A4.28,4.28,0,0,0,110.91,24.35Zm2.69-1.64a1.24,1.24,0,0,1,2.16,1.21,1.33,1.33,0,0,1-1.69.48A1.2,1.2,0,0,1,113.6,22.71Z"/>
    <path id="_Trazado_compuesto_26" data-name="&lt;Trazado compuesto&gt;" class="cls-1"
          d="M111.34,29.07l-1.22-4.13-3.5,2.48a3.41,3.41,0,0,0-1.18,4.21h0a3.26,3.26,0,0,0,4.24,1.52h0A3.51,3.51,0,0,0,111.34,29.07Zm-2.06,1.72a1.15,1.15,0,0,1-1.38.62,1.14,1.14,0,0,1-.67-1.35,1.15,1.15,0,0,1,1.38-.62A1,1,0,0,1,109.28,30.79Z"/>
    <path id="_Trazado_compuesto_27" data-name="&lt;Trazado compuesto&gt;" class="cls-1"
          d="M119,45.24l-1,3.82,3.92-.48a3.27,3.27,0,0,0,2.89-2.85h0a2.82,2.82,0,0,0-2.63-3h0A3.37,3.37,0,0,0,119,45.24Zm2.42-.49a1.05,1.05,0,0,1,1.37.1,1,1,0,0,1-.1,1.36,1.05,1.05,0,0,1-1.37-.1A.93.93,0,0,1,121.39,44.76Z"/>
    <path id="_Trazado_compuesto_28" data-name="&lt;Trazado compuesto&gt;" class="cls-1"
          d="M87.78,61.19l2.39,3.14L92.24,61a3.27,3.27,0,0,0-.42-4h0a2.82,2.82,0,0,0-4,.16h0A3.37,3.37,0,0,0,87.78,61.19ZM88.91,59a1.05,1.05,0,0,1,.93-1,1,1,0,0,1,1,.93,1.05,1.05,0,0,1-.93,1A.93.93,0,0,1,88.91,59Z"/>
    <path id="_Trazado_compuesto_29" data-name="&lt;Trazado compuesto&gt;" class="cls-1"
          d="M99,17.36l-4.92,7.2,8.41,2c3.13.81,6.93-.79,8.14-3.69h0a6.25,6.25,0,0,0-3.06-8.32h0A7.38,7.38,0,0,0,99,17.36Zm5.35.85a2.3,2.3,0,0,1,2.74,1.26,2.14,2.14,0,1,1-4,1.49A2.07,2.07,0,0,1,104.34,18.21Z"/>
    <path id="_Trazado_compuesto_30" data-name="&lt;Trazado compuesto&gt;" class="cls-1"
          d="M95.33,19.87l5.2-7L92.2,10.52c-3.09-.93-7,.52-8.28,3.37h0a6.25,6.25,0,0,0,2.74,8.44h0A7.38,7.38,0,0,0,95.33,19.87ZM90,18.81a2.3,2.3,0,0,1-2.69-1.36,2.14,2.14,0,1,1,4.06-1.33A2.07,2.07,0,0,1,90,18.81Z"/>
</svg>