<?xml version="1.0" standalone="no"?>
<!DOCTYPE svg PUBLIC "-//W3C//DTD SVG 1.1//EN" "http://www.w3.org/Graphics/SVG/1.1/DTD/svg11.dtd" >
<svg xmlns="http://www.w3.org/2000/svg" version="1.1">
    <metadata></metadata>
    <defs>
        <font id="geometos_roundedregular" horiz-adv-x="1585">
            <font-face units-per-em="2048" ascent="1536" descent="-512"/>
            <missing-glyph horiz-adv-x="700"/>
            <glyph horiz-adv-x="0"/>
            <glyph unicode="&#xd;" horiz-adv-x="700"/>
            <glyph horiz-adv-x="0"/>
            <glyph horiz-adv-x="0"/>
            <glyph unicode=" " horiz-adv-x="700"/>
            <glyph unicode="&#x09;" horiz-adv-x="700"/>
            <glyph unicode="&#xa0;" horiz-adv-x="700"/>
            <glyph unicode="!" horiz-adv-x="600"
                   d="M147 1434q-2 27 15.5 45t44.5 18h182q27 0 44.5 -18.5t15.5 -44.5l-46 -934q-2 -27 -21 -45.5t-44 -18.5h-80q-27 0 -45 18.5t-20 45.5zM154 63v179q0 27 18 45t45 18h162q25 0 43 -18.5t18 -44.5v-179q0 -27 -18 -45t-43 -18h-162q-27 0 -45 18.5t-18 44.5z"/>
            <glyph unicode="&#x22;" horiz-adv-x="909"
                   d="M100 1458q-2 25 15.5 43.5t42.5 18.5h149q27 0 44.5 -18.5t15.5 -43.5l-25 -321q-2 -27 -21.5 -45.5t-46.5 -18.5h-81q-25 0 -44.5 18.5t-23.5 45.5zM535 1458q-2 25 15 43.5t42 18.5h149q27 0 44.5 -18.5t13.5 -43.5l-25 -321q-2 -27 -21 -45.5t-46 -18.5h-82 q-25 0 -44.5 18.5t-21.5 45.5z"/>
            <glyph unicode="#" horiz-adv-x="1753"
                   d="M63 434l58 146q10 25 34.5 42t51.5 17h147q27 0 51.5 17.5t34.5 41.5l45 117q10 25 -1 42t-38 17h-145q-27 0 -39 17.5t-2 42.5l57 145q10 25 35 42.5t51 17.5h146q27 0 50.5 17.5t33.5 41.5l96 246q10 23 34.5 40t51.5 17h158q27 0 38 -17.5t1 -39.5l-97 -246 q-10 -25 2.5 -42t38.5 -17h138q27 0 51 17.5t35 41.5l96 246q10 23 34.5 40t51.5 17h158q27 0 38 -17.5t1 -39.5l-97 -246q-10 -25 1.5 -42t37.5 -17h154q27 0 38 -17.5t1 -42.5l-58 -145q-10 -25 -33.5 -42.5t-50.5 -17.5h-153q-27 0 -51.5 -17t-34.5 -42l-45 -117 q-10 -25 1 -42t38 -17h151q27 0 38 -17.5t1 -41.5l-57 -146q-10 -25 -33.5 -42t-50.5 -17h-152q-27 0 -51.5 -17.5t-34.5 -40.5l-100 -258q-10 -25 -35 -42t-51 -17h-158q-27 0 -38 17.5t-1 41.5l101 258q10 23 -1.5 40.5t-37.5 17.5h-140q-27 0 -51 -17.5t-35 -42.5 l-100 -256q-10 -25 -33.5 -42t-50.5 -17h-158q-27 0 -39 17.5t-2 41.5l101 256q10 25 -1.5 42.5t-37.5 17.5h-146q-27 0 -39 17.5t-2 41.5zM723 698q-10 -25 1 -42t38 -17h137q27 0 51.5 17.5t34.5 41.5l45 117q10 25 -1 42t-38 17h-137q-27 0 -51.5 -17t-34.5 -42z"/>
            <glyph unicode="$" horiz-adv-x="1392"
                   d="M109 1085q0 104 34 185q37 76 97 127q55 51 135 82q23 10 46 16t48 12t43 27.5t18 48.5v41q0 27 18.5 45.5t43.5 18.5h162q27 0 45 -18.5t18 -45.5v-37q0 -27 17.5 -47t39.5 -27q16 -4 30 -6t28 -6q27 -8 52.5 -18t49.5 -21q27 -10 73 -34.5t81 -53.5q20 -16 25.5 -39.5 t-11.5 -46.5l-86 -123q-16 -23 -41.5 -26.5t-48.5 10.5q-80 51 -152 78q-96 39 -208 39q-18 0 -39 -2t-45 -7q-47 -10 -90 -30q-20 -10 -38 -22.5t-32 -28.5q-27 -33 -27 -78t33 -76q29 -29 84 -51q25 -10 53.5 -18.5t59.5 -16.5t60.5 -14.5t57.5 -14.5q23 -4 47.5 -10 t53.5 -10t59.5 -11.5t61.5 -17.5q61 -18 125 -49q61 -31 108 -78q51 -51 78 -119q31 -72 31 -172q0 -106 -37 -188q-16 -41 -42 -76t-57 -63q-63 -57 -155 -88q-31 -12 -66 -20.5t-71 -14.5q-25 -4 -43.5 -23.5t-18.5 -46.5v-39q0 -27 -18.5 -45t-44.5 -18h-162 q-25 0 -43.5 18.5t-18.5 44.5v56q0 27 -18 48t-43 29q-33 6 -63 19q-53 18 -109 47q-27 14 -51.5 28.5t-48.5 30.5q-12 8 -25.5 15.5t-26.5 17.5q-23 14 -27.5 39t11.5 47l86 127q14 23 39 27t47 -11q92 -57 180 -98q117 -57 252 -57q68 0 123 18q49 14 90 45q37 29 55 64 q18 33 19 69q0 43 -29 78q-27 29 -73 51q-23 10 -49.5 18.5t-59.5 16.5q-31 8 -62.5 14.5t-66.5 12.5q-23 4 -49.5 9t-55.5 11q-61 8 -122 31q-66 18 -125 51q-61 31 -111 80q-49 45 -80 115q-29 68 -28 155z"/>
            <glyph unicode="%" horiz-adv-x="1966"
                   d="M68 1090q0 92 28.5 168.5t79.5 132t121 87t154 31.5q82 0 152.5 -31.5t121.5 -87t80 -132t29 -168.5q0 -90 -30 -166t-81 -132.5t-120.5 -88t-151.5 -31.5q-84 0 -154 31.5t-121 87t-79.5 132t-28.5 167.5zM322 1090q0 -10 3 -43t15 -68t37.5 -62.5t73.5 -27.5 q33 0 57 19.5t40.5 50t24 65.5t7.5 66q0 29 -6.5 63.5t-21.5 65t-39.5 51t-61.5 20.5q-45 0 -71 -25.5t-39 -59.5t-16 -67.5t-3 -47.5zM451 15q8 -15 34 -15h109q27 0 54.5 15t39.5 38l825 1395q14 23 5 38t-35 15h-109q-27 0 -53.5 -15.5t-40.5 -37.5l-825 -1395 q-12 -23 -4 -38zM1122 389q0 90 29 167t80 132t120.5 87t153.5 32q82 0 153 -32t121 -87t78.5 -132t28.5 -167t-28.5 -167t-80 -133t-121 -88t-151.5 -32q-84 0 -153.5 32t-120.5 87t-80 132t-29 169zM1376 389q0 -10 3 -44t15.5 -68.5t38 -62.5t72.5 -28q33 0 57.5 19.5 t41 50.5t23.5 66.5t7 66.5q0 29 -6 63.5t-21.5 65.5t-40 51.5t-61.5 20.5q-45 0 -70.5 -25.5t-39 -59.5t-16.5 -68t-3 -48z"/>
            <glyph unicode="&#x26;" horiz-adv-x="1402"
                   d="M63 340q-16 125 33 215q49 94 142 170q18 16 57 45q8 4 15 10t16 11q12 10 13 26.5t-22 44.5q-23 29 -38 61.5t-27 67.5q-31 96 -16 193q8 82 53 155q43 70 114 117q74 49 158 64q45 8 87 5t85 -14q84 -23 152 -79q63 -55 102 -136q18 -39 26.5 -79.5t8.5 -81.5 q-2 -84 -41 -166q-35 -68 -94 -115q-18 -16 -39 -31.5t-43 -31.5q-23 -14 -26 -37t16 -41l92 -97q18 -18 41.5 -17t38.5 24q49 70 73 116q6 10 10.5 18.5t8.5 14.5q8 14 29.5 15t44.5 -9l135 -65q23 -12 34 -31.5t1 -36.5q-4 -10 -10.5 -19.5t-12.5 -21.5q-20 -39 -52 -87 t-75 -109q-16 -23 -9 -43.5t25 -38.5l134 -144q16 -18 15 -42.5t-24 -41.5l-114 -88q-20 -16 -48.5 -14t-46.5 20l-104 107q-18 18 -45 20t-47 -14q-23 -16 -43.5 -30.5t-40.5 -26.5q-61 -35 -119 -58q-55 -23 -96 -28q-23 -4 -40.5 -6.5t-29.5 -4.5q-92 -4 -166 21 q-76 23 -139 74t-102 118q-39 68 -50 152zM338 373q6 -59 53 -99q51 -43 117 -45q45 -2 88 11q43 12 72 30q35 18 57 39q20 20 18 43t-20 41l-178 185q-18 18 -46 23t-48 -9q-12 -8 -23.5 -16.5t-21.5 -18.5q-6 -4 -23 -20q-12 -16 -25 -37q-14 -27 -20 -54q-6 -35 0 -73z M496 1165q-7 -62 20 -121q14 -35 27 -55q14 -23 35.5 -30t37.5 4q8 4 12.5 8t12.5 8q16 10 29.5 22.5t25.5 22.5q63 68 64 154q0 51 -37 86q-35 29 -86 32q-45 2 -90 -28q-45 -33 -51 -103z"/>
            <glyph unicode="'" horiz-adv-x="471" d="M94 1520h275l-33 -447h-207z"/>
            <glyph unicode="(" horiz-adv-x="808"
                   d="M92 750q0 270 82 479q41 106 102.5 199.5t141.5 179.5q33 39 74 73q10 8 20 16.5t20 16.5q16 12 40 7t40 -25l86 -115q16 -23 12.5 -48.5t-24.5 -41.5q-27 -23 -61 -59q-124 -130 -185 -302t-61 -380q0 -209 61 -381t185 -301q23 -25 53 -50q8 -6 14 -12t15 -12 q12 -10 10 -30.5t-19 -43.5l-86 -115q-16 -23 -39.5 -27.5t-40.5 7.5q-10 10 -20 17.5t-20 17.5q-20 16 -39 33.5t-35 37.5q-162 170 -244 381q-82 209 -82 478z"/>
            <glyph unicode=")" horiz-adv-x="735"
                   d="M39 -36.5q-2 20.5 10 30.5q8 6 14.5 12t14.5 12q31 25 53 50q123 129 184 301t62 381q0 209 -62 380q-61 172 -184 302q-14 16 -29.5 31.5t-31.5 27.5q-20 16 -24.5 42t11.5 48l86 115q16 20 40 25t40 -7q10 -8 20.5 -16t20.5 -17q39 -35 74 -73q80 -86 141.5 -179.5 t102.5 -199.5q82 -209 82 -479q0 -268 -82 -478q-82 -211 -244 -381q-16 -20 -34.5 -37.5t-39.5 -33.5q-10 -10 -20.5 -17.5t-20.5 -17.5q-16 -12 -39.5 -7t-40.5 27l-86 115q-16 23 -18 43.5z"/>
            <glyph unicode="*" horiz-adv-x="890"
                   d="M84 1217l20 55q8 25 31 37t47 2l109 -39q25 -8 42 4t17 39v117q0 27 17.5 45t44.5 18h65q27 0 45.5 -18.5t18.5 -44.5v-117q0 -27 16 -39t41 -4l107 39q25 8 47 -3.5t30 -35.5l21 -55q8 -25 -3.5 -47.5t-35.5 -32.5l-111 -39q-25 -8 -31 -28.5t11 -41.5l72 -92 q16 -20 12 -44t-27 -40l-59 -39q-23 -14 -47.5 -10t-40.5 26l-64 89q-14 23 -34.5 23t-36.5 -23l-64 -89q-14 -23 -39.5 -26.5t-48.5 10.5l-57 39q-23 14 -27 38.5t12 45.5l74 92q16 20 10 41t-30 29l-113 39q-25 10 -37 32.5t-4 47.5z"/>
            <glyph unicode="+" horiz-adv-x="1161"
                   d="M72 705v126q0 27 17 45.5t44 18.5h252q27 0 45.5 18.5t18.5 44.5v254q0 27 17 45.5t44 18.5h139q27 0 45.5 -18.5t18.5 -45.5v-254q0 -27 17.5 -45t43.5 -18h252q27 0 45.5 -18.5t18.5 -45.5v-126q0 -27 -18.5 -45.5t-45.5 -18.5h-252q-27 0 -44 -18.5t-17 -44.5v-256 q0 -27 -18.5 -45.5t-45.5 -18.5h-139q-27 0 -44 18.5t-17 45.5v256q0 27 -18.5 45t-45.5 18h-252q-27 0 -44 18.5t-17 45.5z"/>
            <glyph unicode="," horiz-adv-x="430"
                   d="M53 127q-6 61 39 109q43 45 105 49q55 2 98 -31q47 -37 61 -94q12 -64 4 -125q-4 -33 -16 -61.5t-29 -57.5q-33 -57 -86 -100q-16 -12 -32.5 -21.5t-34.5 -19.5q-25 -10 -41.5 -11.5t-32.5 23.5q-10 16 -3 31.5t36 36.5q12 10 37.5 34.5t34.5 44.5q8 20 -5.5 35t-35.5 23 q-29 12 -50 33q-45 39 -49 102z"/>
            <glyph unicode="-" horiz-adv-x="837"
                   d="M78 709v127q0 27 18.5 45t44.5 18h543q27 0 45.5 -18.5t18.5 -44.5v-127q0 -27 -18.5 -45.5t-45.5 -18.5h-543q-27 0 -45 18.5t-18 45.5z"/>
            <glyph unicode="." horiz-adv-x="393"
                   d="M51 135q0 61 44 105.5t106 44.5q63 0 107 -44.5t44 -105.5q0 -63 -44 -107t-107 -44q-61 0 -105.5 44t-44.5 107z"/>
            <glyph unicode="/" horiz-adv-x="1110"
                   d="M-23 -225l859 1876q10 25 31.5 41t45.5 16h152q27 0 37 -16.5t0 -40.5l-858 -1876q-10 -23 -32 -40.5t-48 -17.5h-150q-27 0 -37 17.5t0 40.5z"/>
            <glyph unicode="0" horiz-adv-x="1529"
                   d="M92 748q0 172 49 314t137.5 244.5t212 160t271.5 57.5q145 0 268 -58.5t212 -162t139.5 -246t50.5 -309.5q0 -156 -46.5 -295.5t-132.5 -245.5q-92 -117 -219 -177.5t-272 -60.5q-150 0 -277 61.5t-219 176.5q-86 106 -130 244.5t-44 296.5zM383 748q0 -90 22.5 -181.5 t68.5 -164t118 -118.5t170 -46q68 0 135.5 32.5t121.5 97t87 160t33 220.5q0 102 -28 206.5t-79 169.5q-102 131 -270 131q-66 0 -133.5 -29.5t-121.5 -91t-89 -157.5t-35 -229z"/>
            <glyph unicode="1" horiz-adv-x="909"
                   d="M71 1007.5q1 26.5 19 43.5l430 407q18 18 50 30.5t59 12.5h55q27 0 45.5 -18t18.5 -45v-1375q0 -27 -18.5 -45t-45.5 -18h-160q-27 0 -45 18.5t-18 44.5v881q0 27 -13.5 33t-31.5 -12l-129 -123q-18 -16 -45 -16.5t-43 18.5l-111 119q-18 18 -17 44.5z"/>
            <glyph unicode="2" horiz-adv-x="1314"
                   d="M141 1163q8 16 15.5 33.5t17.5 36.5q39 74 102 137q61 66 156 109q90 45 215 45q131 0 232 -41q94 -41 161 -109q68 -70 97 -149q31 -84 30 -168q0 -84 -22 -158q-23 -74 -64 -135q-20 -33 -45.5 -63.5t-54.5 -59.5t-61.5 -59.5t-69.5 -59.5q-16 -10 -31.5 -24.5 t-36.5 -30.5q-18 -16 -38.5 -33.5t-43.5 -34.5q-23 -18 -45 -36.5t-45 -36.5q-10 -10 -17 -15.5t-18 -13.5q-18 -16 -12 -29.5t31 -13.5h528q27 0 45.5 -18.5t18.5 -45.5v-127q0 -27 -18.5 -45t-45.5 -18h-911q-27 0 -44 18.5t-17 44.5v160q0 27 13 56.5t34 46.5 q12 10 26.5 22t30.5 27q35 29 69.5 58.5t73.5 60.5q37 33 75 64.5t77 64.5q37 31 70.5 58.5t62.5 51.5q35 29 60.5 52.5t45.5 45.5q20 23 36 43.5t26 40.5q10 18 16 38t8 36q6 33 7 70q0 31 -5.5 55.5t-15.5 46.5q-20 39 -55 64q-37 27 -76 35q-47 10 -82 10q-72 0 -117 -33 t-73 -78q-16 -23 -23.5 -40t-17.5 -36q-8 -16 -28.5 -29.5t-59.5 -2.5l-146 36q-25 8 -38 30t-3 46z"/>
            <glyph unicode="3" horiz-adv-x="1228"
                   d="M104 328q-10 25 2.5 47t38.5 31l154 43q25 8 45.5 -2.5t26.5 -32.5l12 -36t20 -40q25 -43 72 -78q51 -35 129 -35q119 0 178 54q57 55 58 129q0 76 -25 122q-25 51 -72 74q-47 27 -116 37q-23 4 -47.5 5t-53.5 3q-27 4 -45 22.5t-18 45.5v94q0 27 18.5 46.5t44.5 21.5 q27 2 50.5 3t46.5 5q66 6 118 28q45 20 74 66q25 43 25 117q0 76 -58 127q-59 53 -178 53q-78 0 -129 -35q-47 -35 -72 -78q-23 -35 -30 -63q-8 -29 -28.5 -41t-45.5 -4l-154 45q-27 6 -39 28.5t-2 47.5q6 16 13.5 32.5t15.5 32.5q18 35 42 70t54 67q29 33 67 59.5t85 49.5 q92 43 223 43q147 0 244 -39q98 -39 162 -102q63 -68 90 -140q27 -74 26 -153q0 -86 -20 -140q-10 -29 -25.5 -52t-31.5 -44q-39 -43 -80 -65q-10 -6 -20.5 -12.5t-20.5 -10.5q-39 -21 -2 -37q10 -6 20 -11t21 -11q45 -27 80 -64q37 -43 57 -100q23 -57 22 -145v-22.5 t-2 -27.5q-4 -33 -12 -65q-4 -16 -11 -34.5t-16 -37.5q-10 -18 -20 -36.5t-27 -37.5q-41 -51 -96 -86q-59 -37 -113 -53q-55 -20 -116 -26q-29 -4 -55.5 -6.5t-53.5 -2.5q-133 0 -223 45q-92 43 -152 109q-31 33 -54 67.5t-42 69.5q-8 16 -15 32.5t-14 33.5z"/>
            <glyph unicode="4" horiz-adv-x="1376"
                   d="M109 395v119q0 27 12 59.5t29 51.5l706 829q16 20 47 33.5t58 13.5h92q27 0 44 -18.5t17 -44.5v-789q0 -27 18.5 -45t45.5 -18h57q27 0 44 -18.5t17 -45.5v-127q0 -27 -17 -45t-44 -18h-57q-27 0 -45.5 -18.5t-18.5 -45.5v-205q0 -27 -17.5 -45t-43.5 -18h-162 q-27 0 -45.5 18.5t-18.5 44.5v205q0 27 -17 45.5t-44 18.5h-594q-27 0 -45 18.5t-18 44.5zM506 600.5q6 -14.5 33 -14.5h227q27 0 44 18.5t17 44.5v305q0 27 -11.5 31t-27.5 -16l-272 -334q-16 -20 -10 -34.5z"/>
            <glyph unicode="5" horiz-adv-x="1261"
                   d="M97.5 220q-3.5 28 13.5 50l73 103q16 23 39 23.5t41 -17.5q16 -16 30.5 -28.5t31.5 -22.5q55 -39 123 -66q68 -29 163 -33q47 0 95 19q45 14 81 49q37 31 60 78q23 49 22 102q0 129 -63 211q-66 82 -170 84q-33 2 -60.5 -1t-52.5 -7q-45 -8 -86 -29q-20 -10 -35.5 -21.5 t-29.5 -21.5q-6 -6 -12.5 -12t-12.5 -10q-10 -10 -32.5 -7t-45.5 15l-106 57q-23 12 -35 39t-8 51l112 615q6 27 28 44t48 17h690q27 0 45.5 -18.5t18.5 -44.5v-127q0 -27 -18.5 -45.5t-45.5 -18.5h-458q-27 0 -48.5 -17.5t-25.5 -43.5l-31 -195q-4 -25 6.5 -33t32.5 5 q14 6 26.5 12t28.5 10q59 16 109 16q244 0 381 -137t137 -387q0 -111 -43 -205q-39 -94 -123 -168q-78 -66 -172 -98q-100 -35 -207 -35q-104 0 -188 23q-82 20 -145 57q-61 33 -113 80q-12 10 -24.5 21.5t-22.5 21.5q-18 18 -21.5 46z"/>
            <glyph unicode="6" horiz-adv-x="1329"
                   d="M96 569q6 117 62 246q18 41 69 119q49 80 117 178q33 47 67.5 97.5t71.5 103.5q27 37 51.5 70.5t49.5 66.5q16 23 44.5 37t55.5 14h227q27 0 35 -14t-8 -37q-12 -16 -24.5 -33.5t-26.5 -34.5q-23 -33 -47.5 -65.5t-46.5 -65.5q-23 -35 -47.5 -67.5t-47.5 -65.5 q-14 -18 -26.5 -36.5t-24.5 -34.5q-16 -23 -21 -35.5t3 -7.5q4 2 10 3t10 5q10 4 23.5 5t27.5 3q117 6 213 -31q94 -37 162 -106q68 -72 105 -168q35 -96 39 -217q0 -72 -13 -129q-12 -53 -30 -103q-20 -45 -46 -78q-27 -37 -49 -59q-53 -53 -108 -82q-61 -33 -117 -47 q-61 -20 -111 -23q-53 -6 -92 -6q-96 0 -176 27q-82 25 -151 72q-70 45 -119 110q-51 61 -76 142q-41 131 -35 247zM387 496q0 -55 23 -107q23 -53 57 -84q35 -37 88 -57q52 -23 107 -23q53 0 108 23q49 23 88 57q37 35 60 84q20 47 20 107q0 57 -20 104t-60 86 q-43 39 -88 59q-49 20 -108 21q-59 0 -107 -21q-49 -20 -88 -59q-35 -35 -57 -86q-23 -51 -23 -104z"/>
            <glyph unicode="7" horiz-adv-x="1230"
                   d="M88 1311v127q0 27 18.5 45t45.5 18h944q27 0 45 -18t18 -45v-156q0 -27 -9 -61.5t-22 -57.5l-622 -1108q-12 -23 -40 -39t-54 -16h-201q-27 0 -36 16.5t3 38.5l656 1137q12 23 2.5 39t-35.5 16h-649q-27 0 -45.5 18.5t-18.5 45.5z"/>
            <glyph unicode="8" horiz-adv-x="1271"
                   d="M80 446q0 66 22 119q23 61 58 105q16 23 37.5 42t44.5 36q10 8 21 15t22 11q43 20 14 39q-8 4 -16.5 10t-16.5 15q-37 31 -63 71q-33 41 -47 90q-18 49 -19 101q0 94 39 170q35 74 105 133q66 53 155 88q92 31 193 31q102 0 192 -31q94 -35 158 -88q68 -59 106 -133 q39 -82 39 -170q0 -49 -16 -103q-14 -49 -41 -92q-14 -20 -29.5 -37.5t-31.5 -31.5q-10 -8 -18.5 -14.5t-18.5 -12.5q-35 -17 8 -35q10 -4 22.5 -10t22.5 -14q23 -16 44 -37t38 -43q33 -47 55 -105q23 -61 23 -119q0 -123 -43 -210q-41 -86 -119 -148q-39 -29 -82 -51.5 t-94 -36.5q-104 -29 -215 -29t-213 29q-96 27 -176 88q-74 57 -117 148q-43 88 -43 210zM367 446q0 -68 20 -108q20 -41 57 -68q39 -27 84 -34q52 -11 101 -11q29 0 53.5 3t48.5 8q45 8 84 34q35 23 57 68q23 45 23 108q0 47 -23 93q-10 20 -24 37.5t-33 31.5 q-18 16 -38.5 27.5t-45.5 19.5q-45 14 -102 15q-57 0 -101 -15q-47 -16 -84 -43q-37 -31 -57 -71q-20 -39 -20 -95zM424 1071q0 -49 16 -80q16 -33 45 -55q31 -25 66 -33q37 -12 80 -12q86 0 145 45q61 45 62 135q0 53 -17 92q-20 39 -45 60q-33 27 -65 34q-41 10 -80 11 q-39 0 -80 -11q-39 -12 -66 -36q-29 -20 -45 -60q-16 -33 -16 -90z"/>
            <glyph unicode="9" horiz-adv-x="1345"
                   d="M119 1004q0 70 12 129q6 29 14.5 54t18.5 48q23 49 45 80q27 37 47 57q49 49 111 82q57 31 116 49q29 8 56.5 13.5t54.5 9.5q27 2 49.5 3t40.5 1q92 0 176 -25q43 -14 81 -31.5t73 -39.5q72 -49 119 -111q47 -63 73 -143q23 -66 31 -126.5t4 -119.5q-6 -119 -61 -248 q-16 -37 -68 -119q-25 -41 -53.5 -85t-63.5 -91q-35 -49 -69.5 -99t-71.5 -102q-27 -37 -51.5 -71.5t-46.5 -67.5q-16 -23 -45 -37t-56 -14h-229q-27 0 -34 14.5t9 36.5q12 16 24.5 33.5t25.5 36.5q45 61 94 131q25 33 48 65.5t46 65.5q14 18 27.5 36.5t25.5 35.5 q14 23 19.5 35t-0.5 8q-12 -4 -21 -6q-10 -4 -23.5 -6.5t-29.5 -4.5q-117 -6 -211 37q-96 41 -164 115q-70 78 -106 170q-37 94 -37 201zM401 1006q0 -53 23 -105q23 -51 57 -86q18 -18 41 -32.5t47 -24.5q51 -23 107 -23q57 0 108 23q25 10 47.5 24.5t40.5 32.5 q39 39 60 86q20 47 20 105q0 74 -20 120q-20 51 -60 86q-35 33 -88 50q-45 14 -108 14q-53 0 -107 -16q-53 -16 -88 -50q-35 -29 -57 -84q-23 -55 -23 -120z"/>
            <glyph unicode=":" horiz-adv-x="393"
                   d="M51 135q0 61 43 105.5t107 44.5q63 0 107 -44.5t44 -105.5q0 -63 -44 -107t-107 -44t-106.5 44t-43.5 107zM51 713q0 63 43 107t107 44q63 0 107 -44t44 -107q0 -61 -44 -105.5t-107 -44.5t-106.5 44t-43.5 106z"/>
            <glyph unicode=";" horiz-adv-x="403"
                   d="M53 127q-6 61 39 109q43 45 105 49q55 2 98 -31q47 -37 61 -94q12 -64 4 -125q-4 -33 -16 -61.5t-29 -57.5q-33 -57 -86 -100q-16 -12 -32.5 -21.5t-34.5 -19.5q-25 -10 -41.5 -11.5t-32.5 23.5q-10 16 -3 31.5t36 36.5q12 10 37.5 34.5t34.5 44.5q8 20 -5.5 35t-35.5 23 q-29 12 -50 33q-45 39 -49 102zM53 713q0 63 43 107t107 44q63 0 107 -44t44 -107q0 -61 -44 -105.5t-107 -44.5t-106.5 44t-43.5 106z"/>
            <glyph unicode="&#x3c;" horiz-adv-x="1132"
                   d="M109 676v135q0 27 16 53.5t39 36.5l799 375q23 10 40 0t17 -37v-164q0 -27 -17.5 -52.5t-41.5 -35.5l-502 -219q-25 -10 -25 -24.5t25 -24.5l502 -217q25 -10 42 -36t17 -52v-166q0 -27 -17.5 -37t-39.5 0l-799 375q-23 10 -39 36.5t-16 53.5z"/>
            <glyph unicode="=" horiz-adv-x="1150"
                   d="M104 434v127q0 27 18.5 45.5t45.5 18.5h805q27 0 45 -18.5t18 -45.5v-127q0 -27 -18 -45t-45 -18h-805q-27 0 -45.5 18.5t-18.5 44.5zM104 930v127q0 27 18.5 45t45.5 18h805q27 0 45 -18.5t18 -44.5v-127q0 -27 -18 -45.5t-45 -18.5h-805q-27 0 -45.5 18.5t-18.5 45.5z "/>
            <glyph unicode="&#x3e;" horiz-adv-x="1132"
                   d="M109 248v166q0 27 17 52.5t40 35.5l504 217q23 10 22.5 24.5t-22.5 24.5l-504 219q-23 10 -40 36t-17 52v164q0 27 16 37t41 0l797 -375q25 -10 41 -36.5t16 -53.5v-135q0 -27 -16.5 -53.5t-40.5 -36.5l-797 -375q-25 -10 -41 0t-16 37z"/>
            <glyph unicode="?" horiz-adv-x="1183"
                   d="M23 1178q4 12 10 24t14 29q29 63 96 137q63 66 166 119q100 51 252 51q84 0 148 -14q33 -8 61.5 -16.5t52.5 -18.5q49 -23 86 -49q16 -14 31.5 -26.5t28.5 -27.5q51 -55 82 -129q31 -72 30 -149q0 -100 -30 -170q-33 -74 -74 -119q-45 -47 -96 -80q-27 -16 -50.5 -30.5 t-46.5 -26.5q-18 -10 -33.5 -18.5t-29.5 -16.5q-31 -18 -43 -37q-37 -49 -43 -98q-4 -10 -4 -19.5t-2 -19.5q0 -16 -17.5 -27.5t-44.5 -11.5h-161q-27 0 -45.5 18.5t-16.5 45.5q2 23 6 45t8 49q10 47 32 93t56 93q23 29 45.5 53.5t51.5 40.5t54.5 32t53.5 30 q18 10 34.5 19.5t31.5 19.5q14 8 24.5 16t20.5 19q18 18 24 43q4 10 6.5 25.5t2.5 31.5q0 12 -7 37q-6 25 -30 49q-27 25 -70 41q-49 16 -127 16q-68 0 -117 -18q-53 -23 -84 -51q-37 -37 -53 -70q-12 -18 -18 -37q-8 -16 -28.5 -22t-47.5 4l-152 49q-25 8 -37 28.5t-1 43.5 zM348 63v179q0 27 17.5 45t44.5 18h161q27 0 45.5 -18.5t18.5 -44.5v-179q0 -27 -18.5 -45t-45.5 -18h-161q-27 0 -44.5 18.5t-17.5 44.5z"/>
            <glyph unicode="@" horiz-adv-x="1734"
                   d="M88 756q0 78 13.5 150.5t37.5 142.5q51 137 148 241q109 119 252 176q150 59 321 60q371 0 574 -172q217 -181 217 -525q0 -346 -162 -469q-49 -39 -113 -49q-63 -12 -129 6q-51 14 -82 39q-18 12 -35 29q-12 12 -32.5 10t-42.5 -16q-31 -23 -68 -37q-70 -29 -153 -29 q-184 0 -289 115q-104 113 -105 311q0 92 29 172q33 80 82 133q53 55 125 86q70 31 160 31q70 0 112 -14q10 -4 20.5 -9t20.5 -10q16 -8 27.5 -8t11.5 10t18.5 16.5t45.5 6.5h82q25 0 43 -18.5t18 -44.5v-447q0 -10 1 -21.5t1 -21.5q2 -10 4 -21.5t6 -21.5q8 -20 21 -35 q12 -16 35 -22q72 -14 108 71q35 92 35 258q0 123 -37 220q-39 100 -109 155q-76 63 -182 96t-258 33q-150 0 -254 -51q-53 -27 -96 -59.5t-78 -73.5q-68 -80 -102 -184q-35 -109 -35 -209q0 -49 5 -100.5t15 -104.5q20 -109 80 -197q57 -90 160 -147q102 -57 266 -57 q119 0 185 14q72 16 108 33q49 20 69.5 25t41.5 -11l73 -66q16 -14 20.5 -34.5t-40.5 -49.5q-39 -25 -102 -43q-57 -20 -148 -32q-84 -14 -207 -15q-170 0 -307 54q-70 27 -127 65.5t-104 89.5q-96 104 -144 246q-51 141 -51 330zM657 739q0 -68 17 -116q16 -43 43 -72 q31 -31 57 -39q35 -10 60 -10q35 0 71 10q39 10 62 33q27 20 45 61q16 39 16 92v97q0 27 -6 61q-10 37 -27 62q-20 27 -57 45q-41 18 -102 18q-53 0 -91 -25q-35 -27 -53 -61q-20 -35 -26 -78q-8 -39 -9 -78z"/>
            <glyph unicode="A"
                   d="M40 16q-9 16 1 39l711 1420q12 25 40.5 24.5t41.5 -24.5l710 -1420q12 -23 3 -39t-36 -16h-186q-27 0 -53.5 16.5t-36.5 40.5l-61 123q-12 23 -38 39.5t-53 16.5h-581q-27 0 -53.5 -16.5t-36.5 -41.5l-60 -121q-12 -25 -37.5 -41t-52.5 -16h-186q-27 0 -36 16zM604 501.5 q10 -16.5 37 -16.5h303q27 0 36 17.5t-1 40.5l-160 338q-10 25 -26.5 24.5t-26.5 -24.5l-162 -338q-10 -25 0 -41.5z"/>
            <glyph unicode="B" horiz-adv-x="1423"
                   d="M164 63v1373q0 27 18.5 45t44.5 18h596q47 0 88 -4t82 -12q84 -20 140 -66q61 -45 94 -127q35 -76 35 -207q-1 -47 -19 -98q-20 -53 -49 -94q-31 -43 -78 -72q-20 -14 -47 -24q-20 -6 -18 -9.5t24 -9.5q29 -10 53 -20q53 -27 97 -76q45 -47 71 -109q27 -59 27 -129 q0 -123 -37 -209q-39 -88 -100 -137q-61 -53 -148 -73q-43 -10 -88 -16.5t-94 -6.5h-629q-27 0 -45 18.5t-18 44.5zM451 317q0 -27 18 -45t45 -18h342q39 0 70 18q31 14 57 47q27 31 39 66q14 31 14 72q0 74 -55 127q-53 51 -156 51h-311q-27 0 -45 -18.5t-18 -45.5v-254z M451 952q0 -27 18 -45t45 -18h289q43 0 76 16q29 14 53 43q20 25 33 62q10 29 10 67q0 33 -12 64q-14 35 -33 53q-18 20 -47 37q-27 14 -60 14h-309q-27 0 -45 -18.5t-18 -44.5v-230z"/>
            <glyph unicode="C" horiz-adv-x="1593"
                   d="M82 748q0 160 61 301q61 139 166 247q109 104 248 166q141 61 301 62q104 0 209 -29q102 -29 188 -80q45 -27 85 -58.5t75 -66.5q51 -53 88 -108q14 -23 6 -44.5t-32 -31.5l-152 -62q-23 -10 -50.5 -2.5t-43.5 27.5q-10 10 -20.5 21.5t-20.5 21.5q-23 23 -46.5 41 t-49.5 35q-27 16 -55.5 28.5t-57.5 22.5q-59 18 -123 18q-100 0 -192 -40q-90 -43 -154 -113q-66 -72 -104 -162q-39 -92 -39 -194q0 -104 39 -195q39 -90 104 -162q63 -72 154 -110q88 -43 192 -43q63 0 123 18q29 10 57.5 22.5t55.5 28.5t50 35.5t46 42.5q10 10 20.5 21.5 t20.5 21.5q16 20 44 28.5t50 -1.5l152 -62q25 -10 32.5 -32.5t-6.5 -45.5q-20 -29 -41.5 -56.5t-46.5 -51.5q-68 -72 -160 -125q-43 -27 -90 -47.5t-98 -34.5q-104 -29 -209 -29q-160 0 -301 62q-141 61 -248 168q-104 104 -166 245q-61 141 -61 302z"/>
            <glyph unicode="D" horiz-adv-x="1609"
                   d="M164 63v1373q0 27 17.5 45t43.5 18h529q322 0 528 -188q111 -102 166 -242q57 -150 57 -319q0 -90 -14 -169t-43 -151q-53 -141 -166 -244q-104 -94 -235 -139q-135 -47 -293 -47h-529q-27 0 -44 18.5t-17 44.5zM451 317q0 -27 17 -45t44 -18h244q78 0 162 18 q80 18 147 74q66 51 111 150q43 94 43 252q0 156 -43 253q-45 98 -111 150q-68 53 -150 72q-84 18 -159 18h-244q-27 0 -44 -18.5t-17 -44.5v-861z"/>
            <glyph unicode="E" horiz-adv-x="1398"
                   d="M164 63v1373q0 27 18.5 45t44.5 18h977q27 0 45.5 -18.5t18.5 -44.5v-127q0 -27 -18.5 -45.5t-45.5 -18.5h-690q-27 0 -45 -18t-18 -45v-248q0 -27 18 -45.5t45 -18.5h598q27 0 45.5 -18t18.5 -45v-133q0 -27 -18.5 -45.5t-45.5 -18.5h-598q-27 0 -45 -18.5t-18 -44.5 v-225q0 -27 18 -45.5t45 -18.5h690q27 0 45.5 -18.5t18.5 -44.5v-132q0 -27 -18.5 -45t-45.5 -18h-977q-27 0 -45 18.5t-18 44.5z"/>
            <glyph unicode="F" horiz-adv-x="1335"
                   d="M164 63v1373q0 27 18.5 45t44.5 18h977q27 0 44.5 -18.5t17.5 -44.5v-127q0 -27 -17.5 -45.5t-44.5 -18.5h-690q-27 0 -45 -18t-18 -45v-244q0 -27 18 -45.5t45 -18.5h598q27 0 44.5 -18t17.5 -45v-137q0 -27 -17.5 -45.5t-44.5 -18.5h-598q-27 0 -45 -18.5t-18 -44.5 v-484q0 -27 -17.5 -45t-44.5 -18h-162q-27 0 -45 18.5t-18 44.5z"/>
            <glyph unicode="G" horiz-adv-x="1695"
                   d="M82 748q0 158 61 303q31 72 73 133t95 114q109 104 248 166q141 61 301 62q205 0 373 -94q141 -78 235 -201q16 -20 11.5 -45t-27.5 -39l-139 -84q-23 -14 -48.5 -8t-43.5 24q-29 33 -61 61.5t-70 51.5q-107 65 -226 65h-4q-98 0 -190 -40q-94 -45 -156 -113 q-66 -70 -106 -162q-39 -92 -39 -194q0 -104 39 -195q41 -92 106 -162q63 -70 156 -110q88 -43 190 -43q78 0 150 24q72 23 131 66q57 41 104 102q27 35 41 72q12 25 -1 42t-40 17h-426q-27 0 -45 18.5t-18 45.5v131q0 27 18.5 45t44.5 18h737q27 0 45.5 -18t18.5 -45 q-2 -41 -3 -82t-3 -47q-12 -145 -76 -262q-66 -121 -166 -207q-100 -88 -233 -138q-133 -49 -279 -49q-160 0 -301 62q-141 61 -248 168q-109 109 -168 245q-61 141 -61 302z"/>
            <glyph unicode="H" horiz-adv-x="1638"
                   d="M162 63v1373q0 27 18.5 45t44.5 18h160q27 0 45.5 -18.5t18.5 -44.5v-523q0 -27 18 -45t45 -18h612q27 0 45.5 18.5t18.5 44.5v523q0 27 18.5 45t44.5 18h160q27 0 45.5 -18t18.5 -45v-1373q0 -27 -18.5 -45t-45.5 -18h-160q-27 0 -45 18.5t-18 44.5v469q0 27 -18.5 45.5 t-45.5 18.5h-612q-27 0 -45 -18.5t-18 -45.5v-469q0 -27 -18.5 -45t-45.5 -18h-160q-27 0 -45 18.5t-18 44.5z"/>
            <glyph unicode="I" horiz-adv-x="696"
                   d="M205 63v1371q0 27 17.5 45t43.5 18h162q27 0 45.5 -18.5t18.5 -44.5v-1371q0 -27 -18.5 -45t-45.5 -18h-162q-27 0 -44 18.5t-17 44.5z"/>
            <glyph unicode="J" horiz-adv-x="1247"
                   d="M63 272.5q9 24.5 31 34.5l146 66q25 10 45 8t26 -14q4 -6 9.5 -13.5t9.5 -13.5q23 -33 49 -53q27 -23 67 -39q39 -16 89 -17q88 0 141 35q51 33 80 86q14 27 24.5 52.5t14.5 54.5t6 52.5t2 45.5v877q0 27 18.5 45t44.5 18h160q27 0 45.5 -18t18.5 -45v-877 q0 -135 -39 -240q-39 -104 -113 -184q-76 -80 -176 -119q-102 -43 -227 -43q-178 0 -304 82q-100 61 -165 172q-12 23 -3 47.5z"/>
            <glyph unicode="K" horiz-adv-x="1505"
                   d="M164 63v1373q0 27 17.5 45t43.5 18h162q27 0 45.5 -18.5t18.5 -44.5v-635q0 -27 11 -31t27 16l519 662q16 20 44.5 34.5t55.5 14.5h227q27 0 34 -14.5t-9 -34.5l-539 -676q-16 -20 -15 -48t19 -46l590 -633q16 -18 11 -31.5t-31 -13.5h-254q-27 0 -58 13.5t-47 33.5 l-544 590q-16 18 -28.5 13t-12.5 -32v-555q0 -27 -18.5 -45t-45.5 -18h-162q-27 0 -44 18.5t-17 44.5z"/>
            <glyph unicode="L" horiz-adv-x="1259"
                   d="M164 63v1373q0 27 18.5 45t44.5 18h160q27 0 45.5 -18.5t18.5 -44.5v-1119q0 -27 18 -45t45 -18h666q27 0 45 -18.5t18 -45.5v-127q0 -27 -18.5 -45t-44.5 -18h-953q-27 0 -45 18.5t-18 44.5z"/>
            <glyph unicode="M" horiz-adv-x="1839"
                   d="M164 63v1401q0 27 24.5 31t40.5 -16l648 -799q16 -18 40.5 -18t40.5 18l650 799q16 20 40.5 16t24.5 -31v-1401q0 -27 -18.5 -45t-42.5 -18h-162q-27 0 -45.5 18.5t-18.5 44.5v631q0 27 -11 32t-27 -17l-390 -465q-16 -20 -39.5 -20.5t-39.5 20.5l-387 465 q-16 20 -28.5 16t-12.5 -31v-631q0 -27 -18.5 -45t-45.5 -18h-160q-27 0 -45 18.5t-18 44.5z"/>
            <glyph unicode="N" horiz-adv-x="1630"
                   d="M164 63v1401q0 27 25.5 32t43.5 -11l900 -850q20 -18 33.5 -12t13.5 32v779q0 27 18.5 45t44.5 18h160q27 0 45 -18.5t18 -44.5v-1399q0 -27 -25.5 -32t-45.5 11l-897 836q-20 16 -33.5 10t-13.5 -33v-764q0 -27 -18.5 -45t-45.5 -18h-162q-25 0 -43 18.5t-18 44.5z"/>
            <glyph unicode="O" horiz-adv-x="1732"
                   d="M88 750q0 160 61.5 302t167 247.5t247 167t300.5 61.5q162 0 303.5 -61.5t247 -167t166.5 -248t61 -301.5q0 -162 -61 -303.5t-166.5 -247t-247 -167t-303.5 -61.5q-160 0 -301 61.5t-246.5 167t-167 247t-61.5 303.5zM373 750q0 -102 39 -194.5t105.5 -163t155.5 -112.5 t191 -42t191.5 42t156 112.5t105.5 162.5t39 195q0 100 -39 193t-105.5 163t-156 112t-191.5 42t-191 -42t-155.5 -112t-105.5 -163t-39 -193z"/>
            <glyph unicode="P" horiz-adv-x="1388"
                   d="M164 63v1373q0 27 18.5 45t44.5 18h604q109 0 209 -41q96 -43 168 -115q37 -35 64.5 -77.5t50.5 -89.5q41 -100 41 -209q0 -111 -37 -205t-108 -164q-70 -70 -181 -111q-113 -41 -254 -41h-270q-27 0 -45 -18t-18 -45v-320q0 -27 -17.5 -45t-44.5 -18h-162 q-27 0 -45 18.5t-18 44.5zM451 768q0 -27 18 -45t45 -18h317h5q59 0 106 22q47 20 78 57q14 18 25.5 40t17.5 44q14 43 14 99q0 49 -18 102q-18 51 -53 88q-33 39 -86 64q-47 24 -114 24h-5h-287q-27 0 -45 -18.5t-18 -44.5v-414z"/>
            <glyph unicode="Q" horiz-adv-x="1693"
                   d="M88 762q0 156 59 297q61 137 164 244q106 104 242 163q141 59 297 60q154 0 297 -60q139 -61 242 -163q104 -106 163 -244q61 -139 62 -297q0 -63 -17 -139q-16 -72 -49 -140q-39 -70 -90 -125q-16 -18 -36.5 -33.5t-43.5 -31.5q-22 -14 -22 -22q0 -9 30 -9h195 q27 0 45.5 -18t18.5 -45v-138q0 -27 -18.5 -45t-45.5 -18h-682q-209 0 -362 61q-154 59 -252 164q-98 98 -150 242q-47 141 -47 297zM375 762q0 -98 37 -187q37 -88 102 -153q61 -66 152 -107q84 -39 184 -39t186 39t150 107q66 66 102 153q39 86 39 187q0 102 -39 188 q-37 88 -102 154q-66 66 -150 104q-86 39 -186 39t-184 -39q-88 -41 -152 -104q-66 -66 -102 -154q-37 -90 -37 -188z"/>
            <glyph unicode="R" horiz-adv-x="1474"
                   d="M164 63v1373q0 27 18.5 45t44.5 18h619q115 0 211 -37q94 -41 162 -106q35 -35 61.5 -76t44.5 -88q37 -96 37 -209q0 -174 -84 -297q-66 -98 -170 -156q-23 -12 -29 -33.5t11 -41.5q76 -102 144.5 -193.5t141.5 -193.5q16 -23 9 -45.5t-33 -22.5h-207q-27 0 -55.5 14.5 t-45.5 34.5q-35 47 -68.5 93t-68.5 94l-135 190q-16 23 -45 37t-55 14h-158q-27 0 -45 -18.5t-18 -44.5v-351q0 -27 -17.5 -45t-44.5 -18h-162q-27 0 -45 18.5t-18 44.5zM451 795q0 -27 18 -45.5t45 -18.5h332q37 0 80 17q45 16 75 47q31 31 54 77q20 43 20 111q0 37 -8 78 q-4 23 -12 44t-19 42q-25 41 -69 70q-45 28 -116 28h-5h-332q-27 0 -45 -18.5t-18 -44.5v-387z"/>
            <glyph unicode="S" horiz-adv-x="1392"
                   d="M119 1075q0 129 53 219q51 84 135 138q80 47 185 69q96 20 196 21q94 0 168 -13q37 -6 71 -15t66 -19q33 -12 63.5 -27.5t59.5 -32.5q20 -12 39 -24.5t41 -24.5q23 -16 27 -41t-13 -47l-86 -123q-16 -23 -41.5 -27t-48.5 11q-80 51 -151 78q-94 38 -201 38h-6 q-18 0 -40 -2t-44 -6q-47 -10 -90 -30q-20 -10 -38 -22.5t-32 -29.5q-26 -32 -26 -75q0 -48 32 -78q33 -31 84 -51q27 -10 54.5 -18.5t58.5 -16.5t60.5 -14.5t58.5 -14.5q23 -4 47 -10t53 -10t59.5 -11.5t61.5 -17.5q16 -4 33.5 -10.5t33.5 -12.5q25 -10 56.5 -26.5 t54.5 -32.5q16 -10 29.5 -21.5t25.5 -23.5q51 -51 78 -119q31 -72 31 -172q0 -115 -41 -203q-41 -86 -117 -141q-78 -59 -180 -86q-109 -29 -231 -29q-119 0 -207 19q-84 14 -162 47q-37 14 -72 31.5t-67 37.5q-20 12 -41 25.5t-43 30.5q-23 14 -27 38.5t10 47.5l86 127 q14 23 39 27t47 -11q92 -57 181 -98q117 -57 251 -57q70 0 123 18q49 14 90 45q37 29 56 63q18 33 18 70q0 43 -29 78q-27 29 -73 51q-23 10 -49.5 18.5t-59.5 16.5q-31 8 -62.5 14t-66.5 13q-23 4 -49.5 9t-54.5 11q-59 8 -123 31q-66 18 -125 51q-61 31 -111 80 q-49 45 -80 115q-28 66 -28 149v6z"/>
            <glyph unicode="T" horiz-adv-x="1273"
                   d="M96 1309v127q0 27 18.5 45t45.5 18h1018q27 0 45 -18.5t18 -44.5v-127q0 -27 -18 -45.5t-45 -18.5h-301q-27 0 -45.5 -18.5t-18.5 -44.5v-1119q0 -27 -18.5 -45t-44.5 -18h-160q-27 0 -45.5 18.5t-18.5 44.5v1119q0 27 -18.5 45t-44.5 18h-303q-27 0 -45.5 18.5 t-18.5 45.5z"/>
            <glyph unicode="U" horiz-adv-x="1613"
                   d="M164 604v830q0 27 18.5 45t42.5 18h162q27 0 45.5 -18.5t18.5 -44.5v-828q0 -113 36 -186q37 -72 91 -117q57 -45 116 -59q33 -8 60.5 -12.5t52.5 -4.5q45 0 111 17q63 14 116 59q55 43 92 117t37 186v828q0 27 18.5 45t45.5 18h159q27 0 45.5 -18.5t18.5 -44.5v-830 q0 -72 -11.5 -136.5t-33.5 -123.5q-45 -115 -129 -199q-82 -80 -203 -127q-117 -45 -266 -45t-264 45q-123 47 -203 127q-86 82 -131 199q-45 115 -45 260z"/>
            <glyph unicode="V" horiz-adv-x="1476"
                   d="M51 1440q-10 25 0 41t35 16h190q27 0 53.5 -16.5t37.5 -40.5l350 -754q10 -23 26.5 -22.5t26.5 22.5l350 754q10 25 37 41t53 16h191q27 0 37 -16t0 -41l-656 -1413q-10 -23 -38.5 -23t-38.5 23z"/>
            <glyph unicode="W" horiz-adv-x="2029"
                   d="M49 1438q-10 25 2 42t39 17h178q27 0 51.5 -17.5t32.5 -41.5l252 -703q8 -25 22.5 -24.5t24.5 22.5l326 740q10 23 37.5 22.5t38.5 -22.5l325 -742q10 -23 24.5 -22.5t22.5 24.5l258 705q8 25 33 42t51 17h179q27 0 39 -17t2 -42l-517 -1415q-10 -25 -36.5 -25t-36.5 22 l-355 795q-10 25 -26.5 25t-26.5 -25l-356 -788q-12 -23 -38 -23t-36 25z"/>
            <glyph unicode="X" horiz-adv-x="1544"
                   d="M71 1480.5q7 16.5 33 16.5h230q27 0 54.5 -14.5t43.5 -36.5l316 -436q16 -23 36.5 -23t36.5 23l316 436q16 23 44.5 37t55.5 14h227q27 0 34 -16.5t-9 -36.5l-488 -651q-16 -23 -16 -51.5t16 -49.5l478 -637q16 -23 9 -39t-34 -16h-229q-27 0 -55.5 14.5t-45.5 36.5 l-303 420q-16 23 -36.5 23t-36.5 -23l-304 -420q-16 -23 -43.5 -37t-54.5 -14h-229q-27 0 -34 16.5t9 38.5l477 637q16 20 16 49t-16 52l-489 651q-16 20 -9 36.5z"/>
            <glyph unicode="Y" horiz-adv-x="1452"
                   d="M42 1482q9 15 36 15h209q27 0 54.5 -15.5t39.5 -37.5q39 -66 78 -131.5t80 -132.5q39 -68 77.5 -133.5t77.5 -131.5q12 -23 31.5 -22.5t34.5 22.5q14 25 29.5 49.5t31.5 51.5l99 166q25 41 48 82t48 82q16 25 30.5 49t28.5 49q12 23 40 38t54 15h209q27 0 35 -15t-4 -38 q-23 -37 -47.5 -77t-52.5 -85q-37 -59 -75 -120.5t-77 -125.5q-41 -63 -79 -125.5t-74 -122.5q-29 -45 -54.5 -85.5t-48.5 -79.5q-14 -23 -22.5 -58t-8.5 -61v-441q0 -27 -18 -45t-45 -18h-162q-27 0 -44 18.5t-17 44.5v441q0 27 -9.5 61.5t-23.5 57.5q-59 104 -121.5 205.5 t-128.5 203.5q-68 104 -131.5 205.5t-122.5 206.5q-14 23 -5 38z"/>
            <glyph unicode="Z" horiz-adv-x="1437"
                   d="M47 26.5q-8 26.5 8 49.5l789 1106q16 23 8 37t-35 14h-649q-25 0 -43.5 18.5t-18.5 44.5v138q0 27 18.5 45t43.5 18h1173q27 0 35 -26.5t-8 -49.5l-786 -1104q-14 -23 -6.5 -37t32.5 -14h682q27 0 45.5 -18.5t18.5 -44.5v-140q0 -27 -18.5 -45t-45.5 -18h-1208 q-27 0 -35 26.5z"/>
            <glyph unicode="[" horiz-adv-x="798"
                   d="M188 -260v2036q0 27 17.5 45t44.5 18h430q27 0 45 -18.5t18 -44.5v-127q0 -27 -18 -45.5t-45 -18.5h-143q-27 0 -44.5 -18.5t-17.5 -44.5v-1528q0 -27 17.5 -45.5t44.5 -18.5h143q27 0 45 -18t18 -45v-127q0 -27 -18 -45.5t-45 -18.5h-430q-27 0 -44.5 18.5t-17.5 45.5z "/>
            <glyph unicode="\" horiz-adv-x="1009"
                   d="M23 1649q-8 25 4 42t39 17h155q27 0 46.5 -17.5t27.5 -41.5l694 -1872q10 -25 -2 -42.5t-39 -17.5h-157q-27 0 -45.5 17.5t-28.5 42.5z"/>
            <glyph unicode="]" horiz-adv-x="696"
                   d="M31 -133q0 27 18.5 45t44.5 18h144q27 0 44 18.5t17 45.5v1528q0 27 -17.5 45t-43.5 18h-144q-27 0 -45 18.5t-18 45.5v127q0 27 18.5 45t44.5 18h430q27 0 44.5 -18.5t17.5 -44.5v-2036q0 -27 -17.5 -45.5t-44.5 -18.5h-430q-27 0 -45 18.5t-18 45.5v127z"/>
            <glyph unicode="^" horiz-adv-x="1239"
                   d="M116.5 780.5q-10.5 16.5 2.5 40.5l311 635q12 23 39 39t53 16h172q27 0 53.5 -16t38.5 -39l312 -635q12 -25 2 -41t-37 -16h-164q-27 0 -53.5 17t-36.5 40l-174 373q-10 25 -26.5 25t-26.5 -25l-176 -373q-10 -23 -37 -40t-54 -17h-161q-27 0 -37.5 16.5z"/>
            <glyph unicode="_" horiz-adv-x="1368"
                   d="M111 -61q0 27 18 45t45 18h1010q27 0 44 -18.5t17 -44.5v-127q0 -27 -17 -45.5t-44 -18.5h-1010q-27 0 -45 18.5t-18 45.5v127z"/>
            <glyph unicode="`" horiz-adv-x="581"
                   d="M76.5 1782.5q3.5 17.5 25.5 27.5l123 54q23 10 46.5 8t39.5 -23l172 -221q16 -20 9 -34.5t-33 -14.5h-86q-25 0 -45.5 5t-40.5 22l-191 143q-23 16 -19.5 33.5z"/>
            <glyph unicode="a"
                   d="M40 16q-9 16 1 39l711 1420q12 25 40.5 24.5t41.5 -24.5l710 -1420q12 -23 3 -39t-36 -16h-186q-27 0 -53.5 16.5t-36.5 40.5l-61 123q-12 23 -38 39.5t-53 16.5h-581q-27 0 -53.5 -16.5t-36.5 -41.5l-60 -121q-12 -25 -37.5 -41t-52.5 -16h-186q-27 0 -36 16zM604 501.5 q10 -16.5 37 -16.5h303q27 0 36 17.5t-1 40.5l-160 338q-10 25 -26.5 24.5t-26.5 -24.5l-162 -338q-10 -25 0 -41.5z"/>
            <glyph unicode="b" horiz-adv-x="1423"
                   d="M164 63v1373q0 27 18.5 45t44.5 18h596q47 0 88 -4t82 -12q84 -20 140 -66q61 -45 94 -127q35 -76 35 -207q-1 -47 -19 -98q-20 -53 -49 -94q-31 -43 -78 -72q-20 -14 -47 -24q-20 -6 -18 -9.5t24 -9.5q29 -10 53 -20q53 -27 97 -76q45 -47 71 -109q27 -59 27 -129 q0 -123 -37 -209q-39 -88 -100 -137q-61 -53 -148 -73q-43 -10 -88 -16.5t-94 -6.5h-629q-27 0 -45 18.5t-18 44.5zM451 317q0 -27 18 -45t45 -18h342q39 0 70 18q31 14 57 47q27 31 39 66q14 31 14 72q0 74 -55 127q-53 51 -156 51h-311q-27 0 -45 -18.5t-18 -45.5v-254z M451 952q0 -27 18 -45t45 -18h289q43 0 76 16q29 14 53 43q20 25 33 62q10 29 10 67q0 33 -12 64q-14 35 -33 53q-18 20 -47 37q-27 14 -60 14h-309q-27 0 -45 -18.5t-18 -44.5v-230z"/>
            <glyph unicode="c" horiz-adv-x="1593"
                   d="M82 748q0 160 61 301q61 139 166 247q109 104 248 166q141 61 301 62q104 0 209 -29q102 -29 188 -80q45 -27 85 -58.5t75 -66.5q51 -53 88 -108q14 -23 6 -44.5t-32 -31.5l-152 -62q-23 -10 -50.5 -2.5t-43.5 27.5q-10 10 -20.5 21.5t-20.5 21.5q-23 23 -46.5 41 t-49.5 35q-27 16 -55.5 28.5t-57.5 22.5q-59 18 -123 18q-100 0 -192 -40q-90 -43 -154 -113q-66 -72 -104 -162q-39 -92 -39 -194q0 -104 39 -195q39 -90 104 -162q63 -72 154 -110q88 -43 192 -43q63 0 123 18q29 10 57.5 22.5t55.5 28.5t50 35.5t46 42.5q10 10 20.5 21.5 t20.5 21.5q16 20 44 28.5t50 -1.5l152 -62q25 -10 32.5 -32.5t-6.5 -45.5q-20 -29 -41.5 -56.5t-46.5 -51.5q-68 -72 -160 -125q-43 -27 -90 -47.5t-98 -34.5q-104 -29 -209 -29q-160 0 -301 62q-141 61 -248 168q-104 104 -166 245q-61 141 -61 302z"/>
            <glyph unicode="d" horiz-adv-x="1609"
                   d="M164 63v1373q0 27 17.5 45t43.5 18h529q322 0 528 -188q111 -102 166 -242q57 -150 57 -319q0 -90 -14 -169t-43 -151q-53 -141 -166 -244q-104 -94 -235 -139q-135 -47 -293 -47h-529q-27 0 -44 18.5t-17 44.5zM451 317q0 -27 17 -45t44 -18h244q78 0 162 18 q80 18 147 74q66 51 111 150q43 94 43 252q0 156 -43 253q-45 98 -111 150q-68 53 -150 72q-84 18 -159 18h-244q-27 0 -44 -18.5t-17 -44.5v-861z"/>
            <glyph unicode="e" horiz-adv-x="1398"
                   d="M164 63v1373q0 27 18.5 45t44.5 18h977q27 0 45.5 -18.5t18.5 -44.5v-127q0 -27 -18.5 -45.5t-45.5 -18.5h-690q-27 0 -45 -18t-18 -45v-248q0 -27 18 -45.5t45 -18.5h598q27 0 45.5 -18t18.5 -45v-133q0 -27 -18.5 -45.5t-45.5 -18.5h-598q-27 0 -45 -18.5t-18 -44.5 v-225q0 -27 18 -45.5t45 -18.5h690q27 0 45.5 -18.5t18.5 -44.5v-132q0 -27 -18.5 -45t-45.5 -18h-977q-27 0 -45 18.5t-18 44.5z"/>
            <glyph unicode="f" horiz-adv-x="1335"
                   d="M164 63v1373q0 27 18.5 45t44.5 18h977q27 0 44.5 -18.5t17.5 -44.5v-127q0 -27 -17.5 -45.5t-44.5 -18.5h-690q-27 0 -45 -18t-18 -45v-244q0 -27 18 -45.5t45 -18.5h598q27 0 44.5 -18t17.5 -45v-137q0 -27 -17.5 -45.5t-44.5 -18.5h-598q-27 0 -45 -18.5t-18 -44.5 v-484q0 -27 -17.5 -45t-44.5 -18h-162q-27 0 -45 18.5t-18 44.5z"/>
            <glyph unicode="g" horiz-adv-x="1695"
                   d="M82 748q0 158 61 303q31 72 73 133t95 114q109 104 248 166q141 61 301 62q205 0 373 -94q141 -78 235 -201q16 -20 11.5 -45t-27.5 -39l-139 -84q-23 -14 -48.5 -8t-43.5 24q-29 33 -61 61.5t-70 51.5q-107 65 -226 65h-4q-98 0 -190 -40q-94 -45 -156 -113 q-66 -70 -106 -162q-39 -92 -39 -194q0 -104 39 -195q41 -92 106 -162q63 -70 156 -110q88 -43 190 -43q78 0 150 24q72 23 131 66q57 41 104 102q27 35 41 72q12 25 -1 42t-40 17h-426q-27 0 -45 18.5t-18 45.5v131q0 27 18.5 45t44.5 18h737q27 0 45.5 -18t18.5 -45 q-2 -41 -3 -82t-3 -47q-12 -145 -76 -262q-66 -121 -166 -207q-100 -88 -233 -138q-133 -49 -279 -49q-160 0 -301 62q-141 61 -248 168q-109 109 -168 245q-61 141 -61 302z"/>
            <glyph unicode="h" horiz-adv-x="1638"
                   d="M162 63v1373q0 27 18.5 45t44.5 18h160q27 0 45.5 -18.5t18.5 -44.5v-523q0 -27 18 -45t45 -18h612q27 0 45.5 18.5t18.5 44.5v523q0 27 18.5 45t44.5 18h160q27 0 45.5 -18t18.5 -45v-1373q0 -27 -18.5 -45t-45.5 -18h-160q-27 0 -45 18.5t-18 44.5v469q0 27 -18.5 45.5 t-45.5 18.5h-612q-27 0 -45 -18.5t-18 -45.5v-469q0 -27 -18.5 -45t-45.5 -18h-160q-27 0 -45 18.5t-18 44.5z"/>
            <glyph unicode="i" horiz-adv-x="696"
                   d="M205 63v1371q0 27 17.5 45t43.5 18h162q27 0 45.5 -18.5t18.5 -44.5v-1371q0 -27 -18.5 -45t-45.5 -18h-162q-27 0 -44 18.5t-17 44.5z"/>
            <glyph unicode="j" horiz-adv-x="1247"
                   d="M63 272.5q9 24.5 31 34.5l146 66q25 10 45 8t26 -14q4 -6 9.5 -13.5t9.5 -13.5q23 -33 49 -53q27 -23 67 -39q39 -16 89 -17q88 0 141 35q51 33 80 86q14 27 24.5 52.5t14.5 54.5t6 52.5t2 45.5v877q0 27 18.5 45t44.5 18h160q27 0 45.5 -18t18.5 -45v-877 q0 -135 -39 -240q-39 -104 -113 -184q-76 -80 -176 -119q-102 -43 -227 -43q-178 0 -304 82q-100 61 -165 172q-12 23 -3 47.5z"/>
            <glyph unicode="k" horiz-adv-x="1505"
                   d="M164 63v1373q0 27 17.5 45t43.5 18h162q27 0 45.5 -18.5t18.5 -44.5v-635q0 -27 11 -31t27 16l519 662q16 20 44.5 34.5t55.5 14.5h227q27 0 34 -14.5t-9 -34.5l-539 -676q-16 -20 -15 -48t19 -46l590 -633q16 -18 11 -31.5t-31 -13.5h-254q-27 0 -58 13.5t-47 33.5 l-544 590q-16 18 -28.5 13t-12.5 -32v-555q0 -27 -18.5 -45t-45.5 -18h-162q-27 0 -44 18.5t-17 44.5z"/>
            <glyph unicode="l" horiz-adv-x="1259"
                   d="M164 63v1373q0 27 18.5 45t44.5 18h160q27 0 45.5 -18.5t18.5 -44.5v-1119q0 -27 18 -45t45 -18h666q27 0 45 -18.5t18 -45.5v-127q0 -27 -18.5 -45t-44.5 -18h-953q-27 0 -45 18.5t-18 44.5z"/>
            <glyph unicode="m" horiz-adv-x="1839"
                   d="M164 63v1401q0 27 24.5 31t40.5 -16l648 -799q16 -18 40.5 -18t40.5 18l650 799q16 20 40.5 16t24.5 -31v-1401q0 -27 -18.5 -45t-42.5 -18h-162q-27 0 -45.5 18.5t-18.5 44.5v631q0 27 -11 32t-27 -17l-390 -465q-16 -20 -39.5 -20.5t-39.5 20.5l-387 465 q-16 20 -28.5 16t-12.5 -31v-631q0 -27 -18.5 -45t-45.5 -18h-160q-27 0 -45 18.5t-18 44.5z"/>
            <glyph unicode="n" horiz-adv-x="1630"
                   d="M164 63v1401q0 27 25.5 32t43.5 -11l900 -850q20 -18 33.5 -12t13.5 32v779q0 27 18.5 45t44.5 18h160q27 0 45 -18.5t18 -44.5v-1399q0 -27 -25.5 -32t-45.5 11l-897 836q-20 16 -33.5 10t-13.5 -33v-764q0 -27 -18.5 -45t-45.5 -18h-162q-25 0 -43 18.5t-18 44.5z"/>
            <glyph unicode="o" horiz-adv-x="1732"
                   d="M88 750q0 160 61.5 302t167 247.5t247 167t300.5 61.5q162 0 303.5 -61.5t247 -167t166.5 -248t61 -301.5q0 -162 -61 -303.5t-166.5 -247t-247 -167t-303.5 -61.5q-160 0 -301 61.5t-246.5 167t-167 247t-61.5 303.5zM373 750q0 -102 39 -194.5t105.5 -163t155.5 -112.5 t191 -42t191.5 42t156 112.5t105.5 162.5t39 195q0 100 -39 193t-105.5 163t-156 112t-191.5 42t-191 -42t-155.5 -112t-105.5 -163t-39 -193z"/>
            <glyph unicode="p" horiz-adv-x="1388"
                   d="M164 63v1373q0 27 18.5 45t44.5 18h604q109 0 209 -41q96 -43 168 -115q37 -35 64.5 -77.5t50.5 -89.5q41 -100 41 -209q0 -111 -37 -205t-108 -164q-70 -70 -181 -111q-113 -41 -254 -41h-270q-27 0 -45 -18t-18 -45v-320q0 -27 -17.5 -45t-44.5 -18h-162 q-27 0 -45 18.5t-18 44.5zM451 768q0 -27 18 -45t45 -18h317h5q59 0 106 22q47 20 78 57q14 18 25.5 40t17.5 44q14 43 14 99q0 49 -18 102q-18 51 -53 88q-33 39 -86 64q-47 24 -114 24h-5h-287q-27 0 -45 -18.5t-18 -44.5v-414z"/>
            <glyph unicode="q" horiz-adv-x="1693"
                   d="M88 762q0 156 59 297q61 137 164 244q106 104 242 163q141 59 297 60q154 0 297 -60q139 -61 242 -163q104 -106 163 -244q61 -139 62 -297q0 -63 -17 -139q-16 -72 -49 -140q-39 -70 -90 -125q-16 -18 -36.5 -33.5t-43.5 -31.5q-22 -14 -22 -22q0 -9 30 -9h195 q27 0 45.5 -18t18.5 -45v-138q0 -27 -18.5 -45t-45.5 -18h-682q-209 0 -362 61q-154 59 -252 164q-98 98 -150 242q-47 141 -47 297zM375 762q0 -98 37 -187q37 -88 102 -153q61 -66 152 -107q84 -39 184 -39t186 39t150 107q66 66 102 153q39 86 39 187q0 102 -39 188 q-37 88 -102 154q-66 66 -150 104q-86 39 -186 39t-184 -39q-88 -41 -152 -104q-66 -66 -102 -154q-37 -90 -37 -188z"/>
            <glyph unicode="r" horiz-adv-x="1474"
                   d="M164 63v1373q0 27 18.5 45t44.5 18h619q115 0 211 -37q94 -41 162 -106q35 -35 61.5 -76t44.5 -88q37 -96 37 -209q0 -174 -84 -297q-66 -98 -170 -156q-23 -12 -29 -33.5t11 -41.5q76 -102 144.5 -193.5t141.5 -193.5q16 -23 9 -45.5t-33 -22.5h-207q-27 0 -55.5 14.5 t-45.5 34.5q-35 47 -68.5 93t-68.5 94l-135 190q-16 23 -45 37t-55 14h-158q-27 0 -45 -18.5t-18 -44.5v-351q0 -27 -17.5 -45t-44.5 -18h-162q-27 0 -45 18.5t-18 44.5zM451 795q0 -27 18 -45.5t45 -18.5h332q37 0 80 17q45 16 75 47q31 31 54 77q20 43 20 111q0 37 -8 78 q-4 23 -12 44t-19 42q-25 41 -69 70q-45 28 -116 28h-5h-332q-27 0 -45 -18.5t-18 -44.5v-387z"/>
            <glyph unicode="s" horiz-adv-x="1392"
                   d="M119 1075q0 129 53 219q51 84 135 138q80 47 185 69q96 20 196 21q94 0 168 -13q37 -6 71 -15t66 -19q33 -12 63.5 -27.5t59.5 -32.5q20 -12 39 -24.5t41 -24.5q23 -16 27 -41t-13 -47l-86 -123q-16 -23 -41.5 -27t-48.5 11q-80 51 -151 78q-94 38 -201 38h-6 q-18 0 -40 -2t-44 -6q-47 -10 -90 -30q-20 -10 -38 -22.5t-32 -29.5q-26 -32 -26 -75q0 -48 32 -78q33 -31 84 -51q27 -10 54.5 -18.5t58.5 -16.5t60.5 -14.5t58.5 -14.5q23 -4 47 -10t53 -10t59.5 -11.5t61.5 -17.5q16 -4 33.5 -10.5t33.5 -12.5q25 -10 56.5 -26.5 t54.5 -32.5q16 -10 29.5 -21.5t25.5 -23.5q51 -51 78 -119q31 -72 31 -172q0 -115 -41 -203q-41 -86 -117 -141q-78 -59 -180 -86q-109 -29 -231 -29q-119 0 -207 19q-84 14 -162 47q-37 14 -72 31.5t-67 37.5q-20 12 -41 25.5t-43 30.5q-23 14 -27 38.5t10 47.5l86 127 q14 23 39 27t47 -11q92 -57 181 -98q117 -57 251 -57q70 0 123 18q49 14 90 45q37 29 56 63q18 33 18 70q0 43 -29 78q-27 29 -73 51q-23 10 -49.5 18.5t-59.5 16.5q-31 8 -62.5 14t-66.5 13q-23 4 -49.5 9t-54.5 11q-59 8 -123 31q-66 18 -125 51q-61 31 -111 80 q-49 45 -80 115q-28 66 -28 149v6z"/>
            <glyph unicode="t" horiz-adv-x="1273"
                   d="M96 1309v127q0 27 18.5 45t45.5 18h1018q27 0 45 -18.5t18 -44.5v-127q0 -27 -18 -45.5t-45 -18.5h-301q-27 0 -45.5 -18.5t-18.5 -44.5v-1119q0 -27 -18.5 -45t-44.5 -18h-160q-27 0 -45.5 18.5t-18.5 44.5v1119q0 27 -18.5 45t-44.5 18h-303q-27 0 -45.5 18.5 t-18.5 45.5z"/>
            <glyph unicode="u" horiz-adv-x="1613"
                   d="M164 604v830q0 27 18.5 45t42.5 18h162q27 0 45.5 -18.5t18.5 -44.5v-828q0 -113 36 -186q37 -72 91 -117q57 -45 116 -59q33 -8 60.5 -12.5t52.5 -4.5q45 0 111 17q63 14 116 59q55 43 92 117t37 186v828q0 27 18.5 45t45.5 18h159q27 0 45.5 -18.5t18.5 -44.5v-830 q0 -72 -11.5 -136.5t-33.5 -123.5q-45 -115 -129 -199q-82 -80 -203 -127q-117 -45 -266 -45t-264 45q-123 47 -203 127q-86 82 -131 199q-45 115 -45 260z"/>
            <glyph unicode="v" horiz-adv-x="1476"
                   d="M51 1440q-10 25 0 41t35 16h190q27 0 53.5 -16.5t37.5 -40.5l350 -754q10 -23 26.5 -22.5t26.5 22.5l350 754q10 25 37 41t53 16h191q27 0 37 -16t0 -41l-656 -1413q-10 -23 -38.5 -23t-38.5 23z"/>
            <glyph unicode="w" horiz-adv-x="2029"
                   d="M49 1438q-10 25 2 42t39 17h178q27 0 51.5 -17.5t32.5 -41.5l252 -703q8 -25 22.5 -24.5t24.5 22.5l326 740q10 23 37.5 22.5t38.5 -22.5l325 -742q10 -23 24.5 -22.5t22.5 24.5l258 705q8 25 33 42t51 17h179q27 0 39 -17t2 -42l-517 -1415q-10 -25 -36.5 -25t-36.5 22 l-355 795q-10 25 -26.5 25t-26.5 -25l-356 -788q-12 -23 -38 -23t-36 25z"/>
            <glyph unicode="x" horiz-adv-x="1544"
                   d="M71 1480.5q7 16.5 33 16.5h230q27 0 54.5 -14.5t43.5 -36.5l316 -436q16 -23 36.5 -23t36.5 23l316 436q16 23 44.5 37t55.5 14h227q27 0 34 -16.5t-9 -36.5l-488 -651q-16 -23 -16 -51.5t16 -49.5l478 -637q16 -23 9 -39t-34 -16h-229q-27 0 -55.5 14.5t-45.5 36.5 l-303 420q-16 23 -36.5 23t-36.5 -23l-304 -420q-16 -23 -43.5 -37t-54.5 -14h-229q-27 0 -34 16.5t9 38.5l477 637q16 20 16 49t-16 52l-489 651q-16 20 -9 36.5z"/>
            <glyph unicode="y" horiz-adv-x="1452"
                   d="M42 1482q9 15 36 15h209q27 0 54.5 -15.5t39.5 -37.5q39 -66 78 -131.5t80 -132.5q39 -68 77.5 -133.5t77.5 -131.5q12 -23 31.5 -22.5t34.5 22.5q14 25 29.5 49.5t31.5 51.5l99 166q25 41 48 82t48 82q16 25 30.5 49t28.5 49q12 23 40 38t54 15h209q27 0 35 -15t-4 -38 q-23 -37 -47.5 -77t-52.5 -85q-37 -59 -75 -120.5t-77 -125.5q-41 -63 -79 -125.5t-74 -122.5q-29 -45 -54.5 -85.5t-48.5 -79.5q-14 -23 -22.5 -58t-8.5 -61v-441q0 -27 -18 -45t-45 -18h-162q-27 0 -44 18.5t-17 44.5v441q0 27 -9.5 61.5t-23.5 57.5q-59 104 -121.5 205.5 t-128.5 203.5q-68 104 -131.5 205.5t-122.5 206.5q-14 23 -5 38z"/>
            <glyph unicode="z" horiz-adv-x="1437"
                   d="M47 26.5q-8 26.5 8 49.5l789 1106q16 23 8 37t-35 14h-649q-25 0 -43.5 18.5t-18.5 44.5v138q0 27 18.5 45t43.5 18h1173q27 0 35 -26.5t-8 -49.5l-786 -1104q-14 -23 -6.5 -37t32.5 -14h682q27 0 45.5 -18.5t18.5 -44.5v-140q0 -27 -18.5 -45t-45.5 -18h-1208 q-27 0 -35 26.5z"/>
            <glyph unicode="{" horiz-adv-x="843"
                   d="M98 680v156q0 27 12.5 47t28.5 26q18 4 37 21q29 25 37 63q10 41 10 88v109v102q4 61 13 125q4 33 13 66t19 65q23 59 72 119q63 76 137 115q80 41 146 59q35 10 64.5 15.5t53.5 7.5q25 2 44.5 -11.5t19.5 -40.5v-155q0 -27 -14.5 -46.5t-34.5 -21.5q-14 -2 -26.5 -4 t-22.5 -4q-39 -8 -82 -31q-39 -20 -76 -59q-23 -25 -31 -64q-4 -20 -8 -39.5t-8 -39.5q-2 -23 -3 -43.5t-1 -40.5v-68q2 -16 2 -41v-55q2 -31 -1 -62.5t-7 -64.5q-10 -70 -31 -127q-14 -31 -27 -49q-14 -18 -16 -42t12 -44q20 -31 29 -56q23 -55 28 -108q8 -55 7 -113 q0 -29 1 -57.5t3 -57.5v-67q0 -20 1 -41t3 -41q4 -23 8 -42t8 -40q8 -39 31 -63q31 -37 76 -60q43 -23 82 -31q16 -4 49 -8q20 -4 34.5 -23.5t14.5 -45.5v-148q0 -27 -20.5 -44t-47.5 -15q-49 2 -121 24q-68 20 -141 62q-76 41 -135 112q-47 57 -72 121q-10 33 -19 65 t-13 64q-10 66 -13 125v103v123q2 25 -1 46t-7 37q-10 35 -35 56q-16 10 -39 18q-18 6 -30.5 26.5t-12.5 47.5z"/>
            <glyph unicode="|" horiz-adv-x="585"
                   d="M188 -154v1803q0 27 17.5 45t44.5 18h82q27 0 45 -18.5t18 -44.5v-1803q0 -27 -18 -45t-45 -18h-82q-27 0 -44.5 18.5t-17.5 44.5z"/>
            <glyph unicode="}" horiz-adv-x="843"
                   d="M35 -143q0 27 14 46t35 23q33 4 49 8q39 8 82 31q45 23 76 60q23 25 31 63q4 20 8 39.5t8 42.5q2 20 3 40.5t1 41.5v67q2 29 3 58t1 57q-2 57 6 113q6 53 29 108q8 25 29 56q14 20 12 43.5t-16 42.5q-12 18 -27 49q-20 57 -31 127q-4 33 -7 64.5t-1 62.5v55.5t2 40.5v68 q0 20 -1 40.5t-3 43.5q-4 20 -8 39.5t-8 39.5q-8 39 -31 64q-37 39 -76 59q-43 23 -82 31q-10 2 -22.5 4t-26.5 4q-20 2 -34.5 21.5t-14.5 46.5v155q0 27 19.5 40.5t43.5 11.5q25 -2 54.5 -7.5t64.5 -15.5q66 -18 145 -59q74 -39 138 -115q49 -59 71 -119q10 -33 19.5 -65.5 t13.5 -65.5q8 -63 12 -125v-102v-109q0 -47 11 -88q8 -39 37 -63q18 -16 36 -21q16 -6 28.5 -26.5t12.5 -46.5v-156q0 -27 -12 -47.5t-31 -26.5q-23 -8 -39 -18q-25 -20 -34 -56q-4 -16 -7.5 -37.5t-1.5 -45.5v-123v-103q-2 -59 -12 -125q-4 -33 -13 -64.5t-20 -64.5 q-25 -63 -71 -121q-59 -72 -135 -112q-74 -41 -142 -62q-72 -23 -121 -24q-27 -2 -47 15.5t-20 43.5v148z"/>
            <glyph unicode="~" horiz-adv-x="1175"
                   d="M107 758.5q-13 11.5 4 52.5q10 23 29.5 49.5t35.5 42.5q18 16 39 31.5t45 28.5q51 23 115 22h2q72 0 127 -24q53 -25 100 -54q20 -10 39 -20t35 -19q16 -8 34.5 -13t39.5 -5q37 0 60.5 16.5t39.5 36.5q12 16 16 23q16 25 31.5 32t40.5 -2l78 -26q25 -8 31 -26.5t-2 -35.5 q-4 -8 -8.5 -14t-10.5 -16q-25 -43 -61 -80q-41 -41 -93 -64q-51 -27 -120 -26h-4q-39 2 -73 8t-63 20q-29 12 -54 25.5t-50 28.5q-18 10 -34.5 20t-33.5 18q-31 14 -67 15q-43 0 -88 -51q-23 -27 -41.5 -32t-42.5 3l-56 16q-27 8 -40 19.5z"/>
            <glyph unicode="&#xa1;" horiz-adv-x="600"
                   d="M150 63l45 934q2 27 21.5 45.5t43.5 18.5h80q27 0 45.5 -18.5t20.5 -45.5l45 -934q2 -27 -15.5 -45t-44.5 -18h-182q-25 0 -43.5 18.5t-15.5 44.5zM158 1255v179q0 27 18.5 45t42.5 18h162q27 0 45 -18t18 -45v-179q0 -27 -18 -45t-45 -18h-162q-25 0 -43 18.5t-18 44.5z "/>
            <glyph unicode="&#xa2;" horiz-adv-x="1267"
                   d="M78 745q0 104 35 203q33 94 96 176q59 76 145 136q55 35 125 61q25 10 42.5 32.5t17.5 49.5v59q0 27 18 45.5t45 18.5h160q27 0 45 -18.5t18 -45.5v-55q0 -27 17.5 -49.5t44.5 -30.5q92 -31 172 -92t135 -141q14 -23 6 -44.5t-31 -31.5l-143 -57q-23 -10 -47.5 -8.5 t-34.5 16.5l-24 30q-31 33 -62 54q-35 23 -76 37q-37 14 -92 14q-70 0 -131 -25q-63 -29 -108 -73q-23 -23 -40.5 -51.5t-31.5 -61.5q-27 -61 -27 -148q0 -84 27 -145q14 -33 31.5 -61.5t40.5 -51.5q45 -45 108 -73q59 -27 131 -27q59 0 96 14q39 12 72 35q31 20 57 49 q6 8 12.5 15.5t12.5 13.5q10 12 33.5 15t46.5 -7l143 -57q23 -10 31 -32.5t-8 -45.5q-51 -76 -131 -133q-80 -61 -168 -90q-27 -8 -44.5 -30.5t-17.5 -49.5v-45q0 -27 -18.5 -45.5t-44.5 -18.5h-160q-27 0 -45 18.5t-18 45.5v49q0 27 -17.5 49.5t-42.5 32.5 q-33 12 -64.5 27.5t-60.5 35.5q-84 55 -145 134q-63 78 -96 176q-35 98 -35 202z"/>
            <glyph unicode="&#xa3;" horiz-adv-x="1259"
                   d="M109 63v119q0 27 9 48.5t32 37.5q25 12 47 35q12 10 23 25.5t22 31.5q10 16 18 38t14 46q12 47 7 97q-2 12 -3.5 24.5t-3.5 22.5q-4 20 -24.5 33.5t-46.5 13.5h-27q-27 0 -45 18.5t-18 44.5v99q0 27 17 45t44 18q25 0 41 18.5t12 45.5l-10 86q-12 117 25 211 q33 92 102 161q72 70 166 105q94 37 211 37t209 -41q88 -41 147 -101q63 -63 97 -129q16 -31 30 -65q10 -25 -1 -47.5t-36 -30.5l-147 -47q-25 -8 -45.5 0t-28.5 27q-8 20 -20 40q-10 20 -24.5 38t-31.5 34q-33 29 -71 49q-41 18 -78 19q-78 0 -129 -25q-23 -10 -47.5 -37.5 t-34.5 -52.5q-20 -57 -14 -123q2 -18 3 -39.5t5 -44.5q0 -12 1 -23.5t3 -21.5q2 -16 22.5 -29.5t47.5 -13.5h307q27 0 45 -18.5t18 -44.5v-99q0 -27 -18.5 -45t-44.5 -18h-275q-27 0 -44 -18.5t-15 -45.5v-43t-4 -41q-7 -63 -23 -112t-37 -80q-4 -8 -5 -26.5t26 -18.5h598 q27 0 45 -18.5t18 -45.5v-123q0 -27 -18 -45t-45 -18h-934q-27 0 -45 18.5t-18 44.5z"/>
            <glyph unicode="&#xa5;" horiz-adv-x="1253"
                   d="M44 1486q9 15 36 15h207q27 0 54.5 -15.5t39.5 -37.5l211 -367q14 -23 32.5 -22.5t30.5 22.5l211 367q14 23 41 38t54 15h206q27 0 36 -15.5t-5 -37.5l-342 -592q-12 -23 -4 -39t35 -16h157q27 0 45.5 -18.5t18.5 -45.5v-57q0 -27 -18.5 -45.5t-45.5 -18.5h-215 q-27 0 -44 -18t-17 -45v-49q0 -27 17.5 -45.5t43.5 -18.5h215q27 0 45.5 -18.5t18.5 -44.5v-55q0 -27 -18.5 -45.5t-45.5 -18.5h-215q-27 0 -44 -18.5t-17 -44.5v-132q0 -27 -18.5 -45t-44.5 -18h-162q-27 0 -44.5 18.5t-17.5 44.5v132q0 27 -18.5 45t-44.5 18h-197 q-27 0 -44 18.5t-17 45.5v55q0 27 17.5 45t43.5 18h197q27 0 45 18.5t18 45.5v49q0 27 -18.5 45t-44.5 18h-197q-27 0 -44 18.5t-17 45.5v57q0 27 17.5 45.5t43.5 18.5h141q27 0 36.5 16.5t-5.5 38.5l-344 592q-14 23 -5 38z"/>
            <glyph unicode="&#xa6;" horiz-adv-x="585"
                   d="M188 -154v666q0 27 18.5 45t45.5 18h82q27 0 44 -18t17 -45v-666q0 -27 -17.5 -45t-43.5 -18h-82q-27 0 -45.5 18t-18.5 45zM188 981v668q0 27 18.5 45t45.5 18h82q27 0 44 -18.5t17 -44.5v-668q0 -27 -17.5 -45t-43.5 -18h-82q-27 0 -45.5 18t-18.5 45z"/>
            <glyph unicode="&#xa7;" horiz-adv-x="1085"
                   d="M94 750q0 55 25 102q25 43 55 74q33 31 64 45q2 2 6 5t4 8t-5 12.5t-24 17.5q-49 29 -76 67q-49 63 -49 140q0 102 51 161q47 57 119 93q35 16 66.5 26t66.5 15q35 4 59.5 6t41.5 2q59 0 112.5 -9.5t106.5 -25.5q80 -25 157 -74q23 -14 27 -38.5t-12 -47.5l-53 -72 q-31 -45 -82 -16q-27 14 -54.5 29.5t-52.5 25.5q-72 27 -153 27q-94 0 -129 -27q-39 -27 -39 -73q0 -37 26 -58q27 -23 68 -39q39 -14 84 -24q23 -4 39 -8t32 -9q23 -4 51.5 -11t63.5 -17q66 -18 133 -53q61 -37 109 -97q47 -59 47 -151q0 -86 -43 -144q-25 -35 -49 -47 q-25 -14 -27 -25.5t10 -19.5q14 -10 25 -18q31 -31 47 -62q10 -16 16.5 -34.5t12.5 -36.5q4 -20 7 -38t3 -34q0 -82 -39 -147q-37 -59 -98 -101q-63 -41 -135 -59q-78 -18 -154 -19q-90 0 -160 21q-74 20 -137 49q-61 27 -104 55q-10 6 -15.5 10.5t-13.5 8.5 q-12 10 -13 31.5t13 43.5l53 74q16 23 38 30t48 -11q35 -25 76 -45q23 -10 46.5 -20.5t51.5 -18.5q51 -18 113 -19q31 0 63 8q35 6 64 21q29 14 51 37q20 25 21 51q0 27 -21 51q-20 18 -53 31q-16 6 -34.5 12t-41.5 10t-44 10.5t-44 12.5q-47 8 -117 25q-66 14 -137 53 q-66 33 -117 94q-47 55 -47 154zM285 780q0 -18 6 -43q10 -34 53 -59q23 -12 45.5 -22.5t50.5 -18.5q51 -16 105 -25q25 -4 44 -6t36 -2q29 0 55 8q29 10 51 27q20 14 37 41q14 29 14 55q0 31 -30 66q-29 31 -78 57q-25 12 -51.5 22.5t-55.5 18.5q-16 4 -29.5 6t-27.5 4 q-25 4 -44.5 4h-23.5h-12q-12 -2 -26.5 -5t-30.5 -9q-35 -12 -62 -39t-26 -80z"/>
            <glyph unicode="&#xa8;" horiz-adv-x="847"
                   d="M76 1735q0 59 41 99t100 40t98 -40t39 -99t-39 -98.5t-98 -39.5t-100 39.5t-41 98.5zM494 1735q0 59 39.5 99t99.5 40q59 0 99 -40t40 -99t-40 -98.5t-99 -39.5t-99 39.5t-40 98.5z"/>
            <glyph unicode="&#xa9;" horiz-adv-x="1691"
                   d="M76 745q0 156 59 299q61 141 166 246q53 53 113.5 93t130.5 71q141 61 301 62q160 0 299 -62q145 -63 246 -164q106 -106 163 -246q61 -141 62 -299q0 -160 -62 -301q-29 -72 -69.5 -131t-93.5 -112q-104 -104 -246 -166q-70 -31 -144.5 -45.5t-154.5 -14.5 q-164 0 -301 60q-139 61 -244 166q-106 106 -166 243q-59 143 -59 301zM268 745q0 -123 45 -225q47 -109 125 -182q74 -78 183 -125q104 -45 225 -45t223 45q109 47 182 125q78 74 125 182q45 109 45 225q0 115 -45 224q-45 102 -125 182q-74 78 -182 125q-108 45 -223 45 q-59 0 -115.5 -11.5t-109.5 -33.5q-109 -47 -183 -125q-80 -80 -125 -182t-45 -224zM432 745q0 -90 33 -161q31 -74 88 -131q29 -29 61.5 -50.5t69.5 -37.5q74 -33 162 -33q119 0 211 59q76 45 127 119q10 16 5 30.5t-22 20.5l-71 29q-37 12 -66 -17q-29 -31 -63 -49 q-55 -31 -121 -30q-55 0 -101 18q-47 18 -79 55q-35 35 -54 80q-20 41 -20 98q0 53 20 97q16 43 54 82q35 35 79 53q23 10 47.5 15t53.5 5q68 0 125 -34q20 -10 35.5 -24.5t31.5 -31.5q10 -14 28.5 -19t35.5 1l72 29q16 6 21 21t-5 30q-25 39 -56.5 69.5t-70.5 57.5 q-98 61 -217 61q-43 0 -83 -8t-79 -25q-74 -35 -131 -88q-57 -57 -88 -131q-33 -72 -33 -160z"/>
            <glyph unicode="&#xaa;" horiz-adv-x="745"
                   d="M90 674v55q0 18 12.5 30.5t30.5 12.5h467q16 0 28.5 -12t12.5 -31v-55q0 -16 -12.5 -28.5t-28.5 -12.5h-467q-18 0 -30.5 12t-12.5 29zM96 1073q-6 96 56 158q23 23 51 39q14 8 27.5 13t27.5 9t26.5 6t26.5 5q12 2 22.5 2h20.5q23 -2 41.5 -4.5t34.5 -6.5q10 -2 17.5 -4 t15.5 -6q14 -6 23.5 1t5.5 24q-4 31 -15 45q-20 27 -53 41q-45 16 -80 14q-39 -4 -70 -12q-33 -8 -57 -25q-4 -2 -10 -6t-14.5 -6t-18.5 1t-18 17l-27 47q-10 14 -8 28.5t22 25.5q16 8 38 16t48 16q152 43 252 -2q51 -25 82 -57q29 -31 45 -70q14 -37 19 -79q4 -20 4 -41 v-41v-295q0 -16 -12.5 -28.5t-28.5 -12.5h-53q-35 0 -43 24q-2 10 -15.5 -1t-38.5 -19q-16 -6 -32.5 -8t-34.5 -4h-11q-119 0 -190 51q-70 51 -76 145zM233 1081q0 -20 8.5 -32.5t19.5 -19.5t22.5 -11t17.5 -6q25 -8 70 -8q27 0 51 3t40.5 14t26 32.5t5.5 58.5q-2 16 -17 29 q-14 10 -42.5 20t-82.5 10q-37 0 -67 -12q-16 -6 -34 -22.5t-18 -55.5z"/>
            <glyph unicode="&#xab;" horiz-adv-x="1388"
                   d="M129 751.5q0 30.5 14 53.5l238 373q16 23 44 38t54 15h166q27 0 35 -15.5t-6 -37.5l-248 -373q-14 -23 -14 -52.5t14 -52.5l250 -368q14 -23 6 -38t-35 -15h-170q-27 0 -54.5 15t-43.5 38l-234 366q-16 23 -16 53.5zM692.5 751.5q-0.5 30.5 16.5 53.5l237 373 q16 23 44 38t54 15h164q27 0 35 -15.5t-6 -37.5l-246 -373q-14 -23 -14 -52.5t14 -52.5l250 -368q14 -23 6 -38t-35 -15h-170q-27 0 -54.5 15t-43.5 38l-235 366q-16 23 -16.5 53.5z"/>
            <glyph unicode="&#xac;" horiz-adv-x="1206"
                   d="M100 840v129q0 27 18.5 44t45.5 17h864q27 0 45.5 -17.5t18.5 -43.5v-482q0 -27 -18.5 -44t-45.5 -17h-160q-27 0 -45 17.5t-18 43.5v228q0 27 -18.5 44t-45.5 17h-577q-27 0 -45.5 18.5t-18.5 45.5z"/>
            <glyph unicode="&#xad;" horiz-adv-x="1705"/>
            <glyph unicode="&#xae;" horiz-adv-x="1693"
                   d="M72 748q0 162 59 299q61 141 166 245q102 102 244 164q141 61 301 62q158 0 299 -62q145 -63 245 -164q106 -104 166 -245q61 -141 62 -299q0 -160 -62 -302q-59 -141 -166 -245q-104 -104 -245 -166q-137 -60 -299 -60q-164 0 -301 60q-137 59 -244 166 q-104 104 -166 245q-59 137 -59 302zM264 748q0 -123 45 -226q47 -109 125 -182q74 -78 182 -125q102 -45 226 -45q121 0 223 45q106 47 184 125q76 76 123 182t47 226q0 117 -47 223q-47 104 -123 184q-80 76 -184 123q-106 47 -223 47q-119 0 -226 -47q-106 -47 -182 -123 q-78 -78 -125 -184q-45 -102 -45 -223zM575 453q0 -16 12.5 -28.5t28.5 -12.5h76q16 0 29.5 12.5t13.5 28.5v98q0 16 7.5 29.5t23.5 13.5h33q18 0 32.5 -10.5t24.5 -24.5t21.5 -28.5t23.5 -28.5q10 -14 21.5 -27.5t21.5 -30.5q10 -14 29.5 -23t36.5 -9h114q16 0 22.5 9 t-3.5 23q-12 18 -25.5 36t-25.5 36q-14 16 -27.5 34.5t-28.5 35.5q-10 14 -7 30.5t18 26.5q35 25 59 66q35 57 35 133q0 111 -68 178q-68 68 -178 67h-279q-16 0 -28.5 -13t-12.5 -30v-591zM735 797v88q0 16 12.5 29.5t28.5 13.5h119q25 0 57 -17q29 -18 29 -69 q0 -31 -10 -47t-25 -27q-16 -10 -28 -10q-8 -2 -13.5 -2h-9.5h-119q-16 0 -28.5 12t-12.5 29z"/>
            <glyph unicode="&#xaf;" horiz-adv-x="808"
                   d="M68 1706v61q0 27 17 45.5t44 18.5h547q27 0 45 -18.5t18 -45.5v-61q0 -27 -18 -45.5t-45 -18.5h-547q-27 0 -44 18.5t-17 45.5z"/>
            <glyph unicode="&#xb0;" horiz-adv-x="688"
                   d="M84 1499q0 53 20.5 100.5t55.5 83t83 56t101 20.5t100.5 -20.5t82 -56t55 -83t20.5 -100.5t-20.5 -101t-55 -83t-82 -55.5t-100.5 -20.5t-101 20.5t-83 55.5t-55.5 83t-20.5 101zM244 1499q0 -41 29.5 -69.5t70.5 -28.5t69.5 28.5t28.5 69.5t-28.5 69.5t-69.5 28.5 t-70.5 -28.5t-29.5 -69.5z"/>
            <glyph unicode="&#xb1;" horiz-adv-x="1124"
                   d="M125 63v127q0 27 18.5 45.5t44.5 18.5h730q27 0 45 -18.5t18 -45.5v-127q0 -27 -18.5 -45t-44.5 -18h-730q-27 0 -45 18t-18 45zM125 782v121q0 27 18.5 45.5t44.5 18.5h156q27 0 45.5 18.5t18.5 44.5v187q0 27 18 45t45 18h164q27 0 45 -18.5t18 -44.5v-187 q0 -27 18.5 -45t45.5 -18h156q27 0 45 -18.5t18 -45.5v-121q0 -27 -18.5 -45t-44.5 -18h-156q-27 0 -45.5 -18.5t-18.5 -45.5v-184q0 -27 -18 -45t-45 -18h-164q-27 0 -45 18t-18 45v184q0 27 -18.5 45.5t-45.5 18.5h-156q-27 0 -45 18.5t-18 44.5z"/>
            <glyph unicode="&#xb2;" horiz-adv-x="815"
                   d="M66 1462.5q-5 14.5 2 30.5q4 10 9 20.5t11 20.5q23 41 66 88q41 41 102 72q57 31 139 30q43 0 80 -7t70 -19q63 -29 106 -70q39 -43 62 -98q10 -29 15 -54.5t5 -54.5q0 -113 -55 -192q-53 -76 -152 -156q-18 -16 -41.5 -35.5t-54.5 -44.5q-18 -16 -35.5 -29.5 t-34.5 -27.5q-20 -16 -15 -27.5t30 -11.5h317q53 0 53 -53v-60q0 -51 -53 -51h-571q-51 0 -51 51v80q0 27 4 41.5t20 30.5q8 8 21.5 19.5t23.5 21.5q23 18 45.5 36.5t46.5 41.5q25 20 49.5 39.5t49.5 42.5q49 43 86 73q23 18 40 34t31 32q29 31 39 53q12 20 17 47 q2 10 3 21.5t1 23.5q0 33 -15 66q-16 27 -36 41q-23 16 -47 22q-14 4 -27.5 6.5t-26.5 2.5q-43 0 -76 -23q-33 -27 -49 -51q-10 -14 -16 -27.5t-10 -23.5q-14 -31 -70 -19l-76 27q-27 6 -32 20.5z"/>
            <glyph unicode="&#xb3;" horiz-adv-x="786"
                   d="M45 1495q4 10 9 20.5t9 20.5q23 49 62 90q43 43 98 70q63 29 146 28q94 0 159 -24q63 -29 105 -68q37 -37 57 -90q18 -53 19 -100q0 -55 -15 -90q-12 -39 -37 -64q-20 -25 -51 -41q-6 -4 -13 -7t-13 -7q-27 -15 0 -27q16 -8 26 -12q27 -14 51 -43q10 -14 20.5 -29.5 t16.5 -36.5q14 -37 15 -94q0 -14 -2 -32.5t-9 -40.5q-10 -47 -47 -95q-14 -16 -29.5 -31.5t-33.5 -25.5q-37 -23 -72 -35q-20 -6 -38.5 -10t-37.5 -6q-41 -6 -71 -6q-82 0 -146 28q-57 27 -98 72q-39 39 -62 88q-4 10 -7 15.5t-7 15.5q-6 18 1 37.5t32 27.5l65 25 q25 6 38.5 -6.5t15.5 -16.5q16 -27 28.5 -49t44.5 -47q16 -12 42 -19.5t53 -7.5q76 0 116 37q37 33 37 82q0 55 -16 82q-16 31 -47 47t-76 25q-12 2 -25.5 3t-27.5 3q-23 2 -38.5 15.5t-15.5 39.5v39q0 25 15.5 38t38.5 15q12 2 25.5 3.5t25.5 3.5q43 2 78 18q33 16 47 43 q16 25 16 76q0 47 -37 82q-41 35 -116 35q-51 0 -84 -23q-27 -18 -47 -49q-4 -10 -8.5 -18.5t-8.5 -18.5q-6 -16 -21.5 -27.5t-39.5 -3.5l-82 23q-47 14 -33 53z"/>
            <glyph unicode="&#xb4;" horiz-adv-x="602"
                   d="M83 1597.5q-7 14.5 9 34.5l172 221q16 20 39.5 22.5t46.5 -7.5l123 -53q23 -10 26 -28t-20 -34l-190 -143q-20 -16 -41 -21.5t-45 -5.5h-86q-27 0 -34 14.5z"/>
            <glyph unicode="&#xb6;" horiz-adv-x="1114"
                   d="M43 1055q0 63 16.5 126.5t49 118t81 97.5t109.5 65q104 39 285 39h307q27 0 45 -17.5t18 -43.5v-1377q0 -27 -18 -45t-45 -18h-66q-27 0 -45 18.5t-18 44.5v1252q0 27 -18.5 39t-45.5 12h-20q-27 0 -45.5 -12.5t-18.5 -38.5v-1252q0 -27 -18 -45t-45 -18h-68 q-25 0 -43 18t-18 45v529q0 27 -18.5 45t-45.5 22q-37 6 -71 19q-63 25 -119 76l-33.5 33.5t-42 57.5t-35 87t-14.5 123z"/>
            <glyph unicode="&#xb7;" horiz-adv-x="393"
                   d="M51 852q0 61 44 105t106 44q63 0 107 -44t44 -105q0 -63 -44 -107.5t-107 -44.5q-61 0 -105.5 44t-44.5 108z"/>
            <glyph unicode="&#xb8;" horiz-adv-x="471"
                   d="M49 -311q2 6 8 19t9 18q12 23 22 27.5t27 -5.5q6 -4 14 -5t21 -5q31 -6 57 -3t43 13q23 12 22 39q0 27 -26 41q-18 12 -38 13t-37 -3t-29.5 -9t-14.5 -7q-12 -4 -26.5 -1t-18.5 13q-10 14 8 82l21 74q10 23 33.5 28t50.5 5h6q27 0 39 -10.5t6 -26.5q-10 -29 -4 -32t10 -3 q12 2 27.5 -1t31.5 -7q111 -39 105 -164q-6 -63 -33 -96q-31 -37 -61 -52q-59 -27 -111.5 -21.5t-77.5 9.5q-16 4 -37.5 12.5t-32.5 14.5q-20 12 -14 43z"/>
            <glyph unicode="&#xb9;" horiz-adv-x="585"
                   d="M17.5 1383q0.5 26 19.5 44l246 234q20 18 39.5 31.5t66.5 13.5q41 0 50.5 -13t9.5 -40v-873q0 -51 -54 -51h-82q-51 0 -51 51v541q0 27 -13 32t-34 -14l-49 -47q-18 -18 -45 -17t-45 19l-41 43q-18 20 -17.5 46z"/>
            <glyph unicode="&#xba;" horiz-adv-x="808"
                   d="M80 1202q0 66 24 125q29 61 70 103q43 43 100 67q55 27 125 27q72 0 127 -27q57 -25 101 -67q43 -41 69 -103q27 -55 27 -125q0 -72 -27 -127q-25 -57 -69 -102q-43 -43 -101 -70q-59 -24 -127 -24t-125 24q-59 27 -100 70q-43 45 -70 102q-25 57 -24 127zM117 674v55 q0 18 12 30.5t29 12.5h487q18 0 30.5 -12t12.5 -31v-55q0 -16 -12.5 -28.5t-30.5 -12.5h-487q-16 0 -28.5 12t-12.5 29zM217 1202q0 -43 14 -74q10 -31 39 -61q29 -29 60 -43q37 -16 71 -16q35 0 72 16q35 16 59 43q23 25 39 61q14 39 15 74q0 33 -15 72q-16 37 -39 63 q-25 27 -59 43q-37 17 -72 17t-71 -17q-31 -14 -60 -43q-12 -14 -22 -29.5t-17 -33.5q-14 -31 -14 -72z"/>
            <glyph unicode="&#xbb;" horiz-adv-x="1388"
                   d="M141 294q-8 15 6 38l250 368q14 23 14 52.5t-14 52.5l-245 373q-16 23 -7 38t35 15h164q27 0 54.5 -15.5t41.5 -37.5l240 -373q16 -23 15 -53.5t-15 -53.5l-236 -366q-16 -23 -43.5 -38t-54.5 -15h-170q-27 0 -35 15zM706 294q-8 15 7 38l250 368q14 23 14 52.5t-14 52.5 l-248 373q-14 23 -6 38t34 15h166q27 0 54.5 -15.5t42.5 -37.5l237 -373q16 -23 16.5 -53.5t-16.5 -53.5l-233 -366q-16 -23 -44 -38t-55 -15h-170q-27 0 -35 15z"/>
            <glyph unicode="&#xbc;" horiz-adv-x="1789"
                   d="M16.5 1181.5q-0.5 26.5 20.5 43.5l246 235q20 18 39.5 30.5t66.5 12.5q41 0 50.5 -13t9.5 -38v-872q0 -53 -54 -54h-82q-51 0 -51 54v538q0 27 -13 33t-34 -12l-49 -49q-20 -16 -46 -16.5t-44 18.5l-41 45q-18 18 -18.5 44.5zM295 15q-8 15 4 38l831 1395q12 23 30 38 t44 15h84q27 0 36 -15.5t-5 -37.5l-830 -1395q-12 -23 -29.5 -38t-43.5 -15h-86q-27 0 -35 15zM909 270v66q0 27 11.5 48.5t27.5 39.5l432 506q16 20 36 33.5t46 13.5h47q27 0 40.5 -18.5t13.5 -45.5v-479q0 -53 47 -53q25 0 48 -4t23 -37v-80q0 -35 -23.5 -39t-47.5 -4 q-47 0 -47 -53v-111q0 -27 -18.5 -40t-45.5 -13h-61q-27 0 -44.5 13.5t-17.5 39.5v111q0 27 -18.5 40t-44.5 13h-342q-27 0 -44.5 13.5t-17.5 39.5zM1176 395.5q6 -14.5 32 -14.5h115q53 0 53 53v164q0 27 -12.5 30.5t-28.5 -16.5l-149 -182q-16 -20 -10 -34.5z"/>
            <glyph unicode="&#xbd;" horiz-adv-x="1789"
                   d="M17.5 1181.5q0.5 26.5 19.5 43.5l248 235q18 18 37.5 30.5t66.5 12.5q41 0 50.5 -13t9.5 -38v-872q0 -53 -54 -54h-80q-53 0 -53 54v538q0 27 -13 33t-32 -12l-51 -49q-18 -16 -44 -16.5t-44 18.5l-43 45q-18 18 -17.5 44.5zM296 15q-9 15 5 38l829 1395q14 23 32 38 t44 15h82q27 0 36 -15.5t-5 -37.5l-827 -1395q-14 -23 -31 -38t-43 -15h-86q-27 0 -36 15zM1050 729q-6 14 3 31q4 16 18 41q27 49 68 90q39 39 100 72q61 29 139 28q90 0 152 -26q66 -29 104 -70q39 -43 62 -96q20 -53 20 -111q0 -115 -55 -190q-55 -80 -152 -158 q-16 -16 -40.5 -35.5t-55.5 -44.5q-16 -14 -33.5 -27.5t-33.5 -27.5q-23 -16 -18 -28.5t32 -12.5h315q54 0 54 -53v-58q0 -53 -54 -53h-569q-53 0 -53 53v80q0 27 4 41t22 31q8 6 20.5 18.5t22.5 20.5q23 18 45.5 37.5t46.5 40.5q25 20 49.5 40.5t49.5 43.5q25 20 46 37.5 t40 33.5q23 18 40 34.5t31 31.5q14 14 23.5 27.5t17.5 25.5q14 27 17 47q2 10 2 22.5v22.5q0 39 -14 66q-16 31 -35 43q-10 8 -22.5 13t-26.5 9q-29 6 -54 6q-43 0 -75 -22q-31 -23 -50 -49q-10 -14 -15 -27.5t-11 -26.5q-14 -31 -68 -16l-78 25q-25 6 -31 20z"/>
            <glyph unicode="&#xbe;" horiz-adv-x="1961"
                   d="M38 1249.5q-7 14.5 1 30.5q4 10 8 20.5t8 20.5q23 49 62 90q20 20 44.5 37.5t55.5 32.5q61 29 145 28q92 0 158 -24q63 -29 105 -68q41 -41 59 -90q18 -53 18 -100q0 -27 -4 -49.5t-10 -40.5q-14 -39 -37 -64t-51 -41q-14 -8 -29 -14q-23 -15 0 -27q6 -4 13.5 -6t13.5 -6 q27 -14 51 -43q25 -27 39 -66q6 -20 10 -42.5t4 -51.5q0 -23 -10 -74q-6 -23 -17 -47t-30 -47l-31.5 -31.5t-31.5 -25.5q-41 -25 -74 -35q-41 -14 -76 -16q-37 -6 -70 -6q-84 0 -145 28q-57 27 -100 72q-39 39 -62 88q-4 10 -7 15t-7 16q-6 18 1 37.5t32 27.5l65 25 q27 6 39 -6.5t17 -16.5q16 -27 27 -49t44 -47q16 -12 42 -19.5t54 -7.5q78 0 115 37q39 35 39 82q0 49 -16 82q-20 33 -47 47q-31 14 -78 25q-12 2 -24.5 3t-28.5 3q-23 2 -37.5 15.5t-14.5 39.5v39q0 25 14.5 38t37.5 15q14 2 26 3t25 4q47 4 78 18t49 43q16 29 16 76 t-39 82t-115 34q-51 0 -83 -22q-33 -23 -48 -49q-12 -18 -18 -37q-4 -16 -19.5 -27.5t-41.5 -3.5l-80 23q-27 8 -34 22.5zM500 15q-8 15 4 38l831 1395q14 23 30.5 38t43.5 15h84q27 0 36 -15.5t-5 -37.5l-830 -1395q-12 -23 -29.5 -38t-64.5 -15h-65q-27 0 -35 15z M1114 270q0 -27 17.5 -40t44.5 -13h342q27 0 45 -13.5t18 -39.5v-111q0 -27 17.5 -40t43.5 -13h62q27 0 45 13.5t18 39.5v111q0 53 48 53q25 0 48 4t23 39v80q0 33 -23 37t-48 4q-47 0 -48 53v479q0 27 -13 45.5t-40 18.5h-47q-27 0 -46 -13.5t-36 -33.5l-432 -506 q-16 -18 -27.5 -40t-11.5 -48v-66zM1380 395.5q-6 14.5 11 34.5l149 182q16 20 28.5 16.5t12.5 -30.5v-164q0 -53 -53 -53h-115q-27 0 -33 14.5z"/>
            <glyph unicode="&#xbf;" horiz-adv-x="1196"
                   d="M86 430q0 94 25 162q25 63 63 113q35 43 84 75q49 31 92 56q23 10 43.5 21t38.5 22q41 23 57 49q37 49 43 98q4 10 4.5 19.5t2.5 19.5q4 39 61 39h162q27 0 45 -18.5t16 -45.5q-4 -47 -14 -94t-31.5 -93t-56.5 -93q-45 -61 -96 -92q-29 -16 -54.5 -33t-54.5 -31 q-20 -10 -36.5 -20.5t-30.5 -18.5q-23 -14 -43 -35q-18 -18 -25 -41q-4 -12 -6 -27.5t-2 -31.5q0 -12 6 -39q6 -29 31 -55q25 -29 69 -49q49 -23 127 -23q68 0 117 25q47 20 84 57q35 35 53 78q12 18 19 39q8 16 29.5 22.5t45.5 -2.5l152 -49q25 -10 37 -30.5t2 -43.5 q-8 -20 -25 -51q-29 -68 -96 -137q-61 -68 -166 -121q-100 -51 -252 -51q-96 0 -184 27q-47 14 -89 33.5t-79 48.5q-70 49 -121 133q-47 82 -47 188zM532 1296v179q0 27 18.5 45t45.5 18h162q27 0 44 -18.5t17 -44.5v-179q0 -27 -17.5 -45t-43.5 -18h-162q-27 0 -45.5 18.5 t-18.5 44.5z"/>
            <glyph unicode="&#xc0;"
                   d="M40 16q-9 16 1 39l711 1420q12 25 40.5 24.5t41.5 -24.5l710 -1420q12 -23 3 -39t-36 -16h-186q-27 0 -53.5 16.5t-36.5 40.5l-61 123q-12 23 -38 39.5t-53 16.5h-581q-27 0 -53.5 -16.5t-36.5 -41.5l-60 -121q-12 -25 -37.5 -41t-52.5 -16h-186q-27 0 -36 16z M441 1774.5q3 17.5 26 27.5l123 53q23 10 46 8.5t40 -22.5l172 -221q16 -20 9 -34.5t-34 -14.5h-86q-25 0 -45 5t-41 21l-190 144q-23 16 -20 33.5zM604 501.5q10 -16.5 37 -16.5h303q27 0 36 17.5t-1 40.5l-160 338q-10 25 -26.5 24.5t-26.5 -24.5l-162 -338 q-10 -25 0 -41.5z"/>
            <glyph unicode="&#xc1;"
                   d="M40 16q-9 16 1 39l711 1420q12 25 40.5 24.5t41.5 -24.5l710 -1420q12 -23 3 -39t-36 -16h-186q-27 0 -53.5 16.5t-36.5 40.5l-61 123q-12 23 -38 39.5t-53 16.5h-581q-27 0 -53.5 -16.5t-36.5 -41.5l-60 -121q-12 -25 -37.5 -41t-52.5 -16h-186q-27 0 -36 16zM604 501.5 q10 -16.5 37 -16.5h303q27 0 36 17.5t-1 40.5l-160 338q-10 25 -26.5 24.5t-26.5 -24.5l-162 -338q-10 -25 0 -41.5zM726 1585q-7 14 9 35l172 221q16 20 39.5 22t46.5 -8l123 -53q23 -10 26 -27.5t-20 -33.5l-190 -144q-20 -16 -41 -21t-45 -5h-86q-27 0 -34 14z"/>
            <glyph unicode="&#xc2;"
                   d="M40 16q-9 16 1 39l711 1420q12 25 40.5 24.5t41.5 -24.5l710 -1420q12 -23 3 -39t-36 -16h-186q-27 0 -53.5 16.5t-36.5 40.5l-61 123q-12 23 -38 39.5t-53 16.5h-581q-27 0 -53.5 -16.5t-36.5 -41.5l-60 -121q-12 -25 -37.5 -41t-52.5 -16h-186q-27 0 -36 16zM449 1581 q-7 14 10 35l172 217q16 20 35.5 34.5t46.5 14.5h155q27 0 46.5 -14.5t35.5 -34.5l172 -215q16 -20 10 -34.5t-32 -14.5h-125q-27 0 -47.5 13t-38.5 32l-58 55q-18 16 -43.5 16.5t-44.5 -18.5l-49 -55q-18 -18 -38.5 -31.5t-47.5 -13.5h-125q-27 0 -34 14zM604 501.5 q10 -16.5 37 -16.5h303q27 0 36 17.5t-1 40.5l-160 338q-10 25 -26.5 24.5t-26.5 -24.5l-162 -338q-10 -25 0 -41.5z"/>
            <glyph unicode="&#xc3;"
                   d="M40 16q-9 16 1 39l711 1420q12 25 40.5 24.5t41.5 -24.5l710 -1420q12 -23 3 -39t-36 -16h-186q-27 0 -53.5 16.5t-36.5 40.5l-61 123q-12 23 -38 39.5t-53 16.5h-581q-27 0 -53.5 -16.5t-36.5 -41.5l-60 -121q-12 -25 -37.5 -41t-52.5 -16h-186q-27 0 -36 16zM408 1657 q4 10 8 18t8 19q29 72 88 114.5t135 42.5q63 0 99 -16t64 -35.5t54.5 -37t71.5 -17.5q29 -2 50.5 9t47.5 46q8 10 22.5 16.5t39.5 -1.5l73 -29q25 -10 30 -25.5t-1 -31.5q-4 -6 -5 -8.5t-5 -10.5q-14 -33 -45 -65q-41 -47 -90 -72q-12 -6 -37 -12.5t-57.5 -6.5t-68.5 8 t-69 31q-12 6 -28.5 19.5t-37 26t-44 20.5t-47.5 8q-41 -2 -59.5 -26.5t-29.5 -41.5q-6 -10 -19 -18t-40 0l-72 25q-27 8 -35 21t-1 30zM604 501.5q10 -16.5 37 -16.5h303q27 0 36 17.5t-1 40.5l-160 338q-10 25 -26.5 24.5t-26.5 -24.5l-162 -338q-10 -25 0 -41.5z"/>
            <glyph unicode="&#xc4;"
                   d="M40 16q-9 16 1 39l711 1420q12 25 40.5 24.5t41.5 -24.5l710 -1420q12 -23 3 -39t-36 -16h-186q-27 0 -53.5 16.5t-36.5 40.5l-61 123q-12 23 -38 39.5t-53 16.5h-581q-27 0 -53.5 -16.5t-36.5 -41.5l-60 -121q-12 -25 -37.5 -41t-52.5 -16h-186q-27 0 -36 16zM444 1708 q0 59 41 99t101 40q59 0 98 -40t39 -99t-39 -98t-98 -39t-100.5 39t-41.5 98zM604 501.5q10 -16.5 37 -16.5h303q27 0 36 17.5t-1 40.5l-160 338q-10 25 -26.5 24.5t-26.5 -24.5l-162 -338q-10 -25 0 -41.5zM862 1708q0 59 40 99t99 40t99.5 -40t40.5 -99t-40 -98t-100 -39 q-59 0 -99 39t-40 98z"/>
            <glyph unicode="&#xc5;"
                   d="M40 16q-9 16 1 39l690 1381q-70 20 -115 77.5t-45 135.5q0 45 17.5 85t47.5 69.5t69.5 47t87.5 17.5q45 0 85 -17.5t69.5 -47t47 -69.5t17.5 -85q0 -78 -45 -135.5t-115 -77.5l692 -1381q12 -23 3 -39t-36 -16h-186q-27 0 -53.5 16.5t-36.5 40.5l-61 123q-12 23 -38 39.5 t-53 16.5h-581q-27 0 -53.5 -16.5t-36.5 -41.5l-60 -121q-12 -25 -37.5 -41t-52.5 -16h-186q-27 0 -36 16zM604 501.5q10 -16.5 37 -16.5h303q27 0 36 17.5t-1 40.5l-160 338q-10 25 -26.5 24.5t-26.5 -24.5l-162 -338q-10 -25 0 -41.5zM709 1649q0 -35 24.5 -59.5 t59.5 -24.5t58 24.5t23 59.5t-23 58.5t-58 23.5t-59.5 -24t-24.5 -58z"/>
            <glyph unicode="&#xc6;" horiz-adv-x="2174"
                   d="M4 15.5q-8 15.5 6 37.5l920 1395q14 23 42.5 38t55.5 15h950q27 0 45.5 -18.5t18.5 -44.5v-131q0 -27 -18.5 -45.5t-45.5 -18.5h-690q-27 0 -45 -18t-18 -45v-244q0 -27 18.5 -45.5t44.5 -18.5h598q27 0 45.5 -18t18.5 -45v-135q0 -27 -18.5 -45.5t-45.5 -18.5h-598 q-27 0 -45 -18.5t-18 -44.5v-223q0 -27 18.5 -45.5t44.5 -18.5h690q27 0 45.5 -18.5t18.5 -44.5v-134q0 -27 -18.5 -45t-45.5 -18h-977q-27 0 -45 18.5t-18 44.5v125q0 27 -18.5 45.5t-45.5 18.5h-346q-27 0 -55.5 -15.5t-42.5 -37.5l-96 -146q-14 -23 -43 -38t-55 -15h-197 q-27 0 -35 15.5zM659 521q9 -15 35 -15h180q27 0 45.5 18.5t18.5 44.5v359q0 27 -9.5 30t-23.5 -20l-241 -379q-14 -23 -5 -38z"/>
            <glyph unicode="&#xc7;" horiz-adv-x="1593"
                   d="M82 748q0 160 61 301q61 139 166 247q109 104 248 166q141 61 301 62q104 0 209 -29q102 -29 188 -80q45 -27 85 -58.5t75 -66.5q51 -53 88 -108q14 -23 6 -44.5t-32 -31.5l-152 -62q-23 -10 -50.5 -2.5t-43.5 27.5l-41 43q-23 23 -46.5 41t-49.5 35q-27 16 -55.5 28.5 t-57.5 22.5q-59 18 -123 18q-100 0 -192 -40q-90 -43 -154 -113q-66 -72 -104 -162q-39 -92 -39 -194q0 -104 39 -195q39 -90 104 -162q63 -72 154 -110q88 -43 192 -43q63 0 123 18q29 10 57.5 22.5t55.5 28.5t50 35.5t46 42.5l41 43q16 20 44 28.5t50 -1.5l152 -62 q25 -10 33 -32.5t-7 -45.5q-20 -29 -41.5 -56.5t-46.5 -51.5q-68 -72 -160 -125q-43 -27 -90 -47.5t-98 -34.5q-37 -10 -75 -16.5t-77 -10.5q-12 -4 -14 -14q-8 -29 -3 -32t9 -3q12 2 27.5 -1t32.5 -7q110 -39 104 -164q-6 -63 -33 -96q-31 -37 -61 -51q-59 -27 -111.5 -22 t-77.5 9q-16 4 -37.5 12.5t-31.5 14.5q-20 12 -14 43q2 6 8 19.5t8 17.5q12 23 22.5 28t26.5 -6q6 -4 14.5 -5t20.5 -5q31 -6 57.5 -3t42.5 13q23 12 23 39t-27 41q-18 12 -37.5 13.5t-37 -3t-30 -9.5t-14.5 -7q-12 -4 -26.5 -1t-18.5 13q-10 14 8 82l21 74q4 14 -14 17 q-100 12 -195 53q-141 61 -248 168q-104 104 -166 245q-61 141 -61 302z"/>
            <glyph unicode="&#xc8;" horiz-adv-x="1398"
                   d="M164 63v1373q0 27 18.5 45t44.5 18h977q27 0 45.5 -18.5t18.5 -44.5v-127q0 -27 -18.5 -45.5t-45.5 -18.5h-690q-27 0 -45 -18t-18 -45v-248q0 -27 18 -45.5t45 -18.5h598q27 0 45.5 -18t18.5 -45v-133q0 -27 -18.5 -45.5t-45.5 -18.5h-598q-27 0 -45 -18.5t-18 -44.5 v-225q0 -27 18 -45.5t45 -18.5h690q27 0 45.5 -18.5t18.5 -44.5v-132q0 -27 -18.5 -45t-45.5 -18h-977q-27 0 -45 18.5t-18 44.5zM451.5 1774.5q3.5 17.5 25.5 27.5l123 53q23 10 46.5 8.5t39.5 -22.5l172 -221q16 -20 9 -34.5t-33 -14.5h-86q-25 0 -45.5 5t-40.5 21 l-191 144q-23 16 -19.5 33.5z"/>
            <glyph unicode="&#xc9;" horiz-adv-x="1398"
                   d="M164 63v1373q0 27 18.5 45t44.5 18h977q27 0 45.5 -18.5t18.5 -44.5v-127q0 -27 -18.5 -45.5t-45.5 -18.5h-690q-27 0 -45 -18t-18 -45v-248q0 -27 18 -45.5t45 -18.5h598q27 0 45.5 -18t18.5 -45v-133q0 -27 -18.5 -45.5t-45.5 -18.5h-598q-27 0 -45 -18.5t-18 -44.5 v-225q0 -27 18 -45.5t45 -18.5h690q27 0 45.5 -18.5t18.5 -44.5v-132q0 -27 -18.5 -45t-45.5 -18h-977q-27 0 -45 18.5t-18 44.5zM554 1585q-7 14 9 35l172 221q16 20 39.5 22t46.5 -8l123 -53q23 -10 26 -27.5t-20 -33.5l-190 -144q-20 -16 -41 -21t-45 -5h-86 q-27 0 -34 14z"/>
            <glyph unicode="&#xca;" horiz-adv-x="1398"
                   d="M164 63v1373q0 27 18.5 45t44.5 18h977q27 0 45.5 -18.5t18.5 -44.5v-127q0 -27 -18.5 -45.5t-45.5 -18.5h-690q-27 0 -45 -18t-18 -45v-248q0 -27 18 -45.5t45 -18.5h598q27 0 45.5 -18t18.5 -45v-133q0 -27 -18.5 -45.5t-45.5 -18.5h-598q-27 0 -45 -18.5t-18 -44.5 v-225q0 -27 18 -45.5t45 -18.5h690q27 0 45.5 -18.5t18.5 -44.5v-132q0 -27 -18.5 -45t-45.5 -18h-977q-27 0 -45 18.5t-18 44.5zM376 1581q-7 14 9 35l172 217q16 20 35.5 34.5t46.5 14.5h156q27 0 46 -14.5t36 -34.5l172 -215q16 -20 10 -34.5t-33 -14.5h-125 q-27 0 -47 13t-39 32l-57 55q-18 16 -44 16.5t-44 -18.5l-49 -55q-18 -18 -39 -31.5t-47 -13.5h-125q-27 0 -34 14z"/>
            <glyph unicode="&#xcb;" horiz-adv-x="1398"
                   d="M164 63v1373q0 27 18.5 45t44.5 18h977q27 0 45.5 -18.5t18.5 -44.5v-127q0 -27 -18.5 -45.5t-45.5 -18.5h-690q-27 0 -45 -18t-18 -45v-248q0 -27 18 -45.5t45 -18.5h598q27 0 45.5 -18t18.5 -45v-133q0 -27 -18.5 -45.5t-45.5 -18.5h-598q-27 0 -45 -18.5t-18 -44.5 v-225q0 -27 18 -45.5t45 -18.5h690q27 0 45.5 -18.5t18.5 -44.5v-132q0 -27 -18.5 -45t-45.5 -18h-977q-27 0 -45 18.5t-18 44.5zM373 1729q0 59 41 99t100 40t98 -40t39 -99t-39 -98.5t-98 -39.5t-100 39.5t-41 98.5zM791 1729q0 59 39.5 99t99.5 40q59 0 99 -40t40 -99 t-40 -98.5t-99 -39.5t-99 39.5t-40 98.5z"/>
            <glyph unicode="&#xcc;" horiz-adv-x="696"
                   d="M41.5 1774.5q3.5 17.5 26.5 27.5l122 53q23 10 46.5 8.5t39.5 -22.5l173 -221q16 -20 9 -34.5t-34 -14.5h-86q-25 0 -45.5 5t-40.5 21l-191 144q-23 16 -19.5 33.5zM205 63v1371q0 27 17.5 45t43.5 18h162q27 0 45.5 -18.5t18.5 -44.5v-1371q0 -27 -18.5 -45t-45.5 -18 h-162q-27 0 -44 18.5t-17 44.5z"/>
            <glyph unicode="&#xcd;" horiz-adv-x="696"
                   d="M205 63v1371q0 27 17.5 45t43.5 18h162q27 0 45.5 -18.5t18.5 -44.5v-1371q0 -27 -18.5 -45t-45.5 -18h-162q-27 0 -44 18.5t-17 44.5zM234 1585q-7 14 10 35l172 221q16 20 39.5 22t46.5 -8l123 -53q23 -10 25.5 -27.5t-19.5 -33.5l-191 -144q-20 -16 -40.5 -21 t-45.5 -5h-86q-27 0 -34 14z"/>
            <glyph unicode="&#xce;" horiz-adv-x="696"
                   d="M7 1581q-7 14 9 35l172 217q16 20 35.5 34.5t46.5 14.5h156q27 0 46.5 -14.5t35.5 -34.5l172 -215q16 -20 10 -34.5t-33 -14.5h-125q-27 0 -47 13t-39 32l-57 55q-18 16 -44 16.5t-44 -18.5l-49 -55q-18 -18 -38.5 -31.5t-47.5 -13.5h-125q-27 0 -34 14zM205 63v1371 q0 27 17.5 45t43.5 18h162q27 0 45.5 -18.5t18.5 -44.5v-1371q0 -27 -18.5 -45t-45.5 -18h-162q-27 0 -44 18.5t-17 44.5z"/>
            <glyph unicode="&#xcf;" horiz-adv-x="696"
                   d="M0 1729q0 59 41 99t100 40t98.5 -40t39.5 -99t-39 -98.5t-99 -39.5q-59 0 -100 39.5t-41 98.5zM205 63v1371q0 27 17.5 45t43.5 18h162q27 0 45.5 -18.5t18.5 -44.5v-1371q0 -27 -18.5 -45t-45.5 -18h-162q-27 0 -44 18.5t-17 44.5zM418 1729q0 59 40 99t99 40t99 -40 t40 -99t-40 -98.5t-99 -39.5t-99 39.5t-40 98.5z"/>
            <glyph unicode="&#xd0;" horiz-adv-x="1671"
                   d="M61 680v127q0 27 18.5 45t45.5 18h41q27 0 44 18.5t17 45.5v502q0 27 18.5 45t45.5 18h528q317 0 529 -188q53 -51 95 -110.5t70 -131.5q55 -145 56 -319q0 -178 -56 -320q-29 -72 -70.5 -132t-94.5 -112q-104 -94 -236 -139q-135 -47 -293 -47h-528q-27 0 -45.5 18.5 t-18.5 44.5v490q0 27 -17 45t-44 18h-41q-27 0 -45.5 18.5t-18.5 45.5zM514 317q0 -27 18.5 -45t45.5 -18h241q82 0 162 18q82 18 149 74q66 53 109 150q43 94 43 252q0 156 -43 253q-45 98 -111 150q-70 53 -149 72q-80 18 -160 18h-241q-27 0 -45.5 -18.5t-18.5 -44.5 v-244q0 -27 18.5 -45.5t45.5 -18.5h133q27 0 44 -18t17 -45v-127q0 -27 -17 -45.5t-44 -18.5h-133q-27 0 -45.5 -18t-18.5 -45v-236z"/>
            <glyph unicode="&#xd1;" horiz-adv-x="1630"
                   d="M164 63v1401q0 27 25.5 32t43.5 -11l900 -850q20 -18 33.5 -12t13.5 32v779q0 27 18.5 45t44.5 18h160q27 0 45 -18.5t18 -44.5v-1399q0 -27 -25.5 -32t-45.5 11l-897 836q-20 16 -33.5 10t-13.5 -33v-764q0 -27 -18.5 -45t-45.5 -18h-162q-25 0 -43 18.5t-18 44.5z M393 1657q4 10 8.5 18t8.5 19q29 72 88 114.5t135 42.5q63 0 99 -16t63.5 -35.5t54.5 -37t72 -17.5q29 -2 50 9t48 46q8 10 22.5 16.5t38.5 -1.5l74 -29q25 -10 30 -25.5t-1 -31.5q-4 -6 -5 -8.5t-5 -10.5q-14 -33 -46 -65q-41 -47 -90 -72q-12 -6 -36.5 -12.5t-57.5 -6.5 t-68.5 8t-68.5 31q-12 6 -28.5 19.5t-37 26t-44 20.5t-48.5 8q-41 -2 -59.5 -26.5t-28.5 -41.5q-6 -10 -19.5 -18t-39.5 0l-72 25q-27 8 -35 21t-2 30z"/>
            <glyph unicode="&#xd2;" horiz-adv-x="1732"
                   d="M88 750q0 160 61.5 302t167 247.5t247 167t300.5 61.5q162 0 303.5 -61.5t247 -167t166.5 -248t61 -301.5q0 -162 -61 -303.5t-166.5 -247t-247 -167t-303.5 -61.5q-160 0 -301 61.5t-246.5 167t-167 247t-61.5 303.5zM373 750q0 -102 39 -194.5t105.5 -163t155.5 -112.5 t191 -42t191.5 42t156 112.5t105.5 162.5t39 195q0 100 -39 193t-105.5 163t-156 112t-191.5 42t-191 -42t-155.5 -112t-105.5 -163t-39 -193zM576.5 1774.5q3.5 17.5 25.5 27.5l123 53q23 10 46.5 8.5t39.5 -22.5l172 -221q16 -20 9 -34.5t-34 -14.5h-86q-25 0 -45 5 t-41 21l-190 144q-23 16 -19.5 33.5z"/>
            <glyph unicode="&#xd3;" horiz-adv-x="1732"
                   d="M88 750q0 160 61.5 302t167 247.5t247 167t300.5 61.5q162 0 303.5 -61.5t247 -167t166.5 -248t61 -301.5q0 -162 -61 -303.5t-166.5 -247t-247 -167t-303.5 -61.5q-160 0 -301 61.5t-246.5 167t-167 247t-61.5 303.5zM373 750q0 -102 39 -194.5t105.5 -163t155.5 -112.5 t191 -42t191.5 42t156 112.5t105.5 162.5t39 195q0 100 -39 193t-105.5 163t-156 112t-191.5 42t-191 -42t-155.5 -112t-105.5 -163t-39 -193zM718 1585q-7 14 9 35l172 221q16 20 39.5 22t46.5 -8l123 -53q23 -10 26 -27.5t-20 -33.5l-190 -144q-20 -16 -41 -21t-45 -5h-86 q-27 0 -34 14z"/>
            <glyph unicode="&#xd4;" horiz-adv-x="1732"
                   d="M88 750q0 160 61.5 302t167 247.5t247 167t300.5 61.5q162 0 303.5 -61.5t247 -167t166.5 -248t61 -301.5q0 -162 -61 -303.5t-166.5 -247t-247 -167t-303.5 -61.5q-160 0 -301 61.5t-246.5 167t-167 247t-61.5 303.5zM373 750q0 -102 39 -194.5t105.5 -163t155.5 -112.5 t191 -42t191.5 42t156 112.5t105.5 162.5t39 195q0 100 -39 193t-105.5 163t-156 112t-191.5 42t-191 -42t-155.5 -112t-105.5 -163t-39 -193zM525 1581q-7 14 10 35l172 217q16 20 35 34.5t46 14.5h156q27 0 46.5 -14.5t35.5 -34.5l172 -215q16 -20 10 -34.5t-32 -14.5 h-125q-27 0 -47.5 13t-38.5 32l-58 55q-18 16 -43.5 16.5t-44.5 -18.5l-49 -55q-18 -18 -38.5 -31.5t-47.5 -13.5h-125q-27 0 -34 14z"/>
            <glyph unicode="&#xd5;" horiz-adv-x="1732"
                   d="M88 750q0 160 61.5 302t167 247.5t247 167t300.5 61.5q162 0 303.5 -61.5t247 -167t166.5 -248t61 -301.5q0 -162 -61 -303.5t-166.5 -247t-247 -167t-303.5 -61.5q-160 0 -301 61.5t-246.5 167t-167 247t-61.5 303.5zM373 750q0 -102 39 -194.5t105.5 -163t155.5 -112.5 t191 -42t191.5 42t156 112.5t105.5 162.5t39 195q0 100 -39 193t-105.5 163t-156 112t-191.5 42t-191 -42t-155.5 -112t-105.5 -163t-39 -193zM467 1657q4 10 8 18t8 19q29 72 88.5 114.5t135.5 42.5q63 0 99 -16t63.5 -35.5t54 -37t71.5 -17.5q29 -2 50.5 9t48.5 46 q8 10 22 16.5t39 -1.5l74 -29q25 -10 30 -25.5t-2 -31.5q-4 -6 -5 -8.5t-5 -10.5q-14 -33 -45 -65q-41 -47 -90 -72q-12 -6 -36.5 -12.5t-57.5 -6.5t-68.5 8t-68.5 31q-12 6 -28.5 19.5t-37 26t-44 20.5t-48.5 8q-41 -2 -59.5 -26.5t-28.5 -41.5q-6 -10 -19.5 -18t-40.5 0 l-71 25q-27 8 -35 21t-2 30z"/>
            <glyph unicode="&#xd6;" horiz-adv-x="1732"
                   d="M88 750q0 160 61.5 302t167 247.5t247 167t300.5 61.5q162 0 303.5 -61.5t247 -167t166.5 -248t61 -301.5q0 -162 -61 -303.5t-166.5 -247t-247 -167t-303.5 -61.5q-160 0 -301 61.5t-246.5 167t-167 247t-61.5 303.5zM373 750q0 -102 39 -194.5t105.5 -163t155.5 -112.5 t191 -42t191.5 42t156 112.5t105.5 162.5t39 195q0 100 -39 193t-105.5 163t-156 112t-191.5 42t-191 -42t-155.5 -112t-105.5 -163t-39 -193zM516 1729q0 59 41 99t100 40t98.5 -40t39.5 -99t-39 -98.5t-99 -39.5q-59 0 -100 39.5t-41 98.5zM934 1729q0 59 40 99t99 40 t99 -40t40 -99t-39.5 -98.5t-99.5 -39.5q-59 0 -99 39.5t-40 98.5z"/>
            <glyph unicode="&#xd7;" horiz-adv-x="1032"
                   d="M78 1042q0 27 18 45l109 107q18 16 43.5 16t44.5 -18l174 -170q18 -18 44 -18t44 18l178 174q18 16 44 16t44 -18l109 -104q18 -18 18 -45.5t-18 -45.5l-178 -174q-18 -18 -18.5 -44.5t18.5 -45.5l176 -176q18 -18 18 -45t-18 -45l-109 -104q-18 -18 -43.5 -18.5 t-44.5 18.5l-176 174q-18 18 -44 18t-44 -18l-174 -172q-18 -18 -44 -18.5t-44 18.5l-107 106q-18 18 -18 45t18 45l174 172q18 18 18.5 45t-18.5 45l-176 172q-18 18 -18 45z"/>
            <glyph unicode="&#xd8;" horiz-adv-x="1732"
                   d="M88 750q0 158 62 303q61 139 165 247q109 104 248 166q141 61 301 62q119 0 230 -35q78 -25 151 -66q23 -12 50.5 -8t43.5 23l43 49q16 20 42 21t46 -15l62 -55q18 -16 20 -42t-16 -46l-43 -49q-16 -20 -17 -47t15 -50q63 -86 100 -184q51 -127 51 -274q0 -162 -61 -304 q-61 -143 -168 -245q-102 -106 -246 -168q-141 -61 -303 -62q-119 0 -229 35q-41 10 -77 26.5t-71 35.5q-23 12 -50 9t-46 -24l-47 -53q-16 -20 -43 -21t-45 15l-61 53q-20 16 -21.5 42t14.5 46l50 55q16 20 17 47t-15 50q-61 82 -103 186q-49 129 -49 277zM375 750 q0 -82 24 -158q8 -23 16.5 -44.5t20.5 -41.5q12 -23 35 -25t39 19l563 639q18 20 14 43.5t-26 34.5q-92 43 -195 43q-100 0 -192 -41q-88 -43 -156 -113q-33 -35 -59.5 -75t-44.5 -87q-39 -92 -39 -194zM644 313.5q3 -22.5 28 -34.5q16 -6 30.5 -12.5t30.5 -10.5 q63 -18 131 -18q101 0 191 43q90 41 155 112q66 70 107 162q39 96 39 195q0 78 -25 155q-8 23 -16 43.5t-19 40.5q-12 23 -34.5 25t-40.5 -19l-564 -639q-16 -20 -13 -42.5z"/>
            <glyph unicode="&#xd9;" horiz-adv-x="1613"
                   d="M164 604v830q0 27 18.5 45t42.5 18h162q27 0 45.5 -18.5t18.5 -44.5v-828q0 -113 36 -186q37 -72 91 -117q57 -45 116 -59q33 -8 60.5 -12.5t52.5 -4.5q45 0 111 17q63 14 116 59q55 43 92 117t37 186v828q0 27 18.5 45t45.5 18h159q27 0 45.5 -18.5t18.5 -44.5v-830 q0 -72 -11.5 -136.5t-33.5 -123.5q-45 -115 -129 -199q-82 -80 -203 -127q-117 -45 -266 -45t-264 45q-123 47 -203 127q-86 82 -131 199q-45 115 -45 260zM521 1774.5q3 17.5 26 27.5l123 53q23 10 46 8.5t40 -22.5l172 -221q16 -20 9 -34.5t-34 -14.5h-86q-25 0 -45 5 t-41 21l-190 144q-23 16 -20 33.5z"/>
            <glyph unicode="&#xda;" horiz-adv-x="1613"
                   d="M164 604v830q0 27 18.5 45t42.5 18h162q27 0 45.5 -18.5t18.5 -44.5v-828q0 -113 36 -186q37 -72 91 -117q57 -45 116 -59q33 -8 60.5 -12.5t52.5 -4.5q45 0 111 17q63 14 116 59q55 43 92 117t37 186v828q0 27 18.5 45t45.5 18h159q27 0 45.5 -18.5t18.5 -44.5v-830 q0 -72 -11.5 -136.5t-33.5 -123.5q-45 -115 -129 -199q-82 -80 -203 -127q-117 -45 -266 -45t-264 45q-123 47 -203 127q-86 82 -131 199q-45 115 -45 260zM677 1585q-7 14 9 35l172 221q16 20 39.5 22t46.5 -8l123 -53q23 -10 26 -27.5t-20 -33.5l-190 -144 q-20 -16 -41 -21t-45 -5h-86q-27 0 -34 14z"/>
            <glyph unicode="&#xdb;" horiz-adv-x="1613"
                   d="M164 604v830q0 27 18.5 45t42.5 18h162q27 0 45.5 -18.5t18.5 -44.5v-828q0 -113 36 -186q37 -72 91 -117q57 -45 116 -59q33 -8 60.5 -12.5t52.5 -4.5q45 0 111 17q63 14 116 59q55 43 92 117t37 186v828q0 27 18.5 45t45.5 18h159q27 0 45.5 -18.5t18.5 -44.5v-830 q0 -72 -11.5 -136.5t-33.5 -123.5q-45 -115 -129 -199q-82 -80 -203 -127q-117 -45 -266 -45t-264 45q-123 47 -203 127q-86 82 -131 199q-45 115 -45 260zM462 1581q-7 14 9 35l172 217q16 20 35.5 34.5t46.5 14.5h156q27 0 46 -14.5t36 -34.5l172 -215q16 -20 10 -34.5 t-33 -14.5h-125q-27 0 -47 13t-39 32l-57 55q-18 16 -44 16.5t-44 -18.5l-49 -55q-18 -18 -39 -31.5t-47 -13.5h-125q-27 0 -34 14z"/>
            <glyph unicode="&#xdc;" horiz-adv-x="1613"
                   d="M164 604v830q0 27 18.5 45t42.5 18h162q27 0 45.5 -18.5t18.5 -44.5v-828q0 -113 36 -186q37 -72 91 -117q57 -45 116 -59q33 -8 60.5 -12.5t52.5 -4.5q45 0 111 17q63 14 116 59q55 43 92 117t37 186v828q0 27 18.5 45t45.5 18h159q27 0 45.5 -18.5t18.5 -44.5v-830 q0 -72 -11.5 -136.5t-33.5 -123.5q-45 -115 -129 -199q-82 -80 -203 -127q-117 -45 -266 -45t-264 45q-123 47 -203 127q-86 82 -131 199q-45 115 -45 260zM461 1729q0 59 41 99t100 40t98 -40t39 -99t-38.5 -98.5t-98.5 -39.5q-59 0 -100 39.5t-41 98.5zM879 1729 q0 59 39.5 99t99.5 40q59 0 99 -40t40 -99t-40 -98.5t-99 -39.5t-99 39.5t-40 98.5z"/>
            <glyph unicode="&#xdd;" horiz-adv-x="1452"
                   d="M42 1482q9 15 36 15h209q27 0 54.5 -15.5t39.5 -37.5q39 -66 78 -131.5t80 -132.5q39 -68 77.5 -133.5t77.5 -131.5q12 -23 31.5 -22.5t34.5 22.5q14 25 29.5 49.5t31.5 51.5l99 166q25 41 48 82t48 82q16 25 30.5 49t28.5 49q12 23 40 38t54 15h209q27 0 35 -15t-4 -38 q-23 -37 -47.5 -77t-52.5 -85q-37 -59 -75 -120.5t-77 -125.5q-41 -63 -79 -125.5t-74 -122.5q-29 -45 -54.5 -85.5t-48.5 -79.5q-14 -23 -22.5 -58t-8.5 -61v-441q0 -27 -18 -45t-45 -18h-162q-27 0 -44 18.5t-17 44.5v441q0 27 -9.5 61.5t-23.5 57.5q-59 104 -121.5 205.5 t-128.5 203.5q-68 104 -131.5 205.5t-122.5 206.5q-14 23 -5 38zM554 1585q-7 14 9 35l172 221q16 20 39.5 22t46.5 -8l123 -53q23 -10 26 -27.5t-20 -33.5l-190 -144q-20 -16 -41 -21t-45 -5h-86q-27 0 -34 14z"/>
            <glyph unicode="&#xde;" horiz-adv-x="1456"
                   d="M164 63v1373q0 27 18.5 45t44.5 18h162q27 0 44.5 -18.5t17.5 -44.5v-93q0 -27 18 -45t45 -18h317q109 0 207 -41q49 -23 91 -51.5t79 -63.5q35 -37 63.5 -78.5t51.5 -91.5q41 -98 41 -204q0 -109 -41 -207q-23 -49 -51.5 -91t-63.5 -79q-37 -35 -79 -63.5t-91 -49.5 q-96 -43 -207 -43h-317q-27 0 -45 -18.5t-18 -44.5v-91q0 -27 -17.5 -45t-44.5 -18h-162q-27 0 -45 18.5t-18 44.5zM451 535q0 -27 18 -45.5t45 -18.5h317q50 0 97 25q41 23 78 63q31 37 53 88q18 49 18 103q0 51 -18 100q-23 51 -53 88q-31 37 -78 63q-47 25 -97 25h-317 q-27 0 -45 -18.5t-18 -44.5v-428z"/>
            <glyph unicode="&#xdf;" horiz-adv-x="2760"
                   d="M119 1075q0 129 53 219q51 84 135 138q80 47 185 69q96 20 196 21q94 0 168 -13q37 -6 71 -15t66 -19q33 -12 63.5 -27.5t59.5 -32.5q20 -12 39 -24.5t41 -24.5q23 -16 27 -41t-13 -47l-86 -123q-16 -23 -41.5 -27t-48.5 11q-80 51 -151 78q-96 39 -207 38q-18 0 -40 -2 t-44 -6q-47 -10 -90 -30q-20 -10 -38 -22.5t-32 -29.5q-27 -33 -26 -78q0 -45 32 -75q33 -31 84 -51q27 -10 54.5 -18.5t58.5 -16.5t60.5 -14.5t58.5 -14.5q23 -4 47 -10t53 -10t59.5 -11.5t61.5 -17.5q16 -4 33.5 -10.5t33.5 -12.5q25 -10 56.5 -26.5t54.5 -32.5 q16 -10 29.5 -21.5t25.5 -23.5q51 -51 78 -119q31 -72 31 -172q0 -115 -41 -203q-41 -86 -117 -141q-78 -59 -180 -86q-109 -29 -231 -29q-119 0 -207 19q-84 14 -162 47q-37 14 -72 31.5t-67 37.5q-20 12 -41 25.5t-43 30.5q-23 14 -27 38.5t10 47.5l86 127q14 23 39 27 t47 -11q92 -57 181 -98q117 -57 251 -57q70 0 123 18q49 14 90 45q37 29 56 63q18 33 18 70q0 43 -29 78q-27 29 -73 51q-23 10 -49.5 18.5t-59.5 16.5q-31 8 -62.5 14t-66.5 13q-23 4 -49.5 9t-54.5 11q-59 8 -123 31q-66 18 -125 51q-61 31 -111 80q-49 45 -80 115 q-29 68 -28 155zM1483 1075q0 129 53 219q51 84 135 138q80 47 184 69q96 20 197 21q94 0 168 -13q37 -6 70.5 -15t66.5 -19q33 -12 63.5 -27.5t59.5 -32.5q20 -12 38.5 -24.5t41.5 -24.5q23 -16 27 -41t-13 -47l-86 -123q-16 -23 -41.5 -27t-48.5 11q-80 51 -151 78 q-96 39 -207 38q-18 0 -40 -2t-44 -6q-47 -10 -90 -30q-20 -10 -38 -22.5t-32 -29.5q-27 -33 -27 -78t33 -75q33 -31 84 -51q27 -10 54.5 -18.5t58.5 -16.5t60.5 -14.5t58.5 -14.5q23 -4 47 -10t53 -10t59.5 -11.5t61.5 -17.5q16 -4 33.5 -10.5t33.5 -12.5 q25 -10 56.5 -26.5t54.5 -32.5q16 -10 29.5 -21.5t25.5 -23.5q51 -51 78 -119q31 -72 31 -172q0 -115 -41 -203q-41 -86 -117 -141q-78 -59 -180 -86q-109 -29 -232 -29q-119 0 -206 19q-84 14 -162 47q-37 14 -72 31.5t-67 37.5q-20 12 -41 25.5t-43 30.5q-23 14 -27 38.5 t10 47.5l86 127q14 23 39 27t47 -11q92 -57 180 -98q117 -57 252 -57q70 0 123 18q49 14 90 45q37 29 56 63q18 33 18 70q0 43 -29 78q-27 29 -73 51q-23 10 -49.5 18.5t-59.5 16.5q-31 8 -62.5 14t-66.5 13q-23 4 -49.5 9t-54.5 11q-59 8 -123 31q-66 18 -125 51 q-61 31 -111 80q-49 45 -80 115q-29 68 -28 155z"/>
            <glyph unicode="&#xe0;"
                   d="M40 16q-9 16 1 39l711 1420q12 25 40.5 24.5t41.5 -24.5l710 -1420q12 -23 3 -39t-36 -16h-186q-27 0 -53.5 16.5t-36.5 40.5l-61 123q-12 23 -38 39.5t-53 16.5h-581q-27 0 -53.5 -16.5t-36.5 -41.5l-60 -121q-12 -25 -37.5 -41t-52.5 -16h-186q-27 0 -36 16z M441 1774.5q3 17.5 26 27.5l123 53q23 10 46 8.5t40 -22.5l172 -221q16 -20 9 -34.5t-34 -14.5h-86q-25 0 -45 5t-41 21l-190 144q-23 16 -20 33.5zM604 501.5q10 -16.5 37 -16.5h303q27 0 36 17.5t-1 40.5l-160 338q-10 25 -26.5 24.5t-26.5 -24.5l-162 -338 q-10 -25 0 -41.5z"/>
            <glyph unicode="&#xe1;"
                   d="M40 16q-9 16 1 39l711 1420q12 25 40.5 24.5t41.5 -24.5l710 -1420q12 -23 3 -39t-36 -16h-186q-27 0 -53.5 16.5t-36.5 40.5l-61 123q-12 23 -38 39.5t-53 16.5h-581q-27 0 -53.5 -16.5t-36.5 -41.5l-60 -121q-12 -25 -37.5 -41t-52.5 -16h-186q-27 0 -36 16zM604 501.5 q10 -16.5 37 -16.5h303q27 0 36 17.5t-1 40.5l-160 338q-10 25 -26.5 24.5t-26.5 -24.5l-162 -338q-10 -25 0 -41.5zM726 1585q-7 14 9 35l172 221q16 20 39.5 22t46.5 -8l123 -53q23 -10 26 -27.5t-20 -33.5l-190 -144q-20 -16 -41 -21t-45 -5h-86q-27 0 -34 14z"/>
            <glyph unicode="&#xe2;"
                   d="M40 16q-9 16 1 39l711 1420q12 25 40.5 24.5t41.5 -24.5l710 -1420q12 -23 3 -39t-36 -16h-186q-27 0 -53.5 16.5t-36.5 40.5l-61 123q-12 23 -38 39.5t-53 16.5h-581q-27 0 -53.5 -16.5t-36.5 -41.5l-60 -121q-12 -25 -37.5 -41t-52.5 -16h-186q-27 0 -36 16zM449 1581 q-7 14 10 35l172 217q16 20 35.5 34.5t46.5 14.5h155q27 0 46.5 -14.5t35.5 -34.5l172 -215q16 -20 10 -34.5t-32 -14.5h-125q-27 0 -47.5 13t-38.5 32l-58 55q-18 16 -43.5 16.5t-44.5 -18.5l-49 -55q-18 -18 -38.5 -31.5t-47.5 -13.5h-125q-27 0 -34 14zM604 501.5 q10 -16.5 37 -16.5h303q27 0 36 17.5t-1 40.5l-160 338q-10 25 -26.5 24.5t-26.5 -24.5l-162 -338q-10 -25 0 -41.5z"/>
            <glyph unicode="&#xe3;"
                   d="M40 16q-9 16 1 39l711 1420q12 25 40.5 24.5t41.5 -24.5l710 -1420q12 -23 3 -39t-36 -16h-186q-27 0 -53.5 16.5t-36.5 40.5l-61 123q-12 23 -38 39.5t-53 16.5h-581q-27 0 -53.5 -16.5t-36.5 -41.5l-60 -121q-12 -25 -37.5 -41t-52.5 -16h-186q-27 0 -36 16zM408 1657 q4 10 8 18t8 19q29 72 88 114.5t135 42.5q63 0 99 -16t64 -35.5t54.5 -37t71.5 -17.5q29 -2 50.5 9t47.5 46q8 10 22.5 16.5t39.5 -1.5l73 -29q25 -10 30 -25.5t-1 -31.5q-4 -6 -5 -8.5t-5 -10.5q-14 -33 -45 -65q-41 -47 -90 -72q-12 -6 -37 -12.5t-57.5 -6.5t-68.5 8 t-69 31q-12 6 -28.5 19.5t-37 26t-44 20.5t-47.5 8q-41 -2 -59.5 -26.5t-29.5 -41.5q-6 -10 -19 -18t-40 0l-72 25q-27 8 -35 21t-1 30zM604 501.5q10 -16.5 37 -16.5h303q27 0 36 17.5t-1 40.5l-160 338q-10 25 -26.5 24.5t-26.5 -24.5l-162 -338q-10 -25 0 -41.5z"/>
            <glyph unicode="&#xe4;"
                   d="M40 16q-9 16 1 39l711 1420q12 25 40.5 24.5t41.5 -24.5l710 -1420q12 -23 3 -39t-36 -16h-186q-27 0 -53.5 16.5t-36.5 40.5l-61 123q-12 23 -38 39.5t-53 16.5h-581q-27 0 -53.5 -16.5t-36.5 -41.5l-60 -121q-12 -25 -37.5 -41t-52.5 -16h-186q-27 0 -36 16zM444 1708 q0 59 41 99t101 40q59 0 98 -40t39 -99t-39 -98t-98 -39t-100.5 39t-41.5 98zM604 501.5q10 -16.5 37 -16.5h303q27 0 36 17.5t-1 40.5l-160 338q-10 25 -26.5 24.5t-26.5 -24.5l-162 -338q-10 -25 0 -41.5zM862 1708q0 59 40 99t99 40t99.5 -40t40.5 -99t-40 -98t-100 -39 q-59 0 -99 39t-40 98z"/>
            <glyph unicode="&#xe5;"
                   d="M40 16q-9 16 1 39l690 1381q-70 20 -115 77.5t-45 135.5q0 45 17.5 85t47.5 69.5t69.5 47t87.5 17.5q45 0 85 -17.5t69.5 -47t47 -69.5t17.5 -85q0 -78 -45 -135.5t-115 -77.5l692 -1381q12 -23 3 -39t-36 -16h-186q-27 0 -53.5 16.5t-36.5 40.5l-61 123q-12 23 -38 39.5 t-53 16.5h-581q-27 0 -53.5 -16.5t-36.5 -41.5l-60 -121q-12 -25 -37.5 -41t-52.5 -16h-186q-27 0 -36 16zM604 501.5q10 -16.5 37 -16.5h303q27 0 36 17.5t-1 40.5l-160 338q-10 25 -26.5 24.5t-26.5 -24.5l-162 -338q-10 -25 0 -41.5zM709 1649q0 -35 24.5 -59.5 t59.5 -24.5t58 24.5t23 59.5t-23 58.5t-58 23.5t-59.5 -24t-24.5 -58z"/>
            <glyph unicode="&#xe6;" horiz-adv-x="2174"
                   d="M4 15.5q-8 15.5 6 37.5l920 1395q14 23 42.5 38t55.5 15h950q27 0 45.5 -18.5t18.5 -44.5v-131q0 -27 -18.5 -45.5t-45.5 -18.5h-690q-27 0 -45 -18t-18 -45v-244q0 -27 18.5 -45.5t44.5 -18.5h598q27 0 45.5 -18t18.5 -45v-135q0 -27 -18.5 -45.5t-45.5 -18.5h-598 q-27 0 -45 -18.5t-18 -44.5v-223q0 -27 18.5 -45.5t44.5 -18.5h690q27 0 45.5 -18.5t18.5 -44.5v-134q0 -27 -18.5 -45t-45.5 -18h-977q-27 0 -45 18.5t-18 44.5v125q0 27 -18.5 45.5t-45.5 18.5h-346q-27 0 -55.5 -15.5t-42.5 -37.5l-96 -146q-14 -23 -43 -38t-55 -15h-197 q-27 0 -35 15.5zM659 521q9 -15 35 -15h180q27 0 45.5 18.5t18.5 44.5v359q0 27 -9.5 30t-23.5 -20l-241 -379q-14 -23 -5 -38z"/>
            <glyph unicode="&#xe7;" horiz-adv-x="1593"
                   d="M82 748q0 160 61 301q61 139 166 247q109 104 248 166q141 61 301 62q104 0 209 -29q102 -29 188 -80q45 -27 85 -58.5t75 -66.5q51 -53 88 -108q14 -23 6 -44.5t-32 -31.5l-152 -62q-23 -10 -50.5 -2.5t-43.5 27.5l-41 43q-23 23 -46.5 41t-49.5 35q-27 16 -55.5 28.5 t-57.5 22.5q-59 18 -123 18q-100 0 -192 -40q-90 -43 -154 -113q-66 -72 -104 -162q-39 -92 -39 -194q0 -104 39 -195q39 -90 104 -162q63 -72 154 -110q88 -43 192 -43q63 0 123 18q29 10 57.5 22.5t55.5 28.5t50 35.5t46 42.5l41 43q16 20 44 28.5t50 -1.5l152 -62 q25 -10 33 -32.5t-7 -45.5q-20 -29 -41.5 -56.5t-46.5 -51.5q-68 -72 -160 -125q-43 -27 -90 -47.5t-98 -34.5q-37 -10 -75 -16.5t-77 -10.5q-12 -4 -14 -14q-8 -29 -3 -32t9 -3q12 2 27.5 -1t32.5 -7q110 -39 104 -164q-6 -63 -33 -96q-31 -37 -61 -51q-59 -27 -111.5 -22 t-77.5 9q-16 4 -37.5 12.5t-31.5 14.5q-20 12 -14 43q2 6 8 19.5t8 17.5q12 23 22.5 28t26.5 -6q6 -4 14.5 -5t20.5 -5q31 -6 57.5 -3t42.5 13q23 12 23 39t-27 41q-18 12 -37.5 13.5t-37 -3t-30 -9.5t-14.5 -7q-12 -4 -26.5 -1t-18.5 13q-10 14 8 82l21 74q4 14 -14 17 q-100 12 -195 53q-141 61 -248 168q-104 104 -166 245q-61 141 -61 302z"/>
            <glyph unicode="&#xe8;" horiz-adv-x="1398"
                   d="M164 63v1373q0 27 18.5 45t44.5 18h977q27 0 45.5 -18.5t18.5 -44.5v-127q0 -27 -18.5 -45.5t-45.5 -18.5h-690q-27 0 -45 -18t-18 -45v-248q0 -27 18 -45.5t45 -18.5h598q27 0 45.5 -18t18.5 -45v-133q0 -27 -18.5 -45.5t-45.5 -18.5h-598q-27 0 -45 -18.5t-18 -44.5 v-225q0 -27 18 -45.5t45 -18.5h690q27 0 45.5 -18.5t18.5 -44.5v-132q0 -27 -18.5 -45t-45.5 -18h-977q-27 0 -45 18.5t-18 44.5zM451.5 1774.5q3.5 17.5 25.5 27.5l123 53q23 10 46.5 8.5t39.5 -22.5l172 -221q16 -20 9 -34.5t-33 -14.5h-86q-25 0 -45.5 5t-40.5 21 l-191 144q-23 16 -19.5 33.5z"/>
            <glyph unicode="&#xe9;" horiz-adv-x="1398"
                   d="M164 63v1373q0 27 18.5 45t44.5 18h977q27 0 45.5 -18.5t18.5 -44.5v-127q0 -27 -18.5 -45.5t-45.5 -18.5h-690q-27 0 -45 -18t-18 -45v-248q0 -27 18 -45.5t45 -18.5h598q27 0 45.5 -18t18.5 -45v-133q0 -27 -18.5 -45.5t-45.5 -18.5h-598q-27 0 -45 -18.5t-18 -44.5 v-225q0 -27 18 -45.5t45 -18.5h690q27 0 45.5 -18.5t18.5 -44.5v-132q0 -27 -18.5 -45t-45.5 -18h-977q-27 0 -45 18.5t-18 44.5zM554 1585q-7 14 9 35l172 221q16 20 39.5 22t46.5 -8l123 -53q23 -10 26 -27.5t-20 -33.5l-190 -144q-20 -16 -41 -21t-45 -5h-86 q-27 0 -34 14z"/>
            <glyph unicode="&#xea;" horiz-adv-x="1398"
                   d="M164 63v1373q0 27 18.5 45t44.5 18h977q27 0 45.5 -18.5t18.5 -44.5v-127q0 -27 -18.5 -45.5t-45.5 -18.5h-690q-27 0 -45 -18t-18 -45v-248q0 -27 18 -45.5t45 -18.5h598q27 0 45.5 -18t18.5 -45v-133q0 -27 -18.5 -45.5t-45.5 -18.5h-598q-27 0 -45 -18.5t-18 -44.5 v-225q0 -27 18 -45.5t45 -18.5h690q27 0 45.5 -18.5t18.5 -44.5v-132q0 -27 -18.5 -45t-45.5 -18h-977q-27 0 -45 18.5t-18 44.5zM376 1581q-7 14 9 35l172 217q16 20 35.5 34.5t46.5 14.5h156q27 0 46 -14.5t36 -34.5l172 -215q16 -20 10 -34.5t-33 -14.5h-125 q-27 0 -47 13t-39 32l-57 55q-18 16 -44 16.5t-44 -18.5l-49 -55q-18 -18 -39 -31.5t-47 -13.5h-125q-27 0 -34 14z"/>
            <glyph unicode="&#xeb;" horiz-adv-x="1398"
                   d="M164 63v1373q0 27 18.5 45t44.5 18h977q27 0 45.5 -18.5t18.5 -44.5v-127q0 -27 -18.5 -45.5t-45.5 -18.5h-690q-27 0 -45 -18t-18 -45v-248q0 -27 18 -45.5t45 -18.5h598q27 0 45.5 -18t18.5 -45v-133q0 -27 -18.5 -45.5t-45.5 -18.5h-598q-27 0 -45 -18.5t-18 -44.5 v-225q0 -27 18 -45.5t45 -18.5h690q27 0 45.5 -18.5t18.5 -44.5v-132q0 -27 -18.5 -45t-45.5 -18h-977q-27 0 -45 18.5t-18 44.5zM373 1729q0 59 41 99t100 40t98 -40t39 -99t-39 -98.5t-98 -39.5t-100 39.5t-41 98.5zM791 1729q0 59 39.5 99t99.5 40q59 0 99 -40t40 -99 t-40 -98.5t-99 -39.5t-99 39.5t-40 98.5z"/>
            <glyph unicode="&#xec;" horiz-adv-x="696"
                   d="M41.5 1774.5q3.5 17.5 26.5 27.5l122 53q23 10 46.5 8.5t39.5 -22.5l173 -221q16 -20 9 -34.5t-34 -14.5h-86q-25 0 -45.5 5t-40.5 21l-191 144q-23 16 -19.5 33.5zM205 63v1371q0 27 17.5 45t43.5 18h162q27 0 45.5 -18.5t18.5 -44.5v-1371q0 -27 -18.5 -45t-45.5 -18 h-162q-27 0 -44 18.5t-17 44.5z"/>
            <glyph unicode="&#xed;" horiz-adv-x="696"
                   d="M205 63v1371q0 27 17.5 45t43.5 18h162q27 0 45.5 -18.5t18.5 -44.5v-1371q0 -27 -18.5 -45t-45.5 -18h-162q-27 0 -44 18.5t-17 44.5zM234 1585q-7 14 10 35l172 221q16 20 39.5 22t46.5 -8l123 -53q23 -10 25.5 -27.5t-19.5 -33.5l-191 -144q-20 -16 -40.5 -21 t-45.5 -5h-86q-27 0 -34 14z"/>
            <glyph unicode="&#xee;" horiz-adv-x="696"
                   d="M7 1581q-7 14 9 35l172 217q16 20 35.5 34.5t46.5 14.5h156q27 0 46.5 -14.5t35.5 -34.5l172 -215q16 -20 10 -34.5t-33 -14.5h-125q-27 0 -47 13t-39 32l-57 55q-18 16 -44 16.5t-44 -18.5l-49 -55q-18 -18 -38.5 -31.5t-47.5 -13.5h-125q-27 0 -34 14zM205 63v1371 q0 27 17.5 45t43.5 18h162q27 0 45.5 -18.5t18.5 -44.5v-1371q0 -27 -18.5 -45t-45.5 -18h-162q-27 0 -44 18.5t-17 44.5z"/>
            <glyph unicode="&#xef;" horiz-adv-x="696"
                   d="M0 1729q0 59 41 99t100 40t98.5 -40t39.5 -99t-39 -98.5t-99 -39.5q-59 0 -100 39.5t-41 98.5zM205 63v1371q0 27 17.5 45t43.5 18h162q27 0 45.5 -18.5t18.5 -44.5v-1371q0 -27 -18.5 -45t-45.5 -18h-162q-27 0 -44 18.5t-17 44.5zM418 1729q0 59 40 99t99 40t99 -40 t40 -99t-40 -98.5t-99 -39.5t-99 39.5t-40 98.5z"/>
            <glyph unicode="&#xf0;" horiz-adv-x="1671"
                   d="M61 680v127q0 27 18.5 45t45.5 18h41q27 0 44 18.5t17 45.5v502q0 27 18.5 45t45.5 18h528q317 0 529 -188q53 -51 95 -110.5t70 -131.5q55 -145 56 -319q0 -178 -56 -320q-29 -72 -70.5 -132t-94.5 -112q-104 -94 -236 -139q-135 -47 -293 -47h-528q-27 0 -45.5 18.5 t-18.5 44.5v490q0 27 -17 45t-44 18h-41q-27 0 -45.5 18.5t-18.5 45.5zM514 317q0 -27 18.5 -45t45.5 -18h241q82 0 162 18q82 18 149 74q66 53 109 150q43 94 43 252q0 156 -43 253q-45 98 -111 150q-70 53 -149 72q-80 18 -160 18h-241q-27 0 -45.5 -18.5t-18.5 -44.5 v-244q0 -27 18.5 -45.5t45.5 -18.5h133q27 0 44 -18t17 -45v-127q0 -27 -17 -45.5t-44 -18.5h-133q-27 0 -45.5 -18t-18.5 -45v-236z"/>
            <glyph unicode="&#xf1;" horiz-adv-x="1630"
                   d="M164 63v1401q0 27 25.5 32t43.5 -11l900 -850q20 -18 33.5 -12t13.5 32v779q0 27 18.5 45t44.5 18h160q27 0 45 -18.5t18 -44.5v-1399q0 -27 -25.5 -32t-45.5 11l-897 836q-20 16 -33.5 10t-13.5 -33v-764q0 -27 -18.5 -45t-45.5 -18h-162q-25 0 -43 18.5t-18 44.5z M393 1657q4 10 8.5 18t8.5 19q29 72 88 114.5t135 42.5q63 0 99 -16t63.5 -35.5t54.5 -37t72 -17.5q29 -2 50 9t48 46q8 10 22.5 16.5t38.5 -1.5l74 -29q25 -10 30 -25.5t-1 -31.5q-4 -6 -5 -8.5t-5 -10.5q-14 -33 -46 -65q-41 -47 -90 -72q-12 -6 -36.5 -12.5t-57.5 -6.5 t-68.5 8t-68.5 31q-12 6 -28.5 19.5t-37 26t-44 20.5t-48.5 8q-41 -2 -59.5 -26.5t-28.5 -41.5q-6 -10 -19.5 -18t-39.5 0l-72 25q-27 8 -35 21t-2 30z"/>
            <glyph unicode="&#xf2;" horiz-adv-x="1732"
                   d="M88 750q0 160 61.5 302t167 247.5t247 167t300.5 61.5q162 0 303.5 -61.5t247 -167t166.5 -248t61 -301.5q0 -162 -61 -303.5t-166.5 -247t-247 -167t-303.5 -61.5q-160 0 -301 61.5t-246.5 167t-167 247t-61.5 303.5zM373 750q0 -102 39 -194.5t105.5 -163t155.5 -112.5 t191 -42t191.5 42t156 112.5t105.5 162.5t39 195q0 100 -39 193t-105.5 163t-156 112t-191.5 42t-191 -42t-155.5 -112t-105.5 -163t-39 -193zM576.5 1774.5q3.5 17.5 25.5 27.5l123 53q23 10 46.5 8.5t39.5 -22.5l172 -221q16 -20 9 -34.5t-34 -14.5h-86q-25 0 -45 5 t-41 21l-190 144q-23 16 -19.5 33.5z"/>
            <glyph unicode="&#xf3;" horiz-adv-x="1732"
                   d="M88 750q0 160 61.5 302t167 247.5t247 167t300.5 61.5q162 0 303.5 -61.5t247 -167t166.5 -248t61 -301.5q0 -162 -61 -303.5t-166.5 -247t-247 -167t-303.5 -61.5q-160 0 -301 61.5t-246.5 167t-167 247t-61.5 303.5zM373 750q0 -102 39 -194.5t105.5 -163t155.5 -112.5 t191 -42t191.5 42t156 112.5t105.5 162.5t39 195q0 100 -39 193t-105.5 163t-156 112t-191.5 42t-191 -42t-155.5 -112t-105.5 -163t-39 -193zM718 1585q-7 14 9 35l172 221q16 20 39.5 22t46.5 -8l123 -53q23 -10 26 -27.5t-20 -33.5l-190 -144q-20 -16 -41 -21t-45 -5h-86 q-27 0 -34 14z"/>
            <glyph unicode="&#xf4;" horiz-adv-x="1732"
                   d="M88 750q0 160 61.5 302t167 247.5t247 167t300.5 61.5q162 0 303.5 -61.5t247 -167t166.5 -248t61 -301.5q0 -162 -61 -303.5t-166.5 -247t-247 -167t-303.5 -61.5q-160 0 -301 61.5t-246.5 167t-167 247t-61.5 303.5zM373 750q0 -102 39 -194.5t105.5 -163t155.5 -112.5 t191 -42t191.5 42t156 112.5t105.5 162.5t39 195q0 100 -39 193t-105.5 163t-156 112t-191.5 42t-191 -42t-155.5 -112t-105.5 -163t-39 -193zM525 1581q-7 14 10 35l172 217q16 20 35 34.5t46 14.5h156q27 0 46.5 -14.5t35.5 -34.5l172 -215q16 -20 10 -34.5t-32 -14.5 h-125q-27 0 -47.5 13t-38.5 32l-58 55q-18 16 -43.5 16.5t-44.5 -18.5l-49 -55q-18 -18 -38.5 -31.5t-47.5 -13.5h-125q-27 0 -34 14z"/>
            <glyph unicode="&#xf5;" horiz-adv-x="1732"
                   d="M88 750q0 160 61.5 302t167 247.5t247 167t300.5 61.5q162 0 303.5 -61.5t247 -167t166.5 -248t61 -301.5q0 -162 -61 -303.5t-166.5 -247t-247 -167t-303.5 -61.5q-160 0 -301 61.5t-246.5 167t-167 247t-61.5 303.5zM373 750q0 -102 39 -194.5t105.5 -163t155.5 -112.5 t191 -42t191.5 42t156 112.5t105.5 162.5t39 195q0 100 -39 193t-105.5 163t-156 112t-191.5 42t-191 -42t-155.5 -112t-105.5 -163t-39 -193zM467 1657q4 10 8 18t8 19q29 72 88.5 114.5t135.5 42.5q63 0 99 -16t63.5 -35.5t54 -37t71.5 -17.5q29 -2 50.5 9t48.5 46 q8 10 22 16.5t39 -1.5l74 -29q25 -10 30 -25.5t-2 -31.5q-4 -6 -5 -8.5t-5 -10.5q-14 -33 -45 -65q-41 -47 -90 -72q-12 -6 -36.5 -12.5t-57.5 -6.5t-68.5 8t-68.5 31q-12 6 -28.5 19.5t-37 26t-44 20.5t-48.5 8q-41 -2 -59.5 -26.5t-28.5 -41.5q-6 -10 -19.5 -18t-40.5 0 l-71 25q-27 8 -35 21t-2 30z"/>
            <glyph unicode="&#xf6;" horiz-adv-x="1732"
                   d="M88 750q0 160 61.5 302t167 247.5t247 167t300.5 61.5q162 0 303.5 -61.5t247 -167t166.5 -248t61 -301.5q0 -162 -61 -303.5t-166.5 -247t-247 -167t-303.5 -61.5q-160 0 -301 61.5t-246.5 167t-167 247t-61.5 303.5zM373 750q0 -102 39 -194.5t105.5 -163t155.5 -112.5 t191 -42t191.5 42t156 112.5t105.5 162.5t39 195q0 100 -39 193t-105.5 163t-156 112t-191.5 42t-191 -42t-155.5 -112t-105.5 -163t-39 -193zM516 1729q0 59 41 99t100 40t98.5 -40t39.5 -99t-39 -98.5t-99 -39.5q-59 0 -100 39.5t-41 98.5zM934 1729q0 59 40 99t99 40 t99 -40t40 -99t-39.5 -98.5t-99.5 -39.5q-59 0 -99 39.5t-40 98.5z"/>
            <glyph unicode="&#xf7;" horiz-adv-x="1253"
                   d="M100 698v127q0 27 17.5 45.5t44.5 18.5h928q27 0 45 -18.5t18 -45.5v-127q0 -27 -18 -45t-45 -18h-928q-27 0 -44.5 18.5t-17.5 44.5zM483 289q0 61 41 100q45 41 103 41q55 0 100 -41q43 -41 43 -100q0 -61 -43 -101q-43 -43 -100 -43q-59 0 -103 43q-41 39 -41 101z M483 1237q0 61 41 102q45 41 103 41q55 0 100 -41q43 -43 43 -102q0 -61 -43 -100q-43 -43 -100 -43q-59 0 -103 43q-41 39 -41 100z"/>
            <glyph unicode="&#xf8;" horiz-adv-x="1732"
                   d="M88 750q0 158 62 303q61 139 165 247q109 104 248 166q141 61 301 62q119 0 230 -35q78 -25 151 -66q23 -12 50.5 -8t43.5 23l43 49q16 20 42 21t46 -15l62 -55q18 -16 20 -42t-16 -46l-43 -49q-16 -20 -17 -47t15 -50q63 -86 100 -184q51 -127 51 -274q0 -162 -61 -304 q-61 -143 -168 -245q-102 -106 -246 -168q-141 -61 -303 -62q-119 0 -229 35q-41 10 -77 26.5t-71 35.5q-23 12 -50 9t-46 -24l-47 -53q-16 -20 -43 -21t-45 15l-61 53q-20 16 -21.5 42t14.5 46l50 55q16 20 17 47t-15 50q-61 82 -103 186q-49 129 -49 277zM375 750 q0 -82 24 -158q8 -23 16.5 -44.5t20.5 -41.5q12 -23 35 -25t39 19l563 639q18 20 14 43.5t-26 34.5q-92 43 -195 43q-100 0 -192 -41q-88 -43 -156 -113q-33 -35 -59.5 -75t-44.5 -87q-39 -92 -39 -194zM644 313.5q3 -22.5 28 -34.5q16 -6 30.5 -12.5t30.5 -10.5 q63 -18 131 -18q101 0 191 43q90 41 155 112q66 70 107 162q39 96 39 195q0 78 -25 155q-8 23 -16 43.5t-19 40.5q-12 23 -34.5 25t-40.5 -19l-564 -639q-16 -20 -13 -42.5z"/>
            <glyph unicode="&#xf9;" horiz-adv-x="1613"
                   d="M164 604v830q0 27 18.5 45t42.5 18h162q27 0 45.5 -18.5t18.5 -44.5v-828q0 -113 36 -186q37 -72 91 -117q57 -45 116 -59q33 -8 60.5 -12.5t52.5 -4.5q45 0 111 17q63 14 116 59q55 43 92 117t37 186v828q0 27 18.5 45t45.5 18h159q27 0 45.5 -18.5t18.5 -44.5v-830 q0 -72 -11.5 -136.5t-33.5 -123.5q-45 -115 -129 -199q-82 -80 -203 -127q-117 -45 -266 -45t-264 45q-123 47 -203 127q-86 82 -131 199q-45 115 -45 260zM521 1774.5q3 17.5 26 27.5l123 53q23 10 46 8.5t40 -22.5l172 -221q16 -20 9 -34.5t-34 -14.5h-86q-25 0 -45 5 t-41 21l-190 144q-23 16 -20 33.5z"/>
            <glyph unicode="&#xfa;" horiz-adv-x="1613"
                   d="M164 604v830q0 27 18.5 45t42.5 18h162q27 0 45.5 -18.5t18.5 -44.5v-828q0 -113 36 -186q37 -72 91 -117q57 -45 116 -59q33 -8 60.5 -12.5t52.5 -4.5q45 0 111 17q63 14 116 59q55 43 92 117t37 186v828q0 27 18.5 45t45.5 18h159q27 0 45.5 -18.5t18.5 -44.5v-830 q0 -72 -11.5 -136.5t-33.5 -123.5q-45 -115 -129 -199q-82 -80 -203 -127q-117 -45 -266 -45t-264 45q-123 47 -203 127q-86 82 -131 199q-45 115 -45 260zM677 1585q-7 14 9 35l172 221q16 20 39.5 22t46.5 -8l123 -53q23 -10 26 -27.5t-20 -33.5l-190 -144 q-20 -16 -41 -21t-45 -5h-86q-27 0 -34 14z"/>
            <glyph unicode="&#xfb;" horiz-adv-x="1613"
                   d="M164 604v830q0 27 18.5 45t42.5 18h162q27 0 45.5 -18.5t18.5 -44.5v-828q0 -113 36 -186q37 -72 91 -117q57 -45 116 -59q33 -8 60.5 -12.5t52.5 -4.5q45 0 111 17q63 14 116 59q55 43 92 117t37 186v828q0 27 18.5 45t45.5 18h159q27 0 45.5 -18.5t18.5 -44.5v-830 q0 -72 -11.5 -136.5t-33.5 -123.5q-45 -115 -129 -199q-82 -80 -203 -127q-117 -45 -266 -45t-264 45q-123 47 -203 127q-86 82 -131 199q-45 115 -45 260zM462 1581q-7 14 9 35l172 217q16 20 35.5 34.5t46.5 14.5h156q27 0 46 -14.5t36 -34.5l172 -215q16 -20 10 -34.5 t-33 -14.5h-125q-27 0 -47 13t-39 32l-57 55q-18 16 -44 16.5t-44 -18.5l-49 -55q-18 -18 -39 -31.5t-47 -13.5h-125q-27 0 -34 14z"/>
            <glyph unicode="&#xfc;" horiz-adv-x="1613"
                   d="M164 604v830q0 27 18.5 45t42.5 18h162q27 0 45.5 -18.5t18.5 -44.5v-828q0 -113 36 -186q37 -72 91 -117q57 -45 116 -59q33 -8 60.5 -12.5t52.5 -4.5q45 0 111 17q63 14 116 59q55 43 92 117t37 186v828q0 27 18.5 45t45.5 18h159q27 0 45.5 -18.5t18.5 -44.5v-830 q0 -72 -11.5 -136.5t-33.5 -123.5q-45 -115 -129 -199q-82 -80 -203 -127q-117 -45 -266 -45t-264 45q-123 47 -203 127q-86 82 -131 199q-45 115 -45 260zM459 1729q0 59 41 99t100 40t98 -40t39 -99t-39 -98.5t-98 -39.5t-100 39.5t-41 98.5zM877 1729q0 59 39.5 99 t99.5 40q59 0 99 -40t40 -99t-40 -98.5t-99 -39.5t-99 39.5t-40 98.5z"/>
            <glyph unicode="&#xfd;" horiz-adv-x="1452"
                   d="M42 1482q9 15 36 15h209q27 0 54.5 -15.5t39.5 -37.5q39 -66 78 -131.5t80 -132.5q39 -68 77.5 -133.5t77.5 -131.5q12 -23 31.5 -22.5t34.5 22.5q14 25 29.5 49.5t31.5 51.5l99 166q25 41 48 82t48 82q16 25 30.5 49t28.5 49q12 23 40 38t54 15h209q27 0 35 -15t-4 -38 q-23 -37 -47.5 -77t-52.5 -85q-37 -59 -75 -120.5t-77 -125.5q-41 -63 -79 -125.5t-74 -122.5q-29 -45 -54.5 -85.5t-48.5 -79.5q-14 -23 -22.5 -58t-8.5 -61v-441q0 -27 -18 -45t-45 -18h-162q-27 0 -44 18.5t-17 44.5v441q0 27 -9.5 61.5t-23.5 57.5q-59 104 -121.5 205.5 t-128.5 203.5q-68 104 -131.5 205.5t-122.5 206.5q-14 23 -5 38zM554 1585q-7 14 9 35l172 221q16 20 39.5 22t46.5 -8l123 -53q23 -10 26 -27.5t-20 -33.5l-190 -144q-20 -16 -41 -21t-45 -5h-86q-27 0 -34 14z"/>
            <glyph unicode="&#xfe;" horiz-adv-x="1456"
                   d="M164 63v1373q0 27 18.5 45t44.5 18h162q27 0 44.5 -18.5t17.5 -44.5v-93q0 -27 18 -45t45 -18h317q109 0 207 -41q49 -23 91 -51.5t79 -63.5q35 -37 63.5 -78.5t51.5 -91.5q41 -98 41 -204q0 -109 -41 -207q-23 -49 -51.5 -91t-63.5 -79q-37 -35 -79 -63.5t-91 -49.5 q-96 -43 -207 -43h-317q-27 0 -45 -18.5t-18 -44.5v-91q0 -27 -17.5 -45t-44.5 -18h-162q-27 0 -45 18.5t-18 44.5zM451 535q0 -27 18 -45.5t45 -18.5h317q50 0 97 25q41 23 78 63q31 37 53 88q18 49 18 103q0 51 -18 100q-23 51 -53 88q-31 37 -78 63q-47 25 -97 25h-317 q-27 0 -45 -18.5t-18 -44.5v-428z"/>
            <glyph unicode="&#xff;" horiz-adv-x="1452"
                   d="M42 1482q9 15 36 15h209q27 0 54.5 -15.5t39.5 -37.5q39 -66 78 -131.5t80 -132.5q39 -68 77.5 -133.5t77.5 -131.5q12 -23 31.5 -22.5t34.5 22.5q14 25 29.5 49.5t31.5 51.5l99 166q25 41 48 82t48 82q16 25 30.5 49t28.5 49q12 23 40 38t54 15h209q27 0 35 -15t-4 -38 q-23 -37 -47.5 -77t-52.5 -85q-37 -59 -75 -120.5t-77 -125.5q-41 -63 -79 -125.5t-74 -122.5q-29 -45 -54.5 -85.5t-48.5 -79.5q-14 -23 -22.5 -58t-8.5 -61v-441q0 -27 -18 -45t-45 -18h-162q-27 0 -44 18.5t-17 44.5v441q0 27 -9.5 61.5t-23.5 57.5q-59 104 -121.5 205.5 t-128.5 203.5q-68 104 -131.5 205.5t-122.5 206.5q-14 23 -5 38zM383 1720q0 59 41 99.5t100 40.5t98.5 -40t39.5 -100q0 -59 -39 -98t-99 -39q-59 0 -100 39t-41 98zM801 1720q0 59 40 99.5t99 40.5t99 -40t40 -100q0 -59 -40 -98t-99 -39t-99 39t-40 98z"/>
            <glyph unicode="&#x152;" horiz-adv-x="2375"
                   d="M88 750q0 158 62 303q61 139 165 247q86 86 191 140q23 12 56.5 26.5t58.5 22.5q115 39 245 39q72 0 140 -12q18 -4 37.5 -9.5t37.5 -9.5q25 -8 39.5 -9t30.5 3t39.5 6t50.5 2h940q27 0 45.5 -18.5t18.5 -44.5v-127q0 -27 -18.5 -45.5t-45.5 -18.5h-692q-27 0 -44.5 -18 t-17.5 -45v-248q0 -27 17.5 -45.5t44.5 -18.5h600q27 0 45 -18t18 -45v-133q0 -27 -18 -45.5t-45 -18.5h-600q-27 0 -44.5 -18.5t-17.5 -44.5v-225q0 -27 17.5 -45.5t44.5 -18.5h692q27 0 45.5 -18.5t18.5 -44.5v-132q0 -27 -18.5 -45t-45.5 -18h-950q-20 0 -33.5 2t-26 4 t-24.5 3t-29 1q-18 0 -55 -10t-55 -14q-63 -14 -142 -15q-162 0 -303 62q-141 61 -248 168q-104 104 -165 248q-61 141 -62 301zM375 750q0 -127 39 -220q18 -49 44.5 -90t59.5 -75q70 -70 156 -103q88 -37 192 -37q27 0 74 4t91 21.5t77 53.5t33 99v693q0 70 -38 106.5 t-86 52t-92 17.5t-59 2q-106 0 -192 -33t-156 -102q-33 -33 -59.5 -74t-44.5 -90q-39 -96 -39 -225z"/>
            <glyph unicode="&#x153;" horiz-adv-x="2375"
                   d="M88 750q0 158 62 303q61 139 165 247q86 86 191 140q23 12 56.5 26.5t58.5 22.5q115 39 245 39q72 0 140 -12q18 -4 37.5 -9.5t37.5 -9.5q25 -8 39.5 -9t30.5 3t39.5 6t50.5 2h940q27 0 45.5 -18.5t18.5 -44.5v-127q0 -27 -18.5 -45.5t-45.5 -18.5h-692q-27 0 -44.5 -18 t-17.5 -45v-248q0 -27 17.5 -45.5t44.5 -18.5h600q27 0 45 -18t18 -45v-133q0 -27 -18 -45.5t-45 -18.5h-600q-27 0 -44.5 -18.5t-17.5 -44.5v-225q0 -27 17.5 -45.5t44.5 -18.5h692q27 0 45.5 -18.5t18.5 -44.5v-132q0 -27 -18.5 -45t-45.5 -18h-950q-20 0 -33.5 2t-26 4 t-24.5 3t-29 1q-18 0 -55 -10t-55 -14q-63 -14 -142 -15q-162 0 -303 62q-141 61 -248 168q-104 104 -165 248q-61 141 -62 301zM375 750q0 -127 39 -220q18 -49 44.5 -90t59.5 -75q70 -70 156 -103q88 -37 192 -37q27 0 74 4t91 21.5t77 53.5t33 99v693q0 70 -38 106.5 t-86 52t-92 17.5t-59 2q-106 0 -192 -33t-156 -102q-33 -33 -59.5 -74t-44.5 -90q-39 -96 -39 -225z"/>
            <glyph unicode="&#x178;" horiz-adv-x="1452"
                   d="M42 1482q9 15 36 15h209q27 0 54.5 -15.5t39.5 -37.5q39 -66 78 -131.5t80 -132.5q39 -68 77.5 -133.5t77.5 -131.5q12 -23 31.5 -22.5t34.5 22.5q14 25 29.5 49.5t31.5 51.5l99 166q25 41 48 82t48 82q16 25 30.5 49t28.5 49q12 23 40 38t54 15h209q27 0 35 -15t-4 -38 q-23 -37 -47.5 -77t-52.5 -85q-37 -59 -75 -120.5t-77 -125.5q-41 -63 -79 -125.5t-74 -122.5q-29 -45 -54.5 -85.5t-48.5 -79.5q-14 -23 -22.5 -58t-8.5 -61v-441q0 -27 -18 -45t-45 -18h-162q-27 0 -44 18.5t-17 44.5v441q0 27 -9.5 61.5t-23.5 57.5q-59 104 -121.5 205.5 t-128.5 203.5q-68 104 -131.5 205.5t-122.5 206.5q-14 23 -5 38zM383 1720q0 59 41 99.5t100 40.5t98.5 -40t39.5 -100q0 -59 -39 -98t-99 -39q-59 0 -100 39t-41 98zM801 1720q0 59 40 99.5t99 40.5t99 -40t40 -100q0 -59 -40 -98t-99 -39t-99 39t-40 98z"/>
            <glyph unicode="&#x2c6;" horiz-adv-x="882"
                   d="M93 1587.5q-7 14.5 9 34.5l172 217q16 20 35.5 34.5t46.5 14.5h156q27 0 46.5 -14t35.5 -35l172 -215q16 -20 10 -34.5t-33 -14.5h-125q-27 0 -47 13.5t-39 31.5l-57 55q-18 16 -43.5 16.5t-44.5 -18.5l-49 -55q-18 -18 -38.5 -31.5t-47.5 -13.5h-125q-27 0 -34 14.5z "/>
            <glyph unicode="&#x2dc;" horiz-adv-x="968"
                   d="M84 1671q4 10 8 18.5t8 18.5q29 72 88.5 115t135.5 43q63 0 99 -16.5t63.5 -36t54 -37t71.5 -17.5q29 -2 50.5 9.5t48.5 46.5q8 10 22.5 16t38.5 -2l74 -29q25 -10 30 -25.5t-2 -31.5q-4 -6 -5 -8t-5 -11q-14 -33 -45 -65q-41 -47 -90 -72q-12 -6 -36.5 -12t-57.5 -6 t-68.5 8t-68.5 31q-12 6 -28.5 19t-37 25.5t-44 20.5t-48.5 8q-41 -2 -59.5 -26.5t-28.5 -40.5q-6 -10 -19.5 -18.5t-39.5 -0.5l-72 25q-27 8 -35 21.5t-2 29.5z"/>
            <glyph unicode="&#x2000;" horiz-adv-x="944"/>
            <glyph unicode="&#x2001;" horiz-adv-x="1888"/>
            <glyph unicode="&#x2002;" horiz-adv-x="944"/>
            <glyph unicode="&#x2003;" horiz-adv-x="1888"/>
            <glyph unicode="&#x2004;" horiz-adv-x="629"/>
            <glyph unicode="&#x2005;" horiz-adv-x="472"/>
            <glyph unicode="&#x2006;" horiz-adv-x="314"/>
            <glyph unicode="&#x2007;" horiz-adv-x="314"/>
            <glyph unicode="&#x2008;" horiz-adv-x="236"/>
            <glyph unicode="&#x2009;" horiz-adv-x="377"/>
            <glyph unicode="&#x200a;" horiz-adv-x="104"/>
            <glyph unicode="&#x2010;" horiz-adv-x="837"
                   d="M78 709v127q0 27 18.5 45t44.5 18h543q27 0 45.5 -18.5t18.5 -44.5v-127q0 -27 -18.5 -45.5t-45.5 -18.5h-543q-27 0 -45 18.5t-18 45.5z"/>
            <glyph unicode="&#x2011;" horiz-adv-x="837"
                   d="M78 709v127q0 27 18.5 45t44.5 18h543q27 0 45.5 -18.5t18.5 -44.5v-127q0 -27 -18.5 -45.5t-45.5 -18.5h-543q-27 0 -45 18.5t-18 45.5z"/>
            <glyph unicode="&#x2012;" horiz-adv-x="837"
                   d="M78 709v127q0 27 18.5 45t44.5 18h543q27 0 45.5 -18.5t18.5 -44.5v-127q0 -27 -18.5 -45.5t-45.5 -18.5h-543q-27 0 -45 18.5t-18 45.5z"/>
            <glyph unicode="&#x2013;" horiz-adv-x="1011"
                   d="M78 709v127q0 27 18.5 45t44.5 18h723q27 0 44.5 -18.5t17.5 -44.5v-127q0 -27 -17.5 -45.5t-44.5 -18.5h-723q-27 0 -45 18.5t-18 45.5z"/>
            <glyph unicode="&#x2014;" horiz-adv-x="1507"
                   d="M78 709v127q0 27 18.5 45t44.5 18h1213q27 0 45 -18.5t18 -44.5v-127q0 -27 -18 -45.5t-45 -18.5h-1213q-27 0 -45 18.5t-18 45.5z"/>
            <glyph unicode="&#x2018;" horiz-adv-x="503"
                   d="M92 1247q4 33 16.5 61.5t28.5 57.5q33 57 86 100q16 12 32.5 21.5t35.5 19.5q25 10 41 11.5t33 -23.5q10 -16 2.5 -31.5t-35.5 -36.5q-12 -10 -38 -34.5t-34 -44.5t5.5 -35t35.5 -23q29 -12 49 -33q45 -39 49 -102q6 -61 -39 -108q-43 -47 -104 -50q-55 -4 -98 31 q-47 37 -62 94q-12 64 -4 125z"/>
            <glyph unicode="&#x2019;" horiz-adv-x="393"
                   d="M41 1368q-6 61 39 109q43 45 104 49q55 2 99 -31q47 -37 61 -94q12 -64 4 -125q-4 -33 -16.5 -61.5t-28.5 -57.5q-33 -57 -86 -100q-16 -12 -32.5 -21.5t-34.5 -19.5q-25 -10 -41.5 -11t-32.5 23q-10 16 -3 31.5t36 36.5q12 10 37.5 34.5t33.5 45.5q8 20 -5 34.5 t-36 22.5q-29 12 -49 33q-45 39 -49 102z"/>
            <glyph unicode="&#x201a;" horiz-adv-x="430"
                   d="M53 127q-6 61 39 109q43 45 105 49q55 2 98 -31q47 -37 61 -94q12 -64 4 -125q-4 -33 -16 -61.5t-29 -57.5q-33 -57 -86 -100q-16 -12 -32.5 -21.5t-34.5 -19.5q-25 -10 -41.5 -11.5t-32.5 23.5q-10 16 -3 31.5t36 36.5q12 10 37.5 34.5t34.5 44.5q8 20 -5.5 35t-35.5 23 q-29 12 -50 33q-45 39 -49 102z"/>
            <glyph unicode="&#x201c;" horiz-adv-x="919"
                   d="M92 1247q4 33 16.5 61.5t28.5 57.5q33 57 86 100q16 12 32.5 21.5t35.5 19.5q25 10 41 11.5t33 -23.5q10 -16 2.5 -31.5t-35.5 -36.5q-12 -10 -38 -34.5t-34 -44.5t5.5 -35t35.5 -23q29 -12 49 -33q45 -39 49 -102q6 -61 -39 -108q-43 -47 -104 -50q-55 -4 -98 31 q-47 37 -62 94q-12 64 -4 125zM500 1247q4 33 16 61.5t29 57.5q33 57 86 100q16 12 32.5 21.5t34.5 19.5q25 10 41.5 11.5t32.5 -23.5q10 -16 3 -31.5t-36 -36.5q-12 -10 -37.5 -34.5t-33.5 -44.5t5 -35t36 -23q29 -12 49 -33q45 -39 49 -102q6 -61 -39 -108 q-43 -47 -104 -50q-55 -4 -99 31q-47 37 -61 94q-12 64 -4 125z"/>
            <glyph unicode="&#x201d;" horiz-adv-x="802"
                   d="M41 1368q-6 61 39 109q43 45 104 49q55 2 99 -31q47 -37 61 -94q12 -64 4 -125q-4 -33 -16.5 -61.5t-28.5 -57.5q-33 -57 -86 -100q-16 -12 -32.5 -21.5t-34.5 -19.5q-25 -10 -41.5 -11t-32.5 23q-10 16 -3 31.5t36 36.5q12 10 37.5 34.5t33.5 45.5q8 20 -5 34.5 t-36 22.5q-29 12 -49 33q-45 39 -49 102zM449 1368q-6 61 38 109q43 45 105 49q55 2 98 -31q47 -37 62 -94q12 -64 4 -125q-4 -33 -16.5 -61.5t-28.5 -57.5q-33 -57 -86 -100q-16 -12 -33 -21.5t-35 -19.5q-25 -10 -41 -11t-33 23q-10 16 -3 31.5t36 36.5q12 10 38 34.5 t34 45.5q8 20 -5.5 34.5t-35.5 22.5q-29 12 -49 33q-45 39 -49 102z"/>
            <glyph unicode="&#x201e;" horiz-adv-x="802"
                   d="M45 127q-6 61 39 109q43 45 104 49q55 2 99 -31q47 -37 61 -94q12 -64 4 -125q-4 -33 -16 -61.5t-29 -57.5q-33 -57 -86 -100q-16 -12 -32.5 -21.5t-34.5 -19.5q-25 -10 -41.5 -11.5t-32.5 23.5q-10 16 -3 31.5t36 36.5q12 10 37.5 34.5t33.5 44.5t-5 35t-36 23 q-29 12 -49 33q-45 39 -49 102zM453 127q-6 61 39 109q43 45 104 49q55 2 98 -31q47 -37 62 -94q12 -64 4 -125q-4 -33 -16.5 -61.5t-28.5 -57.5q-33 -57 -86 -100q-16 -12 -32.5 -21.5t-35.5 -19.5q-25 -10 -41 -11.5t-33 23.5q-10 16 -2.5 31.5t35.5 36.5q12 10 38 34.5 t34 44.5t-5.5 35t-35.5 23q-29 12 -49 33q-45 39 -49 102z"/>
            <glyph unicode="&#x2022;" horiz-adv-x="741"
                   d="M139 829q0 47 18.5 89.5t50.5 74t74 50t89 18.5t89 -18.5t73.5 -50t50 -73.5t18.5 -90q0 -47 -18.5 -89t-50 -73.5t-73.5 -50t-89 -18.5t-89 18.5t-74 50t-50.5 73.5t-18.5 89z"/>
            <glyph unicode="&#x2026;" horiz-adv-x="1433"
                   d="M102 135q0 61 44 105.5t106 44.5q63 0 107 -44.5t44 -105.5q0 -63 -44 -107t-107 -44q-61 0 -105.5 44t-44.5 107zM567 135q0 61 44 105.5t106 44.5q63 0 107 -44.5t44 -105.5q0 -63 -44 -107t-107 -44q-61 0 -105.5 44t-44.5 107zM1032 135q0 61 44 105.5t106 44.5 q63 0 107 -44.5t44 -105.5q0 -63 -44 -107t-107 -44q-61 0 -105.5 44t-44.5 107z"/>
            <glyph unicode="&#x202f;" horiz-adv-x="377"/>
            <glyph unicode="&#x2039;" horiz-adv-x="829"
                   d="M129 751.5q0 30.5 14 53.5l238 373q14 23 42 38t54 15h168q27 0 35 -14.5t-6 -36.5l-248 -375q-16 -23 -16 -52.5t16 -52.5l250 -368q14 -23 6 -38t-35 -15h-172q-27 0 -54.5 15t-41.5 38l-236 366q-14 23 -14 53.5z"/>
            <glyph unicode="&#x203a;" horiz-adv-x="829"
                   d="M139 294q-8 15 6 38l250 368q16 23 16.5 52.5t-16.5 52.5l-248 375q-14 23 -5.5 37t34.5 14h168q27 0 54.5 -15.5t41.5 -37.5l238 -373q14 -23 14 -53.5t-14 -53.5l-236 -366q-14 -23 -41.5 -38t-54.5 -15h-172q-27 0 -35 15z"/>
            <glyph unicode="&#x205f;" horiz-adv-x="472"/>
            <glyph unicode="&#x20ac;" horiz-adv-x="1404"
                   d="M43 561v80q0 27 17.5 45.5t43.5 18.5h41q27 0 35 10t8 22q0 6 1 16.5t1 16.5q0 39 -51 39h-35q-27 0 -44 18.5t-17 44.5v80q0 27 17.5 45.5t43.5 18.5h70q27 0 44.5 17.5t27.5 41.5q23 66 55.5 123t75.5 107q43 53 95 94t112 69q117 55 254 56q131 0 223 -45 q98 -47 160 -101q31 -29 54 -54.5t40 -47.5q14 -20 11 -43t-26 -35l-147 -82q-23 -12 -45.5 -10t-32.5 16t-22.5 29.5t-28.5 32.5q-29 29 -78 55q-49 25 -108 25q-104 0 -185 -68q-59 -53 -98 -123q-12 -23 -2 -40t37 -17h289q27 0 45 -18.5t18 -45.5v-80q0 -27 -18.5 -45 t-44.5 -18h-359q-27 0 -36 -11.5t-9 -29.5v-25q0 -16 7 -27t34 -11h363q27 0 45 -18.5t18 -45.5v-80q0 -27 -18.5 -45t-44.5 -18h-316q-27 0 -40 -14.5t-5 -37.5q6 -12 11.5 -24t13.5 -23q25 -47 65 -86q41 -39 97 -59q57 -23 133 -23q72 0 125 29q49 29 81 64q8 10 15.5 21 t17.5 24q12 20 36 27t48 -3l148 -65q23 -10 30.5 -35t-2.5 -41l-15 -22.5t-25.5 -34l-29 -35t-24.5 -27.5q-23 -23 -47.5 -42t-52.5 -36q-61 -39 -135 -59q-78 -25 -170 -25q-98 0 -201 29q-100 27 -186 92q-90 63 -152 162q-25 41 -44 85t-34 97q-8 27 -24.5 44.5 t-42.5 17.5h-50q-27 0 -44 18.5t-17 44.5z"/>
            <glyph unicode="&#x2122;" horiz-adv-x="1738"
                   d="M104 1386v52q0 27 7 45t34 18h553q27 0 35 -18.5t8 -44.5v-52q0 -27 -8 -45t-35 -18h-120q-27 0 -44.5 -8t-17.5 -35v-492q0 -27 -18.5 -35t-44.5 -8h-62q-27 0 -44 8.5t-17 34.5v492q0 27 -18.5 35t-45.5 8h-121q-27 0 -34 18.5t-7 44.5zM834 788v687q0 27 21.5 30.5 t37.5 -16.5l278 -344q16 -20 39 -20.5t39 20.5l279 344q16 20 38.5 16.5t22.5 -30.5v-687q0 -27 -18.5 -35t-44.5 -8h-62q-27 0 -44 8.5t-17 34.5v191q0 27 -12.5 31t-28.5 -17l-111 -135q-16 -20 -39.5 -20t-40.5 20l-112 135q-16 20 -27.5 16.5t-11.5 -30.5v-191 q0 -27 -18.5 -35t-45.5 -8h-61q-27 0 -44 8.5t-17 34.5z"/>
            <glyph unicode="&#x25fc;" horiz-adv-x="1495" d="M0 0v1495h1495v-1495h-1495z"/>
            </font>
</defs>
</svg>
