<svg id="Capa_1" data-name="Capa 1" xmlns="http://www.w3.org/2000/svg" viewBox="0 0 141.73 141.73">
    <defs>
        <style>
            .cls-1,.cls-3{fill:#122b40;stroke:#fffdfd;}.cls-1,.cls-3,.cls-4{stroke-miterlimit:10;}.cls-1{stroke-width:2px;}.cls-2,.cls-4{fill:#1081e0;}.cls-4{stroke:#fff;}
        </style>
    </defs>
    <title>autoqe_car</title>
    <path id="_Trazado_compuesto_" data-name="&lt;Trazado compuesto&gt;" class="cls-1"
          d="M30.67,80.58h0A13.9,13.9,0,0,0,12.8,72.23h0C6.14,74.38,1.88,82.5,3.08,89.59l2.9,19,16.89-9.56C29.24,95.63,32.82,87.25,30.67,80.58Zm-15,8.72A5.11,5.11,0,0,1,13.39,83a5.11,5.11,0,0,1,6.32-2.27A5.11,5.11,0,0,1,22,87,4.61,4.61,0,0,1,15.67,89.3Z"/>
    <path id="_Trazado_compuesto_2" data-name="&lt;Trazado compuesto&gt;" class="cls-2"
          d="M3.73,127h0a13.9,13.9,0,0,0,18.2,7.63h0c6.57-2.41,10.5-10.7,9-17.74L27.27,98,10.78,108.23C4.55,111.91,1.32,120.43,3.73,127Zm14.64-9.32a5.11,5.11,0,0,1,2.53,6.23,5.11,5.11,0,0,1-6.23,2.53,5.11,5.11,0,0,1-2.53-6.23A4.61,4.61,0,0,1,18.37,117.69Z"/>
    <path id="_Trazado_compuesto_3" data-name="&lt;Trazado compuesto&gt;" class="cls-1"
          d="M125.09,69.36h0a14.86,14.86,0,0,0-17.71,11.47h0c-1.83,7.26,3.12,15.73,10.23,18.65l18.9,8.16.9-20.73C137.92,79.19,132.34,71.19,125.09,69.36Zm-.6,18.55a5.08,5.08,0,1,1-5.5-8.54,5.46,5.46,0,0,1,7,1.52A4.93,4.93,0,0,1,124.48,87.91Z"/>
    <path id="_Trazado_compuesto_4" data-name="&lt;Trazado compuesto&gt;" class="cls-1"
          d="M35.7,81h0a9,9,0,0,0,9.19-8.84h0c.25-4.52-3.66-9-8.21-9.9L24.52,59.58,26.36,72C26.95,76.63,31.18,80.74,35.7,81ZM33.92,69.91a3.07,3.07,0,1,1-.1,4.34A3,3,0,0,1,33.92,69.91Z"/>
    <path id="_Trazado_compuesto_5" data-name="&lt;Trazado compuesto&gt;" class="cls-1"
          d="M54.72,60.62h0a10.17,10.17,0,0,0-8.43,11.72h0c.64,5.08,5.9,9.24,11.16,9.34l14.08.49L66.95,68.73C65.35,63.69,59.8,60,54.72,60.62Zm4.23,12a3.48,3.48,0,1,1-5.63-4.07,3.74,3.74,0,0,1,4.85-.78A3.37,3.37,0,0,1,59,72.59Z"/>
    <path id="_Trazado_compuesto_6" data-name="&lt;Trazado compuesto&gt;" class="cls-1"
          d="M82.51,81.12h0a10.17,10.17,0,0,0,7.64-12.24h0c-1-5-6.5-8.84-11.75-8.59l-14.08.43,5.45,13.11C71.71,78.76,77.48,82.09,82.51,81.12Zm-5-11.67a3.48,3.48,0,1,1,1.09,4.79A3.37,3.37,0,0,1,77.5,69.45Z"/>
    <path id="_Trazado_compuesto_7" data-name="&lt;Trazado compuesto&gt;" class="cls-1"
          d="M91.3,73.69h0A9.27,9.27,0,0,0,101.52,82h0c4.66-.31,8.72-4.89,9.09-9.66l1.19-12.79L99.33,63C94.65,64.18,91,69,91.3,73.69Zm11.12-3.22a3.17,3.17,0,1,1-4.46.45A3.08,3.08,0,0,1,102.42,70.47Z"/>
    <path id="_Trazado_compuesto_8" data-name="&lt;Trazado compuesto&gt;" class="cls-3"
          d="M9.46,65.67h0a6.8,6.8,0,0,0,8,5.47h0c3.39-.5,6.1-4.08,6.08-7.6l.13-9.42-8.92,3.26A8,8,0,0,0,9.46,65.67Zm7.63-3a2.5,2.5,0,0,1,.59,3.23,2.5,2.5,0,0,1-3.23.59,2.5,2.5,0,0,1-.59-3.23A2.26,2.26,0,0,1,17.09,62.66Z"/>
    <path id="_Trazado_compuesto_9" data-name="&lt;Trazado compuesto&gt;" class="cls-3"
          d="M4.44,45.81h0a6.8,6.8,0,0,0-.62,9.63h0c2.17,2.65,6.63,3.14,9.64,1.33l8.15-4.72-7.37-6A8,8,0,0,0,4.44,45.81Zm6.65,5.28a2.5,2.5,0,0,1-2.47,2.16,2.32,2.32,0,0,1,.31-4.64A2.26,2.26,0,0,1,11.09,51.1Z"/>
    <path id="_Trazado_compuesto_10" data-name="&lt;Trazado compuesto&gt;" class="cls-3"
          d="M29.57,38.88h0a6.8,6.8,0,0,0-9.64.45h0c-2.4,2.44-2.39,6.93-.26,9.73l5.59,7.58,5.14-8A8,8,0,0,0,29.57,38.88ZM25,46.07a2.32,2.32,0,1,1-.2-4.64,2.5,2.5,0,0,1,2.42,2.22A2.26,2.26,0,0,1,25,46.07Z"/>
    <path id="_Trazado_compuesto_11" data-name="&lt;Trazado compuesto&gt;" class="cls-3"
          d="M129.59,48.68l-7.37,6,8.15,4.72c3,1.81,7.47,1.32,9.64-1.33h0a6.8,6.8,0,0,0-.62-9.63h0A8,8,0,0,0,129.59,48.68Zm5.32,2.55a2.32,2.32,0,1,1-2.16,2.47A2.26,2.26,0,0,1,134.91,51.23Z"/>
    <path id="_Trazado_compuesto_12" data-name="&lt;Trazado compuesto&gt;" class="cls-3"
          d="M123.84,59.37h0a6.33,6.33,0,0,0-7.69-4.66h0c-3.12.64-5.45,4.12-5.26,7.39l.38,8.77,8.12-3.5A7.49,7.49,0,0,0,123.84,59.37Zm-7.23,3.21a2.17,2.17,0,1,1,3-.72A2.1,2.1,0,0,1,116.61,62.59Z"/>
    <path id="_Trazado_compuesto_13" data-name="&lt;Trazado compuesto&gt;" class="cls-3"
          d="M124.86,68.23h0a3.91,3.91,0,0,0,5.5-.7h0a4.48,4.48,0,0,0-.3-5.58l-3.55-4.09-2.58,4.81A4.62,4.62,0,0,0,124.86,68.23Zm2.26-4.33A1.34,1.34,0,1,1,126,65.39,1.3,1.3,0,0,1,127.12,63.9Z"/>
    <path id="_Trazado_compuesto_14" data-name="&lt;Trazado compuesto&gt;" class="cls-3"
          d="M30.47,28.37h0a4.41,4.41,0,0,0-6,1.65h0a5.07,5.07,0,0,0,1.21,6.2l4.61,4,2.13-5.79A5.22,5.22,0,0,0,30.47,28.37Zm-1.84,5.2a1.51,1.51,0,1,1,1.06-1.85A1.46,1.46,0,0,1,28.62,33.57Z"/>
    <path id="_Trazado_compuesto_15" data-name="&lt;Trazado compuesto&gt;" class="cls-3"
          d="M31.44,40.86h0a3.17,3.17,0,0,0,4.49-.31h0A3.64,3.64,0,0,0,36,36l-2.68-3.48L31,36.31A3.75,3.75,0,0,0,31.44,40.86Zm2-3.4a1.08,1.08,0,1,1-1,1.15A1.05,1.05,0,0,1,33.47,37.46Z"/>
    <path id="_Trazado_compuesto_16" data-name="&lt;Trazado compuesto&gt;" class="cls-3"
          d="M40.35,37.95h0a3.17,3.17,0,0,0,2.31-3.86h0a3.64,3.64,0,0,0-3.72-2.61l-4.39.22,1.78,4.06A3.75,3.75,0,0,0,40.35,37.95Zm-1.63-3.61a1.08,1.08,0,1,1,.37,1.49A1.05,1.05,0,0,1,38.72,34.34Z"/>
    <path id="_Trazado_compuesto_17" data-name="&lt;Trazado compuesto&gt;" class="cls-1"
          d="M43.94,81.29h0A18.79,18.79,0,0,0,30.3,104.22h0c2,9.25,12.36,16.07,22.05,15.4l26-1.35-10.6-24C64,85.23,53.19,79.3,43.94,81.29Zm9.72,21.36a6.91,6.91,0,0,1-8.81,2.21,6.42,6.42,0,0,1,6.6-11A6.24,6.24,0,0,1,53.65,102.65Z"/>
    <path id="_Trazado_compuesto_18" data-name="&lt;Trazado compuesto&gt;" class="cls-1"
          d="M97.66,119.24h0A18.21,18.21,0,0,0,110.86,97h0c-1.94-9-12-15.56-21.37-14.91L64.3,83.43l10.29,23.25C78.23,115.43,88.7,121.17,97.66,119.24ZM88.23,98.54a6.22,6.22,0,1,1,10.68,6.39,6.69,6.69,0,0,1-8.54,2.15A6,6,0,0,1,88.23,98.54Z"/>
    <path id="_Trazado_compuesto_19" data-name="&lt;Trazado compuesto&gt;" class="cls-3"
          d="M62.35,15.07h0a6.67,6.67,0,0,0-5.53,7.69h0c.42,3.33,3.88,6.07,7.33,6.13l9.24.32-3-8.82A7.89,7.89,0,0,0,62.35,15.07Zm2.78,7.86a2.28,2.28,0,1,1-3.7-2.67,2.45,2.45,0,0,1,3.19-.51A2.21,2.21,0,0,1,65.13,22.93Z"/>
    <path id="_Trazado_compuesto_20" data-name="&lt;Trazado compuesto&gt;" class="cls-3"
          d="M79.33,27.76h0a6,6,0,0,0,4.69-7h0c-.48-3-3.65-5.28-6.73-5.23H69l3,7.77A7,7,0,0,0,79.33,27.76ZM76.6,21.25A2,2,0,1,1,80,23.51a2.19,2.19,0,0,1-2.82.56A2,2,0,0,1,76.6,21.25Z"/>
    <path id="_Trazado_compuesto_21" data-name="&lt;Trazado compuesto&gt;" class="cls-3"
          d="M34.95,18.38h0a6.25,6.25,0,0,0-5.18,7.2h0c.39,3.12,3.63,5.68,6.86,5.74l8.65.3-2.82-8.26A7.38,7.38,0,0,0,34.95,18.38Zm2.6,7.35a2.14,2.14,0,1,1-3.46-2.5,2.3,2.3,0,0,1,3-.48A2.07,2.07,0,0,1,37.55,25.74Z"/>
    <path id="_Trazado_compuesto_22" data-name="&lt;Trazado compuesto&gt;" class="cls-3"
          d="M51.73,29.33h0a6.25,6.25,0,0,0,4.7-7.52h0c-.6-3.09-4-5.43-7.22-5.28l-8.65.26,3.35,8.05A7.38,7.38,0,0,0,51.73,29.33Zm-3.08-7.17a2.14,2.14,0,1,1,3.62,2.27,2.3,2.3,0,0,1-2.94.67A2.07,2.07,0,0,1,48.65,22.16Z"/>
    <path id="_Trazado_compuesto_23" data-name="&lt;Trazado compuesto&gt;" class="cls-3"
          d="M113.91,43.7l5.14,8,5.59-7.58c2.13-2.79,2.14-7.28-.26-9.73h0a6.8,6.8,0,0,0-9.64-.45h0A8,8,0,0,0,113.91,43.7Zm3.12-5a2.32,2.32,0,1,1,2.22,2.42A2.26,2.26,0,0,1,117,38.69Z"/>
    <path id="_Trazado_compuesto_24" data-name="&lt;Trazado compuesto&gt;" class="cls-3"
          d="M112.39,29.13l.53,5,4.48-2.27a4.16,4.16,0,0,0,2.21-4.69h0a3.62,3.62,0,0,0-4.48-2.52h0A4.28,4.28,0,0,0,112.39,29.13Zm2.69-1.64a1.24,1.24,0,1,1,.48,1.69A1.2,1.2,0,0,1,115.07,27.49Z"/>
    <path id="_Trazado_compuesto_25" data-name="&lt;Trazado compuesto&gt;" class="cls-3"
          d="M112.81,33.85l-1.22-4.13-3.5,2.48a3.41,3.41,0,0,0-1.18,4.21h0a3.26,3.26,0,0,0,4.24,1.52h0A3.51,3.51,0,0,0,112.81,33.85Zm-2.06,1.72a1.15,1.15,0,0,1-1.38.62,1.14,1.14,0,0,1-.67-1.35,1.15,1.15,0,0,1,1.38-.62A1,1,0,0,1,110.75,35.57Z"/>
    <path id="_Trazado_compuesto_26" data-name="&lt;Trazado compuesto&gt;" class="cls-3"
          d="M100.45,22.14l-4.92,7.2,8.41,2c3.13.81,6.93-.79,8.14-3.69h0A6.25,6.25,0,0,0,109,19.35h0A7.38,7.38,0,0,0,100.45,22.14Zm5.35.85a2.3,2.3,0,0,1,2.74,1.26,2.14,2.14,0,1,1-4,1.49A2.07,2.07,0,0,1,105.81,23Z"/>
    <path id="_Trazado_compuesto_27" data-name="&lt;Trazado compuesto&gt;" class="cls-3"
          d="M96.8,24.65l5.2-7L93.67,15.3c-3.09-.93-7,.52-8.28,3.37h0a6.25,6.25,0,0,0,2.74,8.44h0A7.38,7.38,0,0,0,96.8,24.65Zm-5.32-1.06a2.3,2.3,0,0,1-2.69-1.36,2.14,2.14,0,1,1,4.06-1.33A2.07,2.07,0,0,1,91.48,23.59Z"/>
    <path id="_Trazado_compuesto_28" data-name="&lt;Trazado compuesto&gt;" class="cls-2"
          d="M124.87,137.35h0a13.9,13.9,0,0,0,16.37-11h0c1.6-6.82-3.17-14.65-9.86-17.27l-17.8-7.33-.51,19.4C112.71,128.36,118.05,135.75,124.87,137.35Zm.27-17.36a4.75,4.75,0,1,1-1.31,6.59A4.61,4.61,0,0,1,125.13,120Z"/>
    <path class="cls-2"
          d="M49.54,45.58c.77-.8,1.42-1.5,2.09-2.17,1.18-1.18,2-1.18,3.19,0,2.22,2.18,2.25,2.21,4.49,0,1-1,1.89-1.1,2.77,0s1.63,1.54,2.41-.07c1-2.13,3-1.59,4.77-1.63,1.07,0,2.46.44,2.15-1.57-.08-.55.55-.66,1.07-.65,1.37,0,2.75,0,4.21,0,0,1.12-.69,2-1,2.9a13.74,13.74,0,0,0,.78,10c.41.87.31,1.13-.63,1.11s-1.91.07-2.86,0c-.74-.08-1.71-.18-1.63-1.26s-.68-.93-1.32-.93h-17c-3.44,0-6.88,0-10.32,0a2.86,2.86,0,0,1-2.47-1,30.61,30.61,0,0,0-2.34-2.37,1.46,1.46,0,0,1,0-2.42c.76-.74,1.49-1.5,2.25-2.24a1.66,1.66,0,0,1,2.61,0c.67.72,1.11.89,1.85.06a1.67,1.67,0,0,1,2.71,0C48,44,48.76,44.74,49.54,45.58Z"/>
    <path id="_Trazado_compuesto_29" data-name="&lt;Trazado compuesto&gt;" class="cls-4"
          d="M99.15,57.12h0A12.26,12.26,0,0,0,100,39.73h0c-4-4.73-12-5.52-17.41-2.18L68,46.24,81.45,56.87C86.37,60.94,94.41,61.08,99.15,57.12ZM87,47.74a4.19,4.19,0,1,1,8.37.45,4.51,4.51,0,0,1-4.41,4A4.07,4.07,0,0,1,87,47.74Z"/>
</svg>