<svg id="Capa_1" data-name="Capa 1" xmlns="http://www.w3.org/2000/svg" viewBox="0 0 129.2 141.38"><defs><style>.cls-1{fill:#74acdf;}.cls-2{fill:#122b40;}</style></defs><title>autoqe</title><path class="cls-1" d="M52.52,18.49A31.51,31.51,0,0,1,77.6,69.09l24.88,12.07V51.73c0-.57,0-1.14,0-1.72A50,50,0,0,0,5.16,33.95L22,42.12A31.53,31.53,0,0,1,52.52,18.49Z"/><path class="cls-1" d="M22.41,59.37A31.41,31.41,0,0,1,21.24,46.2h0a31.3,31.3,0,0,0,1.19,13.19Z"/><path class="cls-1" d="M54.51,99.88c-.68,0-1.35.05-2,.05A50,50,0,0,1,2.51,50v0a50,50,0,0,0,50,50c1.23,0,2.45,0,3.66-.14H54.51Z"/><polygon class="cls-1" points="102.49 141.38 102.49 99.89 84.2 99.89 102.49 141.38"/><polygon class="cls-1" points="102.49 85.61 98.49 83.67 102.49 85.62 102.49 85.61"/><path class="cls-2" d="M102.49,99.89H131.7L102.49,85.62l-4-2L92,80.5,74.82,72.15a31.46,31.46,0,0,1-53.6-26v-.07L4,37.76A50,50,0,0,0,2.51,50v0a50,50,0,0,0,50,49.94c.68,0,1.36,0,2-.05h48Z"/></svg>