<svg id="Capa_1" data-name="Capa 1" xmlns="http://www.w3.org/2000/svg" viewBox="0 0 626.71 141.73"><defs><style>.cls-1{fill:#fff;}.cls-2,.cls-3{fill:#85a9db;}.cls-3{stroke:#85a9db;stroke-miterlimit:10;}</style></defs><title>autoqe_side_w</title><path id="_Trazado_" data-name="&lt;Trazado&gt;" class="cls-1" d="M336.41,83.93a22.21,22.21,0,0,1-7.94-5,19.89,19.89,0,0,1-5.08-7.81A28.63,28.63,0,0,1,321.65,61V28.5A2.54,2.54,0,0,1,324.13,26h6.32a2.54,2.54,0,0,1,2.48,2.48V60.87a16,16,0,0,0,1.49,7.32,16.56,16.56,0,0,0,3.47,4.59,12.46,12.46,0,0,0,4.59,2.36,20.15,20.15,0,0,0,2.36.5,11.35,11.35,0,0,0,2,.12,22.59,22.59,0,0,0,4.34-.62,10.17,10.17,0,0,0,4.59-2.36,12.38,12.38,0,0,0,3.6-4.59,16,16,0,0,0,1.49-7.32V28.5A2.54,2.54,0,0,1,363.32,26h6.2a2.25,2.25,0,0,1,1.74.74A2.45,2.45,0,0,1,372,28.5V61a25.1,25.1,0,0,1-.5,5.33,19.86,19.86,0,0,1-1.36,4.84A21.85,21.85,0,0,1,365.06,79a23.35,23.35,0,0,1-7.94,5,30.58,30.58,0,0,1-10.42,1.74A29.85,29.85,0,0,1,336.41,83.93Z"/><path id="_Trazado_2" data-name="&lt;Trazado&gt;" class="cls-1" d="M421.33,36H409.4a2.11,2.11,0,0,0-1.76.75,3.16,3.16,0,0,0-.75,1.76V82.89a2.58,2.58,0,0,1-2.51,2.51h-6.28a2.28,2.28,0,0,1-1.76-.75,3.16,3.16,0,0,1-.75-1.76V38.67a2.28,2.28,0,0,0-.75-1.76,3.16,3.16,0,0,0-1.76-.75H381a2.58,2.58,0,0,1-2.51-2.51v-5A2.58,2.58,0,0,1,381,26.11h40.32a2.58,2.58,0,0,1,2.51,2.51v5a2.48,2.48,0,0,1-.75,1.76A2,2,0,0,1,421.33,36Z"/><path id="_Trazado_compuesto_" data-name="&lt;Trazado compuesto&gt;" class="cls-1" d="M455.57,84.94a29.72,29.72,0,0,1-11.4-2.28,27.58,27.58,0,0,1-9.36-6.36,30.05,30.05,0,0,1-6.36-9.36,28.61,28.61,0,0,1-2.28-11.52,30.8,30.8,0,0,1,2.28-11.52,28.14,28.14,0,0,1,6.36-9.36,30.05,30.05,0,0,1,9.36-6.36,29.94,29.94,0,0,1,22.92,0,28.14,28.14,0,0,1,9.36,6.36,30.05,30.05,0,0,1,6.36,9.36,28.61,28.61,0,0,1,2.28,11.52,28.61,28.61,0,0,1-2.28,11.52,28.14,28.14,0,0,1-6.36,9.36,30.05,30.05,0,0,1-9.36,6.36A30.8,30.8,0,0,1,455.57,84.94Zm0-48.83a16.19,16.19,0,0,0-7.2,1.56,20.94,20.94,0,0,0-5.88,4.2,20.63,20.63,0,0,0-4,6.12,19,19,0,0,0-1.44,7.32,20,20,0,0,0,1.44,7.44,19.21,19.21,0,0,0,4,6.12,17.05,17.05,0,0,0,5.88,4.2,16.56,16.56,0,0,0,7.2,1.56,16.19,16.19,0,0,0,7.2-1.56,20.94,20.94,0,0,0,5.88-4.2,20.63,20.63,0,0,0,4-6.12A19.12,19.12,0,0,0,474,55.31,19.4,19.4,0,0,0,472.61,48a19.21,19.21,0,0,0-4-6.12,18.79,18.79,0,0,0-5.88-4.2A15.84,15.84,0,0,0,455.57,36.11Z"/><path id="_Trazado_3" data-name="&lt;Trazado&gt;" class="cls-2" d="M582.18,38.68v9.8A2.58,2.58,0,0,0,584.69,51h23.74a2.58,2.58,0,0,1,2.51,2.51v5.28a2.58,2.58,0,0,1-2.51,2.51H584.69a2.58,2.58,0,0,0-2.51,2.51v8.92a2.58,2.58,0,0,0,2.51,2.51h27.38a2.58,2.58,0,0,1,2.51,2.51v5.15a2.58,2.58,0,0,1-2.51,2.51H573.39a2.58,2.58,0,0,1-2.51-2.51V28.5A2.58,2.58,0,0,1,573.39,26h38.69a2.58,2.58,0,0,1,2.51,2.51v5A2.58,2.58,0,0,1,612.08,36H584.69a2.48,2.48,0,0,0-1.76.75A2.56,2.56,0,0,0,582.18,38.68Z"/><path class="cls-1" d="M291.94,116.91a6.2,6.2,0,0,1-2.21-1.38,5.85,5.85,0,0,1-1.43-2.16,7.7,7.7,0,0,1-.49-2.83v-9a.67.67,0,0,1,.2-.49.64.64,0,0,1,.47-.2h1.76a.68.68,0,0,1,.69.69v9a4.53,4.53,0,0,0,.4,2,4.07,4.07,0,0,0,1,1.27,3.33,3.33,0,0,0,1.27.65q.36.09.66.13a3.91,3.91,0,0,0,.57,0,5.1,5.1,0,0,0,1.2-.18,3,3,0,0,0,1.27-.65,3.64,3.64,0,0,0,1-1.27,4.53,4.53,0,0,0,.4-2v-9a.69.69,0,0,1,.69-.69h1.74a.68.68,0,0,1,.69.69v9a8.63,8.63,0,0,1-.12,1.48,7.38,7.38,0,0,1-.37,1.35,6.26,6.26,0,0,1-1.4,2.16,6.48,6.48,0,0,1-2.21,1.38,8,8,0,0,1-2.9.49A7.81,7.81,0,0,1,291.94,116.91Z"/><path class="cls-1" d="M331.89,103.6h-3.34a.7.7,0,0,0-.7.7V116.7a.7.7,0,0,1-.7.7h-1.77a.7.7,0,0,1-.7-.7V104.31a.7.7,0,0,0-.7-.7h-3.36a.7.7,0,0,1-.7-.7v-1.41a.7.7,0,0,1,.7-.7h11.28a.7.7,0,0,1,.7.7v1.41a.7.7,0,0,1-.7.7Z"/><path class="cls-1" d="M358,117.31a8.09,8.09,0,0,1-3.25-.66,8.49,8.49,0,0,1-4.47-4.47,8.38,8.38,0,0,1,0-6.54,8.46,8.46,0,0,1,4.47-4.48,8.36,8.36,0,0,1,6.53,0,8.46,8.46,0,0,1,4.47,4.48,8.38,8.38,0,0,1,0,6.54,8.49,8.49,0,0,1-4.47,4.47A8.14,8.14,0,0,1,358,117.31Zm0-13.92a4.78,4.78,0,0,0-2.07.45,5.62,5.62,0,0,0-1.68,1.21,5.71,5.71,0,0,0-1.14,1.76,5.46,5.46,0,0,0,0,4.19,5.89,5.89,0,0,0,1.14,1.76,5.51,5.51,0,0,0,1.68,1.22,4.92,4.92,0,0,0,4.13,0,5.51,5.51,0,0,0,1.68-1.22,5.87,5.87,0,0,0,1.14-1.76,5.45,5.45,0,0,0,0-4.19,5.69,5.69,0,0,0-1.14-1.76,5.62,5.62,0,0,0-1.68-1.21A4.78,4.78,0,0,0,358,103.39Z"/><path class="cls-2" d="M444.56,114.42v1.32a.66.66,0,0,1-.66.66H434a.66.66,0,0,1-.66-.66V101.45a.66.66,0,0,1,.66-.66h1.66a.66.66,0,0,1,.66.66V113.1a.66.66,0,0,0,.66.66h6.93a.65.65,0,0,1,.66.66Z"/><path class="cls-3" d="M486,103.43h-3.13a.66.66,0,0,0-.66.66v11.65a.66.66,0,0,1-.66.66h-1.66a.64.64,0,0,1-.47-.19.63.63,0,0,1-.19-.47V104.09a.66.66,0,0,0-.66-.66h-3.16a.65.65,0,0,1-.66-.66v-1.32a.66.66,0,0,1,.66-.66H486a.66.66,0,0,1,.66.66v1.32a.65.65,0,0,1-.66.66Z"/><path class="cls-3" d="M514.53,116.7a7.79,7.79,0,0,1-3.14-.64,8.18,8.18,0,0,1-4.31-4.31,8.08,8.08,0,0,1,0-6.3,8.15,8.15,0,0,1,4.31-4.32,8.06,8.06,0,0,1,6.29,0,8.15,8.15,0,0,1,4.31,4.32,8.08,8.08,0,0,1,0,6.3,8.18,8.18,0,0,1-4.31,4.31A7.84,7.84,0,0,1,514.53,116.7Zm0-13.42a4.61,4.61,0,0,0-2,.44,5.41,5.41,0,0,0-1.62,1.16,5.49,5.49,0,0,0-1.1,1.7,5.25,5.25,0,0,0,0,4,5.67,5.67,0,0,0,1.1,1.7,5.31,5.31,0,0,0,1.62,1.17,4.74,4.74,0,0,0,4,0,5.32,5.32,0,0,0,1.62-1.17,5.67,5.67,0,0,0,1.1-1.7,5.25,5.25,0,0,0,0-4,5.49,5.49,0,0,0-1.1-1.7,5.42,5.42,0,0,0-1.62-1.16A4.61,4.61,0,0,0,514.54,103.28Z"/><path class="cls-3" d="M575.58,116.21a5.93,5.93,0,0,1-2.11-1.32,5.59,5.59,0,0,1-1.36-2.07,7.35,7.35,0,0,1-.47-2.71v-8.64a.64.64,0,0,1,.19-.47.61.61,0,0,1,.45-.19H574a.66.66,0,0,1,.66.66v8.62A4.33,4.33,0,0,0,575,112a3.89,3.89,0,0,0,.94,1.22,3.18,3.18,0,0,0,1.22.62q.34.08.63.13a3.74,3.74,0,0,0,.54,0,4.87,4.87,0,0,0,1.15-.17,2.83,2.83,0,0,0,1.22-.62,3.48,3.48,0,0,0,1-1.22,4.33,4.33,0,0,0,.38-1.94v-8.62a.66.66,0,0,1,.66-.66h1.66a.66.66,0,0,1,.66.66v8.64a8.26,8.26,0,0,1-.12,1.42,7.06,7.06,0,0,1-.35,1.29,6,6,0,0,1-1.34,2.07,6.19,6.19,0,0,1-2.11,1.32,7.64,7.64,0,0,1-2.77.47A7.47,7.47,0,0,1,575.58,116.21Z"/><path class="cls-3" d="M606.29,104.09v2.58a.66.66,0,0,0,.66.66h6.23a.65.65,0,0,1,.66.66v1.39a.66.66,0,0,1-.66.66H607a.65.65,0,0,0-.66.66v2.35a.65.65,0,0,0,.66.66h7.19a.66.66,0,0,1,.66.66v1.37a.66.66,0,0,1-.66.66H604a.66.66,0,0,1-.66-.66V101.45a.66.66,0,0,1,.66-.66h10.17a.66.66,0,0,1,.66.66v1.32a.65.65,0,0,1-.66.66H607a.66.66,0,0,0-.66.66Z"/><path class="cls-1" d="M306.41,65.71c5.23-24.61-11.76-40-28.32-40a29.91,29.91,0,0,0-22,9.65c.25-.26.5-.52.77-.78a30.05,30.05,0,0,1,9.36-6.36,29.94,29.94,0,0,1,22.92,0,28.14,28.14,0,0,1,9.36,6.36,30.05,30.05,0,0,1,6.36,9.36,28.61,28.61,0,0,1,2.28,11.52,28.61,28.61,0,0,1-2.28,11.52,28.14,28.14,0,0,1-6.36,9.36,30.05,30.05,0,0,1-9.36,6.36,30.8,30.8,0,0,1-11.52,2.28,29.72,29.72,0,0,1-11.4-2.28,27.59,27.59,0,0,1-9.36-6.36,30.05,30.05,0,0,1-6.36-9.36,28.61,28.61,0,0,1-2.28-11.52A30.49,30.49,0,0,1,250,45.15a30,30,0,0,0,28.09,40.52C336.39,85.62,302.69,83.18,306.41,65.71Z"/><path class="cls-1" d="M250.45,66.95a30.05,30.05,0,0,0,6.36,9.36,27.59,27.59,0,0,0,9.36,6.36,29.72,29.72,0,0,0,11.4,2.28,30.8,30.8,0,0,0,11.52-2.28,30.05,30.05,0,0,0,9.36-6.36,28.14,28.14,0,0,0,6.36-9.36,28.61,28.61,0,0,0,2.28-11.52,28.61,28.61,0,0,0-2.28-11.52,30.05,30.05,0,0,0-6.36-9.36,28.14,28.14,0,0,0-9.36-6.36,29.94,29.94,0,0,0-22.92,0,30.05,30.05,0,0,0-9.36,6.36c-.27.25-.52.52-.77.78A30,30,0,0,0,250,45.15a30.49,30.49,0,0,0-1.82,10.28A28.61,28.61,0,0,0,250.45,66.95Zm10.08-19a20.63,20.63,0,0,1,4-6.12,20.94,20.94,0,0,1,5.88-4.2,16.19,16.19,0,0,1,7.2-1.56,15.84,15.84,0,0,1,7.2,1.56,18.8,18.8,0,0,1,5.88,4.2,19.59,19.59,0,0,1,4,20.88,20.63,20.63,0,0,1-4,6.12,21,21,0,0,1-5.88,4.2,16.19,16.19,0,0,1-7.2,1.56,16.56,16.56,0,0,1-7.2-1.56,17.05,17.05,0,0,1-5.88-4.2,19.21,19.21,0,0,1-4-6.12,20,20,0,0,1-1.44-7.44A19,19,0,0,1,260.53,48Z"/><path class="cls-1" d="M265.35,111.84c1.46-6.86-3.28-11.16-7.9-11.16a8.34,8.34,0,0,0-6.15,2.69l.21-.22a8.38,8.38,0,0,1,2.61-1.77,8.35,8.35,0,0,1,6.39,0,7.85,7.85,0,0,1,2.61,1.77,8.38,8.38,0,0,1,1.77,2.61,8.43,8.43,0,0,1,0,6.42,7.85,7.85,0,0,1-1.77,2.61,8.38,8.38,0,0,1-2.61,1.77,8.59,8.59,0,0,1-3.21.64,8.29,8.29,0,0,1-3.18-.64,7.69,7.69,0,0,1-2.61-1.77,8.38,8.38,0,0,1-1.77-2.61,8,8,0,0,1-.64-3.21,8.5,8.5,0,0,1,.51-2.87,8.37,8.37,0,0,0,7.83,11.3C273.71,117.39,264.31,116.71,265.35,111.84Z"/><path class="cls-1" d="M249.75,112.18a8.38,8.38,0,0,0,1.77,2.61,7.69,7.69,0,0,0,2.61,1.77,8.29,8.29,0,0,0,3.18.64,8.59,8.59,0,0,0,3.21-.64,8.38,8.38,0,0,0,2.61-1.77,7.85,7.85,0,0,0,1.77-2.61,8.43,8.43,0,0,0,0-6.42,8.38,8.38,0,0,0-1.77-2.61,7.85,7.85,0,0,0-2.61-1.77,8.35,8.35,0,0,0-6.39,0,8.38,8.38,0,0,0-2.61,1.77l-.21.22a8.36,8.36,0,0,0-1.69,2.74,8.5,8.5,0,0,0-.51,2.87A8,8,0,0,0,249.75,112.18Zm2.81-5.29a5.75,5.75,0,0,1,1.1-1.71A5.84,5.84,0,0,1,255.3,104a4.52,4.52,0,0,1,2-.43,4.42,4.42,0,0,1,2,.43,5.24,5.24,0,0,1,1.64,1.17,5.46,5.46,0,0,1,1.1,5.82,5.75,5.75,0,0,1-1.1,1.71,5.84,5.84,0,0,1-1.64,1.17,4.51,4.51,0,0,1-2,.43,4.62,4.62,0,0,1-2-.43,4.75,4.75,0,0,1-1.64-1.17,5.35,5.35,0,0,1-1.1-1.71,5.58,5.58,0,0,1-.4-2.07A5.29,5.29,0,0,1,252.56,106.89Z"/><path class="cls-2" d="M415.35,111.84c1.46-6.86-3.28-11.16-7.9-11.16a8.34,8.34,0,0,0-6.15,2.69l.21-.22a8.38,8.38,0,0,1,2.61-1.77,8.35,8.35,0,0,1,6.39,0,7.85,7.85,0,0,1,2.61,1.77,8.38,8.38,0,0,1,1.77,2.61,8.43,8.43,0,0,1,0,6.42,7.85,7.85,0,0,1-1.77,2.61,8.38,8.38,0,0,1-2.61,1.77,8.59,8.59,0,0,1-3.21.64,8.29,8.29,0,0,1-3.18-.64,7.69,7.69,0,0,1-2.61-1.77,8.38,8.38,0,0,1-1.77-2.61,8,8,0,0,1-.64-3.21,8.5,8.5,0,0,1,.51-2.87,8.37,8.37,0,0,0,7.83,11.3C423.71,117.39,414.31,116.71,415.35,111.84Z"/><path class="cls-2" d="M399.75,112.18a8.38,8.38,0,0,0,1.77,2.61,7.69,7.69,0,0,0,2.61,1.77,8.29,8.29,0,0,0,3.18.64,8.59,8.59,0,0,0,3.21-.64,8.38,8.38,0,0,0,2.61-1.77,7.85,7.85,0,0,0,1.77-2.61,8.43,8.43,0,0,0,0-6.42,8.38,8.38,0,0,0-1.77-2.61,7.85,7.85,0,0,0-2.61-1.77,8.35,8.35,0,0,0-6.39,0,8.38,8.38,0,0,0-2.61,1.77l-.21.22a8.36,8.36,0,0,0-1.69,2.74,8.5,8.5,0,0,0-.51,2.87A8,8,0,0,0,399.75,112.18Zm2.81-5.29a5.75,5.75,0,0,1,1.1-1.71A5.84,5.84,0,0,1,405.3,104a4.52,4.52,0,0,1,2-.43,4.42,4.42,0,0,1,2,.43,5.24,5.24,0,0,1,1.64,1.17,5.46,5.46,0,0,1,1.1,5.82,5.75,5.75,0,0,1-1.1,1.71,5.84,5.84,0,0,1-1.64,1.17,4.51,4.51,0,0,1-2,.43,4.62,4.62,0,0,1-2-.43,4.75,4.75,0,0,1-1.64-1.17,5.35,5.35,0,0,1-1.1-1.71,5.58,5.58,0,0,1-.4-2.07A5.29,5.29,0,0,1,402.56,106.89Z"/><path class="cls-2" d="M535.47,83.65c-24.61,5.23-40-11.76-40-28.32a29.91,29.91,0,0,1,9.65-22c-.26.25-.52.5-.78.77a30.05,30.05,0,0,0-6.36,9.36,28.45,28.45,0,0,0-2.28,11.4,28.61,28.61,0,0,0,2.28,11.52,28.14,28.14,0,0,0,6.36,9.36,30.05,30.05,0,0,0,9.36,6.36,30.24,30.24,0,0,0,23,0,28.14,28.14,0,0,0,9.36-6.36,30.05,30.05,0,0,0,6.36-9.36,30.8,30.8,0,0,0,2.28-11.52,29.72,29.72,0,0,0-2.28-11.4,27.59,27.59,0,0,0-6.36-9.36,30.05,30.05,0,0,0-9.36-6.36,28.61,28.61,0,0,0-11.52-2.28,30.49,30.49,0,0,0-10.28,1.82,30,30,0,0,1,40.52,28.09C555.37,113.64,552.93,79.94,535.47,83.65Z"/><path class="cls-2" d="M525.18,25.42a30.49,30.49,0,0,0-10.28,1.82,30,30,0,0,0-9.82,6.05c-.26.25-.52.5-.78.77a30.05,30.05,0,0,0-6.36,9.36,28.45,28.45,0,0,0-2.28,11.4,28.61,28.61,0,0,0,2.28,11.52,28.14,28.14,0,0,0,6.36,9.36,30.05,30.05,0,0,0,9.36,6.36,30.24,30.24,0,0,0,23,0,28.14,28.14,0,0,0,9.36-6.36,30.05,30.05,0,0,0,6.36-9.36,30.8,30.8,0,0,0,2.28-11.52,29.72,29.72,0,0,0-2.28-11.4,27.59,27.59,0,0,0-6.36-9.36,30.05,30.05,0,0,0-9.36-6.36A28.61,28.61,0,0,0,525.18,25.42Zm-.12,10.92a20,20,0,0,1,7.44,1.44,19.21,19.21,0,0,1,6.12,4,17.05,17.05,0,0,1,4.2,5.88,16.56,16.56,0,0,1,1.56,7.2,16.19,16.19,0,0,1-1.56,7.2,21,21,0,0,1-4.2,5.88,20.63,20.63,0,0,1-6.12,4,19.12,19.12,0,0,1-7.44,1.44,19.52,19.52,0,0,1-13.44-5.4,18.8,18.8,0,0,1-4.2-5.88,15.84,15.84,0,0,1-1.56-7.2,16.19,16.19,0,0,1,1.56-7.2,20.94,20.94,0,0,1,4.2-5.88,20.63,20.63,0,0,1,6.12-4A19,19,0,0,1,525.06,36.34Z"/><path class="cls-2" d="M549.14,115.61c-6.59,1.4-10.72-3.15-10.72-7.59a8,8,0,0,1,2.59-5.9l-.21.21a8,8,0,0,0-1.7,2.51,8,8,0,0,0,0,6.14,7.54,7.54,0,0,0,1.7,2.51,8,8,0,0,0,2.51,1.7,8.1,8.1,0,0,0,6.17,0,7.54,7.54,0,0,0,2.51-1.7,8,8,0,0,0,1.7-2.51,8.25,8.25,0,0,0,.61-3.09,8,8,0,0,0-.61-3.05,7.39,7.39,0,0,0-1.7-2.51,8.05,8.05,0,0,0-2.51-1.7,7.66,7.66,0,0,0-3.09-.61,8.17,8.17,0,0,0-2.75.49A8,8,0,0,1,554.49,108C554.47,123.64,553.82,114.62,549.14,115.61Z"/><path class="cls-2" d="M546.39,100a8.17,8.17,0,0,0-2.75.49,8,8,0,0,0-2.63,1.62l-.21.21a8,8,0,0,0-1.7,2.51,8,8,0,0,0,0,6.14,7.54,7.54,0,0,0,1.7,2.51,8,8,0,0,0,2.51,1.7,8.1,8.1,0,0,0,6.17,0,7.54,7.54,0,0,0,2.51-1.7,8,8,0,0,0,1.7-2.51,8.25,8.25,0,0,0,.61-3.09,8,8,0,0,0-.61-3.05,7.39,7.39,0,0,0-1.7-2.51,8.05,8.05,0,0,0-2.51-1.7A7.66,7.66,0,0,0,546.39,100Zm0,2.92a5.36,5.36,0,0,1,2,.39,5.14,5.14,0,0,1,1.64,1.06,4.57,4.57,0,0,1,1.12,1.57,4.44,4.44,0,0,1,.42,1.93,4.34,4.34,0,0,1-.42,1.93,5.61,5.61,0,0,1-1.12,1.57,5.53,5.53,0,0,1-1.64,1.06,5.12,5.12,0,0,1-2,.39,5.23,5.23,0,0,1-3.6-1.45,5,5,0,0,1-1.12-1.57,4.24,4.24,0,0,1-.42-1.93,4.34,4.34,0,0,1,.42-1.93,5.61,5.61,0,0,1,1.12-1.57,5.53,5.53,0,0,1,1.64-1.06A5.08,5.08,0,0,1,546.36,102.94Z"/><circle class="cls-2" cx="277.63" cy="55.67" r="5.49"/><circle class="cls-1" cx="524.77" cy="54.9" r="5.49"/><path class="cls-2" d="M130.84,81.44c12.67,36.37,47.15,43.1,68.84,30a45.79,45.79,0,0,0,21.2-30.12c-.12.54-.24,1.09-.39,1.63a46,46,0,0,1-7.21,15.75,45.83,45.83,0,0,1-30,18.18,43.08,43.08,0,0,1-17.3-.9,46,46,0,0,1-15.75-7.21,43.8,43.8,0,0,1-12.12-13.27A43.8,43.8,0,0,1,132,78.55a43.08,43.08,0,0,1,.9-17.3,46,46,0,0,1,7.21-15.75,47.15,47.15,0,0,1,13.27-12.12,45.5,45.5,0,0,1,16.73-6.06,42.23,42.23,0,0,1,17.3.9,46,46,0,0,1,15.75,7.21,43.8,43.8,0,0,1,12.12,13.27A46.67,46.67,0,0,1,221,63.61,45.93,45.93,0,0,0,152.1,32.84C75.79,79.16,121.85,55.62,130.84,81.44Z"/><path class="cls-2" d="M203.12,35.44a46,46,0,0,0-15.75-7.21,42.23,42.23,0,0,0-17.3-.9,45.5,45.5,0,0,0-16.73,6.06A47.15,47.15,0,0,0,140.07,45.5a46,46,0,0,0-7.21,15.75,43.08,43.08,0,0,0-.9,17.3,43.8,43.8,0,0,0,6.15,16.89,43.8,43.8,0,0,0,12.12,13.27A46,46,0,0,0,166,115.92a43.08,43.08,0,0,0,17.3.9,45.83,45.83,0,0,0,30-18.18,46,46,0,0,0,7.21-15.75c.15-.54.27-1.09.39-1.63A45.91,45.91,0,0,0,221,63.61a46.67,46.67,0,0,0-5.78-14.9A43.8,43.8,0,0,0,203.12,35.44ZM205,68.25a31.58,31.58,0,0,1-.33,11.15,32.06,32.06,0,0,1-4.37,10.16,24.79,24.79,0,0,1-8.19,7.75A24.25,24.25,0,0,1,181.41,101a28.77,28.77,0,0,1-11-.84A30,30,0,0,1,148.64,76,31.58,31.58,0,0,1,149,64.81a32.07,32.07,0,0,1,4.37-10.16,24.79,24.79,0,0,1,8.19-7.75,25.35,25.35,0,0,1,10.66-3.67,26.1,26.1,0,0,1,11,.84,29.4,29.4,0,0,1,10,4.87,30.63,30.63,0,0,1,7.79,8.6A29,29,0,0,1,205,68.25Z"/><path class="cls-1" d="M98.94,60.63c-13.68-36-48.34-41.76-69.65-28-11.21,7.23-16.8,19.78-20.35,30.7.17-.53.21-1.09.34-1.64a46,46,0,0,1,6.77-15.94A43.55,43.55,0,0,1,28.82,33.35a43.8,43.8,0,0,1,16.71-6.62,43.08,43.08,0,0,1,17.32.42A46,46,0,0,1,78.8,33.91,43.8,43.8,0,0,1,91.28,46.84a43.8,43.8,0,0,1,6.62,16.71,43.08,43.08,0,0,1-.42,17.32,46,46,0,0,1-6.77,15.94A47.15,47.15,0,0,1,77.79,109.3a45.5,45.5,0,0,1-16.56,6.52,42.23,42.23,0,0,1-17.32-.42A46,46,0,0,1,28,108.64,43.8,43.8,0,0,1,15.49,95.71,46.67,46.67,0,0,1,9.29,81a45.93,45.93,0,0,0,69.76,28.83C154,61.37,108.65,86.18,98.94,60.63Z"/><path class="cls-1" d="M28,108.64a46,46,0,0,0,15.95,6.77,42.23,42.23,0,0,0,17.32.42,45.5,45.5,0,0,0,16.56-6.52A47.15,47.15,0,0,0,90.72,96.81a46,46,0,0,0,6.77-15.94,43.08,43.08,0,0,0,.42-17.32,43.8,43.8,0,0,0-6.62-16.71A43.8,43.8,0,0,0,78.8,33.91a46,46,0,0,0-15.94-6.77,43.08,43.08,0,0,0-17.32-.42,43.8,43.8,0,0,0-16.71,6.62A43.55,43.55,0,0,0,16.05,45.74,46,46,0,0,0,9.29,61.68c-.13.55-.24,1.09-.34,1.64A45.91,45.91,0,0,0,9.29,81a46.67,46.67,0,0,0,6.19,14.73A43.8,43.8,0,0,0,28,108.64ZM25.22,75.89a31.58,31.58,0,0,1,0-11.16,32.06,32.06,0,0,1,4.08-10.28,24.79,24.79,0,0,1,8-8,24.25,24.25,0,0,1,10.56-4,28.77,28.77,0,0,1,11,.53A30,30,0,0,1,81.3,66.61a31.58,31.58,0,0,1,0,11.16A32.07,32.07,0,0,1,77.2,88a24.79,24.79,0,0,1-8,8,25.35,25.35,0,0,1-10.56,4,26.1,26.1,0,0,1-11-.53,29.4,29.4,0,0,1-10.17-4.59,30.63,30.63,0,0,1-8-8.38A29,29,0,0,1,25.22,75.89Z"/><circle class="cls-2" cx="53.12" cy="71.51" r="8.32"/><circle class="cls-1" cx="177.39" cy="72.89" r="8.32"/></svg>