<svg id="Capa_1" data-name="Capa 1" xmlns="http://www.w3.org/2000/svg" viewBox="0 0 566.93 445.07"><defs><style>.cls-1{fill:#212f41;}.cls-2,.cls-3{fill:#85a9db;}.cls-3{stroke:#85a9db;stroke-miterlimit:10;}</style></defs><title>autoqe_both_inv</title><path class="cls-1" d="M95,201.66a8.12,8.12,0,0,1-2.89-1.81A7.66,7.66,0,0,1,90.24,197a10.08,10.08,0,0,1-.64-3.71V181.49a.87.87,0,0,1,.26-.64.84.84,0,0,1,.61-.26h2.31a.9.9,0,0,1,.9.9v11.79a5.93,5.93,0,0,0,.53,2.66,5.33,5.33,0,0,0,1.28,1.66,4.36,4.36,0,0,0,1.66.85q.47.12.86.18a5.12,5.12,0,0,0,.74.06,6.68,6.68,0,0,0,1.58-.23,3.89,3.89,0,0,0,1.66-.85,4.76,4.76,0,0,0,1.31-1.66,5.93,5.93,0,0,0,.53-2.66V181.49a.9.9,0,0,1,.91-.9H107a.9.9,0,0,1,.9.9v11.82a11.3,11.3,0,0,1-.16,1.94,9.66,9.66,0,0,1-.48,1.77,8.19,8.19,0,0,1-1.84,2.83,8.49,8.49,0,0,1-2.89,1.81,10.47,10.47,0,0,1-3.8.64A10.23,10.23,0,0,1,95,201.66Z"/><path class="cls-1" d="M143.47,184.17h-4.29a.9.9,0,0,0-.9.9V201a.9.9,0,0,1-.9.9h-2.28a.9.9,0,0,1-.9-.9V185.08a.9.9,0,0,0-.9-.9H129a.9.9,0,0,1-.9-.9v-1.81a.9.9,0,0,1,.9-.9h14.51a.9.9,0,0,1,.9.9v1.81a.9.9,0,0,1-.9.9Z"/><path class="cls-1" d="M174.3,202.33a10.66,10.66,0,0,1-4.29-.88,11.2,11.2,0,0,1-5.9-5.9,11.06,11.06,0,0,1,0-8.63A11.16,11.16,0,0,1,170,181a11,11,0,0,1,8.61,0,11.16,11.16,0,0,1,5.9,5.91,11.06,11.06,0,0,1,0,8.63,11.2,11.2,0,0,1-5.9,5.9A10.74,10.74,0,0,1,174.3,202.33Zm0-18.36a6.31,6.31,0,0,0-2.72.6,7.41,7.41,0,0,0-2.21,1.59,7.53,7.53,0,0,0-1.5,2.32,7.2,7.2,0,0,0,0,5.53,7.77,7.77,0,0,0,1.5,2.32,7.27,7.27,0,0,0,2.21,1.61,6.49,6.49,0,0,0,5.45,0,7.27,7.27,0,0,0,2.21-1.61,7.74,7.74,0,0,0,1.5-2.32,7.19,7.19,0,0,0,0-5.53,7.5,7.5,0,0,0-1.5-2.32,7.41,7.41,0,0,0-2.21-1.59A6.31,6.31,0,0,0,174.31,184Z"/><path class="cls-2" d="M289.09,199.21V201a.9.9,0,0,1-.9.9H274.61a.9.9,0,0,1-.91-.9V181.46a.9.9,0,0,1,.91-.9h2.28a.9.9,0,0,1,.9.9V197.4a.9.9,0,0,0,.9.9h9.49a.9.9,0,0,1,.9.9Z"/><path class="cls-3" d="M352.68,184.17h-4.29a.9.9,0,0,0-.9.9V201a.9.9,0,0,1-.91.9H344.3a.88.88,0,0,1-.64-.26.87.87,0,0,1-.26-.64V185.08a.9.9,0,0,0-.91-.9h-4.32a.9.9,0,0,1-.9-.9v-1.81a.9.9,0,0,1,.9-.9h14.51a.9.9,0,0,1,.91.9v1.81a.89.89,0,0,1-.91.9Z"/><path class="cls-3" d="M390.35,202.33a10.67,10.67,0,0,1-4.29-.88,11.2,11.2,0,0,1-5.9-5.9,11.06,11.06,0,0,1,0-8.63,11.16,11.16,0,0,1,5.9-5.91,11,11,0,0,1,8.61,0,11.16,11.16,0,0,1,5.9,5.91,11.06,11.06,0,0,1,0,8.63,11.2,11.2,0,0,1-5.9,5.9A10.74,10.74,0,0,1,390.35,202.33Zm0-18.36a6.31,6.31,0,0,0-2.72.6,7.41,7.41,0,0,0-2.22,1.59,7.51,7.51,0,0,0-1.5,2.32,7.19,7.19,0,0,0,0,5.53,7.76,7.76,0,0,0,1.5,2.32,7.27,7.27,0,0,0,2.22,1.61,6.49,6.49,0,0,0,5.45,0,7.28,7.28,0,0,0,2.22-1.61,7.76,7.76,0,0,0,1.5-2.32,7.19,7.19,0,0,0,0-5.53,7.51,7.51,0,0,0-1.5-2.32,7.42,7.42,0,0,0-2.22-1.59A6.31,6.31,0,0,0,390.37,184Z"/><path class="cls-3" d="M473.93,201.66a8.12,8.12,0,0,1-2.89-1.81,7.65,7.65,0,0,1-1.87-2.83,10.06,10.06,0,0,1-.64-3.71V181.49a.88.88,0,0,1,.26-.64.84.84,0,0,1,.61-.26h2.31a.9.9,0,0,1,.9.9v11.79a5.93,5.93,0,0,0,.53,2.66,5.33,5.33,0,0,0,1.28,1.66,4.35,4.35,0,0,0,1.66.85q.47.12.86.18a5.12,5.12,0,0,0,.74.06,6.67,6.67,0,0,0,1.58-.23,3.88,3.88,0,0,0,1.66-.85,4.76,4.76,0,0,0,1.31-1.66,5.93,5.93,0,0,0,.53-2.66V181.49a.9.9,0,0,1,.9-.9H486a.9.9,0,0,1,.9.9v11.82a11.3,11.3,0,0,1-.16,1.94,9.66,9.66,0,0,1-.48,1.77,8.18,8.18,0,0,1-1.84,2.83,8.47,8.47,0,0,1-2.89,1.81,10.46,10.46,0,0,1-3.8.64A10.23,10.23,0,0,1,473.93,201.66Z"/><path class="cls-3" d="M509.12,185.08v3.53a.9.9,0,0,0,.9.9h8.52a.89.89,0,0,1,.9.9v1.9a.9.9,0,0,1-.9.9H510a.89.89,0,0,0-.9.9v3.21a.89.89,0,0,0,.9.9h9.84a.9.9,0,0,1,.9.9V201a.9.9,0,0,1-.9.9H505.94a.9.9,0,0,1-.9-.9V181.46a.9.9,0,0,1,.9-.9h13.93a.9.9,0,0,1,.9.9v1.81a.89.89,0,0,1-.9.9H510a.9.9,0,0,0-.9.9Z"/><path class="cls-1" d="M68.42,195.68c2-9.39-4.49-15.28-10.81-15.28a11.42,11.42,0,0,0-8.41,3.69l.29-.3a11.47,11.47,0,0,1,3.57-2.43,11.43,11.43,0,0,1,8.75,0,10.74,10.74,0,0,1,3.57,2.43,11.47,11.47,0,0,1,2.43,3.57,11.54,11.54,0,0,1,0,8.79,10.74,10.74,0,0,1-2.43,3.57,11.47,11.47,0,0,1-3.57,2.43,11.76,11.76,0,0,1-4.4.87,11.35,11.35,0,0,1-4.35-.87,10.53,10.53,0,0,1-3.57-2.43,11.47,11.47,0,0,1-2.43-3.57,10.92,10.92,0,0,1-.87-4.4,11.64,11.64,0,0,1,.69-3.92,11.45,11.45,0,0,0,10.72,15.47C79.87,203.27,67,202.34,68.42,195.68Z"/><path class="cls-1" d="M47.07,196.15a11.47,11.47,0,0,0,2.43,3.57,10.53,10.53,0,0,0,3.57,2.43,11.35,11.35,0,0,0,4.35.87,11.76,11.76,0,0,0,4.4-.87,11.47,11.47,0,0,0,3.57-2.43,10.74,10.74,0,0,0,2.43-3.57,11.54,11.54,0,0,0,0-8.79,11.47,11.47,0,0,0-2.43-3.57,10.74,10.74,0,0,0-3.57-2.43,11.43,11.43,0,0,0-8.75,0,11.47,11.47,0,0,0-3.57,2.43l-.29.3a11.45,11.45,0,0,0-2.31,3.75,11.64,11.64,0,0,0-.69,3.92A10.92,10.92,0,0,0,47.07,196.15Zm3.85-7.24a7.87,7.87,0,0,1,1.51-2.34,8,8,0,0,1,2.24-1.6,6.18,6.18,0,0,1,2.75-.6,6,6,0,0,1,2.75.6,7.17,7.17,0,0,1,2.24,1.6,7.48,7.48,0,0,1,1.51,8,7.87,7.87,0,0,1-1.51,2.34,8,8,0,0,1-2.24,1.6,6.18,6.18,0,0,1-2.75.6,6.32,6.32,0,0,1-2.75-.6,6.51,6.51,0,0,1-2.24-1.6,7.33,7.33,0,0,1-1.51-2.34,7.64,7.64,0,0,1-.55-2.84A7.23,7.23,0,0,1,50.91,188.91Z"/><path class="cls-2" d="M246.37,195.68c2-9.39-4.49-15.28-10.81-15.28a11.42,11.42,0,0,0-8.41,3.69l.29-.3a11.47,11.47,0,0,1,3.57-2.43,11.43,11.43,0,0,1,8.75,0,10.74,10.74,0,0,1,3.57,2.43,11.47,11.47,0,0,1,2.43,3.57,11.54,11.54,0,0,1,0,8.79,10.74,10.74,0,0,1-2.43,3.57,11.47,11.47,0,0,1-3.57,2.43,11.76,11.76,0,0,1-4.4.87,11.35,11.35,0,0,1-4.35-.87,10.53,10.53,0,0,1-3.57-2.43,11.47,11.47,0,0,1-2.43-3.57,10.92,10.92,0,0,1-.87-4.4,11.64,11.64,0,0,1,.69-3.92,11.45,11.45,0,0,0,10.72,15.47C257.82,203.27,245,202.34,246.37,195.68Z"/><path class="cls-2" d="M225,196.15a11.47,11.47,0,0,0,2.43,3.57,10.53,10.53,0,0,0,3.57,2.43,11.35,11.35,0,0,0,4.35.87,11.76,11.76,0,0,0,4.4-.87,11.47,11.47,0,0,0,3.57-2.43,10.74,10.74,0,0,0,2.43-3.57,11.54,11.54,0,0,0,0-8.79,11.47,11.47,0,0,0-2.43-3.57,10.74,10.74,0,0,0-3.57-2.43,11.43,11.43,0,0,0-8.75,0,11.47,11.47,0,0,0-3.57,2.43l-.29.3a11.45,11.45,0,0,0-2.31,3.75,11.64,11.64,0,0,0-.69,3.92A10.92,10.92,0,0,0,225,196.15Zm3.85-7.24a7.87,7.87,0,0,1,1.51-2.34,8,8,0,0,1,2.24-1.6,6.18,6.18,0,0,1,2.75-.6,6,6,0,0,1,2.75.6,7.17,7.17,0,0,1,2.24,1.6,7.48,7.48,0,0,1,1.51,8,7.87,7.87,0,0,1-1.51,2.34,8,8,0,0,1-2.24,1.6,6.18,6.18,0,0,1-2.75.6,6.32,6.32,0,0,1-2.75-.6,6.51,6.51,0,0,1-2.24-1.6,7.33,7.33,0,0,1-1.51-2.34,7.64,7.64,0,0,1-.55-2.84A7.23,7.23,0,0,1,228.86,188.91Z"/><path class="cls-2" d="M439.1,200.84c-9,1.92-14.68-4.31-14.68-10.39a11,11,0,0,1,3.54-8.08l-.29.28a11,11,0,0,0-2.33,3.43,11,11,0,0,0,0,8.4,10.32,10.32,0,0,0,2.33,3.43,11,11,0,0,0,3.43,2.33,11.09,11.09,0,0,0,8.45,0,10.32,10.32,0,0,0,3.43-2.33,11,11,0,0,0,2.33-3.43,11.29,11.29,0,0,0,.84-4.22,10.9,10.9,0,0,0-.84-4.18,10.11,10.11,0,0,0-2.33-3.43,11,11,0,0,0-3.43-2.33,10.49,10.49,0,0,0-4.22-.84,11.18,11.18,0,0,0-3.77.67,11,11,0,0,1,14.86,10.3C446.4,211.84,445.51,199.48,439.1,200.84Z"/><path class="cls-2" d="M435.33,179.49a11.18,11.18,0,0,0-3.77.67,11,11,0,0,0-3.6,2.22l-.29.28a11,11,0,0,0-2.33,3.43,11,11,0,0,0,0,8.4,10.32,10.32,0,0,0,2.33,3.43,11,11,0,0,0,3.43,2.33,11.09,11.09,0,0,0,8.45,0,10.32,10.32,0,0,0,3.43-2.33,11,11,0,0,0,2.33-3.43,11.29,11.29,0,0,0,.84-4.22,10.9,10.9,0,0,0-.84-4.18,10.11,10.11,0,0,0-2.33-3.43,11,11,0,0,0-3.43-2.33A10.49,10.49,0,0,0,435.33,179.49Zm0,4A7.34,7.34,0,0,1,438,184a7,7,0,0,1,2.24,1.45,6.25,6.25,0,0,1,1.54,2.16,6.07,6.07,0,0,1,.57,2.64,5.94,5.94,0,0,1-.57,2.64,7.68,7.68,0,0,1-1.54,2.16,7.56,7.56,0,0,1-2.24,1.45,7,7,0,0,1-2.73.53,7.16,7.16,0,0,1-4.93-2,6.89,6.89,0,0,1-1.54-2.16,5.81,5.81,0,0,1-.57-2.64,5.94,5.94,0,0,1,.57-2.64,7.68,7.68,0,0,1,1.54-2.16A7.56,7.56,0,0,1,432.6,184,7,7,0,0,1,435.29,183.49Z"/><path class="cls-2" d="M307.06,344.56c18.91,54.28,70.38,64.32,102.75,44.71a68.35,68.35,0,0,0,31.64-45c-.18.81-.36,1.62-.58,2.43a68.66,68.66,0,0,1-10.76,23.51,68.4,68.4,0,0,1-44.79,27.13A64.3,64.3,0,0,1,359.51,396,68.67,68.67,0,0,1,336,385.27a69.1,69.1,0,0,1-27.27-45,64.31,64.31,0,0,1,1.35-25.82,68.66,68.66,0,0,1,10.76-23.51,70.38,70.38,0,0,1,19.81-18.09,67.92,67.92,0,0,1,25-9,63,63,0,0,1,25.82,1.35,68.67,68.67,0,0,1,23.51,10.76A65.38,65.38,0,0,1,433,295.72,69.66,69.66,0,0,1,441.66,318,68.56,68.56,0,0,0,338.79,272C224.9,341.16,293.64,306,307.06,344.56Z"/><path class="cls-2" d="M414.95,275.9a68.67,68.67,0,0,0-23.51-10.76,63,63,0,0,0-25.82-1.35,67.92,67.92,0,0,0-25,9,70.38,70.38,0,0,0-19.81,18.09,68.66,68.66,0,0,0-10.76,23.51,64.31,64.31,0,0,0-1.35,25.82,69.1,69.1,0,0,0,27.27,45A68.67,68.67,0,0,0,359.51,396a64.3,64.3,0,0,0,25.82,1.35,68.4,68.4,0,0,0,44.79-27.13,68.66,68.66,0,0,0,10.76-23.51c.22-.81.4-1.62.58-2.43a68.53,68.53,0,0,0,.21-26.35A69.66,69.66,0,0,0,433,295.72,65.38,65.38,0,0,0,414.95,275.9Zm2.75,49a47.14,47.14,0,0,1-.49,16.65,47.85,47.85,0,0,1-6.52,15.17,37,37,0,0,1-12.22,11.57,36.19,36.19,0,0,1-15.92,5.47,42.94,42.94,0,0,1-16.46-1.25,44.76,44.76,0,0,1-32.45-36.11,47.14,47.14,0,0,1,.49-16.65,47.86,47.86,0,0,1,6.52-15.17A37,37,0,0,1,352.86,293a37.83,37.83,0,0,1,15.92-5.47,39,39,0,0,1,16.46,1.25,43.88,43.88,0,0,1,15,7.27,45.72,45.72,0,0,1,11.62,12.83A43.31,43.31,0,0,1,417.69,324.88Z"/><path class="cls-1" d="M259.45,313.51c-20.42-53.73-72.15-62.33-104-41.82-16.74,10.79-25.08,29.52-30.37,45.83.26-.79.32-1.63.51-2.45a68.66,68.66,0,0,1,10.1-23.8,68.4,68.4,0,0,1,44-28.37,64.3,64.3,0,0,1,25.85.62,68.67,68.67,0,0,1,23.8,10.1,69.1,69.1,0,0,1,28.52,44.24,64.31,64.31,0,0,1-.62,25.85,68.66,68.66,0,0,1-10.1,23.8,70.38,70.38,0,0,1-19.3,18.64,67.92,67.92,0,0,1-24.71,9.74,63,63,0,0,1-25.85-.62,68.67,68.67,0,0,1-23.8-10.1,65.38,65.38,0,0,1-18.64-19.3,69.66,69.66,0,0,1-9.25-22,68.56,68.56,0,0,0,104.12,43C341.68,314.61,273.94,351.65,259.45,313.51Z"/><path class="cls-1" d="M153.53,385.16a68.67,68.67,0,0,0,23.8,10.1,63,63,0,0,0,25.85.62,67.92,67.92,0,0,0,24.71-9.74,70.38,70.38,0,0,0,19.3-18.64,68.66,68.66,0,0,0,10.1-23.8,64.31,64.31,0,0,0,.62-25.85,69.1,69.1,0,0,0-28.52-44.24,68.67,68.67,0,0,0-23.8-10.1,64.3,64.3,0,0,0-25.85-.62,68.4,68.4,0,0,0-44,28.37,68.66,68.66,0,0,0-10.1,23.8c-.2.81-.36,1.63-.51,2.45a68.53,68.53,0,0,0,.53,26.35,69.66,69.66,0,0,0,9.25,22A65.38,65.38,0,0,0,153.53,385.16Zm-4.12-48.88a47.14,47.14,0,0,1,0-16.65,47.85,47.85,0,0,1,6.09-15.34,37,37,0,0,1,11.89-11.91,36.19,36.19,0,0,1,15.76-5.92,42.94,42.94,0,0,1,16.49.78,44.76,44.76,0,0,1,33.45,35.19,47.14,47.14,0,0,1,0,16.65A47.86,47.86,0,0,1,227,354.43a37,37,0,0,1-11.89,11.91,37.83,37.83,0,0,1-15.76,5.92,39,39,0,0,1-16.49-.79,43.88,43.88,0,0,1-15.18-6.85,45.72,45.72,0,0,1-12-12.5A43.31,43.31,0,0,1,149.41,336.28Z"/><circle class="cls-2" cx="191.06" cy="329.75" r="12.42"/><circle class="cls-1" cx="376.54" cy="331.8" r="12.42"/><circle class="cls-2" cx="85.14" cy="106.91" r="8.72"/><circle class="cls-1" cx="404.86" cy="105.66" r="8.72"/><path id="_Trazado_" data-name="&lt;Trazado&gt;" class="cls-1" d="M161,143.16a28.66,28.66,0,0,1-10.24-6.4,25.66,25.66,0,0,1-6.56-10.08,36.94,36.94,0,0,1-2.24-13.12V71.63a3.28,3.28,0,0,1,3.2-3.2h8.16a3.28,3.28,0,0,1,3.2,3.2v41.76a20.66,20.66,0,0,0,1.92,9.44,21.36,21.36,0,0,0,4.48,5.92,16.08,16.08,0,0,0,5.92,3,26,26,0,0,0,3,.64,14.64,14.64,0,0,0,2.56.16,29.15,29.15,0,0,0,5.6-.8,13.13,13.13,0,0,0,5.92-3,16,16,0,0,0,4.64-5.92,20.66,20.66,0,0,0,1.92-9.44V71.63a3.28,3.28,0,0,1,3.2-3.2h8a2.91,2.91,0,0,1,2.24,1,3.16,3.16,0,0,1,1,2.24v41.92a32.39,32.39,0,0,1-.64,6.88,25.62,25.62,0,0,1-1.76,6.24,28.19,28.19,0,0,1-6.56,10.08,30.13,30.13,0,0,1-10.24,6.4,39.45,39.45,0,0,1-13.44,2.24A38.51,38.51,0,0,1,161,143.16Z"/><path id="_Trazado_2" data-name="&lt;Trazado&gt;" class="cls-1" d="M270.56,81.36h-15.4a2.72,2.72,0,0,0-2.27,1,4.07,4.07,0,0,0-1,2.27v57.21a3.32,3.32,0,0,1-3.24,3.24h-8.1a2.94,2.94,0,0,1-2.27-1,4.07,4.07,0,0,1-1-2.27V84.76a2.94,2.94,0,0,0-1-2.27,4.07,4.07,0,0,0-2.27-1H218.53a3.32,3.32,0,0,1-3.24-3.24V71.79a3.32,3.32,0,0,1,3.24-3.24h52a3.32,3.32,0,0,1,3.24,3.24v6.48a3.2,3.2,0,0,1-1,2.27A2.63,2.63,0,0,1,270.56,81.36Z"/><path id="_Trazado_compuesto_" data-name="&lt;Trazado compuesto&gt;" class="cls-1" d="M314.73,144.46A38.35,38.35,0,0,1,300,141.52a35.59,35.59,0,0,1-12.08-8.21,38.78,38.78,0,0,1-8.21-12.08,36.92,36.92,0,0,1-2.94-14.86,39.74,39.74,0,0,1,2.94-14.86,36.31,36.31,0,0,1,8.21-12.08A38.78,38.78,0,0,1,300,71.24a38.63,38.63,0,0,1,29.57,0,36.31,36.31,0,0,1,12.08,8.21,38.77,38.77,0,0,1,8.21,12.08,39,39,0,0,1,0,29.72,36.31,36.31,0,0,1-8.21,12.08,38.78,38.78,0,0,1-12.08,8.21A39.74,39.74,0,0,1,314.73,144.46Zm0-63a20.89,20.89,0,0,0-9.29,2,27,27,0,0,0-7.59,5.42,26.62,26.62,0,0,0-5.11,7.9,24.46,24.46,0,0,0-1.86,9.44,25.82,25.82,0,0,0,1.86,9.6,24.78,24.78,0,0,0,5.11,7.9,22,22,0,0,0,7.59,5.42,21.36,21.36,0,0,0,9.29,2,20.89,20.89,0,0,0,9.29-2,27,27,0,0,0,7.59-5.42,26.62,26.62,0,0,0,5.11-7.9,24.67,24.67,0,0,0,1.86-9.6,25,25,0,0,0-1.86-9.44,24.78,24.78,0,0,0-5.11-7.9A24.25,24.25,0,0,0,324,83.47,20.44,20.44,0,0,0,314.73,81.45Z"/><path id="_Trazado_3" data-name="&lt;Trazado&gt;" class="cls-2" d="M478.09,84.77V97.41a3.32,3.32,0,0,0,3.24,3.24H512a3.32,3.32,0,0,1,3.24,3.24v6.81a3.32,3.32,0,0,1-3.24,3.24H481.33a3.32,3.32,0,0,0-3.24,3.24v11.51a3.32,3.32,0,0,0,3.24,3.24h35.33a3.32,3.32,0,0,1,3.24,3.24v6.64a3.32,3.32,0,0,1-3.24,3.24H466.75a3.32,3.32,0,0,1-3.24-3.24V71.64a3.32,3.32,0,0,1,3.24-3.24h49.91a3.32,3.32,0,0,1,3.24,3.24v6.48a3.32,3.32,0,0,1-3.24,3.24H481.33a3.2,3.2,0,0,0-2.27,1A3.3,3.3,0,0,0,478.09,84.77Z"/><path class="cls-1" d="M122.27,119.65C129,87.9,107.1,68,85.73,68A38.59,38.59,0,0,0,57.29,80.44c.32-.34.65-.68,1-1a38.77,38.77,0,0,1,12.08-8.21,38.63,38.63,0,0,1,29.57,0A36.31,36.31,0,0,1,112,79.44a38.78,38.78,0,0,1,8.21,12.08,39,39,0,0,1,0,29.72A36.31,36.31,0,0,1,112,133.32a38.77,38.77,0,0,1-12.08,8.21,39.74,39.74,0,0,1-14.86,2.94,38.35,38.35,0,0,1-14.71-2.94,35.59,35.59,0,0,1-12.08-8.21,38.78,38.78,0,0,1-8.21-12.08,36.92,36.92,0,0,1-2.94-14.86,39.34,39.34,0,0,1,2.34-13.27A38.72,38.72,0,0,0,85.73,145.4C161,145.33,117.48,142.18,122.27,119.65Z"/><path class="cls-1" d="M50.08,121.24a38.78,38.78,0,0,0,8.21,12.08,35.59,35.59,0,0,0,12.08,8.21,38.35,38.35,0,0,0,14.71,2.94,39.74,39.74,0,0,0,14.86-2.94A38.77,38.77,0,0,0,112,133.32a36.31,36.31,0,0,0,8.21-12.08,39,39,0,0,0,0-29.72A38.78,38.78,0,0,0,112,79.44a36.31,36.31,0,0,0-12.08-8.21,38.63,38.63,0,0,0-29.57,0,38.77,38.77,0,0,0-12.08,8.21c-.34.33-.67.66-1,1a38.7,38.7,0,0,0-7.81,12.67,39.34,39.34,0,0,0-2.34,13.27A36.92,36.92,0,0,0,50.08,121.24Zm13-24.46a26.62,26.62,0,0,1,5.11-7.9,27,27,0,0,1,7.59-5.42,20.9,20.9,0,0,1,9.29-2,20.44,20.44,0,0,1,9.29,2,24.25,24.25,0,0,1,7.59,5.42,25.28,25.28,0,0,1,5.11,26.94,26.62,26.62,0,0,1-5.11,7.9,27,27,0,0,1-7.59,5.42,20.89,20.89,0,0,1-9.29,2,21.36,21.36,0,0,1-9.29-2,22,22,0,0,1-7.59-5.42,24.78,24.78,0,0,1-5.11-7.9,25.82,25.82,0,0,1-1.86-9.6A24.46,24.46,0,0,1,63.08,96.78Z"/><path class="cls-2" d="M417.82,142.79c-31.75,6.75-51.66-15.17-51.66-36.55a38.59,38.59,0,0,1,12.46-28.44c-.34.32-.68.65-1,1a38.77,38.77,0,0,0-8.21,12.08,38.63,38.63,0,0,0,0,29.57,36.31,36.31,0,0,0,8.21,12.08,38.78,38.78,0,0,0,12.08,8.21,39,39,0,0,0,29.72,0,36.31,36.31,0,0,0,12.08-8.21,38.77,38.77,0,0,0,8.21-12.08,39.74,39.74,0,0,0,2.94-14.86,38.35,38.35,0,0,0-2.94-14.71,35.59,35.59,0,0,0-8.21-12.08,38.78,38.78,0,0,0-12.08-8.21,36.92,36.92,0,0,0-14.86-2.94A39.34,39.34,0,0,0,391.28,70a38.72,38.72,0,0,1,52.28,36.25C443.5,181.49,440.35,138,417.82,142.79Z"/><path class="cls-2" d="M404.55,67.66A39.34,39.34,0,0,0,391.28,70a38.7,38.7,0,0,0-12.67,7.81c-.34.32-.68.65-1,1a38.77,38.77,0,0,0-8.21,12.08,38.63,38.63,0,0,0,0,29.57,36.31,36.31,0,0,0,8.21,12.08,38.78,38.78,0,0,0,12.08,8.21,39,39,0,0,0,29.72,0,36.31,36.31,0,0,0,12.08-8.21,38.77,38.77,0,0,0,8.21-12.08,39.74,39.74,0,0,0,2.94-14.86,38.35,38.35,0,0,0-2.94-14.71,35.59,35.59,0,0,0-8.21-12.08,38.78,38.78,0,0,0-12.08-8.21A36.92,36.92,0,0,0,404.55,67.66Zm-.15,14.09A25.82,25.82,0,0,1,414,83.6a24.78,24.78,0,0,1,7.9,5.11,22,22,0,0,1,5.42,7.59,21.36,21.36,0,0,1,2,9.29,20.89,20.89,0,0,1-2,9.29,27,27,0,0,1-5.42,7.59,26.62,26.62,0,0,1-7.9,5.11,24.66,24.66,0,0,1-9.6,1.86,25.19,25.19,0,0,1-17.34-7,24.25,24.25,0,0,1-5.42-7.59,20.44,20.44,0,0,1-2-9.29,20.9,20.9,0,0,1,2-9.29,27,27,0,0,1,5.42-7.59A26.62,26.62,0,0,1,395,83.6,24.46,24.46,0,0,1,404.4,81.75Z"/></svg>