<svg id="Capa_1" data-name="Capa 1" xmlns="http://www.w3.org/2000/svg" viewBox="0 0 551.82 156.26"><defs><style>.cls-1{fill:#122b40;stroke:#fffdfd;stroke-miterlimit:10;}.cls-2{fill:#74acdf;}.cls-3,.cls-4{fill:#212f41;}.cls-4{isolation:isolate;font-size:21.33px;font-family:GeometosRounded, Geometos Rounded;letter-spacing:0.55em;}.cls-5{letter-spacing:0.55em;}.cls-6{letter-spacing:0.58em;}.cls-7{letter-spacing:0.59em;}.cls-8{letter-spacing:0.57em;}.cls-9{letter-spacing:0.58em;}.cls-10{letter-spacing:0.59em;}</style></defs><title>autoqe_side</title><path id="_Trazado_compuesto_" data-name="&lt;Trazado compuesto&gt;" class="cls-1" d="M51.81,83.07h0a13.9,13.9,0,0,0-17.88-8.35h0C27.27,76.86,23,85,24.22,92.07l2.9,19L44,101.54C50.38,98.12,54,89.73,51.81,83.07Zm-15,8.72a4.75,4.75,0,1,1,4-8.6,5.11,5.11,0,0,1,2.27,6.32A4.61,4.61,0,0,1,36.8,91.79Z"/><path id="_Trazado_compuesto_2" data-name="&lt;Trazado compuesto&gt;" class="cls-2" d="M24.86,129.49h0a13.9,13.9,0,0,0,18.2,7.63h0c6.57-2.41,10.5-10.7,9-17.74l-3.67-18.9L31.91,110.71C25.68,114.39,22.45,122.92,24.86,129.49Zm14.64-9.32a4.75,4.75,0,1,1-3.7,8.75,5.11,5.11,0,0,1-2.53-6.23A4.61,4.61,0,0,1,39.51,120.17Z"/><path id="_Trazado_compuesto_3" data-name="&lt;Trazado compuesto&gt;" class="cls-1" d="M146.22,71.84h0a14.86,14.86,0,0,0-17.71,11.47h0C126.68,90.57,131.64,99,138.74,102l18.9,8.16.9-20.73C159.05,81.67,153.48,73.67,146.22,71.84Zm-.6,18.55a5.08,5.08,0,1,1-5.5-8.54,5.46,5.46,0,0,1,7,1.52A4.93,4.93,0,0,1,145.62,90.39Z"/><path id="_Trazado_compuesto_4" data-name="&lt;Trazado compuesto&gt;" class="cls-2" d="M146,138.5h0a13.9,13.9,0,0,0,16.37-11h0c1.6-6.82-3.17-14.65-9.86-17.27l-17.8-7.33-.51,19.4C133.85,129.52,139.19,136.91,146,138.5Zm.27-17.36a4.75,4.75,0,1,1-1.31,6.59A4.61,4.61,0,0,1,146.27,121.15Z"/><path id="_Trazado_compuesto_5" data-name="&lt;Trazado compuesto&gt;" class="cls-1" d="M56.83,83.47h0A9,9,0,0,0,66,74.63h0c.25-4.52-3.66-9-8.21-9.9L45.65,62.06l1.85,12.41C48.08,79.11,52.31,83.22,56.83,83.47ZM55.06,72.39a3.07,3.07,0,1,1-.1,4.34A3,3,0,0,1,55.06,72.39Z"/><path id="_Trazado_compuesto_6" data-name="&lt;Trazado compuesto&gt;" class="cls-1" d="M75.85,63.1h0a10.17,10.17,0,0,0-8.43,11.72h0c.64,5.08,5.9,9.24,11.16,9.34l14.08.49L88.08,71.22C86.48,66.17,80.93,62.47,75.85,63.1Zm4.23,12a3.48,3.48,0,1,1-.78-4.85A3.37,3.37,0,0,1,80.09,75.08Z"/><path id="_Trazado_compuesto_7" data-name="&lt;Trazado compuesto&gt;" class="cls-1" d="M103.64,83.61h0a10.17,10.17,0,0,0,7.64-12.24h0c-1-5-6.5-8.84-11.75-8.59l-14.08.43,5.45,13.11C92.84,81.24,98.61,84.58,103.64,83.61Zm-5-11.67a3.48,3.48,0,1,1,1.09,4.79A3.37,3.37,0,0,1,98.63,71.94Z"/><path id="_Trazado_compuesto_8" data-name="&lt;Trazado compuesto&gt;" class="cls-1" d="M112.43,76.18h0a9.27,9.27,0,0,0,10.22,8.29h0c4.66-.31,8.72-4.89,9.09-9.66L132.93,62l-12.47,3.46C115.79,66.67,112.12,71.52,112.43,76.18ZM123.55,73a3.17,3.17,0,1,1-4.46.45A3.08,3.08,0,0,1,123.55,73Z"/><path id="_Trazado_compuesto_9" data-name="&lt;Trazado compuesto&gt;" class="cls-1" d="M30.28,68.15h0a6.8,6.8,0,0,0,8,5.47h0c3.39-.5,6.1-4.08,6.08-7.6l.13-9.42-8.92,3.26A8,8,0,0,0,30.28,68.15Zm7.94-3A2.32,2.32,0,1,1,35.58,69,2.5,2.5,0,0,1,35,65.74,2.26,2.26,0,0,1,38.22,65.15Z"/><path id="_Trazado_compuesto_10" data-name="&lt;Trazado compuesto&gt;" class="cls-1" d="M25.57,48.3h0A6.8,6.8,0,0,0,25,57.93h0c2.17,2.65,6.63,3.14,9.64,1.33l8.15-4.72-7.37-6A8,8,0,0,0,25.57,48.3Zm6.65,5.28a2.5,2.5,0,0,1-2.47,2.16,2.32,2.32,0,0,1,.31-4.64A2.26,2.26,0,0,1,32.22,53.58Z"/><path id="_Trazado_compuesto_11" data-name="&lt;Trazado compuesto&gt;" class="cls-1" d="M50.7,41.37h0a6.8,6.8,0,0,0-9.64.45h0c-2.4,2.44-2.39,6.93-.26,9.73l5.59,7.58,5.14-8A8,8,0,0,0,50.7,41.37Zm-4.52,7.19a2.32,2.32,0,1,1,2.22-2.42A2.26,2.26,0,0,1,46.18,48.56Z"/><path id="_Trazado_compuesto_12" data-name="&lt;Trazado compuesto&gt;" class="cls-1" d="M150.72,51.16l-7.37,6,8.15,4.72c3,1.81,7.47,1.32,9.64-1.33h0a6.8,6.8,0,0,0-.62-9.63h0A8,8,0,0,0,150.72,51.16ZM156,53.71a2.32,2.32,0,1,1-2.16,2.47A2.26,2.26,0,0,1,156,53.71Z"/><path id="_Trazado_compuesto_13" data-name="&lt;Trazado compuesto&gt;" class="cls-1" d="M145,61.86h0a6.33,6.33,0,0,0-7.69-4.66h0c-3.12.64-5.45,4.12-5.26,7.39l.38,8.77,8.12-3.5A7.49,7.49,0,0,0,145,61.86Zm-7.23,3.21a2.17,2.17,0,1,1,3-.72A2.1,2.1,0,0,1,137.74,65.07Z"/><path id="_Trazado_compuesto_14" data-name="&lt;Trazado compuesto&gt;" class="cls-1" d="M146,70.71h0a3.91,3.91,0,0,0,5.5-.7h0a4.48,4.48,0,0,0-.3-5.58l-3.55-4.09-2.58,4.81A4.62,4.62,0,0,0,146,70.71Zm2.26-4.33a1.34,1.34,0,1,1-1.16,1.49A1.3,1.3,0,0,1,148.25,66.39Z"/><path id="_Trazado_compuesto_15" data-name="&lt;Trazado compuesto&gt;" class="cls-1" d="M51.6,30.85h0a4.41,4.41,0,0,0-6,1.65h0a5.07,5.07,0,0,0,1.21,6.2l4.61,4,2.13-5.79A5.22,5.22,0,0,0,51.6,30.85Zm-1.84,5.2a1.51,1.51,0,1,1,1.06-1.85A1.46,1.46,0,0,1,49.75,36.05Z"/><path id="_Trazado_compuesto_16" data-name="&lt;Trazado compuesto&gt;" class="cls-1" d="M52.57,43.34h0A3.17,3.17,0,0,0,57.06,43h0a3.64,3.64,0,0,0,0-4.54L54.4,35l-2.32,3.78A3.75,3.75,0,0,0,52.57,43.34Zm2-3.4a1.08,1.08,0,1,1-1,1.15A1.05,1.05,0,0,1,54.6,39.95Z"/><path id="_Trazado_compuesto_17" data-name="&lt;Trazado compuesto&gt;" class="cls-1" d="M61.48,40.43h0a3.17,3.17,0,0,0,2.31-3.86h0A3.64,3.64,0,0,0,60.08,34l-4.39.22,1.78,4.06A3.75,3.75,0,0,0,61.48,40.43Zm-1.63-3.61a1.08,1.08,0,1,1,.37,1.49A1.05,1.05,0,0,1,59.85,36.82Z"/><path id="_Trazado_compuesto_18" data-name="&lt;Trazado compuesto&gt;" class="cls-1" d="M65.07,83.77h0A18.79,18.79,0,0,0,51.43,106.7h0c2,9.25,12.36,16.07,22.05,15.4l26-1.35-10.6-24C85.12,87.72,74.32,81.78,65.07,83.77Zm9.72,21.36A6.91,6.91,0,0,1,66,107.35a6.42,6.42,0,0,1,6.6-11A6.24,6.24,0,0,1,74.79,105.14Z"/><path id="_Trazado_compuesto_19" data-name="&lt;Trazado compuesto&gt;" class="cls-1" d="M119.65,123.31h0a18.79,18.79,0,0,0,13.62-22.94h0c-2-9.25-12.37-16.06-22.06-15.39l-26,1.37,10.62,24C99.59,119.38,110.4,125.31,119.65,123.31ZM109.92,102a6.42,6.42,0,1,1,11,6.59,6.91,6.91,0,0,1-8.81,2.22A6.24,6.24,0,0,1,109.92,102Z"/><path id="_Trazado_compuesto_20" data-name="&lt;Trazado compuesto&gt;" class="cls-1" d="M83.48,17.55h0a6.67,6.67,0,0,0-5.53,7.69h0c.42,3.33,3.88,6.07,7.33,6.13l9.24.32-3-8.82A7.89,7.89,0,0,0,83.48,17.55Zm2.78,7.86a2.28,2.28,0,1,1-3.7-2.67,2.45,2.45,0,0,1,3.19-.51A2.21,2.21,0,0,1,86.26,25.41Z"/><path id="_Trazado_compuesto_21" data-name="&lt;Trazado compuesto&gt;" class="cls-1" d="M100.46,30.65h0a6,6,0,0,0,4.69-7h0c-.48-3-3.65-5.28-6.73-5.23H90.17l3,7.77A7,7,0,0,0,100.46,30.65Zm-2.73-6.91A2,2,0,1,1,101.11,26a2.19,2.19,0,0,1-2.82.56A2,2,0,0,1,97.73,23.73Z"/><path id="_Trazado_compuesto_22" data-name="&lt;Trazado compuesto&gt;" class="cls-1" d="M56.08,20.87h0a6.25,6.25,0,0,0-5.18,7.2h0c.39,3.12,3.63,5.68,6.86,5.74l8.65.3-2.82-8.26A7.38,7.38,0,0,0,56.08,20.87Zm2.6,7.35a2.14,2.14,0,1,1-3.46-2.5,2.3,2.3,0,0,1,3-.48A2.07,2.07,0,0,1,58.68,28.22Z"/><path id="_Trazado_compuesto_23" data-name="&lt;Trazado compuesto&gt;" class="cls-1" d="M72.86,31.82h0a6.25,6.25,0,0,0,4.7-7.52h0c-.6-3.09-4-5.43-7.22-5.28l-8.65.26L65,27.33A7.38,7.38,0,0,0,72.86,31.82Zm-3.08-7.17a2.14,2.14,0,1,1,3.62,2.27,2.3,2.3,0,0,1-2.94.67A2.07,2.07,0,0,1,69.79,24.65Z"/><path id="_Trazado_compuesto_24" data-name="&lt;Trazado compuesto&gt;" class="cls-1" d="M133,48.19l5.14,8,5.59-7.58c2.13-2.79,2.14-7.28-.26-9.73h0a6.8,6.8,0,0,0-9.64-.45h0A8,8,0,0,0,133,48.19Zm3.12-5a2.32,2.32,0,1,1,2.22,2.42A2.26,2.26,0,0,1,136.16,43.18Z"/><path id="_Trazado_compuesto_25" data-name="&lt;Trazado compuesto&gt;" class="cls-1" d="M133.52,31.61l.53,5,4.48-2.27a4.16,4.16,0,0,0,2.21-4.69h0a3.62,3.62,0,0,0-4.48-2.52h0A4.28,4.28,0,0,0,133.52,31.61ZM136.2,30a1.24,1.24,0,1,1,.48,1.69A1.2,1.2,0,0,1,136.2,30Z"/><path id="_Trazado_compuesto_26" data-name="&lt;Trazado compuesto&gt;" class="cls-1" d="M133.94,36.34l-1.22-4.13-3.5,2.48A3.41,3.41,0,0,0,128,38.9h0a3.26,3.26,0,0,0,4.24,1.52h0A3.51,3.51,0,0,0,133.94,36.34Zm-2.06,1.72a1.15,1.15,0,0,1-1.38.62,1.14,1.14,0,0,1-.67-1.35,1.15,1.15,0,0,1,1.38-.62A1,1,0,0,1,131.88,38.06Z"/><path id="_Trazado_compuesto_27" data-name="&lt;Trazado compuesto&gt;" class="cls-1" d="M141.57,52.51l-1,3.82,3.92-.48A3.27,3.27,0,0,0,147.42,53h0a2.82,2.82,0,0,0-2.63-3h0A3.37,3.37,0,0,0,141.57,52.51ZM144,52a1.05,1.05,0,0,1,1.37.1,1,1,0,0,1-.1,1.36,1.05,1.05,0,0,1-1.37-.1A.93.93,0,0,1,144,52Z"/><path id="_Trazado_compuesto_28" data-name="&lt;Trazado compuesto&gt;" class="cls-1" d="M110.38,68.45l2.39,3.14,2.07-3.36a3.27,3.27,0,0,0-.42-4h0a2.82,2.82,0,0,0-4,.16h0A3.37,3.37,0,0,0,110.38,68.45Zm1.13-2.2a1.05,1.05,0,0,1,.93-1,1,1,0,0,1,1,.93,1.05,1.05,0,0,1-.93,1A.93.93,0,0,1,111.52,66.25Z"/><path id="_Trazado_compuesto_29" data-name="&lt;Trazado compuesto&gt;" class="cls-1" d="M121.59,24.62l-4.92,7.2,8.41,2c3.13.81,6.93-.79,8.14-3.69h0a6.25,6.25,0,0,0-3.06-8.32h0A7.38,7.38,0,0,0,121.59,24.62Zm5.35.85a2.3,2.3,0,0,1,2.74,1.26,2.14,2.14,0,1,1-4,1.49A2.07,2.07,0,0,1,126.94,25.48Z"/><path id="_Trazado_compuesto_30" data-name="&lt;Trazado compuesto&gt;" class="cls-1" d="M117.93,27.14l5.2-7-8.33-2.35c-3.09-.93-7,.52-8.28,3.37h0a6.25,6.25,0,0,0,2.74,8.44h0A7.38,7.38,0,0,0,117.93,27.14Zm-5.32-1.06a2.3,2.3,0,0,1-2.69-1.36A2.14,2.14,0,1,1,114,23.38,2.07,2.07,0,0,1,112.61,26.08Z"/><g id="_Grupo_" data-name="&lt;Grupo&gt;"><g id="_Grupo_2" data-name="&lt;Grupo&gt;"><path id="_Trazado_compuesto_31" data-name="&lt;Trazado compuesto&gt;" class="cls-3" d="M193.28,86.48l27-53.75a1.75,1.75,0,0,1,3.12,0l26.88,53.75a1.29,1.29,0,0,1,.12,1.44c-.24.48-.72.6-1.32.6H242a4.87,4.87,0,0,1-2-.6,5.87,5.87,0,0,1-1.44-1.56l-2.28-4.68a4.14,4.14,0,0,0-1.44-1.44,3,3,0,0,0-1.92-.6H210.8a4.87,4.87,0,0,0-2,.6,5.87,5.87,0,0,0-1.44,1.56L205,86.36a5.87,5.87,0,0,1-1.44,1.56,3,3,0,0,1-1.92.6H194.6a1.55,1.55,0,0,1-1.32-.6A1.51,1.51,0,0,1,193.28,86.48ZM216,70.28h11.52a1.55,1.55,0,0,0,1.32-.6,1.52,1.52,0,0,0,0-1.44l-6-12.84c-.24-.6-.6-1-1.08-1s-.72.36-1.08,1l-6.12,12.84a1.77,1.77,0,0,0,0,1.56A2.57,2.57,0,0,0,216,70.28Z"/><path id="_Trazado_" data-name="&lt;Trazado&gt;" class="cls-3" d="M268.63,87.92a21.49,21.49,0,0,1-7.68-4.8A19.24,19.24,0,0,1,256,75.56a27.7,27.7,0,0,1-1.68-9.84V34.29a2.46,2.46,0,0,1,2.4-2.4h6.12a2.46,2.46,0,0,1,2.4,2.4V65.6a15.49,15.49,0,0,0,1.44,7.08,16,16,0,0,0,3.36,4.44,12.06,12.06,0,0,0,4.44,2.28,19.5,19.5,0,0,0,2.28.48,11,11,0,0,0,1.92.12,21.86,21.86,0,0,0,4.2-.6,9.84,9.84,0,0,0,4.44-2.28,12,12,0,0,0,3.48-4.44,15.49,15.49,0,0,0,1.44-7.08V34.29a2.46,2.46,0,0,1,2.4-2.4h6a2.18,2.18,0,0,1,1.68.72,2.37,2.37,0,0,1,.72,1.68V65.72a24.29,24.29,0,0,1-.48,5.16,19.21,19.21,0,0,1-1.32,4.68,21.14,21.14,0,0,1-4.92,7.56,22.6,22.6,0,0,1-7.68,4.8,29.58,29.58,0,0,1-10.08,1.68A28.88,28.88,0,0,1,268.63,87.92Z"/><path id="_Trazado_2" data-name="&lt;Trazado&gt;" class="cls-3" d="M350.7,41.37H339.3a2,2,0,0,0-1.68.72,3,3,0,0,0-.72,1.68V86.12a2.46,2.46,0,0,1-2.4,2.4h-6a2.18,2.18,0,0,1-1.68-.72,3,3,0,0,1-.72-1.68V43.89a2.18,2.18,0,0,0-.72-1.68,3,3,0,0,0-1.68-.72H312.19a2.46,2.46,0,0,1-2.4-2.4v-4.8a2.46,2.46,0,0,1,2.4-2.4H350.7a2.46,2.46,0,0,1,2.4,2.4v4.8a2.37,2.37,0,0,1-.72,1.68A2,2,0,0,1,350.7,41.37Z"/><path id="_Trazado_compuesto_32" data-name="&lt;Trazado compuesto&gt;" class="cls-3" d="M385.86,89.72a29.72,29.72,0,0,1-11.4-2.28,27.58,27.58,0,0,1-9.36-6.36,30.05,30.05,0,0,1-6.36-9.36,28.61,28.61,0,0,1-2.28-11.52,30.8,30.8,0,0,1,2.28-11.52,28.14,28.14,0,0,1,6.36-9.36A30.05,30.05,0,0,1,374.46,33a29.94,29.94,0,0,1,22.92,0,28.14,28.14,0,0,1,9.36,6.36,30.05,30.05,0,0,1,6.36,9.36,28.61,28.61,0,0,1,2.28,11.52,28.61,28.61,0,0,1-2.28,11.52,28.14,28.14,0,0,1-6.36,9.36,30.05,30.05,0,0,1-9.36,6.36A30.8,30.8,0,0,1,385.86,89.72Zm0-48.83a16.19,16.19,0,0,0-7.2,1.56,20.94,20.94,0,0,0-5.88,4.2,20.63,20.63,0,0,0-4,6.12,19,19,0,0,0-1.44,7.32,20,20,0,0,0,1.44,7.44,19.21,19.21,0,0,0,4,6.12,17.05,17.05,0,0,0,5.88,4.2,16.56,16.56,0,0,0,7.2,1.56,16.19,16.19,0,0,0,7.2-1.56,20.94,20.94,0,0,0,5.88-4.2,20.63,20.63,0,0,0,4-6.12,19.12,19.12,0,0,0,1.44-7.44,19.4,19.4,0,0,0-1.44-7.32,19.21,19.21,0,0,0-4-6.12,18.79,18.79,0,0,0-5.88-4.2A15.84,15.84,0,0,0,385.86,40.89Z"/><path id="_Trazado_compuesto_33" data-name="&lt;Trazado compuesto&gt;" class="cls-2" d="M481.13,81.08v5.16a2.46,2.46,0,0,1-2.4,2.4h-25.8a40,40,0,0,1-13.8-2.28,25.62,25.62,0,0,1-9.6-6.24A24.41,24.41,0,0,1,423.89,71a35.25,35.25,0,0,1-1.8-11.28,27.88,27.88,0,0,1,2.28-11.28,30.61,30.61,0,0,1,6.24-9.24A31.6,31.6,0,0,1,439.73,33,30,30,0,0,1,451,30.69,28.29,28.29,0,0,1,462.29,33a28.66,28.66,0,0,1,9.12,6.24,30.61,30.61,0,0,1,6.24,9.24,27.09,27.09,0,0,1,2.28,11.28,29.65,29.65,0,0,1-.6,5.28,27.8,27.8,0,0,1-1.92,5.28A23.36,23.36,0,0,1,474,75a15.68,15.68,0,0,1-1.44,1.32,20.35,20.35,0,0,1-1.68,1.2c-1.2.84-1.08,1.2.36,1.2h7.44a2.46,2.46,0,0,1,2.4,2.4ZM433,59.73a17.78,17.78,0,0,0,1.44,7.08,17.31,17.31,0,0,0,3.84,5.76,18.49,18.49,0,0,0,5.76,4.08,16.81,16.81,0,0,0,7,1.44,17.37,17.37,0,0,0,7.08-1.44,15.84,15.84,0,0,0,5.64-4.08,16.73,16.73,0,0,0,3.84-5.76A17.37,17.37,0,0,0,469,59.73a18.36,18.36,0,0,0-1.44-7.2,16.18,16.18,0,0,0-3.84-5.76,20,20,0,0,0-5.64-4A17.37,17.37,0,0,0,451,41.37a16.41,16.41,0,0,0-7,1.44,19.67,19.67,0,0,0-5.76,4,16.73,16.73,0,0,0-3.84,5.76A19.26,19.26,0,0,0,433,59.73Z"/><path id="_Trazado_3" data-name="&lt;Trazado&gt;" class="cls-2" d="M500,43.89v9.36a2.46,2.46,0,0,0,2.4,2.4H525a2.46,2.46,0,0,1,2.4,2.4v5a2.46,2.46,0,0,1-2.4,2.4H502.36a2.46,2.46,0,0,0-2.4,2.4V76.4a2.46,2.46,0,0,0,2.4,2.4h26.16a2.46,2.46,0,0,1,2.4,2.4v4.92a2.46,2.46,0,0,1-2.4,2.4h-37a2.46,2.46,0,0,1-2.4-2.4v-52a2.46,2.46,0,0,1,2.4-2.4h37a2.46,2.46,0,0,1,2.4,2.4V39a2.46,2.46,0,0,1-2.4,2.4H502.36a2.37,2.37,0,0,0-1.68.72A2.44,2.44,0,0,0,500,43.89Z"/></g><text class="cls-4" transform="translate(191.03 121.18)">A<tspan class="cls-5" x="28.17" y="0">U</tspan><tspan class="cls-6" x="56.78" y="0">T</tspan><tspan class="cls-7" x="82.37" y="0">O </tspan><tspan class="cls-8" x="133.05" y="0">A</tspan><tspan class="cls-7" x="161.71" y="0">L </tspan><tspan class="cls-9" x="207.46" y="0">T</tspan><tspan class="cls-10" x="233.05" y="0">OQUE</tspan></text></g></svg>