<svg id="Capa_1" data-name="Capa 1" xmlns="http://www.w3.org/2000/svg" viewBox="0 0 113.39 115">
    <defs>
        <style>
            .cls-1{fill:#fff;}.cls-2{fill:#122b40;}.cls-2,.cls-4{stroke:#122b40;stroke-miterlimit:10;}.cls-3{fill:#74acdf;}.cls-4{fill:none;stroke-linecap:round;stroke-width:6px;}
        </style>
    </defs>
    <title>autoq_circ</title>
    <circle class="cls-1" cx="56.69" cy="57.82" r="56.69"/>
    <path class="cls-2"
          d="M88.5,35.23A30.61,30.61,0,0,0,81,23.79a29.16,29.16,0,0,0-10.89-6.73,42.1,42.1,0,0,0-13.48-2.13,33.3,33.3,0,0,0-13.48,2.74,36.55,36.55,0,0,0-11,7.47A37.74,37.74,0,0,0,24.73,36,35.89,35.89,0,0,0,22,49.51,33.79,33.79,0,0,0,24.77,63a34.23,34.23,0,0,0,7.47,10.88,36.55,36.55,0,0,0,11,7.44A32.35,32.35,0,0,0,56.76,84a35.42,35.42,0,0,0,6.34-.72c2.15-.58,5.61-1.86,7.26-.34l21,17.13L91.3,51.71A47.82,47.82,0,0,0,88.5,35.23Z"/>
    <path class="cls-3"
          d="M50.57,69.39l26.9,10.26.14-28.84c.44-10.2-7.93-20.81-17.87-22.67a20.49,20.49,0,0,0-23.9,16.37h0C34,54.48,40.86,66.1,50.57,69.39ZM47.88,52.74a9.37,9.37,0,1,1,13,2.43h0a9.38,9.38,0,0,1-13-2.43Z"/>
    <line class="cls-4" x1="62.62" y1="48.77" x2="62.62" y2="73.7"/>
</svg>