<svg id="Capa_1" data-name="Capa 1" xmlns="http://www.w3.org/2000/svg" viewBox="0 0 113.39 115">
    <defs>
        <style>
            .cls-1{fill:#122b40;}.cls-1,.cls-3{stroke:#122b40;stroke-miterlimit:10;}.cls-2{fill:#74acdf;}.cls-3{fill:none;stroke-linecap:round;stroke-width:6px;}
        </style>
    </defs>
    <title>autoqe</title>
    <path class="cls-1"
          d="M98,28.56A39.77,39.77,0,0,0,88.33,13.7,37.89,37.89,0,0,0,74.18,4.95,54.71,54.71,0,0,0,56.66,2.18,43.28,43.28,0,0,0,39.15,5.73a47.5,47.5,0,0,0-14.32,9.71A49,49,0,0,0,15.16,29.6a46.63,46.63,0,0,0-3.51,17.52,43.91,43.91,0,0,0,3.57,17.52,44.48,44.48,0,0,0,9.71,14.14,47.5,47.5,0,0,0,14.35,9.66A42,42,0,0,0,56.79,92,46,46,0,0,0,65,91c2.79-.75,7.29-2.42,9.43-.44l27.28,22.26L101.66,50A62.14,62.14,0,0,0,98,28.56Z"/>
    <path class="cls-2"
          d="M48.74,73l35,13.33.19-37.47c.57-13.25-10.3-27-23.22-29.46A26.62,26.62,0,0,0,29.6,40.63h0C27.17,53.58,36.12,68.67,48.74,73ZM45.25,51.31a12.18,12.18,0,1,1,16.93,3.16h0a12.19,12.19,0,0,1-16.94-3.16Z"/>
    <line class="cls-3" x1="64.4" y1="46.16" x2="64.4" y2="78.56"/>
</svg>