<svg id="Capa_1" data-name="Capa 1" xmlns="http://www.w3.org/2000/svg" viewBox="0 0 422.46 141.73"><defs><style>.cls-1{fill:#74acdf;}.cls-2{fill:#122b40;}</style></defs><title>autoqe_txt_1</title><polygon class="cls-1" points="212.41 75.81 210.05 74.67 212.41 75.81 212.41 75.81"/><path id="_Trazado_" data-name="&lt;Trazado&gt;" class="cls-2" d="M102.87,79.22A21.89,21.89,0,0,1,95,74.33a19.6,19.6,0,0,1-5-7.7,28.22,28.22,0,0,1-1.71-10v-32a2.51,2.51,0,0,1,2.44-2.44H97a2.51,2.51,0,0,1,2.44,2.44v31.9a15.78,15.78,0,0,0,1.47,7.21,16.32,16.32,0,0,0,3.42,4.52,12.28,12.28,0,0,0,4.52,2.32,19.86,19.86,0,0,0,2.32.49,11.19,11.19,0,0,0,2,.12,22.27,22.27,0,0,0,4.28-.61,10,10,0,0,0,4.52-2.32,12.2,12.2,0,0,0,3.54-4.52,15.78,15.78,0,0,0,1.47-7.21V24.59a2.51,2.51,0,0,1,2.44-2.44h6.11a2.22,2.22,0,0,1,1.71.73,2.41,2.41,0,0,1,.73,1.71v32a24.74,24.74,0,0,1-.49,5.26,19.57,19.57,0,0,1-1.34,4.77,21.53,21.53,0,0,1-5,7.7,23,23,0,0,1-7.82,4.89A30.14,30.14,0,0,1,113,80.94,29.42,29.42,0,0,1,102.87,79.22Z"/><path id="_Trazado_2" data-name="&lt;Trazado&gt;" class="cls-2" d="M192.86,32.13h-12a2.12,2.12,0,0,0-1.77.76,3.18,3.18,0,0,0-.76,1.77V79.27a2.59,2.59,0,0,1-2.53,2.53h-6.32a2.29,2.29,0,0,1-1.77-.76,3.18,3.18,0,0,1-.76-1.77V34.78a2.29,2.29,0,0,0-.76-1.77,3.18,3.18,0,0,0-1.77-.76H152.29a2.59,2.59,0,0,1-2.53-2.53V24.67a2.59,2.59,0,0,1,2.53-2.53h40.57a2.59,2.59,0,0,1,2.53,2.53v5.06a2.5,2.5,0,0,1-.76,1.77A2.05,2.05,0,0,1,192.86,32.13Z"/><path id="_Trazado_compuesto_" data-name="&lt;Trazado compuesto&gt;" class="cls-2" d="M236.24,81.8a30.14,30.14,0,0,1-11.56-2.31A28,28,0,0,1,215.19,73a30.47,30.47,0,0,1-6.45-9.49,29,29,0,0,1-2.31-11.68,31.23,31.23,0,0,1,2.31-11.68,28.54,28.54,0,0,1,6.45-9.49,30.47,30.47,0,0,1,9.49-6.45,30.36,30.36,0,0,1,23.24,0,28.54,28.54,0,0,1,9.49,6.45,30.47,30.47,0,0,1,6.45,9.49,29,29,0,0,1,2.31,11.68,29,29,0,0,1-2.31,11.68A28.54,28.54,0,0,1,257.41,73a30.47,30.47,0,0,1-9.49,6.45A31.23,31.23,0,0,1,236.24,81.8Zm0-49.52a16.42,16.42,0,0,0-7.3,1.58,21.24,21.24,0,0,0-6,4.26,20.92,20.92,0,0,0-4,6.2,19.22,19.22,0,0,0-1.46,7.42A20.29,20.29,0,0,0,219,59.29a19.47,19.47,0,0,0,4,6.2,17.29,17.29,0,0,0,6,4.26,16.79,16.79,0,0,0,7.3,1.58,16.42,16.42,0,0,0,7.3-1.58,21.24,21.24,0,0,0,6-4.26,20.92,20.92,0,0,0,4-6.2A19.39,19.39,0,0,0,255,51.75a19.67,19.67,0,0,0-1.46-7.42,19.47,19.47,0,0,0-4-6.2,19.06,19.06,0,0,0-6-4.26A16.06,16.06,0,0,0,236.24,32.28Z"/><path id="_Trazado_3" data-name="&lt;Trazado&gt;" class="cls-1" d="M371.54,34.82v9.89a2.6,2.6,0,0,0,2.53,2.53h24a2.6,2.6,0,0,1,2.53,2.53V55.1A2.6,2.6,0,0,1,398,57.64h-24a2.6,2.6,0,0,0-2.53,2.53v9a2.6,2.6,0,0,0,2.53,2.53h27.63a2.6,2.6,0,0,1,2.53,2.53v5.2A2.6,2.6,0,0,1,401.71,82h-39a2.6,2.6,0,0,1-2.53-2.53V24.56A2.6,2.6,0,0,1,362.67,22h39a2.6,2.6,0,0,1,2.53,2.53v5.07a2.6,2.6,0,0,1-2.53,2.53H374.08a2.5,2.5,0,0,0-1.77.76A2.58,2.58,0,0,0,371.54,34.82Z"/><path class="cls-2" d="M77.3,52.49h0c0-.4,0-.8,0-1.2A29.57,29.57,0,1,0,65.83,74.68h0L77.3,83.15Zm-10.9-1.19A18.62,18.62,0,1,1,47.77,32.67,18.62,18.62,0,0,1,66.39,51.29Z"/><path class="cls-1" d="M308.33,32.08a18.86,18.86,0,0,1,15,30.28l14.89,7.23V52c0-.34,0-.68,0-1A29.93,29.93,0,0,0,280,41.33l10.08,4.89A18.87,18.87,0,0,1,308.33,32.08Z"/><polygon class="cls-1" points="338.24 105.63 338.24 80.8 327.29 80.8 338.24 105.63"/><path class="cls-2" d="M338.23,80.8h17.49l-17.49-8.54-2.39-1.17L332,69.19l-10.29-5a18.83,18.83,0,0,1-32.08-15.54v0l-10.3-5a30,30,0,0,0-.91,7.31v0A29.91,29.91,0,0,0,308.3,80.82c.41,0,.81,0,1.22,0h28.72Z"/><path class="cls-2" d="M60.14,121.38a6.74,6.74,0,0,1-2.4-1.5,6.35,6.35,0,0,1-1.55-2.35,8.37,8.37,0,0,1-.53-3.08v-9.81a.72.72,0,0,1,.22-.53.7.7,0,0,1,.51-.22H58.3a.74.74,0,0,1,.75.75v9.78a4.92,4.92,0,0,0,.44,2.2A4.42,4.42,0,0,0,60.55,118a3.62,3.62,0,0,0,1.38.7q.39.1.71.15a4.25,4.25,0,0,0,.62,0,5.54,5.54,0,0,0,1.31-.19A3.22,3.22,0,0,0,66,118,4,4,0,0,0,67,116.63a4.92,4.92,0,0,0,.44-2.2v-9.78a.74.74,0,0,1,.75-.75h1.89a.74.74,0,0,1,.75.75v9.81a9.37,9.37,0,0,1-.13,1.61,8,8,0,0,1-.4,1.46,6.8,6.8,0,0,1-1.53,2.35,7,7,0,0,1-2.4,1.5,8.68,8.68,0,0,1-3.15.53A8.49,8.49,0,0,1,60.14,121.38Z"/><path class="cls-2" d="M100.35,106.87H96.79a.74.74,0,0,0-.75.75v13.22a.74.74,0,0,1-.75.75H93.39a.74.74,0,0,1-.75-.75V107.62a.74.74,0,0,0-.75-.75H88.31a.74.74,0,0,1-.75-.75v-1.5a.74.74,0,0,1,.75-.75h12a.74.74,0,0,1,.75.75v1.5a.74.74,0,0,1-.75.75Z"/><path class="cls-2" d="M124.62,122.11a8.85,8.85,0,0,1-3.56-.73,9.29,9.29,0,0,1-4.89-4.89,9.17,9.17,0,0,1,0-7.16,9.26,9.26,0,0,1,4.89-4.9,9.15,9.15,0,0,1,7.14,0,9.26,9.26,0,0,1,4.89,4.9,9.17,9.17,0,0,1,0,7.16,9.29,9.29,0,0,1-4.89,4.89A8.91,8.91,0,0,1,124.62,122.11Zm0-15.23a5.23,5.23,0,0,0-2.26.5,6.15,6.15,0,0,0-1.84,1.32,6.24,6.24,0,0,0-1.24,1.93,6,6,0,0,0,0,4.59,6.45,6.45,0,0,0,1.24,1.93,6,6,0,0,0,1.84,1.33,5.39,5.39,0,0,0,4.52,0,6,6,0,0,0,1.84-1.33A6.42,6.42,0,0,0,130,115.2a6,6,0,0,0,0-4.59,6.22,6.22,0,0,0-1.24-1.93,6.15,6.15,0,0,0-1.84-1.32A5.23,5.23,0,0,0,124.64,106.87Z"/><path class="cls-2" d="M216.61,119.35v1.5a.74.74,0,0,1-.75.75H204.59a.75.75,0,0,1-.75-.75V104.62a.75.75,0,0,1,.75-.75h1.89a.74.74,0,0,1,.75.75v13.22a.74.74,0,0,0,.75.75h7.87a.74.74,0,0,1,.75.75Z"/><path class="cls-2" d="M41.61,113.45h0c0-.12,0-.24,0-.37a9,9,0,1,0-3.5,7.12h0l3.49,2.58Zm-3.32-.36a5.67,5.67,0,1,1-5.67-5.67A5.67,5.67,0,0,1,38.3,113.09Z"/><path class="cls-2" d="M189.23,113.45h0c0-.12,0-.24,0-.37a9,9,0,1,0-3.5,7.12h0l3.49,2.58Zm-3.32-.36a5.67,5.67,0,1,1-5.67-5.67A5.67,5.67,0,0,1,185.91,113.09Z"/><path class="cls-2" d="M266.36,107h-3.68a.77.77,0,0,0-.77.78V121.4a.77.77,0,0,1-.78.78h-2a.75.75,0,0,1-.55-.23.74.74,0,0,1-.22-.55V107.75a.77.77,0,0,0-.78-.78h-3.7a.77.77,0,0,1-.78-.78v-1.55a.77.77,0,0,1,.78-.78h12.43a.77.77,0,0,1,.78.78v1.55a.77.77,0,0,1-.78.78Z"/><path class="cls-2" d="M293.79,122.23a8.85,8.85,0,0,1-3.56-.73,9.29,9.29,0,0,1-4.89-4.89,9.18,9.18,0,0,1,0-7.16,9.26,9.26,0,0,1,4.89-4.9,9.15,9.15,0,0,1,7.14,0,9.26,9.26,0,0,1,4.89,4.9,9.18,9.18,0,0,1,0,7.16,9.29,9.29,0,0,1-4.89,4.89A8.91,8.91,0,0,1,293.79,122.23Zm0-15.23a5.23,5.23,0,0,0-2.26.5,6.14,6.14,0,0,0-1.84,1.32,6.23,6.23,0,0,0-1.24,1.93,6,6,0,0,0,0,4.59,6.43,6.43,0,0,0,1.24,1.93,6,6,0,0,0,1.84,1.33,5.39,5.39,0,0,0,4.52,0,6,6,0,0,0,1.84-1.33,6.43,6.43,0,0,0,1.24-1.93,6,6,0,0,0,0-4.59,6.23,6.23,0,0,0-1.24-1.93,6.16,6.16,0,0,0-1.84-1.32A5.23,5.23,0,0,0,293.8,107Z"/><path class="cls-2" d="M359.71,121.38a6.74,6.74,0,0,1-2.4-1.5,6.35,6.35,0,0,1-1.55-2.35,8.34,8.34,0,0,1-.53-3.08v-9.81a.73.73,0,0,1,.22-.53.7.7,0,0,1,.51-.22h1.91a.74.74,0,0,1,.75.75v9.78a4.92,4.92,0,0,0,.44,2.2,4.42,4.42,0,0,0,1.07,1.38,3.61,3.61,0,0,0,1.38.7q.39.1.71.15a4.25,4.25,0,0,0,.62,0,5.53,5.53,0,0,0,1.31-.19,3.22,3.22,0,0,0,1.38-.7,4,4,0,0,0,1.09-1.38,4.92,4.92,0,0,0,.44-2.2v-9.78a.74.74,0,0,1,.75-.75h1.89a.74.74,0,0,1,.75.75v9.81a9.37,9.37,0,0,1-.13,1.61,8,8,0,0,1-.4,1.46,6.79,6.79,0,0,1-1.53,2.35,7,7,0,0,1-2.4,1.5,8.68,8.68,0,0,1-3.15.53A8.48,8.48,0,0,1,359.71,121.38Z"/><path class="cls-2" d="M394.58,107.62v2.93a.74.74,0,0,0,.75.75h7.07a.74.74,0,0,1,.75.75v1.57a.74.74,0,0,1-.75.75h-7.07a.74.74,0,0,0-.75.75v2.66a.74.74,0,0,0,.75.75h8.16a.74.74,0,0,1,.75.75v1.55a.74.74,0,0,1-.75.75H391.94a.75.75,0,0,1-.75-.75V104.62a.75.75,0,0,1,.75-.75h11.55a.74.74,0,0,1,.75.75v1.5a.74.74,0,0,1-.75.75h-8.16a.74.74,0,0,0-.75.75Z"/><path class="cls-2" d="M331.15,117.66a5.82,5.82,0,0,1-9.29-4.51l-3.3-1.6a9.23,9.23,0,0,0,9.11,10.69,9.19,9.19,0,0,0,5.16-1.58l4.06,9.21v-9.41Z"/><path class="cls-2" d="M321.9,112.34a5.82,5.82,0,1,1,9.87,4.79l5.13,2.49v-6.31c0-.11,0-.21,0-.32a9.23,9.23,0,0,0-18.19-2.21Z"/></svg>