<svg id="Capa_1" data-name="Capa 1" xmlns="http://www.w3.org/2000/svg" viewBox="0 0 566.93 445.07"><defs><style>.cls-1{fill:#212f41;}.cls-2,.cls-3{fill:#85a9db;}.cls-3{stroke:#85a9db;stroke-miterlimit:10;}</style></defs><title>autoqe_both</title><path class="cls-1" d="M102,394.75a8.12,8.12,0,0,1-2.89-1.81,7.66,7.66,0,0,1-1.87-2.83,10.08,10.08,0,0,1-.64-3.71V374.58a.87.87,0,0,1,.26-.64.84.84,0,0,1,.61-.26h2.31a.9.9,0,0,1,.9.9v11.79a5.93,5.93,0,0,0,.53,2.66,5.33,5.33,0,0,0,1.28,1.66,4.36,4.36,0,0,0,1.66.85q.47.12.86.18a5.12,5.12,0,0,0,.74.06,6.68,6.68,0,0,0,1.58-.23,3.89,3.89,0,0,0,1.66-.85,4.76,4.76,0,0,0,1.31-1.66,5.93,5.93,0,0,0,.53-2.66V374.58a.9.9,0,0,1,.91-.9h2.28a.9.9,0,0,1,.9.9V386.4a11.3,11.3,0,0,1-.16,1.94,9.66,9.66,0,0,1-.48,1.77,8.19,8.19,0,0,1-1.84,2.83,8.49,8.49,0,0,1-2.89,1.81,10.47,10.47,0,0,1-3.8.64A10.23,10.23,0,0,1,102,394.75Z"/><path class="cls-1" d="M150.5,377.26H146.2a.9.9,0,0,0-.9.9v15.94a.9.9,0,0,1-.9.9h-2.28a.9.9,0,0,1-.9-.9V378.17a.9.9,0,0,0-.9-.9H136a.9.9,0,0,1-.9-.9v-1.81a.9.9,0,0,1,.9-.9H150.5a.9.9,0,0,1,.9.9v1.81a.9.9,0,0,1-.9.9Z"/><path class="cls-1" d="M181.33,395.42a10.66,10.66,0,0,1-4.29-.88,11.2,11.2,0,0,1-5.9-5.9,11.06,11.06,0,0,1,0-8.63,11.16,11.16,0,0,1,5.9-5.91,11,11,0,0,1,8.61,0,11.16,11.16,0,0,1,5.9,5.91,11.06,11.06,0,0,1,0,8.63,11.2,11.2,0,0,1-5.9,5.9A10.74,10.74,0,0,1,181.33,395.42Zm0-18.36a6.31,6.31,0,0,0-2.72.6,7.41,7.41,0,0,0-2.21,1.59,7.53,7.53,0,0,0-1.5,2.32,7.2,7.2,0,0,0,0,5.53,7.77,7.77,0,0,0,1.5,2.32,7.27,7.27,0,0,0,2.21,1.61,6.49,6.49,0,0,0,5.45,0,7.27,7.27,0,0,0,2.21-1.61,7.74,7.74,0,0,0,1.5-2.32,7.19,7.19,0,0,0,0-5.53,7.5,7.5,0,0,0-1.5-2.32,7.41,7.41,0,0,0-2.21-1.59A6.31,6.31,0,0,0,181.34,377.06Z"/><path class="cls-2" d="M296.12,392.3v1.81a.9.9,0,0,1-.9.9H281.64a.9.9,0,0,1-.91-.9V374.55a.9.9,0,0,1,.91-.9h2.28a.9.9,0,0,1,.9.9v15.94a.9.9,0,0,0,.9.9h9.49a.9.9,0,0,1,.9.9Z"/><path class="cls-3" d="M359.71,377.26h-4.29a.9.9,0,0,0-.9.9v15.94a.9.9,0,0,1-.91.9h-2.28a.88.88,0,0,1-.64-.26.87.87,0,0,1-.26-.64V378.17a.9.9,0,0,0-.91-.9H345.2a.9.9,0,0,1-.9-.9v-1.81a.9.9,0,0,1,.9-.9h14.51a.9.9,0,0,1,.91.9v1.81a.89.89,0,0,1-.91.9Z"/><path class="cls-3" d="M397.38,395.42a10.67,10.67,0,0,1-4.29-.88,11.2,11.2,0,0,1-5.9-5.9,11.06,11.06,0,0,1,0-8.63,11.16,11.16,0,0,1,5.9-5.91,11,11,0,0,1,8.61,0,11.16,11.16,0,0,1,5.9,5.91,11.06,11.06,0,0,1,0,8.63,11.2,11.2,0,0,1-5.9,5.9A10.74,10.74,0,0,1,397.38,395.42Zm0-18.36a6.31,6.31,0,0,0-2.72.6,7.41,7.41,0,0,0-2.22,1.59,7.51,7.51,0,0,0-1.5,2.32,7.19,7.19,0,0,0,0,5.53,7.76,7.76,0,0,0,1.5,2.32,7.27,7.27,0,0,0,2.22,1.61,6.49,6.49,0,0,0,5.45,0,7.28,7.28,0,0,0,2.22-1.61,7.76,7.76,0,0,0,1.5-2.32,7.19,7.19,0,0,0,0-5.53,7.51,7.51,0,0,0-1.5-2.32,7.42,7.42,0,0,0-2.22-1.59A6.31,6.31,0,0,0,397.39,377.06Z"/><path class="cls-3" d="M481,394.75a8.12,8.12,0,0,1-2.89-1.81,7.65,7.65,0,0,1-1.87-2.83,10.06,10.06,0,0,1-.64-3.71V374.58a.88.88,0,0,1,.26-.64.84.84,0,0,1,.61-.26h2.31a.9.9,0,0,1,.9.9v11.79a5.93,5.93,0,0,0,.53,2.66,5.33,5.33,0,0,0,1.28,1.66,4.35,4.35,0,0,0,1.66.85q.47.12.86.18a5.12,5.12,0,0,0,.74.06,6.67,6.67,0,0,0,1.58-.23,3.88,3.88,0,0,0,1.66-.85,4.76,4.76,0,0,0,1.31-1.66,5.93,5.93,0,0,0,.53-2.66V374.58a.9.9,0,0,1,.9-.9H493a.9.9,0,0,1,.9.9V386.4a11.3,11.3,0,0,1-.16,1.94,9.66,9.66,0,0,1-.48,1.77,8.18,8.18,0,0,1-1.84,2.83,8.47,8.47,0,0,1-2.89,1.81,10.46,10.46,0,0,1-3.8.64A10.23,10.23,0,0,1,481,394.75Z"/><path class="cls-3" d="M516.15,378.17v3.53a.9.9,0,0,0,.9.9h8.52a.89.89,0,0,1,.9.9v1.9a.9.9,0,0,1-.9.9h-8.52a.89.89,0,0,0-.9.9v3.21a.89.89,0,0,0,.9.9h9.84a.9.9,0,0,1,.9.9v1.87a.9.9,0,0,1-.9.9H513a.9.9,0,0,1-.9-.9V374.55a.9.9,0,0,1,.9-.9h13.93a.9.9,0,0,1,.9.9v1.81a.89.89,0,0,1-.9.9h-9.84a.9.9,0,0,0-.9.9Z"/><path class="cls-1" d="M75.45,388.77c2-9.39-4.49-15.28-10.81-15.28a11.42,11.42,0,0,0-8.41,3.69l.29-.3a11.47,11.47,0,0,1,3.57-2.43,11.43,11.43,0,0,1,8.75,0,10.74,10.74,0,0,1,3.57,2.43,11.47,11.47,0,0,1,2.43,3.57,11.54,11.54,0,0,1,0,8.79,10.74,10.74,0,0,1-2.43,3.57,11.47,11.47,0,0,1-3.57,2.43,11.76,11.76,0,0,1-4.4.87,11.35,11.35,0,0,1-4.35-.87,10.53,10.53,0,0,1-3.57-2.43,11.47,11.47,0,0,1-2.43-3.57,10.92,10.92,0,0,1-.87-4.4,11.64,11.64,0,0,1,.69-3.92,11.45,11.45,0,0,0,10.72,15.47C86.9,396.36,74,395.43,75.45,388.77Z"/><path class="cls-1" d="M54.1,389.24a11.47,11.47,0,0,0,2.43,3.57,10.53,10.53,0,0,0,3.57,2.43,11.35,11.35,0,0,0,4.35.87,11.76,11.76,0,0,0,4.4-.87,11.47,11.47,0,0,0,3.57-2.43,10.74,10.74,0,0,0,2.43-3.57,11.54,11.54,0,0,0,0-8.79,11.47,11.47,0,0,0-2.43-3.57,10.74,10.74,0,0,0-3.57-2.43,11.43,11.43,0,0,0-8.75,0,11.47,11.47,0,0,0-3.57,2.43l-.29.3a11.45,11.45,0,0,0-2.31,3.75,11.64,11.64,0,0,0-.69,3.92A10.92,10.92,0,0,0,54.1,389.24ZM57.94,382a7.87,7.87,0,0,1,1.51-2.34,8,8,0,0,1,2.24-1.6,6.18,6.18,0,0,1,2.75-.6,6,6,0,0,1,2.75.6,7.17,7.17,0,0,1,2.24,1.6,7.48,7.48,0,0,1,1.51,8A7.87,7.87,0,0,1,69.44,390a8,8,0,0,1-2.24,1.6,6.18,6.18,0,0,1-2.75.6,6.32,6.32,0,0,1-2.75-.6,6.51,6.51,0,0,1-2.24-1.6,7.33,7.33,0,0,1-1.51-2.34,7.64,7.64,0,0,1-.55-2.84A7.23,7.23,0,0,1,57.94,382Z"/><path class="cls-2" d="M253.4,388.77c2-9.39-4.49-15.28-10.81-15.28a11.42,11.42,0,0,0-8.41,3.69l.29-.3a11.47,11.47,0,0,1,3.57-2.43,11.43,11.43,0,0,1,8.75,0,10.74,10.74,0,0,1,3.57,2.43,11.47,11.47,0,0,1,2.43,3.57,11.54,11.54,0,0,1,0,8.79,10.74,10.74,0,0,1-2.43,3.57,11.47,11.47,0,0,1-3.57,2.43,11.76,11.76,0,0,1-4.4.87,11.35,11.35,0,0,1-4.35-.87,10.53,10.53,0,0,1-3.57-2.43,11.47,11.47,0,0,1-2.43-3.57,10.92,10.92,0,0,1-.87-4.4,11.64,11.64,0,0,1,.69-3.92,11.45,11.45,0,0,0,10.72,15.47C264.85,396.36,252,395.43,253.4,388.77Z"/><path class="cls-2" d="M232,389.24a11.47,11.47,0,0,0,2.43,3.57,10.53,10.53,0,0,0,3.57,2.43,11.35,11.35,0,0,0,4.35.87,11.76,11.76,0,0,0,4.4-.87,11.47,11.47,0,0,0,3.57-2.43,10.74,10.74,0,0,0,2.43-3.57,11.54,11.54,0,0,0,0-8.79,11.47,11.47,0,0,0-2.43-3.57,10.74,10.74,0,0,0-3.57-2.43,11.43,11.43,0,0,0-8.75,0,11.47,11.47,0,0,0-3.57,2.43l-.29.3a11.45,11.45,0,0,0-2.31,3.75,11.64,11.64,0,0,0-.69,3.92A10.92,10.92,0,0,0,232,389.24Zm3.85-7.24a7.87,7.87,0,0,1,1.51-2.34,8,8,0,0,1,2.24-1.6,6.18,6.18,0,0,1,2.75-.6,6,6,0,0,1,2.75.6,7.17,7.17,0,0,1,2.24,1.6,7.48,7.48,0,0,1,1.51,8,7.87,7.87,0,0,1-1.51,2.34,8,8,0,0,1-2.24,1.6,6.18,6.18,0,0,1-2.75.6,6.32,6.32,0,0,1-2.75-.6,6.51,6.51,0,0,1-2.24-1.6,7.33,7.33,0,0,1-1.51-2.34,7.64,7.64,0,0,1-.55-2.84A7.23,7.23,0,0,1,235.89,382Z"/><path class="cls-2" d="M446.13,393.93c-9,1.92-14.68-4.31-14.68-10.39a11,11,0,0,1,3.54-8.08l-.29.28a11,11,0,0,0-2.33,3.43,11,11,0,0,0,0,8.4,10.32,10.32,0,0,0,2.33,3.43,11,11,0,0,0,3.43,2.33,11.09,11.09,0,0,0,8.45,0A10.32,10.32,0,0,0,450,391a11,11,0,0,0,2.33-3.43,11.29,11.29,0,0,0,.84-4.22,10.9,10.9,0,0,0-.84-4.18,10.11,10.11,0,0,0-2.33-3.43,11,11,0,0,0-3.43-2.33,10.49,10.49,0,0,0-4.22-.84,11.18,11.18,0,0,0-3.77.67,11,11,0,0,1,14.86,10.3C453.43,404.93,452.54,392.57,446.13,393.93Z"/><path class="cls-2" d="M442.36,372.58a11.18,11.18,0,0,0-3.77.67,11,11,0,0,0-3.6,2.22l-.29.28a11,11,0,0,0-2.33,3.43,11,11,0,0,0,0,8.4,10.32,10.32,0,0,0,2.33,3.43,11,11,0,0,0,3.43,2.33,11.09,11.09,0,0,0,8.45,0A10.32,10.32,0,0,0,450,391a11,11,0,0,0,2.33-3.43,11.29,11.29,0,0,0,.84-4.22,10.9,10.9,0,0,0-.84-4.18,10.11,10.11,0,0,0-2.33-3.43,11,11,0,0,0-3.43-2.33A10.49,10.49,0,0,0,442.36,372.58Zm0,4a7.34,7.34,0,0,1,2.73.53,7,7,0,0,1,2.24,1.45,6.25,6.25,0,0,1,1.54,2.16,6.07,6.07,0,0,1,.57,2.64,5.94,5.94,0,0,1-.57,2.64,7.68,7.68,0,0,1-1.54,2.16,7.56,7.56,0,0,1-2.24,1.45,7,7,0,0,1-2.73.53,7.16,7.16,0,0,1-4.93-2,6.89,6.89,0,0,1-1.54-2.16,5.81,5.81,0,0,1-.57-2.64,5.94,5.94,0,0,1,.57-2.64,7.68,7.68,0,0,1,1.54-2.16,7.56,7.56,0,0,1,2.24-1.45A7,7,0,0,1,442.32,376.59Z"/><path class="cls-2" d="M306.31,120.68c18.3,52.55,68.13,62.27,99.47,43.28a66.16,66.16,0,0,0,30.63-43.52c-.18.78-.35,1.57-.56,2.35a66.47,66.47,0,0,1-10.42,22.76,66.21,66.21,0,0,1-43.35,26.26,62.25,62.25,0,0,1-25-1.3,66.47,66.47,0,0,1-22.76-10.42,63.29,63.29,0,0,1-17.51-19.18,63.29,63.29,0,0,1-8.89-24.4,62.25,62.25,0,0,1,1.3-25,66.47,66.47,0,0,1,10.42-22.76,68.13,68.13,0,0,1,19.18-17.51A65.74,65.74,0,0,1,363,42.5a61,61,0,0,1,25,1.3,66.47,66.47,0,0,1,22.76,10.42A63.29,63.29,0,0,1,428.26,73.4a67.43,67.43,0,0,1,8.35,21.53A66.37,66.37,0,0,0,337,50.47C226.77,117.39,293.32,83.39,306.31,120.68Z"/><path class="cls-2" d="M410.74,54.22A66.47,66.47,0,0,0,388,43.8a61,61,0,0,0-25-1.3,65.74,65.74,0,0,0-24.18,8.75,68.13,68.13,0,0,0-19.18,17.51,66.47,66.47,0,0,0-10.42,22.76,62.25,62.25,0,0,0-1.3,25,63.29,63.29,0,0,0,8.89,24.4,63.29,63.29,0,0,0,17.51,19.18,66.47,66.47,0,0,0,22.76,10.42,62.25,62.25,0,0,0,25,1.3,66.21,66.21,0,0,0,43.35-26.26,66.47,66.47,0,0,0,10.42-22.76c.21-.78.39-1.57.56-2.35a66.34,66.34,0,0,0,.2-25.51,67.43,67.43,0,0,0-8.35-21.53A63.29,63.29,0,0,0,410.74,54.22Zm2.66,47.41a45.63,45.63,0,0,1-.48,16.11,46.32,46.32,0,0,1-6.31,14.68,35.82,35.82,0,0,1-11.83,11.2,35,35,0,0,1-15.41,5.3,41.57,41.57,0,0,1-15.93-1.21,43.33,43.33,0,0,1-31.42-35,45.63,45.63,0,0,1,.48-16.11A46.33,46.33,0,0,1,338.81,82a35.81,35.81,0,0,1,11.83-11.2,36.62,36.62,0,0,1,15.41-5.3A37.71,37.71,0,0,1,382,66.68a42.48,42.48,0,0,1,14.5,7,44.26,44.26,0,0,1,11.25,12.42A41.93,41.93,0,0,1,413.4,101.63Z"/><path class="cls-1" d="M260.22,90.63c-19.77-52-69.84-60.34-100.64-40.48-16.2,10.45-24.28,28.57-29.4,44.36.25-.77.31-1.58.5-2.37a66.47,66.47,0,0,1,9.78-23,66.21,66.21,0,0,1,42.6-27.47,62.25,62.25,0,0,1,25,.6,66.47,66.47,0,0,1,23,9.78,63.29,63.29,0,0,1,18,18.68,63.29,63.29,0,0,1,9.57,24.14,62.25,62.25,0,0,1-.6,25,66.47,66.47,0,0,1-9.78,23,68.13,68.13,0,0,1-18.68,18,65.74,65.74,0,0,1-23.92,9.42,61,61,0,0,1-25-.6,66.47,66.47,0,0,1-23-9.78,63.29,63.29,0,0,1-18-18.68A67.43,67.43,0,0,1,130.69,120a66.37,66.37,0,0,0,100.79,41.65C339.82,91.69,274.25,127.54,260.22,90.63Z"/><path class="cls-1" d="M157.68,160a66.47,66.47,0,0,0,23,9.78,61,61,0,0,0,25,.6,65.74,65.74,0,0,0,23.92-9.42,68.13,68.13,0,0,0,18.68-18,66.47,66.47,0,0,0,9.78-23,62.25,62.25,0,0,0,.6-25,63.29,63.29,0,0,0-9.57-24.14,63.29,63.29,0,0,0-18-18.68,66.47,66.47,0,0,0-23-9.78,62.25,62.25,0,0,0-25-.6,66.21,66.21,0,0,0-42.6,27.47,66.47,66.47,0,0,0-9.78,23c-.19.79-.34,1.58-.5,2.37a66.34,66.34,0,0,0,.51,25.51,67.43,67.43,0,0,0,8.95,21.29A63.29,63.29,0,0,0,157.68,160Zm-4-47.32a45.63,45.63,0,0,1,0-16.12,46.32,46.32,0,0,1,5.9-14.85,35.82,35.82,0,0,1,11.51-11.53,35,35,0,0,1,15.25-5.73,41.57,41.57,0,0,1,16,.76,43.33,43.33,0,0,1,32.38,34.06,45.63,45.63,0,0,1,0,16.12,46.33,46.33,0,0,1-5.9,14.85,35.81,35.81,0,0,1-11.51,11.53A36.62,36.62,0,0,1,202,147.49a37.71,37.71,0,0,1-16-.76,42.48,42.48,0,0,1-14.69-6.63A44.26,44.26,0,0,1,159.79,128,41.93,41.93,0,0,1,153.7,112.67Z"/><circle class="cls-2" cx="194.02" cy="106.34" r="12.02"/><circle class="cls-1" cx="373.57" cy="108.33" r="12.02"/><circle class="cls-2" cx="78.53" cy="289.8" r="9.01"/><circle class="cls-1" cx="408.91" cy="288.5" r="9.01"/><path id="_Trazado_" data-name="&lt;Trazado&gt;" class="cls-1" d="M156.9,327.25a29.61,29.61,0,0,1-10.58-6.61,26.51,26.51,0,0,1-6.78-10.42,38.18,38.18,0,0,1-2.31-13.56V253.34a3.39,3.39,0,0,1,3.31-3.31H149a3.39,3.39,0,0,1,3.31,3.31v43.16a21.35,21.35,0,0,0,2,9.76,22.08,22.08,0,0,0,4.63,6.12,16.62,16.62,0,0,0,6.12,3.14,26.87,26.87,0,0,0,3.14.66,15.13,15.13,0,0,0,2.65.17,30.12,30.12,0,0,0,5.79-.83,13.57,13.57,0,0,0,6.12-3.14,16.51,16.51,0,0,0,4.8-6.12,21.35,21.35,0,0,0,2-9.76V253.34a3.39,3.39,0,0,1,3.31-3.31H201a3,3,0,0,1,2.31,1,3.26,3.26,0,0,1,1,2.31v43.32a33.47,33.47,0,0,1-.66,7.11,26.48,26.48,0,0,1-1.82,6.45,29.13,29.13,0,0,1-6.78,10.42,31.14,31.14,0,0,1-10.58,6.61,40.77,40.77,0,0,1-13.89,2.31A39.8,39.8,0,0,1,156.9,327.25Z"/><path id="_Trazado_2" data-name="&lt;Trazado&gt;" class="cls-1" d="M270.13,263.39H254.22a2.81,2.81,0,0,0-2.34,1,4.21,4.21,0,0,0-1,2.34v59.12a3.43,3.43,0,0,1-3.35,3.35h-8.37a3,3,0,0,1-2.34-1,4.21,4.21,0,0,1-1-2.34v-59a3,3,0,0,0-1-2.34,4.21,4.21,0,0,0-2.34-1H216.36A3.43,3.43,0,0,1,213,260.2v-6.7a3.43,3.43,0,0,1,3.35-3.35h53.76a3.43,3.43,0,0,1,3.35,3.35v6.7a3.31,3.31,0,0,1-1,2.34A2.72,2.72,0,0,1,270.13,263.39Z"/><path id="_Trazado_compuesto_" data-name="&lt;Trazado compuesto&gt;" class="cls-1" d="M315.77,328.6a39.63,39.63,0,0,1-15.2-3,36.78,36.78,0,0,1-12.48-8.48,40.07,40.07,0,0,1-8.48-12.48,38.15,38.15,0,0,1-3-15.36,41.07,41.07,0,0,1,3-15.36,37.52,37.52,0,0,1,8.48-12.48,40.07,40.07,0,0,1,12.48-8.48,39.91,39.91,0,0,1,30.56,0,37.52,37.52,0,0,1,12.48,8.48,40.07,40.07,0,0,1,8.48,12.48,40.32,40.32,0,0,1,0,30.72,37.52,37.52,0,0,1-8.48,12.48,40.07,40.07,0,0,1-12.48,8.48A41.07,41.07,0,0,1,315.77,328.6Zm0-65.11a21.59,21.59,0,0,0-9.6,2.08,27.93,27.93,0,0,0-7.84,5.6,27.51,27.51,0,0,0-5.28,8.16,25.27,25.27,0,0,0-1.92,9.76,26.68,26.68,0,0,0,1.92,9.92,25.61,25.61,0,0,0,5.28,8.16,22.74,22.74,0,0,0,7.84,5.6,22.08,22.08,0,0,0,9.6,2.08,21.59,21.59,0,0,0,9.6-2.08,27.93,27.93,0,0,0,7.84-5.6,27.51,27.51,0,0,0,5.28-8.16,25.49,25.49,0,0,0,1.92-9.92,25.87,25.87,0,0,0-1.92-9.76,25.61,25.61,0,0,0-5.28-8.16,25.06,25.06,0,0,0-7.84-5.6A21.12,21.12,0,0,0,315.77,263.49Z"/><path id="_Trazado_3" data-name="&lt;Trazado&gt;" class="cls-2" d="M484.59,266.91V280a3.43,3.43,0,0,0,3.35,3.35h31.65a3.43,3.43,0,0,1,3.35,3.35v7a3.43,3.43,0,0,1-3.35,3.35H487.94a3.43,3.43,0,0,0-3.35,3.35v11.89a3.43,3.43,0,0,0,3.35,3.35h36.51A3.43,3.43,0,0,1,527.8,319v6.87a3.43,3.43,0,0,1-3.35,3.35H472.87a3.43,3.43,0,0,1-3.35-3.35V253.34a3.43,3.43,0,0,1,3.35-3.35h51.58a3.43,3.43,0,0,1,3.35,3.35V260a3.43,3.43,0,0,1-3.35,3.35H487.94a3.31,3.31,0,0,0-2.34,1A3.41,3.41,0,0,0,484.59,266.91Z"/><path class="cls-1" d="M116.9,303c7-32.81-15.68-53.38-37.77-53.38a39.88,39.88,0,0,0-29.39,12.87c.34-.35.67-.7,1-1a40.07,40.07,0,0,1,12.48-8.48,39.91,39.91,0,0,1,30.56,0,37.52,37.52,0,0,1,12.48,8.48,40.07,40.07,0,0,1,8.48,12.48,40.32,40.32,0,0,1,0,30.72,37.53,37.53,0,0,1-8.48,12.48,40.07,40.07,0,0,1-12.48,8.48,41.07,41.07,0,0,1-15.36,3,39.63,39.63,0,0,1-15.2-3,36.78,36.78,0,0,1-12.48-8.48,40.07,40.07,0,0,1-8.48-12.48,38.15,38.15,0,0,1-3-15.36,40.65,40.65,0,0,1,2.42-13.71,40,40,0,0,0,37.46,54C156.88,329.5,111.94,326.24,116.9,303Z"/><path class="cls-1" d="M42.29,304.6a40.07,40.07,0,0,0,8.48,12.48,36.78,36.78,0,0,0,12.48,8.48,39.63,39.63,0,0,0,15.2,3,41.07,41.07,0,0,0,15.36-3,40.07,40.07,0,0,0,12.48-8.48,37.53,37.53,0,0,0,8.48-12.48,40.32,40.32,0,0,0,0-30.72,40.07,40.07,0,0,0-8.48-12.48,37.52,37.52,0,0,0-12.48-8.48,39.91,39.91,0,0,0-30.56,0,40.07,40.07,0,0,0-12.48,8.48c-.35.34-.69.69-1,1a40,40,0,0,0-8.07,13.09,40.65,40.65,0,0,0-2.42,13.71A38.15,38.15,0,0,0,42.29,304.6Zm13.44-25.28A27.51,27.51,0,0,1,61,271.16a27.92,27.92,0,0,1,7.84-5.6,21.59,21.59,0,0,1,9.6-2.08,21.12,21.12,0,0,1,9.6,2.08,25.06,25.06,0,0,1,7.84,5.6A26.12,26.12,0,0,1,101.16,299a27.51,27.51,0,0,1-5.28,8.16,27.93,27.93,0,0,1-7.84,5.6,21.59,21.59,0,0,1-9.6,2.08,22.08,22.08,0,0,1-9.6-2.08,22.73,22.73,0,0,1-7.84-5.6A25.61,25.61,0,0,1,55.73,299a26.68,26.68,0,0,1-1.92-9.92A25.27,25.27,0,0,1,55.73,279.32Z"/><path class="cls-2" d="M422.3,326.87c-32.81,7-53.38-15.68-53.38-37.77a39.88,39.88,0,0,1,12.87-29.39c-.35.34-.7.67-1,1a40.07,40.07,0,0,0-8.48,12.48,39.91,39.91,0,0,0,0,30.56,37.52,37.52,0,0,0,8.48,12.48,40.07,40.07,0,0,0,12.48,8.48,40.32,40.32,0,0,0,30.72,0,37.53,37.53,0,0,0,12.48-8.48,40.07,40.07,0,0,0,8.48-12.48,41.07,41.07,0,0,0,3-15.36,39.63,39.63,0,0,0-3-15.2,36.78,36.78,0,0,0-8.48-12.48,40.07,40.07,0,0,0-12.48-8.48,38.15,38.15,0,0,0-15.36-3,40.65,40.65,0,0,0-13.71,2.42,40,40,0,0,1,54,37.46C448.84,366.86,445.59,321.92,422.3,326.87Z"/><path class="cls-2" d="M408.59,249.23a40.65,40.65,0,0,0-13.71,2.42,40,40,0,0,0-13.09,8.07c-.35.34-.7.67-1,1a40.07,40.07,0,0,0-8.48,12.48,39.91,39.91,0,0,0,0,30.56,37.52,37.52,0,0,0,8.48,12.48,40.07,40.07,0,0,0,12.48,8.48,40.32,40.32,0,0,0,30.72,0,37.53,37.53,0,0,0,12.48-8.48,40.07,40.07,0,0,0,8.48-12.48,41.07,41.07,0,0,0,3-15.36,39.63,39.63,0,0,0-3-15.2,36.78,36.78,0,0,0-8.48-12.48,40.07,40.07,0,0,0-12.48-8.48A38.15,38.15,0,0,0,408.59,249.23Zm-.16,14.56a26.68,26.68,0,0,1,9.92,1.92,25.61,25.61,0,0,1,8.16,5.28,22.73,22.73,0,0,1,5.6,7.84,22.08,22.08,0,0,1,2.08,9.6,21.59,21.59,0,0,1-2.08,9.6,27.93,27.93,0,0,1-5.6,7.84,27.51,27.51,0,0,1-8.16,5.28,25.49,25.49,0,0,1-9.92,1.92,26,26,0,0,1-17.92-7.2,25.06,25.06,0,0,1-5.6-7.84,21.12,21.12,0,0,1-2.08-9.6,21.59,21.59,0,0,1,2.08-9.6,27.92,27.92,0,0,1,5.6-7.84,27.51,27.51,0,0,1,8.16-5.28A25.27,25.27,0,0,1,408.43,263.79Z"/></svg>