<svg id="Capa_1" data-name="Capa 1" xmlns="http://www.w3.org/2000/svg" viewBox="0 0 551.82 156.26"><defs><style>.cls-1{fill:#122b40;stroke:#fffdfd;stroke-miterlimit:10;}.cls-2{fill:#74acdf;}.cls-3{fill:#212f41;}.cls-4{isolation:isolate;}</style></defs><title>autoqe_side</title><path id="_Trazado_compuesto_" data-name="&lt;Trazado compuesto&gt;" class="cls-1" d="M51.16,77h0a13.9,13.9,0,0,0-17.88-8.35h0C26.63,70.83,22.37,79,23.57,86l2.9,19,16.89-9.56C49.73,92.09,53.31,83.7,51.16,77Zm-15,8.72a4.75,4.75,0,1,1,4-8.6,5.11,5.11,0,0,1,2.27,6.32A4.61,4.61,0,0,1,36.16,85.76Z"/><path id="_Trazado_compuesto_2" data-name="&lt;Trazado compuesto&gt;" class="cls-1" d="M24.22,123.46h0a13.9,13.9,0,0,0,18.2,7.63h0c6.57-2.41,10.5-10.7,9-17.74l-3.67-18.9L31.27,104.68C25,108.36,21.81,116.89,24.22,123.46Zm14.64-9.32a4.75,4.75,0,1,1-3.7,8.75,5.11,5.11,0,0,1-2.53-6.23A4.61,4.61,0,0,1,38.86,114.14Z"/><path id="_Trazado_compuesto_3" data-name="&lt;Trazado compuesto&gt;" class="cls-1" d="M145.58,65.81h0a14.86,14.86,0,0,0-17.71,11.47h0C126,84.54,131,93,138.1,95.93l18.9,8.16.9-20.73C158.41,75.64,152.83,67.64,145.58,65.81ZM145,84.36a5.08,5.08,0,1,1-5.5-8.54,5.46,5.46,0,0,1,7,1.52A4.93,4.93,0,0,1,145,84.36Z"/><path id="_Trazado_compuesto_4" data-name="&lt;Trazado compuesto&gt;" class="cls-1" d="M145.36,132.47h0a13.9,13.9,0,0,0,16.37-11h0c1.6-6.82-3.17-14.65-9.86-17.27l-17.8-7.33-.51,19.4C133.21,123.49,138.55,130.88,145.36,132.47Zm.27-17.36a4.75,4.75,0,1,1-1.31,6.59A4.61,4.61,0,0,1,145.63,115.12Z"/><path id="_Trazado_compuesto_5" data-name="&lt;Trazado compuesto&gt;" class="cls-1" d="M56.19,77.44h0a9,9,0,0,0,9.19-8.84h0c.25-4.52-3.66-9-8.21-9.9L45,56l1.85,12.41C47.44,73.08,51.67,77.19,56.19,77.44ZM54.41,66.36a3.07,3.07,0,1,1-.1,4.34A3,3,0,0,1,54.41,66.36Z"/><path id="_Trazado_compuesto_6" data-name="&lt;Trazado compuesto&gt;" class="cls-1" d="M75.21,57.07h0a10.17,10.17,0,0,0-8.43,11.72h0c.64,5.08,5.9,9.24,11.16,9.34L92,78.62,87.44,65.19C85.84,60.14,80.29,56.43,75.21,57.07Zm4.23,12A3.48,3.48,0,1,1,73.81,65a3.74,3.74,0,0,1,4.85-.78A3.37,3.37,0,0,1,79.45,69Z"/><path id="_Trazado_compuesto_7" data-name="&lt;Trazado compuesto&gt;" class="cls-1" d="M103,77.58h0a10.17,10.17,0,0,0,7.64-12.24h0c-1-5-6.5-8.84-11.75-8.59l-14.08.43,5.45,13.11C92.19,75.21,98,78.55,103,77.58ZM98,65.91a3.48,3.48,0,1,1,5.89,3.7,3.74,3.74,0,0,1-4.79,1.09A3.37,3.37,0,0,1,98,65.91Z"/><path id="_Trazado_compuesto_8" data-name="&lt;Trazado compuesto&gt;" class="cls-1" d="M111.79,70.14h0A9.27,9.27,0,0,0,122,78.43h0c4.66-.31,8.72-4.89,9.09-9.66L132.29,56l-12.47,3.46C115.14,60.64,111.48,65.49,111.79,70.14Zm11.12-3.22a3.17,3.17,0,1,1-4.46.45A3.08,3.08,0,0,1,122.91,66.92Z"/><path id="_Trazado_compuesto_9" data-name="&lt;Trazado compuesto&gt;" class="cls-1" d="M29.64,62.12h0a6.8,6.8,0,0,0,8,5.47h0c3.39-.5,6.1-4.08,6.08-7.6l.13-9.42-8.92,3.26A8,8,0,0,0,29.64,62.12Zm7.94-3a2.32,2.32,0,1,1-2.64,3.82,2.5,2.5,0,0,1-.59-3.23A2.26,2.26,0,0,1,37.58,59.12Z"/><path id="_Trazado_compuesto_10" data-name="&lt;Trazado compuesto&gt;" class="cls-2" d="M24.93,42.27h0a6.8,6.8,0,0,0-.62,9.63h0C26.48,54.55,30.94,55,34,53.23l8.15-4.72-7.37-6A8,8,0,0,0,24.93,42.27Zm6.65,5.28a2.5,2.5,0,0,1-2.47,2.16,2.32,2.32,0,0,1,.31-4.64A2.26,2.26,0,0,1,31.58,47.55Z"/><path id="_Trazado_compuesto_11" data-name="&lt;Trazado compuesto&gt;" class="cls-1" d="M50.06,35.33h0a6.8,6.8,0,0,0-9.64.45h0c-2.4,2.44-2.39,6.93-.26,9.73l5.59,7.58,5.14-8A8,8,0,0,0,50.06,35.33Zm-4.52,7.19a2.32,2.32,0,1,1,2.22-2.42A2.26,2.26,0,0,1,45.54,42.52Z"/><path id="_Trazado_compuesto_12" data-name="&lt;Trazado compuesto&gt;" class="cls-2" d="M150.08,45.13l-7.37,6,8.15,4.72c3,1.81,7.47,1.32,9.64-1.33h0a6.8,6.8,0,0,0-.62-9.63h0A8,8,0,0,0,150.08,45.13Zm5.32,2.55a2.32,2.32,0,1,1-2.16,2.47A2.26,2.26,0,0,1,155.4,47.68Z"/><path id="_Trazado_compuesto_13" data-name="&lt;Trazado compuesto&gt;" class="cls-1" d="M144.33,55.83h0a6.33,6.33,0,0,0-7.69-4.66h0c-3.12.64-5.45,4.12-5.26,7.39l.38,8.77,8.12-3.5A7.49,7.49,0,0,0,144.33,55.83ZM137.1,59a2.17,2.17,0,1,1,3-.72A2.1,2.1,0,0,1,137.1,59Z"/><path id="_Trazado_compuesto_14" data-name="&lt;Trazado compuesto&gt;" class="cls-1" d="M145.35,64.68h0a3.91,3.91,0,0,0,5.5-.7h0a4.48,4.48,0,0,0-.3-5.58L147,54.31l-2.58,4.81A4.62,4.62,0,0,0,145.35,64.68Zm2.26-4.33a1.34,1.34,0,1,1-1.16,1.49A1.3,1.3,0,0,1,147.61,60.36Z"/><path id="_Trazado_compuesto_15" data-name="&lt;Trazado compuesto&gt;" class="cls-1" d="M51,24.82h0a4.41,4.41,0,0,0-6,1.65h0a5.07,5.07,0,0,0,1.21,6.2l4.61,4,2.13-5.79A5.22,5.22,0,0,0,51,24.82ZM49.11,30a1.51,1.51,0,1,1,1.06-1.85A1.46,1.46,0,0,1,49.11,30Z"/><path id="_Trazado_compuesto_16" data-name="&lt;Trazado compuesto&gt;" class="cls-1" d="M51.93,37.31h0A3.17,3.17,0,0,0,56.42,37h0a3.64,3.64,0,0,0,0-4.54L53.76,29l-2.32,3.78A3.75,3.75,0,0,0,51.93,37.31Zm2-3.4a1.08,1.08,0,1,1-1,1.15A1.05,1.05,0,0,1,54,33.91Z"/><path id="_Trazado_compuesto_17" data-name="&lt;Trazado compuesto&gt;" class="cls-1" d="M60.84,34.4h0a3.17,3.17,0,0,0,2.31-3.86h0a3.64,3.64,0,0,0-3.72-2.61L55,28.14l1.78,4.06A3.75,3.75,0,0,0,60.84,34.4Zm-1.63-3.61a1.08,1.08,0,1,1,.37,1.49A1.05,1.05,0,0,1,59.21,30.79Z"/><path id="_Trazado_compuesto_18" data-name="&lt;Trazado compuesto&gt;" class="cls-1" d="M64.42,77.74h0a18.79,18.79,0,0,0-13.64,22.93h0c2,9.25,12.36,16.07,22.05,15.4l26-1.35-10.6-24C84.48,81.69,73.68,75.75,64.42,77.74Zm9.72,21.36a6.91,6.91,0,0,1-8.81,2.21,6.42,6.42,0,0,1,6.6-11A6.24,6.24,0,0,1,74.14,99.11Z"/><path id="_Trazado_compuesto_19" data-name="&lt;Trazado compuesto&gt;" class="cls-1" d="M119,117.28h0a18.79,18.79,0,0,0,13.62-22.94h0c-2-9.25-12.37-16.06-22.06-15.39l-26,1.37,10.62,24C98.95,113.35,109.76,119.28,119,117.28Zm-9.73-21.36a6.42,6.42,0,1,1,11,6.59,6.91,6.91,0,0,1-8.81,2.22A6.24,6.24,0,0,1,109.27,95.92Z"/><path id="_Trazado_compuesto_20" data-name="&lt;Trazado compuesto&gt;" class="cls-1" d="M82.84,11.52h0a6.67,6.67,0,0,0-5.53,7.69h0c.42,3.33,3.88,6.07,7.33,6.13l9.24.32-3-8.82A7.89,7.89,0,0,0,82.84,11.52Zm2.78,7.86a2.45,2.45,0,0,1-3.19.51,2.45,2.45,0,0,1-.51-3.19,2.45,2.45,0,0,1,3.19-.51A2.21,2.21,0,0,1,85.61,19.38Z"/><path id="_Trazado_compuesto_21" data-name="&lt;Trazado compuesto&gt;" class="cls-1" d="M99.82,24.61h0a6,6,0,0,0,4.69-7h0c-.48-3-3.65-5.28-6.73-5.23H89.53l3,7.77A7,7,0,0,0,99.82,24.61ZM97.09,17.7A2,2,0,1,1,100.47,20a2.19,2.19,0,0,1-2.82.56A2,2,0,0,1,97.09,17.7Z"/><path id="_Trazado_compuesto_22" data-name="&lt;Trazado compuesto&gt;" class="cls-1" d="M55.44,14.84h0A6.25,6.25,0,0,0,50.26,22h0c.39,3.12,3.63,5.68,6.86,5.74l8.65.3-2.82-8.26A7.38,7.38,0,0,0,55.44,14.84ZM58,22.19a2.14,2.14,0,1,1-3.46-2.5,2.3,2.3,0,0,1,3-.48A2.07,2.07,0,0,1,58,22.19Z"/><path id="_Trazado_compuesto_23" data-name="&lt;Trazado compuesto&gt;" class="cls-1" d="M72.22,25.79h0a6.25,6.25,0,0,0,4.7-7.52h0c-.6-3.09-4-5.43-7.22-5.28L61,13.25,64.4,21.3A7.38,7.38,0,0,0,72.22,25.79Zm-3.08-7.17a2.14,2.14,0,1,1,3.62,2.27,2.3,2.3,0,0,1-2.94.67A2.07,2.07,0,0,1,69.14,18.62Z"/><path id="_Trazado_compuesto_24" data-name="&lt;Trazado compuesto&gt;" class="cls-1" d="M132.4,42.16l5.14,8,5.59-7.58c2.13-2.79,2.14-7.28-.26-9.73h0a6.8,6.8,0,0,0-9.64-.45h0A8,8,0,0,0,132.4,42.16Zm3.12-5a2.32,2.32,0,1,1,2.22,2.42A2.26,2.26,0,0,1,135.52,37.15Z"/><path id="_Trazado_compuesto_25" data-name="&lt;Trazado compuesto&gt;" class="cls-1" d="M132.88,25.58l.53,5,4.48-2.27a4.16,4.16,0,0,0,2.21-4.69h0a3.62,3.62,0,0,0-4.48-2.52h0A4.28,4.28,0,0,0,132.88,25.58Zm2.69-1.64a1.24,1.24,0,0,1,2.16,1.21,1.33,1.33,0,0,1-1.69.48A1.2,1.2,0,0,1,135.56,23.95Z"/><path id="_Trazado_compuesto_26" data-name="&lt;Trazado compuesto&gt;" class="cls-1" d="M133.3,30.31l-1.22-4.13-3.5,2.48a3.41,3.41,0,0,0-1.18,4.21h0a3.26,3.26,0,0,0,4.24,1.52h0A3.51,3.51,0,0,0,133.3,30.31ZM131.24,32a1.15,1.15,0,0,1-1.38.62,1.14,1.14,0,0,1-.67-1.35,1.15,1.15,0,0,1,1.38-.62A1,1,0,0,1,131.24,32Z"/><path id="_Trazado_compuesto_27" data-name="&lt;Trazado compuesto&gt;" class="cls-1" d="M140.93,46.48l-1,3.82,3.92-.48A3.27,3.27,0,0,0,146.78,47h0a2.82,2.82,0,0,0-2.63-3h0A3.37,3.37,0,0,0,140.93,46.48Zm2.42-.49a1.05,1.05,0,0,1,1.37.1,1,1,0,0,1-.1,1.36,1.05,1.05,0,0,1-1.37-.1A.93.93,0,0,1,143.35,46Z"/><path id="_Trazado_compuesto_28" data-name="&lt;Trazado compuesto&gt;" class="cls-1" d="M109.74,62.42l2.39,3.14,2.07-3.36a3.27,3.27,0,0,0-.42-4h0a2.82,2.82,0,0,0-4,.16h0A3.37,3.37,0,0,0,109.74,62.42Zm1.13-2.2a1.05,1.05,0,0,1,.93-1,1,1,0,0,1,1,.93,1.05,1.05,0,0,1-.93,1A.93.93,0,0,1,110.87,60.22Z"/><path id="_Trazado_compuesto_29" data-name="&lt;Trazado compuesto&gt;" class="cls-1" d="M120.94,18.59,116,25.79l8.41,2c3.13.81,6.93-.79,8.14-3.69h0a6.25,6.25,0,0,0-3.06-8.32h0A7.38,7.38,0,0,0,120.94,18.59Zm5.35.85A2.3,2.3,0,0,1,129,20.7a2.14,2.14,0,1,1-4,1.49A2.07,2.07,0,0,1,126.3,19.45Z"/><path id="_Trazado_compuesto_30" data-name="&lt;Trazado compuesto&gt;" class="cls-1" d="M117.29,21.11l5.2-7-8.33-2.35c-3.09-.93-7,.52-8.28,3.37h0a6.25,6.25,0,0,0,2.74,8.44h0A7.38,7.38,0,0,0,117.29,21.11ZM112,20a2.3,2.3,0,0,1-2.69-1.36,2.14,2.14,0,1,1,4.06-1.33A2.07,2.07,0,0,1,112,20Z"/><g id="_Grupo_" data-name="&lt;Grupo&gt;"><g id="_Grupo_2" data-name="&lt;Grupo&gt;"><path id="_Trazado_compuesto_31" data-name="&lt;Trazado compuesto&gt;" class="cls-3" d="M193.28,86.48l27-53.75a1.75,1.75,0,0,1,3.12,0l26.88,53.75a1.29,1.29,0,0,1,.12,1.44c-.24.48-.72.6-1.32.6H242a4.87,4.87,0,0,1-2-.6,5.87,5.87,0,0,1-1.44-1.56l-2.28-4.68a4.14,4.14,0,0,0-1.44-1.44,3,3,0,0,0-1.92-.6H210.8a4.87,4.87,0,0,0-2,.6,5.87,5.87,0,0,0-1.44,1.56L205,86.36a5.87,5.87,0,0,1-1.44,1.56,3,3,0,0,1-1.92.6H194.6a1.55,1.55,0,0,1-1.32-.6A1.51,1.51,0,0,1,193.28,86.48ZM216,70.28h11.52a1.55,1.55,0,0,0,1.32-.6,1.52,1.52,0,0,0,0-1.44l-6-12.84c-.24-.6-.6-1-1.08-1s-.72.36-1.08,1l-6.12,12.84a1.77,1.77,0,0,0,0,1.56A2.57,2.57,0,0,0,216,70.28Z"/><path id="_Trazado_" data-name="&lt;Trazado&gt;" class="cls-3" d="M268.63,87.92a21.49,21.49,0,0,1-7.68-4.8A19.24,19.24,0,0,1,256,75.56a27.7,27.7,0,0,1-1.68-9.84V34.29a2.46,2.46,0,0,1,2.4-2.4h6.12a2.46,2.46,0,0,1,2.4,2.4V65.6a15.49,15.49,0,0,0,1.44,7.08,16,16,0,0,0,3.36,4.44,12.06,12.06,0,0,0,4.44,2.28,19.5,19.5,0,0,0,2.28.48,11,11,0,0,0,1.92.12,21.86,21.86,0,0,0,4.2-.6,9.84,9.84,0,0,0,4.44-2.28,12,12,0,0,0,3.48-4.44,15.49,15.49,0,0,0,1.44-7.08V34.29a2.46,2.46,0,0,1,2.4-2.4h6a2.18,2.18,0,0,1,1.68.72,2.37,2.37,0,0,1,.72,1.68V65.72a24.29,24.29,0,0,1-.48,5.16,19.21,19.21,0,0,1-1.32,4.68,21.14,21.14,0,0,1-4.92,7.56,22.6,22.6,0,0,1-7.68,4.8,29.58,29.58,0,0,1-10.08,1.68A28.88,28.88,0,0,1,268.63,87.92Z"/><path id="_Trazado_2" data-name="&lt;Trazado&gt;" class="cls-3" d="M350.7,41.37H339.3a2,2,0,0,0-1.68.72,3,3,0,0,0-.72,1.68V86.12a2.46,2.46,0,0,1-2.4,2.4h-6a2.18,2.18,0,0,1-1.68-.72,3,3,0,0,1-.72-1.68V43.89a2.18,2.18,0,0,0-.72-1.68,3,3,0,0,0-1.68-.72H312.19a2.46,2.46,0,0,1-2.4-2.4v-4.8a2.46,2.46,0,0,1,2.4-2.4H350.7a2.46,2.46,0,0,1,2.4,2.4v4.8a2.37,2.37,0,0,1-.72,1.68A2,2,0,0,1,350.7,41.37Z"/><path id="_Trazado_compuesto_32" data-name="&lt;Trazado compuesto&gt;" class="cls-3" d="M385.86,89.72a29.72,29.72,0,0,1-11.4-2.28,27.58,27.58,0,0,1-9.36-6.36,30.05,30.05,0,0,1-6.36-9.36,28.61,28.61,0,0,1-2.28-11.52,30.8,30.8,0,0,1,2.28-11.52,28.14,28.14,0,0,1,6.36-9.36A30.05,30.05,0,0,1,374.46,33a29.94,29.94,0,0,1,22.92,0,28.14,28.14,0,0,1,9.36,6.36,30.05,30.05,0,0,1,6.36,9.36,28.61,28.61,0,0,1,2.28,11.52,28.61,28.61,0,0,1-2.28,11.52,28.14,28.14,0,0,1-6.36,9.36,30.05,30.05,0,0,1-9.36,6.36A30.8,30.8,0,0,1,385.86,89.72Zm0-48.83a16.19,16.19,0,0,0-7.2,1.56,20.94,20.94,0,0,0-5.88,4.2,20.63,20.63,0,0,0-4,6.12,19,19,0,0,0-1.44,7.32,20,20,0,0,0,1.44,7.44,19.21,19.21,0,0,0,4,6.12,17.05,17.05,0,0,0,5.88,4.2,16.56,16.56,0,0,0,7.2,1.56,16.19,16.19,0,0,0,7.2-1.56,20.94,20.94,0,0,0,5.88-4.2,20.63,20.63,0,0,0,4-6.12,19.12,19.12,0,0,0,1.44-7.44,19.4,19.4,0,0,0-1.44-7.32,19.21,19.21,0,0,0-4-6.12,18.79,18.79,0,0,0-5.88-4.2A15.84,15.84,0,0,0,385.86,40.89Z"/><path id="_Trazado_compuesto_33" data-name="&lt;Trazado compuesto&gt;" class="cls-2" d="M481.13,81.08v5.16a2.46,2.46,0,0,1-2.4,2.4h-25.8a40,40,0,0,1-13.8-2.28,25.62,25.62,0,0,1-9.6-6.24A24.41,24.41,0,0,1,423.89,71a35.25,35.25,0,0,1-1.8-11.28,27.88,27.88,0,0,1,2.28-11.28,30.61,30.61,0,0,1,6.24-9.24A31.6,31.6,0,0,1,439.73,33,30,30,0,0,1,451,30.69,28.29,28.29,0,0,1,462.29,33a28.66,28.66,0,0,1,9.12,6.24,30.61,30.61,0,0,1,6.24,9.24,27.09,27.09,0,0,1,2.28,11.28,29.65,29.65,0,0,1-.6,5.28,27.8,27.8,0,0,1-1.92,5.28A23.36,23.36,0,0,1,474,75a15.68,15.68,0,0,1-1.44,1.32,20.35,20.35,0,0,1-1.68,1.2c-1.2.84-1.08,1.2.36,1.2h7.44a2.46,2.46,0,0,1,2.4,2.4ZM433,59.73a17.78,17.78,0,0,0,1.44,7.08,17.31,17.31,0,0,0,3.84,5.76,18.49,18.49,0,0,0,5.76,4.08,16.81,16.81,0,0,0,7,1.44,17.37,17.37,0,0,0,7.08-1.44,15.84,15.84,0,0,0,5.64-4.08,16.73,16.73,0,0,0,3.84-5.76A17.37,17.37,0,0,0,469,59.73a18.36,18.36,0,0,0-1.44-7.2,16.18,16.18,0,0,0-3.84-5.76,20,20,0,0,0-5.64-4A17.37,17.37,0,0,0,451,41.37a16.41,16.41,0,0,0-7,1.44,19.67,19.67,0,0,0-5.76,4,16.73,16.73,0,0,0-3.84,5.76A19.26,19.26,0,0,0,433,59.73Z"/><path id="_Trazado_3" data-name="&lt;Trazado&gt;" class="cls-2" d="M500,43.89v9.36a2.46,2.46,0,0,0,2.4,2.4H525a2.46,2.46,0,0,1,2.4,2.4v5a2.46,2.46,0,0,1-2.4,2.4H502.36a2.46,2.46,0,0,0-2.4,2.4V76.4a2.46,2.46,0,0,0,2.4,2.4h26.16a2.46,2.46,0,0,1,2.4,2.4v4.92a2.46,2.46,0,0,1-2.4,2.4h-37a2.46,2.46,0,0,1-2.4-2.4v-52a2.46,2.46,0,0,1,2.4-2.4h37a2.46,2.46,0,0,1,2.4,2.4V39a2.46,2.46,0,0,1-2.4,2.4H502.36a2.37,2.37,0,0,0-1.68.72A2.44,2.44,0,0,0,500,43.89Z"/></g><g class="cls-4"><path class="cls-3" d="M191.46,120.6l7.4-14.78a.48.48,0,0,1,.85,0l7.4,14.78a.4.4,0,0,1,0,.41.39.39,0,0,1-.37.17h-1.94a1,1,0,0,1-.55-.17.91.91,0,0,1-.38-.43l-.64-1.28a1.13,1.13,0,0,0-.39-.41,1,1,0,0,0-.54-.17h-6.06a1.05,1.05,0,0,0-.55.17.92.92,0,0,0-.38.43l-.62,1.26a1.07,1.07,0,0,1-.39.43,1,1,0,0,1-.54.17h-1.94a.39.39,0,0,1-.37-.17A.43.43,0,0,1,191.46,120.6Zm6.25-4.48h3.16a.38.38,0,0,0,.37-.18.45.45,0,0,0,0-.42L199.56,112c-.07-.17-.16-.26-.28-.26s-.21.08-.28.26l-1.68,3.52a.45.45,0,0,0,0,.43A.41.41,0,0,0,197.71,116.12Z"/><path class="cls-3" d="M225.05,121a5.93,5.93,0,0,1-2.11-1.32,5.59,5.59,0,0,1-1.37-2.07,7.37,7.37,0,0,1-.47-2.71v-8.64a.64.64,0,0,1,.19-.47.61.61,0,0,1,.45-.19h1.69a.65.65,0,0,1,.66.66v8.62a4.33,4.33,0,0,0,.38,1.94,3.89,3.89,0,0,0,.94,1.22,3.19,3.19,0,0,0,1.22.62q.34.08.63.13a3.74,3.74,0,0,0,.54,0,4.88,4.88,0,0,0,1.15-.17,2.84,2.84,0,0,0,1.22-.62,3.48,3.48,0,0,0,1-1.22,4.33,4.33,0,0,0,.38-1.94v-8.62a.66.66,0,0,1,.66-.66h1.66a.65.65,0,0,1,.66.66v8.64a8.25,8.25,0,0,1-.12,1.42,7.06,7.06,0,0,1-.35,1.29,6,6,0,0,1-1.34,2.07,6.2,6.2,0,0,1-2.11,1.32,7.65,7.65,0,0,1-2.77.47A7.47,7.47,0,0,1,225.05,121Z"/><path class="cls-3" d="M260.46,108.21h-3.14a.66.66,0,0,0-.66.66v11.65a.66.66,0,0,1-.66.66h-1.66a.66.66,0,0,1-.66-.66V108.87a.66.66,0,0,0-.66-.66h-3.16a.65.65,0,0,1-.66-.66v-1.32a.66.66,0,0,1,.66-.66h10.6a.66.66,0,0,1,.66.66v1.32a.65.65,0,0,1-.66.66Z"/><path class="cls-3" d="M283,121.48a7.79,7.79,0,0,1-3.14-.64,8.18,8.18,0,0,1-4.31-4.31,8.08,8.08,0,0,1,0-6.3,8.15,8.15,0,0,1,4.31-4.32,8.06,8.06,0,0,1,6.29,0,8.15,8.15,0,0,1,4.31,4.32,8.08,8.08,0,0,1,0,6.3,8.18,8.18,0,0,1-4.31,4.31A7.84,7.84,0,0,1,283,121.48Zm0-13.42a4.61,4.61,0,0,0-2,.44,5.41,5.41,0,0,0-1.62,1.16,5.5,5.5,0,0,0-1.1,1.7,5.26,5.26,0,0,0,0,4,5.68,5.68,0,0,0,1.1,1.7,5.31,5.31,0,0,0,1.62,1.17,4.74,4.74,0,0,0,4,0,5.31,5.31,0,0,0,1.62-1.17,5.66,5.66,0,0,0,1.1-1.7,5.25,5.25,0,0,0,0-4,5.48,5.48,0,0,0-1.1-1.7A5.41,5.41,0,0,0,285,108.5,4.61,4.61,0,0,0,283,108.06Z"/><path class="cls-3" d="M325.47,120.6l7.4-14.78a.48.48,0,0,1,.85,0l7.4,14.78a.4.4,0,0,1,0,.41.39.39,0,0,1-.37.17h-1.94a1,1,0,0,1-.55-.17.91.91,0,0,1-.38-.43l-.64-1.28a1.13,1.13,0,0,0-.39-.41,1,1,0,0,0-.54-.17h-6.06a1.05,1.05,0,0,0-.55.17.92.92,0,0,0-.38.43l-.62,1.26a1.07,1.07,0,0,1-.39.43,1,1,0,0,1-.54.17h-1.94a.39.39,0,0,1-.37-.17A.43.43,0,0,1,325.47,120.6Zm6.25-4.48h3.16a.38.38,0,0,0,.37-.18.45.45,0,0,0,0-.42L333.57,112c-.07-.17-.16-.26-.28-.26s-.21.08-.28.26l-1.68,3.52a.45.45,0,0,0,0,.43A.41.41,0,0,0,331.71,116.12Z"/><path class="cls-3" d="M366.84,119.2v1.32a.66.66,0,0,1-.66.66h-9.92a.66.66,0,0,1-.66-.66V106.23a.66.66,0,0,1,.66-.66h1.66a.66.66,0,0,1,.66.66v11.65a.66.66,0,0,0,.66.66h6.93a.65.65,0,0,1,.66.66Z"/><path class="cls-3" d="M412.29,108.21h-3.13a.66.66,0,0,0-.66.66v11.65a.66.66,0,0,1-.66.66h-1.66a.64.64,0,0,1-.47-.19.63.63,0,0,1-.19-.47V108.87a.66.66,0,0,0-.66-.66h-3.16a.65.65,0,0,1-.66-.66v-1.32a.66.66,0,0,1,.66-.66h10.6a.66.66,0,0,1,.66.66v1.32a.65.65,0,0,1-.66.66Z"/><path class="cls-3" d="M434.82,121.48a7.79,7.79,0,0,1-3.14-.64,8.18,8.18,0,0,1-4.31-4.31,8.08,8.08,0,0,1,0-6.3,8.15,8.15,0,0,1,4.31-4.32,8.06,8.06,0,0,1,6.29,0,8.15,8.15,0,0,1,4.31,4.32,8.08,8.08,0,0,1,0,6.3,8.18,8.18,0,0,1-4.31,4.31A7.84,7.84,0,0,1,434.82,121.48Zm0-13.42a4.61,4.61,0,0,0-2,.44,5.41,5.41,0,0,0-1.62,1.16,5.49,5.49,0,0,0-1.1,1.7,5.25,5.25,0,0,0,0,4,5.67,5.67,0,0,0,1.1,1.7,5.31,5.31,0,0,0,1.62,1.17,4.74,4.74,0,0,0,4,0,5.32,5.32,0,0,0,1.62-1.17,5.67,5.67,0,0,0,1.1-1.7,5.25,5.25,0,0,0,0-4,5.49,5.49,0,0,0-1.1-1.7,5.42,5.42,0,0,0-1.62-1.16A4.61,4.61,0,0,0,434.83,108.06Z"/><path class="cls-3" d="M473.85,119.11v1.43a.66.66,0,0,1-.66.66h-7.1a10.16,10.16,0,0,1-3.78-.64,7,7,0,0,1-2.62-1.71,6.66,6.66,0,0,1-1.56-2.52,9.71,9.71,0,0,1-.49-3.09,7.9,7.9,0,0,1,.62-3.09,8.83,8.83,0,0,1,1.71-2.54,8.39,8.39,0,0,1,2.52-1.71,7.9,7.9,0,0,1,3.09-.62,8,8,0,0,1,3.09.62,8.22,8.22,0,0,1,2.52,1.71,8.32,8.32,0,0,1,1.71,2.54,7.57,7.57,0,0,1,.64,3.09,6.88,6.88,0,0,1-.17,1.45,5.52,5.52,0,0,1-1.45,2.75,2.64,2.64,0,0,1-.38.35l-.45.33q-.49.32.09.32h2a.66.66,0,0,1,.66.66Zm-13.22-5.87a5,5,0,0,0,.38,1.94,5.23,5.23,0,0,0,2.64,2.71,4.52,4.52,0,0,0,1.92.41,4.66,4.66,0,0,0,1.94-.41,4.87,4.87,0,0,0,1.56-1.11,4.93,4.93,0,0,0,1.07-1.6,4.65,4.65,0,0,0,.41-1.94,4.7,4.7,0,0,0-.41-2,4.93,4.93,0,0,0-1.07-1.6,5.4,5.4,0,0,0-1.56-1.09,4.66,4.66,0,0,0-1.94-.41,4.52,4.52,0,0,0-1.92.41,5.49,5.49,0,0,0-1.58,1.09,4.93,4.93,0,0,0-1.07,1.6A5.14,5.14,0,0,0,460.62,113.25Z"/><path class="cls-3" d="M492.87,121a5.93,5.93,0,0,1-2.11-1.32,5.59,5.59,0,0,1-1.36-2.07,7.35,7.35,0,0,1-.47-2.71v-8.64a.64.64,0,0,1,.19-.47.61.61,0,0,1,.45-.19h1.69a.66.66,0,0,1,.66.66v8.62a4.33,4.33,0,0,0,.38,1.94,3.89,3.89,0,0,0,.94,1.22,3.18,3.18,0,0,0,1.22.62q.34.08.63.13a3.74,3.74,0,0,0,.54,0,4.87,4.87,0,0,0,1.15-.17A2.83,2.83,0,0,0,498,118a3.48,3.48,0,0,0,1-1.22,4.33,4.33,0,0,0,.38-1.94v-8.62a.66.66,0,0,1,.66-.66h1.66a.66.66,0,0,1,.66.66v8.64a8.26,8.26,0,0,1-.12,1.42,7.06,7.06,0,0,1-.35,1.29,6,6,0,0,1-1.34,2.07,6.19,6.19,0,0,1-2.11,1.32,7.64,7.64,0,0,1-2.77.47A7.47,7.47,0,0,1,492.87,121Z"/><path class="cls-3" d="M521.58,108.87v2.58a.66.66,0,0,0,.66.66h6.23a.65.65,0,0,1,.66.66v1.39a.66.66,0,0,1-.66.66h-6.23a.65.65,0,0,0-.66.66v2.35a.65.65,0,0,0,.66.66h7.19a.66.66,0,0,1,.66.66v1.37a.66.66,0,0,1-.66.66H519.25a.66.66,0,0,1-.66-.66V106.23a.66.66,0,0,1,.66-.66h10.17a.66.66,0,0,1,.66.66v1.32a.65.65,0,0,1-.66.66h-7.19a.66.66,0,0,0-.66.66Z"/></g></g></svg>