<svg id="Capa_1" data-name="Capa 1" xmlns="http://www.w3.org/2000/svg" viewBox="0 0 422.46 141.73">
    <defs>
        <style>
            .cls-1,.cls-3,.cls-4{fill:#fff;}.cls-1,.cls-3{stroke:#fff;stroke-miterlimit:10;}.cls-2{fill:#74acdf;}.cls-3{stroke-linecap:round;stroke-width:4px;}.cls-5{isolation:isolate;}
        </style>
    </defs>
    <title>autoqe_txt_w</title>
    <path class="cls-1"
          d="M329.34,43.08a25.92,25.92,0,0,0-6.32-9.7,24.69,24.69,0,0,0-9.23-5.69,35.65,35.65,0,0,0-11.41-1.81A28.2,28.2,0,0,0,291,28.2a31,31,0,0,0-9.34,6.32,32,32,0,0,0-6.3,9.23A30.39,30.39,0,0,0,273,55.16a28.61,28.61,0,0,0,2.32,11.4,29,29,0,0,0,6.32,9.21,31,31,0,0,0,9.35,6.3,27.39,27.39,0,0,0,11.41,2.29,30,30,0,0,0,5.34-.61c1.82-.49,4.75-1.58,6.14-.29L331.71,98,331.66,57A40.49,40.49,0,0,0,329.34,43.08Z"/>
    <path class="cls-2"
          d="M297.21,72,320,80.69l.12-24.42c.37-8.63-6.7-17.62-15.13-19.2a17.35,17.35,0,0,0-20.24,13.87C283.17,59.38,289,69.22,297.21,72Zm-2.28-14.1A7.94,7.94,0,1,1,306,60,7.95,7.95,0,0,1,294.93,57.9Z"/>
    <line class="cls-3" x1="307.42" y1="54.55" x2="307.42" y2="75.65"/>
    <g id="_Grupo_" data-name="&lt;Grupo&gt;">
        <g id="_Grupo_2" data-name="&lt;Grupo&gt;">
            <path id="_Trazado_compuesto_" data-name="&lt;Trazado compuesto&gt;" class="cls-4"
                  d="M43.35,81.26l27-53.75a1.75,1.75,0,0,1,3.12,0l26.88,53.75a1.29,1.29,0,0,1,.12,1.44c-.24.48-.72.6-1.32.6H92.06a4.87,4.87,0,0,1-2-.6,5.87,5.87,0,0,1-1.44-1.56L86.3,76.47A4.14,4.14,0,0,0,84.86,75a3,3,0,0,0-1.92-.6H60.86a4.87,4.87,0,0,0-2,.6,5.87,5.87,0,0,0-1.44,1.56l-2.28,4.56a5.87,5.87,0,0,1-1.44,1.56,3,3,0,0,1-1.92.6H44.67a1.55,1.55,0,0,1-1.32-.6A1.51,1.51,0,0,1,43.35,81.26ZM66,65.07H77.54a1.55,1.55,0,0,0,1.32-.6,1.52,1.52,0,0,0,0-1.44l-6-12.84c-.24-.6-.6-1-1.08-1s-.72.36-1.08,1L64.58,63a1.77,1.77,0,0,0,0,1.56A2.57,2.57,0,0,0,66,65.07Z"/>
            <path id="_Trazado_" data-name="&lt;Trazado&gt;" class="cls-4"
                  d="M118.7,82.7a21.49,21.49,0,0,1-7.68-4.8,19.24,19.24,0,0,1-4.92-7.56,27.7,27.7,0,0,1-1.68-9.84V29.07a2.46,2.46,0,0,1,2.4-2.4h6.12a2.46,2.46,0,0,1,2.4,2.4V60.39a15.49,15.49,0,0,0,1.44,7.08,16,16,0,0,0,3.36,4.44,12.06,12.06,0,0,0,4.44,2.28,19.5,19.5,0,0,0,2.28.48,11,11,0,0,0,1.92.12,21.86,21.86,0,0,0,4.2-.6,9.84,9.84,0,0,0,4.44-2.28,12,12,0,0,0,3.48-4.44,15.49,15.49,0,0,0,1.44-7.08V29.07a2.46,2.46,0,0,1,2.4-2.4h6a2.18,2.18,0,0,1,1.68.72,2.37,2.37,0,0,1,.72,1.68V60.51a24.29,24.29,0,0,1-.48,5.16,19.21,19.21,0,0,1-1.32,4.68,21.14,21.14,0,0,1-4.92,7.56,22.6,22.6,0,0,1-7.68,4.8,29.58,29.58,0,0,1-10.08,1.68A28.88,28.88,0,0,1,118.7,82.7Z"/>
            <path id="_Trazado_2" data-name="&lt;Trazado&gt;" class="cls-4"
                  d="M200.77,36.15h-11.4a2,2,0,0,0-1.68.72,3,3,0,0,0-.72,1.68V80.91a2.46,2.46,0,0,1-2.4,2.4h-6a2.18,2.18,0,0,1-1.68-.72,3,3,0,0,1-.72-1.68V38.67a2.18,2.18,0,0,0-.72-1.68,3,3,0,0,0-1.68-.72H162.25a2.46,2.46,0,0,1-2.4-2.4v-4.8a2.46,2.46,0,0,1,2.4-2.4h38.52a2.46,2.46,0,0,1,2.4,2.4v4.8a2.37,2.37,0,0,1-.72,1.68A2,2,0,0,1,200.77,36.15Z"/>
            <path id="_Trazado_compuesto_2" data-name="&lt;Trazado compuesto&gt;" class="cls-4"
                  d="M235.92,84.5a29.72,29.72,0,0,1-11.4-2.28,27.58,27.58,0,0,1-9.36-6.36,30.05,30.05,0,0,1-6.36-9.36A28.61,28.61,0,0,1,206.53,55a30.8,30.8,0,0,1,2.28-11.52,28.14,28.14,0,0,1,6.36-9.36,30.05,30.05,0,0,1,9.36-6.36,29.94,29.94,0,0,1,22.92,0,28.14,28.14,0,0,1,9.36,6.36,30.05,30.05,0,0,1,6.36,9.36A28.61,28.61,0,0,1,265.44,55a28.61,28.61,0,0,1-2.28,11.52,28.14,28.14,0,0,1-6.36,9.36,30.05,30.05,0,0,1-9.36,6.36A30.8,30.8,0,0,1,235.92,84.5Zm0-48.83a16.19,16.19,0,0,0-7.2,1.56,20.94,20.94,0,0,0-5.88,4.2,20.63,20.63,0,0,0-4,6.12,19,19,0,0,0-1.44,7.32,20,20,0,0,0,1.44,7.44,19.21,19.21,0,0,0,4,6.12,17.05,17.05,0,0,0,5.88,4.2,16.56,16.56,0,0,0,7.2,1.56,16.19,16.19,0,0,0,7.2-1.56,20.94,20.94,0,0,0,5.88-4.2,20.63,20.63,0,0,0,4-6.12,19.12,19.12,0,0,0,1.44-7.44A19.4,19.4,0,0,0,253,47.55a19.21,19.21,0,0,0-4-6.12,18.79,18.79,0,0,0-5.88-4.2A15.84,15.84,0,0,0,235.92,35.67Z"/>
            <path id="_Trazado_3" data-name="&lt;Trazado&gt;" class="cls-2"
                  d="M350,38.67V48a2.46,2.46,0,0,0,2.4,2.4h22.68a2.46,2.46,0,0,1,2.4,2.4v5a2.46,2.46,0,0,1-2.4,2.4H352.43a2.46,2.46,0,0,0-2.4,2.4v8.52a2.46,2.46,0,0,0,2.4,2.4h26.16A2.46,2.46,0,0,1,381,76v4.92a2.46,2.46,0,0,1-2.4,2.4h-37a2.46,2.46,0,0,1-2.4-2.4V29a2.46,2.46,0,0,1,2.4-2.4h37A2.46,2.46,0,0,1,381,29v4.8a2.46,2.46,0,0,1-2.4,2.4H352.43a2.37,2.37,0,0,0-1.68.72A2.44,2.44,0,0,0,350,38.67Z"/>
        </g>
        <g class="cls-5">
            <path class="cls-4"
                  d="M41.53,115.39l7.4-14.78a.48.48,0,0,1,.85,0l7.4,14.78a.4.4,0,0,1,0,.41.39.39,0,0,1-.37.17H54.9a1,1,0,0,1-.55-.17.91.91,0,0,1-.38-.43l-.64-1.28a1.13,1.13,0,0,0-.39-.41,1,1,0,0,0-.54-.17H46.33a1.05,1.05,0,0,0-.55.17.92.92,0,0,0-.38.43l-.62,1.26a1.07,1.07,0,0,1-.39.43,1,1,0,0,1-.54.17H41.89a.39.39,0,0,1-.37-.17A.43.43,0,0,1,41.53,115.39Zm6.25-4.48h3.16a.38.38,0,0,0,.37-.18.45.45,0,0,0,0-.42l-1.66-3.52c-.07-.17-.16-.26-.28-.26s-.21.08-.28.26l-1.68,3.52a.45.45,0,0,0,0,.43A.41.41,0,0,0,47.78,110.91Z"/>
            <path class="cls-4"
                  d="M75.12,115.77A5.93,5.93,0,0,1,73,114.45a5.59,5.59,0,0,1-1.37-2.07,7.37,7.37,0,0,1-.47-2.71V101a.64.64,0,0,1,.19-.47.61.61,0,0,1,.45-.19H73.5a.65.65,0,0,1,.66.66v8.62a4.33,4.33,0,0,0,.38,1.94,3.89,3.89,0,0,0,.94,1.22,3.19,3.19,0,0,0,1.22.62q.34.08.63.13a3.74,3.74,0,0,0,.54,0,4.88,4.88,0,0,0,1.15-.17,2.84,2.84,0,0,0,1.22-.62,3.48,3.48,0,0,0,1-1.22,4.33,4.33,0,0,0,.38-1.94V101a.66.66,0,0,1,.66-.66h1.66a.65.65,0,0,1,.66.66v8.64a8.25,8.25,0,0,1-.12,1.42,7.06,7.06,0,0,1-.35,1.29,6,6,0,0,1-1.34,2.07,6.2,6.2,0,0,1-2.11,1.32,7.65,7.65,0,0,1-2.77.47A7.47,7.47,0,0,1,75.12,115.77Z"/>
            <path class="cls-4"
                  d="M110.52,103h-3.14a.66.66,0,0,0-.66.66V115.3a.66.66,0,0,1-.66.66H104.4a.66.66,0,0,1-.66-.66V103.66a.66.66,0,0,0-.66-.66H99.92a.65.65,0,0,1-.66-.66V101a.66.66,0,0,1,.66-.66h10.6a.66.66,0,0,1,.66.66v1.32a.65.65,0,0,1-.66.66Z"/>
            <path class="cls-4"
                  d="M133,116.26a7.79,7.79,0,0,1-3.14-.64,8.18,8.18,0,0,1-4.31-4.31,8.08,8.08,0,0,1,0-6.3,8.15,8.15,0,0,1,4.31-4.32,8.06,8.06,0,0,1,6.29,0,8.15,8.15,0,0,1,4.31,4.32,8.08,8.08,0,0,1,0,6.3,8.18,8.18,0,0,1-4.31,4.31A7.84,7.84,0,0,1,133,116.26Zm0-13.42a4.61,4.61,0,0,0-2,.44,5.41,5.41,0,0,0-1.62,1.16,5.5,5.5,0,0,0-1.1,1.7,5.26,5.26,0,0,0,0,4,5.68,5.68,0,0,0,1.1,1.7,5.31,5.31,0,0,0,1.62,1.17,4.74,4.74,0,0,0,4,0,5.31,5.31,0,0,0,1.62-1.17,5.66,5.66,0,0,0,1.1-1.7,5.25,5.25,0,0,0,0-4,5.48,5.48,0,0,0-1.1-1.7,5.41,5.41,0,0,0-1.62-1.16A4.61,4.61,0,0,0,133.06,102.84Z"/>
            <path class="cls-4"
                  d="M175.53,115.39l7.4-14.78a.48.48,0,0,1,.85,0l7.4,14.78a.4.4,0,0,1,0,.41.39.39,0,0,1-.37.17h-1.94a1,1,0,0,1-.55-.17.91.91,0,0,1-.38-.43l-.64-1.28a1.13,1.13,0,0,0-.39-.41,1,1,0,0,0-.54-.17h-6.06a1.05,1.05,0,0,0-.55.17.92.92,0,0,0-.38.43l-.62,1.26a1.07,1.07,0,0,1-.39.43,1,1,0,0,1-.54.17H175.9a.39.39,0,0,1-.37-.17A.43.43,0,0,1,175.53,115.39Zm6.25-4.48h3.16a.38.38,0,0,0,.37-.18.45.45,0,0,0,0-.42l-1.66-3.52c-.07-.17-.16-.26-.28-.26s-.21.08-.28.26l-1.68,3.52a.45.45,0,0,0,0,.43A.41.41,0,0,0,181.78,110.91Z"/>
            <path class="cls-4"
                  d="M216.91,114v1.32a.66.66,0,0,1-.66.66h-9.92a.66.66,0,0,1-.66-.66V101a.66.66,0,0,1,.66-.66H208a.66.66,0,0,1,.66.66v11.65a.66.66,0,0,0,.66.66h6.93a.65.65,0,0,1,.66.66Z"/>
            <path class="cls-4"
                  d="M262.36,103h-3.13a.66.66,0,0,0-.66.66V115.3a.66.66,0,0,1-.66.66h-1.66a.64.64,0,0,1-.47-.19.63.63,0,0,1-.19-.47V103.66a.66.66,0,0,0-.66-.66h-3.16a.65.65,0,0,1-.66-.66V101a.66.66,0,0,1,.66-.66h10.6a.66.66,0,0,1,.66.66v1.32a.65.65,0,0,1-.66.66Z"/>
            <path class="cls-4"
                  d="M284.88,116.26a7.79,7.79,0,0,1-3.14-.64,8.18,8.18,0,0,1-4.31-4.31,8.08,8.08,0,0,1,0-6.3,8.15,8.15,0,0,1,4.31-4.32,8.06,8.06,0,0,1,6.29,0,8.15,8.15,0,0,1,4.31,4.32,8.08,8.08,0,0,1,0,6.3,8.18,8.18,0,0,1-4.31,4.31A7.84,7.84,0,0,1,284.88,116.26Zm0-13.42a4.61,4.61,0,0,0-2,.44,5.41,5.41,0,0,0-1.62,1.16,5.49,5.49,0,0,0-1.1,1.7,5.25,5.25,0,0,0,0,4,5.67,5.67,0,0,0,1.1,1.7,5.31,5.31,0,0,0,1.62,1.17,4.74,4.74,0,0,0,4,0,5.32,5.32,0,0,0,1.62-1.17,5.67,5.67,0,0,0,1.1-1.7,5.25,5.25,0,0,0,0-4,5.49,5.49,0,0,0-1.1-1.7,5.42,5.42,0,0,0-1.62-1.16A4.61,4.61,0,0,0,284.89,102.84Z"/>
            <path class="cls-4"
                  d="M342.94,115.77a5.93,5.93,0,0,1-2.11-1.32,5.59,5.59,0,0,1-1.36-2.07,7.35,7.35,0,0,1-.47-2.71V101a.64.64,0,0,1,.19-.47.61.61,0,0,1,.45-.19h1.69a.66.66,0,0,1,.66.66v8.62a4.33,4.33,0,0,0,.38,1.94,3.89,3.89,0,0,0,.94,1.22,3.18,3.18,0,0,0,1.22.62q.34.08.63.13a3.74,3.74,0,0,0,.54,0,4.87,4.87,0,0,0,1.15-.17,2.83,2.83,0,0,0,1.22-.62,3.48,3.48,0,0,0,1-1.22,4.33,4.33,0,0,0,.38-1.94V101a.66.66,0,0,1,.66-.66h1.66a.66.66,0,0,1,.66.66v8.64a8.26,8.26,0,0,1-.12,1.42,7.06,7.06,0,0,1-.35,1.29,6,6,0,0,1-1.34,2.07,6.19,6.19,0,0,1-2.11,1.32,7.64,7.64,0,0,1-2.77.47A7.47,7.47,0,0,1,342.94,115.77Z"/>
            <path class="cls-4"
                  d="M371.65,103.66v2.58a.66.66,0,0,0,.66.66h6.23a.65.65,0,0,1,.66.66v1.39a.66.66,0,0,1-.66.66h-6.23a.65.65,0,0,0-.66.66v2.35a.65.65,0,0,0,.66.66h7.19a.66.66,0,0,1,.66.66v1.37a.66.66,0,0,1-.66.66H369.32a.66.66,0,0,1-.66-.66V101a.66.66,0,0,1,.66-.66h10.17a.66.66,0,0,1,.66.66v1.32a.65.65,0,0,1-.66.66h-7.19a.66.66,0,0,0-.66.66Z"/>
        </g>
    </g>
    <path class="cls-4"
          d="M324.08,114.17v1.43a.66.66,0,0,1-.66.66h-7.1a10.16,10.16,0,0,1-3.78-.64,7,7,0,0,1-2.62-1.71,6.66,6.66,0,0,1-1.56-2.52,9.71,9.71,0,0,1-.49-3.09,7.9,7.9,0,0,1,.62-3.09,8.83,8.83,0,0,1,1.71-2.54,8.39,8.39,0,0,1,2.52-1.71,7.9,7.9,0,0,1,3.09-.62,8,8,0,0,1,3.09.62,8.22,8.22,0,0,1,2.52,1.71,8.32,8.32,0,0,1,1.71,2.54,7.57,7.57,0,0,1,.64,3.09,6.88,6.88,0,0,1-.17,1.45,5.52,5.52,0,0,1-1.45,2.75,2.64,2.64,0,0,1-.38.35l-.45.33q-.49.32.09.32h2a.66.66,0,0,1,.66.66Zm-13.22-5.87a5,5,0,0,0,.38,1.94,5.23,5.23,0,0,0,2.64,2.71,4.52,4.52,0,0,0,1.92.41,4.66,4.66,0,0,0,1.94-.41,4.87,4.87,0,0,0,1.56-1.11,4.93,4.93,0,0,0,1.07-1.6,4.65,4.65,0,0,0,.41-1.94,4.7,4.7,0,0,0-.41-2,4.93,4.93,0,0,0-1.07-1.6,5.4,5.4,0,0,0-1.56-1.09,4.66,4.66,0,0,0-1.94-.41,4.52,4.52,0,0,0-1.92.41,5.49,5.49,0,0,0-1.58,1.09,4.93,4.93,0,0,0-1.07,1.6A5.14,5.14,0,0,0,310.85,108.3Z"/>
</svg>