<svg id="Capa_1" data-name="Capa 1" xmlns="http://www.w3.org/2000/svg" viewBox="0 0 626.71 141.73"><defs><style>.cls-1{fill:#85a9db;}.cls-2{fill:#212f41;}</style></defs><title>autoqe_txt</title><path class="cls-1" d="M116,77.94c10.29,29.54,38.29,35,55.91,24.33A37.19,37.19,0,0,0,189.17,77.8c-.1.44-.2.88-.32,1.32A37.36,37.36,0,0,1,183,91.91a37.22,37.22,0,0,1-24.37,14.76,35,35,0,0,1-14-.73,37.36,37.36,0,0,1-12.79-5.86,37.6,37.6,0,0,1-14.84-24.5,35,35,0,0,1,.73-14,37.36,37.36,0,0,1,5.86-12.79,38.3,38.3,0,0,1,10.78-9.84A37,37,0,0,1,147.91,34a34.29,34.29,0,0,1,14,.73,37.36,37.36,0,0,1,12.79,5.85,35.57,35.57,0,0,1,9.84,10.78,37.9,37.9,0,0,1,4.69,12.1,37.3,37.3,0,0,0-56-25C71.33,76.09,108.74,57,116,77.94Z"/><path class="cls-1" d="M174.74,40.58A37.36,37.36,0,0,0,162,34.72a34.29,34.29,0,0,0-14-.73,37,37,0,0,0-13.59,4.92,38.3,38.3,0,0,0-10.78,9.84,37.36,37.36,0,0,0-5.86,12.79,35,35,0,0,0-.73,14,37.6,37.6,0,0,0,14.84,24.5,37.36,37.36,0,0,0,12.79,5.86,35,35,0,0,0,14,.73A37.22,37.22,0,0,0,183,91.91a37.36,37.36,0,0,0,5.86-12.79c.12-.44.22-.88.32-1.32a37.29,37.29,0,0,0,.11-14.34,37.9,37.9,0,0,0-4.69-12.1A35.57,35.57,0,0,0,174.74,40.58Zm1.49,26.65a25.65,25.65,0,0,1-.27,9.06,26,26,0,0,1-3.55,8.25,20.13,20.13,0,0,1-6.65,6.3,19.69,19.69,0,0,1-8.66,3,23.37,23.37,0,0,1-9-.68A24.35,24.35,0,0,1,130.5,73.49a25.65,25.65,0,0,1,.27-9.06,26,26,0,0,1,3.55-8.25,20.13,20.13,0,0,1,6.65-6.3,20.59,20.59,0,0,1,8.66-3,21.2,21.2,0,0,1,9,.68,23.88,23.88,0,0,1,8.15,4,24.88,24.88,0,0,1,6.32,7A23.57,23.57,0,0,1,176.24,67.23Z"/><path class="cls-2" d="M90.14,61C79,31.81,50.88,27.13,33.57,38.29,24.46,44.16,19.92,54.35,17,63.23c.14-.43.17-.89.28-1.33a37.36,37.36,0,0,1,5.49-12.95A35.37,35.37,0,0,1,33.19,38.88a35.57,35.57,0,0,1,13.57-5.38,35,35,0,0,1,14.06.34,37.36,37.36,0,0,1,12.95,5.49A37.6,37.6,0,0,1,89.3,63.41,35,35,0,0,1,89,77.47a37.36,37.36,0,0,1-5.49,12.95A38.3,38.3,0,0,1,73,100.57a37,37,0,0,1-13.45,5.3,34.29,34.29,0,0,1-14.06-.34A37.36,37.36,0,0,1,32.5,100a35.57,35.57,0,0,1-10.14-10.5,37.9,37.9,0,0,1-5-12A37.3,37.3,0,0,0,74,101C134.88,61.64,98,81.79,90.14,61Z"/><path class="cls-2" d="M32.5,100a37.36,37.36,0,0,0,12.95,5.49,34.29,34.29,0,0,0,14.06.34A37,37,0,0,0,73,100.57a38.3,38.3,0,0,0,10.5-10.14A37.36,37.36,0,0,0,89,77.47a35,35,0,0,0,.34-14.06A37.6,37.6,0,0,0,73.78,39.34a37.36,37.36,0,0,0-12.95-5.49,35,35,0,0,0-14.06-.34,35.57,35.57,0,0,0-13.57,5.38A35.37,35.37,0,0,0,22.82,48.95a37.36,37.36,0,0,0-5.49,12.95c-.11.44-.19.89-.28,1.33a37.29,37.29,0,0,0,.29,14.34,37.9,37.9,0,0,0,5,12A35.57,35.57,0,0,0,32.5,100Zm-2.24-26.6a25.65,25.65,0,0,1,0-9.06A26,26,0,0,1,33.59,56a20.13,20.13,0,0,1,6.47-6.48,19.69,19.69,0,0,1,8.57-3.22,23.37,23.37,0,0,1,9,.43,24.35,24.35,0,0,1,18.2,19.15,25.65,25.65,0,0,1,0,9.06,26,26,0,0,1-3.31,8.35A20.13,20.13,0,0,1,66,89.78,20.59,20.59,0,0,1,57.44,93a21.2,21.2,0,0,1-9-.43,23.88,23.88,0,0,1-8.26-3.73A24.88,24.88,0,0,1,33.69,82,23.57,23.57,0,0,1,30.26,73.43Z"/><circle class="cls-1" cx="52.92" cy="69.88" r="6.76"/><circle class="cls-2" cx="153.85" cy="70.99" r="6.76"/><circle class="cls-1" cx="261.1" cy="69.04" r="6.76"/><circle class="cls-2" cx="508.9" cy="68.07" r="6.76"/><path id="_Trazado_" data-name="&lt;Trazado&gt;" class="cls-2" d="M319.89,97.13a22.21,22.21,0,0,1-7.94-5,19.89,19.89,0,0,1-5.08-7.81,28.63,28.63,0,0,1-1.74-10.17V41.69a2.54,2.54,0,0,1,2.48-2.48h6.32a2.54,2.54,0,0,1,2.48,2.48V74.06a16,16,0,0,0,1.49,7.32A16.56,16.56,0,0,0,321.37,86,12.46,12.46,0,0,0,326,88.32a20.15,20.15,0,0,0,2.36.5,11.35,11.35,0,0,0,2,.12,22.59,22.59,0,0,0,4.34-.62A10.17,10.17,0,0,0,339.23,86a12.38,12.38,0,0,0,3.6-4.59,16,16,0,0,0,1.49-7.32V41.69a2.54,2.54,0,0,1,2.48-2.48H353a2.25,2.25,0,0,1,1.74.74,2.45,2.45,0,0,1,.74,1.74V74.18a25.1,25.1,0,0,1-.5,5.33,19.86,19.86,0,0,1-1.36,4.84,21.85,21.85,0,0,1-5.08,7.81,23.35,23.35,0,0,1-7.94,5,30.58,30.58,0,0,1-10.42,1.74A29.85,29.85,0,0,1,319.89,97.13Z"/><path id="_Trazado_2" data-name="&lt;Trazado&gt;" class="cls-2" d="M404.81,49.23H392.88a2.11,2.11,0,0,0-1.76.75,3.16,3.16,0,0,0-.75,1.76V96.08a2.58,2.58,0,0,1-2.51,2.51h-6.28a2.28,2.28,0,0,1-1.76-.75,3.16,3.16,0,0,1-.75-1.76V51.87a2.28,2.28,0,0,0-.75-1.76,3.16,3.16,0,0,0-1.76-.75H364.49A2.58,2.58,0,0,1,362,46.84v-5a2.58,2.58,0,0,1,2.51-2.51h40.32a2.58,2.58,0,0,1,2.51,2.51v5a2.48,2.48,0,0,1-.75,1.76A2,2,0,0,1,404.81,49.23Z"/><path id="_Trazado_compuesto_" data-name="&lt;Trazado compuesto&gt;" class="cls-2" d="M439,98.14a29.72,29.72,0,0,1-11.4-2.28,27.58,27.58,0,0,1-9.36-6.36,30.05,30.05,0,0,1-6.36-9.36,28.61,28.61,0,0,1-2.28-11.52,30.8,30.8,0,0,1,2.28-11.52,28.14,28.14,0,0,1,6.36-9.36,30.05,30.05,0,0,1,9.36-6.36,29.94,29.94,0,0,1,22.92,0,28.14,28.14,0,0,1,9.36,6.36,30.05,30.05,0,0,1,6.36,9.36,30.24,30.24,0,0,1,0,23,28.14,28.14,0,0,1-6.36,9.36,30.05,30.05,0,0,1-9.36,6.36A30.8,30.8,0,0,1,439,98.14Zm0-48.83a16.19,16.19,0,0,0-7.2,1.56,20.94,20.94,0,0,0-5.88,4.2,20.63,20.63,0,0,0-4,6.12,19,19,0,0,0-1.44,7.32A20,20,0,0,0,422,75.94a19.21,19.21,0,0,0,4,6.12,17.05,17.05,0,0,0,5.88,4.2,16.56,16.56,0,0,0,7.2,1.56,16.19,16.19,0,0,0,7.2-1.56,20.94,20.94,0,0,0,5.88-4.2,20.63,20.63,0,0,0,4-6.12,19.12,19.12,0,0,0,1.44-7.44,19.4,19.4,0,0,0-1.44-7.32,19.21,19.21,0,0,0-4-6.12,18.79,18.79,0,0,0-5.88-4.2A15.84,15.84,0,0,0,439,49.3Z"/><path id="_Trazado_3" data-name="&lt;Trazado&gt;" class="cls-1" d="M565.66,51.87v9.8a2.58,2.58,0,0,0,2.51,2.51h23.74a2.58,2.58,0,0,1,2.51,2.51V72a2.58,2.58,0,0,1-2.51,2.51H568.17A2.58,2.58,0,0,0,565.66,77v8.92a2.58,2.58,0,0,0,2.51,2.51h27.38a2.58,2.58,0,0,1,2.51,2.51v5.15a2.58,2.58,0,0,1-2.51,2.51H556.87a2.58,2.58,0,0,1-2.51-2.51V41.7a2.58,2.58,0,0,1,2.51-2.51h38.69a2.58,2.58,0,0,1,2.51,2.51v5a2.58,2.58,0,0,1-2.51,2.51H568.17a2.48,2.48,0,0,0-1.76.75A2.56,2.56,0,0,0,565.66,51.87Z"/><path class="cls-2" d="M289.88,78.91c5.23-24.61-11.76-40-28.32-40a29.91,29.91,0,0,0-22,9.65c.25-.26.5-.52.77-.78a30.05,30.05,0,0,1,9.36-6.36,29.94,29.94,0,0,1,22.92,0,28.14,28.14,0,0,1,9.36,6.36,30.05,30.05,0,0,1,6.36,9.36,30.24,30.24,0,0,1,0,23,28.14,28.14,0,0,1-6.36,9.36,30.05,30.05,0,0,1-9.36,6.36A30.8,30.8,0,0,1,261,98.14a29.72,29.72,0,0,1-11.4-2.28,27.59,27.59,0,0,1-9.36-6.36,30.05,30.05,0,0,1-6.36-9.36,28.61,28.61,0,0,1-2.28-11.52,30.49,30.49,0,0,1,1.82-10.28,30,30,0,0,0,28.09,40.52C319.87,98.81,286.17,96.37,289.88,78.91Z"/><path class="cls-2" d="M233.93,80.14a30.05,30.05,0,0,0,6.36,9.36,27.59,27.59,0,0,0,9.36,6.36A29.72,29.72,0,0,0,261,98.14a30.8,30.8,0,0,0,11.52-2.28,30.05,30.05,0,0,0,9.36-6.36,28.14,28.14,0,0,0,6.36-9.36,30.24,30.24,0,0,0,0-23,30.05,30.05,0,0,0-6.36-9.36,28.14,28.14,0,0,0-9.36-6.36,29.94,29.94,0,0,0-22.92,0,30.05,30.05,0,0,0-9.36,6.36c-.27.25-.52.52-.77.78a30,30,0,0,0-6.05,9.82,30.49,30.49,0,0,0-1.82,10.28A28.61,28.61,0,0,0,233.93,80.14Zm10.08-19a20.63,20.63,0,0,1,4-6.12,20.94,20.94,0,0,1,5.88-4.2A16.19,16.19,0,0,1,261,49.3a15.84,15.84,0,0,1,7.2,1.56,18.8,18.8,0,0,1,5.88,4.2,19.59,19.59,0,0,1,4,20.88,20.63,20.63,0,0,1-4,6.12,21,21,0,0,1-5.88,4.2,16.19,16.19,0,0,1-7.2,1.56,16.56,16.56,0,0,1-7.2-1.56,17.05,17.05,0,0,1-5.88-4.2,19.21,19.21,0,0,1-4-6.12,20,20,0,0,1-1.44-7.44A19,19,0,0,1,244,61.18Z"/><path class="cls-1" d="M518.94,96.85c-24.61,5.23-40-11.76-40-28.32a29.91,29.91,0,0,1,9.65-22c-.26.25-.52.5-.78.77a30.05,30.05,0,0,0-6.36,9.36,29.94,29.94,0,0,0,0,22.92,28.14,28.14,0,0,0,6.36,9.36,30.05,30.05,0,0,0,9.36,6.36,30.24,30.24,0,0,0,23,0,28.14,28.14,0,0,0,9.36-6.36,30.05,30.05,0,0,0,6.36-9.36A30.8,30.8,0,0,0,538.17,68a29.72,29.72,0,0,0-2.28-11.4,27.59,27.59,0,0,0-6.36-9.36,30.05,30.05,0,0,0-9.36-6.36,28.61,28.61,0,0,0-11.52-2.28,30.49,30.49,0,0,0-10.28,1.82A30,30,0,0,1,538.9,68.52C538.85,126.83,536.41,93.13,518.94,96.85Z"/><path class="cls-1" d="M508.66,38.61a30.49,30.49,0,0,0-10.28,1.82,30,30,0,0,0-9.82,6.05c-.26.25-.52.5-.78.77a30.05,30.05,0,0,0-6.36,9.36,29.94,29.94,0,0,0,0,22.92,28.14,28.14,0,0,0,6.36,9.36,30.05,30.05,0,0,0,9.36,6.36,30.24,30.24,0,0,0,23,0,28.14,28.14,0,0,0,9.36-6.36,30.05,30.05,0,0,0,6.36-9.36A30.8,30.8,0,0,0,538.17,68a29.72,29.72,0,0,0-2.28-11.4,27.59,27.59,0,0,0-6.36-9.36,30.05,30.05,0,0,0-9.36-6.36A28.61,28.61,0,0,0,508.66,38.61Zm-.12,10.92A20,20,0,0,1,516,51a19.21,19.21,0,0,1,6.12,4,17.05,17.05,0,0,1,4.2,5.88,16.56,16.56,0,0,1,1.56,7.2,16.19,16.19,0,0,1-1.56,7.2,21,21,0,0,1-4.2,5.88A20.63,20.63,0,0,1,516,85a19.12,19.12,0,0,1-7.44,1.44,19.52,19.52,0,0,1-13.44-5.4,18.8,18.8,0,0,1-4.2-5.88,15.84,15.84,0,0,1-1.56-7.2,16.19,16.19,0,0,1,1.56-7.2,20.94,20.94,0,0,1,4.2-5.88,20.63,20.63,0,0,1,6.12-4A19,19,0,0,1,508.54,49.53Z"/></svg>