<svg id="Capa_1" data-name="Capa 1" xmlns="http://www.w3.org/2000/svg" viewBox="0 0 141.73 141.73"><defs><style>.cls-1{fill:#122b40;stroke:#fffdfd;stroke-miterlimit:10;}.cls-2{fill:#74acdf;}</style></defs><title>autoqe</title><path id="_Trazado_compuesto_" data-name="&lt;Trazado compuesto&gt;" class="cls-1" d="M30,79.3h0A13.9,13.9,0,0,0,12.16,71h0C5.5,73.1,1.24,81.22,2.45,88.31l2.9,19,16.89-9.56C28.61,94.35,32.18,86,30,79.3ZM15,88a5.11,5.11,0,0,1-2.27-6.32,5.11,5.11,0,0,1,6.32-2.27,5.11,5.11,0,0,1,2.27,6.32A4.61,4.61,0,0,1,15,88Z"/><path id="_Trazado_compuesto_2" data-name="&lt;Trazado compuesto&gt;" class="cls-2" d="M3.09,125.72h0a13.9,13.9,0,0,0,18.2,7.63h0c6.57-2.41,10.5-10.7,9-17.74l-3.67-18.9L10.14,106.95C3.92,110.63.68,119.15,3.09,125.72Zm14.64-9.32a5.11,5.11,0,0,1,2.53,6.23A5.11,5.11,0,0,1,14,125.16a5.11,5.11,0,0,1-2.53-6.23A4.61,4.61,0,0,1,17.74,116.41Z"/><path id="_Trazado_compuesto_3" data-name="&lt;Trazado compuesto&gt;" class="cls-1" d="M124.45,68.08h0a14.86,14.86,0,0,0-17.71,11.47h0c-1.83,7.26,3.12,15.73,10.23,18.65l18.9,8.16.9-20.73C137.28,77.91,131.71,69.91,124.45,68.08Zm-.6,18.55a5.08,5.08,0,1,1-5.5-8.54,5.46,5.46,0,0,1,7,1.52A4.93,4.93,0,0,1,123.85,86.63Z"/><path id="_Trazado_compuesto_4" data-name="&lt;Trazado compuesto&gt;" class="cls-2" d="M124.24,134.74h0a13.9,13.9,0,0,0,16.37-11h0c1.6-6.82-3.17-14.65-9.86-17.27l-17.8-7.33-.51,19.4C112.08,125.75,117.42,133.14,124.24,134.74Zm.27-17.36a4.75,4.75,0,1,1-1.31,6.59A4.61,4.61,0,0,1,124.51,117.39Z"/><path id="_Trazado_compuesto_5" data-name="&lt;Trazado compuesto&gt;" class="cls-1" d="M35.06,79.71h0a9,9,0,0,0,9.19-8.84h0c.25-4.52-3.66-9-8.21-9.9L23.88,58.3l1.85,12.41C26.31,75.35,30.54,79.46,35.06,79.71ZM33.29,68.63a3.07,3.07,0,1,1-.1,4.34A3,3,0,0,1,33.29,68.63Z"/><path id="_Trazado_compuesto_6" data-name="&lt;Trazado compuesto&gt;" class="cls-1" d="M54.09,59.34h0a10.17,10.17,0,0,0-8.43,11.72h0c.64,5.08,5.9,9.24,11.16,9.34l14.08.49L66.31,67.45C64.71,62.41,59.17,58.7,54.09,59.34Zm4.23,12a3.48,3.48,0,1,1-5.63-4.07,3.74,3.74,0,0,1,4.85-.78A3.37,3.37,0,0,1,58.32,71.31Z"/><path id="_Trazado_compuesto_7" data-name="&lt;Trazado compuesto&gt;" class="cls-1" d="M81.87,79.84h0A10.17,10.17,0,0,0,89.52,67.6h0c-1-5-6.5-8.84-11.75-8.59l-14.08.43,5.45,13.11C71.07,77.48,76.84,80.81,81.87,79.84Zm-5-11.67A3.48,3.48,0,1,1,78,73,3.37,3.37,0,0,1,76.86,68.17Z"/><path id="_Trazado_compuesto_8" data-name="&lt;Trazado compuesto&gt;" class="cls-1" d="M90.66,72.41h0a9.27,9.27,0,0,0,10.22,8.29h0c4.66-.31,8.72-4.89,9.09-9.66l1.19-12.79L98.69,61.72C94,62.9,90.35,67.75,90.66,72.41Zm11.12-3.22a3.17,3.17,0,1,1-4.46.45A3.08,3.08,0,0,1,101.78,69.19Z"/><path id="_Trazado_compuesto_9" data-name="&lt;Trazado compuesto&gt;" class="cls-1" d="M8.51,64.39h0a6.8,6.8,0,0,0,8,5.47h0c3.39-.5,6.1-4.08,6.08-7.6l.13-9.42L13.76,56.1A8,8,0,0,0,8.51,64.39Zm7.94-3A2.5,2.5,0,0,1,17,64.62a2.5,2.5,0,0,1-3.23.59A2.5,2.5,0,0,1,13.22,62,2.26,2.26,0,0,1,16.45,61.38Z"/><path id="_Trazado_compuesto_10" data-name="&lt;Trazado compuesto&gt;" class="cls-1" d="M3.8,44.53h0a6.8,6.8,0,0,0-.62,9.63h0c2.17,2.65,6.63,3.14,9.64,1.33L21,50.78l-7.37-6A8,8,0,0,0,3.8,44.53Zm6.65,5.28A2.5,2.5,0,0,1,8,52a2.32,2.32,0,0,1,.31-4.64A2.26,2.26,0,0,1,10.45,49.82Z"/><path id="_Trazado_compuesto_11" data-name="&lt;Trazado compuesto&gt;" class="cls-1" d="M28.93,37.6h0a6.8,6.8,0,0,0-9.64.45h0c-2.4,2.44-2.39,6.93-.26,9.73l5.59,7.58,5.14-8A8,8,0,0,0,28.93,37.6Zm-4.52,7.19a2.32,2.32,0,1,1-.2-4.64,2.5,2.5,0,0,1,2.42,2.22A2.26,2.26,0,0,1,24.41,44.79Z"/><path id="_Trazado_compuesto_12" data-name="&lt;Trazado compuesto&gt;" class="cls-1" d="M129,47.4l-7.37,6,8.15,4.72c3,1.81,7.47,1.32,9.64-1.33h0a6.8,6.8,0,0,0-.62-9.63h0A8,8,0,0,0,129,47.4Zm5.32,2.55a2.32,2.32,0,1,1-2.16,2.47A2.26,2.26,0,0,1,134.28,49.95Z"/><path id="_Trazado_compuesto_13" data-name="&lt;Trazado compuesto&gt;" class="cls-1" d="M123.2,58.09h0a6.33,6.33,0,0,0-7.69-4.66h0c-3.12.64-5.45,4.12-5.26,7.39l.38,8.77,8.12-3.5A7.49,7.49,0,0,0,123.2,58.09ZM116,61.31a2.17,2.17,0,1,1,3-.72A2.1,2.1,0,0,1,116,61.31Z"/><path id="_Trazado_compuesto_14" data-name="&lt;Trazado compuesto&gt;" class="cls-1" d="M124.22,66.95h0a3.91,3.91,0,0,0,5.5-.7h0a4.48,4.48,0,0,0-.3-5.58l-3.55-4.09-2.58,4.81A4.62,4.62,0,0,0,124.22,66.95Zm2.26-4.33a1.34,1.34,0,1,1-1.16,1.49A1.3,1.3,0,0,1,126.48,62.62Z"/><path id="_Trazado_compuesto_15" data-name="&lt;Trazado compuesto&gt;" class="cls-1" d="M29.83,27.09h0a4.41,4.41,0,0,0-6,1.65h0A5.07,5.07,0,0,0,25,34.94l4.61,4,2.13-5.79A5.22,5.22,0,0,0,29.83,27.09ZM28,32.29A1.51,1.51,0,1,1,29,30.44,1.46,1.46,0,0,1,28,32.29Z"/><path id="_Trazado_compuesto_16" data-name="&lt;Trazado compuesto&gt;" class="cls-1" d="M30.8,39.58h0a3.17,3.17,0,0,0,4.49-.31h0a3.64,3.64,0,0,0,0-4.54l-2.68-3.48L30.32,35A3.75,3.75,0,0,0,30.8,39.58Zm2-3.4a1.08,1.08,0,1,1-1,1.15A1.05,1.05,0,0,1,32.84,36.18Z"/><path id="_Trazado_compuesto_17" data-name="&lt;Trazado compuesto&gt;" class="cls-1" d="M39.71,36.67h0A3.17,3.17,0,0,0,42,32.8h0a3.64,3.64,0,0,0-3.72-2.61l-4.39.22,1.78,4.06A3.75,3.75,0,0,0,39.71,36.67Zm-1.63-3.61a1.08,1.08,0,1,1,.37,1.49A1.05,1.05,0,0,1,38.08,33.06Z"/><path id="_Trazado_compuesto_18" data-name="&lt;Trazado compuesto&gt;" class="cls-1" d="M43.3,80h0a18.79,18.79,0,0,0-13.64,22.93h0c2,9.25,12.36,16.07,22.05,15.4l26-1.35L67.11,93C63.36,84,52.55,78,43.3,80ZM53,101.37a6.91,6.91,0,0,1-8.81,2.21A6.91,6.91,0,0,1,42,94.77a6.91,6.91,0,0,1,8.81-2.21A6.24,6.24,0,0,1,53,101.37Z"/><path id="_Trazado_compuesto_19" data-name="&lt;Trazado compuesto&gt;" class="cls-1" d="M97.88,119.55h0A18.79,18.79,0,0,0,111.5,96.61h0c-2-9.25-12.37-16.06-22.06-15.39l-26,1.37,10.62,24C77.82,115.62,88.63,121.55,97.88,119.55ZM88.15,98.19a6.42,6.42,0,1,1,11,6.59A6.91,6.91,0,0,1,90.37,107,6.24,6.24,0,0,1,88.15,98.19Z"/><path id="_Trazado_compuesto_20" data-name="&lt;Trazado compuesto&gt;" class="cls-1" d="M61.71,13.79h0a6.67,6.67,0,0,0-5.53,7.69h0c.42,3.33,3.88,6.07,7.33,6.13l9.24.32-3-8.82A7.89,7.89,0,0,0,61.71,13.79Zm2.78,7.86A2.28,2.28,0,1,1,60.79,19,2.45,2.45,0,0,1,64,18.46,2.21,2.21,0,0,1,64.49,21.65Z"/><path id="_Trazado_compuesto_21" data-name="&lt;Trazado compuesto&gt;" class="cls-1" d="M78.69,26.88h0a6,6,0,0,0,4.69-7h0c-.48-3-3.65-5.28-6.73-5.23H68.4l3,7.77A7,7,0,0,0,78.69,26.88ZM76,20a2,2,0,1,1,3.38,2.27,2.19,2.19,0,0,1-2.82.56A2,2,0,0,1,76,20Z"/><path id="_Trazado_compuesto_22" data-name="&lt;Trazado compuesto&gt;" class="cls-1" d="M34.31,17.1h0a6.25,6.25,0,0,0-5.18,7.2h0C29.53,27.43,32.76,30,36,30l8.65.3-2.82-8.26A7.38,7.38,0,0,0,34.31,17.1Zm2.6,7.35A2.14,2.14,0,1,1,33.45,22a2.3,2.3,0,0,1,3-.48A2.07,2.07,0,0,1,36.91,24.46Z"/><path id="_Trazado_compuesto_23" data-name="&lt;Trazado compuesto&gt;" class="cls-1" d="M51.09,28.05h0a6.25,6.25,0,0,0,4.7-7.52h0c-.6-3.09-4-5.43-7.22-5.28l-8.65.26,3.35,8.05A7.38,7.38,0,0,0,51.09,28.05ZM48,20.88a2.14,2.14,0,1,1,3.62,2.27,2.3,2.3,0,0,1-2.94.67A2.07,2.07,0,0,1,48,20.88Z"/><path id="_Trazado_compuesto_24" data-name="&lt;Trazado compuesto&gt;" class="cls-1" d="M111.27,44.42l5.14,8L122,44.82c2.13-2.79,2.14-7.28-.26-9.73h0a6.8,6.8,0,0,0-9.64-.45h0A8,8,0,0,0,111.27,44.42Zm3.12-5a2.32,2.32,0,1,1,2.22,2.42A2.26,2.26,0,0,1,114.39,39.42Z"/><path id="_Trazado_compuesto_25" data-name="&lt;Trazado compuesto&gt;" class="cls-1" d="M111.75,27.85l.53,5,4.48-2.27A4.16,4.16,0,0,0,119,25.92h0a3.62,3.62,0,0,0-4.48-2.52h0A4.28,4.28,0,0,0,111.75,27.85Zm2.69-1.64a1.24,1.24,0,1,1,.48,1.69A1.2,1.2,0,0,1,114.44,26.21Z"/><path id="_Trazado_compuesto_26" data-name="&lt;Trazado compuesto&gt;" class="cls-1" d="M112.17,32.57l-1.22-4.13-3.5,2.48a3.41,3.41,0,0,0-1.18,4.21h0a3.26,3.26,0,0,0,4.24,1.52h0A3.51,3.51,0,0,0,112.17,32.57Zm-2.06,1.72a1.15,1.15,0,0,1-1.38.62,1.14,1.14,0,0,1-.67-1.35,1.15,1.15,0,0,1,1.38-.62A1,1,0,0,1,110.11,34.29Z"/><path id="_Trazado_compuesto_27" data-name="&lt;Trazado compuesto&gt;" class="cls-1" d="M119.8,48.75l-1,3.82,3.92-.48a3.27,3.27,0,0,0,2.89-2.85h0a2.82,2.82,0,0,0-2.63-3h0A3.37,3.37,0,0,0,119.8,48.75Zm2.42-.49a1.05,1.05,0,0,1,1.37.1,1,1,0,0,1-.1,1.36,1.05,1.05,0,0,1-1.37-.1A.93.93,0,0,1,122.23,48.26Z"/><path id="_Trazado_compuesto_28" data-name="&lt;Trazado compuesto&gt;" class="cls-1" d="M88.62,64.69,91,67.83l2.07-3.36a3.27,3.27,0,0,0-.42-4h0a2.82,2.82,0,0,0-4,.16h0A3.37,3.37,0,0,0,88.62,64.69Zm1.13-2.2a1.05,1.05,0,0,1,.93-1,1,1,0,0,1,1,.93,1.05,1.05,0,0,1-.93,1A.93.93,0,0,1,89.75,62.49Z"/><path id="_Trazado_compuesto_29" data-name="&lt;Trazado compuesto&gt;" class="cls-1" d="M99.82,20.86l-4.92,7.2,8.41,2c3.13.81,6.93-.79,8.14-3.69h0a6.25,6.25,0,0,0-3.06-8.32h0A7.38,7.38,0,0,0,99.82,20.86Zm5.35.85A2.3,2.3,0,0,1,107.92,23a2.14,2.14,0,1,1-4,1.49A2.07,2.07,0,0,1,105.17,21.71Z"/><path id="_Trazado_compuesto_30" data-name="&lt;Trazado compuesto&gt;" class="cls-1" d="M96.16,23.37l5.2-7L93,14c-3.09-.93-7,.52-8.28,3.37h0a6.25,6.25,0,0,0,2.74,8.44h0A7.38,7.38,0,0,0,96.16,23.37Zm-5.32-1.06a2.3,2.3,0,0,1-2.69-1.36,2.14,2.14,0,1,1,4.06-1.33A2.07,2.07,0,0,1,90.85,22.31Z"/></svg>