<?xml version="1.0" encoding="utf-8"?>
<!-- Generator: Adobe Illustrator 21.1.0, SVG Export Plug-In . SVG Version: 6.00 Build 0)  -->
<svg version="1.1" id="Capa_1" xmlns="http://www.w3.org/2000/svg"  x="0px" y="0px"
	 viewBox="0 0 141.7 141.7" style="enable-background:new 0 0 141.7 141.7;" xml:space="preserve">
<style type="text/css">
	.st0{fill:#1081E0;stroke:#FFFFFF;stroke-miterlimit:10;}
	.st1{fill:#122B40;stroke:#FFFDFD;stroke-width:2;stroke-miterlimit:10;}
	.st2{fill:#1081E0;}
	.st3{fill:#122B40;stroke:#FFFDFD;stroke-miterlimit:10;}
	.st4{fill:#122B40;stroke:#FFFFFF;stroke-width:0.75;stroke-miterlimit:10;}
	.st5{fill:#606060;}
	.st6{fill:#122B40;stroke:#FFFDFD;stroke-width:0.5;stroke-miterlimit:10;}
	.st7{fill:#212F41;}
	.st8{fill:#85A9DB;}
</style>
<path id="XMLID_332_" class="st0" d="M51,39L51,39c-5.9-2-12.3,1-14.3,6.9l0,0c-2,5.2,0.9,12,5.9,14.9L56,68.6l2.6-15.4
	C59.7,47.5,56.3,41,51,39z M48.9,52.8c-1.9,0.8-4.1,0-5.1-1.8c-0.8-1.9,0-4.1,1.8-5.1c1.9-0.8,4.1,0,5.1,1.8
	C51.7,49.5,50.8,52,48.9,52.8z"/>
<path id="XMLID_331_" class="st0" d="M74,34.4L74,34.4c-3.4-3.4-8.8-3.6-12.3-0.3l0,0c-3.2,2.9-3.6,8.6-1.2,12.3L67,56.6l7.2-9.7
	C76.9,43.3,76.9,37.7,74,34.4z M67.6,43.2c-1.6-0.1-2.8-1.4-2.9-3c0.1-1.6,1.4-2.8,3-2.9c1.6,0.1,2.8,1.4,2.9,3
	C70.7,41.9,69.2,43.3,67.6,43.2z"/>
<path id="XMLID_329_" class="st0" d="M108.8,48.2L108.8,48.2c-0.7-7.7-7.3-13.5-15-12.8l0,0c-7,0.3-13.2,7-14,14.2l-2.2,19.1
	l18.8-4.8C103.5,62.3,109.1,55.2,108.8,48.2z M92,52.6c-1.8-1.8-2-4.6-0.5-6.7c1.8-1.8,4.6-2,6.7-0.5c1.8,1.8,2,4.6,0.5,6.7
	C97.2,54.1,93.9,54.4,92,52.6z"/>
<path id="XMLID_70_" class="st4" d="M29.6,80.6L29.6,80.6c-2.7-7.3-10.6-11.1-17.9-8.4l0,0C5.1,74.4,0.8,82.5,2,89.6l2.9,19
	l16.9-9.6C28.2,95.6,31.8,87.2,29.6,80.6z M14.6,89.3c-2.3-1.2-3.2-3.9-2.3-6.3c1.2-2.3,3.9-3.2,6.3-2.3c2.3,1.2,3.2,3.9,2.3,6.3
	C20,89.4,16.9,90.5,14.6,89.3z"/>
<path id="XMLID_69_" class="st0" d="M2.7,127L2.7,127c3,7.1,11.1,10.6,18.2,7.6l0,0c6.6-2.4,10.5-10.7,9-17.7L26.2,98L9.7,108.2
	C3.5,111.9,0.3,120.4,2.7,127z M17.3,117.7c2.3,1.2,3.3,3.8,2.5,6.2c-1.2,2.3-3.8,3.3-6.2,2.5c-2.3-1.2-3.3-3.8-2.5-6.2
	C11.9,117.8,15,116.5,17.3,117.7z"/>
<path id="XMLID_68_" class="st4" d="M124,69.4L124,69.4c-8.1-1.7-16,3.4-17.7,11.5l0,0c-1.8,7.3,3.1,15.7,10.2,18.6l18.9,8.2
	l0.9-20.7C136.9,79.2,131.3,71.2,124,69.4z M123.4,87.9c-2.4,1.3-5.4,0.7-7-1.5c-1.3-2.4-0.7-5.4,1.5-7c2.4-1.3,5.4-0.7,7,1.5
	C126.6,83.1,125.8,86.6,123.4,87.9z"/>
<path id="XMLID_67_" class="st0" d="M123.8,136L123.8,136c7.6,1.4,14.9-3.4,16.4-11l0,0c1.6-6.8-3.2-14.7-9.9-17.3l-17.8-7.3
	l-0.5,19.4C111.7,127,117,134.4,123.8,136z M124.1,118.7c2.2-1.3,5-0.7,6.6,1.3c1.3,2.2,0.7,5-1.3,6.6c-2.2,1.3-5,0.7-6.6-1.3
	C121.2,123.2,121.9,120,124.1,118.7z"/>
<path id="XMLID_66_" class="st4" d="M34.6,81L34.6,81c5,0.1,9.1-3.8,9.2-8.8l0,0c0.3-4.5-3.7-9-8.2-9.9l-12.2-2.7L25.3,72
	C25.9,76.6,30.1,80.7,34.6,81z M32.9,69.9c1.3-1.1,3.1-1,4.3,0.1c1.1,1.3,1,3.1-0.1,4.3c-1.3,1.1-3.1,1-4.3-0.1S31.6,71,32.9,69.9z"
	/>
<path id="XMLID_65_" class="st4" d="M53.7,60.6L53.7,60.6c-5.6,1-9.4,6.1-8.4,11.7l0,0c0.6,5.1,5.9,9.2,11.2,9.3l14.1,0.5l-4.6-13.4
	C64.3,63.7,58.7,60,53.7,60.6z M57.9,72.6c-1.2,1.5-3.3,1.8-4.9,0.8c-1.5-1.2-1.8-3.3-0.8-4.9c1.2-1.5,3.3-1.8,4.9-0.8
	C58.7,68.7,59.1,71.1,57.9,72.6z"/>
<path id="XMLID_64_" class="st4" d="M81.5,81.1L81.5,81.1c5.5-1.3,9-6.7,7.6-12.2l0,0c-1-5-6.5-8.8-11.7-8.6l-14.1,0.4l5.5,13.1
	C70.7,78.8,76.4,82.1,81.5,81.1z M76.4,69.5c1.1-1.5,3.1-2,4.8-1.1c1.5,1.1,2,3.1,1.1,4.8c-1.1,1.5-3.1,2-4.8,1.1
	C75.9,73.4,75.3,71,76.4,69.5z"/>
<path id="XMLID_63_" class="st4" d="M90.2,73.7L90.2,73.7c0.6,5.1,5.1,8.9,10.2,8.3l0,0c4.7-0.3,8.7-4.9,9.1-9.7l1.2-12.8L98.3,63
	C93.6,64.2,89.9,69,90.2,73.7z M101.4,70.5c1.3,1.2,1.4,3.1,0.5,4.5c-1.2,1.3-3.1,1.4-4.5,0.5c-1.3-1.2-1.4-3.1-0.5-4.5
	S100.1,69.3,101.4,70.5z"/>
<path id="XMLID_62_" class="st4" d="M8.4,65.7L8.4,65.7c0.7,3.7,4.2,6.2,8,5.5l0,0c3.4-0.5,6.1-4.1,6.1-7.6l0.1-9.4l-8.9,3.3
	C10.3,58.5,7.9,62.3,8.4,65.7z M16,62.7c1,0.8,1.2,2.2,0.6,3.2c-0.8,1-2.2,1.2-3.2,0.6c-1-0.8-1.2-2.2-0.6-3.2S15,61.9,16,62.7z"/>
<path id="XMLID_61_" class="st4" d="M3.4,45.8L3.4,45.8c-2.8,2.5-3.1,6.8-0.6,9.6l0,0c2.2,2.7,6.6,3.1,9.6,1.3l8.2-4.7l-7.4-6
	C10.5,43.8,6,43.6,3.4,45.8z M10,51.1c-0.2,1.2-1.2,2.2-2.5,2.2c-1.2-0.2-2.2-1.2-2.2-2.5c0.2-1.2,1.2-2.2,2.5-2.2
	S10.2,49.8,10,51.1z"/>
<path id="XMLID_60_" class="st4" d="M28.5,38.9L28.5,38.9c-2.8-2.5-7.1-2.4-9.6,0.4l0,0c-2.4,2.4-2.4,6.9-0.3,9.7l5.6,7.6l5.1-8
	C31.3,45.7,31,41.3,28.5,38.9z M24,46.1c-1.3,0-2.3-1-2.4-2.2c0-1.3,1-2.3,2.2-2.4c1.3,0,2.3,1,2.4,2.2S25.3,46.1,24,46.1z"/>
<path id="XMLID_59_" class="st4" d="M128.5,48.7l-7.4,6l8.2,4.7c3,1.8,7.5,1.3,9.6-1.3l0,0c2.5-2.8,2.2-7.1-0.6-9.6l0,0
	C135.7,46.3,131.2,46.4,128.5,48.7z M133.9,51.2c1.2,0,2.3,0.9,2.5,2.2c0,1.2-0.9,2.3-2.2,2.5c-1.2,0-2.3-0.9-2.5-2.2
	C131.5,52.5,132.6,51.2,133.9,51.2z"/>
<path id="XMLID_58_" class="st4" d="M123.8,58.4L123.8,58.4c-0.9-3.4-4.3-5.5-7.7-4.7l0,0c-3.1,0.6-5.5,4.1-5.3,7.4l0.4,8.8l8.1-3.5
	C122.4,65.1,124.4,61.5,123.8,58.4z M116.6,61.6c-1-0.7-1.2-1.9-0.7-3c0.7-1,1.9-1.2,3-0.7c1,0.7,1.2,1.9,0.7,3
	C119,61.9,117.5,62.3,116.6,61.6z"/>
<path id="XMLID_57_" class="st4" d="M123.8,68.2L123.8,68.2c1.7,1.3,4.2,1,5.5-0.7l0,0c1.3-1.5,1.1-4.1-0.3-5.6l-3.5-4.1l-2.6,4.8
	C121.9,64.4,122.3,67,123.8,68.2z M126.1,63.9c0.7,0,1.3,0.5,1.5,1.2c0,0.7-0.5,1.3-1.2,1.5c-0.7,0-1.3-0.5-1.5-1.2
	C124.8,64.7,125.3,63.9,126.1,63.9z"/>
<path id="XMLID_56_" class="st4" d="M29.4,28.4L29.4,28.4c-2.1-1.2-4.8-0.5-6,1.6l0,0c-1.2,1.9-0.5,4.7,1.2,6.2l4.6,4l2.1-5.8
	C32.2,32.3,31.3,29.5,29.4,28.4z M27.6,33.6c-0.8,0.2-1.6-0.3-1.8-1.1c-0.2-0.8,0.3-1.6,1.1-1.8c0.8-0.2,1.6,0.3,1.8,1.1
	C28.9,32.5,28.4,33.4,27.6,33.6z"/>
<path id="XMLID_55_" class="st4" d="M30.4,40.9L30.4,40.9c1.3,1.2,3.3,1,4.5-0.3l0,0c1.1-1.2,1-3.3,0-4.5l-2.7-3.5l-2.3,3.8
	C29,37.7,29.2,39.8,30.4,40.9z M32.4,37.5c0.6,0,1.1,0.4,1.2,1c0,0.6-0.4,1.1-1,1.2c-0.6,0-1.1-0.4-1.2-1S31.8,37.5,32.4,37.5z"/>
<path id="XMLID_54_" class="st4" d="M39.3,37.9L39.3,37.9c1.7-0.4,2.8-2.2,2.3-3.9l0,0c-0.3-1.6-2.1-2.7-3.7-2.6l-4.4,0.2l1.8,4.1
	C35.9,37.3,37.7,38.3,39.3,37.9z M37.7,34.3c0.3-0.5,1-0.6,1.5-0.4c0.5,0.3,0.6,1,0.4,1.5c-0.3,0.5-1,0.6-1.5,0.4
	C37.5,35.6,37.3,34.8,37.7,34.3z"/>
<path id="XMLID_53_" class="st4" d="M42.9,81.3L42.9,81.3c-10.1,2.7-16.3,12.8-13.6,22.9l0,0c2,9.3,12.4,16.1,22.1,15.4l26-1.3
	l-10.6-24C62.9,85.2,52.1,79.3,42.9,81.3z M52.6,102.7c-2,2.9-5.7,3.8-8.8,2.2c-2.9-2-3.8-5.7-2.2-8.8c2-2.9,5.7-3.8,8.8-2.2
	C53.5,95.4,54.6,99.8,52.6,102.7z"/>
<path id="XMLID_52_" class="st4" d="M96.6,119.2L96.6,119.2c9.8-2.6,15.8-12.4,13.2-22.2l0,0c-1.9-9-12-15.6-21.4-14.9l-25.2,1.3
	l10.3,23.3C77.2,115.4,87.6,121.2,96.6,119.2z M87.2,98.5c1.9-2.8,5.5-3.6,8.5-2.1c2.8,1.9,3.6,5.5,2.1,8.5
	c-1.9,2.8-5.5,3.6-8.5,2.1C86.3,105.6,85.3,101.3,87.2,98.5z"/>
<path id="XMLID_51_" class="st4" d="M61.3,15.1L61.3,15.1c-3.7,0.6-6.2,4-5.5,7.7l0,0c0.4,3.3,3.9,6.1,7.3,6.1l9.2,0.3l-3-8.8
	C68.3,17.1,64.6,14.7,61.3,15.1z M64.1,22.9c-0.8,1-2.1,1.2-3.2,0.5c-1-0.8-1.2-2.1-0.5-3.2c0.8-1,2.1-1.2,3.2-0.5
	C64.6,20.4,64.9,22,64.1,22.9z"/>
<path id="XMLID_50_" class="st4" d="M78.3,27.8L78.3,27.8c3.2-0.7,5.4-3.8,4.7-7l0,0c-0.5-3-3.6-5.3-6.7-5.2l-8.2,0l3,7.8
	C72,26.2,75.3,28.2,78.3,27.8z M75.5,21.2c0.7-0.9,1.9-1.1,2.8-0.6c0.9,0.7,1.1,1.9,0.6,2.8c-0.7,0.9-1.9,1.1-2.8,0.6
	C75.2,23.5,74.9,22.1,75.5,21.2z"/>
<path id="XMLID_49_" class="st4" d="M33.9,18.4L33.9,18.4c-3.4,0.6-5.8,3.8-5.2,7.2l0,0c0.4,3.1,3.6,5.7,6.9,5.7l8.6,0.3l-2.8-8.3
	C40.4,20.3,37,18,33.9,18.4z M36.5,25.7c-0.7,0.9-2,1.1-3,0.5c-0.9-0.7-1.1-2-0.5-3c0.7-0.9,2-1.1,3-0.5
	C37,23.4,37.2,24.8,36.5,25.7z"/>
<path id="XMLID_48_" class="st4" d="M50.7,29.3L50.7,29.3c3.4-0.8,5.5-4.1,4.7-7.5l0,0c-0.6-3.1-4-5.4-7.2-5.3l-8.6,0.3l3.4,8.1
	C44,27.9,47.6,29.9,50.7,29.3z M47.6,22.2c0.7-0.9,1.9-1.2,2.9-0.7c0.9,0.7,1.2,1.9,0.7,2.9c-0.7,0.9-1.9,1.2-2.9,0.7
	S46.9,23.1,47.6,22.2z"/>
<path id="XMLID_47_" class="st4" d="M112.6,44.8l3.9,8.7l6.7-6.6c2.5-2.4,3.2-6.9,1.2-9.7l0,0c-2.1-3.2-6.3-4-9.5-1.9l0,0
	C112.2,37.3,111.1,41.6,112.6,44.8z M116.5,40.4c0.3-1.2,1.5-2,2.7-1.8c1.2,0.3,2,1.5,1.8,2.7c-0.3,1.2-1.5,2-2.7,1.8
	C117.1,42.9,116.2,41.6,116.5,40.4z"/>
<path id="XMLID_46_" class="st4" d="M111.3,29.1l0.5,5l4.5-2.3c1.7-0.8,2.8-3,2.2-4.7l0,0c-0.5-1.9-2.5-3.1-4.5-2.5l0,0
	C112.3,25.2,111.1,27.3,111.3,29.1z M114,27.5c0.4-0.6,1.1-0.8,1.7-0.5c0.6,0.4,0.8,1.1,0.5,1.7c-0.4,0.6-1.1,0.8-1.7,0.5
	C113.9,28.9,113.6,28,114,27.5z"/>
<path id="XMLID_45_" class="st4" d="M111.8,33.9l-1.2-4.1l-3.5,2.5c-1.3,0.9-1.9,2.8-1.2,4.2l0,0c0.8,1.6,2.6,2.2,4.2,1.5l0,0
	C111.5,37.2,112.2,35.4,111.8,33.9z M109.7,35.6c-0.2,0.5-0.8,0.8-1.4,0.6c-0.5-0.2-0.8-0.8-0.7-1.3c0.2-0.5,0.8-0.8,1.4-0.6
	C109.6,34.4,109.9,35.1,109.7,35.6z"/>
<path id="XMLID_42_" class="st4" d="M99.4,22.1l-4.9,7.2l8.4,2c3.1,0.8,6.9-0.8,8.1-3.7l0,0c1.5-3.1,0.1-6.8-3.1-8.3l0,0
	C105.1,18.1,101.2,19.4,99.4,22.1z M104.8,23c1.1-0.3,2.3,0.2,2.7,1.3c0.3,1.1-0.2,2.3-1.3,2.7c-1.1,0.3-2.3-0.2-2.7-1.3
	C103,24.7,103.7,23.3,104.8,23z"/>
<path id="XMLID_41_" class="st4" d="M95.7,24.7l5.2-7l-8.3-2.3c-3.1-0.9-7,0.5-8.3,3.4l0,0c-1.6,3.1-0.4,6.8,2.7,8.4l0,0
	C89.9,28.4,93.9,27.3,95.7,24.7z M90.4,23.6c-1.1,0.3-2.3-0.3-2.7-1.4c-0.3-1.1,0.3-2.3,1.4-2.7c1.1-0.3,2.3,0.3,2.7,1.4
	C92.2,22,91.5,23.3,90.4,23.6z"/>
</svg>
