<svg id="Capa_1" data-name="Capa 1" xmlns="http://www.w3.org/2000/svg" viewBox="0 0 141.73 141.73">
    <defs>
        <style>.cls-1{fill:#74acdf;stroke:#fff;stroke-miterlimit:10;}.cls-2{fill:#fff;}</style>
    </defs>
    <title>carp_w_1</title>
    <path id="_Trazado_compuesto_" data-name="&lt;Trazado compuesto&gt;" class="cls-1"
          d="M51,39h0a11.17,11.17,0,0,0-14.26,6.93h0c-2,5.24.88,12,5.92,14.85L56,68.61,58.6,53.23C59.69,47.52,56.27,41,51,39ZM48.87,52.79A4.11,4.11,0,0,1,43.77,51a4.11,4.11,0,0,1,1.78-5.1,4.11,4.11,0,0,1,5.1,1.78A3.71,3.71,0,0,1,48.87,52.79Z"/>
    <path id="_Trazado_compuesto_2" data-name="&lt;Trazado compuesto&gt;" class="cls-1"
          d="M74,34.43h0a8.64,8.64,0,0,0-12.26-.26h0c-3.25,2.89-3.63,8.58-1.16,12.31L67,56.57l7.2-9.68C76.93,43.34,76.85,37.68,74,34.43Zm-6.34,8.73a3.18,3.18,0,0,1-2.88-3,3,3,0,0,1,5.9.14A2.87,2.87,0,0,1,67.62,43.16Z"/>
    <path id="_Trazado_compuesto_3" data-name="&lt;Trazado compuesto&gt;" class="cls-1"
          d="M108.8,48.16h0a13.9,13.9,0,0,0-15-12.77h0c-7,.31-13.24,7-14,14.18L77.59,68.69,96.4,63.92C103.45,62.3,109.12,55.15,108.8,48.16ZM92,52.61a5.11,5.11,0,0,1-.53-6.7,4.75,4.75,0,0,1,7.23,6.17A4.61,4.61,0,0,1,92,52.61Z"/>
    <path id="_Trazado_compuesto_4" data-name="&lt;Trazado compuesto&gt;" class="cls-2"
          d="M29.62,80.58h0a13.9,13.9,0,0,0-17.88-8.35h0C5.08,74.38.82,82.5,2,89.59l2.9,19,16.89-9.56C28.19,95.63,31.77,87.25,29.62,80.58Zm-15,8.72A5.11,5.11,0,0,1,12.34,83a5.11,5.11,0,0,1,6.32-2.27A5.11,5.11,0,0,1,20.93,87,4.61,4.61,0,0,1,14.61,89.3Z"/>
    <path id="_Trazado_compuesto_5" data-name="&lt;Trazado compuesto&gt;" class="cls-2"
          d="M2.68,127h0a13.9,13.9,0,0,0,18.2,7.63h0c6.57-2.41,10.5-10.7,9-17.74L26.21,98,9.73,108.23C3.5,111.91.26,120.43,2.68,127Zm14.64-9.32a5.11,5.11,0,0,1,2.53,6.23,5.11,5.11,0,0,1-6.23,2.53,5.11,5.11,0,0,1-2.53-6.23A4.61,4.61,0,0,1,17.32,117.69Z"/>
    <path id="_Trazado_compuesto_6" data-name="&lt;Trazado compuesto&gt;" class="cls-2"
          d="M124,69.36h0a14.86,14.86,0,0,0-17.71,11.47h0c-1.83,7.26,3.12,15.73,10.23,18.65l18.9,8.16.9-20.73C136.87,79.19,131.29,71.19,124,69.36Zm-.6,18.55a5.08,5.08,0,1,1-5.5-8.54,5.46,5.46,0,0,1,7,1.52A4.93,4.93,0,0,1,123.43,87.91Z"/>
    <path id="_Trazado_compuesto_7" data-name="&lt;Trazado compuesto&gt;" class="cls-2"
          d="M123.82,136h0a13.9,13.9,0,0,0,16.37-11h0c1.6-6.82-3.17-14.65-9.86-17.27l-17.8-7.33-.51,19.4C111.66,127,117,134.42,123.82,136Zm.27-17.36a4.75,4.75,0,1,1-1.31,6.59A4.61,4.61,0,0,1,124.09,118.67Z"/>
    <path id="_Trazado_compuesto_8" data-name="&lt;Trazado compuesto&gt;" class="cls-2"
          d="M34.64,81h0a9,9,0,0,0,9.19-8.84h0c.25-4.52-3.66-9-8.21-9.9L23.46,59.58,25.31,72C25.9,76.63,30.12,80.74,34.64,81ZM32.87,69.91a3.07,3.07,0,1,1-.1,4.34A3,3,0,0,1,32.87,69.91Z"/>
    <path id="_Trazado_compuesto_9" data-name="&lt;Trazado compuesto&gt;" class="cls-2"
          d="M53.67,60.62h0a10.17,10.17,0,0,0-8.43,11.72h0c.64,5.08,5.9,9.24,11.16,9.34l14.08.49L65.89,68.73C64.29,63.69,58.75,60,53.67,60.62Zm4.23,12a3.48,3.48,0,1,1-5.63-4.07,3.74,3.74,0,0,1,4.85-.78A3.37,3.37,0,0,1,57.9,72.59Z"/>
    <path id="_Trazado_compuesto_10" data-name="&lt;Trazado compuesto&gt;" class="cls-2"
          d="M81.45,81.12h0A10.17,10.17,0,0,0,89.1,68.88h0c-1-5-6.5-8.84-11.75-8.59l-14.08.43,5.45,13.11C70.65,78.76,76.43,82.09,81.45,81.12Zm-5-11.67a3.48,3.48,0,1,1,1.09,4.79A3.37,3.37,0,0,1,76.45,69.45Z"/>
    <path id="_Trazado_compuesto_11" data-name="&lt;Trazado compuesto&gt;" class="cls-2"
          d="M90.25,73.69h0A9.27,9.27,0,0,0,100.47,82h0c4.66-.31,8.72-4.89,9.09-9.66l1.19-12.79L98.28,63C93.6,64.18,89.93,69,90.25,73.69Zm11.12-3.22a3.17,3.17,0,1,1-4.46.45A3.08,3.08,0,0,1,101.37,70.47Z"/>
    <path id="_Trazado_compuesto_12" data-name="&lt;Trazado compuesto&gt;" class="cls-2"
          d="M8.41,65.67h0a6.8,6.8,0,0,0,8,5.47h0c3.39-.5,6.1-4.08,6.08-7.6l.13-9.42-8.92,3.26A8,8,0,0,0,8.41,65.67Zm7.63-3a2.5,2.5,0,0,1,.59,3.23,2.5,2.5,0,0,1-3.23.59,2.5,2.5,0,0,1-.59-3.23A2.26,2.26,0,0,1,16,62.66Z"/>
    <path id="_Trazado_compuesto_13" data-name="&lt;Trazado compuesto&gt;" class="cls-2"
          d="M3.39,45.81h0a6.8,6.8,0,0,0-.62,9.63h0c2.17,2.65,6.63,3.14,9.64,1.33l8.15-4.72-7.37-6A8,8,0,0,0,3.39,45.81ZM10,51.1a2.5,2.5,0,0,1-2.47,2.16,2.32,2.32,0,0,1,.31-4.64A2.26,2.26,0,0,1,10,51.1Z"/>
    <path id="_Trazado_compuesto_14" data-name="&lt;Trazado compuesto&gt;" class="cls-2"
          d="M28.51,38.88h0a6.8,6.8,0,0,0-9.64.45h0c-2.4,2.44-2.39,6.93-.26,9.73l5.59,7.58,5.14-8A8,8,0,0,0,28.51,38.88ZM24,46.07a2.32,2.32,0,1,1-.2-4.64,2.5,2.5,0,0,1,2.42,2.22A2.26,2.26,0,0,1,24,46.07Z"/>
    <path id="_Trazado_compuesto_15" data-name="&lt;Trazado compuesto&gt;" class="cls-2"
          d="M128.54,48.68l-7.37,6,8.15,4.72c3,1.81,7.47,1.32,9.64-1.33h0a6.8,6.8,0,0,0-.62-9.63h0A8,8,0,0,0,128.54,48.68Zm5.32,2.55a2.32,2.32,0,1,1-2.16,2.47A2.26,2.26,0,0,1,133.86,51.23Z"/>
    <path id="_Trazado_compuesto_16" data-name="&lt;Trazado compuesto&gt;" class="cls-2"
          d="M123.78,58.37h0a6.33,6.33,0,0,0-7.69-4.66h0c-3.12.64-5.45,4.12-5.26,7.39l.38,8.77,8.12-3.5A7.49,7.49,0,0,0,123.78,58.37Zm-7.23,3.21a2.17,2.17,0,1,1,3-.72A2.1,2.1,0,0,1,116.55,61.59Z"/>
    <path id="_Trazado_compuesto_17" data-name="&lt;Trazado compuesto&gt;" class="cls-2"
          d="M123.81,68.23h0a3.91,3.91,0,0,0,5.5-.7h0a4.48,4.48,0,0,0-.3-5.58l-3.55-4.09-2.58,4.81A4.62,4.62,0,0,0,123.81,68.23Zm2.26-4.33a1.34,1.34,0,1,1-1.16,1.49A1.3,1.3,0,0,1,126.06,63.9Z"/>
    <path id="_Trazado_compuesto_18" data-name="&lt;Trazado compuesto&gt;" class="cls-2"
          d="M29.41,28.37h0a4.41,4.41,0,0,0-6,1.65h0a5.07,5.07,0,0,0,1.21,6.2l4.61,4,2.13-5.79A5.22,5.22,0,0,0,29.41,28.37Zm-1.84,5.2a1.51,1.51,0,1,1,1.06-1.85A1.46,1.46,0,0,1,27.57,33.57Z"/>
    <path id="_Trazado_compuesto_19" data-name="&lt;Trazado compuesto&gt;" class="cls-2"
          d="M30.38,40.86h0a3.17,3.17,0,0,0,4.49-.31h0a3.64,3.64,0,0,0,0-4.54l-2.68-3.48L29.9,36.31A3.75,3.75,0,0,0,30.38,40.86Zm2-3.4a1.08,1.08,0,1,1-1,1.15A1.05,1.05,0,0,1,32.42,37.46Z"/>
    <path id="_Trazado_compuesto_20" data-name="&lt;Trazado compuesto&gt;" class="cls-2"
          d="M39.3,37.95h0a3.17,3.17,0,0,0,2.31-3.86h0a3.64,3.64,0,0,0-3.72-2.61l-4.39.22,1.78,4.06A3.75,3.75,0,0,0,39.3,37.95Zm-1.63-3.61A1.08,1.08,0,1,1,38,35.83,1.05,1.05,0,0,1,37.67,34.34Z"/>
    <path id="_Trazado_compuesto_21" data-name="&lt;Trazado compuesto&gt;" class="cls-2"
          d="M42.88,81.29h0a18.79,18.79,0,0,0-13.64,22.93h0c2,9.25,12.36,16.07,22.05,15.4l26-1.35-10.6-24C62.94,85.23,52.13,79.3,42.88,81.29Zm9.72,21.36a6.91,6.91,0,0,1-8.81,2.21,6.91,6.91,0,0,1-2.21-8.81,6.91,6.91,0,0,1,8.81-2.21A6.24,6.24,0,0,1,52.6,102.65Z"/>
    <path id="_Trazado_compuesto_22" data-name="&lt;Trazado compuesto&gt;" class="cls-2"
          d="M96.61,119.24h0A18.21,18.21,0,0,0,109.8,97h0c-1.94-9-12-15.56-21.37-14.91L63.24,83.43l10.29,23.25C77.17,115.43,87.64,121.17,96.61,119.24ZM87.18,98.54a6.22,6.22,0,1,1,10.68,6.39,6.69,6.69,0,0,1-8.54,2.15A6,6,0,0,1,87.18,98.54Z"/>
    <path id="_Trazado_compuesto_23" data-name="&lt;Trazado compuesto&gt;" class="cls-2"
          d="M61.29,15.07h0a6.67,6.67,0,0,0-5.53,7.69h0c.42,3.33,3.88,6.07,7.33,6.13l9.24.32-3-8.82A7.89,7.89,0,0,0,61.29,15.07Zm2.78,7.86a2.28,2.28,0,1,1-3.7-2.67,2.45,2.45,0,0,1,3.19-.51A2.21,2.21,0,0,1,64.07,22.93Z"/>
    <path id="_Trazado_compuesto_24" data-name="&lt;Trazado compuesto&gt;" class="cls-2"
          d="M78.27,27.76h0a6,6,0,0,0,4.69-7h0c-.48-3-3.65-5.28-6.73-5.23H68l3,7.77A7,7,0,0,0,78.27,27.76Zm-2.73-6.51a2,2,0,1,1,3.38,2.27,2.19,2.19,0,0,1-2.82.56A2,2,0,0,1,75.54,21.25Z"/>
    <path id="_Trazado_compuesto_25" data-name="&lt;Trazado compuesto&gt;" class="cls-2"
          d="M33.89,18.38h0a6.25,6.25,0,0,0-5.18,7.2h0c.39,3.12,3.63,5.68,6.86,5.74l8.65.3L41.4,23.37A7.38,7.38,0,0,0,33.89,18.38Zm2.6,7.35A2.14,2.14,0,1,1,33,23.24a2.3,2.3,0,0,1,3-.48A2.07,2.07,0,0,1,36.5,25.74Z"/>
    <path id="_Trazado_compuesto_26" data-name="&lt;Trazado compuesto&gt;" class="cls-2"
          d="M50.68,29.33h0a6.25,6.25,0,0,0,4.7-7.52h0c-.6-3.09-4-5.43-7.22-5.28l-8.65.26,3.35,8.05A7.38,7.38,0,0,0,50.68,29.33ZM47.6,22.16a2.14,2.14,0,1,1,3.62,2.27,2.3,2.3,0,0,1-2.94.67A2.07,2.07,0,0,1,47.6,22.16Z"/>
    <path id="_Trazado_compuesto_27" data-name="&lt;Trazado compuesto&gt;" class="cls-2"
          d="M112.65,44.84l3.86,8.67,6.68-6.64c2.54-2.44,3.22-6.87,1.23-9.65h0A6.8,6.8,0,0,0,115,35.31h0A8,8,0,0,0,112.65,44.84Zm3.85-4.48a2.32,2.32,0,1,1,1.83,2.73A2.26,2.26,0,0,1,116.49,40.37Z"/>
    <path id="_Trazado_compuesto_28" data-name="&lt;Trazado compuesto&gt;" class="cls-2"
          d="M111.33,29.13l.53,5,4.48-2.27a4.16,4.16,0,0,0,2.21-4.69h0a3.62,3.62,0,0,0-4.48-2.52h0A4.28,4.28,0,0,0,111.33,29.13ZM114,27.49a1.24,1.24,0,1,1,.48,1.69A1.2,1.2,0,0,1,114,27.49Z"/>
    <path id="_Trazado_compuesto_29" data-name="&lt;Trazado compuesto&gt;" class="cls-2"
          d="M111.75,33.85l-1.22-4.13L107,32.2a3.41,3.41,0,0,0-1.18,4.21h0a3.26,3.26,0,0,0,4.24,1.52h0A3.51,3.51,0,0,0,111.75,33.85Zm-2.06,1.72a1.15,1.15,0,0,1-1.38.62,1.14,1.14,0,0,1-.67-1.35,1.15,1.15,0,0,1,1.38-.62A1,1,0,0,1,109.69,35.57Z"/>
    <path id="_Trazado_compuesto_30" data-name="&lt;Trazado compuesto&gt;" class="cls-2"
          d="M99.4,22.14l-4.92,7.2,8.41,2c3.13.81,6.93-.79,8.14-3.69h0A6.25,6.25,0,0,0,108,19.35h0A7.38,7.38,0,0,0,99.4,22.14Zm5.35.85a2.3,2.3,0,0,1,2.74,1.26,2.14,2.14,0,1,1-4,1.49A2.07,2.07,0,0,1,104.75,23Z"/>
    <path id="_Trazado_compuesto_31" data-name="&lt;Trazado compuesto&gt;" class="cls-2"
          d="M95.75,24.65l5.2-7L92.62,15.3c-3.09-.93-7,.52-8.28,3.37h0a6.25,6.25,0,0,0,2.74,8.44h0A7.38,7.38,0,0,0,95.75,24.65Zm-5.32-1.06a2.3,2.3,0,0,1-2.69-1.36,2.14,2.14,0,1,1,4.06-1.33A2.07,2.07,0,0,1,90.43,23.59Z"/>
</svg>