<svg id="Capa_1" data-name="Capa 1" xmlns="http://www.w3.org/2000/svg" viewBox="0 0 141.73 141.73">
    <defs>
        <style>
            .cls-1{fill:#fff;}.cls-2,.cls-3{fill:#122b40;stroke:#fffdfd;stroke-miterlimit:10;}.cls-3{stroke-width:0.5px;}
        </style>
    </defs>
    <title>elec_w</title>
    <path id="_Trazado_compuesto_" data-name="&lt;Trazado compuesto&gt;" class="cls-1"
          d="M120.74,90l4.54-.3-1.89-4.11a3.74,3.74,0,0,0-4.14-2.15h0a3.26,3.26,0,0,0-2.43,3.94h0A3.86,3.86,0,0,0,120.74,90Zm-1.38-2.47a1.12,1.12,0,1,1,1.53-.37A1.08,1.08,0,0,1,119.36,87.57Z"/>
    <path id="_Trazado_compuesto_2" data-name="&lt;Trazado compuesto&gt;" class="cls-1"
          d="M126.88,85.78h0a2.32,2.32,0,0,0,1.56-2.89h0a2.66,2.66,0,0,0-2.8-1.78l-3.2.3,1.43,2.9A2.74,2.74,0,0,0,126.88,85.78Zm-1.31-2.58a.79.79,0,1,1,.32,1.07A.77.77,0,0,1,125.57,83.19Z"/>
    <path id="_Trazado_compuesto_3" data-name="&lt;Trazado compuesto&gt;" class="cls-1"
          d="M126.19,80l3.23-.26L128,76.81a2.66,2.66,0,0,0-3-1.49h0a2.32,2.32,0,0,0-1.69,2.82h0A2.74,2.74,0,0,0,126.19,80Zm-1-1.74a.79.79,0,1,1,1.09-.28A.77.77,0,0,1,125.19,78.23Z"/>
    <path id="_Trazado_compuesto_4" data-name="&lt;Trazado compuesto&gt;" class="cls-1"
          d="M130.24,75.76h0a2.32,2.32,0,0,0,1.91-2.68h0A2.66,2.66,0,0,0,129.61,71l-3.21-.1,1.05,3.06A2.74,2.74,0,0,0,130.24,75.76Zm-1-2.73a.79.79,0,1,1,.18,1.11A.77.77,0,0,1,129.27,73Z"/>
    <path id="_Trazado_compuesto_5" data-name="&lt;Trazado compuesto&gt;" class="cls-1"
          d="M127.38,69.54l3.23-.18-1.31-2.93a2.66,2.66,0,0,0-2.93-1.56h0a2.32,2.32,0,0,0-1.75,2.78h0A2.74,2.74,0,0,0,127.38,69.54Zm-1-1.77a.79.79,0,1,1,1.09-.25A.77.77,0,0,1,126.42,67.78Z"/>
    <path id="_Trazado_compuesto_6" data-name="&lt;Trazado compuesto&gt;" class="cls-1"
          d="M132.41,66.83h0a2.32,2.32,0,0,0,1.47-2.94h0a2.66,2.66,0,0,0-2.85-1.7l-3.18.4,1.52,2.86A2.74,2.74,0,0,0,132.41,66.83ZM131,64.29a.79.79,0,1,1,.35,1.06A.77.77,0,0,1,131,64.29Z"/>
    <path id="_Trazado_compuesto_7" data-name="&lt;Trazado compuesto&gt;" class="cls-1"
          d="M128.92,61.64l3.07-1-2-2.49a2.66,2.66,0,0,0-3.23-.75h0a2.32,2.32,0,0,0-1,3.14h0A2.74,2.74,0,0,0,128.92,61.64Zm-1.38-1.46a.79.79,0,1,1,1-.52A.77.77,0,0,1,127.53,60.18Z"/>
    <path id="_Trazado_compuesto_8" data-name="&lt;Trazado compuesto&gt;" class="cls-1"
          d="M134.18,59.61h0a2.32,2.32,0,0,0,1.23-3h0a2.66,2.66,0,0,0-3-1.46l-3.14.65L131,58.48A2.74,2.74,0,0,0,134.18,59.61Zm-1.58-2.42a.79.79,0,1,1,.43,1A.77.77,0,0,1,132.6,57.19Z"/>
    <path id="_Trazado_compuesto_9" data-name="&lt;Trazado compuesto&gt;" class="cls-1"
          d="M130.39,54.57l2.78-1.66-2.52-2a2.66,2.66,0,0,0-3.32,0h0a2.32,2.32,0,0,0-.27,3.28h0A2.74,2.74,0,0,0,130.39,54.57Zm-1.67-1.12a.79.79,0,1,1,.85-.73A.77.77,0,0,1,128.72,53.45Z"/>
    <path id="_Trazado_compuesto_10" data-name="&lt;Trazado compuesto&gt;" class="cls-1"
          d="M133.08,48.56h0a2.32,2.32,0,0,0-.82-3.19h0A2.66,2.66,0,0,0,129,46l-2.14,2.39,3,1.16A2.74,2.74,0,0,0,133.08,48.56Zm-2.71-1a.79.79,0,1,1,1,.57A.77.77,0,0,1,130.36,47.55Z"/>
    <path id="_Trazado_compuesto_11" data-name="&lt;Trazado compuesto&gt;" class="cls-1"
          d="M128,46l2-2.53-3.06-1a2.66,2.66,0,0,0-3.11,1.14h0a2.32,2.32,0,0,0,.91,3.16h0A2.74,2.74,0,0,0,128,46Zm-2-.46a.79.79,0,1,1,.54-1A.77.77,0,0,1,126,45.51Z"/>
    <path id="_Trazado_compuesto_12" data-name="&lt;Trazado compuesto&gt;" class="cls-1"
          d="M131.28,41.39h0a2.32,2.32,0,0,0-.64-3.23h0a2.66,2.66,0,0,0-3.29.41l-2.27,2.27,3,1.32A2.74,2.74,0,0,0,131.28,41.39Zm-2.65-1.16a.79.79,0,1,1,.93.62A.77.77,0,0,1,128.63,40.24Z"/>
    <path id="_Trazado_compuesto_13" data-name="&lt;Trazado compuesto&gt;" class="cls-1"
          d="M127.23,38l2-2.53-3.06-1a2.66,2.66,0,0,0-3.11,1.14h0a2.32,2.32,0,0,0,.91,3.16h0A2.74,2.74,0,0,0,127.23,38Zm-2-.46a.79.79,0,1,1,.54-1A.77.77,0,0,1,125.28,37.52Z"/>
    <path id="_Trazado_compuesto_14" data-name="&lt;Trazado compuesto&gt;" class="cls-1"
          d="M130.52,33.4h0a2.32,2.32,0,0,0-.64-3.23h0a2.66,2.66,0,0,0-3.29.41l-2.27,2.27,3,1.32A2.74,2.74,0,0,0,130.52,33.4Zm-2.65-1.16a.79.79,0,1,1,.93.62A.77.77,0,0,1,127.87,32.24Z"/>
    <path id="_Trazado_compuesto_15" data-name="&lt;Trazado compuesto&gt;" class="cls-1"
          d="M124.65,31.42l2.45-2.11-2.82-1.53a2.66,2.66,0,0,0-3.27.55h0a2.32,2.32,0,0,0,.31,3.27h0A2.74,2.74,0,0,0,124.65,31.42Zm-1.84-.82a.79.79,0,1,1,.71-.86A.77.77,0,0,1,122.81,30.61Z"/>
    <path id="_Trazado_compuesto_16" data-name="&lt;Trazado compuesto&gt;" class="cls-2"
          d="M35.15,92.43h0a10.91,10.91,0,0,0-14-6.55h0c-5.23,1.68-8.57,8.06-7.62,13.62l2.28,14.93L29,106.93C34,104.24,36.84,97.66,35.15,92.43ZM23.38,99.27a3.73,3.73,0,1,1,3.18-6.75,4,4,0,0,1,1.78,5A3.62,3.62,0,0,1,23.38,99.27Z"/>
    <path id="_Trazado_compuesto_17" data-name="&lt;Trazado compuesto&gt;" class="cls-1"
          d="M14,128.85h0a10.91,10.91,0,0,0,14.28,6h0c5.16-1.89,8.24-8.4,7.07-13.92l-2.88-14.83-12.94,8C14.66,117,12.12,123.7,14,128.85Zm11.49-7.31a3.73,3.73,0,1,1-2.9,6.87,4,4,0,0,1-2-4.88A3.62,3.62,0,0,1,25.5,121.54Z"/>
    <path id="_Trazado_compuesto_18" data-name="&lt;Trazado compuesto&gt;" class="cls-2"
          d="M111.94,83.79h0a11.66,11.66,0,0,0-15.25,6.45h0c-2.4,5.36.27,12.58,5.36,15.8l13.49,8.88L119.07,99C120.51,93.14,117.29,86.2,111.94,83.79Zm-3,14.25a4,4,0,1,1,2.13-5.22A3.87,3.87,0,0,1,108.94,98Z"/>
    <path id="_Trazado_compuesto_19" data-name="&lt;Trazado compuesto&gt;" class="cls-3"
          d="M39.09,92.75h0a7.05,7.05,0,0,0,7.21-6.94h0c.2-3.55-2.87-7-6.45-7.76L30.32,76l1.45,9.74A8.33,8.33,0,0,0,39.09,92.75ZM37.7,84.06a2.41,2.41,0,1,1-.08,3.41A2.34,2.34,0,0,1,37.7,84.06Z"/>
    <path id="_Trazado_compuesto_20" data-name="&lt;Trazado compuesto&gt;" class="cls-3"
          d="M54,76.77h0A8,8,0,0,0,47.41,86h0c.5,4,4.63,7.25,8.76,7.33l11,.39-3.6-10.54A9.43,9.43,0,0,0,54,76.77Zm3.32,9.39a2.73,2.73,0,1,1-.61-3.81A2.65,2.65,0,0,1,57.34,86.16Z"/>
    <path id="_Trazado_compuesto_21" data-name="&lt;Trazado compuesto&gt;" class="cls-3"
          d="M75.82,92.86h0a8,8,0,0,0,6-9.61h0c-.76-3.94-5.1-6.93-9.22-6.74l-11,.33,4.28,10.29A9.43,9.43,0,0,0,75.82,92.86ZM71.89,83.7a2.73,2.73,0,1,1,.86,3.76A2.65,2.65,0,0,1,71.89,83.7Z"/>
    <path id="_Trazado_compuesto_22" data-name="&lt;Trazado compuesto&gt;" class="cls-3"
          d="M82.72,87h0a7.27,7.27,0,0,0,8,6.5h0c3.65-.25,6.85-3.83,7.13-7.58l.94-10L89,78.63A8.6,8.6,0,0,0,82.72,87Zm8.72-2.53a2.49,2.49,0,1,1-3.5.35A2.41,2.41,0,0,1,91.44,84.5Z"/>
    <path id="_Trazado_compuesto_23" data-name="&lt;Trazado compuesto&gt;" class="cls-3"
          d="M18.51,80.73h0A5.34,5.34,0,0,0,24.75,85h0c2.66-.39,4.78-3.2,4.77-6l.1-7.39-7,2.56A6.31,6.31,0,0,0,18.51,80.73Zm6-2.36a1.82,1.82,0,1,1-2.07,3A2,2,0,0,1,22,78.84,1.77,1.77,0,0,1,24.5,78.37Z"/>
    <path id="_Trazado_compuesto_24" data-name="&lt;Trazado compuesto&gt;" class="cls-3"
          d="M14.57,65.15h0a5.34,5.34,0,0,0-.49,7.56h0c1.7,2.08,5.2,2.47,7.56,1l6.4-3.7-5.78-4.7A6.31,6.31,0,0,0,14.57,65.15Zm5.22,4.15A2,2,0,0,1,17.84,71a1.82,1.82,0,0,1,.24-3.64A1.77,1.77,0,0,1,19.79,69.3Z"/>
    <path id="_Trazado_compuesto_25" data-name="&lt;Trazado compuesto&gt;" class="cls-3"
          d="M34.28,59.71h0a5.34,5.34,0,0,0-7.57.35h0c-1.88,1.92-1.88,5.44-.2,7.63l4.38,6,4-6.26A6.31,6.31,0,0,0,34.28,59.71Zm-3.54,5.64a1.82,1.82,0,1,1,1.74-1.9A1.77,1.77,0,0,1,30.74,65.35Z"/>
    <path id="_Trazado_compuesto_26" data-name="&lt;Trazado compuesto&gt;" class="cls-3"
          d="M112.76,67.4,107,72.1l6.4,3.7c2.36,1.42,5.86,1,7.56-1h0a5.34,5.34,0,0,0-.49-7.56h0A6.31,6.31,0,0,0,112.76,67.4Zm4.18,2a1.82,1.82,0,1,1-1.7,1.94A1.77,1.77,0,0,1,116.94,69.4Z"/>
    <path id="_Trazado_compuesto_27" data-name="&lt;Trazado compuesto&gt;" class="cls-3"
          d="M108.25,75.79h0a5,5,0,0,0-6-3.66h0a5.7,5.7,0,0,0-4.12,5.79l.3,6.88,6.37-2.75A5.87,5.87,0,0,0,108.25,75.79Zm-5.67,2.52a1.7,1.7,0,1,1,2.33-.56A1.65,1.65,0,0,1,102.58,78.31Z"/>
    <path id="_Trazado_compuesto_28" data-name="&lt;Trazado compuesto&gt;" class="cls-3"
          d="M109,82.74h0a3.07,3.07,0,0,0,4.32-.55h0a3.52,3.52,0,0,0-.24-4.38l-2.79-3.21-2,3.77A3.62,3.62,0,0,0,109,82.74Zm1.77-3.4a1,1,0,1,1-.91,1.17A1,1,0,0,1,110.82,79.34Z"/>
    <path id="_Trazado_compuesto_29" data-name="&lt;Trazado compuesto&gt;" class="cls-3"
          d="M35,51.47h0a3.46,3.46,0,0,0-4.74,1.29h0a4,4,0,0,0,1,4.86l3.62,3.15,1.67-4.54A4.09,4.09,0,0,0,35,51.47Zm-1.45,4.08a1.18,1.18,0,1,1,.83-1.45A1.15,1.15,0,0,1,33.54,55.54Z"/>
    <path id="_Trazado_compuesto_30" data-name="&lt;Trazado compuesto&gt;" class="cls-3"
          d="M35.75,61.27h0A2.49,2.49,0,0,0,39.28,61h0a2.86,2.86,0,0,0,0-3.56l-2.1-2.73-1.82,3A2.94,2.94,0,0,0,35.75,61.27Zm1.6-2.67a.85.85,0,1,1-.79.9A.83.83,0,0,1,37.35,58.6Z"/>
    <path id="_Trazado_compuesto_31" data-name="&lt;Trazado compuesto&gt;" class="cls-3"
          d="M111.86,67.81h0a2.49,2.49,0,0,0-2.2-2.76h0a2.86,2.86,0,0,0-2.94,2l-1,3.28,3.47-.19A2.94,2.94,0,0,0,111.86,67.81Zm-3.1.2a.85.85,0,1,1,1.2.14A.83.83,0,0,1,108.76,68Z"/>
    <path id="_Trazado_compuesto_32" data-name="&lt;Trazado compuesto&gt;" class="cls-3"
          d="M42.75,59h0a2.49,2.49,0,0,0,1.81-3h0a2.86,2.86,0,0,0-2.92-2l-3.44.17,1.4,3.18A2.94,2.94,0,0,0,42.75,59Zm-1.28-2.83a.85.85,0,1,1,.29,1.17A.83.83,0,0,1,41.47,56.15Z"/>
    <path id="_Trazado_compuesto_33" data-name="&lt;Trazado compuesto&gt;" class="cls-2"
          d="M45.56,93h0a14.75,14.75,0,0,0-10.7,18h0c1.56,7.26,9.69,12.61,17.3,12.08L72.56,122l-8.32-18.84C61.29,96.08,52.82,91.42,45.56,93Zm7.62,16.76a5.42,5.42,0,0,1-6.91,1.74,5,5,0,0,1,5.18-8.65A4.89,4.89,0,0,1,53.18,109.75Z"/>
    <path id="_Trazado_compuesto_34" data-name="&lt;Trazado compuesto&gt;" class="cls-2"
          d="M87.71,122.76h0a14.29,14.29,0,0,0,10.35-17.44h0c-1.52-7-9.4-12.21-16.77-11.7l-19.76,1,8.07,18.24C72.46,119.77,80.68,124.28,87.71,122.76Zm-7.4-16.23a4.88,4.88,0,1,1,1.69,6.7A4.74,4.74,0,0,1,80.31,106.52Z"/>
    <path id="_Trazado_compuesto_35" data-name="&lt;Trazado compuesto&gt;" class="cls-1"
          d="M120.1,21.27h0a5.19,5.19,0,0,0-6.5-3.46h0a6,6,0,0,0-4,6.28l.71,7.15L116.83,28A6.13,6.13,0,0,0,120.1,21.27Zm-5.77,3a1.91,1.91,0,0,1-.72-2.4,1.77,1.77,0,0,1,3.12,1.68A1.72,1.72,0,0,1,114.34,24.23Z"/>
    <path id="_Trazado_compuesto_36" data-name="&lt;Trazado compuesto&gt;" class="cls-1"
          d="M109.75,37.37h0A5,5,0,0,0,115.87,41h0A5.77,5.77,0,0,0,120,35.15l-.34-7L113.23,31A5.94,5.94,0,0,0,109.75,37.37Zm5.72-2.58a1.72,1.72,0,1,1-2.36.59A1.67,1.67,0,0,1,115.47,34.79Z"/>
    <path id="_Trazado_compuesto_37" data-name="&lt;Trazado compuesto&gt;" class="cls-1"
          d="M97.93,30.69h0c-1.76,1.49-1.46,3.66.72,4.87h0a7.92,7.92,0,0,0,7.19-.12l5.37-3L105.11,30C102.87,29.09,99.6,29.39,97.93,30.69Zm5.49,2.1c0,.64-.63,1.18-1.54,1.29A1.81,1.81,0,0,1,100,33c0-.64.63-1.18,1.54-1.29S103.39,32.15,103.42,32.79Z"/>
    <path id="_Trazado_compuesto_38" data-name="&lt;Trazado compuesto&gt;" class="cls-1"
          d="M97.47,21.93h0c-2,1.33-2.1,3.49-.15,4.85h0c1.68,1.29,5,1.44,7.16.46l5.87-2.54-5.63-2.85A8.24,8.24,0,0,0,97.47,21.93Zm5.08,2.51c-.08.63-.84,1.11-1.76,1.14s-1.63-.57-1.68-1.2.84-1.11,1.76-1.14S102.63,23.81,102.55,24.44Z"/>
    <path id="_Trazado_compuesto_39" data-name="&lt;Trazado compuesto&gt;" class="cls-3"
          d="M60,41h0a5.24,5.24,0,0,0-4.34,6h0a6,6,0,0,0,5.75,4.81l7.25.25L66.3,45.21A6.19,6.19,0,0,0,60,41Zm2.18,6.16a1.79,1.79,0,1,1-.4-2.5A1.74,1.74,0,0,1,62.18,47.2Z"/>
    <path id="_Trazado_compuesto_40" data-name="&lt;Trazado compuesto&gt;" class="cls-3"
          d="M73.32,51h0A4.67,4.67,0,0,0,77,45.47h0a5.36,5.36,0,0,0-5.28-4.1H65.25l2.33,6.09A5.52,5.52,0,0,0,73.32,51Zm-2.14-5.11a1.6,1.6,0,1,1,.44,2.21A1.55,1.55,0,0,1,71.18,45.88Z"/>
    <path id="_Trazado_compuesto_41" data-name="&lt;Trazado compuesto&gt;" class="cls-3"
          d="M38.51,43.63h0a4.9,4.9,0,0,0-4.06,5.65h0a5.62,5.62,0,0,0,5.38,4.5l6.79.24L44.4,47.54A5.79,5.79,0,0,0,38.51,43.63Zm2,5.77a1.68,1.68,0,1,1-.38-2.34A1.63,1.63,0,0,1,40.55,49.4Z"/>
    <path id="_Trazado_compuesto_42" data-name="&lt;Trazado compuesto&gt;" class="cls-3"
          d="M51.67,52.22h0a4.9,4.9,0,0,0,3.68-5.9h0a5.62,5.62,0,0,0-5.66-4.14l-6.79.21,2.63,6.32A5.79,5.79,0,0,0,51.67,52.22ZM49.26,46.6a1.68,1.68,0,1,1,.53,2.31A1.63,1.63,0,0,1,49.26,46.6Z"/>
    <path id="_Trazado_compuesto_43" data-name="&lt;Trazado compuesto&gt;" class="cls-3"
          d="M100.46,63.5l4,6.26,4.38-6c1.67-2.19,1.68-5.71-.2-7.63h0a5.34,5.34,0,0,0-7.57-.35h0A6.31,6.31,0,0,0,100.46,63.5Zm2.45-3.93a1.82,1.82,0,1,1,1.74,1.9A1.77,1.77,0,0,1,102.91,59.57Z"/>
    <path id="_Trazado_compuesto_44" data-name="&lt;Trazado compuesto&gt;" class="cls-3"
          d="M99.26,52.06,99.68,56l3.51-1.78a3.26,3.26,0,0,0,1.73-3.68h0a2.84,2.84,0,0,0-3.52-2h0A3.36,3.36,0,0,0,99.26,52.06Zm2.11-1.28a1,1,0,1,1,.37,1.32A.94.94,0,0,1,101.37,50.78Z"/>
    <path id="_Trazado_compuesto_45" data-name="&lt;Trazado compuesto&gt;" class="cls-3"
          d="M99.59,55.77l-1-3.24-2.75,1.95a2.67,2.67,0,0,0-.93,3.3h0A2.56,2.56,0,0,0,98.28,59h0A2.75,2.75,0,0,0,99.59,55.77ZM98,57.12a.9.9,0,0,1-1.08.49.89.89,0,0,1-.52-1.06.9.9,0,0,1,1.08-.49A.81.81,0,0,1,98,57.12Z"/>
    <path id="_Trazado_compuesto_46" data-name="&lt;Trazado compuesto&gt;" class="cls-3"
          d="M89.9,46.58,86,52.23l6.6,1.59A5.62,5.62,0,0,0,99,50.92h0a4.9,4.9,0,0,0-2.4-6.53h0A5.79,5.79,0,0,0,89.9,46.58Zm4.2.67a1.68,1.68,0,1,1-1,2.15A1.63,1.63,0,0,1,94.1,47.25Z"/>
    <path id="_Trazado_compuesto_47" data-name="&lt;Trazado compuesto&gt;" class="cls-3"
          d="M86.66,49.16l4.08-5.49-6.53-1.84a5.62,5.62,0,0,0-6.5,2.65h0a4.9,4.9,0,0,0,2.15,6.62h0A5.79,5.79,0,0,0,86.66,49.16Zm-4.17-.83a1.68,1.68,0,1,1,1.07-2.11A1.63,1.63,0,0,1,82.49,48.33Z"/>
    <path id="_Trazado_compuesto_48" data-name="&lt;Trazado compuesto&gt;" class="cls-1"
          d="M104.54,135.86h0a10.91,10.91,0,0,0,14.15-6.29h0c2.16-5.05-.47-11.75-5.28-14.69l-12.77-8.08-3,14.92C96.36,127.27,99.49,133.7,104.54,135.86Zm2.56-13.38a3.73,3.73,0,1,1-1.91,4.92A3.62,3.62,0,0,1,107.09,122.48Z"/>
</svg>