<svg id="Capa_1" data-name="Capa 1" xmlns="http://www.w3.org/2000/svg" viewBox="0 0 141.73 141.73">
    <defs>
        <style>
            .cls-1,.cls-3{fill:#122b40;stroke:#fffdfd;stroke-miterlimit:10;}.cls-2{fill:#fff;}.cls-3{stroke-width:0.5px;}
        </style>
    </defs>
    <title>park_w</title>
    <path id="_Trazado_compuesto_" data-name="&lt;Trazado compuesto&gt;" class="cls-1"
          d="M41,94.37h0a10.91,10.91,0,0,0-14-6.55h0c-5.23,1.68-8.57,8.06-7.62,13.62l2.28,14.93,13.25-7.5C39.9,106.18,42.7,99.6,41,94.37Zm-11.78,6.84a3.73,3.73,0,1,1,3.18-6.75,4,4,0,0,1,1.78,5A3.62,3.62,0,0,1,29.24,101.21Z"/>
    <path id="_Trazado_compuesto_2" data-name="&lt;Trazado compuesto&gt;" class="cls-2"
          d="M19.88,130.79h0a10.91,10.91,0,0,0,14.28,6h0c5.16-1.89,8.24-8.4,7.07-13.92L38.35,108l-12.94,8C20.53,118.95,18,125.63,19.88,130.79Zm11.49-7.31a3.73,3.73,0,1,1-2.9,6.87,4,4,0,0,1-2-4.88A3.62,3.62,0,0,1,31.37,123.48Z"/>
    <path id="_Trazado_compuesto_3" data-name="&lt;Trazado compuesto&gt;" class="cls-1"
          d="M117.8,85.73h0a11.66,11.66,0,0,0-15.25,6.45h0c-2.4,5.36.27,12.58,5.36,15.8l13.49,8.88,3.52-15.9C126.38,95.07,123.16,88.13,117.8,85.73Zm-3,14.25a4,4,0,1,1,2.13-5.22A3.87,3.87,0,0,1,114.81,100Z"/>
    <path id="_Trazado_compuesto_4" data-name="&lt;Trazado compuesto&gt;" class="cls-3"
          d="M45,94.69h0a7.05,7.05,0,0,0,7.21-6.94h0c.2-3.55-2.87-7-6.45-7.76l-9.54-2.1,1.45,9.74A8.33,8.33,0,0,0,45,94.69ZM43.57,86a2.41,2.41,0,1,1-.08,3.41A2.34,2.34,0,0,1,43.57,86Z"/>
    <path id="_Trazado_compuesto_5" data-name="&lt;Trazado compuesto&gt;" class="cls-3"
          d="M59.89,78.71h0a8,8,0,0,0-6.61,9.19h0c.5,4,4.63,7.25,8.76,7.33l11,.39-3.6-10.54A9.43,9.43,0,0,0,59.89,78.71Zm3.32,9.39a2.73,2.73,0,1,1-.61-3.81A2.65,2.65,0,0,1,63.21,88.1Z"/>
    <path id="_Trazado_compuesto_6" data-name="&lt;Trazado compuesto&gt;" class="cls-3"
          d="M81.69,94.79h0a8,8,0,0,0,6-9.61h0c-.76-3.94-5.1-6.93-9.22-6.74l-11,.33L71.7,89.07A9.43,9.43,0,0,0,81.69,94.79Zm-3.93-9.16a2.73,2.73,0,1,1,.86,3.76A2.65,2.65,0,0,1,77.76,85.64Z"/>
    <path id="_Trazado_compuesto_7" data-name="&lt;Trazado compuesto&gt;" class="cls-3"
          d="M88.59,89h0a7.27,7.27,0,0,0,8,6.5h0c3.65-.25,6.85-3.83,7.13-7.58l.94-10-9.79,2.72A8.6,8.6,0,0,0,88.59,89Zm8.72-2.53a2.49,2.49,0,1,1-3.5.35A2.41,2.41,0,0,1,97.31,86.43Z"/>
    <path id="_Trazado_compuesto_8" data-name="&lt;Trazado compuesto&gt;" class="cls-3"
          d="M24.38,82.66h0A5.34,5.34,0,0,0,30.62,87h0c2.66-.39,4.78-3.2,4.77-6l.1-7.39-7,2.56A6.31,6.31,0,0,0,24.38,82.66Zm6-2.36a1.82,1.82,0,1,1-2.07,3,2,2,0,0,1-.46-2.54A1.77,1.77,0,0,1,30.36,80.31Z"/>
    <path id="_Trazado_compuesto_9" data-name="&lt;Trazado compuesto&gt;" class="cls-3"
          d="M20.44,67.09h0A5.34,5.34,0,0,0,20,74.65h0c1.7,2.08,5.2,2.47,7.56,1l6.4-3.7-5.78-4.7A6.31,6.31,0,0,0,20.44,67.09Zm5.22,4.15a2,2,0,0,1-1.94,1.7A1.82,1.82,0,0,1,24,69.29,1.77,1.77,0,0,1,25.65,71.23Z"/>
    <path id="_Trazado_compuesto_10" data-name="&lt;Trazado compuesto&gt;" class="cls-3"
          d="M40.15,61.65h0a5.34,5.34,0,0,0-7.57.35h0c-1.88,1.92-1.88,5.44-.2,7.63l4.38,6,4-6.26A6.31,6.31,0,0,0,40.15,61.65Zm-3.54,5.64a1.82,1.82,0,1,1,1.74-1.9A1.77,1.77,0,0,1,36.61,67.29Z"/>
    <path id="_Trazado_compuesto_11" data-name="&lt;Trazado compuesto&gt;" class="cls-3"
          d="M118.63,69.34,112.85,74l6.4,3.7c2.36,1.42,5.86,1,7.56-1h0a5.34,5.34,0,0,0-.49-7.56h0A6.31,6.31,0,0,0,118.63,69.34Zm4.18,2a1.82,1.82,0,1,1-1.7,1.94A1.77,1.77,0,0,1,122.81,71.34Z"/>
    <path id="_Trazado_compuesto_12" data-name="&lt;Trazado compuesto&gt;" class="cls-3"
          d="M114.11,77.73h0a5,5,0,0,0-6-3.66h0A5.7,5.7,0,0,0,104,79.86l.3,6.88L110.63,84A5.87,5.87,0,0,0,114.11,77.73Zm-5.67,2.52a1.7,1.7,0,1,1,2.33-.56A1.65,1.65,0,0,1,108.44,80.25Z"/>
    <path id="_Trazado_compuesto_13" data-name="&lt;Trazado compuesto&gt;" class="cls-3"
          d="M114.92,84.68h0a3.07,3.07,0,0,0,4.32-.55h0a3.52,3.52,0,0,0-.24-4.38l-2.79-3.21-2,3.77A3.62,3.62,0,0,0,114.92,84.68Zm1.77-3.4a1,1,0,1,1-.91,1.17A1,1,0,0,1,116.69,81.28Z"/>
    <path id="_Trazado_compuesto_14" data-name="&lt;Trazado compuesto&gt;" class="cls-3"
          d="M40.86,53.4h0a3.46,3.46,0,0,0-4.74,1.29h0a4,4,0,0,0,1,4.86l3.62,3.15,1.67-4.54A4.09,4.09,0,0,0,40.86,53.4Zm-1.45,4.08A1.18,1.18,0,1,1,40.24,56,1.15,1.15,0,0,1,39.41,57.48Z"/>
    <path id="_Trazado_compuesto_15" data-name="&lt;Trazado compuesto&gt;" class="cls-3"
          d="M41.62,63.2h0A2.49,2.49,0,0,0,45.14,63h0a2.86,2.86,0,0,0,0-3.56l-2.1-2.73-1.82,3A2.94,2.94,0,0,0,41.62,63.2Zm1.6-2.67a.85.85,0,1,1-.79.9A.83.83,0,0,1,43.21,60.54Z"/>
    <path id="_Trazado_compuesto_16" data-name="&lt;Trazado compuesto&gt;" class="cls-3"
          d="M117.73,69.74h0a2.49,2.49,0,0,0-2.2-2.76h0a2.86,2.86,0,0,0-2.94,2l-1,3.28,3.47-.19A2.94,2.94,0,0,0,117.73,69.74Zm-3.1.2a.85.85,0,1,1,1.2.14A.83.83,0,0,1,114.63,69.95Z"/>
    <path id="_Trazado_compuesto_17" data-name="&lt;Trazado compuesto&gt;" class="cls-3"
          d="M48.61,60.92h0a2.49,2.49,0,0,0,1.81-3h0a2.86,2.86,0,0,0-2.92-2L44.07,56l1.4,3.18A2.94,2.94,0,0,0,48.61,60.92Zm-1.28-2.83a.85.85,0,1,1,.29,1.17A.83.83,0,0,1,47.33,58.09Z"/>
    <path id="_Trazado_compuesto_18" data-name="&lt;Trazado compuesto&gt;" class="cls-1"
          d="M51.42,94.92h0a14.75,14.75,0,0,0-10.7,18h0c1.56,7.26,9.69,12.61,17.3,12.08l20.4-1.06L70.11,105.1C67.16,98,58.68,93.36,51.42,94.92ZM59,111.68a5.42,5.42,0,0,1-6.91,1.74,5,5,0,0,1,5.18-8.65A4.89,4.89,0,0,1,59,111.68Z"/>
    <path id="_Trazado_compuesto_19" data-name="&lt;Trazado compuesto&gt;" class="cls-1"
          d="M93.58,124.69h0a14.29,14.29,0,0,0,10.35-17.44h0c-1.52-7-9.4-12.21-16.77-11.7l-19.76,1,8.07,18.24C78.33,121.71,86.55,126.21,93.58,124.69Zm-7.4-16.23a4.88,4.88,0,1,1,1.69,6.7A4.74,4.74,0,0,1,86.18,108.46Z"/>
    <path id="_Trazado_compuesto_20" data-name="&lt;Trazado compuesto&gt;" class="cls-3"
          d="M65.87,43h0a5.24,5.24,0,0,0-4.34,6h0a6,6,0,0,0,5.75,4.81l7.25.25-2.36-6.92A6.19,6.19,0,0,0,65.87,43ZM68,49.13a1.79,1.79,0,1,1-.4-2.5A1.74,1.74,0,0,1,68,49.13Z"/>
    <path id="_Trazado_compuesto_21" data-name="&lt;Trazado compuesto&gt;" class="cls-3"
          d="M79.19,52.92h0a4.67,4.67,0,0,0,3.68-5.52h0a5.36,5.36,0,0,0-5.28-4.1H71.12l2.33,6.09A5.52,5.52,0,0,0,79.19,52.92Zm-2.14-5.11A1.6,1.6,0,1,1,77.49,50,1.55,1.55,0,0,1,77.05,47.81Z"/>
    <path id="_Trazado_compuesto_22" data-name="&lt;Trazado compuesto&gt;" class="cls-3"
          d="M44.37,45.57h0a4.9,4.9,0,0,0-4.06,5.65h0a5.62,5.62,0,0,0,5.38,4.5l6.79.24-2.21-6.48A5.79,5.79,0,0,0,44.37,45.57Zm2,5.77A1.68,1.68,0,1,1,46,49,1.63,1.63,0,0,1,46.41,51.34Z"/>
    <path id="_Trazado_compuesto_23" data-name="&lt;Trazado compuesto&gt;" class="cls-3"
          d="M57.54,54.16h0a4.9,4.9,0,0,0,3.68-5.9h0a5.62,5.62,0,0,0-5.66-4.14l-6.79.21,2.63,6.32A5.79,5.79,0,0,0,57.54,54.16Zm-2.41-5.62a1.68,1.68,0,1,1,.53,2.31A1.63,1.63,0,0,1,55.13,48.53Z"/>
    <path id="_Trazado_compuesto_24" data-name="&lt;Trazado compuesto&gt;" class="cls-2"
          d="M3.52,49.12h0A5.82,5.82,0,0,0,3,57.37H3c1.85,2.27,5.68,2.69,8.26,1.14l7-4-6.31-5.13A6.88,6.88,0,0,0,3.52,49.12Zm5.69,4.52A2.14,2.14,0,0,1,7.09,55.5a2,2,0,0,1,.27-4A1.93,1.93,0,0,1,9.21,53.65Z"/>
    <path id="_Trazado_compuesto_25" data-name="&lt;Trazado compuesto&gt;" class="cls-2"
          d="M73.26,1.34h0A5.82,5.82,0,0,0,65,1.48h0c-2.12,2-2.23,5.87-.47,8.32l4.59,6.64,4.61-6.7A6.88,6.88,0,0,0,73.26,1.34Zm-4.05,6a2.14,2.14,0,0,1-2-2,2,2,0,0,1,4-.05A1.93,1.93,0,0,1,69.2,7.38Z"/>
    <path id="_Trazado_compuesto_26" data-name="&lt;Trazado compuesto&gt;" class="cls-2"
          d="M130.93,50.19l-6.31,5.13,7,4c2.58,1.55,6.4,1.13,8.26-1.14h0a5.82,5.82,0,0,0-.53-8.25h0A6.88,6.88,0,0,0,130.93,50.19Zm4.56,2.18a2,2,0,1,1-1.85,2.12A1.93,1.93,0,0,1,135.49,52.37Z"/>
    <path id="_Trazado_compuesto_27" data-name="&lt;Trazado compuesto&gt;" class="cls-2"
          d="M24.28,56.42h0a4.52,4.52,0,0,0,2.63-5.85h0a5.18,5.18,0,0,0-5.68-3.08l-6.17,1L18.24,54A5.34,5.34,0,0,0,24.28,56.42Zm-2.9-4.84a1.54,1.54,0,1,1,.77,2A1.5,1.5,0,0,1,21.38,51.58Z"/>
    <path id="_Trazado_compuesto_28" data-name="&lt;Trazado compuesto&gt;" class="cls-2"
          d="M16.86,46.53l6.25-.86-3-5.49a5.18,5.18,0,0,0-5.93-2.57h0a4.52,4.52,0,0,0-3,5.68h0A5.34,5.34,0,0,0,16.86,46.53Zm-2.14-3.28a1.54,1.54,0,0,1,1.42-2.74,1.66,1.66,0,0,1,.66,2.08A1.5,1.5,0,0,1,14.72,43.25Z"/>
    <path id="_Trazado_compuesto_29" data-name="&lt;Trazado compuesto&gt;" class="cls-2"
          d="M26.92,46.47h0a4.52,4.52,0,0,0,4.37-4.69h0A5.18,5.18,0,0,0,26.89,37l-6.18-1L22,42.22A5.34,5.34,0,0,0,26.92,46.47ZM25.72,41a1.54,1.54,0,1,1,.07,2.18A1.5,1.5,0,0,1,25.72,41Z"/>
    <path id="_Trazado_compuesto_30" data-name="&lt;Trazado compuesto&gt;" class="cls-2"
          d="M26.78,36.35l6,1.88L32.42,32a5.18,5.18,0,0,0-4.27-4.85h0A4.52,4.52,0,0,0,23,31h0A5.34,5.34,0,0,0,26.78,36.35Zm-.54-3.88a1.54,1.54,0,0,1,2.45-1.87,1.66,1.66,0,0,1-.29,2.16A1.5,1.5,0,0,1,26.24,32.46Z"/>
    <path id="_Trazado_compuesto_31" data-name="&lt;Trazado compuesto&gt;" class="cls-2"
          d="M38.61,37.92h0A4.52,4.52,0,0,0,43,33.22h0a5.18,5.18,0,0,0-4.4-4.74l-6.18-1,1.27,6.18A5.34,5.34,0,0,0,38.61,37.92Zm-1.2-5.51a1.54,1.54,0,1,1,.07,2.18A1.5,1.5,0,0,1,37.41,32.41Z"/>
    <path id="_Trazado_compuesto_32" data-name="&lt;Trazado compuesto&gt;" class="cls-2"
          d="M38.47,27.79l6,1.88-.38-6.24a5.18,5.18,0,0,0-4.27-4.85h0a4.52,4.52,0,0,0-5.11,3.88h0A5.34,5.34,0,0,0,38.47,27.79Zm-.54-3.88a1.54,1.54,0,1,1,2.16.29A1.5,1.5,0,0,1,37.93,23.91Z"/>
    <path id="_Trazado_compuesto_33" data-name="&lt;Trazado compuesto&gt;" class="cls-2"
          d="M50.29,29.84h0a4.52,4.52,0,0,0,4.79-4.26h0a5.18,5.18,0,0,0-3.93-5.13l-6.05-1.59.68,6.27A5.34,5.34,0,0,0,50.29,29.84Zm-.67-5.6a1.54,1.54,0,1,1,2,2.31,1.66,1.66,0,0,1-2.18-.14A1.5,1.5,0,0,1,49.62,24.24Z"/>
    <path id="_Trazado_compuesto_34" data-name="&lt;Trazado compuesto&gt;" class="cls-2"
          d="M60.59,18h0a4.52,4.52,0,0,0,4.79-4.26h0a5.18,5.18,0,0,0-3.93-5.13L55.4,7l.68,6.27A5.34,5.34,0,0,0,60.59,18Zm-.67-5.6a1.66,1.66,0,0,1,2.18.14A1.66,1.66,0,0,1,62,14.73a1.66,1.66,0,0,1-2.18-.14A1.5,1.5,0,0,1,59.92,12.41Z"/>
    <path id="_Trazado_compuesto_35" data-name="&lt;Trazado compuesto&gt;" class="cls-2"
          d="M49.73,18.81l6,1.88-.38-6.24A5.18,5.18,0,0,0,51.09,9.6h0A4.52,4.52,0,0,0,46,13.48h0A5.34,5.34,0,0,0,49.73,18.81Zm-.54-3.88a1.54,1.54,0,1,1,2.16.29A1.5,1.5,0,0,1,49.19,14.93Z"/>
    <path id="_Trazado_compuesto_36" data-name="&lt;Trazado compuesto&gt;" class="cls-2"
          d="M127.92,50.45l1.77-5.53-5.75.31a4.77,4.77,0,0,0-4.49,3.9h0A4.16,4.16,0,0,0,123,53.86h0A4.92,4.92,0,0,0,127.92,50.45Zm-3.58.47a1.42,1.42,0,1,1,.28-2A1.38,1.38,0,0,1,124.35,50.92Z"/>
    <path id="_Trazado_compuesto_37" data-name="&lt;Trazado compuesto&gt;" class="cls-2"
          d="M128.77,37.78h0a4.52,4.52,0,0,0-5.11-3.88h0a5.18,5.18,0,0,0-4.27,4.85L119,45l6-1.88A5.34,5.34,0,0,0,128.77,37.78Zm-5.36,1.74a1.54,1.54,0,1,1,2.16-.29A1.5,1.5,0,0,1,123.41,39.52Z"/>
    <path id="_Trazado_compuesto_38" data-name="&lt;Trazado compuesto&gt;" class="cls-2"
          d="M118.58,39.78l1.27-6.18-6.18,1a5.18,5.18,0,0,0-4.4,4.74h0A4.52,4.52,0,0,0,113.65,44h0A5.34,5.34,0,0,0,118.58,39.78Zm-3.81.93a1.54,1.54,0,1,1,.07-2.18A1.5,1.5,0,0,1,114.77,40.71Z"/>
    <path id="_Trazado_compuesto_39" data-name="&lt;Trazado compuesto&gt;" class="cls-2"
          d="M117.53,28.57h0a4.52,4.52,0,0,0-5.11-3.88h0a5.18,5.18,0,0,0-4.27,4.85l-.38,6.24,6-1.88A5.34,5.34,0,0,0,117.53,28.57Zm-5.36,1.74a1.54,1.54,0,1,1,2.16-.29A1.5,1.5,0,0,1,112.17,30.31Z"/>
    <path id="_Trazado_compuesto_40" data-name="&lt;Trazado compuesto&gt;" class="cls-2"
          d="M106.89,31.22,108.16,25,102,26a5.18,5.18,0,0,0-4.4,4.74h0A4.52,4.52,0,0,0,102,35.48h0A5.34,5.34,0,0,0,106.89,31.22Zm-3.81.93A1.54,1.54,0,0,1,101,29.9a1.66,1.66,0,0,1,2.18.07A1.5,1.5,0,0,1,103.08,32.15Z"/>
    <path id="_Trazado_compuesto_41" data-name="&lt;Trazado compuesto&gt;" class="cls-2"
          d="M105.84,20h0a4.52,4.52,0,0,0-5.11-3.88h0A5.18,5.18,0,0,0,96.46,21l-.38,6.24,6-1.88A5.34,5.34,0,0,0,105.84,20Zm-5.36,1.74a1.54,1.54,0,1,1,2.16-.29A1.5,1.5,0,0,1,100.48,21.76Z"/>
    <path id="_Trazado_compuesto_42" data-name="&lt;Trazado compuesto&gt;" class="cls-2"
          d="M94.78,22.7l.68-6.27L89.41,18a5.18,5.18,0,0,0-3.93,5.13h0a4.52,4.52,0,0,0,4.79,4.26h0A5.34,5.34,0,0,0,94.78,22.7ZM91.08,24a1.54,1.54,0,0,1-2.31-2,1.66,1.66,0,0,1,2.18-.14A1.5,1.5,0,0,1,91.08,24Z"/>
    <path id="_Trazado_compuesto_43" data-name="&lt;Trazado compuesto&gt;" class="cls-2"
          d="M84.49,10.87l.68-6.27L79.12,6.19a5.18,5.18,0,0,0-3.93,5.13h0A4.52,4.52,0,0,0,80,15.58h0A5.34,5.34,0,0,0,84.49,10.87Zm-3.7,1.29a1.66,1.66,0,0,1-2.18.14,1.66,1.66,0,0,1-.14-2.18A1.66,1.66,0,0,1,80.65,10,1.5,1.5,0,0,1,80.79,12.16Z"/>
    <path id="_Trazado_compuesto_44" data-name="&lt;Trazado compuesto&gt;" class="cls-2"
          d="M94.58,11h0a4.52,4.52,0,0,0-5.11-3.88h0A5.18,5.18,0,0,0,85.2,12l-.38,6.24,6-1.88A5.34,5.34,0,0,0,94.58,11Zm-5.36,1.74a1.66,1.66,0,0,1-.29-2.16,1.66,1.66,0,0,1,2.16-.29,1.66,1.66,0,0,1,.29,2.16A1.5,1.5,0,0,1,89.22,12.78Z"/>
    <path id="_Trazado_compuesto_45" data-name="&lt;Trazado compuesto&gt;" class="cls-3"
          d="M106.32,65.43l4,6.26,4.38-6c1.67-2.19,1.68-5.71-.2-7.63h0a5.34,5.34,0,0,0-7.57-.35h0A6.31,6.31,0,0,0,106.32,65.43Zm2.45-3.93a1.82,1.82,0,1,1,1.74,1.9A1.77,1.77,0,0,1,108.77,61.5Z"/>
    <path id="_Trazado_compuesto_46" data-name="&lt;Trazado compuesto&gt;" class="cls-3"
          d="M105.13,54l.42,3.95,3.51-1.78a3.26,3.26,0,0,0,1.73-3.68h0a2.84,2.84,0,0,0-3.52-2h0A3.36,3.36,0,0,0,105.13,54Zm2.11-1.28a1,1,0,1,1,.37,1.32A.94.94,0,0,1,107.24,52.72Z"/>
    <path id="_Trazado_compuesto_47" data-name="&lt;Trazado compuesto&gt;" class="cls-3"
          d="M105.46,57.71l-1-3.24-2.75,1.95a2.67,2.67,0,0,0-.93,3.3h0a2.56,2.56,0,0,0,3.32,1.19h0A2.75,2.75,0,0,0,105.46,57.71Zm-1.62,1.35a.9.9,0,0,1-1.08.49.89.89,0,0,1-.52-1.06.9.9,0,0,1,1.08-.49A.81.81,0,0,1,103.85,59.05Z"/>
    <path id="_Trazado_compuesto_48" data-name="&lt;Trazado compuesto&gt;" class="cls-3"
          d="M95.77,48.51,91.9,54.16l6.6,1.59a5.62,5.62,0,0,0,6.39-2.9h0a4.9,4.9,0,0,0-2.4-6.53h0A5.79,5.79,0,0,0,95.77,48.51Zm4.2.67a1.68,1.68,0,1,1-1,2.15A1.63,1.63,0,0,1,100,49.18Z"/>
    <path id="_Trazado_compuesto_49" data-name="&lt;Trazado compuesto&gt;" class="cls-3"
          d="M92.53,51.09l4.08-5.49-6.53-1.84a5.62,5.62,0,0,0-6.5,2.65h0A4.9,4.9,0,0,0,85.72,53h0A5.79,5.79,0,0,0,92.53,51.09Zm-4.17-.83a1.68,1.68,0,1,1,1.07-2.11A1.63,1.63,0,0,1,88.35,50.26Z"/>
    <path id="_Trazado_compuesto_50" data-name="&lt;Trazado compuesto&gt;" class="cls-2"
          d="M110.4,137.79h0a10.91,10.91,0,0,0,14.15-6.29h0c2.16-5.05-.47-11.75-5.28-14.69l-12.77-8.08-3,14.92C102.23,129.2,105.35,135.64,110.4,137.79ZM113,124.42a3.73,3.73,0,1,1-1.91,4.92A3.62,3.62,0,0,1,113,124.42Z"/>
</svg>