<svg id="Capa_1" data-name="Capa 1" xmlns="http://www.w3.org/2000/svg" viewBox="0 0 141.73 141.73"><defs><style>.cls-1{fill:#212f41;}.cls-2{fill:#85a9db;}</style></defs><title>passenger</title><path class="cls-1" d="M54.9,110.59c38.13,8.91,62.67-17,63.19-42.82.27-13.56-7.13-25.4-14.33-34.6.35.45.8.8,1.19,1.22a46.77,46.77,0,0,1,9.6,14.76A44.28,44.28,0,0,1,117.73,67a44.53,44.53,0,0,1-3.91,17.85,43.8,43.8,0,0,1-10.19,14.36,46.77,46.77,0,0,1-14.76,9.6,44.53,44.53,0,0,1-18,3.19A44.53,44.53,0,0,1,53,108.06,43.8,43.8,0,0,1,38.66,97.87a46.77,46.77,0,0,1-9.6-14.76,47.94,47.94,0,0,1-3.19-18,46.26,46.26,0,0,1,3.9-17.67A42.93,42.93,0,0,1,40,33.09a46.77,46.77,0,0,1,14.76-9.6,44.53,44.53,0,0,1,18-3.19,47.45,47.45,0,0,1,15.94,3.15A46.7,46.7,0,0,0,24.73,65.89C23,156.63,27.84,104.26,54.9,110.59Z"/><path class="cls-1" d="M54.72,23.48A46.77,46.77,0,0,0,40,33.09,42.93,42.93,0,0,0,29.77,47.45a46.26,46.26,0,0,0-3.9,17.67,47.94,47.94,0,0,0,3.19,18,46.77,46.77,0,0,0,9.6,14.76A43.8,43.8,0,0,0,53,108.06,44.53,44.53,0,0,0,70.88,112a44.53,44.53,0,0,0,18-3.19,46.77,46.77,0,0,0,14.76-9.6,43.8,43.8,0,0,0,10.19-14.36A44.53,44.53,0,0,0,117.73,67a44.28,44.28,0,0,0-3.19-17.81,46.77,46.77,0,0,0-9.6-14.76c-.39-.42-.79-.82-1.19-1.22a46.68,46.68,0,0,0-15.09-9.73A47.45,47.45,0,0,0,72.72,20.3,44.53,44.53,0,0,0,54.72,23.48ZM83.91,39.76a32.11,32.11,0,0,1,9.4,6.35,32.6,32.6,0,0,1,6.35,9.28,25.2,25.2,0,0,1,2.2,11.25,24.65,24.65,0,0,1-2.65,11.15,29.25,29.25,0,0,1-6.72,9,30.49,30.49,0,0,1-32.61,5.51A32.11,32.11,0,0,1,50.48,86a32.6,32.6,0,0,1-6.35-9.28,25.2,25.2,0,0,1-2.2-11.25,25.77,25.77,0,0,1,2.65-11.15,26.54,26.54,0,0,1,6.72-9,29.89,29.89,0,0,1,9.65-6,31.14,31.14,0,0,1,11.62-2A29.5,29.5,0,0,1,83.91,39.76Z"/><circle class="cls-2" cx="71.75" cy="65.77" r="8.46" transform="matrix(0.56, -0.83, 0.83, 0.56, -22.89, 88.54)"/></svg>