<svg id="Capa_1" data-name="Capa 1" xmlns="http://www.w3.org/2000/svg" viewBox="0 0 82.59 141.73">
    <defs>
        <style>.cls-1{fill:#122b40;stroke:#fffdfd;stroke-miterlimit:10;}.cls-2{fill:#606060;}</style>
    </defs>
    <title>path_end</title>
    <path id="_Trazado_compuesto_" data-name="&lt;Trazado compuesto&gt;" class="cls-1"
          d="M57,16.68h0a18.79,18.79,0,0,0-26.49-3.14h0c-7.64,5.58-9.67,17.82-5.11,26.41l11.8,23.21L54.8,43.71C61.52,36.61,62.56,24.33,57,16.68ZM41.41,34.24a6.91,6.91,0,0,1-5.6-7.15A6.91,6.91,0,0,1,43,21.49a6.91,6.91,0,0,1,5.6,7.15A6.24,6.24,0,0,1,41.41,34.24Z"/>
    <path id="_Trazado_compuesto_2" data-name="&lt;Trazado compuesto&gt;" class="cls-2"
          d="M-1.1,74.12l2.6,5.49,4.17-4.35a5,5,0,0,0,.64-6.19h0A4.35,4.35,0,0,0,.24,68h0A5.14,5.14,0,0,0-1.1,74.12ZM1.3,71.2A1.6,1.6,0,0,1,3,70a1.6,1.6,0,0,1,1.21,1.72,1.6,1.6,0,0,1-1.72,1.21A1.44,1.44,0,0,1,1.3,71.2Z"/>
    <path id="_Trazado_compuesto_3" data-name="&lt;Trazado compuesto&gt;" class="cls-2"
          d="M9,78.43H9A4.35,4.35,0,0,0,15,80h0a5,5,0,0,0,2-5.89l-2-5.7-4.67,3.88A5.14,5.14,0,0,0,9,78.43Zm4.14-3.52a1.49,1.49,0,1,1-.77,2.87A1.6,1.6,0,0,1,11.3,76,1.44,1.44,0,0,1,13.12,74.91Z"/>
    <path id="_Trazado_compuesto_4" data-name="&lt;Trazado compuesto&gt;" class="cls-2"
          d="M18,69.26l2.46,5.55,4.28-4.25a5,5,0,0,0,.79-6.18h0a4.35,4.35,0,0,0-6.05-1.23h0A5.14,5.14,0,0,0,18,69.26Zm2.46-2.86a1.49,1.49,0,1,1,1.17,1.75A1.44,1.44,0,0,1,20.46,66.4Z"/>
    <path id="_Trazado_compuesto_5" data-name="&lt;Trazado compuesto&gt;" class="cls-2"
          d="M26.11,76.3h0a4.35,4.35,0,0,0,6.14.63h0a5,5,0,0,0,1.09-6.13l-2.82-5.33-4,4.56A5.14,5.14,0,0,0,26.11,76.3Zm3.54-4.12A1.49,1.49,0,1,1,28,73.5,1.44,1.44,0,0,1,29.65,72.18Z"/>
    <path id="_Trazado_compuesto_6" data-name="&lt;Trazado compuesto&gt;" class="cls-2"
          d="M32.9,66.71l3.81,4.73,3-5.21a5,5,0,0,0-.83-6.17h0a4.35,4.35,0,0,0-6.16.37h0A5.14,5.14,0,0,0,32.9,66.71Zm1.64-3.4a1.49,1.49,0,1,1,1.58,1.39A1.44,1.44,0,0,1,34.54,63.31Z"/>
</svg>