<svg id="Capa_1" data-name="Capa 1" xmlns="http://www.w3.org/2000/svg" viewBox="0 0 252.26 141.73">
    <defs>
        <style>.cls-1{fill:#606060;}</style>
    </defs>
    <title>path_middle</title>
    <path id="_Trazado_compuesto_" data-name="&lt;Trazado compuesto&gt;" class="cls-1"
          d="M20.77,89.41,22,83.24l-6.18,1A5.18,5.18,0,0,0,11.47,89h0a4.52,4.52,0,0,0,4.37,4.69h0A5.34,5.34,0,0,0,20.77,89.41ZM17,90.34A1.54,1.54,0,1,1,17,88.16,1.5,1.5,0,0,1,17,90.34Z"/>
    <path id="_Trazado_compuesto_2" data-name="&lt;Trazado compuesto&gt;" class="cls-1"
          d="M19.72,78.2h0a4.52,4.52,0,0,0-5.11-3.88h0a5.18,5.18,0,0,0-4.27,4.85L10,85.42l6-1.88A5.34,5.34,0,0,0,19.72,78.2Zm-5.36,1.74a1.54,1.54,0,1,1,1.87-2.45,1.66,1.66,0,0,1,.29,2.16A1.5,1.5,0,0,1,14.35,79.95Z"/>
    <path id="_Trazado_compuesto_3" data-name="&lt;Trazado compuesto&gt;" class="cls-1"
          d="M9.08,80.85l1.27-6.18-6.18,1a5.18,5.18,0,0,0-4.4,4.74h0a4.52,4.52,0,0,0,4.37,4.69h0A5.34,5.34,0,0,0,9.08,80.85Zm-3.81.93a1.66,1.66,0,0,1-2.18-.07,1.66,1.66,0,0,1,.07-2.18,1.66,1.66,0,0,1,2.18.07A1.5,1.5,0,0,1,5.27,81.78Z"/>
    <path id="_Trazado_compuesto_4" data-name="&lt;Trazado compuesto&gt;" class="cls-1"
          d="M22.64,93.34l2.85,6.23,4.77-4.84a5.63,5.63,0,0,0,.82-7h0a4.91,4.91,0,0,0-6.84-1.31h0A5.8,5.8,0,0,0,22.64,93.34Zm2.74-3.26a1.68,1.68,0,1,1,1.34,2A1.63,1.63,0,0,1,25.38,90.09Z"/>
    <path id="_Trazado_compuesto_5" data-name="&lt;Trazado compuesto&gt;" class="cls-1"
          d="M32.07,99.36h0a4.35,4.35,0,0,0,6.12.82h0a5,5,0,0,0,1.27-6.09l-2.65-5.41-4.15,4.44A5.14,5.14,0,0,0,32.07,99.36Zm3.66-4a1.49,1.49,0,1,1-1.67,1.27A1.44,1.44,0,0,1,35.74,95.34Z"/>
    <path id="_Trazado_compuesto_6" data-name="&lt;Trazado compuesto&gt;" class="cls-1"
          d="M41.81,94.29l2.6,5.49,4.17-4.35a5,5,0,0,0,.64-6.19h0a4.35,4.35,0,0,0-6.08-1.08h0A5.14,5.14,0,0,0,41.81,94.29Zm2.39-2.92a1.49,1.49,0,1,1,1.21,1.72A1.44,1.44,0,0,1,44.2,91.37Z"/>
    <path id="_Trazado_compuesto_7" data-name="&lt;Trazado compuesto&gt;" class="cls-1"
          d="M51.89,98.61h0a4.35,4.35,0,0,0,6,1.58h0a5,5,0,0,0,2-5.89l-2-5.7-4.67,3.88A5.14,5.14,0,0,0,51.89,98.61ZM56,95.09a1.49,1.49,0,1,1-1.82,1.05A1.44,1.44,0,0,1,56,95.09Z"/>
    <path id="_Trazado_compuesto_8" data-name="&lt;Trazado compuesto&gt;" class="cls-1"
          d="M60.9,89.44,63.37,95l4.28-4.25a5,5,0,0,0,.79-6.18h0a4.35,4.35,0,0,0-6.05-1.23h0A5.14,5.14,0,0,0,60.9,89.44Zm2.46-2.86a1.49,1.49,0,1,1,1.17,1.75A1.44,1.44,0,0,1,63.37,86.58Z"/>
    <path id="_Trazado_compuesto_9" data-name="&lt;Trazado compuesto&gt;" class="cls-1"
          d="M69,96.47h0a4.35,4.35,0,0,0,6.14.63h0A5,5,0,0,0,76.24,91l-2.82-5.33-4,4.56A5.14,5.14,0,0,0,69,96.47Zm3.54-4.12a1.49,1.49,0,1,1-1.63,1.32A1.44,1.44,0,0,1,72.55,92.35Z"/>
    <path id="_Trazado_compuesto_10" data-name="&lt;Trazado compuesto&gt;" class="cls-1"
          d="M141.34,40.28h0A4.52,4.52,0,0,0,137,45h0a5.18,5.18,0,0,0,4.4,4.74l6.18,1-1.27-6.18A5.34,5.34,0,0,0,141.34,40.28Zm1.2,5.51a1.54,1.54,0,1,1-.07-2.18A1.5,1.5,0,0,1,142.54,45.8Z"/>
    <path id="_Trazado_compuesto_11" data-name="&lt;Trazado compuesto&gt;" class="cls-1"
          d="M141.47,50.41l-6-1.88.38,6.24a5.18,5.18,0,0,0,4.27,4.85h0a4.52,4.52,0,0,0,5.11-3.88h0A5.34,5.34,0,0,0,141.47,50.41ZM142,54.3a1.54,1.54,0,1,1-2.16-.29A1.5,1.5,0,0,1,142,54.3Z"/>
    <path id="_Trazado_compuesto_12" data-name="&lt;Trazado compuesto&gt;" class="cls-1"
          d="M129.65,48.84h0a4.52,4.52,0,0,0-4.37,4.69h0a5.18,5.18,0,0,0,4.4,4.74l6.18,1-1.27-6.18A5.34,5.34,0,0,0,129.65,48.84Zm1.2,5.51a1.54,1.54,0,1,1-.07-2.18A1.5,1.5,0,0,1,130.84,54.35Z"/>
    <path id="_Trazado_compuesto_13" data-name="&lt;Trazado compuesto&gt;" class="cls-1"
          d="M149.73,47.51h0a4.91,4.91,0,0,0,6.84-1.31h0a5.63,5.63,0,0,0-.82-7L151,34.38l-2.85,6.23A5.8,5.8,0,0,0,149.73,47.51Zm2.48-5.6a1.68,1.68,0,1,1-1.34,2A1.63,1.63,0,0,1,152.22,41.91Z"/>
    <path id="_Trazado_compuesto_14" data-name="&lt;Trazado compuesto&gt;" class="cls-1"
          d="M158.17,40.84l4.15,4.44L165,39.87a5,5,0,0,0-1.27-6.09h0a4.35,4.35,0,0,0-6.12.82h0A5.14,5.14,0,0,0,158.17,40.84Zm1.39-3.51a1.49,1.49,0,1,1,1.67,1.27A1.44,1.44,0,0,1,159.56,37.34Z"/>
    <path id="_Trazado_compuesto_15" data-name="&lt;Trazado compuesto&gt;" class="cls-1"
          d="M168.64,45.79h0a4.35,4.35,0,0,0,6.08-1.08h0a5,5,0,0,0-.64-6.19l-4.17-4.35-2.6,5.49A5.14,5.14,0,0,0,168.64,45.79Zm2.27-4.93a1.49,1.49,0,1,1-1.21,1.72A1.44,1.44,0,0,1,170.91,40.86Z"/>
    <path id="_Trazado_compuesto_16" data-name="&lt;Trazado compuesto&gt;" class="cls-1"
          d="M178.76,41.47l4.67,3.88,2-5.7a5,5,0,0,0-2-5.89h0a4.35,4.35,0,0,0-6,1.58h0A5.14,5.14,0,0,0,178.76,41.47Zm.94-3.66a1.49,1.49,0,1,1,1.82,1.05A1.44,1.44,0,0,1,179.71,37.81Z"/>
    <path id="_Trazado_compuesto_17" data-name="&lt;Trazado compuesto&gt;" class="cls-1"
          d="M187.89,50.61h0a4.35,4.35,0,0,0,6.05-1.23h0a5,5,0,0,0-.79-6.18L188.87,39l-2.46,5.55A5.14,5.14,0,0,0,187.89,50.61Zm2.15-5a1.49,1.49,0,1,1-1.17,1.75A1.44,1.44,0,0,1,190,45.62Z"/>
    <path id="_Trazado_compuesto_18" data-name="&lt;Trazado compuesto&gt;" class="cls-1"
          d="M194.92,43.74l4,4.56L201.74,43a5,5,0,0,0-1.09-6.13h0a4.35,4.35,0,0,0-6.14.63h0A5.14,5.14,0,0,0,194.92,43.74Zm1.5-3.46a1.49,1.49,0,1,1,1.63,1.32A1.44,1.44,0,0,1,196.42,40.28Z"/>
    <path id="_Trazado_compuesto_19" data-name="&lt;Trazado compuesto&gt;" class="cls-1"
          d="M75.8,86.88l3.81,4.73,3-5.21a5,5,0,0,0-.83-6.17h0a4.35,4.35,0,0,0-6.16.37h0A5.14,5.14,0,0,0,75.8,86.88Zm1.64-3.4A1.49,1.49,0,1,1,79,84.88,1.44,1.44,0,0,1,77.44,83.49Z"/>
    <path id="_Trazado_compuesto_20" data-name="&lt;Trazado compuesto&gt;" class="cls-1"
          d="M219,61.4l1.27-6.18-6.18,1a5.18,5.18,0,0,0-4.4,4.74h0A4.52,4.52,0,0,0,214,65.66h0A5.34,5.34,0,0,0,219,61.4Zm-3.81.93a1.54,1.54,0,1,1,.07-2.18A1.5,1.5,0,0,1,215.17,62.33Z"/>
    <path id="_Trazado_compuesto_21" data-name="&lt;Trazado compuesto&gt;" class="cls-1"
          d="M217.93,50.2h0a4.52,4.52,0,0,0-5.11-3.88h0a5.18,5.18,0,0,0-4.27,4.85l-.38,6.24,6-1.88A5.34,5.34,0,0,0,217.93,50.2Zm-5.36,1.74a1.54,1.54,0,1,1,2.16-.29A1.5,1.5,0,0,1,212.56,51.94Z"/>
    <path id="_Trazado_compuesto_22" data-name="&lt;Trazado compuesto&gt;" class="cls-1"
          d="M207.29,52.85l1.27-6.18-6.18,1a5.18,5.18,0,0,0-4.4,4.74h0a4.52,4.52,0,0,0,4.37,4.69h0A5.34,5.34,0,0,0,207.29,52.85Zm-3.81.93a1.54,1.54,0,1,1,.07-2.18A1.5,1.5,0,0,1,203.48,53.77Z"/>
    <path id="_Trazado_compuesto_23" data-name="&lt;Trazado compuesto&gt;" class="cls-1"
          d="M220.85,65.33l2.85,6.23,4.77-4.84a5.63,5.63,0,0,0,.82-7h0a4.91,4.91,0,0,0-6.84-1.31h0A5.8,5.8,0,0,0,220.85,65.33Zm2.74-3.26a1.68,1.68,0,1,1,1.34,2A1.63,1.63,0,0,1,223.59,62.08Z"/>
    <path id="_Trazado_compuesto_24" data-name="&lt;Trazado compuesto&gt;" class="cls-1"
          d="M230.29,71.35h0a4.35,4.35,0,0,0,6.12.82h0a5,5,0,0,0,1.27-6.09L235,60.66l-4.15,4.44A5.14,5.14,0,0,0,230.29,71.35Zm3.66-4a1.49,1.49,0,1,1-1.67,1.27A1.44,1.44,0,0,1,233.95,67.34Z"/>
    <path id="_Trazado_compuesto_25" data-name="&lt;Trazado compuesto&gt;" class="cls-1"
          d="M240,66.29l2.6,5.49,4.17-4.35a5,5,0,0,0,.64-6.19h0a4.35,4.35,0,0,0-6.08-1.08h0A5.14,5.14,0,0,0,240,66.29Zm2.39-2.92a1.49,1.49,0,1,1,1.21,1.72A1.44,1.44,0,0,1,242.41,63.37Z"/>
    <path id="_Trazado_compuesto_26" data-name="&lt;Trazado compuesto&gt;" class="cls-1"
          d="M250.1,70.6h0a4.35,4.35,0,0,0,6,1.58h0a5,5,0,0,0,2-5.89l-2-5.7-4.67,3.88A5.14,5.14,0,0,0,250.1,70.6Zm4.14-3.52a1.49,1.49,0,1,1-1.82,1.05A1.44,1.44,0,0,1,254.24,67.08Z"/>
    <path id="_Trazado_compuesto_27" data-name="&lt;Trazado compuesto&gt;" class="cls-1"
          d="M82.86,94.78h0a4.35,4.35,0,0,0,6.17.14h0a5,5,0,0,0,.59-6.2l-3.23-5.08L82.76,88.5A5.14,5.14,0,0,0,82.86,94.78Zm3.2-4.39a1.49,1.49,0,1,1-1.52,1.45A1.44,1.44,0,0,1,86.06,90.39Z"/>
    <path id="_Trazado_compuesto_28" data-name="&lt;Trazado compuesto&gt;" class="cls-1"
          d="M89.19,84.77l4.75,3.78,1.82-5.74A5,5,0,0,0,93.62,77h0a4.35,4.35,0,0,0-5.93,1.71h0A5.14,5.14,0,0,0,89.19,84.77Zm.86-3.68a1.49,1.49,0,1,1,1.84,1A1.44,1.44,0,0,1,90.05,81.1Z"/>
    <path id="_Trazado_compuesto_29" data-name="&lt;Trazado compuesto&gt;" class="cls-1"
          d="M101.54,85.49h0a4.35,4.35,0,0,0,5-3.56h0a5,5,0,0,0-3.21-5.34l-5.62-2.17,0,6.07A5.14,5.14,0,0,0,101.54,85.49Zm0-5.43a1.49,1.49,0,1,1-.36,2.07A1.44,1.44,0,0,1,101.5,80.05Z"/>
    <path id="_Trazado_compuesto_30" data-name="&lt;Trazado compuesto&gt;" class="cls-1"
          d="M102.69,74.85l5.78,1.86-.32-6a5,5,0,0,0-4.08-4.7h0a4.35,4.35,0,0,0-4.95,3.69h0A5.14,5.14,0,0,0,102.69,74.85Zm-.49-3.74a1.49,1.49,0,1,1,2.08.3A1.44,1.44,0,0,1,102.2,71.1Z"/>
    <path id="_Trazado_compuesto_31" data-name="&lt;Trazado compuesto&gt;" class="cls-1"
          d="M112.93,77.57h0a4.35,4.35,0,0,0,5.24-3.27h0a5,5,0,0,0-2.9-5.51l-5.49-2.48-.36,6.06A5.14,5.14,0,0,0,112.93,77.57Zm.27-5.43a1.49,1.49,0,1,1-.48,2A1.44,1.44,0,0,1,113.19,72.15Z"/>
    <path id="_Trazado_compuesto_32" data-name="&lt;Trazado compuesto&gt;" class="cls-1"
          d="M116.22,68.2,122,70.06l-.32-6a5,5,0,0,0-4.08-4.7h0A4.35,4.35,0,0,0,112.66,63h0A5.14,5.14,0,0,0,116.22,68.2Zm-.49-3.74a1.49,1.49,0,1,1,2.08.3A1.44,1.44,0,0,1,115.73,64.46Z"/>
    <path id="_Trazado_compuesto_33" data-name="&lt;Trazado compuesto&gt;" class="cls-1"
          d="M126.45,70.93h0a4.35,4.35,0,0,0,5.24-3.27h0a5,5,0,0,0-2.9-5.51l-5.49-2.48-.36,6.06A5.14,5.14,0,0,0,126.45,70.93Zm.27-5.43a1.49,1.49,0,1,1-.48,2A1.44,1.44,0,0,1,126.72,65.5Z"/>
</svg>