<svg id="Capa_1" data-name="Capa 1" xmlns="http://www.w3.org/2000/svg" viewBox="0 0 430.51 143.26">
    <defs>
        <style>.cls-1{fill:#606060;}.cls-2{fill:#74acdf;}</style>
    </defs>
    <title>path_start</title>
    <path id="_Trazado_compuesto_" data-name="&lt;Trazado compuesto&gt;" class="cls-1"
          d="M66.21,78.44h0a6.8,6.8,0,0,0-.62,9.63h0c2.17,2.65,6.63,3.14,9.64,1.33l8.15-4.72L76,78.7A8,8,0,0,0,66.21,78.44Zm6.65,5.28a2.32,2.32,0,1,1-2.16-2.47A2.26,2.26,0,0,1,72.86,83.72Z"/>
    <path id="_Trazado_compuesto_2" data-name="&lt;Trazado compuesto&gt;" class="cls-1"
          d="M97.54,93.71h0a6.8,6.8,0,0,0-2.25-9.39h0c-2.85-1.9-7.26-1-9.6,1.57l-6.4,6.91,8.81,3.55A8,8,0,0,0,97.54,93.71Zm-7.91-3.09a2.32,2.32,0,1,1,2.8,1.73A2.26,2.26,0,0,1,89.63,90.63Z"/>
    <path id="_Trazado_compuesto_3" data-name="&lt;Trazado compuesto&gt;" class="cls-1"
          d="M213.81,86.5l-7.37,6,8.15,4.72c3,1.81,7.47,1.32,9.64-1.33h0a6.8,6.8,0,0,0-.62-9.63h0A8,8,0,0,0,213.81,86.5Zm5.32,2.55A2.32,2.32,0,1,1,217,91.53,2.26,2.26,0,0,1,219.13,89.05Z"/>
    <path id="_Trazado_compuesto_4" data-name="&lt;Trazado compuesto&gt;" class="cls-1"
          d="M143.2,52.32h0a4.41,4.41,0,0,0-6,1.65h0a5.07,5.07,0,0,0,1.21,6.2l4.61,4,2.13-5.79A5.22,5.22,0,0,0,143.2,52.32Zm-1.84,5.2a1.51,1.51,0,1,1,1.06-1.85A1.46,1.46,0,0,1,141.35,57.52Z"/>
    <path id="_Trazado_compuesto_5" data-name="&lt;Trazado compuesto&gt;" class="cls-1"
          d="M109.89,75.74h0a3.17,3.17,0,0,0,4.21-1.59h0a3.64,3.64,0,0,0-1.29-4.35l-3.57-2.56-1.13,4.28A3.75,3.75,0,0,0,109.89,75.74Zm1-3.84a1.08,1.08,0,1,1-.64,1.4A1.05,1.05,0,0,1,110.86,71.9Z"/>
    <path id="_Trazado_compuesto_6" data-name="&lt;Trazado compuesto&gt;" class="cls-1"
          d="M94.34,68.46h0a6.67,6.67,0,0,0-7.07,6.3h0c-.32,3.35,2.46,6.77,5.82,7.58L102,84.67l-1-9.26A7.89,7.89,0,0,0,94.34,68.46Zm1,8.27a2.28,2.28,0,1,1,.19-3.22A2.21,2.21,0,0,1,95.34,76.73Z"/>
    <path id="_Trazado_compuesto_7" data-name="&lt;Trazado compuesto&gt;" class="cls-1"
          d="M106.6,57h0a6.67,6.67,0,0,0-9.45.6h0C94.83,60,94.91,64.43,97,67.14l5.61,7.35,4.91-7.92A7.89,7.89,0,0,0,106.6,57Zm-4.31,7.13a2.28,2.28,0,1,1,2.14-2.42A2.21,2.21,0,0,1,102.28,64.12Z"/>
    <path id="_Trazado_compuesto_8" data-name="&lt;Trazado compuesto&gt;" class="cls-1"
          d="M196,80.85h0a6,6,0,0,0-4.69,7h0c.48,3,3.65,5.28,6.73,5.23h8.25l-3-7.77A7,7,0,0,0,196,80.85Zm2.73,6.91a2,2,0,1,1-.56-2.82A2,2,0,0,1,198.7,87.76Z"/>
    <path id="_Trazado_compuesto_9" data-name="&lt;Trazado compuesto&gt;" class="cls-1"
          d="M117,58.68h0a6.25,6.25,0,0,0-5.18,7.2h0c.39,3.12,3.63,5.68,6.86,5.74l8.65.3-2.82-8.26A7.38,7.38,0,0,0,117,58.68Zm2.6,7.35a2.14,2.14,0,1,1-.48-3A2.07,2.07,0,0,1,119.61,66Z"/>
    <path id="_Trazado_compuesto_10" data-name="&lt;Trazado compuesto&gt;" class="cls-1"
          d="M133.79,69.63h0a6.25,6.25,0,0,0,4.7-7.52h0c-.6-3.09-4-5.43-7.22-5.28l-8.65.26L126,65.15A7.38,7.38,0,0,0,133.79,69.63Zm-3.08-7.17a2.14,2.14,0,1,1,.67,2.94A2.07,2.07,0,0,1,130.71,62.46Z"/>
    <path id="_Trazado_compuesto_11" data-name="&lt;Trazado compuesto&gt;" class="cls-1"
          d="M163.52,59.43l-8.88-3.38v9.42c-.06,3.52,2.6,7.13,6,7.68h0a6.8,6.8,0,0,0,8-5.36h0A8,8,0,0,0,163.52,59.43Zm.46,5.88a2.32,2.32,0,1,1-3.23-.63A2.26,2.26,0,0,1,164,65.32Z"/>
    <path id="_Trazado_compuesto_12" data-name="&lt;Trazado compuesto&gt;" class="cls-1"
          d="M153.84,67.16,151,58.08l-7.43,5.79c-2.81,2.11-4,6.44-2.38,9.44h0a6.8,6.8,0,0,0,9.16,3h0A8,8,0,0,0,153.84,67.16Zm-4.36,4A2.32,2.32,0,1,1,148,68.21,2.26,2.26,0,0,1,149.48,71.14Z"/>
    <path id="_Trazado_compuesto_13" data-name="&lt;Trazado compuesto&gt;" class="cls-1"
          d="M163.38,79.57l1.89-4.69-5-.09a4.16,4.16,0,0,0-4.15,3.11h0a3.62,3.62,0,0,0,2.78,4.33h0A4.28,4.28,0,0,0,163.38,79.57Zm-3.14.19a1.24,1.24,0,1,1,.37-1.71A1.2,1.2,0,0,1,160.25,79.76Z"/>
    <path id="_Trazado_compuesto_14" data-name="&lt;Trazado compuesto&gt;" class="cls-1"
          d="M168.16,72.94l1.22,4.13,3.5-2.48a3.41,3.41,0,0,0,1.18-4.21h0a3.26,3.26,0,0,0-4.24-1.52h0A3.51,3.51,0,0,0,168.16,72.94Zm2.06-1.72a1.15,1.15,0,0,1,1.38-.62,1.14,1.14,0,0,1,.67,1.35,1.15,1.15,0,0,1-1.38.62A1,1,0,0,1,170.22,71.22Z"/>
    <path id="_Trazado_compuesto_15" data-name="&lt;Trazado compuesto&gt;" class="cls-1"
          d="M174.85,86.87l4.92-7.2-8.41-2c-3.13-.81-6.93.79-8.14,3.69h0a6.25,6.25,0,0,0,3.06,8.32h0A7.38,7.38,0,0,0,174.85,86.87ZM169.49,86a2.14,2.14,0,1,1,1.26-2.74A2.07,2.07,0,0,1,169.49,86Z"/>
    <path id="_Trazado_compuesto_16" data-name="&lt;Trazado compuesto&gt;" class="cls-1"
          d="M178.5,84.35l-5.2,7,8.33,2.35c3.09.93,7-.52,8.28-3.37h0a6.25,6.25,0,0,0-2.74-8.44h0A7.38,7.38,0,0,0,178.5,84.35Zm5.32,1.06a2.14,2.14,0,1,1-1.36,2.69A2.07,2.07,0,0,1,183.82,85.42Z"/>
    <path id="_Trazado_compuesto_17" data-name="&lt;Trazado compuesto&gt;" class="cls-2"
          d="M63.37,35.43h0A17.87,17.87,0,0,0,40.44,46.29h0c-3.34,8.36,1.22,19.24,9.23,23.86L70.9,82.88l4.37-24.57C77.1,49.19,71.73,38.77,63.37,35.43Zm-3.67,22a6.57,6.57,0,0,1-8.13-2.93,6.57,6.57,0,0,1,2.93-8.13,6.57,6.57,0,0,1,8.13,2.93A5.93,5.93,0,0,1,59.7,57.45Z"/>
    <path id="_Trazado_compuesto_18" data-name="&lt;Trazado compuesto&gt;" class="cls-1"
          d="M255.34,86.63h0a5.66,5.66,0,0,0-6.3,5h0c-.43,2.82,1.75,5.85,4.55,6.7l7.46,2.41-.4-7.9A6.69,6.69,0,0,0,255.34,86.63Zm.44,7.06a1.94,1.94,0,1,1,.32-2.72A1.88,1.88,0,0,1,255.78,93.69Z"/>
    <path id="_Trazado_compuesto_19" data-name="&lt;Trazado compuesto&gt;" class="cls-1"
          d="M266.24,100.94h0a5,5,0,0,0,5.46-4.65h0a5.8,5.8,0,0,0-4.27-5.83l-6.73-1.91.61,7A6,6,0,0,0,266.24,100.94ZM265.53,95a1.73,1.73,0,1,1-.2,2.43A1.68,1.68,0,0,1,265.53,95Z"/>
    <path id="_Trazado_compuesto_20" data-name="&lt;Trazado compuesto&gt;" class="cls-1"
          d="M232.22,84.77h0a5.3,5.3,0,0,0-5.9,4.67h0a6.08,6.08,0,0,0,4.26,6.28l7,2.26-.38-7.39A6.26,6.26,0,0,0,232.22,84.77Zm.41,6.61a1.81,1.81,0,1,1,.3-2.54A1.76,1.76,0,0,1,232.63,91.38Z"/>
    <path id="_Trazado_compuesto_21" data-name="&lt;Trazado compuesto&gt;" class="cls-1"
          d="M243.36,95.8h0a5.3,5.3,0,0,0,5.58-5h0a6.08,6.08,0,0,0-4.66-6L237.17,83l.86,7.35A6.26,6.26,0,0,0,243.36,95.8Zm-.84-6.56a1.81,1.81,0,1,1-.14,2.56A1.76,1.76,0,0,1,242.52,89.23Z"/>
    <path id="_Trazado_compuesto_22" data-name="&lt;Trazado compuesto&gt;" class="cls-1"
          d="M274.13,40.44h0a5.82,5.82,0,0,0-8.27.13h0c-2.12,2-2.23,5.87-.47,8.32L270,55.53l4.61-6.7A6.88,6.88,0,0,0,274.13,40.44Zm-4.05,6a2,2,0,1,1,2-2A1.93,1.93,0,0,1,270.08,46.48Z"/>
    <path id="_Trazado_compuesto_23" data-name="&lt;Trazado compuesto&gt;" class="cls-1"
          d="M217.74,85.63l6.25-.86-3-5.49a5.18,5.18,0,0,0-5.93-2.57h0a4.52,4.52,0,0,0-3,5.68h0A5.34,5.34,0,0,0,217.74,85.63Zm-2.14-3.28a1.54,1.54,0,1,1,2.08-.66A1.5,1.5,0,0,1,215.6,82.35Z"/>
    <path id="_Trazado_compuesto_24" data-name="&lt;Trazado compuesto&gt;" class="cls-1"
          d="M227.8,85.57h0a4.52,4.52,0,0,0,4.37-4.69h0a5.18,5.18,0,0,0-4.4-4.74l-6.18-1,1.27,6.18A5.34,5.34,0,0,0,227.8,85.57Zm-1.2-5.51a1.54,1.54,0,1,1,.07,2.18A1.5,1.5,0,0,1,226.6,80.06Z"/>
    <path id="_Trazado_compuesto_25" data-name="&lt;Trazado compuesto&gt;" class="cls-1"
          d="M227.66,75.44l6,1.88-.38-6.24A5.18,5.18,0,0,0,229,66.23h0a4.52,4.52,0,0,0-5.11,3.88h0A5.34,5.34,0,0,0,227.66,75.44Zm-.54-3.88a1.54,1.54,0,1,1,2.16.29A1.5,1.5,0,0,1,227.12,71.56Z"/>
    <path id="_Trazado_compuesto_26" data-name="&lt;Trazado compuesto&gt;" class="cls-1"
          d="M239.49,77h0a4.52,4.52,0,0,0,4.37-4.69h0a5.18,5.18,0,0,0-4.4-4.74l-6.18-1,1.27,6.18A5.34,5.34,0,0,0,239.49,77Zm-1.2-5.51a1.54,1.54,0,1,1,.07,2.18A1.5,1.5,0,0,1,238.29,71.5Z"/>
    <path id="_Trazado_compuesto_27" data-name="&lt;Trazado compuesto&gt;" class="cls-1"
          d="M239.35,66.89l6,1.88L245,62.52a5.18,5.18,0,0,0-4.27-4.85h0a4.52,4.52,0,0,0-5.11,3.88h0A5.34,5.34,0,0,0,239.35,66.89ZM238.81,63a1.54,1.54,0,1,1,2.16.29A1.5,1.5,0,0,1,238.81,63Z"/>
    <path id="_Trazado_compuesto_28" data-name="&lt;Trazado compuesto&gt;" class="cls-1"
          d="M251.17,68.94h0A4.52,4.52,0,0,0,256,64.68h0A5.18,5.18,0,0,0,252,59.55L246,58l.68,6.27A5.34,5.34,0,0,0,251.17,68.94Zm-.67-5.6a1.54,1.54,0,1,1-.14,2.18A1.5,1.5,0,0,1,250.5,63.34Z"/>
    <path id="_Trazado_compuesto_29" data-name="&lt;Trazado compuesto&gt;" class="cls-1"
          d="M261.46,57.11h0a4.52,4.52,0,0,0,4.79-4.26h0a5.18,5.18,0,0,0-3.93-5.13l-6.05-1.59.68,6.27A5.34,5.34,0,0,0,261.46,57.11Zm-.67-5.6a1.54,1.54,0,1,1-.14,2.18A1.5,1.5,0,0,1,260.8,51.51Z"/>
    <path id="_Trazado_compuesto_30" data-name="&lt;Trazado compuesto&gt;" class="cls-1"
          d="M250.61,57.91l6,1.88-.38-6.24A5.18,5.18,0,0,0,252,48.7h0a4.52,4.52,0,0,0-5.11,3.88h0A5.34,5.34,0,0,0,250.61,57.91ZM250.07,54a1.54,1.54,0,1,1,2.16.29A1.5,1.5,0,0,1,250.07,54Z"/>
    <path id="_Trazado_compuesto_31" data-name="&lt;Trazado compuesto&gt;" class="cls-1"
          d="M319.46,78.88l1.27-6.18-6.18,1a5.18,5.18,0,0,0-4.4,4.74h0a4.52,4.52,0,0,0,4.37,4.69h0A5.34,5.34,0,0,0,319.46,78.88Zm-3.81.93a1.54,1.54,0,1,1,.07-2.18A1.5,1.5,0,0,1,315.65,79.81Z"/>
    <path id="_Trazado_compuesto_32" data-name="&lt;Trazado compuesto&gt;" class="cls-1"
          d="M318.41,67.67h0a4.52,4.52,0,0,0-5.11-3.88h0A5.18,5.18,0,0,0,309,68.64l-.38,6.24,6-1.88A5.34,5.34,0,0,0,318.41,67.67ZM313,69.41a1.54,1.54,0,1,1,2.16-.29A1.5,1.5,0,0,1,313,69.41Z"/>
    <path id="_Trazado_compuesto_33" data-name="&lt;Trazado compuesto&gt;" class="cls-1"
          d="M307.77,70.32,309,64.14l-6.18,1a5.18,5.18,0,0,0-4.4,4.74h0a4.52,4.52,0,0,0,4.37,4.69h0A5.34,5.34,0,0,0,307.77,70.32Zm-3.81.93a1.54,1.54,0,1,1,.07-2.18A1.5,1.5,0,0,1,304,71.25Z"/>
    <path id="_Trazado_compuesto_34" data-name="&lt;Trazado compuesto&gt;" class="cls-1"
          d="M306.72,59.11h0a4.52,4.52,0,0,0-5.11-3.88h0a5.18,5.18,0,0,0-4.27,4.85L297,66.33l6-1.88A5.34,5.34,0,0,0,306.72,59.11Zm-5.36,1.74a1.54,1.54,0,1,1,2.16-.29A1.5,1.5,0,0,1,301.35,60.86Z"/>
    <path id="_Trazado_compuesto_35" data-name="&lt;Trazado compuesto&gt;" class="cls-1"
          d="M295.66,61.79l.68-6.27-6.05,1.59a5.18,5.18,0,0,0-3.93,5.13h0a4.52,4.52,0,0,0,4.79,4.26h0A5.34,5.34,0,0,0,295.66,61.79ZM292,63.08a1.54,1.54,0,1,1-.14-2.18A1.5,1.5,0,0,1,292,63.08Z"/>
    <path id="_Trazado_compuesto_36" data-name="&lt;Trazado compuesto&gt;" class="cls-1"
          d="M285.37,50,286,43.7,280,45.28a5.18,5.18,0,0,0-3.93,5.13h0a4.52,4.52,0,0,0,4.79,4.26h0A5.34,5.34,0,0,0,285.37,50Zm-3.7,1.29a1.54,1.54,0,1,1-.14-2.18A1.5,1.5,0,0,1,281.66,51.25Z"/>
    <path id="_Trazado_compuesto_37" data-name="&lt;Trazado compuesto&gt;" class="cls-1"
          d="M295.46,50.14h0a4.52,4.52,0,0,0-5.11-3.88h0a5.18,5.18,0,0,0-4.27,4.85l-.38,6.24,6-1.88A5.34,5.34,0,0,0,295.46,50.14Zm-5.36,1.74a1.54,1.54,0,1,1,2.16-.29A1.5,1.5,0,0,1,290.1,51.88Z"/>
    <path id="_Trazado_compuesto_38" data-name="&lt;Trazado compuesto&gt;" class="cls-1"
          d="M290.74,122l2.33,7.71,6.32-4.89c2.39-1.78,3.44-5.44,2.05-8h0a5.77,5.77,0,0,0-7.76-2.61h0A6.82,6.82,0,0,0,290.74,122Zm3.71-3.36a2,2,0,1,1,1.25,2.49A1.91,1.91,0,0,1,294.46,118.63Z"/>
    <path id="_Trazado_compuesto_39" data-name="&lt;Trazado compuesto&gt;" class="cls-1"
          d="M292.89,109.75l-.74,4.23,4.18-.81a3.53,3.53,0,0,0,2.89-3.31h0a3.07,3.07,0,0,0-3.07-3.1h0A3.63,3.63,0,0,0,292.89,109.75Zm2.57-.71a1.05,1.05,0,1,1,0,1.49A1,1,0,0,1,295.47,109Z"/>
    <path id="_Trazado_compuesto_40" data-name="&lt;Trazado compuesto&gt;" class="cls-1"
          d="M292.14,113.7l0-3.66-3.44,1.21a2.89,2.89,0,0,0-1.95,3.16h0a2.76,2.76,0,0,0,3.1,2.23h0A3,3,0,0,0,292.14,113.7Zm-2.08.92a1,1,0,0,1-1.27.18,1,1,0,0,1-.23-1.25,1,1,0,0,1,1.27-.18A.87.87,0,0,1,290.06,114.62Z"/>
    <path id="_Trazado_compuesto_41" data-name="&lt;Trazado compuesto&gt;" class="cls-1"
          d="M284.79,101.27,279.09,106l6.39,3.61a6.08,6.08,0,0,0,7.5-1.12h0a5.3,5.3,0,0,0-.56-7.5h0A6.26,6.26,0,0,0,284.79,101.27Zm4.17,1.94a1.81,1.81,0,1,1-1.67,1.95A1.76,1.76,0,0,1,289,103.21Z"/>
    <path id="_Trazado_compuesto_42" data-name="&lt;Trazado compuesto&gt;" class="cls-1"
          d="M280.65,103l5.87-4.5-6.25-3.85a6.08,6.08,0,0,0-7.54.82h0A5.3,5.3,0,0,0,273,103h0A6.26,6.26,0,0,0,280.65,103Zm-4.09-2.1A1.81,1.81,0,1,1,278.3,99,1.76,1.76,0,0,1,276.56,100.89Z"/>
    <path id="_Trazado_compuesto_43" data-name="&lt;Trazado compuesto&gt;" class="cls-2"
          d="M208.86,51.69h0A13.9,13.9,0,0,0,191,60.13h0c-2.6,6.5.95,15,7.18,18.55l16.51,9.9,3.4-19.11C219.54,62.39,215.36,54.28,208.86,51.69ZM206,68.81a4.75,4.75,0,1,1-4-8.6,5.11,5.11,0,0,1,6.32,2.28A4.61,4.61,0,0,1,206,68.81Z"/>
    <path id="_Trazado_compuesto_44" data-name="&lt;Trazado compuesto&gt;" class="cls-2"
          d="M321.5,94.35h0a13.9,13.9,0,0,0-17.64-8.85h0c-6.72,2-11.2,10-10.19,17.08L296,121.69l17.15-9.09C319.65,109.35,323.46,101.07,321.5,94.35Zm-15.24,8.3a4.75,4.75,0,1,1,6.38-2.1A4.61,4.61,0,0,1,306.25,102.65Z"/>
    <path id="_Trazado_compuesto_45" data-name="&lt;Trazado compuesto&gt;" class="cls-2"
          d="M302.7,19.11h0A13.9,13.9,0,0,0,285,10.41h0c-6.7,2-11.12,10.06-10.05,17.16l2.53,19.09,17.07-9.23C301,34.13,304.72,25.82,302.7,19.11Zm-15.18,8.42a5.11,5.11,0,0,1-2.15-6.37A5.11,5.11,0,0,1,291.74,19a5.11,5.11,0,0,1,2.15,6.37A4.61,4.61,0,0,1,287.53,27.54Z"/>
    <path id="_Trazado_compuesto_46" data-name="&lt;Trazado compuesto&gt;" class="cls-1"
          d="M321.33,82.81,324.18,89l4.77-4.84a5.63,5.63,0,0,0,.82-7h0a4.91,4.91,0,0,0-6.84-1.31h0A5.8,5.8,0,0,0,321.33,82.81Zm2.74-3.26a1.68,1.68,0,1,1,1.34,2A1.63,1.63,0,0,1,324.07,79.55Z"/>
    <path id="_Trazado_compuesto_47" data-name="&lt;Trazado compuesto&gt;" class="cls-1"
          d="M330.77,88.82h0a4.35,4.35,0,0,0,6.12.82h0a5,5,0,0,0,1.27-6.09l-2.65-5.41-4.15,4.44A5.14,5.14,0,0,0,330.77,88.82Zm3.66-4a1.49,1.49,0,1,1-1.67,1.27A1.44,1.44,0,0,1,334.43,84.81Z"/>
    <path id="_Trazado_compuesto_48" data-name="&lt;Trazado compuesto&gt;" class="cls-1"
          d="M340.5,83.76l2.6,5.49,4.17-4.35a5,5,0,0,0,.64-6.19h0a4.35,4.35,0,0,0-6.08-1.08h0A5.14,5.14,0,0,0,340.5,83.76Zm2.39-2.92a1.49,1.49,0,1,1,1.21,1.72A1.44,1.44,0,0,1,342.89,80.84Z"/>
    <path id="_Trazado_compuesto_49" data-name="&lt;Trazado compuesto&gt;" class="cls-1"
          d="M350.58,88.07h0a4.35,4.35,0,0,0,6,1.58h0a5,5,0,0,0,2-5.89l-2-5.7L352,81.95A5.14,5.14,0,0,0,350.58,88.07Zm4.14-3.52a1.49,1.49,0,1,1-1.82,1.05A1.44,1.44,0,0,1,354.72,84.55Z"/>
    <path id="_Trazado_compuesto_50" data-name="&lt;Trazado compuesto&gt;" class="cls-1"
          d="M359.6,78.9l2.46,5.55,4.28-4.25a5,5,0,0,0,.79-6.18h0a4.35,4.35,0,0,0-6.05-1.23h0A5.14,5.14,0,0,0,359.6,78.9ZM362.06,76a1.49,1.49,0,1,1,1.17,1.75A1.44,1.44,0,0,1,362.06,76Z"/>
    <path id="_Trazado_compuesto_51" data-name="&lt;Trazado compuesto&gt;" class="cls-1"
          d="M367.7,85.94h0a4.35,4.35,0,0,0,6.14.63h0a5,5,0,0,0,1.09-6.13l-2.82-5.33-4,4.56A5.14,5.14,0,0,0,367.7,85.94Zm3.54-4.12a1.49,1.49,0,1,1-1.63,1.32A1.44,1.44,0,0,1,371.24,81.82Z"/>
    <path id="_Trazado_compuesto_52" data-name="&lt;Trazado compuesto&gt;" class="cls-1"
          d="M374.49,76.35l3.81,4.73,3-5.21a5,5,0,0,0-.83-6.17h0a4.35,4.35,0,0,0-6.16.37h0A5.14,5.14,0,0,0,374.49,76.35Zm1.64-3.4a1.49,1.49,0,1,1,1.58,1.39A1.44,1.44,0,0,1,376.14,73Z"/>
    <path id="_Trazado_compuesto_53" data-name="&lt;Trazado compuesto&gt;" class="cls-1"
          d="M381.55,84.25h0a4.35,4.35,0,0,0,6.17.14h0a5,5,0,0,0,.59-6.2l-3.23-5.08L381.46,78A5.14,5.14,0,0,0,381.55,84.25Zm3.2-4.39a1.49,1.49,0,1,1-1.52,1.45A1.44,1.44,0,0,1,384.75,79.85Z"/>
    <path id="_Trazado_compuesto_54" data-name="&lt;Trazado compuesto&gt;" class="cls-1"
          d="M387.89,74.24,392.64,78l1.82-5.74a5,5,0,0,0-2.16-5.84h0a4.35,4.35,0,0,0-5.93,1.71h0A5.14,5.14,0,0,0,387.89,74.24Zm.86-3.68a1.49,1.49,0,1,1,1.84,1A1.44,1.44,0,0,1,388.75,70.56Z"/>
    <path id="_Trazado_compuesto_55" data-name="&lt;Trazado compuesto&gt;" class="cls-1"
          d="M400.23,75h0a4.35,4.35,0,0,0,5-3.56h0a5,5,0,0,0-3.21-5.34l-5.62-2.17,0,6.07A5.14,5.14,0,0,0,400.23,75Zm0-5.43a1.49,1.49,0,1,1-.36,2.07A1.44,1.44,0,0,1,400.2,69.52Z"/>
    <path id="_Trazado_compuesto_56" data-name="&lt;Trazado compuesto&gt;" class="cls-1"
          d="M401.38,64.31l5.78,1.86-.32-6a5,5,0,0,0-4.08-4.7h0a4.35,4.35,0,0,0-4.95,3.69h0A5.14,5.14,0,0,0,401.38,64.31Zm-.49-3.74a1.49,1.49,0,1,1,2.08.3A1.44,1.44,0,0,1,400.89,60.57Z"/>
    <path id="_Trazado_compuesto_57" data-name="&lt;Trazado compuesto&gt;" class="cls-1"
          d="M411.62,67h0a4.35,4.35,0,0,0,5.24-3.27h0a5,5,0,0,0-2.9-5.51l-5.49-2.48-.36,6.06A5.14,5.14,0,0,0,411.62,67Zm.27-5.43a1.49,1.49,0,1,1-.48,2A1.44,1.44,0,0,1,411.88,61.62Z"/>
    <path id="_Trazado_compuesto_58" data-name="&lt;Trazado compuesto&gt;" class="cls-1"
          d="M414.91,57.67l5.78,1.86-.32-6a5,5,0,0,0-4.08-4.7h0a4.35,4.35,0,0,0-4.95,3.69h0A5.14,5.14,0,0,0,414.91,57.67Zm-.49-3.74a1.49,1.49,0,1,1,2.08.3A1.44,1.44,0,0,1,414.42,53.93Z"/>
    <path id="_Trazado_compuesto_59" data-name="&lt;Trazado compuesto&gt;" class="cls-1"
          d="M425.14,60.4h0a4.35,4.35,0,0,0,5.24-3.27h0a5,5,0,0,0-2.9-5.51L422,49.14l-.36,6.06A5.14,5.14,0,0,0,425.14,60.4Zm.27-5.43a1.49,1.49,0,1,1-.48,2A1.44,1.44,0,0,1,425.41,55Z"/>
</svg>