<svg id="Capa_1" data-name="Capa 1" xmlns="http://www.w3.org/2000/svg" viewBox="0 0 547.54 141.73"><defs><style>.cls-1,.cls-5{fill:#122b40;}.cls-2,.cls-3,.cls-4{fill:#74acdf;}.cls-3{stroke:#74acdf;}.cls-3,.cls-4,.cls-5{stroke-miterlimit:10;}.cls-4,.cls-5{stroke:#fff;stroke-width:2px;}</style></defs><title>autoqe_txt_1</title><path id="_Trazado_" data-name="&lt;Trazado&gt;" class="cls-1" d="M262.82,82.7a21.49,21.49,0,0,1-7.68-4.8,19.24,19.24,0,0,1-4.92-7.56,27.7,27.7,0,0,1-1.68-9.84V29.07a2.46,2.46,0,0,1,2.4-2.4h6.12a2.46,2.46,0,0,1,2.4,2.4V60.39a15.49,15.49,0,0,0,1.44,7.08,16,16,0,0,0,3.36,4.44,12.06,12.06,0,0,0,4.44,2.28,19.5,19.5,0,0,0,2.28.48,11,11,0,0,0,1.92.12,21.86,21.86,0,0,0,4.2-.6,9.84,9.84,0,0,0,4.44-2.28A12,12,0,0,0,285,67.47a15.49,15.49,0,0,0,1.44-7.08V29.07a2.46,2.46,0,0,1,2.4-2.4h6a2.18,2.18,0,0,1,1.68.72,2.37,2.37,0,0,1,.72,1.68V60.51a24.29,24.29,0,0,1-.48,5.16,19.21,19.21,0,0,1-1.32,4.68,21.14,21.14,0,0,1-4.92,7.56,22.6,22.6,0,0,1-7.68,4.8,29.58,29.58,0,0,1-10.08,1.68A28.88,28.88,0,0,1,262.82,82.7Z"/><path id="_Trazado_2" data-name="&lt;Trazado&gt;" class="cls-1" d="M344.89,36.15h-11.4a2,2,0,0,0-1.68.72,3,3,0,0,0-.72,1.68V80.91a2.46,2.46,0,0,1-2.4,2.4h-6a2.18,2.18,0,0,1-1.68-.72,3,3,0,0,1-.72-1.68V38.67a2.18,2.18,0,0,0-.72-1.68,3,3,0,0,0-1.68-.72H306.37a2.46,2.46,0,0,1-2.4-2.4v-4.8a2.46,2.46,0,0,1,2.4-2.4h38.52a2.46,2.46,0,0,1,2.4,2.4v4.8a2.37,2.37,0,0,1-.72,1.68A2,2,0,0,1,344.89,36.15Z"/><path id="_Trazado_compuesto_" data-name="&lt;Trazado compuesto&gt;" class="cls-1" d="M380,84.5a29.72,29.72,0,0,1-11.4-2.28,27.58,27.58,0,0,1-9.36-6.36,30.05,30.05,0,0,1-6.36-9.36A28.61,28.61,0,0,1,350.65,55a30.8,30.8,0,0,1,2.28-11.52,28.14,28.14,0,0,1,6.36-9.36,30.05,30.05,0,0,1,9.36-6.36,29.94,29.94,0,0,1,22.92,0,28.14,28.14,0,0,1,9.36,6.36,30.05,30.05,0,0,1,6.36,9.36A28.61,28.61,0,0,1,409.56,55a28.61,28.61,0,0,1-2.28,11.52,28.14,28.14,0,0,1-6.36,9.36,30.05,30.05,0,0,1-9.36,6.36A30.8,30.8,0,0,1,380,84.5Zm0-48.83a16.19,16.19,0,0,0-7.2,1.56,20.94,20.94,0,0,0-5.88,4.2,20.63,20.63,0,0,0-4,6.12,19,19,0,0,0-1.44,7.32A20,20,0,0,0,363,62.31a19.21,19.21,0,0,0,4,6.12,17.05,17.05,0,0,0,5.88,4.2,16.56,16.56,0,0,0,7.2,1.56,16.19,16.19,0,0,0,7.2-1.56,20.94,20.94,0,0,0,5.88-4.2,20.63,20.63,0,0,0,4-6.12,19.12,19.12,0,0,0,1.44-7.44,19.4,19.4,0,0,0-1.44-7.32,19.21,19.21,0,0,0-4-6.12,18.79,18.79,0,0,0-5.88-4.2A15.84,15.84,0,0,0,380,35.67Z"/><path id="_Trazado_3" data-name="&lt;Trazado&gt;" class="cls-2" d="M494.15,38.67V48a2.46,2.46,0,0,0,2.4,2.4h22.68a2.46,2.46,0,0,1,2.4,2.4v5a2.46,2.46,0,0,1-2.4,2.4H496.55a2.46,2.46,0,0,0-2.4,2.4v8.52a2.46,2.46,0,0,0,2.4,2.4h26.16a2.46,2.46,0,0,1,2.4,2.4v4.92a2.46,2.46,0,0,1-2.4,2.4h-37a2.46,2.46,0,0,1-2.4-2.4V29a2.46,2.46,0,0,1,2.4-2.4h37a2.46,2.46,0,0,1,2.4,2.4v4.8a2.46,2.46,0,0,1-2.4,2.4H496.55a2.37,2.37,0,0,0-1.68.72A2.44,2.44,0,0,0,494.15,38.67Z"/><path class="cls-1" d="M213.24,115.77a5.93,5.93,0,0,1-2.11-1.32,5.59,5.59,0,0,1-1.37-2.07,7.37,7.37,0,0,1-.47-2.71V101a.64.64,0,0,1,.19-.47.61.61,0,0,1,.45-.19h1.69a.65.65,0,0,1,.66.66v8.62a4.33,4.33,0,0,0,.38,1.94,3.89,3.89,0,0,0,.94,1.22,3.19,3.19,0,0,0,1.22.62q.34.08.63.13a3.74,3.74,0,0,0,.54,0,4.88,4.88,0,0,0,1.15-.17,2.84,2.84,0,0,0,1.22-.62,3.48,3.48,0,0,0,1-1.22,4.33,4.33,0,0,0,.38-1.94V101a.66.66,0,0,1,.66-.66H222a.65.65,0,0,1,.66.66v8.64a8.25,8.25,0,0,1-.12,1.42,7.06,7.06,0,0,1-.35,1.29,6,6,0,0,1-1.34,2.07,6.2,6.2,0,0,1-2.11,1.32,7.65,7.65,0,0,1-2.77.47A7.47,7.47,0,0,1,213.24,115.77Z"/><path class="cls-1" d="M248.64,103h-3.14a.66.66,0,0,0-.66.66V115.3a.66.66,0,0,1-.66.66h-1.66a.66.66,0,0,1-.66-.66V103.66a.66.66,0,0,0-.66-.66H238a.65.65,0,0,1-.66-.66V101a.66.66,0,0,1,.66-.66h10.6a.66.66,0,0,1,.66.66v1.32a.65.65,0,0,1-.66.66Z"/><path class="cls-1" d="M271.17,116.26a7.79,7.79,0,0,1-3.14-.64,8.18,8.18,0,0,1-4.31-4.31,8.08,8.08,0,0,1,0-6.3,8.15,8.15,0,0,1,4.31-4.32,8.06,8.06,0,0,1,6.29,0,8.15,8.15,0,0,1,4.31,4.32,8.08,8.08,0,0,1,0,6.3,8.18,8.18,0,0,1-4.31,4.31A7.84,7.84,0,0,1,271.17,116.26Zm0-13.42a4.61,4.61,0,0,0-2,.44,5.41,5.41,0,0,0-1.62,1.16,5.5,5.5,0,0,0-1.1,1.7,5.26,5.26,0,0,0,0,4,5.68,5.68,0,0,0,1.1,1.7,5.31,5.31,0,0,0,1.62,1.17,4.74,4.74,0,0,0,4,0,5.31,5.31,0,0,0,1.62-1.17,5.66,5.66,0,0,0,1.1-1.7,5.25,5.25,0,0,0,0-4,5.48,5.48,0,0,0-1.1-1.7,5.41,5.41,0,0,0-1.62-1.16A4.61,4.61,0,0,0,271.18,102.84Z"/><path class="cls-2" d="M355,114v1.32a.66.66,0,0,1-.66.66h-9.92a.66.66,0,0,1-.66-.66V101a.66.66,0,0,1,.66-.66h1.66a.66.66,0,0,1,.66.66v11.65a.66.66,0,0,0,.66.66h6.93a.65.65,0,0,1,.66.66Z"/><path class="cls-3" d="M401.48,103h-3.13a.66.66,0,0,0-.66.66V115.3a.66.66,0,0,1-.66.66h-1.66a.64.64,0,0,1-.47-.19.63.63,0,0,1-.19-.47V103.66A.66.66,0,0,0,394,103h-3.16a.65.65,0,0,1-.66-.66V101a.66.66,0,0,1,.66-.66h10.6a.66.66,0,0,1,.66.66v1.32a.65.65,0,0,1-.66.66Z"/><path class="cls-3" d="M429,116.26a7.79,7.79,0,0,1-3.14-.64,8.18,8.18,0,0,1-4.31-4.31,8.08,8.08,0,0,1,0-6.3,8.15,8.15,0,0,1,4.31-4.32,8.06,8.06,0,0,1,6.29,0,8.15,8.15,0,0,1,4.31,4.32,8.08,8.08,0,0,1,0,6.3,8.18,8.18,0,0,1-4.31,4.31A7.84,7.84,0,0,1,429,116.26Zm0-13.42a4.61,4.61,0,0,0-2,.44,5.41,5.41,0,0,0-1.62,1.16,5.49,5.49,0,0,0-1.1,1.7,5.25,5.25,0,0,0,0,4,5.67,5.67,0,0,0,1.1,1.7,5.31,5.31,0,0,0,1.62,1.17,4.74,4.74,0,0,0,4,0,5.32,5.32,0,0,0,1.62-1.17,5.67,5.67,0,0,0,1.1-1.7,5.25,5.25,0,0,0,0-4,5.49,5.49,0,0,0-1.1-1.7,5.42,5.42,0,0,0-1.62-1.16A4.61,4.61,0,0,0,429,102.84Z"/><path class="cls-3" d="M490.06,115.77a5.93,5.93,0,0,1-2.11-1.32,5.59,5.59,0,0,1-1.36-2.07,7.35,7.35,0,0,1-.47-2.71V101a.64.64,0,0,1,.19-.47.61.61,0,0,1,.45-.19h1.69a.66.66,0,0,1,.66.66v8.62a4.33,4.33,0,0,0,.38,1.94,3.89,3.89,0,0,0,.94,1.22,3.18,3.18,0,0,0,1.22.62q.34.08.63.13a3.74,3.74,0,0,0,.54,0,4.87,4.87,0,0,0,1.15-.17,2.83,2.83,0,0,0,1.22-.62,3.48,3.48,0,0,0,1-1.22,4.33,4.33,0,0,0,.38-1.94V101a.66.66,0,0,1,.66-.66h1.66a.66.66,0,0,1,.66.66v8.64a8.26,8.26,0,0,1-.12,1.42,7.06,7.06,0,0,1-.35,1.29,6,6,0,0,1-1.34,2.07,6.19,6.19,0,0,1-2.11,1.32,7.64,7.64,0,0,1-2.77.47A7.47,7.47,0,0,1,490.06,115.77Z"/><path class="cls-3" d="M515.77,103.66v2.58a.66.66,0,0,0,.66.66h6.23a.65.65,0,0,1,.66.66v1.39a.66.66,0,0,1-.66.66h-6.23a.65.65,0,0,0-.66.66v2.35a.65.65,0,0,0,.66.66h7.19a.66.66,0,0,1,.66.66v1.37a.66.66,0,0,1-.66.66H513.44a.66.66,0,0,1-.66-.66V101a.66.66,0,0,1,.66-.66h10.17a.66.66,0,0,1,.66.66v1.32a.65.65,0,0,1-.66.66h-7.19a.66.66,0,0,0-.66.66Z"/><path class="cls-1" d="M235.88,65.27c5.23-24.61-11.76-40-28.32-40a29.91,29.91,0,0,0-22,9.65c.25-.26.5-.52.77-.78a30.05,30.05,0,0,1,9.36-6.36,29.94,29.94,0,0,1,22.92,0,28.14,28.14,0,0,1,9.36,6.36,30.05,30.05,0,0,1,6.36,9.36A28.61,28.61,0,0,1,236.56,55a28.61,28.61,0,0,1-2.28,11.52,28.14,28.14,0,0,1-6.36,9.36,30.05,30.05,0,0,1-9.36,6.36A30.8,30.8,0,0,1,207,84.5a29.72,29.72,0,0,1-11.4-2.28,27.59,27.59,0,0,1-9.36-6.36,30.05,30.05,0,0,1-6.36-9.36A28.61,28.61,0,0,1,177.65,55a30.49,30.49,0,0,1,1.82-10.28,30,30,0,0,0,28.09,40.52C265.87,85.18,232.17,82.74,235.88,65.27Z"/><path class="cls-1" d="M179.93,66.51a30.05,30.05,0,0,0,6.36,9.36,27.59,27.59,0,0,0,9.36,6.36A29.72,29.72,0,0,0,207,84.5a30.8,30.8,0,0,0,11.52-2.28,30.05,30.05,0,0,0,9.36-6.36,28.14,28.14,0,0,0,6.36-9.36A28.61,28.61,0,0,0,236.56,55a28.61,28.61,0,0,0-2.28-11.52,30.05,30.05,0,0,0-6.36-9.36,28.14,28.14,0,0,0-9.36-6.36,29.94,29.94,0,0,0-22.92,0,30.05,30.05,0,0,0-9.36,6.36c-.27.25-.52.52-.77.78a30,30,0,0,0-6.05,9.82A30.49,30.49,0,0,0,177.65,55,28.61,28.61,0,0,0,179.93,66.51Zm10.08-19a20.63,20.63,0,0,1,4-6.12,20.94,20.94,0,0,1,5.88-4.2,16.19,16.19,0,0,1,7.2-1.56,15.84,15.84,0,0,1,7.2,1.56,18.8,18.8,0,0,1,5.88,4.2,19.59,19.59,0,0,1,4,20.88,20.63,20.63,0,0,1-4,6.12,21,21,0,0,1-5.88,4.2,16.19,16.19,0,0,1-7.2,1.56,16.56,16.56,0,0,1-7.2-1.56,17.05,17.05,0,0,1-5.88-4.2,19.21,19.21,0,0,1-4-6.12,20,20,0,0,1-1.44-7.44A19,19,0,0,1,190,47.55Z"/><path class="cls-1" d="M193.82,111.4c1.46-6.86-3.28-11.16-7.9-11.16a8.34,8.34,0,0,0-6.15,2.69l.21-.22a8.38,8.38,0,0,1,2.61-1.77,8.35,8.35,0,0,1,6.39,0,7.85,7.85,0,0,1,2.61,1.77,8.38,8.38,0,0,1,1.77,2.61,8.43,8.43,0,0,1,0,6.42,7.85,7.85,0,0,1-1.77,2.61,8.38,8.38,0,0,1-2.61,1.77,8.59,8.59,0,0,1-3.21.64,8.29,8.29,0,0,1-3.18-.64,7.69,7.69,0,0,1-2.61-1.77,8.38,8.38,0,0,1-1.77-2.61,8,8,0,0,1-.64-3.21,8.5,8.5,0,0,1,.51-2.87,8.37,8.37,0,0,0,7.83,11.3C202.18,116.95,192.79,116.27,193.82,111.4Z"/><path class="cls-1" d="M178.22,111.74a8.38,8.38,0,0,0,1.77,2.61,7.69,7.69,0,0,0,2.61,1.77,8.29,8.29,0,0,0,3.18.64,8.59,8.59,0,0,0,3.21-.64,8.38,8.38,0,0,0,2.61-1.77,7.85,7.85,0,0,0,1.77-2.61,8.43,8.43,0,0,0,0-6.42,8.38,8.38,0,0,0-1.77-2.61,7.85,7.85,0,0,0-2.61-1.77,8.35,8.35,0,0,0-6.39,0,8.38,8.38,0,0,0-2.61,1.77l-.21.22a8.36,8.36,0,0,0-1.69,2.74,8.5,8.5,0,0,0-.51,2.87A8,8,0,0,0,178.22,111.74Zm2.81-5.29a5.75,5.75,0,0,1,1.1-1.71,5.84,5.84,0,0,1,1.64-1.17,4.52,4.52,0,0,1,2-.43,4.42,4.42,0,0,1,2,.43,5.24,5.24,0,0,1,1.64,1.17,5.46,5.46,0,0,1,1.1,5.82,5.75,5.75,0,0,1-1.1,1.71,5.84,5.84,0,0,1-1.64,1.17,4.51,4.51,0,0,1-2,.43,4.62,4.62,0,0,1-2-.43,4.75,4.75,0,0,1-1.64-1.17,5.35,5.35,0,0,1-1.1-1.71,5.58,5.58,0,0,1-.4-2.07A5.29,5.29,0,0,1,181,106.46Z"/><path class="cls-2" d="M323.82,111.4c1.46-6.86-3.28-11.16-7.9-11.16a8.34,8.34,0,0,0-6.15,2.69l.21-.22a8.38,8.38,0,0,1,2.61-1.77,8.35,8.35,0,0,1,6.39,0,7.85,7.85,0,0,1,2.61,1.77,8.38,8.38,0,0,1,1.77,2.61,8.43,8.43,0,0,1,0,6.42,7.85,7.85,0,0,1-1.77,2.61,8.38,8.38,0,0,1-2.61,1.77,8.59,8.59,0,0,1-3.21.64,8.29,8.29,0,0,1-3.18-.64,7.69,7.69,0,0,1-2.61-1.77,8.38,8.38,0,0,1-1.77-2.61,8,8,0,0,1-.64-3.21,8.5,8.5,0,0,1,.51-2.87,8.37,8.37,0,0,0,7.83,11.3C332.18,116.95,322.79,116.27,323.82,111.4Z"/><path class="cls-2" d="M308.22,111.74a8.38,8.38,0,0,0,1.77,2.61,7.69,7.69,0,0,0,2.61,1.77,8.29,8.29,0,0,0,3.18.64,8.59,8.59,0,0,0,3.21-.64,8.38,8.38,0,0,0,2.61-1.77,7.85,7.85,0,0,0,1.77-2.61,8.43,8.43,0,0,0,0-6.42,8.38,8.38,0,0,0-1.77-2.61,7.85,7.85,0,0,0-2.61-1.77,8.35,8.35,0,0,0-6.39,0,8.38,8.38,0,0,0-2.61,1.77l-.21.22a8.36,8.36,0,0,0-1.69,2.74,8.5,8.5,0,0,0-.51,2.87A8,8,0,0,0,308.22,111.74Zm2.81-5.29a5.75,5.75,0,0,1,1.1-1.71,5.84,5.84,0,0,1,1.64-1.17,4.52,4.52,0,0,1,2-.43,4.42,4.42,0,0,1,2,.43,5.24,5.24,0,0,1,1.64,1.17,5.46,5.46,0,0,1,1.1,5.82,5.75,5.75,0,0,1-1.1,1.71,5.84,5.84,0,0,1-1.64,1.17,4.51,4.51,0,0,1-2,.43,4.62,4.62,0,0,1-2-.43,4.75,4.75,0,0,1-1.64-1.17,5.35,5.35,0,0,1-1.1-1.71,5.58,5.58,0,0,1-.4-2.07A5.29,5.29,0,0,1,311,106.46Z"/><path class="cls-2" d="M456.94,82.21c-24.61,5.23-40-11.76-40-28.32a29.91,29.91,0,0,1,9.65-22c-.26.25-.52.5-.78.77A30.05,30.05,0,0,0,419.42,42a28.45,28.45,0,0,0-2.28,11.4,28.61,28.61,0,0,0,2.28,11.52,28.14,28.14,0,0,0,6.36,9.36,30.05,30.05,0,0,0,9.36,6.36,30.24,30.24,0,0,0,23,0,28.14,28.14,0,0,0,9.36-6.36,30.05,30.05,0,0,0,6.36-9.36,30.8,30.8,0,0,0,2.28-11.52A29.72,29.72,0,0,0,473.9,42a27.59,27.59,0,0,0-6.36-9.36,30.05,30.05,0,0,0-9.36-6.36A28.61,28.61,0,0,0,446.66,24a30.49,30.49,0,0,0-10.28,1.82A30,30,0,0,1,476.9,53.89C476.85,112.2,474.41,78.5,456.94,82.21Z"/><path class="cls-2" d="M446.66,24a30.49,30.49,0,0,0-10.28,1.82,30,30,0,0,0-9.82,6.05c-.26.25-.52.5-.78.77A30.05,30.05,0,0,0,419.42,42a28.45,28.45,0,0,0-2.28,11.4,28.61,28.61,0,0,0,2.28,11.52,28.14,28.14,0,0,0,6.36,9.36,30.05,30.05,0,0,0,9.36,6.36,30.24,30.24,0,0,0,23,0,28.14,28.14,0,0,0,9.36-6.36,30.05,30.05,0,0,0,6.36-9.36,30.8,30.8,0,0,0,2.28-11.52A29.72,29.72,0,0,0,473.9,42a27.59,27.59,0,0,0-6.36-9.36,30.05,30.05,0,0,0-9.36-6.36A28.61,28.61,0,0,0,446.66,24Zm-.12,10.92A20,20,0,0,1,454,36.34a19.21,19.21,0,0,1,6.12,4,17.05,17.05,0,0,1,4.2,5.88,16.56,16.56,0,0,1,1.56,7.2,16.19,16.19,0,0,1-1.56,7.2,21,21,0,0,1-4.2,5.88,20.63,20.63,0,0,1-6.12,4,19.12,19.12,0,0,1-7.44,1.44,19.52,19.52,0,0,1-13.44-5.4,18.8,18.8,0,0,1-4.2-5.88,15.84,15.84,0,0,1-1.56-7.2,16.19,16.19,0,0,1,1.56-7.2,20.94,20.94,0,0,1,4.2-5.88,20.63,20.63,0,0,1,6.12-4A19,19,0,0,1,446.54,34.9Z"/><path class="cls-2" d="M464.62,115.17c-6.59,1.4-10.72-3.15-10.72-7.59a8,8,0,0,1,2.59-5.9l-.21.21a8,8,0,0,0-1.7,2.51,8,8,0,0,0,0,6.14,7.54,7.54,0,0,0,1.7,2.51,8,8,0,0,0,2.51,1.7,8.1,8.1,0,0,0,6.17,0,7.54,7.54,0,0,0,2.51-1.7,8,8,0,0,0,1.7-2.51,8.25,8.25,0,0,0,.61-3.09,8,8,0,0,0-.61-3.05,7.39,7.39,0,0,0-1.7-2.51,8.05,8.05,0,0,0-2.51-1.7,7.66,7.66,0,0,0-3.09-.61,8.17,8.17,0,0,0-2.75.49A8,8,0,0,1,470,107.58C469.95,123.2,469.3,114.18,464.62,115.17Z"/><path class="cls-2" d="M461.86,99.57a8.17,8.17,0,0,0-2.75.49,8,8,0,0,0-2.63,1.62l-.21.21a8,8,0,0,0-1.7,2.51,8,8,0,0,0,0,6.14,7.54,7.54,0,0,0,1.7,2.51,8,8,0,0,0,2.51,1.7,8.1,8.1,0,0,0,6.17,0,7.54,7.54,0,0,0,2.51-1.7,8,8,0,0,0,1.7-2.51,8.25,8.25,0,0,0,.61-3.09,8,8,0,0,0-.61-3.05,7.39,7.39,0,0,0-1.7-2.51,8.05,8.05,0,0,0-2.51-1.7A7.66,7.66,0,0,0,461.86,99.57Zm0,2.92a5.36,5.36,0,0,1,2,.39,5.14,5.14,0,0,1,1.64,1.06,4.57,4.57,0,0,1,1.12,1.57,4.44,4.44,0,0,1,.42,1.93,4.34,4.34,0,0,1-.42,1.93,5.61,5.61,0,0,1-1.12,1.57,5.53,5.53,0,0,1-1.64,1.06,5.12,5.12,0,0,1-2,.39,5.23,5.23,0,0,1-3.6-1.45,5,5,0,0,1-1.12-1.57,4.24,4.24,0,0,1-.42-1.93,4.34,4.34,0,0,1,.42-1.93,5.61,5.61,0,0,1,1.12-1.57,5.53,5.53,0,0,1,1.64-1.06A5.08,5.08,0,0,1,461.83,102.5Z"/><path class="cls-1" d="M87.8,30.08c-71.21.06-30.06,3-34.59,24.37-6.39,30.05,14.36,48.9,34.59,48.9a36.64,36.64,0,0,0,0-73.27ZM69.27,63a5.83,5.83,0,1,1,5.83-5.83A5.83,5.83,0,0,1,69.27,63ZM88,63a5.83,5.83,0,1,1,5.83-5.83A5.83,5.83,0,0,1,88,63Zm18.7,0a5.83,5.83,0,1,1,5.83-5.83A5.83,5.83,0,0,1,106.68,63Z"/><path class="cls-4" d="M152.59,86c-29.82-33.05-24.74-4.06-60.19-4.06S49.09,63.87,26,91.75c-14,16.89,31,12.69,66.45,12.69S172.56,108.13,152.59,86Z"/><circle class="cls-5" cx="54.85" cy="102.87" r="14.09"/><circle class="cls-5" cx="123.52" cy="102.87" r="14.09"/></svg>