<svg id="Capa_1" data-name="Capa 1" xmlns="http://www.w3.org/2000/svg" viewBox="0 0 544.18 141.73"><defs><style>.cls-1,.cls-3{fill:#74acdf;}.cls-1,.cls-5{stroke:#74acdf;}.cls-1,.cls-4,.cls-5{stroke-miterlimit:10;}.cls-2,.cls-4{fill:#fff;}.cls-4{stroke:#fff;}.cls-5{fill:none;}</style></defs><title>autoqe_side_w_1</title><path class="cls-1" d="M468.85,152.46a25.39,25.39,0,0,0-6.18-9.51,24.19,24.19,0,0,0-9-5.59,34.93,34.93,0,0,0-11.18-1.78,27.62,27.62,0,0,0-11.18,2.26,30.33,30.33,0,0,0-9.15,6.18,31.31,31.31,0,0,0-6.18,9,29.77,29.77,0,0,0-2.26,11.17A28,28,0,0,0,416,175.41a28.39,28.39,0,0,0,6.18,9,30.32,30.32,0,0,0,9.15,6.18,26.84,26.84,0,0,0,11.18,2.26,29.38,29.38,0,0,0,5.23-.59,27.55,27.55,0,0,0,5.23-1.9,23.14,23.14,0,0,0,4.64-3.33,15.52,15.52,0,0,0,1.31-1.43,20.2,20.2,0,0,0,1.19-1.66c.83-1.19,1.19-1.07,1.19.36v8.37a2.44,2.44,0,0,0,2.38,2.38h5.11a2.44,2.44,0,0,0,2.38-2.38V166.14A39.67,39.67,0,0,0,468.85,152.46Zm-9.63,18.78a15.69,15.69,0,0,1-4,5.59,16.57,16.57,0,0,1-5.71,3.8,17.21,17.21,0,0,1-7,1.43,18.2,18.2,0,0,1-7.13-1.43,16,16,0,0,1-5.71-3.8,19.84,19.84,0,0,1-3.92-5.59,17.21,17.21,0,0,1-1.43-7,16.26,16.26,0,0,1,1.43-6.9,19.49,19.49,0,0,1,3.92-5.71,16.57,16.57,0,0,1,5.71-3.8,19.08,19.08,0,0,1,7.13-1.43,17.62,17.62,0,0,1,7,1.43,17.15,17.15,0,0,1,5.71,3.8,18.32,18.32,0,0,1,4,5.71,16.65,16.65,0,0,1,1.43,6.9A17.21,17.21,0,0,1,459.22,171.25Z"/><path id="_Trazado_" data-name="&lt;Trazado&gt;" class="cls-2" d="M259.45,192.7a21.49,21.49,0,0,1-7.68-4.8,19.24,19.24,0,0,1-4.92-7.56,27.7,27.7,0,0,1-1.68-9.84V139.07a2.46,2.46,0,0,1,2.4-2.4h6.12a2.46,2.46,0,0,1,2.4,2.4v31.32a15.49,15.49,0,0,0,1.44,7.08,16,16,0,0,0,3.36,4.44,12.06,12.06,0,0,0,4.44,2.28,19.5,19.5,0,0,0,2.28.48,11,11,0,0,0,1.92.12,21.86,21.86,0,0,0,4.2-.6,9.84,9.84,0,0,0,4.44-2.28,12,12,0,0,0,3.48-4.44,15.49,15.49,0,0,0,1.44-7.08V139.07a2.46,2.46,0,0,1,2.4-2.4h6a2.18,2.18,0,0,1,1.68.72,2.37,2.37,0,0,1,.72,1.68v31.44a24.29,24.29,0,0,1-.48,5.16,19.21,19.21,0,0,1-1.32,4.68,21.14,21.14,0,0,1-4.92,7.56,22.6,22.6,0,0,1-7.68,4.8,29.58,29.58,0,0,1-10.08,1.68A28.88,28.88,0,0,1,259.45,192.7Z"/><path id="_Trazado_2" data-name="&lt;Trazado&gt;" class="cls-2" d="M341.52,146.15h-11.4a2,2,0,0,0-1.68.72,3,3,0,0,0-.72,1.68v42.36a2.46,2.46,0,0,1-2.4,2.4h-6a2.18,2.18,0,0,1-1.68-.72,3,3,0,0,1-.72-1.68V148.67a2.18,2.18,0,0,0-.72-1.68,3,3,0,0,0-1.68-.72H303a2.46,2.46,0,0,1-2.4-2.4v-4.8a2.46,2.46,0,0,1,2.4-2.4h38.52a2.46,2.46,0,0,1,2.4,2.4v4.8a2.37,2.37,0,0,1-.72,1.68A2,2,0,0,1,341.52,146.15Z"/><path id="_Trazado_compuesto_" data-name="&lt;Trazado compuesto&gt;" class="cls-2" d="M376.68,194.5a29.72,29.72,0,0,1-11.4-2.28,27.58,27.58,0,0,1-9.36-6.36,30.05,30.05,0,0,1-6.36-9.36A28.61,28.61,0,0,1,347.28,165a30.8,30.8,0,0,1,2.28-11.52,28.14,28.14,0,0,1,6.36-9.36,30.05,30.05,0,0,1,9.36-6.36,29.94,29.94,0,0,1,22.92,0,28.14,28.14,0,0,1,9.36,6.36,30.05,30.05,0,0,1,6.36,9.36,30.24,30.24,0,0,1,0,23,28.14,28.14,0,0,1-6.36,9.36,30.05,30.05,0,0,1-9.36,6.36A30.8,30.8,0,0,1,376.68,194.5Zm0-48.83a16.19,16.19,0,0,0-7.2,1.56,20.94,20.94,0,0,0-5.88,4.2,20.63,20.63,0,0,0-4,6.12,19,19,0,0,0-1.44,7.32,20,20,0,0,0,1.44,7.44,19.21,19.21,0,0,0,4,6.12,17.05,17.05,0,0,0,5.88,4.2,16.56,16.56,0,0,0,7.2,1.56,16.19,16.19,0,0,0,7.2-1.56,20.94,20.94,0,0,0,5.88-4.2,20.63,20.63,0,0,0,4-6.12,19.12,19.12,0,0,0,1.44-7.44,19.4,19.4,0,0,0-1.44-7.32,19.21,19.21,0,0,0-4-6.12,18.79,18.79,0,0,0-5.88-4.2A15.84,15.84,0,0,0,376.68,145.67Z"/><path id="_Trazado_3" data-name="&lt;Trazado&gt;" class="cls-3" d="M490.79,148.67V158a2.46,2.46,0,0,0,2.4,2.4h22.68a2.46,2.46,0,0,1,2.4,2.4v5a2.46,2.46,0,0,1-2.4,2.4H493.19a2.46,2.46,0,0,0-2.4,2.4v8.52a2.46,2.46,0,0,0,2.4,2.4h26.16a2.46,2.46,0,0,1,2.4,2.4v4.92a2.46,2.46,0,0,1-2.4,2.4h-37a2.46,2.46,0,0,1-2.4-2.4V139a2.46,2.46,0,0,1,2.4-2.4h37a2.46,2.46,0,0,1,2.4,2.4v4.8a2.46,2.46,0,0,1-2.4,2.4H493.19a2.37,2.37,0,0,0-1.68.72A2.44,2.44,0,0,0,490.79,148.67Z"/><path id="_Trazado_compuesto_2" data-name="&lt;Trazado compuesto&gt;" class="cls-4" d="M238.78,186.67l.09,5a2.4,2.4,0,0,1-2.3,2.38l-31.13.46a39,39,0,0,1-13.49-2,25,25,0,0,1-9.47-5.91,23.81,23.81,0,0,1-5.66-8.79,34.38,34.38,0,0,1-2-11,27.19,27.19,0,0,1,2-11,29.85,29.85,0,0,1,5.92-9.12,30.82,30.82,0,0,1,8.78-6.24,29.3,29.3,0,0,1,11-2.42,27.59,27.59,0,0,1,11,2,28,28,0,0,1,9,5.92,29.85,29.85,0,0,1,6.25,8.9,26.41,26.41,0,0,1,2.42,11,28.92,28.92,0,0,1-.49,5.16,27.11,27.11,0,0,1-1.78,5.18,22.78,22.78,0,0,1-3.19,4.62,15.29,15.29,0,0,1-1.38,1.31,19.85,19.85,0,0,1-1.62,1.2c-1.16.84-1,1.19.37,1.16l13.23-.13a2.4,2.4,0,0,1,2.38,2.3Zm-53.5-20.24a17.54,17.54,0,0,0,1.55,7,17.07,17.07,0,0,0,3.89,5.61,18.24,18.24,0,0,0,5.75,3.92,16.57,16.57,0,0,0,6.89,1.3,17.13,17.13,0,0,0,7-1.55,15.62,15.62,0,0,0,5.49-4.12,16.5,16.5,0,0,0,3.68-5.75,17.13,17.13,0,0,0,1.29-7,18.11,18.11,0,0,0-1.55-7.07,16,16,0,0,0-3.89-5.61,19.75,19.75,0,0,0-5.63-3.8,17.13,17.13,0,0,0-7-1.29,16.19,16.19,0,0,0-6.84,1.54,19.4,19.4,0,0,0-5.61,4,16.5,16.5,0,0,0-3.68,5.75A19,19,0,0,0,185.28,166.43Z"/><path id="_Trazado_compuesto_3" data-name="&lt;Trazado compuesto&gt;" class="cls-4" d="M222.69,192.74a2.17,2.17,0,0,1-.69-1.66v-5.52c0-1.42-.35-1.54-1.15-.35a20.07,20.07,0,0,1-1.15,1.66,15.33,15.33,0,0,1-1.27,1.42,22.49,22.49,0,0,1-4.5,3.31,26.32,26.32,0,0,1-5.08,1.89,27.84,27.84,0,0,1-5.08.59,25.5,25.5,0,0,1-10.85-2.25,29.41,29.41,0,0,1-8.89-6.15,28.31,28.31,0,0,1-8.19-20.12A30.28,30.28,0,0,1,178,154.43a31.21,31.21,0,0,1,6-9,29.41,29.41,0,0,1,8.89-6.15A26.25,26.25,0,0,1,203.76,137a33.14,33.14,0,0,1,10.85,1.78,23.4,23.4,0,0,1,8.77,5.56,25.34,25.34,0,0,1,6,9.47,40.39,40.39,0,0,1,2.19,13.61v23.63a2.37,2.37,0,0,1-.69,1.66,2.25,2.25,0,0,1-1.62.71h-5A2.07,2.07,0,0,1,222.69,192.74Zm-26.63-43.3a16.5,16.5,0,0,0-5.68,3.79,19.4,19.4,0,0,0-3.91,5.68,16.19,16.19,0,0,0-1.42,6.86,17.13,17.13,0,0,0,1.42,7,19.75,19.75,0,0,0,3.91,5.56,16,16,0,0,0,5.68,3.79,18.11,18.11,0,0,0,7.1,1.42,17.13,17.13,0,0,0,7-1.42,16.5,16.5,0,0,0,5.68-3.79,15.62,15.62,0,0,0,4-5.56,17.13,17.13,0,0,0,1.42-7,16.57,16.57,0,0,0-1.42-6.86,18.24,18.24,0,0,0-4-5.68,17.07,17.07,0,0,0-5.68-3.79,17.54,17.54,0,0,0-7-1.42A19,19,0,0,0,196.06,149.44Z"/><path id="_Trazado_compuesto_4" data-name="&lt;Trazado compuesto&gt;" class="cls-1" d="M140.84,228.86a3.36,3.36,0,0,1-1.11-2.59V214.4c0-2.22-.56-2.41-1.85-.56a31.44,31.44,0,0,1-1.85,2.59,24.22,24.22,0,0,1-2,2.22,36.08,36.08,0,0,1-7.23,5.19,42.94,42.94,0,0,1-8.15,3,45.8,45.8,0,0,1-8.15.93A41.83,41.83,0,0,1,93,224.22a47.27,47.27,0,0,1-14.27-9.64,44.26,44.26,0,0,1-9.64-14.08,43.69,43.69,0,0,1-3.52-17.42,46.4,46.4,0,0,1,3.52-17.42,48.81,48.81,0,0,1,9.64-14.08A47.27,47.27,0,0,1,93,141.95a43.06,43.06,0,0,1,17.42-3.52,54.44,54.44,0,0,1,17.42,2.78A37.7,37.7,0,0,1,142,149.92a39.57,39.57,0,0,1,9.64,14.82,61.83,61.83,0,0,1,3.52,21.31v40.22a3.8,3.8,0,0,1-3.71,3.71h-8A3.36,3.36,0,0,1,140.84,228.86ZM99.33,157.51a25.84,25.84,0,0,0-8.89,5.93,30.38,30.38,0,0,0-6.12,8.89,25.35,25.35,0,0,0-2.22,10.75A26.82,26.82,0,0,0,84.32,194a30.93,30.93,0,0,0,6.12,8.71,25,25,0,0,0,8.89,5.93,28.36,28.36,0,0,0,11.12,2.22,26.82,26.82,0,0,0,10.93-2.22,25.84,25.84,0,0,0,8.89-5.93,24.46,24.46,0,0,0,6.3-8.71,26.82,26.82,0,0,0,2.22-10.93,26,26,0,0,0-2.22-10.75,28.56,28.56,0,0,0-6.3-8.89,26.74,26.74,0,0,0-8.89-5.93,27.47,27.47,0,0,0-10.93-2.22A29.74,29.74,0,0,0,99.33,157.51Z"/><path id="_Trazado_compuesto_5" data-name="&lt;Trazado compuesto&gt;" class="cls-4" d="M122.73,214.77l.14,7.88a3.76,3.76,0,0,1-3.6,3.73l-48.74.71A61.14,61.14,0,0,1,49.4,224a39.13,39.13,0,0,1-14.83-9.26A37.28,37.28,0,0,1,25.71,201a53.83,53.83,0,0,1-3.06-17.17,42.58,42.58,0,0,1,3.17-17.28,46.74,46.74,0,0,1,9.27-14.28,48.26,48.26,0,0,1,13.75-9.78A45.88,45.88,0,0,1,66,138.65a43.21,43.21,0,0,1,17.28,3.17,43.76,43.76,0,0,1,14.1,9.27A46.74,46.74,0,0,1,107.16,165,41.36,41.36,0,0,1,111,182.19a45.28,45.28,0,0,1-.77,8.08,42.46,42.46,0,0,1-2.79,8.11,35.67,35.67,0,0,1-5,7.24,24,24,0,0,1-2.16,2.06,31.08,31.08,0,0,1-2.53,1.88c-1.81,1.32-1.62,1.86.58,1.82l20.71-.21a3.76,3.76,0,0,1,3.73,3.6Zm-83.79-31.7A27.47,27.47,0,0,0,41.37,194a26.74,26.74,0,0,0,6.09,8.79,28.56,28.56,0,0,0,9,6.14,26,26,0,0,0,10.79,2,26.82,26.82,0,0,0,10.89-2.42A24.46,24.46,0,0,0,86.74,202a25.84,25.84,0,0,0,5.77-9,26.82,26.82,0,0,0,2-11A28.36,28.36,0,0,0,92.1,171,25,25,0,0,0,86,162.19a30.93,30.93,0,0,0-8.82-6,26.82,26.82,0,0,0-11-2,25.35,25.35,0,0,0-10.71,2.42,30.38,30.38,0,0,0-8.78,6.28,25.84,25.84,0,0,0-5.77,9A29.74,29.74,0,0,0,38.95,183.06Z"/><path id="_Trazado_compuesto_6" data-name="&lt;Trazado compuesto&gt;" class="cls-4" d="M97.53,224.26a3.41,3.41,0,0,1-1.08-2.59V213c0-2.22-.54-2.41-1.81-.56a31.44,31.44,0,0,1-1.81,2.59,24,24,0,0,1-2,2.22,35.22,35.22,0,0,1-7,5.19,41.21,41.21,0,0,1-8,3,43.6,43.6,0,0,1-8,.93,39.93,39.93,0,0,1-17-3.52A46.06,46.06,0,0,1,37,213.2a44.33,44.33,0,0,1-12.83-31.5,47.42,47.42,0,0,1,3.43-17.42A48.87,48.87,0,0,1,37,150.2a46.06,46.06,0,0,1,13.92-9.64,41.1,41.1,0,0,1,17-3.52,51.9,51.9,0,0,1,17,2.78,36.64,36.64,0,0,1,13.73,8.71,39.68,39.68,0,0,1,9.4,14.82,63.25,63.25,0,0,1,3.43,21.31v37a3.7,3.7,0,0,1-1.08,2.59,3.53,3.53,0,0,1-2.53,1.11h-7.77A3.24,3.24,0,0,1,97.53,224.26Zm-41.7-67.8a25.84,25.84,0,0,0-8.89,5.93,30.38,30.38,0,0,0-6.12,8.89A25.35,25.35,0,0,0,38.59,182,26.82,26.82,0,0,0,40.82,193a30.93,30.93,0,0,0,6.12,8.71,25,25,0,0,0,8.89,5.93,28.36,28.36,0,0,0,11.12,2.22,26.82,26.82,0,0,0,10.93-2.22,25.84,25.84,0,0,0,8.89-5.93,24.46,24.46,0,0,0,6.3-8.71A26.82,26.82,0,0,0,95.3,182a26,26,0,0,0-2.22-10.75,28.56,28.56,0,0,0-6.3-8.89,26.74,26.74,0,0,0-8.89-5.93,27.47,27.47,0,0,0-10.93-2.22A29.74,29.74,0,0,0,55.83,156.46Z"/><path id="_Trazado_compuesto_7" data-name="&lt;Trazado compuesto&gt;" class="cls-5" d="M140.84,228.86a3.36,3.36,0,0,1-1.11-2.59V214.4c0-2.22-.56-2.41-1.85-.56a31.44,31.44,0,0,1-1.85,2.59,24.22,24.22,0,0,1-2,2.22,36.08,36.08,0,0,1-7.23,5.19,42.94,42.94,0,0,1-8.15,3,45.8,45.8,0,0,1-8.15.93A41.83,41.83,0,0,1,93,224.22a47.27,47.27,0,0,1-14.27-9.64,44.26,44.26,0,0,1-9.64-14.08,43.69,43.69,0,0,1-3.52-17.42,46.4,46.4,0,0,1,3.52-17.42,48.81,48.81,0,0,1,9.64-14.08A47.27,47.27,0,0,1,93,141.95a43.06,43.06,0,0,1,17.42-3.52,54.44,54.44,0,0,1,17.42,2.78A37.7,37.7,0,0,1,142,149.92a39.57,39.57,0,0,1,9.64,14.82,61.83,61.83,0,0,1,3.52,21.31v40.22a3.8,3.8,0,0,1-3.71,3.71h-8A3.36,3.36,0,0,1,140.84,228.86ZM99.33,157.51a25.84,25.84,0,0,0-8.89,5.93,30.38,30.38,0,0,0-6.12,8.89,25.35,25.35,0,0,0-2.22,10.75A26.82,26.82,0,0,0,84.32,194a30.93,30.93,0,0,0,6.12,8.71,25,25,0,0,0,8.89,5.93,28.36,28.36,0,0,0,11.12,2.22,26.82,26.82,0,0,0,10.93-2.22,25.84,25.84,0,0,0,8.89-5.93,24.46,24.46,0,0,0,6.3-8.71,26.82,26.82,0,0,0,2.22-10.93,26,26,0,0,0-2.22-10.75,28.56,28.56,0,0,0-6.3-8.89,26.74,26.74,0,0,0-8.89-5.93,27.47,27.47,0,0,0-10.93-2.22A29.74,29.74,0,0,0,99.33,157.51Z"/><path class="cls-1" d="M468.85,42.46A25.39,25.39,0,0,0,462.67,33a24.19,24.19,0,0,0-9-5.59,34.93,34.93,0,0,0-11.18-1.78,27.62,27.62,0,0,0-11.18,2.26A30.33,30.33,0,0,0,422.13,34a31.31,31.31,0,0,0-6.18,9,29.77,29.77,0,0,0-2.26,11.17A28,28,0,0,0,416,65.41a28.39,28.39,0,0,0,6.18,9,30.32,30.32,0,0,0,9.15,6.18,26.84,26.84,0,0,0,11.18,2.26,29.38,29.38,0,0,0,5.23-.59,27.55,27.55,0,0,0,5.23-1.9,23.14,23.14,0,0,0,4.64-3.33,15.52,15.52,0,0,0,1.31-1.43A20.2,20.2,0,0,0,460.06,74c.83-1.19,1.19-1.07,1.19.36V82.7a2.44,2.44,0,0,0,2.38,2.38h5.11a2.44,2.44,0,0,0,2.38-2.38V56.14A39.67,39.67,0,0,0,468.85,42.46Zm-9.63,18.78a15.69,15.69,0,0,1-4,5.59,16.57,16.57,0,0,1-5.71,3.8,17.21,17.21,0,0,1-7,1.43,18.2,18.2,0,0,1-7.13-1.43,16,16,0,0,1-5.71-3.8,19.84,19.84,0,0,1-3.92-5.59,17.21,17.21,0,0,1-1.43-7,16.26,16.26,0,0,1,1.43-6.9,19.49,19.49,0,0,1,3.92-5.71,16.57,16.57,0,0,1,5.71-3.8,19.08,19.08,0,0,1,7.13-1.43,17.62,17.62,0,0,1,7,1.43,17.15,17.15,0,0,1,5.71,3.8,18.32,18.32,0,0,1,4,5.71,16.65,16.65,0,0,1,1.43,6.9A17.21,17.21,0,0,1,459.22,61.25Z"/><path class="cls-1" d="M466.49,104.53a7,7,0,0,0-1.72-2.64,6.71,6.71,0,0,0-2.51-1.55,9.69,9.69,0,0,0-3.1-.49,7.66,7.66,0,0,0-3.1.63,8.41,8.41,0,0,0-2.54,1.72,8.69,8.69,0,0,0-1.72,2.51,8.26,8.26,0,0,0-.63,3.1,7.78,7.78,0,0,0,.63,3.1,7.88,7.88,0,0,0,1.72,2.51,8.41,8.41,0,0,0,2.54,1.72,7.45,7.45,0,0,0,3.1.63,8.15,8.15,0,0,0,1.45-.16,7.64,7.64,0,0,0,1.45-.53,6.42,6.42,0,0,0,1.29-.92,4.31,4.31,0,0,0,.36-.4,5.6,5.6,0,0,0,.33-.46c.23-.33.33-.3.33.1v2a5.22,5.22,0,0,0,.2,1.46.6.6,0,0,0,.46.2h1.42a.65.65,0,0,0,.46-.2,5.39,5.39,0,0,0,.2-1.46v-7.09A11,11,0,0,0,466.49,104.53Zm-2.67,5.21a4.35,4.35,0,0,1-1.12,1.55,4.6,4.6,0,0,1-1.58,1.06,4.77,4.77,0,0,1-1.95.4,5,5,0,0,1-2-.4,4.45,4.45,0,0,1-1.58-1.06,5.5,5.5,0,0,1-1.09-1.55,4.77,4.77,0,0,1-.4-1.95,4.51,4.51,0,0,1,.4-1.91,5.41,5.41,0,0,1,1.09-1.58,4.6,4.6,0,0,1,1.58-1.06,5.29,5.29,0,0,1,2-.4,4.89,4.89,0,0,1,1.95.4,4.76,4.76,0,0,1,1.58,1.06,5.08,5.08,0,0,1,1.12,1.58,4.62,4.62,0,0,1,.4,1.91A4.77,4.77,0,0,1,463.81,109.74Z"/><path id="_Trazado_4" data-name="&lt;Trazado&gt;" class="cls-2" d="M259.45,82.7a21.49,21.49,0,0,1-7.68-4.8,19.24,19.24,0,0,1-4.92-7.56,27.7,27.7,0,0,1-1.68-9.84V29.07a2.46,2.46,0,0,1,2.4-2.4h6.12a2.46,2.46,0,0,1,2.4,2.4V60.39a15.49,15.49,0,0,0,1.44,7.08,16,16,0,0,0,3.36,4.44,12.06,12.06,0,0,0,4.44,2.28,19.5,19.5,0,0,0,2.28.48,11,11,0,0,0,1.92.12,21.86,21.86,0,0,0,4.2-.6,9.84,9.84,0,0,0,4.44-2.28,12,12,0,0,0,3.48-4.44,15.49,15.49,0,0,0,1.44-7.08V29.07a2.46,2.46,0,0,1,2.4-2.4h6a2.18,2.18,0,0,1,1.68.72,2.37,2.37,0,0,1,.72,1.68V60.51a24.29,24.29,0,0,1-.48,5.16,19.21,19.21,0,0,1-1.32,4.68,21.14,21.14,0,0,1-4.92,7.56,22.6,22.6,0,0,1-7.68,4.8,29.58,29.58,0,0,1-10.08,1.68A28.88,28.88,0,0,1,259.45,82.7Z"/><path id="_Trazado_5" data-name="&lt;Trazado&gt;" class="cls-2" d="M341.52,36.15h-11.4a2,2,0,0,0-1.68.72,3,3,0,0,0-.72,1.68V80.91a2.46,2.46,0,0,1-2.4,2.4h-6a2.18,2.18,0,0,1-1.68-.72,3,3,0,0,1-.72-1.68V38.67a2.18,2.18,0,0,0-.72-1.68,3,3,0,0,0-1.68-.72H303a2.46,2.46,0,0,1-2.4-2.4v-4.8a2.46,2.46,0,0,1,2.4-2.4h38.52a2.46,2.46,0,0,1,2.4,2.4v4.8a2.37,2.37,0,0,1-.72,1.68A2,2,0,0,1,341.52,36.15Z"/><path id="_Trazado_compuesto_8" data-name="&lt;Trazado compuesto&gt;" class="cls-2" d="M376.68,84.5a29.72,29.72,0,0,1-11.4-2.28,27.58,27.58,0,0,1-9.36-6.36,30.05,30.05,0,0,1-6.36-9.36A28.61,28.61,0,0,1,347.28,55a30.8,30.8,0,0,1,2.28-11.52,28.14,28.14,0,0,1,6.36-9.36,30.05,30.05,0,0,1,9.36-6.36,29.94,29.94,0,0,1,22.92,0,28.14,28.14,0,0,1,9.36,6.36,30.05,30.05,0,0,1,6.36,9.36A28.61,28.61,0,0,1,406.2,55a28.61,28.61,0,0,1-2.28,11.52,28.14,28.14,0,0,1-6.36,9.36,30.05,30.05,0,0,1-9.36,6.36A30.8,30.8,0,0,1,376.68,84.5Zm0-48.83a16.19,16.19,0,0,0-7.2,1.56,20.94,20.94,0,0,0-5.88,4.2,20.63,20.63,0,0,0-4,6.12,19,19,0,0,0-1.44,7.32,20,20,0,0,0,1.44,7.44,19.21,19.21,0,0,0,4,6.12,17.05,17.05,0,0,0,5.88,4.2,16.56,16.56,0,0,0,7.2,1.56,16.19,16.19,0,0,0,7.2-1.56,20.94,20.94,0,0,0,5.88-4.2,20.63,20.63,0,0,0,4-6.12,19.12,19.12,0,0,0,1.44-7.44,19.4,19.4,0,0,0-1.44-7.32,19.21,19.21,0,0,0-4-6.12,18.79,18.79,0,0,0-5.88-4.2A15.84,15.84,0,0,0,376.68,35.67Z"/><path id="_Trazado_6" data-name="&lt;Trazado&gt;" class="cls-3" d="M490.79,38.67V48a2.46,2.46,0,0,0,2.4,2.4h22.68a2.46,2.46,0,0,1,2.4,2.4v5a2.46,2.46,0,0,1-2.4,2.4H493.19a2.46,2.46,0,0,0-2.4,2.4v8.52a2.46,2.46,0,0,0,2.4,2.4h26.16a2.46,2.46,0,0,1,2.4,2.4v4.92a2.46,2.46,0,0,1-2.4,2.4h-37a2.46,2.46,0,0,1-2.4-2.4V29a2.46,2.46,0,0,1,2.4-2.4h37a2.46,2.46,0,0,1,2.4,2.4v4.8a2.46,2.46,0,0,1-2.4,2.4H493.19a2.37,2.37,0,0,0-1.68.72A2.44,2.44,0,0,0,490.79,38.67Z"/><path class="cls-2" d="M209.87,115.77a5.93,5.93,0,0,1-2.11-1.32,5.59,5.59,0,0,1-1.37-2.07,7.37,7.37,0,0,1-.47-2.71V101a.64.64,0,0,1,.19-.47.61.61,0,0,1,.45-.19h1.69a.65.65,0,0,1,.66.66v8.62a4.33,4.33,0,0,0,.38,1.94,3.89,3.89,0,0,0,.94,1.22,3.19,3.19,0,0,0,1.22.62q.34.08.63.13a3.74,3.74,0,0,0,.54,0,4.88,4.88,0,0,0,1.15-.17,2.84,2.84,0,0,0,1.22-.62,3.48,3.48,0,0,0,1-1.22,4.33,4.33,0,0,0,.38-1.94V101a.66.66,0,0,1,.66-.66h1.66a.65.65,0,0,1,.66.66v8.64a8.25,8.25,0,0,1-.12,1.42,7.06,7.06,0,0,1-.35,1.29,6,6,0,0,1-1.34,2.07,6.2,6.2,0,0,1-2.11,1.32,7.65,7.65,0,0,1-2.77.47A7.47,7.47,0,0,1,209.87,115.77Z"/><path class="cls-2" d="M245.28,103h-3.14a.66.66,0,0,0-.66.66V115.3a.66.66,0,0,1-.66.66h-1.66a.66.66,0,0,1-.66-.66V103.66a.66.66,0,0,0-.66-.66h-3.16a.65.65,0,0,1-.66-.66V101a.66.66,0,0,1,.66-.66h10.6a.66.66,0,0,1,.66.66v1.32a.65.65,0,0,1-.66.66Z"/><path class="cls-2" d="M267.8,116.26a7.79,7.79,0,0,1-3.14-.64,8.18,8.18,0,0,1-4.31-4.31,8.08,8.08,0,0,1,0-6.3,8.15,8.15,0,0,1,4.31-4.32,8.06,8.06,0,0,1,6.29,0,8.15,8.15,0,0,1,4.31,4.32,8.08,8.08,0,0,1,0,6.3,8.18,8.18,0,0,1-4.31,4.31A7.84,7.84,0,0,1,267.8,116.26Zm0-13.42a4.61,4.61,0,0,0-2,.44,5.41,5.41,0,0,0-1.62,1.16,5.5,5.5,0,0,0-1.1,1.7,5.26,5.26,0,0,0,0,4,5.68,5.68,0,0,0,1.1,1.7,5.31,5.31,0,0,0,1.62,1.17,4.74,4.74,0,0,0,4,0,5.31,5.31,0,0,0,1.62-1.17,5.66,5.66,0,0,0,1.1-1.7,5.25,5.25,0,0,0,0-4,5.48,5.48,0,0,0-1.1-1.7,5.41,5.41,0,0,0-1.62-1.16A4.61,4.61,0,0,0,267.81,102.84Z"/><path class="cls-2" d="M351.66,114v1.32a.66.66,0,0,1-.66.66h-9.92a.66.66,0,0,1-.66-.66V101a.66.66,0,0,1,.66-.66h1.66a.66.66,0,0,1,.66.66v11.65a.66.66,0,0,0,.66.66H351a.65.65,0,0,1,.66.66Z"/><path class="cls-1" d="M398.11,103H395a.66.66,0,0,0-.66.66V115.3a.66.66,0,0,1-.66.66H392a.64.64,0,0,1-.47-.19.63.63,0,0,1-.19-.47V103.66a.66.66,0,0,0-.66-.66h-3.16a.65.65,0,0,1-.66-.66V101a.66.66,0,0,1,.66-.66h10.6a.66.66,0,0,1,.66.66v1.32a.65.65,0,0,1-.66.66Z"/><path class="cls-1" d="M425.64,116.26a7.79,7.79,0,0,1-3.14-.64,8.18,8.18,0,0,1-4.31-4.31,8.08,8.08,0,0,1,0-6.3,8.15,8.15,0,0,1,4.31-4.32,8.06,8.06,0,0,1,6.29,0A8.15,8.15,0,0,1,433.1,105a8.08,8.08,0,0,1,0,6.3,8.18,8.18,0,0,1-4.31,4.31A7.84,7.84,0,0,1,425.64,116.26Zm0-13.42a4.61,4.61,0,0,0-2,.44,5.41,5.41,0,0,0-1.62,1.16,5.49,5.49,0,0,0-1.1,1.7,5.25,5.25,0,0,0,0,4,5.67,5.67,0,0,0,1.1,1.7,5.31,5.31,0,0,0,1.62,1.17,4.74,4.74,0,0,0,4,0,5.32,5.32,0,0,0,1.62-1.17,5.67,5.67,0,0,0,1.1-1.7,5.25,5.25,0,0,0,0-4,5.49,5.49,0,0,0-1.1-1.7,5.42,5.42,0,0,0-1.62-1.16A4.61,4.61,0,0,0,425.65,102.84Z"/><path class="cls-1" d="M486.69,115.77a5.93,5.93,0,0,1-2.11-1.32,5.59,5.59,0,0,1-1.36-2.07,7.35,7.35,0,0,1-.47-2.71V101a.64.64,0,0,1,.19-.47.61.61,0,0,1,.45-.19h1.69a.66.66,0,0,1,.66.66v8.62a4.33,4.33,0,0,0,.38,1.94,3.89,3.89,0,0,0,.94,1.22,3.18,3.18,0,0,0,1.22.62q.34.08.63.13a3.74,3.74,0,0,0,.54,0,4.87,4.87,0,0,0,1.15-.17,2.83,2.83,0,0,0,1.22-.62,3.48,3.48,0,0,0,1-1.22,4.33,4.33,0,0,0,.38-1.94V101a.66.66,0,0,1,.66-.66h1.66a.66.66,0,0,1,.66.66v8.64a8.26,8.26,0,0,1-.12,1.42,7.06,7.06,0,0,1-.35,1.29,6,6,0,0,1-1.34,2.07,6.19,6.19,0,0,1-2.11,1.32,7.64,7.64,0,0,1-2.77.47A7.47,7.47,0,0,1,486.69,115.77Z"/><path class="cls-1" d="M512.4,103.66v2.58a.66.66,0,0,0,.66.66h6.23a.65.65,0,0,1,.66.66v1.39a.66.66,0,0,1-.66.66h-6.23a.65.65,0,0,0-.66.66v2.35a.65.65,0,0,0,.66.66h7.19a.66.66,0,0,1,.66.66v1.37a.66.66,0,0,1-.66.66H510.07a.66.66,0,0,1-.66-.66V101a.66.66,0,0,1,.66-.66h10.17a.66.66,0,0,1,.66.66v1.32a.65.65,0,0,1-.66.66h-7.19a.66.66,0,0,0-.66.66Z"/><path id="_Trazado_compuesto_9" data-name="&lt;Trazado compuesto&gt;" class="cls-4" d="M238.78,76.67l.09,5a2.4,2.4,0,0,1-2.3,2.38l-31.13.46a39,39,0,0,1-13.49-2,25,25,0,0,1-9.47-5.91,23.81,23.81,0,0,1-5.66-8.79,34.38,34.38,0,0,1-2-11,27.19,27.19,0,0,1,2-11,29.85,29.85,0,0,1,5.92-9.12,30.82,30.82,0,0,1,8.78-6.24,29.3,29.3,0,0,1,11-2.42,27.59,27.59,0,0,1,11,2,28,28,0,0,1,9,5.92,29.85,29.85,0,0,1,6.25,8.9,26.41,26.41,0,0,1,2.42,11,28.92,28.92,0,0,1-.49,5.16A27.11,27.11,0,0,1,229,66.21a22.78,22.78,0,0,1-3.19,4.62,15.29,15.29,0,0,1-1.38,1.31,19.85,19.85,0,0,1-1.62,1.2c-1.16.84-1,1.19.37,1.16l13.23-.13a2.4,2.4,0,0,1,2.38,2.3Zm-53.5-20.24a17.54,17.54,0,0,0,1.55,7A17.07,17.07,0,0,0,190.72,69a18.24,18.24,0,0,0,5.75,3.92,16.57,16.57,0,0,0,6.89,1.3,17.13,17.13,0,0,0,7-1.55,15.62,15.62,0,0,0,5.49-4.12,16.5,16.5,0,0,0,3.68-5.75,17.13,17.13,0,0,0,1.29-7,18.11,18.11,0,0,0-1.55-7.07,16,16,0,0,0-3.89-5.61,19.75,19.75,0,0,0-5.63-3.8,17.13,17.13,0,0,0-7-1.29,16.19,16.19,0,0,0-6.84,1.54,19.4,19.4,0,0,0-5.61,4,16.5,16.5,0,0,0-3.68,5.75A19,19,0,0,0,185.28,56.43Z"/><path id="_Trazado_compuesto_10" data-name="&lt;Trazado compuesto&gt;" class="cls-4" d="M222.69,82.74a2.17,2.17,0,0,1-.69-1.66V75.56c0-1.42-.35-1.54-1.15-.35a20.07,20.07,0,0,1-1.15,1.66,15.33,15.33,0,0,1-1.27,1.42,22.49,22.49,0,0,1-4.5,3.31,26.32,26.32,0,0,1-5.08,1.89,27.84,27.84,0,0,1-5.08.59,25.5,25.5,0,0,1-10.85-2.25A29.41,29.41,0,0,1,184,75.68a28.31,28.31,0,0,1-8.19-20.12A30.28,30.28,0,0,1,178,44.43a31.21,31.21,0,0,1,6-9,29.41,29.41,0,0,1,8.89-6.15A26.25,26.25,0,0,1,203.76,27a33.14,33.14,0,0,1,10.85,1.78,23.4,23.4,0,0,1,8.77,5.56,25.34,25.34,0,0,1,6,9.47,40.39,40.39,0,0,1,2.19,13.61V81.08a2.37,2.37,0,0,1-.69,1.66,2.25,2.25,0,0,1-1.62.71h-5A2.07,2.07,0,0,1,222.69,82.74Zm-26.63-43.3a16.5,16.5,0,0,0-5.68,3.79,19.4,19.4,0,0,0-3.91,5.68,16.19,16.19,0,0,0-1.42,6.86,17.13,17.13,0,0,0,1.42,7,19.75,19.75,0,0,0,3.91,5.56,16,16,0,0,0,5.68,3.79,18.11,18.11,0,0,0,7.1,1.42,17.13,17.13,0,0,0,7-1.42,16.5,16.5,0,0,0,5.68-3.79,15.62,15.62,0,0,0,4-5.56,17.13,17.13,0,0,0,1.42-7,16.57,16.57,0,0,0-1.42-6.86,18.24,18.24,0,0,0-4-5.68,17.07,17.07,0,0,0-5.68-3.79,17.54,17.54,0,0,0-7-1.42A19,19,0,0,0,196.06,39.44Z"/><path id="_Trazado_compuesto_11" data-name="&lt;Trazado compuesto&gt;" class="cls-2" d="M192.2,114.2l0,1.42a.68.68,0,0,1-.65.67l-8.79.13a11,11,0,0,1-3.81-.56,7.05,7.05,0,0,1-2.67-1.67,6.72,6.72,0,0,1-1.6-2.48,9.71,9.71,0,0,1-.55-3.1,7.68,7.68,0,0,1,.57-3.12,8.43,8.43,0,0,1,1.67-2.57,8.7,8.7,0,0,1,2.48-1.76,8.27,8.27,0,0,1,3.09-.68,7.79,7.79,0,0,1,3.12.57,7.89,7.89,0,0,1,2.54,1.67,8.43,8.43,0,0,1,1.76,2.51,7.46,7.46,0,0,1,.68,3.09,8.16,8.16,0,0,1-.14,1.46,7.65,7.65,0,0,1-.5,1.46,6.43,6.43,0,0,1-.9,1.3,4.32,4.32,0,0,1-.39.37,5.6,5.6,0,0,1-.46.34c-.33.24-.29.34.11.33l3.73,0a.68.68,0,0,1,.67.65Zm-15.11-5.72a5,5,0,0,0,.44,2,4.82,4.82,0,0,0,1.1,1.58,5.15,5.15,0,0,0,1.62,1.11,4.68,4.68,0,0,0,1.94.37,4.84,4.84,0,0,0,2-.44,4.41,4.41,0,0,0,1.55-1.16,4.66,4.66,0,0,0,1-1.62,4.84,4.84,0,0,0,.37-2,5.11,5.11,0,0,0-.44-2,4.5,4.5,0,0,0-1.1-1.58,5.58,5.58,0,0,0-1.59-1.07,4.84,4.84,0,0,0-2-.37,4.57,4.57,0,0,0-1.93.44,5.48,5.48,0,0,0-1.58,1.13,4.66,4.66,0,0,0-1,1.62A5.36,5.36,0,0,0,177.1,108.48Z"/><path id="_Trazado_compuesto_12" data-name="&lt;Trazado compuesto&gt;" class="cls-2" d="M187.66,115.91a.61.61,0,0,1-.2-.47v-1.56c0-.4-.1-.43-.33-.1a5.67,5.67,0,0,1-.33.47,4.33,4.33,0,0,1-.36.4,6.35,6.35,0,0,1-1.27.94,7.43,7.43,0,0,1-1.43.53,7.86,7.86,0,0,1-1.43.17,7.2,7.2,0,0,1-3.06-.63,8.3,8.3,0,0,1-2.51-1.74,8,8,0,0,1-2.31-5.68,8.55,8.55,0,0,1,.62-3.14,8.81,8.81,0,0,1,1.69-2.54,8.3,8.3,0,0,1,2.51-1.74,7.41,7.41,0,0,1,3.06-.63,9.36,9.36,0,0,1,3.06.5,6.61,6.61,0,0,1,2.48,1.57,7.15,7.15,0,0,1,1.69,2.67,11.4,11.4,0,0,1,.62,3.84v6.67a.67.67,0,0,1-.2.47.64.64,0,0,1-.46.2h-1.4A.58.58,0,0,1,187.66,115.91Zm-7.52-12.22a4.66,4.66,0,0,0-1.6,1.07,5.48,5.48,0,0,0-1.1,1.6,4.57,4.57,0,0,0-.4,1.94,4.84,4.84,0,0,0,.4,2,5.58,5.58,0,0,0,1.1,1.57,4.5,4.5,0,0,0,1.6,1.07,5.11,5.11,0,0,0,2,.4,4.84,4.84,0,0,0,2-.4,4.66,4.66,0,0,0,1.6-1.07,4.41,4.41,0,0,0,1.14-1.57,4.84,4.84,0,0,0,.4-2,4.68,4.68,0,0,0-.4-1.94,5.15,5.15,0,0,0-1.14-1.6,4.82,4.82,0,0,0-1.6-1.07,5,5,0,0,0-2-.4A5.36,5.36,0,0,0,180.14,103.69Z"/><path id="_Trazado_compuesto_13" data-name="&lt;Trazado compuesto&gt;" class="cls-2" d="M322.2,114.2l0,1.42a.68.68,0,0,1-.65.67l-8.79.13a11,11,0,0,1-3.81-.56,7.05,7.05,0,0,1-2.67-1.67,6.72,6.72,0,0,1-1.6-2.48,9.71,9.71,0,0,1-.55-3.1,7.68,7.68,0,0,1,.57-3.12,8.43,8.43,0,0,1,1.67-2.57,8.7,8.7,0,0,1,2.48-1.76,8.27,8.27,0,0,1,3.09-.68,7.79,7.79,0,0,1,3.12.57,7.89,7.89,0,0,1,2.54,1.67,8.43,8.43,0,0,1,1.76,2.51,7.46,7.46,0,0,1,.68,3.09,8.16,8.16,0,0,1-.14,1.46,7.65,7.65,0,0,1-.5,1.46,6.43,6.43,0,0,1-.9,1.3,4.32,4.32,0,0,1-.39.37,5.6,5.6,0,0,1-.46.34c-.33.24-.29.34.11.33l3.73,0a.68.68,0,0,1,.67.65Zm-15.11-5.72a5,5,0,0,0,.44,2,4.82,4.82,0,0,0,1.1,1.58,5.15,5.15,0,0,0,1.62,1.11,4.68,4.68,0,0,0,1.94.37,4.84,4.84,0,0,0,2-.44,4.41,4.41,0,0,0,1.55-1.16,4.66,4.66,0,0,0,1-1.62,4.84,4.84,0,0,0,.37-2,5.11,5.11,0,0,0-.44-2,4.5,4.5,0,0,0-1.1-1.58,5.58,5.58,0,0,0-1.59-1.07,4.84,4.84,0,0,0-2-.37,4.57,4.57,0,0,0-1.93.44,5.48,5.48,0,0,0-1.58,1.13,4.66,4.66,0,0,0-1,1.62A5.36,5.36,0,0,0,307.1,108.48Z"/><path id="_Trazado_compuesto_14" data-name="&lt;Trazado compuesto&gt;" class="cls-2" d="M317.66,115.91a.61.61,0,0,1-.2-.47v-1.56c0-.4-.1-.43-.33-.1a5.67,5.67,0,0,1-.33.47,4.33,4.33,0,0,1-.36.4,6.35,6.35,0,0,1-1.27.94,7.43,7.43,0,0,1-1.43.53,7.86,7.86,0,0,1-1.43.17,7.2,7.2,0,0,1-3.06-.63,8.3,8.3,0,0,1-2.51-1.74,8,8,0,0,1-2.31-5.68,8.55,8.55,0,0,1,.62-3.14,8.81,8.81,0,0,1,1.69-2.54,8.3,8.3,0,0,1,2.51-1.74,7.41,7.41,0,0,1,3.06-.63,9.36,9.36,0,0,1,3.06.5,6.61,6.61,0,0,1,2.48,1.57,7.15,7.15,0,0,1,1.69,2.67,11.4,11.4,0,0,1,.62,3.84v6.67a.67.67,0,0,1-.2.47.64.64,0,0,1-.46.2h-1.4A.58.58,0,0,1,317.66,115.91Zm-7.52-12.22a4.66,4.66,0,0,0-1.6,1.07,5.48,5.48,0,0,0-1.1,1.6,4.57,4.57,0,0,0-.4,1.94,4.84,4.84,0,0,0,.4,2,5.58,5.58,0,0,0,1.1,1.57,4.5,4.5,0,0,0,1.6,1.07,5.11,5.11,0,0,0,2,.4,4.84,4.84,0,0,0,2-.4,4.66,4.66,0,0,0,1.6-1.07,4.41,4.41,0,0,0,1.14-1.57,4.84,4.84,0,0,0,.4-2,4.68,4.68,0,0,0-.4-1.94,5.15,5.15,0,0,0-1.14-1.6,4.82,4.82,0,0,0-1.6-1.07,5,5,0,0,0-2-.4A5.36,5.36,0,0,0,310.14,103.69Z"/><path id="_Trazado_compuesto_15" data-name="&lt;Trazado compuesto&gt;" class="cls-1" d="M140.84,118.86a3.36,3.36,0,0,1-1.11-2.59V104.4c0-2.22-.56-2.41-1.85-.56a31.44,31.44,0,0,1-1.85,2.59,24.22,24.22,0,0,1-2,2.22,36.08,36.08,0,0,1-7.23,5.19,42.94,42.94,0,0,1-8.15,3,45.8,45.8,0,0,1-8.15.93A41.83,41.83,0,0,1,93,114.22a47.27,47.27,0,0,1-14.27-9.64,44.26,44.26,0,0,1-9.64-14.08,43.69,43.69,0,0,1-3.52-17.42,46.4,46.4,0,0,1,3.52-17.42,48.81,48.81,0,0,1,9.64-14.08A47.27,47.27,0,0,1,93,31.95a43.06,43.06,0,0,1,17.42-3.52,54.44,54.44,0,0,1,17.42,2.78A37.7,37.7,0,0,1,142,39.92a39.57,39.57,0,0,1,9.64,14.82,61.83,61.83,0,0,1,3.52,21.31v40.22a3.8,3.8,0,0,1-3.71,3.71h-8A3.36,3.36,0,0,1,140.84,118.86ZM99.33,47.51a25.84,25.84,0,0,0-8.89,5.93,30.38,30.38,0,0,0-6.12,8.89A25.35,25.35,0,0,0,82.1,73.09,26.82,26.82,0,0,0,84.32,84a30.93,30.93,0,0,0,6.12,8.71,25,25,0,0,0,8.89,5.93,28.36,28.36,0,0,0,11.12,2.22,26.82,26.82,0,0,0,10.93-2.22,25.84,25.84,0,0,0,8.89-5.93,24.46,24.46,0,0,0,6.3-8.71,26.82,26.82,0,0,0,2.22-10.93,26,26,0,0,0-2.22-10.75,28.56,28.56,0,0,0-6.3-8.89,26.74,26.74,0,0,0-8.89-5.93,27.47,27.47,0,0,0-10.93-2.22A29.74,29.74,0,0,0,99.33,47.51Z"/><path id="_Trazado_compuesto_16" data-name="&lt;Trazado compuesto&gt;" class="cls-4" d="M122.73,104.77l.14,7.88a3.76,3.76,0,0,1-3.6,3.73l-48.74.71A61.14,61.14,0,0,1,49.4,114a39.13,39.13,0,0,1-14.83-9.26A37.28,37.28,0,0,1,25.71,91a53.83,53.83,0,0,1-3.06-17.17,42.58,42.58,0,0,1,3.17-17.28,46.74,46.74,0,0,1,9.27-14.28,48.26,48.26,0,0,1,13.75-9.78A45.88,45.88,0,0,1,66,28.65a43.21,43.21,0,0,1,17.28,3.17,43.76,43.76,0,0,1,14.1,9.27A46.74,46.74,0,0,1,107.16,55,41.36,41.36,0,0,1,111,72.19a45.28,45.28,0,0,1-.77,8.08,42.46,42.46,0,0,1-2.79,8.11,35.67,35.67,0,0,1-5,7.24,24,24,0,0,1-2.16,2.06,31.08,31.08,0,0,1-2.53,1.88c-1.81,1.32-1.62,1.86.58,1.82l20.71-.21a3.76,3.76,0,0,1,3.73,3.6ZM38.95,73.06A27.47,27.47,0,0,0,41.37,84a26.74,26.74,0,0,0,6.09,8.79,28.56,28.56,0,0,0,9,6.14,26,26,0,0,0,10.79,2,26.82,26.82,0,0,0,10.89-2.42A24.46,24.46,0,0,0,86.74,92a25.84,25.84,0,0,0,5.77-9,26.82,26.82,0,0,0,2-11A28.36,28.36,0,0,0,92.1,61,25,25,0,0,0,86,52.19a30.93,30.93,0,0,0-8.82-6,26.82,26.82,0,0,0-11-2,25.35,25.35,0,0,0-10.71,2.42,30.38,30.38,0,0,0-8.78,6.28,25.84,25.84,0,0,0-5.77,9A29.74,29.74,0,0,0,38.95,73.06Z"/><path id="_Trazado_compuesto_17" data-name="&lt;Trazado compuesto&gt;" class="cls-4" d="M97.53,114.26a3.41,3.41,0,0,1-1.08-2.59V103c0-2.22-.54-2.41-1.81-.56a31.44,31.44,0,0,1-1.81,2.59,24,24,0,0,1-2,2.22,35.22,35.22,0,0,1-7,5.19,41.21,41.21,0,0,1-8,3,43.6,43.6,0,0,1-8,.93,39.93,39.93,0,0,1-17-3.52A46.06,46.06,0,0,1,37,103.2,44.33,44.33,0,0,1,24.15,71.7a47.42,47.42,0,0,1,3.43-17.42A48.87,48.87,0,0,1,37,40.2,46.06,46.06,0,0,1,50.9,30.56a41.1,41.1,0,0,1,17-3.52,51.9,51.9,0,0,1,17,2.78,36.64,36.64,0,0,1,13.73,8.71A39.68,39.68,0,0,1,108,53.35a63.25,63.25,0,0,1,3.43,21.31v37a3.7,3.7,0,0,1-1.08,2.59,3.53,3.53,0,0,1-2.53,1.11h-7.77A3.24,3.24,0,0,1,97.53,114.26Zm-41.7-67.8a25.84,25.84,0,0,0-8.89,5.93,30.38,30.38,0,0,0-6.12,8.89A25.35,25.35,0,0,0,38.59,72,26.82,26.82,0,0,0,40.82,83a30.93,30.93,0,0,0,6.12,8.71,25,25,0,0,0,8.89,5.93,28.36,28.36,0,0,0,11.12,2.22A26.82,26.82,0,0,0,77.88,97.6a25.84,25.84,0,0,0,8.89-5.93A24.46,24.46,0,0,0,93.07,83,26.82,26.82,0,0,0,95.3,72a26,26,0,0,0-2.22-10.75,28.56,28.56,0,0,0-6.3-8.89,26.74,26.74,0,0,0-8.89-5.93,27.47,27.47,0,0,0-10.93-2.22A29.74,29.74,0,0,0,55.83,46.46Z"/><path id="_Trazado_compuesto_18" data-name="&lt;Trazado compuesto&gt;" class="cls-5" d="M93,31.95a43.06,43.06,0,0,1,17.42-3.52,54.44,54.44,0,0,1,17.42,2.78A37.7,37.7,0,0,1,142,39.92a39.57,39.57,0,0,1,9.64,14.82,61.83,61.83,0,0,1,3.52,21.31v40.22a3.8,3.8,0,0,1-3.71,3.71h-8a3.8,3.8,0,0,1-3.71-3.71V104.4c0-2.22-.56-2.41-1.85-.56a31.44,31.44,0,0,1-1.85,2.59,24.22,24.22,0,0,1-2,2.22,36.08,36.08,0,0,1-7.23,5.19,42.94,42.94,0,0,1-8.15,3,45.8,45.8,0,0,1-8.15.93A41.83,41.83,0,0,1,93,114.22a47.27,47.27,0,0,1-14.27-9.64,44.26,44.26,0,0,1-9.64-14.08,43.69,43.69,0,0,1-3.52-17.42,46.4,46.4,0,0,1,3.52-17.42m15.2,6.67A25.35,25.35,0,0,0,82.1,73.09,26.82,26.82,0,0,0,84.32,84a30.93,30.93,0,0,0,6.12,8.71,25,25,0,0,0,8.89,5.93,28.36,28.36,0,0,0,11.12,2.22,26.82,26.82,0,0,0,10.93-2.22,25.84,25.84,0,0,0,8.89-5.93,24.46,24.46,0,0,0,6.3-8.71,26.82,26.82,0,0,0,2.22-10.93,26,26,0,0,0-2.22-10.75,28.56,28.56,0,0,0-6.3-8.89,26.74,26.74,0,0,0-8.89-5.93,27.47,27.47,0,0,0-10.93-2.22"/></svg>