<svg id="Capa_1" data-name="Capa 1" xmlns="http://www.w3.org/2000/svg" viewBox="0 0 498.97 141.73"><defs><style>.cls-1,.cls-4{fill:#122b40;}.cls-2,.cls-3{fill:#74acdf;}.cls-3{stroke:#74acdf;stroke-miterlimit:10;}.cls-4{opacity:0.9;}.cls-5{fill:none;}</style></defs><title>autoqe_txt_1</title><path id="_Trazado_" data-name="&lt;Trazado&gt;" class="cls-1" d="M214.25,82.7a21.49,21.49,0,0,1-7.68-4.8,19.24,19.24,0,0,1-4.92-7.56A27.7,27.7,0,0,1,200,60.51V29.07a2.46,2.46,0,0,1,2.4-2.4h6.12a2.46,2.46,0,0,1,2.4,2.4V60.39a15.49,15.49,0,0,0,1.44,7.08,16,16,0,0,0,3.36,4.44,12.06,12.06,0,0,0,4.44,2.28,19.5,19.5,0,0,0,2.28.48,11,11,0,0,0,1.92.12,21.86,21.86,0,0,0,4.2-.6A9.84,9.84,0,0,0,233,71.91a12,12,0,0,0,3.48-4.44,15.49,15.49,0,0,0,1.44-7.08V29.07a2.46,2.46,0,0,1,2.4-2.4h6a2.18,2.18,0,0,1,1.68.72,2.37,2.37,0,0,1,.72,1.68V60.51a24.29,24.29,0,0,1-.48,5.16,19.21,19.21,0,0,1-1.32,4.68A21.14,21.14,0,0,1,242,77.91a22.6,22.6,0,0,1-7.68,4.8,29.58,29.58,0,0,1-10.08,1.68A28.88,28.88,0,0,1,214.25,82.7Z"/><path id="_Trazado_2" data-name="&lt;Trazado&gt;" class="cls-1" d="M296.32,36.15h-11.4a2,2,0,0,0-1.68.72,3,3,0,0,0-.72,1.68V80.91a2.46,2.46,0,0,1-2.4,2.4h-6a2.18,2.18,0,0,1-1.68-.72,3,3,0,0,1-.72-1.68V38.67A2.18,2.18,0,0,0,271,37a3,3,0,0,0-1.68-.72H257.81a2.46,2.46,0,0,1-2.4-2.4v-4.8a2.46,2.46,0,0,1,2.4-2.4h38.52a2.46,2.46,0,0,1,2.4,2.4v4.8a2.37,2.37,0,0,1-.72,1.68A2,2,0,0,1,296.32,36.15Z"/><path id="_Trazado_compuesto_" data-name="&lt;Trazado compuesto&gt;" class="cls-1" d="M331.48,84.5a29.72,29.72,0,0,1-11.4-2.28,27.58,27.58,0,0,1-9.36-6.36,30.05,30.05,0,0,1-6.36-9.36A28.61,28.61,0,0,1,302.08,55a30.8,30.8,0,0,1,2.28-11.52,28.14,28.14,0,0,1,6.36-9.36,30.05,30.05,0,0,1,9.36-6.36,29.94,29.94,0,0,1,22.92,0,28.14,28.14,0,0,1,9.36,6.36,30.05,30.05,0,0,1,6.36,9.36A28.61,28.61,0,0,1,361,55a28.61,28.61,0,0,1-2.28,11.52,28.14,28.14,0,0,1-6.36,9.36A30.05,30.05,0,0,1,343,82.22,30.8,30.8,0,0,1,331.48,84.5Zm0-48.83a16.19,16.19,0,0,0-7.2,1.56,20.94,20.94,0,0,0-5.88,4.2,20.63,20.63,0,0,0-4,6.12A19,19,0,0,0,313,54.87a20,20,0,0,0,1.44,7.44,19.21,19.21,0,0,0,4,6.12,17.05,17.05,0,0,0,5.88,4.2,16.56,16.56,0,0,0,7.2,1.56,16.19,16.19,0,0,0,7.2-1.56,20.94,20.94,0,0,0,5.88-4.2,20.63,20.63,0,0,0,4-6.12A19.12,19.12,0,0,0,350,54.87a19.4,19.4,0,0,0-1.44-7.32,19.21,19.21,0,0,0-4-6.12,18.79,18.79,0,0,0-5.88-4.2A15.84,15.84,0,0,0,331.48,35.67Z"/><path id="_Trazado_3" data-name="&lt;Trazado&gt;" class="cls-2" d="M445.58,38.67V48a2.46,2.46,0,0,0,2.4,2.4h22.68a2.46,2.46,0,0,1,2.4,2.4v5a2.46,2.46,0,0,1-2.4,2.4H448a2.46,2.46,0,0,0-2.4,2.4v8.52a2.46,2.46,0,0,0,2.4,2.4h26.16a2.46,2.46,0,0,1,2.4,2.4v4.92a2.46,2.46,0,0,1-2.4,2.4h-37a2.46,2.46,0,0,1-2.4-2.4V29a2.46,2.46,0,0,1,2.4-2.4h37a2.46,2.46,0,0,1,2.4,2.4v4.8a2.46,2.46,0,0,1-2.4,2.4H448a2.37,2.37,0,0,0-1.68.72A2.44,2.44,0,0,0,445.58,38.67Z"/><path class="cls-1" d="M164.67,115.77a5.93,5.93,0,0,1-2.11-1.32,5.59,5.59,0,0,1-1.37-2.07,7.37,7.37,0,0,1-.47-2.71V101a.64.64,0,0,1,.19-.47.61.61,0,0,1,.45-.19h1.69a.65.65,0,0,1,.66.66v8.62a4.33,4.33,0,0,0,.38,1.94,3.89,3.89,0,0,0,.94,1.22,3.19,3.19,0,0,0,1.22.62q.34.08.63.13a3.74,3.74,0,0,0,.54,0,4.88,4.88,0,0,0,1.15-.17,2.84,2.84,0,0,0,1.22-.62,3.48,3.48,0,0,0,1-1.22,4.33,4.33,0,0,0,.38-1.94V101a.66.66,0,0,1,.66-.66h1.66a.65.65,0,0,1,.66.66v8.64a8.25,8.25,0,0,1-.12,1.42,7.06,7.06,0,0,1-.35,1.29,6,6,0,0,1-1.34,2.07,6.2,6.2,0,0,1-2.11,1.32,7.65,7.65,0,0,1-2.77.47A7.47,7.47,0,0,1,164.67,115.77Z"/><path class="cls-1" d="M200.08,103h-3.14a.66.66,0,0,0-.66.66V115.3a.66.66,0,0,1-.66.66H194a.66.66,0,0,1-.66-.66V103.66a.66.66,0,0,0-.66-.66h-3.16a.65.65,0,0,1-.66-.66V101a.66.66,0,0,1,.66-.66h10.6a.66.66,0,0,1,.66.66v1.32a.65.65,0,0,1-.66.66Z"/><path class="cls-1" d="M222.6,116.26a7.79,7.79,0,0,1-3.14-.64,8.18,8.18,0,0,1-4.31-4.31,8.08,8.08,0,0,1,0-6.3,8.15,8.15,0,0,1,4.31-4.32,8.06,8.06,0,0,1,6.29,0,8.15,8.15,0,0,1,4.31,4.32,8.08,8.08,0,0,1,0,6.3,8.18,8.18,0,0,1-4.31,4.31A7.84,7.84,0,0,1,222.6,116.26Zm0-13.42a4.61,4.61,0,0,0-2,.44,5.41,5.41,0,0,0-1.62,1.16,5.5,5.5,0,0,0-1.1,1.7,5.26,5.26,0,0,0,0,4,5.68,5.68,0,0,0,1.1,1.7,5.31,5.31,0,0,0,1.62,1.17,4.74,4.74,0,0,0,4,0,5.31,5.31,0,0,0,1.62-1.17,5.66,5.66,0,0,0,1.1-1.7,5.25,5.25,0,0,0,0-4,5.48,5.48,0,0,0-1.1-1.7,5.41,5.41,0,0,0-1.62-1.16A4.61,4.61,0,0,0,222.61,102.84Z"/><path class="cls-1" d="M306.46,114v1.32a.66.66,0,0,1-.66.66h-9.92a.66.66,0,0,1-.66-.66V101a.66.66,0,0,1,.66-.66h1.66a.66.66,0,0,1,.66.66v11.65a.66.66,0,0,0,.66.66h6.93a.65.65,0,0,1,.66.66Z"/><path class="cls-3" d="M352.91,103h-3.13a.66.66,0,0,0-.66.66V115.3a.66.66,0,0,1-.66.66h-1.66a.64.64,0,0,1-.47-.19.63.63,0,0,1-.19-.47V103.66a.66.66,0,0,0-.66-.66h-3.16a.65.65,0,0,1-.66-.66V101a.66.66,0,0,1,.66-.66h10.6a.66.66,0,0,1,.66.66v1.32a.65.65,0,0,1-.66.66Z"/><path class="cls-3" d="M380.44,116.26a7.79,7.79,0,0,1-3.14-.64,8.18,8.18,0,0,1-4.31-4.31,8.08,8.08,0,0,1,0-6.3,8.15,8.15,0,0,1,4.31-4.32,8.06,8.06,0,0,1,6.29,0A8.15,8.15,0,0,1,387.9,105a8.08,8.08,0,0,1,0,6.3,8.18,8.18,0,0,1-4.31,4.31A7.84,7.84,0,0,1,380.44,116.26Zm0-13.42a4.61,4.61,0,0,0-2,.44,5.41,5.41,0,0,0-1.62,1.16,5.49,5.49,0,0,0-1.1,1.7,5.25,5.25,0,0,0,0,4,5.67,5.67,0,0,0,1.1,1.7,5.31,5.31,0,0,0,1.62,1.17,4.74,4.74,0,0,0,4,0,5.32,5.32,0,0,0,1.62-1.17,5.67,5.67,0,0,0,1.1-1.7,5.25,5.25,0,0,0,0-4,5.49,5.49,0,0,0-1.1-1.7,5.42,5.42,0,0,0-1.62-1.16A4.61,4.61,0,0,0,380.45,102.84Z"/><path class="cls-3" d="M441.49,115.77a5.93,5.93,0,0,1-2.11-1.32,5.59,5.59,0,0,1-1.36-2.07,7.35,7.35,0,0,1-.47-2.71V101a.64.64,0,0,1,.19-.47.61.61,0,0,1,.45-.19h1.69a.66.66,0,0,1,.66.66v8.62a4.33,4.33,0,0,0,.38,1.94,3.89,3.89,0,0,0,.94,1.22,3.18,3.18,0,0,0,1.22.62q.34.08.63.13a3.74,3.74,0,0,0,.54,0,4.87,4.87,0,0,0,1.15-.17,2.83,2.83,0,0,0,1.22-.62,3.48,3.48,0,0,0,1-1.22,4.33,4.33,0,0,0,.38-1.94V101a.66.66,0,0,1,.66-.66h1.66a.66.66,0,0,1,.66.66v8.64a8.26,8.26,0,0,1-.12,1.42,7.06,7.06,0,0,1-.35,1.29,6,6,0,0,1-1.34,2.07,6.19,6.19,0,0,1-2.11,1.32,7.64,7.64,0,0,1-2.77.47A7.47,7.47,0,0,1,441.49,115.77Z"/><path class="cls-3" d="M467.2,103.66v2.58a.66.66,0,0,0,.66.66h6.23a.65.65,0,0,1,.66.66v1.39a.66.66,0,0,1-.66.66h-6.23a.65.65,0,0,0-.66.66v2.35a.65.65,0,0,0,.66.66H475a.66.66,0,0,1,.66.66v1.37a.66.66,0,0,1-.66.66H464.87a.66.66,0,0,1-.66-.66V101a.66.66,0,0,1,.66-.66H475a.66.66,0,0,1,.66.66v1.32a.65.65,0,0,1-.66.66h-7.19a.66.66,0,0,0-.66.66Z"/><path class="cls-4" d="M35.48,63.54a37.62,37.62,0,0,0,37.84,37.84c73.56-.06,31-3.14,35.73-25.18,6.6-31-14.83-50.51-35.73-50.51A37.84,37.84,0,0,0,35.48,63.54ZM72,61.37A8.05,8.05,0,1,1,80,69.42,8.05,8.05,0,0,1,72,61.37ZM44,61.37a8.05,8.05,0,1,1,8.05,8.05A8.05,8.05,0,0,1,44,61.37Z"/><path class="cls-2" d="M2.08-26.46A37.62,37.62,0,0,0-35.77-64.3c-73.56.06-31,3.14-35.73,25.18-6.6,31,14.83,50.51,35.73,50.51A37.84,37.84,0,0,0,2.08-26.46ZM-34.4-24.29a8.05,8.05,0,0,1-8.05,8.05,8.05,8.05,0,0,1-8.05-8.05,8.05,8.05,0,0,1,8.05-8.05A8.05,8.05,0,0,1-34.4-24.29Zm27.91,0a8.05,8.05,0,0,1-8.05,8.05,8.05,8.05,0,0,1-8.05-8.05,8.05,8.05,0,0,1,8.05-8.05A8.05,8.05,0,0,1-6.49-24.29Z"/><path class="cls-5" d="M145.4,68.43a17.05,17.05,0,0,0,5.88,4.2,16.56,16.56,0,0,0,7.2,1.56,16.19,16.19,0,0,0,7.2-1.56,21,21,0,0,0,5.88-4.2,20.63,20.63,0,0,0,4-6.12A19.12,19.12,0,0,0,177,54.87a19.52,19.52,0,0,0-5.4-13.44,18.8,18.8,0,0,0-5.88-4.2,15.84,15.84,0,0,0-7.2-1.56,16.19,16.19,0,0,0-7.2,1.56,20.94,20.94,0,0,0-5.88,4.2,20.63,20.63,0,0,0-4,6.12A19,19,0,0,0,140,54.87a20,20,0,0,0,1.44,7.44A19.21,19.21,0,0,0,145.4,68.43Z"/><path class="cls-1" d="M187.31,65.27c5.23-24.61-11.76-40-28.32-40a29.91,29.91,0,0,0-22,9.65c.25-.26.5-.52.77-.78a30.05,30.05,0,0,1,9.36-6.36,29.94,29.94,0,0,1,22.92,0,28.14,28.14,0,0,1,9.36,6.36,30.05,30.05,0,0,1,6.36,9.36A28.61,28.61,0,0,1,188,55a28.61,28.61,0,0,1-2.28,11.52,28.14,28.14,0,0,1-6.36,9.36A30.05,30.05,0,0,1,170,82.22a30.8,30.8,0,0,1-11.52,2.28,29.72,29.72,0,0,1-11.4-2.28,27.59,27.59,0,0,1-9.36-6.36,30.05,30.05,0,0,1-6.36-9.36A28.61,28.61,0,0,1,129.08,55a30.49,30.49,0,0,1,1.82-10.28A30,30,0,0,0,159,85.23C217.3,85.18,183.6,82.74,187.31,65.27Z"/><path class="cls-1" d="M131.36,66.51a30.05,30.05,0,0,0,6.36,9.36,27.59,27.59,0,0,0,9.36,6.36,29.72,29.72,0,0,0,11.4,2.28A30.8,30.8,0,0,0,170,82.22a30.05,30.05,0,0,0,9.36-6.36,28.14,28.14,0,0,0,6.36-9.36A28.61,28.61,0,0,0,188,55a28.61,28.61,0,0,0-2.28-11.52,30.05,30.05,0,0,0-6.36-9.36A28.14,28.14,0,0,0,170,27.75a29.94,29.94,0,0,0-22.92,0,30.05,30.05,0,0,0-9.36,6.36c-.27.25-.52.52-.77.78a30,30,0,0,0-6.05,9.82A30.49,30.49,0,0,0,129.08,55,28.61,28.61,0,0,0,131.36,66.51Zm10.08-19a20.63,20.63,0,0,1,4-6.12,20.94,20.94,0,0,1,5.88-4.2,16.19,16.19,0,0,1,7.2-1.56,15.84,15.84,0,0,1,7.2,1.56,18.8,18.8,0,0,1,5.88,4.2,19.59,19.59,0,0,1,4,20.88,20.63,20.63,0,0,1-4,6.12,21,21,0,0,1-5.88,4.2,16.19,16.19,0,0,1-7.2,1.56,16.56,16.56,0,0,1-7.2-1.56,17.05,17.05,0,0,1-5.88-4.2,19.21,19.21,0,0,1-4-6.12A20,20,0,0,1,140,54.87,19,19,0,0,1,141.44,47.55Z"/><path class="cls-5" d="M133.57,112.28a4.75,4.75,0,0,0,1.64,1.17,4.62,4.62,0,0,0,2,.43,4.51,4.51,0,0,0,2-.43,5.84,5.84,0,0,0,1.64-1.17,5.75,5.75,0,0,0,1.1-1.71,5.33,5.33,0,0,0,.4-2.07,5.44,5.44,0,0,0-1.51-3.75,5.24,5.24,0,0,0-1.64-1.17,4.42,4.42,0,0,0-2-.43,4.52,4.52,0,0,0-2,.43,5.84,5.84,0,0,0-1.64,1.17,5.75,5.75,0,0,0-1.1,1.71,5.29,5.29,0,0,0-.4,2,5.58,5.58,0,0,0,.4,2.07A5.35,5.35,0,0,0,133.57,112.28Z"/><path class="cls-1" d="M145.25,111.4c1.46-6.86-3.28-11.16-7.9-11.16a8.34,8.34,0,0,0-6.15,2.69l.21-.22a8.38,8.38,0,0,1,2.61-1.77,8.35,8.35,0,0,1,6.39,0,7.85,7.85,0,0,1,2.61,1.77,8.38,8.38,0,0,1,1.77,2.61,8.43,8.43,0,0,1,0,6.42,7.85,7.85,0,0,1-1.77,2.61,8.38,8.38,0,0,1-2.61,1.77,8.59,8.59,0,0,1-3.21.64,8.29,8.29,0,0,1-3.18-.64,7.69,7.69,0,0,1-2.61-1.77,8.38,8.38,0,0,1-1.77-2.61,8,8,0,0,1-.64-3.21,8.5,8.5,0,0,1,.51-2.87,8.37,8.37,0,0,0,7.83,11.3C153.61,116.95,144.22,116.27,145.25,111.4Z"/><path class="cls-1" d="M129.65,111.74a8.38,8.38,0,0,0,1.77,2.61,7.69,7.69,0,0,0,2.61,1.77,8.29,8.29,0,0,0,3.18.64,8.59,8.59,0,0,0,3.21-.64,8.38,8.38,0,0,0,2.61-1.77,7.85,7.85,0,0,0,1.77-2.61,8.43,8.43,0,0,0,0-6.42,8.38,8.38,0,0,0-1.77-2.61,7.85,7.85,0,0,0-2.61-1.77,8.35,8.35,0,0,0-6.39,0,8.38,8.38,0,0,0-2.61,1.77l-.21.22a8.36,8.36,0,0,0-1.69,2.74,8.5,8.5,0,0,0-.51,2.87A8,8,0,0,0,129.65,111.74Zm2.81-5.29a5.75,5.75,0,0,1,1.1-1.71,5.84,5.84,0,0,1,1.64-1.17,4.52,4.52,0,0,1,2-.43,4.42,4.42,0,0,1,2,.43,5.24,5.24,0,0,1,1.64,1.17,5.46,5.46,0,0,1,1.1,5.82,5.75,5.75,0,0,1-1.1,1.71,5.84,5.84,0,0,1-1.64,1.17,4.51,4.51,0,0,1-2,.43,4.62,4.62,0,0,1-2-.43,4.75,4.75,0,0,1-1.64-1.17,5.35,5.35,0,0,1-1.1-1.71,5.58,5.58,0,0,1-.4-2.07A5.29,5.29,0,0,1,132.46,106.46Z"/><path class="cls-5" d="M263.57,112.28a4.75,4.75,0,0,0,1.64,1.17,4.62,4.62,0,0,0,2,.43,4.51,4.51,0,0,0,2-.43,5.84,5.84,0,0,0,1.64-1.17,5.75,5.75,0,0,0,1.1-1.71,5.33,5.33,0,0,0,.4-2.07,5.44,5.44,0,0,0-1.51-3.75,5.24,5.24,0,0,0-1.64-1.17,4.42,4.42,0,0,0-2-.43,4.52,4.52,0,0,0-2,.43,5.84,5.84,0,0,0-1.64,1.17,5.75,5.75,0,0,0-1.1,1.71,5.29,5.29,0,0,0-.4,2,5.58,5.58,0,0,0,.4,2.07A5.35,5.35,0,0,0,263.57,112.28Z"/><path class="cls-1" d="M275.25,111.4c1.46-6.86-3.28-11.16-7.9-11.16a8.34,8.34,0,0,0-6.15,2.69l.21-.22a8.38,8.38,0,0,1,2.61-1.77,8.35,8.35,0,0,1,6.39,0,7.85,7.85,0,0,1,2.61,1.77,8.38,8.38,0,0,1,1.77,2.61,8.43,8.43,0,0,1,0,6.42,7.85,7.85,0,0,1-1.77,2.61,8.38,8.38,0,0,1-2.61,1.77,8.59,8.59,0,0,1-3.21.64,8.29,8.29,0,0,1-3.18-.64,7.69,7.69,0,0,1-2.61-1.77,8.38,8.38,0,0,1-1.77-2.61,8,8,0,0,1-.64-3.21,8.5,8.5,0,0,1,.51-2.87,8.37,8.37,0,0,0,7.83,11.3C283.61,116.95,274.22,116.27,275.25,111.4Z"/><path class="cls-1" d="M259.65,111.74a8.38,8.38,0,0,0,1.77,2.61,7.69,7.69,0,0,0,2.61,1.77,8.29,8.29,0,0,0,3.18.64,8.59,8.59,0,0,0,3.21-.64,8.38,8.38,0,0,0,2.61-1.77,7.85,7.85,0,0,0,1.77-2.61,8.43,8.43,0,0,0,0-6.42,8.38,8.38,0,0,0-1.77-2.61,7.85,7.85,0,0,0-2.61-1.77,8.35,8.35,0,0,0-6.39,0,8.38,8.38,0,0,0-2.61,1.77l-.21.22a8.36,8.36,0,0,0-1.69,2.74,8.5,8.5,0,0,0-.51,2.87A8,8,0,0,0,259.65,111.74Zm2.81-5.29a5.75,5.75,0,0,1,1.1-1.71,5.84,5.84,0,0,1,1.64-1.17,4.52,4.52,0,0,1,2-.43,4.42,4.42,0,0,1,2,.43,5.24,5.24,0,0,1,1.64,1.17,5.46,5.46,0,0,1,1.1,5.82,5.75,5.75,0,0,1-1.1,1.71,5.84,5.84,0,0,1-1.64,1.17,4.51,4.51,0,0,1-2,.43,4.62,4.62,0,0,1-2-.43,4.75,4.75,0,0,1-1.64-1.17,5.35,5.35,0,0,1-1.1-1.71,5.58,5.58,0,0,1-.4-2.07A5.29,5.29,0,0,1,262.46,106.46Z"/><path class="cls-2" d="M408.37,82.21c-24.61,5.23-40-11.76-40-28.32a29.91,29.91,0,0,1,9.65-22c-.26.25-.52.5-.78.77A30.05,30.05,0,0,0,370.85,42a28.45,28.45,0,0,0-2.28,11.4,28.61,28.61,0,0,0,2.28,11.52,28.14,28.14,0,0,0,6.36,9.36,30.05,30.05,0,0,0,9.36,6.36,30.24,30.24,0,0,0,23,0A28.14,28.14,0,0,0,419,74.25a30.05,30.05,0,0,0,6.36-9.36,30.8,30.8,0,0,0,2.28-11.52A29.72,29.72,0,0,0,425.33,42,27.59,27.59,0,0,0,419,32.62a30.05,30.05,0,0,0-9.36-6.36A28.61,28.61,0,0,0,398.09,24a30.49,30.49,0,0,0-10.28,1.82,30,30,0,0,1,40.52,28.09C428.28,112.2,425.84,78.5,408.37,82.21Z"/><path class="cls-2" d="M398.09,24a30.49,30.49,0,0,0-10.28,1.82A30,30,0,0,0,378,31.85c-.26.25-.52.5-.78.77A30.05,30.05,0,0,0,370.85,42a28.45,28.45,0,0,0-2.28,11.4,28.61,28.61,0,0,0,2.28,11.52,28.14,28.14,0,0,0,6.36,9.36,30.05,30.05,0,0,0,9.36,6.36,30.24,30.24,0,0,0,23,0A28.14,28.14,0,0,0,419,74.25a30.05,30.05,0,0,0,6.36-9.36,30.8,30.8,0,0,0,2.28-11.52A29.72,29.72,0,0,0,425.33,42,27.59,27.59,0,0,0,419,32.62a30.05,30.05,0,0,0-9.36-6.36A28.61,28.61,0,0,0,398.09,24ZM398,34.9a20,20,0,0,1,7.44,1.44,19.21,19.21,0,0,1,6.12,4,17.05,17.05,0,0,1,4.2,5.88,16.56,16.56,0,0,1,1.56,7.2,16.19,16.19,0,0,1-1.56,7.2,21,21,0,0,1-4.2,5.88,20.63,20.63,0,0,1-6.12,4A19.12,19.12,0,0,1,398,71.85a19.52,19.52,0,0,1-13.44-5.4,18.8,18.8,0,0,1-4.2-5.88,15.84,15.84,0,0,1-1.56-7.2,16.19,16.19,0,0,1,1.56-7.2,20.94,20.94,0,0,1,4.2-5.88,20.63,20.63,0,0,1,6.12-4A19,19,0,0,1,398,34.9Z"/><path class="cls-2" d="M416,115.17c-6.59,1.4-10.72-3.15-10.72-7.59a8,8,0,0,1,2.59-5.9l-.21.21a8,8,0,0,0-1.7,2.51,8,8,0,0,0,0,6.14,7.54,7.54,0,0,0,1.7,2.51,8,8,0,0,0,2.51,1.7,8.1,8.1,0,0,0,6.17,0,7.54,7.54,0,0,0,2.51-1.7,8,8,0,0,0,1.7-2.51,8.25,8.25,0,0,0,.61-3.09,8,8,0,0,0-.61-3.05,7.39,7.39,0,0,0-1.7-2.51,8.05,8.05,0,0,0-2.51-1.7,7.66,7.66,0,0,0-3.09-.61,8.17,8.17,0,0,0-2.75.49,8,8,0,0,1,10.85,7.53C421.38,123.2,420.73,114.18,416,115.17Z"/><path class="cls-2" d="M413.29,99.57a8.17,8.17,0,0,0-2.75.49,8,8,0,0,0-2.63,1.62l-.21.21a8,8,0,0,0-1.7,2.51,8,8,0,0,0,0,6.14,7.54,7.54,0,0,0,1.7,2.51,8,8,0,0,0,2.51,1.7,8.1,8.1,0,0,0,6.17,0,7.54,7.54,0,0,0,2.51-1.7,8,8,0,0,0,1.7-2.51,8.25,8.25,0,0,0,.61-3.09,8,8,0,0,0-.61-3.05,7.39,7.39,0,0,0-1.7-2.51,8.05,8.05,0,0,0-2.51-1.7A7.66,7.66,0,0,0,413.29,99.57Zm0,2.92a5.36,5.36,0,0,1,2,.39,5.14,5.14,0,0,1,1.64,1.06,4.57,4.57,0,0,1,1.12,1.57,4.44,4.44,0,0,1,.42,1.93,4.34,4.34,0,0,1-.42,1.93,5.61,5.61,0,0,1-1.12,1.57,5.53,5.53,0,0,1-1.64,1.06,5.12,5.12,0,0,1-2,.39,5.23,5.23,0,0,1-3.6-1.45,5,5,0,0,1-1.12-1.57,4.24,4.24,0,0,1-.42-1.93,4.34,4.34,0,0,1,.42-1.93,5.61,5.61,0,0,1,1.12-1.57,5.53,5.53,0,0,1,1.64-1.06A5.08,5.08,0,0,1,413.26,102.5Z"/><circle class="cls-2" cx="63.42" cy="99.69" r="11.82"/><circle class="cls-2" cx="87.42" cy="99.69" r="11.82"/></svg>