<svg id="Capa_1" data-name="Capa 1" xmlns="http://www.w3.org/2000/svg" viewBox="0 0 147.47 141.51"><defs><style>.cls-1{fill:#74acdf;}.cls-1,.cls-3{stroke:#74acdf;}.cls-1,.cls-2,.cls-3{stroke-miterlimit:10;}.cls-2{fill:#fff;stroke:#fff;}.cls-3{fill:none;}</style></defs><title>autoqe_sq_w</title><path id="_Trazado_compuesto_" data-name="&lt;Trazado compuesto&gt;" class="cls-1" d="M124.94,228a3.36,3.36,0,0,1-1.11-2.59V213.54c0-2.22-.56-2.41-1.85-.56a31.44,31.44,0,0,1-1.85,2.59,24.22,24.22,0,0,1-2,2.22,36.08,36.08,0,0,1-7.23,5.19,42.94,42.94,0,0,1-8.15,3,45.8,45.8,0,0,1-8.15.93,41.83,41.83,0,0,1-17.42-3.52,47.27,47.27,0,0,1-14.27-9.64,44.26,44.26,0,0,1-9.64-14.08,43.69,43.69,0,0,1-3.52-17.42,46.4,46.4,0,0,1,3.52-17.42,48.81,48.81,0,0,1,9.64-14.08,47.27,47.27,0,0,1,14.27-9.64,43.06,43.06,0,0,1,17.42-3.52A54.44,54.44,0,0,1,112,140.34,37.7,37.7,0,0,1,126.06,149a39.57,39.57,0,0,1,9.64,14.82,61.83,61.83,0,0,1,3.52,21.31V225.4a3.8,3.8,0,0,1-3.71,3.71h-8A3.36,3.36,0,0,1,124.94,228ZM83.43,156.65a25.84,25.84,0,0,0-8.89,5.93,30.38,30.38,0,0,0-6.12,8.89,25.35,25.35,0,0,0-2.22,10.75,26.82,26.82,0,0,0,2.22,10.93,30.93,30.93,0,0,0,6.12,8.71,25,25,0,0,0,8.89,5.93A28.36,28.36,0,0,0,94.55,210a26.82,26.82,0,0,0,10.93-2.22,25.84,25.84,0,0,0,8.89-5.93,24.46,24.46,0,0,0,6.3-8.71,26.82,26.82,0,0,0,2.22-10.93,26,26,0,0,0-2.22-10.75,28.56,28.56,0,0,0-6.3-8.89,26.74,26.74,0,0,0-8.89-5.93,27.47,27.47,0,0,0-10.93-2.22A29.74,29.74,0,0,0,83.43,156.65Z"/><path id="_Trazado_compuesto_2" data-name="&lt;Trazado compuesto&gt;" class="cls-2" d="M106.83,213.9l.14,7.88a3.76,3.76,0,0,1-3.6,3.73l-48.74.71a61.14,61.14,0,0,1-21.13-3.1,39.13,39.13,0,0,1-14.83-9.26A37.28,37.28,0,0,1,9.81,200.1a53.83,53.83,0,0,1-3.06-17.17,42.58,42.58,0,0,1,3.17-17.28,46.74,46.74,0,0,1,9.27-14.28,48.26,48.26,0,0,1,13.75-9.78,45.88,45.88,0,0,1,17.16-3.79A43.21,43.21,0,0,1,67.38,141a43.76,43.76,0,0,1,14.1,9.27,46.74,46.74,0,0,1,9.78,13.93,41.36,41.36,0,0,1,3.79,17.16,45.28,45.28,0,0,1-.77,8.08,42.46,42.46,0,0,1-2.79,8.11,35.67,35.67,0,0,1-5,7.24,24,24,0,0,1-2.16,2.06,31.08,31.08,0,0,1-2.53,1.88c-1.81,1.32-1.62,1.86.58,1.82l20.71-.21a3.76,3.76,0,0,1,3.73,3.6ZM23,182.2a27.47,27.47,0,0,0,2.42,10.89,26.74,26.74,0,0,0,6.09,8.79,28.56,28.56,0,0,0,9,6.14,26,26,0,0,0,10.79,2,26.82,26.82,0,0,0,10.89-2.42,24.46,24.46,0,0,0,8.59-6.46,25.84,25.84,0,0,0,5.77-9,26.82,26.82,0,0,0,2-11,28.36,28.36,0,0,0-2.42-11.08,25,25,0,0,0-6.09-8.79,30.93,30.93,0,0,0-8.82-6,26.82,26.82,0,0,0-11-2,25.35,25.35,0,0,0-10.71,2.42A30.38,30.38,0,0,0,30.83,162a25.84,25.84,0,0,0-5.77,9A29.74,29.74,0,0,0,23,182.2Z"/><path id="_Trazado_compuesto_3" data-name="&lt;Trazado compuesto&gt;" class="cls-2" d="M81.63,223.4a3.41,3.41,0,0,1-1.08-2.59v-8.65c0-2.22-.54-2.41-1.81-.56a31.44,31.44,0,0,1-1.81,2.59,24,24,0,0,1-2,2.22,35.22,35.22,0,0,1-7,5.19,41.21,41.21,0,0,1-8,3,43.6,43.6,0,0,1-8,.93A39.93,39.93,0,0,1,35,222a46.06,46.06,0,0,1-13.92-9.64,44.33,44.33,0,0,1-12.83-31.5,47.42,47.42,0,0,1,3.43-17.42,48.87,48.87,0,0,1,9.4-14.08A46.06,46.06,0,0,1,35,139.69a41.1,41.1,0,0,1,17-3.52A51.9,51.9,0,0,1,69,139a36.64,36.64,0,0,1,13.73,8.71,39.68,39.68,0,0,1,9.4,14.82,63.25,63.25,0,0,1,3.43,21.31v37a3.7,3.7,0,0,1-1.08,2.59,3.53,3.53,0,0,1-2.53,1.11H84.16A3.24,3.24,0,0,1,81.63,223.4Zm-41.7-67.8A25.84,25.84,0,0,0,31,161.52a30.38,30.38,0,0,0-6.12,8.89,25.35,25.35,0,0,0-2.22,10.75,26.82,26.82,0,0,0,2.22,10.93A30.93,30.93,0,0,0,31,200.81a25,25,0,0,0,8.89,5.93A28.36,28.36,0,0,0,51,209,26.82,26.82,0,0,0,62,206.74a25.84,25.84,0,0,0,8.89-5.93,24.46,24.46,0,0,0,6.3-8.71,26.82,26.82,0,0,0,2.22-10.93,26,26,0,0,0-2.22-10.75,28.56,28.56,0,0,0-6.3-8.89A26.74,26.74,0,0,0,62,155.59,27.47,27.47,0,0,0,51,153.37,29.74,29.74,0,0,0,39.93,155.59Z"/><path id="_Trazado_compuesto_4" data-name="&lt;Trazado compuesto&gt;" class="cls-3" d="M124.94,228a3.36,3.36,0,0,1-1.11-2.59V213.54c0-2.22-.56-2.41-1.85-.56a31.44,31.44,0,0,1-1.85,2.59,24.22,24.22,0,0,1-2,2.22,36.08,36.08,0,0,1-7.23,5.19,42.94,42.94,0,0,1-8.15,3,45.8,45.8,0,0,1-8.15.93,41.83,41.83,0,0,1-17.42-3.52,47.27,47.27,0,0,1-14.27-9.64,44.26,44.26,0,0,1-9.64-14.08,43.69,43.69,0,0,1-3.52-17.42,46.4,46.4,0,0,1,3.52-17.42,48.81,48.81,0,0,1,9.64-14.08,47.27,47.27,0,0,1,14.27-9.64,43.06,43.06,0,0,1,17.42-3.52A54.44,54.44,0,0,1,112,140.34,37.7,37.7,0,0,1,126.06,149a39.57,39.57,0,0,1,9.64,14.82,61.83,61.83,0,0,1,3.52,21.31V225.4a3.8,3.8,0,0,1-3.71,3.71h-8A3.36,3.36,0,0,1,124.94,228ZM83.43,156.65a25.84,25.84,0,0,0-8.89,5.93,30.38,30.38,0,0,0-6.12,8.89,25.35,25.35,0,0,0-2.22,10.75,26.82,26.82,0,0,0,2.22,10.93,30.93,30.93,0,0,0,6.12,8.71,25,25,0,0,0,8.89,5.93A28.36,28.36,0,0,0,94.55,210a26.82,26.82,0,0,0,10.93-2.22,25.84,25.84,0,0,0,8.89-5.93,24.46,24.46,0,0,0,6.3-8.71,26.82,26.82,0,0,0,2.22-10.93,26,26,0,0,0-2.22-10.75,28.56,28.56,0,0,0-6.3-8.89,26.74,26.74,0,0,0-8.89-5.93,27.47,27.47,0,0,0-10.93-2.22A29.74,29.74,0,0,0,83.43,156.65Z"/><path id="_Trazado_compuesto_5" data-name="&lt;Trazado compuesto&gt;" class="cls-1" d="M124.94,118a3.36,3.36,0,0,1-1.11-2.59V103.54c0-2.22-.56-2.41-1.85-.56a31.44,31.44,0,0,1-1.85,2.59,24.22,24.22,0,0,1-2,2.22,36.08,36.08,0,0,1-7.23,5.19,42.94,42.94,0,0,1-8.15,3,45.8,45.8,0,0,1-8.15.93,41.83,41.83,0,0,1-17.42-3.52,47.27,47.27,0,0,1-14.27-9.64,44.26,44.26,0,0,1-9.64-14.08,43.69,43.69,0,0,1-3.52-17.42A46.4,46.4,0,0,1,53.23,54.8a48.81,48.81,0,0,1,9.64-14.08,47.27,47.27,0,0,1,14.27-9.64,43.06,43.06,0,0,1,17.42-3.52A54.44,54.44,0,0,1,112,30.34,37.7,37.7,0,0,1,126.06,39a39.57,39.57,0,0,1,9.64,14.82,61.83,61.83,0,0,1,3.52,21.31V115.4a3.8,3.8,0,0,1-3.71,3.71h-8A3.36,3.36,0,0,1,124.94,118ZM83.43,46.65a25.84,25.84,0,0,0-8.89,5.93,30.38,30.38,0,0,0-6.12,8.89A25.35,25.35,0,0,0,66.2,72.22a26.82,26.82,0,0,0,2.22,10.93,30.93,30.93,0,0,0,6.12,8.71,25,25,0,0,0,8.89,5.93A28.36,28.36,0,0,0,94.55,100a26.82,26.82,0,0,0,10.93-2.22,25.84,25.84,0,0,0,8.89-5.93,24.46,24.46,0,0,0,6.3-8.71,26.82,26.82,0,0,0,2.22-10.93,26,26,0,0,0-2.22-10.75,28.56,28.56,0,0,0-6.3-8.89,26.74,26.74,0,0,0-8.89-5.93,27.47,27.47,0,0,0-10.93-2.22A29.74,29.74,0,0,0,83.43,46.65Z"/><path id="_Trazado_compuesto_6" data-name="&lt;Trazado compuesto&gt;" class="cls-2" d="M106.83,103.9l.14,7.88a3.76,3.76,0,0,1-3.6,3.73l-48.74.71a61.14,61.14,0,0,1-21.13-3.1,39.13,39.13,0,0,1-14.83-9.26A37.28,37.28,0,0,1,9.81,90.1,53.83,53.83,0,0,1,6.75,72.92,42.58,42.58,0,0,1,9.92,55.64a46.74,46.74,0,0,1,9.27-14.28,48.26,48.26,0,0,1,13.75-9.78A45.88,45.88,0,0,1,50.1,27.79,43.21,43.21,0,0,1,67.38,31a43.76,43.76,0,0,1,14.1,9.27,46.74,46.74,0,0,1,9.78,13.93,41.36,41.36,0,0,1,3.79,17.16,45.28,45.28,0,0,1-.77,8.08,42.46,42.46,0,0,1-2.79,8.11,35.67,35.67,0,0,1-5,7.24,24,24,0,0,1-2.16,2.06,31.08,31.08,0,0,1-2.53,1.88c-1.81,1.32-1.62,1.86.58,1.82l20.71-.21a3.76,3.76,0,0,1,3.73,3.6ZM23,72.2a27.47,27.47,0,0,0,2.42,10.89,26.74,26.74,0,0,0,6.09,8.79,28.56,28.56,0,0,0,9,6.14,26,26,0,0,0,10.79,2,26.82,26.82,0,0,0,10.89-2.42,24.46,24.46,0,0,0,8.59-6.46,25.84,25.84,0,0,0,5.77-9,26.82,26.82,0,0,0,2-11A28.36,28.36,0,0,0,76.2,60.11a25,25,0,0,0-6.09-8.79,30.93,30.93,0,0,0-8.82-6,26.82,26.82,0,0,0-11-2,25.35,25.35,0,0,0-10.71,2.42A30.38,30.38,0,0,0,30.83,52a25.84,25.84,0,0,0-5.77,9A29.74,29.74,0,0,0,23,72.2Z"/><path id="_Trazado_compuesto_7" data-name="&lt;Trazado compuesto&gt;" class="cls-2" d="M81.63,113.4a3.41,3.41,0,0,1-1.08-2.59v-8.65c0-2.22-.54-2.41-1.81-.56a31.44,31.44,0,0,1-1.81,2.59,24,24,0,0,1-2,2.22,35.22,35.22,0,0,1-7,5.19,41.21,41.21,0,0,1-8,3,43.6,43.6,0,0,1-8,.93A39.93,39.93,0,0,1,35,112a46.06,46.06,0,0,1-13.92-9.64A44.33,44.33,0,0,1,8.25,70.83a47.42,47.42,0,0,1,3.43-17.42,48.87,48.87,0,0,1,9.4-14.08A46.06,46.06,0,0,1,35,29.69a41.1,41.1,0,0,1,17-3.52A51.9,51.9,0,0,1,69,29a36.64,36.64,0,0,1,13.73,8.71,39.68,39.68,0,0,1,9.4,14.82A63.25,63.25,0,0,1,95.54,73.8v37a3.7,3.7,0,0,1-1.08,2.59,3.53,3.53,0,0,1-2.53,1.11H84.16A3.24,3.24,0,0,1,81.63,113.4Zm-41.7-67.8A25.84,25.84,0,0,0,31,51.52a30.38,30.38,0,0,0-6.12,8.89,25.35,25.35,0,0,0-2.22,10.75A26.82,26.82,0,0,0,24.92,82.1,30.93,30.93,0,0,0,31,90.81a25,25,0,0,0,8.89,5.93A28.36,28.36,0,0,0,51,99,26.82,26.82,0,0,0,62,96.74a25.84,25.84,0,0,0,8.89-5.93,24.46,24.46,0,0,0,6.3-8.71A26.82,26.82,0,0,0,79.4,71.17a26,26,0,0,0-2.22-10.75,28.56,28.56,0,0,0-6.3-8.89A26.74,26.74,0,0,0,62,45.59,27.47,27.47,0,0,0,51,43.37,29.74,29.74,0,0,0,39.93,45.59Z"/><path id="_Trazado_compuesto_8" data-name="&lt;Trazado compuesto&gt;" class="cls-3" d="M77.13,31.08a43.06,43.06,0,0,1,17.42-3.52A54.44,54.44,0,0,1,112,30.34,37.7,37.7,0,0,1,126.06,39a39.57,39.57,0,0,1,9.64,14.82,61.83,61.83,0,0,1,3.52,21.31V115.4a3.8,3.8,0,0,1-3.71,3.71h-8a3.8,3.8,0,0,1-3.71-3.71V103.54c0-2.22-.56-2.41-1.85-.56a31.44,31.44,0,0,1-1.85,2.59,24.22,24.22,0,0,1-2,2.22,36.08,36.08,0,0,1-7.23,5.19,42.94,42.94,0,0,1-8.15,3,45.8,45.8,0,0,1-8.15.93,41.83,41.83,0,0,1-17.42-3.52,47.27,47.27,0,0,1-14.27-9.64,44.26,44.26,0,0,1-9.64-14.08,43.69,43.69,0,0,1-3.52-17.42A46.4,46.4,0,0,1,53.23,54.8m15.2,6.67A25.35,25.35,0,0,0,66.2,72.22a26.82,26.82,0,0,0,2.22,10.93,30.93,30.93,0,0,0,6.12,8.71,25,25,0,0,0,8.89,5.93A28.36,28.36,0,0,0,94.55,100a26.82,26.82,0,0,0,10.93-2.22,25.84,25.84,0,0,0,8.89-5.93,24.46,24.46,0,0,0,6.3-8.71,26.82,26.82,0,0,0,2.22-10.93,26,26,0,0,0-2.22-10.75,28.56,28.56,0,0,0-6.3-8.89,26.74,26.74,0,0,0-8.89-5.93,27.47,27.47,0,0,0-10.93-2.22"/></svg>