<svg id="Capa_1" data-name="Capa 1" xmlns="http://www.w3.org/2000/svg" viewBox="0 0 77.3 74.17"><defs><style>.cls-1{fill:#74acdf;}.cls-2{fill:#122b40;opacity:0.9;}</style></defs><title>autoqe_4</title><circle class="cls-1" cx="38.65" cy="60.33" r="13.85"/><path class="cls-2" d="M5.4,30.55A30.66,30.66,0,0,0,36.24,61.39c59.94-.05,25.3-2.56,29.12-20.52C70.74,15.58,53.27-.28,36.24-.28A30.84,30.84,0,0,0,5.4,30.55Zm29.72-1.77a6.56,6.56,0,1,1,6.56,6.56A6.56,6.56,0,0,1,35.13,28.79Zm-22.74,0a6.56,6.56,0,1,1,6.56,6.56A6.56,6.56,0,0,1,12.38,28.79Z"/></svg>