<svg id="Capa_1" data-name="Capa 1" xmlns="http://www.w3.org/2000/svg" viewBox="0 0 141.73 141.73">
    <defs>
        <style>.cls-1{fill:#b0b0b0;}.cls-2{fill:#122b40;}</style>
    </defs>
    <title>carp</title>
    <path id="_Trazado_compuesto_4" data-name=" Trazado compuesto 4" class="cls-1"
          d="M29.62,75.8h0a13.9,13.9,0,0,0-17.78-8.39l-.1,0h0C5.08,69.6.82,77.72,2,84.81l2.9,19,16.89-9.56C28.19,90.85,31.77,82.47,29.62,75.8Zm-15,8.72a5.11,5.11,0,0,1-2.28-6.3A5.11,5.11,0,0,1,18.66,76a5.11,5.11,0,0,1,2.27,6.27,4.61,4.61,0,0,1-6.05,2.43l-.27-.13Z"/>
    <path id="_Trazado_compuesto_5" data-name=" Trazado compuesto 5" class="cls-1"
          d="M2.68,122.22h0a13.9,13.9,0,0,0,18.1,7.67l.1,0h0c6.57-2.41,10.5-10.7,9-17.74L26.21,93.22,9.73,103.45C3.5,107.13.26,115.65,2.68,122.22Zm14.64-9.32a5.11,5.11,0,0,1,2.53,6.23,5.11,5.11,0,0,1-6.23,2.53,5.11,5.11,0,0,1-2.53-6.23,4.61,4.61,0,0,1,6-2.63l.27.11Z"/>
    <path id="_Trazado_compuesto_6" data-name=" Trazado compuesto 6" class="cls-1"
          d="M124,64.58h0a14.86,14.86,0,0,0-17.68,11.35l0,.12h0c-1.83,7.26,3.12,15.73,10.23,18.65l18.9,8.16.9-20.73C136.87,74.41,131.29,66.41,124,64.58Zm-.6,18.55a5.08,5.08,0,1,1-5.68-8.43l.18-.11a5.46,5.46,0,0,1,7,1.52A4.93,4.93,0,0,1,123.67,83l-.24.16Z"/>
    <path id="_Trazado_compuesto_7" data-name=" Trazado compuesto 7" class="cls-1"
          d="M123.82,131.22h0a13.9,13.9,0,0,0,16.35-10.91l0-.09h0c1.6-6.82-3.17-14.65-9.86-17.27l-17.8-7.33L112,115C111.66,122.22,117,129.64,123.82,131.22Zm.27-17.36a4.75,4.75,0,1,1-1.31,6.59,4.61,4.61,0,0,1,1.11-6.42l.2-.14Z"/>
    <path id="_Trazado_compuesto_8" data-name=" Trazado compuesto 8" class="cls-1"
          d="M34.64,76.22h0a9,9,0,0,0,9.19-8.81v0h0c.25-4.52-3.66-9-8.21-9.9L23.46,54.8l1.85,12.42C25.9,71.85,30.12,76,34.64,76.22ZM32.87,65.13a3.07,3.07,0,1,1-.1,4.34h0a3,3,0,0,1,0-4.24Z"/>
    <path id="_Trazado_compuesto_9" data-name=" Trazado compuesto 9" class="cls-1"
          d="M53.67,55.84h0a10.17,10.17,0,0,0-8.44,11.64v.08h0c.64,5.08,5.9,9.24,11.16,9.34l14.08.49L65.89,64C64.29,58.91,58.75,55.22,53.67,55.84Zm4.23,12a3.48,3.48,0,1,1-5.63-4.07A3.74,3.74,0,0,1,57.12,63,3.37,3.37,0,0,1,58,67.67l-.1.14Z"/>
    <path id="_Trazado_compuesto_10" data-name=" Trazado compuesto 10" class="cls-1"
          d="M81.45,76.34h0a10.17,10.17,0,0,0,7.67-12.17l0-.07h0c-1-5-6.5-8.84-11.75-8.59l-14.08.43,5.45,13.11C70.65,74,76.43,77.31,81.45,76.34Zm-5-11.67a3.48,3.48,0,1,1,1.1,4.8h0a3.37,3.37,0,0,1-1.2-4.61Z"/>
    <path id="_Trazado_compuesto_11" data-name=" Trazado compuesto 11" class="cls-1"
          d="M90.25,68.91h0a9.27,9.27,0,0,0,10.13,8.32h.09c4.66-.31,8.72-4.89,9.09-9.66l1.19-12.79L98.28,58.22C93.6,59.4,89.93,64.22,90.25,68.91Zm11.12-3.22a3.17,3.17,0,1,1-4.46.45h0a3.08,3.08,0,0,1,4.32-.57Z"/>
    <path id="_Trazado_compuesto_12" data-name=" Trazado compuesto 12" class="cls-1"
          d="M8.41,60.89h0a6.8,6.8,0,0,0,7.9,5.49l.1,0h0c3.39-.5,6.1-4.08,6.08-7.6l.13-9.42L13.7,52.6A8,8,0,0,0,8.41,60.89Zm7.63-3a2.5,2.5,0,0,1,.59,3.23,2.5,2.5,0,0,1-3.23.59,2.5,2.5,0,0,1-.59-3.23,2.26,2.26,0,0,1,3.13-.64l.06,0Z"/>
    <path id="_Trazado_compuesto_13" data-name=" Trazado compuesto 13" class="cls-1"
          d="M3.39,41h0a6.8,6.8,0,0,0-.65,9.59l0,0h0C4.94,53.31,9.4,53.8,12.41,52l8.15-4.72-7.37-6A8,8,0,0,0,3.39,41ZM10,46.32a2.5,2.5,0,0,1-2.47,2.16,2.33,2.33,0,0,1,.31-4.64A2.26,2.26,0,0,1,10,46.19S10,46.28,10,46.32Z"/>
    <path id="_Trazado_compuesto_14" data-name=" Trazado compuesto 14" class="cls-1"
          d="M28.51,34.1h0a6.8,6.8,0,0,0-9.61.41l0,0h0c-2.4,2.44-2.39,6.93-.26,9.73l5.59,7.58,5.14-8A8,8,0,0,0,28.51,34.1ZM24,41.29a2.32,2.32,0,0,1-.2-4.64,2.5,2.5,0,0,1,2.42,2.22,2.26,2.26,0,0,1-2.09,2.41Z"/>
    <path id="_Trazado_compuesto_15" data-name=" Trazado compuesto 15" class="cls-1"
          d="M128.54,43.9l-7.37,6,8.15,4.72c3,1.81,7.47,1.32,9.64-1.33h0a6.8,6.8,0,0,0-.58-9.6l0,0h0A8,8,0,0,0,128.54,43.9Zm5.32,2.55a2.32,2.32,0,1,1-2.16,2.47,2.26,2.26,0,0,1,2-2.46Z"/>
    <path id="_Trazado_compuesto_16" data-name=" Trazado compuesto 16" class="cls-1"
          d="M123.78,53.59h0a6.33,6.33,0,0,0-7.64-4.67h-.05c-3.12.64-5.45,4.12-5.26,7.39l.38,8.77,8.12-3.5A7.49,7.49,0,0,0,123.78,53.59Zm-7.23,3.21a2.17,2.17,0,1,1,3-.72,2.1,2.1,0,0,1-2.85.82l-.15-.09Z"/>
    <path id="_Trazado_compuesto_17" data-name=" Trazado compuesto 17" class="cls-1"
          d="M123.81,63.45h0a3.91,3.91,0,0,0,5.49-.68v0h0a4.48,4.48,0,0,0-.3-5.58l-3.55-4.09-2.58,4.81A4.62,4.62,0,0,0,123.81,63.45Zm2.26-4.33a1.34,1.34,0,1,1-1.16,1.5h0A1.3,1.3,0,0,1,126,59.13h.07Z"/>
    <path id="_Trazado_compuesto_18" data-name=" Trazado compuesto 18" class="cls-1"
          d="M29.41,23.59h0a4.41,4.41,0,0,0-6,1.65h0a5.07,5.07,0,0,0,1.21,6.2l4.61,4,2.13-5.79A5.22,5.22,0,0,0,29.41,23.59Zm-1.84,5.2a1.51,1.51,0,1,1,1.06-1.85h0a1.46,1.46,0,0,1-1,1.82Z"/>
    <path id="_Trazado_compuesto_19" data-name=" Trazado compuesto 19" class="cls-1"
          d="M30.38,36.08h0a3.17,3.17,0,0,0,4.47-.29l0,0h0a3.64,3.64,0,0,0,0-4.54l-2.68-3.48L29.9,31.53A3.75,3.75,0,0,0,30.38,36.08Zm2-3.4a1.08,1.08,0,1,1-1,1.15h0a1,1,0,0,1,.95-1.15h.05Z"/>
    <path id="_Trazado_compuesto_20" data-name=" Trazado compuesto 20" class="cls-1"
          d="M39.3,33.17h0a3.17,3.17,0,0,0,2.32-3.84v0h0a3.64,3.64,0,0,0-3.72-2.61l-4.39.22L35.28,31A3.75,3.75,0,0,0,39.3,33.17Zm-1.63-3.61A1.08,1.08,0,1,1,38,31.05h0a1,1,0,0,1-.36-1.44Z"/>
    <path id="_Trazado_compuesto_21" data-name=" Trazado compuesto 21" class="cls-1"
          d="M42.88,76.51h0A18.79,18.79,0,0,0,29.2,99.29l0,.15h0c2,9.25,12.36,16.07,22,15.4l26-1.35-10.6-24C62.94,80.45,52.13,74.52,42.88,76.51ZM52.6,97.87a6.91,6.91,0,0,1-8.81,2.21,6.91,6.91,0,0,1-2.21-8.81,6.91,6.91,0,0,1,8.81-2.21,6.24,6.24,0,0,1,2.4,8.49Z"/>
    <path id="_Trazado_compuesto_22" data-name=" Trazado compuesto 22" class="cls-1"
          d="M96.61,114.46h0a18.21,18.21,0,0,0,13.23-22.1l0-.14h0c-1.94-9-12-15.56-21.37-14.91L63.24,78.65,73.53,101.9C77.17,110.65,87.64,116.39,96.61,114.46Zm-9.43-20.7a6.22,6.22,0,0,1,10.68,6.39h0a6.69,6.69,0,0,1-8.54,2.15,6,6,0,0,1-2.38-8.15Q87.06,94,87.18,93.76Z"/>
    <path id="_Trazado_compuesto_23" data-name=" Trazado compuesto 23" class="cls-1"
          d="M61.29,10.29h0a6.67,6.67,0,0,0-5.54,7.64V18h0c.42,3.33,3.88,6.07,7.33,6.13l9.24.32-3-8.82A7.89,7.89,0,0,0,61.29,10.29Zm2.78,7.86a2.28,2.28,0,0,1-3.7-2.67A2.45,2.45,0,0,1,63.56,15,2.21,2.21,0,0,1,64.15,18Z"/>
    <path id="_Trazado_compuesto_24" data-name=" Trazado compuesto 24" class="cls-1"
          d="M78.27,23h0A6,6,0,0,0,83,16h0c-.48-3-3.65-5.28-6.73-5.23H68l3,7.77A7,7,0,0,0,78.27,23Zm-2.73-6.51a2,2,0,0,1,3.38,2.27,2.19,2.19,0,0,1-2.82.56,2,2,0,0,1-.6-2.76Z"/>
    <path id="_Trazado_compuesto_25" data-name=" Trazado compuesto 25" class="cls-1"
          d="M33.89,13.6h0a6.25,6.25,0,0,0-5.19,7.16v0h0c.39,3.12,3.63,5.68,6.86,5.74l8.65.3L41.4,18.59A7.38,7.38,0,0,0,33.89,13.6ZM36.49,21A2.14,2.14,0,1,1,33,18.46h0A2.3,2.3,0,0,1,36,18a2.07,2.07,0,0,1,.58,2.87L36.5,21Z"/>
    <path id="_Trazado_compuesto_26" data-name=" Trazado compuesto 26" class="cls-1"
          d="M50.68,24.55h0a6.25,6.25,0,0,0,4.71-7.48v0h0c-.6-3.09-4-5.43-7.22-5.28L39.51,12l3.35,8.05A7.38,7.38,0,0,0,50.68,24.55ZM47.6,17.38a2.14,2.14,0,0,1,3.75,2.06l-.13.21a2.3,2.3,0,0,1-2.94.67,2.07,2.07,0,0,1-.75-2.83Z"/>
    <path id="_Trazado_compuesto_27" data-name=" Trazado compuesto 27" class="cls-1"
          d="M112.65,40.06l3.86,8.67,6.68-6.64c2.54-2.44,3.22-6.87,1.23-9.65h0A6.8,6.8,0,0,0,115,30.53h0A8,8,0,0,0,112.65,40.06Zm3.85-4.48a2.32,2.32,0,1,1,1.83,2.73,2.26,2.26,0,0,1-1.86-2.6l0-.12Z"/>
    <path id="_Trazado_compuesto_28" data-name=" Trazado compuesto 28" class="cls-1"
          d="M111.33,24.35l.53,5,4.48-2.27a4.16,4.16,0,0,0,2.21-4.69h0a3.62,3.62,0,0,0-4.45-2.53h0A4.28,4.28,0,0,0,111.33,24.35ZM114,22.71a1.24,1.24,0,1,1,.48,1.69,1.2,1.2,0,0,1-.52-1.61Z"/>
    <path id="_Trazado_compuesto_29" data-name=" Trazado compuesto 29" class="cls-1"
          d="M111.75,29.07l-1.22-4.13L107,27.42a3.41,3.41,0,0,0-1.18,4.21h0a3.26,3.26,0,0,0,4.24,1.52h0A3.51,3.51,0,0,0,111.75,29.07Zm-2.06,1.72a1.09,1.09,0,1,1-.67-1.35,1,1,0,0,1,.71,1.22Z"/>
    <path id="_Trazado_compuesto_30" data-name=" Trazado compuesto 30" class="cls-1"
          d="M99.4,17.36l-4.92,7.2,8.41,2c3.13.81,6.93-.79,8.14-3.69h0a6.25,6.25,0,0,0-3-8.3h0A7.38,7.38,0,0,0,99.4,17.36Zm5.35.85a2.3,2.3,0,0,1,2.74,1.26,2.14,2.14,0,1,1-4,1.49,2.07,2.07,0,0,1,1.14-2.7l.12,0Z"/>
    <path id="_Trazado_compuesto_31" data-name=" Trazado compuesto 31" class="cls-1"
          d="M95.75,19.87l5.2-7-8.33-2.35c-3.09-.93-7,.52-8.28,3.37h0A6.25,6.25,0,0,0,87,22.31l0,0h0A7.38,7.38,0,0,0,95.75,19.87Zm-5.32-1.06a2.3,2.3,0,0,1-2.69-1.36,2.14,2.14,0,1,1,4.06-1.33,2.07,2.07,0,0,1-1.25,2.65Z"/>
    <path id="_Trazado_compuesto_" data-name=" Trazado compuesto " class="cls-2"
          d="M51,34.22h0a11.17,11.17,0,0,0-14.23,6.85l0,.08h0c-2,5.24.88,12,5.92,14.85L56,63.83l2.6-15.38C59.69,42.74,56.27,36.22,51,34.22ZM48.87,48a4.11,4.11,0,0,1-5.1-1.79,4.11,4.11,0,0,1,1.78-5.1,4.11,4.11,0,0,1,5.1,1.78,3.71,3.71,0,0,1-1.57,5Z"/>
    <path id="_Trazado_compuesto_2" data-name=" Trazado compuesto 2" class="cls-2"
          d="M74,29.65h0a8.64,8.64,0,0,0-12.22-.3l0,0h0C58.49,32.28,58.11,38,60.58,41.7L67,51.79l7.2-9.68C76.93,38.56,76.85,32.9,74,29.65Zm-6.34,8.73a3.18,3.18,0,0,1-2.88-3,3,3,0,0,1,5.9.14,2.87,2.87,0,0,1-2.87,2.87h-.15Z"/>
    <path id="_Trazado_compuesto_3" data-name=" Trazado compuesto 3" class="cls-2"
          d="M108.8,43.38h0A13.9,13.9,0,0,0,93.86,30.61H93.8c-7,.31-13.24,7-14,14.18L77.59,63.91,96.4,59.14C103.45,57.52,109.12,50.37,108.8,43.38ZM92,47.83a5.11,5.11,0,0,1-.53-6.7A4.75,4.75,0,0,1,98.7,47.3a4.61,4.61,0,0,1-6.48.72Z"/>
</svg>