<svg id="Capa_1" data-name="Capa 1" xmlns="http://www.w3.org/2000/svg" viewBox="0 0 141.73 141.73">
    <defs>
        <style>.cls-1{fill:#e8a135;}.cls-2{fill:#b0b0b0;}</style>
    </defs>
    <title>el</title>
    <path id="_Trazado_compuesto_" data-name=" Trazado compuesto " class="cls-1"
          d="M117.45,83.78l4.54-.3-1.89-4.11A3.74,3.74,0,0,0,116,77.22h0a3.26,3.26,0,0,0-2.44,3.91v0h0A3.86,3.86,0,0,0,117.45,83.78Zm-1.38-2.47a1.12,1.12,0,1,1,1.54-.38h0a1.08,1.08,0,0,1-1.46.45l-.07,0Z"/>
    <path id="_Trazado_compuesto_2" data-name=" Trazado compuesto 2" class="cls-1"
          d="M123.59,79.56h0a2.32,2.32,0,0,0,1.56-2.89h0a2.66,2.66,0,0,0-2.8-1.78l-3.2.3,1.43,2.9A2.74,2.74,0,0,0,123.59,79.56ZM122.28,77a.79.79,0,1,1,.32,1.07h0a.77.77,0,0,1-.35-1l0,0Z"/>
    <path id="_Trazado_compuesto_3" data-name=" Trazado compuesto 3" class="cls-1"
          d="M122.9,73.78l3.23-.26-1.42-2.93a2.66,2.66,0,0,0-3-1.49h0A2.32,2.32,0,0,0,120,71.91h0A2.74,2.74,0,0,0,122.9,73.78Zm-1-1.74a.79.79,0,1,1,1.09-.28.77.77,0,0,1-1.05.27l0,0Z"/>
    <path id="_Trazado_compuesto_4" data-name=" Trazado compuesto 4" class="cls-1"
          d="M126.95,69.54h0a2.32,2.32,0,0,0,1.91-2.67h0a2.66,2.66,0,0,0-2.54-2.08l-3.21-.1,1.05,3.06A2.74,2.74,0,0,0,126.95,69.54Zm-1-2.73a.79.79,0,1,1,.18,1.11.77.77,0,0,1-.2-1.07l.05-.07Z"/>
    <path id="_Trazado_compuesto_5" data-name=" Trazado compuesto 5" class="cls-1"
          d="M124.09,63.32l3.23-.18L126,60.21a2.66,2.66,0,0,0-2.93-1.56h0a2.32,2.32,0,0,0-1.75,2.77h0A2.74,2.74,0,0,0,124.09,63.32Zm-1-1.77a.79.79,0,1,1,1.09-.25.77.77,0,0,1-1,.26Z"/>
    <path id="_Trazado_compuesto_6" data-name=" Trazado compuesto 6" class="cls-1"
          d="M129.12,60.61h0a2.32,2.32,0,0,0,1.47-2.93h0a2.66,2.66,0,0,0-2.85-1.7l-3.18.4,1.52,2.86A2.74,2.74,0,0,0,129.12,60.61Zm-1.41-2.54a.79.79,0,1,1,.35,1.06h0a.77.77,0,0,1-.37-1Z"/>
    <path id="_Trazado_compuesto_7" data-name=" Trazado compuesto 7" class="cls-1"
          d="M125.63,55.42l3.07-1-2-2.49a2.66,2.66,0,0,0-3.23-.75h0a2.32,2.32,0,0,0-1,3.12v0h0A2.74,2.74,0,0,0,125.63,55.42ZM124.25,54a.79.79,0,1,1,1-.52.77.77,0,0,1-.95.54l-.06,0Z"/>
    <path id="_Trazado_compuesto_8" data-name=" Trazado compuesto 8" class="cls-1"
          d="M130.89,53.39h0a2.32,2.32,0,0,0,1.23-3h0a2.66,2.66,0,0,0-3-1.46l-3.14.65,1.73,2.68A2.74,2.74,0,0,0,130.89,53.39ZM129.31,51a.79.79,0,1,1,.47,1h0a.77.77,0,0,1-.43-1Z"/>
    <path id="_Trazado_compuesto_9" data-name=" Trazado compuesto 9" class="cls-1"
          d="M127.1,48.35l2.78-1.66-2.52-2a2.66,2.66,0,0,0-3.32,0h0a2.32,2.32,0,0,0-.28,3.27h0A2.74,2.74,0,0,0,127.1,48.35Zm-1.67-1.12a.79.79,0,1,1,.85-.73.77.77,0,0,1-.8.73Z"/>
    <path id="_Trazado_compuesto_10" data-name=" Trazado compuesto 10" class="cls-1"
          d="M129.79,42.34h0a2.32,2.32,0,0,0-.8-3.18h0a2.66,2.66,0,0,0-3.26.63l-2.14,2.39,3,1.16A2.74,2.74,0,0,0,129.79,42.34Zm-2.71-1a.79.79,0,1,1,1,.57.77.77,0,0,1-1-.58Z"/>
    <path id="_Trazado_compuesto_11" data-name=" Trazado compuesto 11" class="cls-1"
          d="M124.71,39.78l2-2.53-3.06-1a2.66,2.66,0,0,0-3.11,1.14h0a2.32,2.32,0,0,0,.9,3.15h0A2.74,2.74,0,0,0,124.71,39.78Zm-2-.46a.79.79,0,1,1,.54-1,.77.77,0,0,1-.51,1h0Z"/>
    <path id="_Trazado_compuesto_12" data-name=" Trazado compuesto 12" class="cls-1"
          d="M128,35.17h0a2.32,2.32,0,0,0-.63-3.22h0a2.66,2.66,0,0,0-3.29.41l-2.27,2.27,3,1.32A2.74,2.74,0,0,0,128,35.17ZM125.34,34a.79.79,0,1,1,.93.62.77.77,0,0,1-.92-.58v0Z"/>
    <path id="_Trazado_compuesto_13" data-name=" Trazado compuesto 13" class="cls-1"
          d="M123.94,31.78l2-2.53-3.06-1a2.66,2.66,0,0,0-3.11,1.14h0a2.32,2.32,0,0,0,.9,3.15h0A2.74,2.74,0,0,0,123.94,31.78Zm-2-.46a.79.79,0,1,1,.54-1,.77.77,0,0,1-.48,1h0Z"/>
    <path id="_Trazado_compuesto_14" data-name=" Trazado compuesto 14" class="cls-1"
          d="M127.23,27.18h0A2.32,2.32,0,0,0,126.6,24h0a2.66,2.66,0,0,0-3.29.41L121,26.63,124,28A2.74,2.74,0,0,0,127.23,27.18ZM124.58,26a.79.79,0,1,1,.93.62.77.77,0,0,1-.92-.58Z"/>
    <path id="_Trazado_compuesto_15" data-name=" Trazado compuesto 15" class="cls-1"
          d="M121.36,25.2l2.45-2.11L121,21.56a2.66,2.66,0,0,0-3.27.55h0a2.32,2.32,0,0,0,.31,3.27h0A2.74,2.74,0,0,0,121.36,25.2Zm-1.84-.82a.79.79,0,1,1,.71-.86h0a.77.77,0,0,1-.66.87h0Z"/>
    <path id="_Trazado_compuesto_16" data-name=" Trazado compuesto 16" class="cls-2"
          d="M31.86,86.21h0a10.91,10.91,0,0,0-14-6.56h0c-5.23,1.68-8.57,8.06-7.62,13.62l2.28,14.93,13.19-7.5C30.71,98,33.55,91.44,31.86,86.21ZM20.09,93.05a3.73,3.73,0,1,1,3.18-6.75h0a4,4,0,0,1,1.78,5,3.62,3.62,0,0,1-4.78,1.84Z"/>
    <path id="_Trazado_compuesto_17" data-name=" Trazado compuesto 17" class="cls-2"
          d="M10.71,122.63h0a10.91,10.91,0,0,0,14.2,6l.08,0h0c5.16-1.89,8.24-8.4,7.07-13.92L29.18,99.88l-12.94,8C11.37,110.78,8.83,117.48,10.71,122.63Zm11.49-7.31a3.73,3.73,0,0,1-2.71,7l-.19-.08a4,4,0,0,1-2-4.88A3.62,3.62,0,0,1,22,115.22l.24.1Z"/>
    <path id="_Trazado_compuesto_18" data-name=" Trazado compuesto 18" class="cls-2"
          d="M108.65,77.57h0a11.66,11.66,0,0,0-15.21,6.36l0,.09h0c-2.4,5.36.27,12.58,5.36,15.8l13.49,8.88,3.53-15.92C117.22,86.92,114,80,108.65,77.57Zm-3,14.25a4,4,0,1,1,2.12-5.24v0a3.87,3.87,0,0,1-2,5.11l-.17.07Z"/>
    <path id="_Trazado_compuesto_19" data-name=" Trazado compuesto 19" class="cls-2"
          d="M35.8,86.53h0A7.05,7.05,0,0,0,43,79.64v-.05h0c.2-3.55-2.87-7-6.45-7.76l-9.53-2,1.45,9.74A8.33,8.33,0,0,0,35.8,86.53Zm-1.39-8.69a2.41,2.41,0,1,1-.08,3.41,2.34,2.34,0,0,1,0-3.31Z"/>
    <path id="_Trazado_compuesto_20" data-name=" Trazado compuesto 20" class="cls-2"
          d="M50.71,70.55h0a8,8,0,0,0-6.6,9.19v0h0c.5,4,4.63,7.25,8.76,7.33l11,.39L60.28,77A9.43,9.43,0,0,0,50.71,70.55ZM54,79.94a2.73,2.73,0,1,1-.61-3.81h0a2.65,2.65,0,0,1,.73,3.68l-.1.13Z"/>
    <path id="_Trazado_compuesto_21" data-name=" Trazado compuesto 21" class="cls-2"
          d="M72.53,86.64h0a8,8,0,0,0,6-9.59v0h0c-.76-3.94-5.1-6.93-9.22-6.74l-11,.33,4.28,10.29A9.43,9.43,0,0,0,72.53,86.64ZM68.6,77.48a2.73,2.73,0,1,1,.86,3.76h0a2.65,2.65,0,0,1-.94-3.63Z"/>
    <path id="_Trazado_compuesto_22" data-name=" Trazado compuesto 22" class="cls-2"
          d="M79.43,80.78h0a7.27,7.27,0,0,0,8,6.5h0c3.65-.25,6.85-3.83,7.13-7.58l.94-10-9.79,2.71A8.6,8.6,0,0,0,79.43,80.78Zm8.72-2.53a2.49,2.49,0,1,1-3.5.35h0A2.41,2.41,0,0,1,88,78.18l.12.1Z"/>
    <path id="_Trazado_compuesto_23" data-name=" Trazado compuesto 23" class="cls-2"
          d="M15.22,74.51h0a5.34,5.34,0,0,0,6.23,4.27h0c2.66-.39,4.78-3.2,4.77-6l.1-7.39-7,2.56A6.31,6.31,0,0,0,15.22,74.51Zm6-2.36a1.82,1.82,0,0,1-2.07,3h0a2,2,0,0,1-.44-2.53,1.77,1.77,0,0,1,2.45-.5l0,0Z"/>
    <path id="_Trazado_compuesto_24" data-name=" Trazado compuesto 24" class="cls-2"
          d="M11.28,58.93h0a5.34,5.34,0,0,0-.51,7.53l0,0h0a6.05,6.05,0,0,0,7.56,1l6.4-3.7L19,59.09A6.31,6.31,0,0,0,11.28,58.93Zm5.22,4.15a2,2,0,0,1-1.95,1.7,1.82,1.82,0,1,1,.24-3.64A1.77,1.77,0,0,1,16.5,63S16.5,63,16.5,63.08Z"/>
    <path id="_Trazado_compuesto_25" data-name=" Trazado compuesto 25" class="cls-2"
          d="M31,53.49h0a5.34,5.34,0,0,0-7.55.32l0,0h0a6.11,6.11,0,0,0-.2,7.63l4.38,6,4-6.26A6.31,6.31,0,0,0,31,53.49Zm-3.54,5.64a1.82,1.82,0,1,1,1.74-1.9,1.77,1.77,0,0,1-1.64,1.9Z"/>
    <path id="_Trazado_compuesto_26" data-name=" Trazado compuesto 26" class="cls-2"
          d="M109.47,61.18l-5.76,4.7,6.4,3.7a6.23,6.23,0,0,0,7.56-1h0A5.34,5.34,0,0,0,117.2,61l0,0h0A6.31,6.31,0,0,0,109.47,61.18Zm4.18,2a1.82,1.82,0,1,1-1.7,1.94,1.77,1.77,0,0,1,1.59-1.93Z"/>
    <path id="_Trazado_compuesto_27" data-name=" Trazado compuesto 27" class="cls-2"
          d="M105,69.57h0a5,5,0,0,0-6-3.66h0a5.7,5.7,0,0,0-4.12,5.79l.3,6.88,6.37-2.75A5.87,5.87,0,0,0,105,69.57Zm-5.67,2.52a1.7,1.7,0,1,1,2.34-.57h0a1.65,1.65,0,0,1-2.25.61Z"/>
    <path id="_Trazado_compuesto_28" data-name=" Trazado compuesto 28" class="cls-2"
          d="M105.71,76.52h0A3.07,3.07,0,0,0,110,76h0a3.52,3.52,0,0,0-.24-4.38L107,68.38l-2,3.77A3.62,3.62,0,0,0,105.71,76.52Zm1.77-3.4a1,1,0,1,1-.09,0h.09Z"/>
    <path id="_Trazado_compuesto_29" data-name=" Trazado compuesto 29" class="cls-2"
          d="M31.71,45.25h0A3.46,3.46,0,0,0,27,46.52v0h0a4,4,0,0,0,1,4.86l3.62,3.15L33.26,50A4.09,4.09,0,0,0,31.71,45.25Zm-1.45,4.08a1.18,1.18,0,1,1,.83-1.45,1.15,1.15,0,0,1-.78,1.43h0Z"/>
    <path id="_Trazado_compuesto_30" data-name=" Trazado compuesto 30" class="cls-2"
          d="M32.46,55.05h0A2.49,2.49,0,0,0,36,54.8l0,0h0a2.86,2.86,0,0,0,0-3.56l-2.1-2.73-1.82,3A2.94,2.94,0,0,0,32.46,55.05Zm1.6-2.67a.85.85,0,1,1-.79.91h0a.83.83,0,0,1,.76-.9Z"/>
    <path id="_Trazado_compuesto_31" data-name=" Trazado compuesto 31" class="cls-2"
          d="M108.57,61.59h0a2.49,2.49,0,0,0-2.19-2.76h0a2.86,2.86,0,0,0-2.94,2l-1,3.28,3.47-.19A2.94,2.94,0,0,0,108.57,61.59Zm-3.1.2a.85.85,0,1,1,1.2.14.83.83,0,0,1-1.17-.11l0,0Z"/>
    <path id="_Trazado_compuesto_32" data-name=" Trazado compuesto 32" class="cls-2"
          d="M39.46,52.78h0a2.49,2.49,0,0,0,1.81-3h0a2.86,2.86,0,0,0-2.92-2L34.91,48l1.4,3.18A2.94,2.94,0,0,0,39.46,52.78ZM38.18,50a.85.85,0,1,1,.29,1.17A.83.83,0,0,1,38.14,50l0-.06Z"/>
    <path id="_Trazado_compuesto_33" data-name=" Trazado compuesto 33" class="cls-2"
          d="M42.27,86.78h0a14.75,14.75,0,0,0-10.73,17.89l0,.11h0c1.56,7.26,9.69,12.61,17.3,12.08l20.4-1.08L60.95,96.94C58,89.86,49.53,85.2,42.27,86.78Zm7.62,16.76A5.42,5.42,0,0,1,43,105.28a5,5,0,0,1,5.18-8.65A4.89,4.89,0,0,1,50,103.29l-.15.24Z"/>
    <path id="_Trazado_compuesto_34" data-name=" Trazado compuesto 34" class="cls-2"
          d="M84.42,116.54h0A14.29,14.29,0,0,0,94.79,99.2l0-.1h0c-1.52-7-9.4-12.21-16.77-11.7l-19.76,1,8.07,18.24C69.17,113.55,77.39,118.06,84.42,116.54ZM77,100.31a4.88,4.88,0,1,1,1.69,6.7,4.74,4.74,0,0,1-1.85-6.44l.16-.27Z"/>
    <path id="_Trazado_compuesto_35" data-name=" Trazado compuesto 35" class="cls-1"
          d="M116.61,14.78h0A5.19,5.19,0,0,0,110,11.66h0a6,6,0,0,0-3.62,6.48l1.09,7.1,6.3-3.58A6.13,6.13,0,0,0,116.61,14.78ZM111,18a1.91,1.91,0,0,1-.85-2.36,1.77,1.77,0,0,1,3.21,1.51,1.72,1.72,0,0,1-2.28.84L111,18Z"/>
    <path id="_Trazado_compuesto_36" data-name=" Trazado compuesto 36" class="cls-1"
          d="M107.08,32.12h0a5,5,0,0,0,6.58,2.58l0,0h0a5.77,5.77,0,0,0,3.07-6.51l-1.52-6.79-5.85,3.87A5.94,5.94,0,0,0,107.08,32.12Zm5.19-3.52a1.72,1.72,0,1,1-2.22,1,1.67,1.67,0,0,1,2.12-1Z"/>
    <path id="_Trazado_compuesto_37" data-name=" Trazado compuesto 37" class="cls-1"
          d="M94.64,24.47h0c-1.76,1.49-1.46,3.66.72,4.87h0a7.92,7.92,0,0,0,7.19-.12l5.37-3-6.1-2.44C99.58,22.87,96.31,23.17,94.64,24.47Zm5.49,2.1c0,.64-.63,1.18-1.54,1.29a1.81,1.81,0,0,1-1.88-1.08c0-.64.63-1.18,1.54-1.29S100.1,25.93,100.13,26.57Z"/>
    <path id="_Trazado_compuesto_38" data-name=" Trazado compuesto 38" class="cls-1"
          d="M94.18,15.71h0c-2,1.33-2.1,3.49-.15,4.85h0c1.68,1.29,5,1.44,7.16.46l5.87-2.54-5.63-2.85A8.24,8.24,0,0,0,94.18,15.71Zm5.08,2.51c-.08.63-.84,1.11-1.76,1.14a1.54,1.54,0,0,1-1.68-1.2c-.05-.63.84-1.11,1.76-1.14S99.34,17.59,99.26,18.22Z"/>
    <path id="_Trazado_compuesto_39" data-name=" Trazado compuesto 39" class="cls-2"
          d="M56.71,34.78h0a5.24,5.24,0,0,0-4.34,6h0a6,6,0,0,0,5.75,4.81l7.25.25L63,39A6.19,6.19,0,0,0,56.71,34.78Zm2.18,6.16a1.79,1.79,0,1,1-.4-2.5A1.74,1.74,0,0,1,59,40.85l-.09.13Z"/>
    <path id="_Trazado_compuesto_40" data-name=" Trazado compuesto 40" class="cls-2"
          d="M70,44.78h0a4.67,4.67,0,0,0,3.69-5.48v-.05h0a5.36,5.36,0,0,0-5.28-4.1H62l2.33,6.09A5.52,5.52,0,0,0,70,44.78Zm-2.14-5.11a1.6,1.6,0,1,1,.45,2.22h0a1.55,1.55,0,0,1-.5-2.13l.06-.09Z"/>
    <path id="_Trazado_compuesto_41" data-name=" Trazado compuesto 41" class="cls-2"
          d="M35.22,37.41h0A4.9,4.9,0,0,0,31.15,43v0h0a5.62,5.62,0,0,0,5.38,4.5l6.79.24-2.22-6.48A5.79,5.79,0,0,0,35.22,37.41Zm2,5.77a1.68,1.68,0,1,1-.39-2.34h0a1.63,1.63,0,0,1,.48,2.25l-.06.09Z"/>
    <path id="_Trazado_compuesto_42" data-name=" Trazado compuesto 42" class="cls-2"
          d="M48.38,46h0a4.9,4.9,0,0,0,3.69-5.87v0h0A5.62,5.62,0,0,0,46.4,36l-6.79.21,2.63,6.32A5.79,5.79,0,0,0,48.38,46ZM46,40.38a1.68,1.68,0,1,1,.54,2.31h0a1.63,1.63,0,0,1-.58-2.23Z"/>
    <path id="_Trazado_compuesto_43" data-name=" Trazado compuesto 43" class="cls-2"
          d="M97.17,57.28l4,6.26,4.38-6c1.67-2.19,1.68-5.71-.2-7.63h0a5.34,5.34,0,0,0-7.54-.37l0,0h0A6.31,6.31,0,0,0,97.17,57.28Zm2.45-3.93a1.82,1.82,0,1,1,1.74,1.9,1.77,1.77,0,0,1-1.74-1.8S99.61,53.39,99.62,53.35Z"/>
    <path id="_Trazado_compuesto_44" data-name=" Trazado compuesto 44" class="cls-2"
          d="M96,45.84l.42,3.94L99.9,48a3.26,3.26,0,0,0,1.73-3.68h0a2.84,2.84,0,0,0-3.48-2h0A3.36,3.36,0,0,0,96,45.84Zm2.11-1.28a1,1,0,1,1,.42,1.35l-.05,0a.94.94,0,0,1-.4-1.27Z"/>
    <path id="_Trazado_compuesto_45" data-name=" Trazado compuesto 45" class="cls-2"
          d="M96.3,49.55l-1-3.24-2.75,2a2.67,2.67,0,0,0-.93,3.3h0A2.56,2.56,0,0,0,95,52.78h0A2.75,2.75,0,0,0,96.3,49.55ZM94.71,50.9a.9.9,0,0,1-1.08.49.89.89,0,0,1-.52-1.06.9.9,0,0,1,1.08-.49.81.81,0,0,1,.54,1Z"/>
    <path id="_Trazado_compuesto_46" data-name=" Trazado compuesto 46" class="cls-2"
          d="M86.61,40.36,82.71,46l6.6,1.59a5.62,5.62,0,0,0,6.4-2.9h0a4.9,4.9,0,0,0-2.36-6.51l0,0h0A5.79,5.79,0,0,0,86.61,40.36Zm4.2.67a1.68,1.68,0,1,1-1,2.16h0a1.63,1.63,0,0,1,.91-2.12Z"/>
    <path id="_Trazado_compuesto_47" data-name=" Trazado compuesto 47" class="cls-2"
          d="M83.37,42.94l4.08-5.49-6.53-1.84a5.62,5.62,0,0,0-6.5,2.65h0a4.9,4.9,0,0,0,2.11,6.6l0,0h0A5.79,5.79,0,0,0,83.37,42.94Zm-4.17-.83A1.68,1.68,0,1,1,80.26,40h0a1.63,1.63,0,0,1-1,2.08Z"/>
    <path id="_Trazado_compuesto_48" data-name=" Trazado compuesto 48" class="cls-2"
          d="M101.25,129.64h0a10.91,10.91,0,0,0,14.12-6.22l0-.07h0c2.16-5.05-.47-11.75-5.28-14.69l-12.77-8.08-3,14.92C93.07,121.05,96.2,127.48,101.25,129.64Zm2.56-13.38a3.73,3.73,0,1,1-1.91,4.92,3.62,3.62,0,0,1,1.7-4.83l.2-.09Z"/>
</svg>