<svg id="Capa_1" data-name="Capa 1" xmlns="http://www.w3.org/2000/svg" viewBox="0 0 141.73 141.73">
    <defs>
        <style>.cls-1{fill:#b0b0b0;}.cls-2{fill:#50ade1;}</style>
    </defs>
    <title>rent</title>
    <path id="_Trazado_compuesto_" data-name=" Trazado compuesto " class="cls-1"
          d="M29.7,75.13h0a13.9,13.9,0,0,0-17.78-8.38l-.09,0h0C5.17,68.93.91,77,2.11,84.14l2.9,19L21.9,93.58C28.27,90.18,31.85,81.8,29.7,75.13Zm-15,8.72a5.11,5.11,0,0,1-2.28-6.3,5.11,5.11,0,0,1,6.32-2.27A5.11,5.11,0,0,1,21,81.55,4.61,4.61,0,0,1,15,84Z"/>
    <path id="_Trazado_compuesto_2" data-name=" Trazado compuesto 2" class="cls-1"
          d="M2.76,121.55h0a13.9,13.9,0,0,0,18.1,7.67l.1,0h0c6.57-2.41,10.5-10.7,9-17.74L26.3,92.55,9.81,102.78C3.58,106.46.35,115,2.76,121.55Zm14.64-9.32a5.11,5.11,0,0,1,2.53,6.23A5.11,5.11,0,0,1,13.7,121a5.11,5.11,0,0,1-2.53-6.23,4.61,4.61,0,0,1,6-2.63l.27.11Z"/>
    <path id="_Trazado_compuesto_3" data-name=" Trazado compuesto 3" class="cls-1"
          d="M124.12,63.91h0a14.86,14.86,0,0,0-17.68,11.35l0,.12h0c-1.83,7.26,3.12,15.73,10.23,18.65l18.9,8.16.9-20.73C137,73.74,131.37,65.74,124.12,63.91Zm-.6,18.55A5.08,5.08,0,1,1,117.85,74l.18-.11a5.46,5.46,0,0,1,7,1.52,4.93,4.93,0,0,1-1.26,6.86l-.25.16Z"/>
    <path id="_Trazado_compuesto_4" data-name=" Trazado compuesto 4" class="cls-1"
          d="M34.73,75.55h0a9,9,0,0,0,9.19-8.81v0h0c.25-4.52-3.66-9-8.21-9.9L23.55,54.13l1.84,12.42C26,71.18,30.21,75.29,34.73,75.55ZM33,64.46a3.07,3.07,0,1,1-.1,4.34h0a3,3,0,0,1,0-4.24Z"/>
    <path id="_Trazado_compuesto_5" data-name=" Trazado compuesto 5" class="cls-1"
          d="M53.75,55.17h0a10.17,10.17,0,0,0-8.44,11.64v.08h0c.64,5.08,5.9,9.24,11.16,9.34l14.08.49L66,63.28C64.38,58.24,58.83,54.55,53.75,55.17Zm4.23,12a3.48,3.48,0,1,1-5.63-4.07,3.74,3.74,0,0,1,4.85-.78A3.37,3.37,0,0,1,58.14,67l-.1.15Z"/>
    <path id="_Trazado_compuesto_6" data-name=" Trazado compuesto 6" class="cls-1"
          d="M81.54,75.67h0A10.17,10.17,0,0,0,89.2,63.49v-.06h0c-1-5-6.5-8.84-11.75-8.59l-14.08.43L68.8,68.38C70.74,73.31,76.51,76.64,81.54,75.67ZM76.54,64a3.48,3.48,0,1,1,1.1,4.8h0a3.37,3.37,0,0,1-1.21-4.61l.11-.18Z"/>
    <path id="_Trazado_compuesto_7" data-name=" Trazado compuesto 7" class="cls-1"
          d="M90.33,68.24h0a9.27,9.27,0,0,0,10.13,8.32h.09c4.66-.31,8.72-4.89,9.09-9.66l1.19-12.79L98.36,57.55C93.68,58.73,90,63.55,90.33,68.24ZM101.45,65a3.17,3.17,0,1,1-4.46.45h0a3.08,3.08,0,0,1,4.32-.57Z"/>
    <path id="_Trazado_compuesto_8" data-name=" Trazado compuesto 8" class="cls-1"
          d="M8.49,60.22h0a6.8,6.8,0,0,0,7.9,5.49l.1,0h0c3.39-.5,6.1-4.08,6.08-7.6l.13-9.42-8.92,3.26A8,8,0,0,0,8.49,60.22Zm7.63-3a2.5,2.5,0,0,1,.59,3.23,2.5,2.5,0,0,1-3.23.59,2.5,2.5,0,0,1-.59-3.23A2.26,2.26,0,0,1,16,57.13l.11.07Z"/>
    <path id="_Trazado_compuesto_9" data-name=" Trazado compuesto 9" class="cls-1"
          d="M3.47,40.36h0A6.8,6.8,0,0,0,2.82,50l0,0h0c2.17,2.65,6.63,3.14,9.64,1.33l8.15-4.72-7.37-6A8,8,0,0,0,3.47,40.36Zm6.65,5.28A2.5,2.5,0,0,1,7.65,47.8,2.33,2.33,0,0,1,8,43.16a2.26,2.26,0,0,1,2.17,2.35s0,.1,0,.14Z"/>
    <path id="_Trazado_compuesto_10" data-name=" Trazado compuesto 10" class="cls-1"
          d="M28.6,33.43h0a6.8,6.8,0,0,0-9.61.41l0,0h0c-2.4,2.44-2.39,6.93-.26,9.73l5.59,7.58,5.14-8A8,8,0,0,0,28.6,33.43ZM24,40.62a2.32,2.32,0,0,1-.2-4.64,2.5,2.5,0,0,1,2.42,2.22,2.26,2.26,0,0,1-2.09,2.41Z"/>
    <path id="_Trazado_compuesto_11" data-name=" Trazado compuesto 11" class="cls-1"
          d="M127.62,42.23l-7.37,6,8.15,4.72c3,1.81,7.47,1.32,9.64-1.33h0a6.8,6.8,0,0,0-.58-9.6l0,0h0A8,8,0,0,0,127.62,42.23Zm5.32,2.55a2.32,2.32,0,1,1-2.16,2.47,2.26,2.26,0,0,1,2-2.46Z"/>
    <path id="_Trazado_compuesto_12" data-name=" Trazado compuesto 12" class="cls-1"
          d="M122.87,53.92h0a6.33,6.33,0,0,0-7.64-4.67h-.05c-3.12.64-5.45,4.12-5.26,7.39l.38,8.77,8.12-3.5A7.49,7.49,0,0,0,122.87,53.92Zm-7.23,3.21a2.17,2.17,0,1,1,3-.72,2.1,2.1,0,0,1-2.85.82l-.15-.09Z"/>
    <path id="_Trazado_compuesto_13" data-name=" Trazado compuesto 13" class="cls-1"
          d="M123.89,62.78h0a3.91,3.91,0,0,0,5.49-.68v0h0a4.48,4.48,0,0,0-.3-5.58l-3.55-4.09L123,57.22A4.62,4.62,0,0,0,123.89,62.78Zm2.26-4.33A1.34,1.34,0,1,1,125,60v0a1.3,1.3,0,0,1,1.08-1.48Z"/>
    <path id="_Trazado_compuesto_14" data-name=" Trazado compuesto 14" class="cls-1"
          d="M29.5,22.92h0a4.41,4.41,0,0,0-6,1.65h0a5.07,5.07,0,0,0,1.21,6.2l4.61,4L31.45,29A5.22,5.22,0,0,0,29.5,22.92Zm-1.84,5.2a1.51,1.51,0,1,1,1.06-1.85h0a1.46,1.46,0,0,1-1,1.82l-.1,0Z"/>
    <path id="_Trazado_compuesto_15" data-name=" Trazado compuesto 15" class="cls-1"
          d="M30.47,35.41h0a3.17,3.17,0,0,0,4.47-.29l0,0h0A3.64,3.64,0,0,0,35,30.55l-2.68-3.48L30,30.86A3.75,3.75,0,0,0,30.47,35.41Zm2-3.4a1.08,1.08,0,1,1-1,1.15h0A1.05,1.05,0,0,1,32.42,32h.05Z"/>
    <path id="_Trazado_compuesto_16" data-name=" Trazado compuesto 16" class="cls-1"
          d="M39.38,32.5h0a3.17,3.17,0,0,0,2.32-3.84v0h0A3.64,3.64,0,0,0,38,26l-4.39.22,1.78,4.06A3.75,3.75,0,0,0,39.38,32.5Zm-1.63-3.61a1.08,1.08,0,1,1,.37,1.49,1,1,0,0,1-.41-1.43Z"/>
    <path id="_Trazado_compuesto_17" data-name=" Trazado compuesto 17" class="cls-1"
          d="M43,75.84h0A18.79,18.79,0,0,0,29.3,98.62l0,.15h0c2,9.25,12.36,16.07,22,15.4l26-1.35-10.6-24C63,79.78,52.22,73.85,43,75.84ZM52.69,97.2a6.91,6.91,0,0,1-8.81,2.21,6.42,6.42,0,0,1,6.6-11,6.24,6.24,0,0,1,2.37,8.5l-.17.29Z"/>
    <path id="_Trazado_compuesto_18" data-name=" Trazado compuesto 18" class="cls-1"
          d="M96.69,113.79h0A18.21,18.21,0,0,0,109.93,91.7l0-.15h0c-1.94-9-12-15.56-21.37-14.91L63.33,78l10.29,23.25C77.26,110,87.73,115.72,96.69,113.79Zm-9.43-20.7a6.22,6.22,0,0,1,10.68,6.39,6.69,6.69,0,0,1-8.54,2.15A6,6,0,0,1,87,93.48Q87.14,93.28,87.26,93.09Z"/>
    <path id="_Trazado_compuesto_19" data-name=" Trazado compuesto 19" class="cls-1"
          d="M61.38,9.62h0a6.67,6.67,0,0,0-5.54,7.64v.05h0c.42,3.33,3.88,6.07,7.33,6.13l9.24.32-3-8.82A7.89,7.89,0,0,0,61.38,9.62Zm2.78,7.86a2.28,2.28,0,0,1-3.7-2.67h0a2.45,2.45,0,0,1,3.19-.51,2.21,2.21,0,0,1,.59,3.07Z"/>
    <path id="_Trazado_compuesto_20" data-name=" Trazado compuesto 20" class="cls-1"
          d="M78.36,22.31h0a6,6,0,0,0,4.69-7h0c-.48-3-3.65-5.28-6.73-5.23H68l3,7.77A7,7,0,0,0,78.36,22.31ZM75.63,15.8A2,2,0,1,1,79,18.06h0a2.19,2.19,0,0,1-2.82.56,2,2,0,0,1-.62-2.76Z"/>
    <path id="_Trazado_compuesto_21" data-name=" Trazado compuesto 21" class="cls-1"
          d="M34,12.93h0a6.25,6.25,0,0,0-5.19,7.16v0h0c.39,3.12,3.63,5.68,6.86,5.74l8.65.3-2.82-8.26A7.38,7.38,0,0,0,34,12.93Zm2.6,7.35a2.14,2.14,0,1,1-3.46-2.5,2.3,2.3,0,0,1,3-.48,2.07,2.07,0,0,1,.54,2.88l-.08.11Z"/>
    <path id="_Trazado_compuesto_22" data-name=" Trazado compuesto 22" class="cls-1"
          d="M50.76,23.88h0a6.25,6.25,0,0,0,4.71-7.48v0h0c-.6-3.09-4-5.43-7.22-5.28l-8.65.26,3.35,8.05A7.38,7.38,0,0,0,50.76,23.88Zm-3.08-7.17a2.14,2.14,0,0,1,3.75,2.06L51.3,19a2.3,2.3,0,0,1-2.94.67,2.07,2.07,0,0,1-.75-2.83Z"/>
    <path id="_Trazado_compuesto_23" data-name=" Trazado compuesto 23" class="cls-1"
          d="M112.94,38.25l5.14,8,5.59-7.58c2.13-2.79,2.14-7.28-.26-9.73h0a6.8,6.8,0,0,0-9.6-.48l0,0h0A8,8,0,0,0,112.94,38.25Zm3.12-5a2.32,2.32,0,1,1,2.22,2.42A2.26,2.26,0,0,1,116,33.4q0-.08,0-.17Z"/>
    <path id="_Trazado_compuesto_24" data-name=" Trazado compuesto 24" class="cls-1"
          d="M111.42,23.68l.53,5,4.48-2.27a4.16,4.16,0,0,0,2.21-4.69h0a3.62,3.62,0,0,0-4.45-2.53h0A4.28,4.28,0,0,0,111.42,23.68ZM114.11,22a1.24,1.24,0,1,1,.48,1.69,1.2,1.2,0,0,1-.53-1.61l0-.08Z"/>
    <path id="_Trazado_compuesto_25" data-name=" Trazado compuesto 25" class="cls-1"
          d="M111.84,28.4l-1.22-4.13-3.5,2.48A3.41,3.41,0,0,0,105.94,31h0a3.26,3.26,0,0,0,4.24,1.52h0A3.51,3.51,0,0,0,111.84,28.4Zm-2.06,1.72a1.09,1.09,0,1,1-.67-1.35,1,1,0,0,1,.71,1.22Z"/>
    <path id="_Trazado_compuesto_26" data-name=" Trazado compuesto 26" class="cls-1"
          d="M99.48,16.69l-4.92,7.2,8.41,2c3.13.81,6.93-.79,8.14-3.69h0a6.25,6.25,0,0,0-3.06-8.29h0A7.38,7.38,0,0,0,99.48,16.69Zm5.35.85a2.3,2.3,0,0,1,2.74,1.26,2.14,2.14,0,1,1-4,1.49,2.07,2.07,0,0,1,1.15-2.69l.12,0Z"/>
    <path id="_Trazado_compuesto_27" data-name=" Trazado compuesto 27" class="cls-1"
          d="M95.83,19.2l5.2-7L92.7,9.85c-3.09-.93-7,.52-8.28,3.37h0a6.25,6.25,0,0,0,2.7,8.42l0,0h0A7.38,7.38,0,0,0,95.83,19.2Zm-5.32-1.06a2.3,2.3,0,0,1-2.69-1.36,2.14,2.14,0,1,1,4.06-1.33,2.07,2.07,0,0,1-1.25,2.65Z"/>
    <path id="_Trazado_compuesto_28" data-name=" Trazado compuesto 28" class="cls-1"
          d="M123.9,131.9h0A13.9,13.9,0,0,0,140.26,121l0-.09h0c1.6-6.82-3.17-14.65-9.86-17.27l-17.8-7.33-.51,19.4C111.74,122.91,117.08,130.3,123.9,131.9Zm.27-17.36a4.75,4.75,0,1,1-1.31,6.59,4.61,4.61,0,0,1,1.08-6.43l.22-.15Z"/>
    <path class="cls-2"
          d="M67.63,40.36l8.13-4.84a4.35,4.35,0,0,0,.56-1.91H72.11c-.52,0-1.15.1-1.07.65.31,2-1.08,1.57-2.15,1.57-1.77,0-3.77-.5-4.77,1.63-.78,1.61-1.53,1.17-2.41.07s-1.77-1-2.77,0c-2.24,2.21-2.27,2.18-4.49,0-1.19-1.18-2-1.18-3.19,0-.67.67-1.32,1.37-2.09,2.17-.78-.84-1.54-1.58-2.22-2.24a1.67,1.67,0,0,0-2.71,0c-.74.83-1.18.66-1.85-.06a1.66,1.66,0,0,0-2.61,0c-.76.74-1.49,1.5-2.25,2.24a1.46,1.46,0,0,0,0,2.42,30.6,30.6,0,0,1,2.34,2.37,2.86,2.86,0,0,0,2.47,1H69.66c.64,0,1.4-.15,1.32.93s.89,1.18,1.63,1.26c1,.07,1.92,0,2.86,0,.6,0,.85-.09.86-.39Z"/>
    <path id="_Trazado_compuesto_29" data-name=" Trazado compuesto 29" class="cls-2"
          d="M100.78,51.24h0a12.26,12.26,0,0,0,.92-17.31l-.07-.08h0c-4-4.73-12-5.52-17.41-2.18L69.63,40.36,83.08,51C88,55.06,96,55.2,100.78,51.24ZM88.63,41.86a4.19,4.19,0,0,1,8.37.45,4.51,4.51,0,0,1-4.41,4,4.07,4.07,0,0,1-4-4.16Q88.62,42,88.63,41.86Z"/>
</svg>