<svg id="Capa_1" data-name="Capa 1" xmlns="http://www.w3.org/2000/svg" viewBox="0 0 114.52 106.22"><defs><style>.cls-1,.cls-3{fill:#122b40;}.cls-2{fill:#74acdf;}.cls-2,.cls-3{stroke:#fff;stroke-miterlimit:10;stroke-width:2px;}</style></defs><title>autoqe_5</title><path class="cls-1" d="M55.1,17.47c-58.43.05-24.66,2.5-28.38,20C21.48,62.12,38.5,77.59,55.1,77.59a30.06,30.06,0,0,0,0-60.12Zm-15.2,27a4.78,4.78,0,1,1,4.78-4.78A4.78,4.78,0,0,1,39.9,44.46Zm15.35,0A4.78,4.78,0,1,1,60,39.68,4.78,4.78,0,0,1,55.25,44.46Zm15.35,0a4.78,4.78,0,1,1,4.78-4.78A4.78,4.78,0,0,1,70.59,44.46Z"/><path class="cls-2" d="M108.26,63.34C83.8,36.22,88,60,58.88,60S23.34,45.19,4.36,68.07C-7.15,81.93,29.79,78.48,58.88,78.48S124.65,81.51,108.26,63.34Z"/><circle class="cls-3" cx="28.06" cy="77.19" r="11.56"/><circle class="cls-3" cx="84.41" cy="77.19" r="11.56"/></svg>