<?xml version="1.0" encoding="iso-8859-1"?>
<!-- Generator: Adobe Illustrator 19.0.0, SVG Export Plug-In . SVG Version: 6.00 Build 0)  -->
<svg xmlns="http://www.w3.org/2000/svg"  version="1.1" id="Layer_1" x="0px" y="0px" viewBox="0 0 496 496" style="enable-background:new 0 0 496 496;" xml:space="preserve">
<path style="fill:#DB2727;" d="M496,369.6c0,27.2-21.6,48.8-48,48.8H48c-26.4,0-48-21.6-48-48.8V126.4c0-27.2,21.6-48.8,48-48.8h400  c26.4,0,48,21.6,48,48.8V369.6z"/>
<path style="fill:#C41616;" d="M48,77.6h400c26.4,0,48,21.6,48,48.8v243.2c0,27.2-21.6,48.8-48,48.8"/>
<g>
	<path style="fill:#AD0505;" d="M48,77.6h400c26.4,0,48,21.6,48,48.8v88.8"/>
	<path style="fill:#AD0505;" d="M496,369.6c0,27.2-21.6,48.8-48,48.8H48c-26.4,0-48-21.6-48-48.8"/>
</g>
<path style="fill:#FFFFFF;" d="M179.2,236.8V77.6H48c-26.4,0-48,21.6-48,48.8v111.2h179.2V236.8z"/>
<polygon style="fill:#E6F4F3;" points="179.2,77.6 48,77.6 179.2,189.6 "/>
<polygon style="fill:#CCEAE7;" points="179.2,77.6 48,77.6 179.2,117.6 "/>
<polygon style="fill:#DB2727;" points="137.6,139.2 107.2,139.2 107.2,109.6 72,109.6 72,139.2 41.6,139.2 41.6,175.2 72,175.2   72,204.8 107.2,204.8 107.2,175.2 137.6,175.2 "/>
<polygon style="fill:#C41616;" points="107.2,109.6 72,109.6 72,139.2 68.8,139.2 110.4,175.2 137.6,175.2 137.6,139.2 107.2,139.2   "/>
<g>
</g>
<g>
</g>
<g>
</g>
<g>
</g>
<g>
</g>
<g>
</g>
<g>
</g>
<g>
</g>
<g>
</g>
<g>
</g>
<g>
</g>
<g>
</g>
<g>
</g>
<g>
</g>
<g>
</g>
</svg>
