<?xml version="1.0" encoding="iso-8859-1"?>
<!-- Generator: Adobe Illustrator 19.0.0, SVG Export Plug-In . SVG Version: 6.00 Build 0)  -->
<svg xmlns="http://www.w3.org/2000/svg"  version="1.1" id="Layer_1" x="0px" y="0px" viewBox="0 0 496 496" style="enable-background:new 0 0 496 496;" xml:space="preserve">
<path style="fill:#FFFFFF;" d="M0,248v121.6C0,396.8,21.6,416,48,416h400c26.4,0,48-19.2,48-46.4V248H0z"/>
<path style="fill:#E1E5E5;" d="M248,248l197.6,168c26.4,0,50.4-19.2,50.4-46.4V248H248z"/>
<path style="fill:#E50000;" d="M448,80H48C21.6,80,0,99.2,0,126.4V248h496V126.4C496,99.2,474.4,80,448,80z"/>
<path style="fill:#C10000;" d="M448,80H48l200,168h248V126.4C496,99.2,474.4,80,448,80z"/>
<path style="fill:#D0D6D6;" d="M496,368.8c0,27.2-21.6,47.2-48,47.2H48c-26.4,0-48-20.8-48-48"/>
<path style="fill:#A80000;" d="M48,80h400c26.4,0,48,19.2,48,46.4V216"/>
<g>
</g>
<g>
</g>
<g>
</g>
<g>
</g>
<g>
</g>
<g>
</g>
<g>
</g>
<g>
</g>
<g>
</g>
<g>
</g>
<g>
</g>
<g>
</g>
<g>
</g>
<g>
</g>
<g>
</g>
</svg>
