<?xml version="1.0" encoding="iso-8859-1"?>
<!-- Generator: Adobe Illustrator 19.0.0, SVG Export Plug-In . SVG Version: 6.00 Build 0)  -->
<svg xmlns="http://www.w3.org/2000/svg"  version="1.1" id="Layer_1" x="0px" y="0px" viewBox="0 0 496 496" style="enable-background:new 0 0 496 496;" xml:space="preserve">
<rect x="162.4" y="77.6" style="fill:#F3C515;" width="170.4" height="340.8"/>
<path style="fill:#1F429A;" d="M162.4,77.6H48c-26.4,0-48,21.6-48,48.8v243.2c0,27.2,21.6,48.8,48,48.8h115.2V77.6H162.4z"/>
<path style="fill:#ED2524;" d="M448,77.6H333.6v340.8H448c26.4,0,48-21.6,48-48.8V126.4C496,99.2,474.4,77.6,448,77.6z"/>
<path style="fill:#E00505;" d="M448,77.6H333.6v243.2L448,418.4c26.4,0,48-21.6,48-48.8V126.4C496,99.2,474.4,77.6,448,77.6z"/>
<polygon style="fill:#EAAD03;" points="333.6,320.8 333.6,77.6 162.4,77.6 162.4,175.2 "/>
<polygon style="fill:#133B89;" points="162.4,77.6 48,77.6 162.4,175.2 "/>
<path style="fill:#C40000;" d="M333.6,418.4H448c26.4,0,48-21.6,48-48.8H333.6V418.4z"/>
<rect x="162.4" y="369.6" style="fill:#E89105;" width="170.4" height="48.8"/>
<path style="fill:#073275;" d="M0,369.6c0,27.2,21.6,48.8,48,48.8h115.2v-48.8H0z"/>
<path style="fill:#C40000;" d="M448,77.6H333.6v87.2L496,214.4v-88C496,99.2,474.4,77.6,448,77.6z"/>
<polygon style="fill:#E89105;" points="333.6,164.8 333.6,77.6 162.4,77.6 162.4,112.8 "/>
<polygon style="fill:#073275;" points="162.4,77.6 48,77.6 162.4,112.8 "/>
<path style="fill:#ED2524;" d="M318.4,234.4c0.8-2.4,1.6-4,1.6-6.4v-0.8c0-0.8,0-3.2-0.8-4.8c-0.8-4-4-7.2-4.8-8  c-1.6-1.6-4-2.4-6.4-2.4l0,0c-0.8,0-0.8,0-1.6,0c-0.8,0-2.4,0.8-3.2,0.8l0,0c0,0,0-0.8,0-1.6l0,0c0-1.6-0.8-2.4-2.4-2.4l0,0l1.6-6.4  c1.6-1.6,3.2-3.2,4-4c2.4-3.2,3.2-4,3.2-7.2c0-1.6-1.6-4-3.2-4l0,0l0,0c-0.8-1.6-2.4-3.2-4-3.2l0,0l0,0l-0.8-0.8  c-0.8-0.8-1.6-1.6-2.4-1.6s-2.4,0-3.2,0.8h-0.8l0,0l0,0l0,0c0,0,0-0.8-0.8-0.8s-0.8-0.8-1.6-0.8c-0.8,0-1.6,0.8-2.4,0.8  s-0.8,0-0.8-0.8c-0.8-0.8-0.8-0.8-1.6-0.8c-1.6,0-1.6,0.8-2.4,1.6c0,0,0,0,0,0.8l0,0l0,0l0,0l0,0h-0.8c-1.6,0.8-3.2,1.6-3.2,4v0.8  l-5.6,1.6h-5.6v-2.4c0,0.8,0,0.8-0.8,0.8l0.8-1.6v0.8c0.8-1.6,2.4-4.8,2.4-6.4c0-3.2-0.8-5.6-2.4-7.2c-0.8-0.8-1.6-0.8-2.4-0.8  s-1.6,0-2.4,0c-1.6,0-3.2,0.8-5.6,1.6c-3.2,1.6-5.6,3.2-8.8,3.2c-5.6,0-8-4.8-14.4-4.8c-2.4,0-4,0.8-4.8,2.4  c-1.6,1.6-1.6,3.2-1.6,4.8c0,2.4,0.8,4,1.6,6.4c0.8,1.6,1.6,2.4,1.6,4l0,0h-7.2l-4.8-0.8c0,0,0,0,0-0.8c0-2.4-1.6-3.2-3.2-4  c-0.8,0-0.8,0-0.8,0c-0.8-0.8-0.8-0.8-1.6-1.6s-1.6-0.8-2.4-0.8c-0.8,0-1.6,0-2.4,0.8c0,0,0,0.8-0.8,0.8s-1.6-0.8-2.4-0.8  c-0.8,0-0.8,0-1.6,0.8c-0.8,0-0.8,0.8-0.8,0.8h-0.8c-0.8,0-0.8,0-1.6,0c-1.6,0-2.4,0.8-3.2,1.6c0,0.8-0.8,0.8-0.8,0.8  c-5.6-2.4-6.4-3.2-7.2-2.4s-0.8,0.8-0.8,1.6c0,0,0,0.8-0.8,0.8s-0.8,0-1.6,0c-1.6,0.8-2.4,1.6-2.4,3.2l0,0v0.8c0,0,0,0,0,0.8l0,0  c0.8,4,4,6.4,6.4,8.8l1.6,7.2c-1.6,0-2.4,1.6-2.4,3.2c0,0.8,0,0.8,0,0.8h-0.8c-0.8-0.8-1.6-0.8-2.4-0.8c-0.8,0-0.8,0-1.6,0  c-1.6,0-3.2,0.8-4.8,1.6c-2.4,0.8-3.2,1.6-4,4c-2.4,3.2-3.2,5.6-3.2,8.8c0,0.8,0,0.8,0,1.6c0,1.6,0,3.2,0.8,4.8s0.8,2.4,1.6,4  c1.6,1.6,1.6,3.2,4,4.8c1.6,0.8,2.4,0.8,3.2,1.6c-1.6,0.8-2.4,1.6-2.4,3.2c0,1.6,0.8,3.2,2.4,4l-2.4,13.6c-0.8,0.8-1.6,1.6-1.6,2.4  s-0.8,0.8-0.8,0.8c0,0.8,0,0.8,0,1.6c0,0.8-0.8,0.8-0.8,0.8c0,0.8,0,0.8,0,1.6c0,2.4,1.6,3.2,3.2,4c0.8,0,1.6,0,2.4,0  c-3.2,3.2-4.8,5.6-4.8,10.4c0,0.8,0,0.8,0,1.6c0.8,8.8,5.6,13.6,13.6,16.8c2.4,0.8,4,0.8,6.4,1.6c3.2,0.8,4.8,0.8,8,0.8  c2.4,0,4.8,0,6.4,0l12.8,4l2.4,2.4c-0.8,0.8-1.6,1.6-1.6,3.2c0,2.4,1.6,4,4,4.8c0.8,0,0.8,0,1.6,0.8c0.8,0,0.8,0.8,0.8,0.8  c0.8,0.8,1.6,0.8,3.2,0.8c0.8,0,1.6,0,2.4-0.8h0.8c0,0,0.8-0.8,1.6-0.8c0.8,1.6,1.6,2.4,3.2,3.2c0.8,0.8,1.6,1.6,2.4,1.6  s0.8-0.8,1.6-0.8c0.8-0.8,1.6-0.8,2.4-1.6c0.8-0.8,0.8-0.8,1.6-1.6c0,0,0,0,0.8-0.8c1.6,1.6,3.2,1.6,4.8,1.6c0.8,0,1.6,0,3.2-0.8  l0.8-0.8l0,0l0,0c0.8,0,0.8,0,1.6,0c2.4-0.8,4-2.4,4-4.8c0-1.6-0.8-3.2-1.6-4l4-3.2l5.6-2.4c0.8,0,1.6,0,2.4,0c4,0,6.4,0,10.4-0.8  c3.2,0,4.8-0.8,8-0.8c4.8-0.8,8-1.6,12-4.8c2.4-1.6,4-3.2,5.6-6.4c1.6-3.2,2.4-4.8,2.4-8.8c0-0.8,0-0.8,0-1.6c0-2.4-0.8-4-2.4-6.4  c-0.8-1.6-1.6-2.4-3.2-3.2c0.8,0,0.8,0,1.6,0c2.4,0,4-1.6,4-4c0-0.8,0-1.6-0.8-2.4c0-0.8-0.8-0.8-0.8-0.8c0-0.8,0-1.6,0-2.4  s-0.8-0.8-0.8-0.8v-0.8c0-0.8-0.8-1.6-1.6-1.6l-2.4-12.8c1.6,0,2.4-1.6,2.4-3.2c0-1.6-0.8-2.4-1.6-3.2l-0.8-0.8h-0.8  C315.2,240,317.6,237.6,318.4,234.4z M209.6,279.2c-1.6-1.6-1.6-1.6-2.4-3.2c-0.8-1.6-0.8-2.4-0.8-3.2l0,0c0-0.8,0-1.6,0-1.6v-28.8  h40V280h-4v-36.8h-4.8V280h-4.8v-36.8H228V280h-4.8v-36.8h-4.8v37.6h-4.8v-37.6h-4.8V280l0,0l0,0c0,0,0.8,0,0.8,0.8h-0.8  C210.4,280.8,209.6,280,209.6,279.2z M264.8,279.2L264.8,279.2c0-0.8,0-0.8,0-1.6l0,0l0,0l0,0l0,0l0,0c0,0,0,0,0-0.8  c0,0-0.8,0-0.8-0.8l0,0l0.8-0.8l0,0l0,0l0,0c0,0,0,0,0.8,0c0,0,0,0,0.8,0h0.8l0,0l0,0c0,0.8,0,1.6,0,1.6l0,0l0,0v0.8v0.8l0,0  L264.8,279.2L264.8,279.2z M268,279.2c0-0.8,0-0.8,0-1.6v-0.8c0-0.8,0-0.8,0-0.8c0-0.8,0-0.8,0-1.6c1.6,0,3.2,0,4.8,0l0,0l0,0l0,0  l0,0l0,0l0.8,0.8v0.8l0,0l0,0l0,0l0,0l0,0c0,0,0,0,0.8,0c0,0,0,0,0.8,0l0,0l0,0l0,0l0,0c0,0,0,0,0-0.8l0,0h0.8l0,0l0,0l0,0l0,0  c0,0,0,0,0,0.8v0.8c0,0,0,0.8-0.8,0.8l0,0c0,0,0,0,0,0.8c0,0,0,0-0.8,0.8c0,0-0.8,0-0.8,0.8l0,0l0,0l0,0L268,279.2L268,279.2z   M280.8,278.4C280,278.4,280,278.4,280.8,278.4l-3.2,0.8c0,0,0,0,0-0.8c0.8-0.8,0.8-1.6,1.6-1.6c0,0,0.8,0,0.8-0.8c0,0,0,0,0-0.8  l0,0l0,0l0,0l0,0l0,0c0.8,0,0.8,0,0.8,0.8v0.8v0.8C280.8,277.6,280.8,277.6,280.8,278.4z M281.6,278.4c0-0.8,0-1.6,0-1.6  c0-0.8,0-0.8,0-0.8s0,0,0-0.8s0-0.8-0.8-1.6v-0.8c0,0,0-0.8,0-1.6c0-0.8,0-0.8,0-0.8l0,0l0,0l0,0c0.8,0,0.8-0.8,0.8-0.8v-0.8  c0,0,0,0,0-0.8c0,0,0,0,0-0.8c0,0,0,0,0-0.8s-0.8-0.8-1.6-0.8c-0.8,0-1.6,0-1.6,0c-0.8,0-1.6,0-2.4,0s-1.6,0-2.4,0s-1.6,0-2.4,0  s-2.4,0-3.2,0c-0.8,0-1.6,0-3.2,0.8c-0.8,0-1.6,0-1.6,0l0,0l0,0h-0.8l0,0c0,0,0,0,0.8-0.8c0,0,0,0,0-0.8c0,0,0,0,0-0.8  c0,0,0,0-0.8,0c0,0,0,0-0.8,0c0,0,0,0-0.8,0c0,0,0,0-0.8,0l0,0l0,0c0,0,0,0,0-0.8v-0.8c0,0,0,0,0-0.8c0,0,0,0,0-0.8l0,0l0,0v0.8  c0,0,0,0,0,0.8c0,0,0,0,0,0.8c0,0,0,0,0,0.8l0,0c-0.8,0-0.8,0-1.6,0l0,0l0,0l0,0l0,0v-0.8c0,0,0,0,0-0.8c0,0,0,0-0.8,0l0,0l0,0  c0,0,0,0,0,0.8s0,0,0,0.8c0,0,0,0,0,0.8c0,0,0,0,0,0.8c0,0,0,0,0,0.8l0,0l0,0l0,0c0,0,0,0,0,0.8c0,0,0,0,0,0.8c0,0,0,0-0.8,0.8  c0,0,0,0-0.8,0.8l0,0l0,0l0,0l0,0v0.8l0,0h0.8h0.8c0,0,0.8,0,0.8,0.8c0,0,0,0,0.8,0c0,0,0,0,0.8,0l0,0l0,0l0,0l0,0l0,0l0,0l0,0l0,0  l0.8,0.8l0,0c0,0,0,0,0,0.8s0.8,1.6,0.8,1.6s0,0.8,0.8,0.8l0,0l-0.8,0.8c0,0.8-0.8,0.8,0,1.6c0,0.8,0,0.8,0.8,0.8v0.8v0.8l0,0l0,0  l-12,0v-36.8h40V272v1.6l0,0c0,0.8,0,1.6-0.8,3.2c-0.8,0.8-0.8,0.8-1.6,1.6L281.6,278.4z M289.6,199.2v40h-40v-40H289.6z   M245.6,199.2v40h-40v-40H245.6z M303.2,212.8L303.2,212.8L303.2,212.8L303.2,212.8z"/>
<g>
	<path style="fill:#C40000;" d="M282.4,267.2L282.4,267.2c-0.8-0.8-0.8-0.8-1.6-0.8c-0.8,0-1.6,0-1.6,0c-0.8,0-1.6,0-2.4,0   s-1.6,0-2.4,0s-1.6,0-2.4,0s-1.6,0-2.4,0l10.4,8.8l0,0l0,0l0,0l0,0l0,0c0.8,0,0.8,0,0.8,0.8l0,0l1.6,1.6c0,0,0,0,0-0.8   c0,0,0,0,0-0.8s0-0.8-0.8-1.6v-0.8c0,0,0-0.8,0-1.6c0-0.8,0-0.8,0-0.8l0,0l0,0l0,0c0.8,0,0.8-0.8,0.8-0.8v-0.8   C283.2,268,282.4,268,282.4,267.2L282.4,267.2z"/>
	<path style="fill:#C40000;" d="M314.4,214.4c-1.6-1.6-4-2.4-6.4-2.4l0,0c-0.8,0-0.8,0-1.6,0c-0.8,0-2.4,0.8-3.2,0.8   c0,0,0-0.8,0-1.6l0,0c0-1.6-0.8-2.4-2.4-2.4l0,0l1.6-6.4c1.6-1.6,3.2-3.2,4-4c2.4-3.2,3.2-4,3.2-7.2c0-1.6-1.6-4-3.2-4l0,0l0,0   c-0.8-1.6-2.4-3.2-4-3.2l0,0l-0.8-0.8c-0.8-0.8-1.6-1.6-2.4-1.6s-2.4,0-3.2,0.8h-0.8l0,0l0,0l0,0c0,0,0-0.8-0.8-0.8   s-0.8-0.8-1.6-0.8c-0.8,0-1.6,0.8-2.4,0.8s-0.8,0-0.8-0.8c-0.8-0.8-0.8-0.8-1.6-0.8c-1.6,0-1.6,0.8-2.4,1.6c0,0,0,0,0,0.8l0,0l0,0   l0,0l0,0h-0.8c-1.6,0.8-3.2,1.6-3.2,4v0.8l-5.6,1.6h-5.6v-2.4c0,0.8,0,0.8-0.8,0.8l0.8-1.6v0.8c0.8-1.6,2.4-4.8,2.4-6.4   c0-3.2-0.8-5.6-2.4-7.2c-0.8-0.8-1.6-0.8-2.4-0.8s-1.6,0-2.4,0c-1.6,0-3.2,0.8-5.6,1.6c-3.2,1.6-5.6,3.2-8.8,3.2   c-5.6,0-8-4.8-14.4-4.8c-2.4,0-4,0.8-4.8,2.4c-1.6,1.6-1.6,3.2-1.6,4.8c0,2.4,0.8,4,1.6,6.4c0.8,1.6,1.6,2.4,1.6,4l0,0h-7.2   l-4.8-0.8c0,0,0,0,0-0.8c0-2.4-1.6-3.2-3.2-4c-0.8,0-0.8,0-0.8,0c-0.8-0.8-0.8-0.8-1.6-1.6s-1.6-0.8-2.4-0.8c-0.8,0-1.6,0-2.4,0.8   c0,0,0,0.8-0.8,0.8s-1.6-0.8-2.4-0.8c-0.8,0-0.8,0-1.6,0.8c-0.8,0-0.8,0.8-0.8,0.8h-0.8c-0.8,0-0.8,0-1.6,0c-1.6,0-2.4,0.8-3.2,1.6   c0,0.8-0.8,0.8-0.8,0.8c-5.6-2.4-6.4-3.2-7.2-2.4s-0.8,0.8-0.8,1.6c0,0,0,0.8-0.8,0.8s-0.8,0-1.6,0c-1.6,0.8-2.4,1.6-2.4,3.2l0,0   v0.8c0,0,0,0,0,0.8l0,0c0.8,4,4,6.4,6.4,8.8v0.8l12,10.4v-12.8h40v40H236l4.8,4h3.2v3.2l4,4v-6.4h40V272v1.6c0,0.8,0,1.6-0.8,3.2   c-0.8,0.8-0.8,0.8-1.6,1.6h-3.2L308,300c2.4-1.6,4-3.2,4.8-6.4c1.6-3.2,2.4-4.8,2.4-8.8c0-0.8,0-0.8,0-1.6c0-2.4-0.8-4-2.4-6.4   c-0.8-1.6-1.6-2.4-3.2-3.2c0.8,0,0.8,0,1.6,0c2.4,0,4-1.6,4-4c0-0.8,0-1.6-0.8-2.4c0-0.8-0.8-0.8-0.8-0.8c0-0.8,0-1.6,0-2.4   s-0.8-0.8-0.8-0.8v-0.8c0-0.8-0.8-1.6-1.6-1.6l-2.4-12.8c1.6,0,2.4-1.6,2.4-3.2c0-1.6-0.8-2.4-1.6-3.2l-0.8-0.8H308   c4.8-1.6,8-4,8.8-6.4s1.6-4,1.6-6.4v-0.8c0-0.8,0-3.2-0.8-4.8C319.2,218.4,316,215.2,314.4,214.4z M289.6,239.2h-40v-40h40V239.2z"/>
	<rect x="256" y="199.2" style="fill:#C40000;" width="5.6" height="39.2"/>
</g>
<g>
	<path style="fill:#ED2524;" d="M227.2,230.4L227.2,230.4L227.2,230.4z"/>
	<path style="fill:#ED2524;" d="M224.8,230.4L224.8,230.4L224.8,230.4z"/>
	<path style="fill:#ED2524;" d="M210.4,234.4l-1.6,1.6l1.6,1.6l4-4.8c0.8,2.4,1.6,4.8,4,4.8c0.8,0,1.6,0,3.2-0.8   c0.8,0,1.6-0.8,1.6-1.6c0.8-0.8,0.8-0.8,0.8-1.6s0.8-2.4,0.8-2.4l0,0c0,0,0.8,0,1.6,0s0.8,0,1.6,0l0,0c0,0,0,1.6,0.8,2.4   c0.8,1.6,0.8,1.6,0.8,1.6c0.8,0.8,1.6,1.6,1.6,1.6c0.8,0.8,1.6,0.8,3.2,0.8c2.4,0,4-3.2,4.8-5.6c0.8-2.4,2.4-4,4-3.2   c0.8,0.8,0.8,1.6,0,2.4c-0.8,0.8-1.6,1.6-1.6,1.6l1.6,1.6c0,0,3.2,0,4-3.2c0-1.6,0-3.2-2.4-4s-4,0.8-4.8,2.4   c-0.8,2.4-1.6,6.4-4.8,5.6c-1.6,0-2.4-2.4-2.4-4l0,0c0.8,0,0.8,0.8,1.6,0.8c4.8-9.6,5.6-16,5.6-16l-3.2-4l1.6-2.4   c0.8-0.8,0.8-1.6,0.8-1.6c0-0.8,0-0.8,0-1.6s0-0.8,0-1.6c0.8-0.8,1.6-1.6,2.4-1.6c0.8,0,2.4,0.8,2.4,2.4c0,0.8-0.8,2.4-2.4,1.6   l-2.4,0.8c0.8,0.8,1.6,0.8,3.2,0.8c2.4-0.8,2.4-4.8,0.8-6.4c-2.4-2.4-6.4-0.8-7.2,0.8h-0.8h-0.8c0,0,0,0,0,0.8v0.8h1.6   c0,0,0,0,0,0.8v0.8h-1.6v0.8v0.8h0.8c0,0.8-0.8,1.6-0.8,1.6l-1.6,1.6l-7.2-11.2l-12,15.2c0,0,0.8,4,3.2,11.2l-3.2,3.2l0,0   c-0.8-1.6-2.4-3.2-4.8-2.4c-2.4,0.8-2.4,3.2-2.4,4C208,233.6,208.8,234.4,210.4,234.4z M235.2,216c0,0-0.8,4.8-4,12.8   c-1.6,0-2.4-0.8-4-0.8v-8.8l4-4l1.6-2.4L235.2,216z M231.2,211.2l-2.4,2.4l-1.6,2.4v-10.4L231.2,211.2z M224.8,228   c-1.6,0-2.4,0-4,0.8c0-0.8-0.8-1.6-0.8-2.4l4.8-4.8V228z M216.8,216l8-10.4v12.8l-5.6,5.6C217.6,219.2,216.8,216,216.8,216z    M218.4,228.8c0.8,0.8,0.8,2.4,1.6,3.2c0.8,0,1.6-0.8,1.6-0.8l0,0c0,0.8-0.8,3.2-2.4,4c-2.4,0.8-3.2-1.6-4-3.2L218.4,228.8z    M210.4,229.6c0.8-0.8,2.4,0,3.2,1.6l-1.6,1.6c-0.8,0-0.8-0.8-1.6-0.8C209.6,230.4,209.6,229.6,210.4,229.6z"/>
	<path style="fill:#ED2524;" d="M261.6,252.8L261.6,252.8c-0.8-0.8-0.8-0.8-0.8,0c0,0,0,0,0,0.8v0.8c0,0,0,0-0.8,0   c0,0,0.8,0,0.8,0.8h0.8c0,0,0,0,0-0.8C261.6,254.4,261.6,254.4,261.6,252.8C261.6,253.6,261.6,253.6,261.6,252.8z"/>
</g>
<path style="fill:#C40000;" d="M282.4,249.6L282.4,249.6c-0.8-0.8-0.8-0.8-1.6-0.8c-0.8,0-1.6,0-1.6,0c-0.8,0-1.6,0-2.4,0  s-1.6,0-2.4,0s-1.6,0-2.4,0s-2.4,0-3.2,0c-0.8,0-1.6,0-3.2,0.8c-0.8,0-1.6,0-1.6,0l0,0l0,0h-0.8l0,0c0,0,0,0,0.8-0.8c0,0,0,0,0-0.8  c0,0,0,0,0-0.8c0,0,0,0-0.8,0c0,0,0,0-0.8,0c0,0,0,0-0.8,0c0,0,0,0-0.8,0l0,0l0,0c0,0,0,0,0-0.8v-0.8c0,0,0,0,0-0.8c0,0,0,0,0-0.8  l0,0l0,0v0.8c0,0,0,0,0,0.8c0,0,0,0,0,0.8l0,0l0,0c-0.8,0-0.8,0-1.6-0.8l0,0l0,0l0,0l0,0v-0.8c0,0,0,0,0-0.8c0,0,0,0-0.8,0l0,0l0,0  c0,0,0,0,0,0.8c0,0,0,0,0,0.8c0,0,0,0,0,0.8c0,0,0,0,0,0.8c0,0,0,0,0,0.8l0,0l0,0l0,0c0,0,0,0,0,0.8c0,0,0,0,0,0.8c0,0,0,0-0.8,0.8  c0,0,0,0-0.8,0.8l0,0l0,0l0,0l0,0v0.8l0,0h0.8h0.8c0,0,0.8,0,0.8,0.8c0,0,0,0,0.8,0c0,0,0,0,0.8,0l0,0l0,0l0,0l0,0l0,0l0,0l0,0l0,0  l0.8,0.8l0,0c0,0,0,0,0,0.8s0.8,1.6,0.8,1.6s0,0.8,0.8,0.8l0,0l-0.8,0.8c0,0.8-0.8,0.8,0,1.6c0,0.8,0,0.8,0.8,0.8v0.8v0.8l0,0  c0,0,0,0.8,0.8,0.8l0,0c0,0,0,0,0-0.8c0,0,0,0,0-0.8V260l0,0l0,0l0,0l0,0l0,0c0,0,0,0,0-0.8l-0.8-0.8l0,0l0.8-0.8l0,0l0,0l0,0  c0,0,0,0,0.8,0c0,0,0,0,0.8,0c0,0,0,0,0.8,0v0.8v-0.8l0,0l0,0c0,0.8,0,1.6,0,1.6l0,0l0,0v0.8v0.8c0,0,0,0,0,0.8c0,0,0,0-0.8,0l0,0  l-0.8,0.8l0,0c0,0,0,0,0.8,0c0,0,0,0,0.8,0h0.8l0,0l0,0l0,0l0,0c0,0,0,0,0.8,0l0,0v-0.8c0-0.8,0-0.8,0-1.6v-0.8c0-0.8,0-0.8,0-0.8  c0-0.8,0-0.8,0-0.8c1.6,0,3.2,0,4.8,0l0,0l0,0l0,0l0,0l0,0l0.8,0.8v0.8l0,0l0,0l0,0l0,0l0,0c0,0,0,0,0.8,0c0,0,0,0,0.8,0l0,0l0,0  l0,0l0,0l0,0l0,0h0.8l0,0l0,0l0,0l0,0c0,0,0,0,0,0.8v0.8c0,0,0,0.8-0.8,0.8l0,0c0,0,0,0,0,0.8c0,0,0,0-0.8,0.8c0,0-0.8,0-0.8,0.8  l0,0l0,0l-0.8,0.8l0,0c0,0,0,0,0.8,0c0,0,0,0,0.8,0h0.8l0,0l0,0l0,0l0,0c0,0,0,0,0.8,0V264c0.8-0.8,0.8-1.6,1.6-1.6  c0,0,0.8,0,0.8-0.8c0,0,0,0,0-0.8l0,0l0,0l0,0l0,0l0,0c0.8,0,0.8,0,0.8,0.8v0.8v0.8c0,0.8,0,0.8,0,0.8v0.8c0,0,0,0.8-0.8,0.8l0,0  l0,0l-0.8,0.8l0,0c0,0,0,0,0.8,0c0,0,0,0,0.8,0h0.8l0,0l0,0v-0.8l0,0l0,0c0-0.8,0-1.6,0-2.4s0-0.8,0-0.8s0,0,0-0.8s0-0.8-0.8-1.6  v-0.8c0,0,0-0.8,0-1.6c0-0.8,0-0.8,0-0.8l0,0l0,0l0,0c0.8,0,0.8,0,0.8-0.8v-0.8C283.2,250.4,282.4,250.4,282.4,249.6L282.4,249.6z"/>
<path style="fill:#ED2524;" d="M261.6,272.8L261.6,272.8c0-0.8,0-0.8,0-0.8v-0.8c0,0,0,0-0.8,0H260v0.8v0.8c0,0,0,0-0.8,0h0.8  C260.8,272.8,261.6,272.8,261.6,272.8z"/>
<g>
	<rect x="267.2" y="199.2" style="fill:#C40000;" width="5.6" height="39.2"/>
	<rect x="278.4" y="199.2" style="fill:#C40000;" width="5.6" height="39.2"/>
</g>
<g>
</g>
<g>
</g>
<g>
</g>
<g>
</g>
<g>
</g>
<g>
</g>
<g>
</g>
<g>
</g>
<g>
</g>
<g>
</g>
<g>
</g>
<g>
</g>
<g>
</g>
<g>
</g>
<g>
</g>
</svg>
