<?xml version="1.0" encoding="iso-8859-1"?>
<!-- Generator: Adobe Illustrator 19.0.0, SVG Export Plug-In . SVG Version: 6.00 Build 0)  -->
<svg xmlns="http://www.w3.org/2000/svg"  version="1.1" id="Layer_1" x="0px" y="0px" viewBox="0 0 496 496" style="enable-background:new 0 0 496 496;" xml:space="preserve">
<path style="fill:#E42F2F;" d="M448,80H48C21.6,80,0,99.2,0,126.4V160h496v-33.6C496,99.2,474.4,80,448,80z"/>
<rect y="160" style="fill:#135288;" width="496" height="88"/>
<rect y="248" style="fill:#F8D544;" width="496" height="88"/>
<path style="fill:#3DA248;" d="M0,336v33.6C0,396.8,21.6,416,48,416h400c26.4,0,48-19.2,48-46.4V336H0z"/>
<path style="fill:#1C9124;" d="M444.8,416c26.4,0,51.2-19.2,51.2-46.4V336H350.4L444.8,416z"/>
<path style="fill:#D81313;" d="M448,80H48l98.4,80H496v-33.6C496,99.2,474.4,80,448,80z"/>
<polygon style="fill:#004375;" points="248,248 496,248 496,160 145.6,160 "/>
<polygon style="fill:#E8BB00;" points="350.4,336 496,336 496,248 248,248 "/>
<path style="fill:#C60000;" d="M448,80H48l272.8,80H496v-33.6C496,99.2,474.4,80,448,80z"/>
<polygon style="fill:#003759;" points="496,214.4 496,160 318.4,160 "/>
<path style="fill:#008403;" d="M496,368.8c0,29.6-21.6,47.2-48,47.2H48c-26.4,0-48-20.8-48-48"/>
<g>
</g>
<g>
</g>
<g>
</g>
<g>
</g>
<g>
</g>
<g>
</g>
<g>
</g>
<g>
</g>
<g>
</g>
<g>
</g>
<g>
</g>
<g>
</g>
<g>
</g>
<g>
</g>
<g>
</g>
</svg>
