<?xml version="1.0" encoding="iso-8859-1"?>
<!-- Generator: Adobe Illustrator 19.0.0, SVG Export Plug-In . SVG Version: 6.00 Build 0)  -->
<svg xmlns="http://www.w3.org/2000/svg"  version="1.1" id="Layer_1" x="0px" y="0px" viewBox="0 0 496 496" style="enable-background:new 0 0 496 496;" xml:space="preserve">
<path style="fill:#359846;" d="M496,369.6c0,27.2-21.6,46.4-48,46.4H48c-26.4,0-48-19.2-48-46.4V126.4C0,99.2,21.6,80,48,80h400  c26.4,0,48,19.2,48,46.4V369.6z"/>
<path style="fill:#0E7F2E;" d="M48,80h400c26.4,0,48,19.2,48,46.4v243.2c0,27.2-21.6,46.4-48,46.4"/>
<g>
	<path style="fill:#056D20;" d="M48,80h400c26.4,0,48,19.2,48,46.4V216"/>
	<path style="fill:#056D20;" d="M496,368.8c0,27.2-21.6,47.2-48,47.2H48c-26.4,0-48-20.8-48-48"/>
</g>
<path style="fill:#F8D12E;" d="M248,304c-56,0-101.6-41.6-108-96c-0.8,4.8-0.8,8.8-0.8,13.6c0,60,48.8,109.6,109.6,109.6  s109.6-48.8,109.6-109.6c0-4.8,0-8.8-0.8-13.6C349.6,262.4,304,304,248,304z"/>
<path style="fill:#ED9F14;" d="M299.2,291.2l17.6,15.2c24.8-20,40-50.4,40-84.8c0-4.8,0-8.8-0.8-13.6  C352,244.8,329.6,275.2,299.2,291.2z"/>
<polygon style="fill:#F8D12E;" points="245.6,164 254.4,192 284,192 260,209.6 269.6,237.6 245.6,220.8 221.6,237.6 231.2,209.6   207.2,192 236.8,192 "/>
<polygon style="fill:#ED9F14;" points="254.4,192 245.6,164 236.8,192 207.2,192 231.2,209.6 224.8,228 229.6,232 245.6,220.8   269.6,237.6 260,209.6 284,192 "/>
<g>
</g>
<g>
</g>
<g>
</g>
<g>
</g>
<g>
</g>
<g>
</g>
<g>
</g>
<g>
</g>
<g>
</g>
<g>
</g>
<g>
</g>
<g>
</g>
<g>
</g>
<g>
</g>
<g>
</g>
</svg>
