<?xml version="1.0" encoding="iso-8859-1"?>
<!-- Generator: Adobe Illustrator 19.0.0, SVG Export Plug-In . SVG Version: 6.00 Build 0)  -->
<svg xmlns="http://www.w3.org/2000/svg"  version="1.1" id="Layer_1" x="0px" y="0px" viewBox="0 0 496 496" style="enable-background:new 0 0 496 496;" xml:space="preserve">
<path style="fill:#269D49;" d="M0,304v65.6C0,396.8,21.6,416,48,416h400c26.4,0,48-19.2,48-46.4V304H0z"/>
<path style="fill:#E61E25;" d="M448,80H48C21.6,80,0,99.2,0,126.4V192h496v-65.6C496,99.2,474.4,80,448,80z"/>
<rect y="192" style="fill:#3A3A3A;" width="496" height="112"/>
<path style="fill:#1C934C;" d="M446.4,416c26.4,0,49.6-19.2,49.6-46.4V304H315.2L446.4,416z"/>
<path style="fill:#D10010;" d="M448,80H48l132.8,112H496v-65.6C496,99.2,474.4,80,448,80z"/>
<polygon style="fill:#282828;" points="316,304 496,304 496,192 180,192 "/>
<path style="fill:#AA0015;" d="M448,80H48l370.4,112H496v-65.6C496,99.2,474.4,80,448,80z"/>
<polygon style="fill:#070707;" points="496,214.4 496,192 414.4,192 "/>
<path style="fill:#198C40;" d="M496,368.8c0,29.6-21.6,47.2-48,47.2H48c-26.4,0-48-20.8-48-48"/>
<polygon style="fill:#D5E0E0;" points="296.8,235.2 285.6,238.4 281.6,240 272.8,226.4 272,242.4 257.6,246.4 272,252 271.2,268   280.8,255.2 286.4,257.6 296,260.8 287.2,248 "/>
<path style="fill:#FFFFFF;" d="M217.6,248c0-18.4,14.4-32.8,32.8-32.8c6.4,0,12,1.6,16.8,4.8c-7.2-7.2-16.8-11.2-28-11.2  c-22.4,0-40,17.6-40,40s17.6,40,40,40c11.2,0,20.8-4.8,28-11.2c-4.8,3.2-10.4,4.8-16.8,4.8C232,280.8,217.6,266.4,217.6,248z"/>
<path style="fill:#D5E0E0;" d="M212.8,218.4L224,228c6.4-8,15.2-12.8,26.4-12.8c6.4,0,12,1.6,16.8,4.8c-7.2-7.2-16.8-11.2-28-11.2  C228.8,208,220,212,212.8,218.4z"/>
<g>
</g>
<g>
</g>
<g>
</g>
<g>
</g>
<g>
</g>
<g>
</g>
<g>
</g>
<g>
</g>
<g>
</g>
<g>
</g>
<g>
</g>
<g>
</g>
<g>
</g>
<g>
</g>
<g>
</g>
</svg>
