<?xml version="1.0" encoding="iso-8859-1"?>
<!-- Generator: Adobe Illustrator 19.0.0, SVG Export Plug-In . SVG Version: 6.00 Build 0)  -->
<svg xmlns="http://www.w3.org/2000/svg"  version="1.1" id="Layer_1" x="0px" y="0px" viewBox="0 0 496 496" style="enable-background:new 0 0 496 496;" xml:space="preserve">
<path style="fill:#3757A6;" d="M496,369.6c0,27.2-21.6,46.4-48,46.4H48c-26.4,0-48-19.2-48-46.4V126.4C0,99.2,21.6,80,48,80h400  c26.4,0,48,19.2,48,46.4V369.6z"/>
<path style="fill:#284C93;" d="M48,80h400c26.4,0,48,19.2,48,46.4v243.2c0,27.2-25.6,46.4-52,46.4"/>
<g>
	<path style="fill:#19407F;" d="M496,368.8c0,28.8-21.6,47.2-48,47.2H48c-26.4,0-48-20.8-48-48"/>
	<path style="fill:#19407F;" d="M48,80h400c26.4,0,48,19.2,48,46.4V216"/>
</g>
<polygon style="fill:#FFD72E;" points="496,200 296,200 296,80 200,80 200,200 0,200 0,296 200,296 200,416 296,416 296,296   496,296 "/>
<rect x="200" y="368" style="fill:#ED9D0F;" width="96" height="48"/>
<polygon style="fill:#EFB30C;" points="296,80 200,80 200,200 188.8,200 304,296 496,296 496,200 296,200 "/>
<g>
	<polygon style="fill:#ED9D0F;" points="296,154.4 296,80 200,80 200,123.2  "/>
	<polygon style="fill:#ED9D0F;" points="496,214.4 496,200 439.2,200  "/>
</g>
<polygon style="fill:#D32027;" points="496,216 280,216 280,80 216,80 216,216 0,216 0,280 216,280 216,416 280,416 280,280   496,280 "/>
<rect x="216" y="368" style="fill:#AA0015;" width="64" height="48"/>
<polygon style="fill:#BC0D1B;" points="280,80 216,80 216,216 208,216 284.8,280 496,280 496,216 280,216 "/>
<g>
</g>
<g>
</g>
<g>
</g>
<g>
</g>
<g>
</g>
<g>
</g>
<g>
</g>
<g>
</g>
<g>
</g>
<g>
</g>
<g>
</g>
<g>
</g>
<g>
</g>
<g>
</g>
<g>
</g>
</svg>
