<?xml version="1.0" encoding="iso-8859-1"?>
<!-- Generator: Adobe Illustrator 19.0.0, SVG Export Plug-In . SVG Version: 6.00 Build 0)  -->
<svg xmlns="http://www.w3.org/2000/svg"  version="1.1" id="Layer_1" x="0px" y="0px" viewBox="0 0 496 496" style="enable-background:new 0 0 496 496;" xml:space="preserve">
<g>
	<path style="fill:#3D91CF;" d="M0,304v65.6C0,396.8,21.6,416,48,416h400c26.4,0,48-19.2,48-46.4V304H0z"/>
	<path style="fill:#3D91CF;" d="M448,80H48C21.6,80,0,99.2,0,126.4V192h496v-65.6C496,99.2,474.4,80,448,80z"/>
</g>
<rect y="192" style="fill:#D3ECEF;" width="496" height="112"/>
<g>
	<path style="fill:#2586C1;" d="M446.4,416c26.4,0,49.6-19.2,49.6-46.4V304H315.2L446.4,416z"/>
	<path style="fill:#2586C1;" d="M448,80H48l132.8,112H496v-65.6C496,99.2,474.4,80,448,80z"/>
</g>
<polygon style="fill:#B5DEE2;" points="316,304 496,304 496,192 180,192 "/>
<path style="fill:#0F73A5;" d="M448,80H48l370.4,112H496v-65.6C496,99.2,474.4,80,448,80z"/>
<polygon style="fill:#8CD0D3;" points="496,214.4 496,192 414.4,192 "/>
<path style="fill:#0F73A5;" d="M496,368.8c0,28.8-21.6,47.2-48,47.2H48c-26.4,0-48-20.8-48-48"/>
<g>
	<polygon style="fill:#3D91CF;" points="165.6,200 171.2,216 188,216 174.4,225.6 179.2,240.8 165.6,231.2 152,240.8 157.6,225.6    144,216 160.8,216  "/>
	<polygon style="fill:#3D91CF;" points="165.6,256 171.2,272 188,272 174.4,281.6 179.2,296.8 165.6,287.2 152,296.8 157.6,281.6    144,272 160.8,272  "/>
	<polygon style="fill:#3D91CF;" points="248.8,224 253.6,240 270.4,240 256.8,251.2 262.4,268 248.8,258.4 235.2,268.8 240.8,251.2    227.2,240 244,240  "/>
</g>
<g>
	<polygon style="fill:#0F73A5;" points="253.6,240 248.8,224 244,240 241.6,240 258.4,255.2 256.8,250.4 270.4,240  "/>
	<path style="fill:#0F73A5;" d="M321.6,224.8l-4.8,16l1.6-0.8l12-8.8l13.6,9.6l-4.8-15.2L352,216h-16.8l-4.8-16l-4.8,16h-16.8   C308.8,216,321.6,224.8,321.6,224.8L321.6,224.8z"/>
	<path style="fill:#0F73A5;" d="M335.2,272l-4.8-16l-4.8,16h-16l12.8,8.8l0,0l-4.8,16l13.6-9.6l13.6,9.6l-4.8-15.2l12-9.6H335.2z"/>
</g>
<g>
</g>
<g>
</g>
<g>
</g>
<g>
</g>
<g>
</g>
<g>
</g>
<g>
</g>
<g>
</g>
<g>
</g>
<g>
</g>
<g>
</g>
<g>
</g>
<g>
</g>
<g>
</g>
<g>
</g>
</svg>
