<?xml version="1.0" encoding="iso-8859-1"?>
<!-- Generator: Adobe Illustrator 19.0.0, SVG Export Plug-In . SVG Version: 6.00 Build 0)  -->
<svg xmlns="http://www.w3.org/2000/svg"  version="1.1" id="Layer_1" x="0px" y="0px" viewBox="0 0 496 496" style="enable-background:new 0 0 496 496;" xml:space="preserve">
<path style="fill:#359846;" d="M0,248v121.6C0,396.8,21.6,416,48,416h400c26.4,0,48-19.2,48-46.4V248H0z"/>
<path style="fill:#248431;" d="M248,248l197.6,168c26.4,0,50.4-19.2,50.4-46.4V248H248z"/>
<path style="fill:#F8D12E;" d="M448,80H48C21.6,80,0,99.2,0,126.4V248h496V126.4C496,99.2,474.4,80,448,80z"/>
<path style="fill:#F4AC1C;" d="M448,80H48l200,168h248V126.4C496,99.2,474.4,80,448,80z"/>
<path style="fill:#C11414;" d="M496,368.8c0,27.2-21.6,47.2-48,47.2H48c-26.4,0-48-20.8-48-48"/>
<path style="fill:#E89D07;" d="M48,80h400c26.4,0,48,19.2,48,46.4V216"/>
<path style="fill:#24722B;" d="M136,368v48h312c26.4,0,48-16,48-48H136z"/>
<path style="fill:#DB2727;" d="M136,80H48C21.6,80,0,99.2,0,126.4V248l0,0v121.6C0,396.8,21.6,416,48,416h88V80z"/>
<polygon style="fill:#ED3A3A;" points="136,80 48,80 136,150.4 "/>
<polygon style="fill:#FF2727;" points="136,80 48,80 136,104 "/>
<path style="fill:#C91212;" d="M0,248L0,248v121.6C0,396.8,21.6,416,48,416h88V248H0z"/>
<path style="fill:#B50606;" d="M0,368c0,32,21.6,48,48,48h88v-48H0z"/>
<polygon style="fill:#151515;" points="69.6,207.2 80.8,240 115.2,240 87.2,259.2 97.6,292 69.6,271.2 41.6,291.2 52.8,259.2   24.8,240 59.2,240 "/>
<g>
</g>
<g>
</g>
<g>
</g>
<g>
</g>
<g>
</g>
<g>
</g>
<g>
</g>
<g>
</g>
<g>
</g>
<g>
</g>
<g>
</g>
<g>
</g>
<g>
</g>
<g>
</g>
<g>
</g>
</svg>
