<?xml version="1.0" encoding="iso-8859-1"?>
<!-- Generator: Adobe Illustrator 19.0.0, SVG Export Plug-In . SVG Version: 6.00 Build 0)  -->
<svg xmlns="http://www.w3.org/2000/svg"  version="1.1" id="Layer_1" x="0px" y="0px" viewBox="0 0 496 496" style="enable-background:new 0 0 496 496;" xml:space="preserve">
<path style="fill:#CD2227;" d="M496,369.6c0,27.2-21.6,46.4-48,46.4H48c-26.4,0-48-19.2-48-46.4V126.4C0,99.2,21.6,80,48,80h400  c26.4,0,48,19.2,48,46.4V369.6z"/>
<g>
	<path style="fill:#A80014;" d="M496,368.8c0,27.2-21.6,47.2-48,47.2H48c-26.4,0-48-17.6-48-48"/>
	<path style="fill:#A80014;" d="M48,80h400c26.4,0,48,19.2,48,46.4v243.2c0,27.2-21.6,46.4-48,46.4"/>
</g>
<path style="fill:#890017;" d="M48,80h400c26.4,0,48,19.2,48,46.4V216"/>
<polygon style="fill:#FFFFFF;" points="496,216 280,216 280,80 216,80 216,216 0,216 0,280 216,280 216,416 280,416 280,280   496,280 "/>
<g>
	<rect x="216" y="368" style="fill:#D9ECED;" width="64" height="48"/>
	<polygon style="fill:#D9ECED;" points="280,80 216,80 216,216 210.4,216 285.6,280 496,280 496,216 280,216  "/>
</g>
<g>
</g>
<g>
</g>
<g>
</g>
<g>
</g>
<g>
</g>
<g>
</g>
<g>
</g>
<g>
</g>
<g>
</g>
<g>
</g>
<g>
</g>
<g>
</g>
<g>
</g>
<g>
</g>
<g>
</g>
</svg>
