<?xml version="1.0" encoding="iso-8859-1"?>
<!-- Generator: Adobe Illustrator 19.0.0, SVG Export Plug-In . SVG Version: 6.00 Build 0)  -->
<svg xmlns="http://www.w3.org/2000/svg"  version="1.1" id="Layer_1" x="0px" y="0px" viewBox="0 0 496 496" style="enable-background:new 0 0 496 496;" xml:space="preserve">
<path style="fill:#14477D;" d="M448,80H48C21.6,80,0,99.2,0,126.4V160h496v-33.6C496,99.2,474.4,80,448,80z"/>
<rect y="160" style="fill:#EFEFEF;" width="496" height="88"/>
<rect y="248" style="fill:#3DA248;" width="496" height="88"/>
<path style="fill:#F8D544;" d="M0,336v33.6C0,396.8,21.6,416,48,416h400c26.4,0,48-19.2,48-46.4V336H0z"/>
<path style="fill:#E5BB07;" d="M444.8,416c26.4,0,51.2-19.2,51.2-46.4V336H350.4L444.8,416z"/>
<path style="fill:#003666;" d="M448,80H48l98.4,80H496v-33.6C496,99.2,474.4,80,448,80z"/>
<polygon style="fill:#D0D3D6;" points="248,248 496,248 496,160 145.6,160 "/>
<polygon style="fill:#27892E;" points="350.4,336 496,336 496,248 248,248 "/>
<path style="fill:#002642;" d="M448,80H48l272.8,80H496v-33.6C496,99.2,474.4,80,448,80z"/>
<polygon style="fill:#B2BAC1;" points="496,214.4 496,160 318.4,160 "/>
<path style="fill:#E2A90A;" d="M496,368.8c0,28.8-21.6,47.2-48,47.2H48c-26.4,0-48-20.8-48-48"/>
<rect x="224" y="80" style="fill:#DF1E26;" width="48" height="336"/>
<rect x="224" y="336" style="fill:#C1021A;" width="48" height="80"/>
<rect x="224" y="368" style="fill:#A0001B;" width="48" height="48"/>
<polygon style="fill:#FF0B1D;" points="272,145.6 272,80 224,80 224,132 "/>
<polygon style="fill:#FFFFFF;" points="184,92 190.4,112 211.2,112 194.4,123.2 200.8,143.2 184,130.4 167.2,142.4 173.6,123.2   156.8,112 177.6,112 "/>
<g>
</g>
<g>
</g>
<g>
</g>
<g>
</g>
<g>
</g>
<g>
</g>
<g>
</g>
<g>
</g>
<g>
</g>
<g>
</g>
<g>
</g>
<g>
</g>
<g>
</g>
<g>
</g>
<g>
</g>
</svg>
