<?xml version="1.0" encoding="iso-8859-1"?>
<!-- Generator: Adobe Illustrator 19.0.0, SVG Export Plug-In . SVG Version: 6.00 Build 0)  -->
<svg xmlns="http://www.w3.org/2000/svg"  version="1.1" id="Layer_1" x="0px" y="0px" viewBox="0 0 496 496" style="enable-background:new 0 0 496 496;" xml:space="preserve">
<path style="fill:#7D224B;" d="M496,369.6c0,27.2-21.6,48.8-48,48.8H141.1L122,387.9V102.2c0,0,17.7-21.7,20-24.6h306  c26.4,0,48,21.6,48,48.8V369.6z"/>
<path style="fill:#6D1441;" d="M448,77.6H141l-26.2,56.9L448,418.4c26.4,0,48-21.6,48-48.8V126.4C496,99.2,474.4,77.6,448,77.6z"/>
<g>
	<path style="fill:#5B0735;" d="M142,418.4h306c26.4,0,48-21.6,48-48.8H125.7l1,38.4L142,418.4z"/>
	<path style="fill:#5B0735;" d="M448,77.6H140.3l-7.9,25.9l153,47L496,215.2v-88.8C496,99.2,474.4,77.6,448,77.6z"/>
</g>
<path style="fill:#F4F4F4;" d="M58,77.6H47.5C16,77.6,0,105.5,0,125.3v240.2c0,4.5,1.7,12.9,1.7,12.9h128.7l15.4-19.1L130.3,347  l16-11.8l-16-11.5l16-14.3l-18-12.2l18-13.3l-16-11.3l16-12.5l-16-12.3l19-12.2l-19-12.3l19-12.2l-19-12.8l17-12.5l-17-11.3l19-13.5  l-19-9.3l2-12.3L58,77.6z"/>
<path style="fill:#E1E1E1;" d="M135.2,99.2l36-12l-28-9.6h-30.4l0,0h-10.1H48l76.4,64.8l-19.6,6.4l36.8,12.8l-36.8,12l36.8,12.8  l-36.8,12l36.8,12.8l-36.8,12l36.8,12.8l-36.8,12l36.8,12l-36.8,12.8l36.8,12l-36.8,12.8l36.8,12l-36.8,12.8l36.8,12l-36.8,12.8  l36.8,12l-29.9,10.4H0c0,27.2,21.6,48.8,48,48.8h95.2l28-9.6l-36-13.6l36-12l-34.8-11.6l34.8-12.4l-36-12l36-12.8l-36-12l36-12.8  l-36-12l36-12.8l-36-12l36-12.8l-36-12l36-12l-36-12.8l36-12l-36-12.8l36-12l-36-12.8l36-12l-36-12.8l0,0l36-12l-36-12.8l36-12  L135.2,99.2z"/>
<g>
</g>
<g>
</g>
<g>
</g>
<g>
</g>
<g>
</g>
<g>
</g>
<g>
</g>
<g>
</g>
<g>
</g>
<g>
</g>
<g>
</g>
<g>
</g>
<g>
</g>
<g>
</g>
<g>
</g>
</svg>
