<?xml version="1.0" encoding="iso-8859-1"?>
<!-- Generator: Adobe Illustrator 19.0.0, SVG Export Plug-In . SVG Version: 6.00 Build 0)  -->
<svg xmlns="http://www.w3.org/2000/svg"  version="1.1" id="Layer_1" x="0px" y="0px" viewBox="0 0 496 496" style="enable-background:new 0 0 496 496;" xml:space="preserve">
<rect x="162.4" y="77.6" style="fill:#FFD72E;" width="170.4" height="340.8"/>
<path style="fill:#14477D;" d="M162.4,77.6H48c-26.4,0-48,21.6-48,48.8v243.2c0,27.2,21.6,48.8,48,48.8h115.2V77.6H162.4z"/>
<path style="fill:#ED2524;" d="M448,77.6H333.6v340.8H448c26.4,0,48-21.6,48-48.8V126.4C496,99.2,474.4,77.6,448,77.6z"/>
<path style="fill:#E20A0A;" d="M448,77.6H333.6v243.2L448,418.4c26.4,0,48-21.6,48-48.8V126.4C496,99.2,474.4,77.6,448,77.6z"/>
<polygon style="fill:#F4C70B;" points="333.6,320.8 333.6,77.6 162.4,77.6 162.4,175.2 "/>
<polygon style="fill:#0E3C66;" points="162.4,77.6 48,77.6 162.4,175.2 "/>
<path style="fill:#CE0000;" d="M333.6,418.4H448c26.4,0,48-21.6,48-48.8H333.6V418.4z"/>
<rect x="162.4" y="369.6" style="fill:#E8BC05;" width="170.4" height="48.8"/>
<path style="fill:#082F4C;" d="M0,369.6c0,27.2,21.6,48.8,48,48.8h115.2v-48.8H0z"/>
<path style="fill:#CE0000;" d="M448,77.6H333.6v87.2L496,214.4v-88C496,99.2,474.4,77.6,448,77.6z"/>
<polygon style="fill:#E8BC05;" points="333.6,164.8 333.6,77.6 162.4,77.6 162.4,112.8 "/>
<polygon style="fill:#082F4C;" points="162.4,77.6 48,77.6 162.4,112.8 "/>
<path style="fill:#14477D;" d="M313.6,234.4l-4,2.4l0.8,0.8c0,0-0.8,0-0.8,0.8s0,1.6,0,1.6s-3.2,0-4,0s0,2.4,0,4.8  c-0.8,3.2-1.6,3.2-1.6,3.2c0,0.8,0.8,1.6,0.8,1.6s-0.8,0-0.8,0.8s0,1.6,0,1.6c0,0.8-0.8,1.6-0.8,2.4c0-28,0-56,0-56  c0-3.2-5.6-11.2-12.8-16c-4.8,3.2-10.4,9.6-12,9.6c0,1.6,0.8,3.2,0.8,5.6v3.2c-4.8,0-6.4,2.4-10.4,4.8c-2.4,1.6-5.6,2.4-5.6,2.4  c-1.6-0.8-2.4-2.4-3.2-4c-2.4-3.2-3.2-7.2-3.2-12c0-1.6,1.6-4,1.6-4.8c0-2.4,0-3.2,0-3.2c0.8,0,1.6,1.6,1.6,1.6s0-3.2-0.8-4  c0,0,0.8-0.8,2.4-0.8c-0.8-0.8-2.4-2.4-2.4-2.4s0,0,0.8-0.8c0.8,0,1.6-0.8,2.4-0.8c-0.8,0-1.6,0-2.4-0.8c-1.6-0.8-4-1.6-6.4-2.4  c-4-1.6-6.4-1.6-8-1.6l0,0l0,0l0,0c-0.8,0-3.2,0-4,0.8s-0.8,1.6-0.8,1.6c-0.8,0.8-2.4,0.8-2.4,0.8c-0.8,0-2.4,0-2.4,0.8v-2.4v-0.8  h0.8h1.6c0.8,0,1.6,0.8,2.4,1.6c0.8-0.8,0.8-1.6,0.8-2.4s0-1.6-0.8-2.4c0,0.8-0.8,1.6-2.4,1.6h-1.6H232V168c0-0.8,0.8-1.6,1.6-1.6  c-0.8-0.8-1.6-0.8-2.4-0.8l0,0c-0.8,0-1.6,0-2.4,0.8c0.8,0,1.6,0.8,1.6,1.6v2.4h-0.8H228c-0.8,0-1.6-0.8-1.6-1.6  c-0.8,0.8-0.8,1.6-0.8,2.4c0,0.8,0,1.6,0.8,2.4c0-0.8,0.8-1.6,1.6-1.6h1.6h0.8v0.8v7.2v4c0,0.8-0.8,1.6-1.6,1.6  c0.8,0,2.4,1.6,2.4,2.4c0-0.8,1.6-2.4,2.4-2.4c-0.8,0-1.6-0.8-1.6-1.6v-4c3.2,1.6,7.2,3.2,7.2,10.4c0,4.8-0.8,9.6-3.2,13.6  c-0.8,1.6-2.4,2.4-3.2,4c-0.8,0-4-0.8-5.6-2.4c-4-2.4-5.6-4-10.4-4.8v-3.2c0-1.6,0.8-3.2,0.8-5.6c-1.6-0.8-7.2-7.2-12-9.6  c-7.2,4.8-12.8,12.8-12.8,16c0,0,0,16.8,0,37.6c-0.8-1.6-1.6-2.4-1.6-2.4s-0.8,1.6-0.8,3.2c-0.8-1.6-4-3.2-4-3.2s-0.8,3.2,0,4.8  s1.6,2.4,1.6,2.4c-1.6-0.8-4-0.8-4-0.8s0.8,3.2,3.2,4.8c0.8,0.8,2.4,0.8,4,1.6c0,0-0.8,0-0.8,0.8c0,0-0.8,0-0.8,0.8  c-0.8,0.8-0.8,0.8-0.8,1.6c0,0.8,1.6,0.8,2.4,0.8c0.8,0,0.8-0.8,0.8-1.6c0-0.8,0-0.8,0.8-1.6l1.6,3.2c0,0.8,0,1.6,0,2.4  c-3.2-0.8-5.6-0.8-5.6-0.8l0,0l0,0l0,0c0,0,0.8,1.6,2.4,2.4c-0.8,0-2.4,0.8-2.4,0.8s1.6,3.2,4.8,4c0.8,0,0.8,0,1.6,0  c0,16.8,0,33.6,0,44c0,1.6-0.8,4-0.8,4c2.4-0.8,7.2-8,8.8-10.4V296c3.2-1.6,5.6-4.8,7.2-7.2c0.8,0,1.6,0,2.4-0.8l0,0  c0,0-0.8,0-0.8,0.8c-0.8,0.8-0.8,1.6,0,1.6c0,0.8,0.8,0.8,0.8,0.8c-0.8,0.8-1.6,0.8-1.6,1.6c-0.8,0.8-0.8,2.4-0.8,3.2  c0,0.8,0.8,2.4,0.8,2.4c0-0.8,0-0.8,0-0.8l3.2,4c0,0,1.6,0.8,2.4,0c0.8-0.8,1.6-1.6,2.4-1.6v0.8l-0.8,4l5.6,3.2l1.6-5.6l-4-2.4  l-0.8-1.6l0,0c0.8-0.8,0.8-1.6,1.6-3.2c2.4-3.2,7.2-9.6,8-11.2v0.8c0.8-1.6,4.8-5.6,6.4-6.4c1.6,0.8,3.2,1.6,4.8,2.4  c0.8,0,0.8,0.8,1.6,0.8c-1.6,4-12,25.6-21.6,29.6c0,0,4,1.6,9.6,4.8c0.8,0.8,1.6,0.8,2.4,1.6c0.8-0.8,1.6-1.6,2.4-2.4  c3.2-4,6.4-9.6,6.4-9.6c0,1.6-1.6,5.6-4,10.4c-0.8,0.8-0.8,1.6-1.6,3.2c0.8,0.8,1.6,0.8,2.4,1.6c5.6,3.2,10.4,7.2,12,10.4  c1.6-3.2,7.2-7.2,12-10.4c0.8-0.8,1.6-0.8,2.4-1.6c-0.8-0.8-1.6-2.4-1.6-3.2c-3.2-4.8-4.8-8.8-4-10.4c0,0,3.2,4.8,6.4,9.6  c0.8,0.8,1.6,1.6,2.4,2.4c0.8-0.8,1.6-0.8,2.4-1.6c5.6-2.4,9.6-4.8,9.6-4.8c-8.8-4-19.2-25.6-20.8-29.6c0.8,0,0.8-0.8,1.6-0.8  c1.6-0.8,3.2-1.6,4.8-2.4c1.6,1.6,5.6,4.8,6.4,6.4c0-0.8,0-0.8,0-0.8c0.8,1.6,5.6,8,8,11.2c0.8,0.8,0.8,2.4,1.6,3.2  c0.8,0.8,1.6,1.6,2.4,2.4c0,0,0,0-0.8,0l0,0c-0.8,0-0.8,0-0.8,0.8v0.8c0,0-0.8,0-1.6,0v5.6l4.8-3.2c0-0.8-0.8-0.8-0.8-0.8  s0.8,0,0.8-0.8c0,0,0,0,0-0.8l0,0c0.8,0.8,2.4,0,2.4,0c0.8-0.8,3.2-4,3.2-4s0,0,0,0.8c0,0,0.8-1.6,0.8-2.4s-0.8-2.4-0.8-3.2  c0,0-0.8-0.8-1.6-1.6c0.8,0,1.6,0,1.6-0.8c0.8-0.8-0.8-2.4-0.8-2.4l0,0c1.6,2.4,4,6.4,7.2,7.2v-1.6c0.8,2.4,5.6,8.8,8.8,10.4  c0,0-0.8-2.4-0.8-4c0-9.6,0-24.8,0-41.6c0.8-2.4,2.4-4.8,3.2-6.4c0-0.8,0.8-0.8,1.6-0.8v-0.8c0,0,0.8,0,1.6-0.8  c0.8,0-0.8-0.8,1.6-3.2c1.6-1.6,4-2.4,4-3.2s-2.4-3.2-2.4-3.2s0.8,0,1.6-0.8c0-0.8,0-1.6,0-1.6h0.8v-4H313.6z M215.2,287.2  c0-0.8-0.8-0.8-1.6-0.8s-0.8,0.8-0.8,0.8H212v-0.8c0.8-0.8,3.2-1.6,4-4c1.6-2.4,0.8-5.6,0.8-5.6s-2.4,0.8-2.4,1.6c0-0.8,0-1.6,0-3.2  c0.8-3.2,1.6-6.4,2.4-8c0,0.8,0.8,0.8,0.8,1.6c0.8,0.8,2.4,2.4,3.2,3.2c0.8,0.8,2.4,1.6,3.2,1.6c-0.8,1.6-2.4,4.8-3.2,5.6  c0,0,0.8,0,1.6,0c-0.8,0.8-4,6.4-5.6,8c-0.8,1.6-1.6,1.6-2.4,0.8l-0.8-1.6c0,0,0.8,0,0.8,0.8s0.8,0.8,1.6,0  C215.2,288.8,216,288,215.2,287.2z M232,178.4L232,178.4c0-0.8,0.8-0.8,1.6-0.8c3.2,0,5.6,1.6,5.6,2.4l0,0  C236,180,233.6,179.2,232,178.4L232,178.4z M209.6,289.6v-0.8V289.6c0.8,0.8,0,0.8,0,0.8V289.6z M281.6,289.6c-1.6,0-2.4,0.8-4-0.8  c-1.6-2.4-4.8-7.2-5.6-8c0.8,0,1.6,0,1.6,0c-0.8-0.8-2.4-4-3.2-5.6c0.8-0.8,2.4-1.6,3.2-1.6c1.6-0.8,3.2-2.4,3.2-3.2  c0-0.8,0.8-0.8,0.8-1.6c0.8,4,4,13.6,6.4,18.4c0,0.8,0.8,1.6,0.8,1.6s-1.6,0-1.6,0.8s0,1.6,0,1.6  C283.2,290.4,282.4,289.6,281.6,289.6z"/>
<path style="fill:#082F4C;" d="M310.4,237.6c0,0-0.8,0-0.8,0.8s0,1.6,0,1.6s-3.2,0-4,0s0,2.4,0,4.8c-0.8,3.2-1.6,3.2-1.6,3.2  c0,0.8,0.8,1.6,0.8,1.6s-0.8,0-0.8,0.8s0,1.6,0,1.6c0,0.8-0.8,1.6-0.8,2.4c0-28,0-56,0-56c0-3.2-5.6-11.2-12.8-16  c-4.8,3.2-10.4,9.6-12,9.6c0,1.6,0.8,3.2,0.8,5.6v3.2c-4.8,0-6.4,2.4-10.4,4.8c-2.4,1.6-5.6,2.4-5.6,2.4c-1.6-0.8-2.4-2.4-3.2-4  c-2.4-3.2-3.2-7.2-3.2-12c0-1.6,1.6-4,1.6-4.8c0-2.4,0-3.2,0-3.2c0.8,0,1.6,1.6,1.6,1.6s0-3.2-0.8-4c0,0,0.8-0.8,2.4-0.8  c-0.8-0.8-2.4-2.4-2.4-2.4s0,0,0.8-0.8c0.8,0,1.6-0.8,2.4-0.8c-0.8,0-1.6,0-2.4-0.8c-1.6-0.8-4-1.6-6.4-2.4c-4-1.6-6.4-1.6-8-1.6  c-0.8,0-3.2,0-4,0.8s-0.8,1.6-0.8,1.6c-0.8,0.8-2.4,0.8-2.4,0.8c-0.8,0-2.4,0-2.4,0.8v-2.4v-0.8h0.8h1.6c0.8,0,1.6,0.8,2.4,1.6  c0.8-0.8,0.8-1.6,0.8-2.4s0-1.6-0.8-2.4c0,0.8-0.8,1.6-2.4,1.6h-1.6H232V168c0-0.8,0.8-1.6,1.6-1.6c-0.8-0.8-1.6-0.8-2.4-0.8  c-0.8,0-1.6,0-2.4,0.8c0.8,0,1.6,0.8,1.6,1.6v2.4h-0.8H228c-0.8,0-1.6-0.8-1.6-1.6c-0.8,0.8-0.8,1.6-0.8,2.4c0,0.8,0,1.6,0.8,2.4  c0-0.8,0.8-1.6,1.6-1.6h1.6h0.8v0.8v7.2v4c0,0.8-0.8,1.6-1.6,1.6c0.8,0,2.4,1.6,2.4,2.4c0-0.8,1.6-2.4,2.4-2.4  c-0.8,0-1.6-0.8-1.6-1.6v-4c3.2,1.6,7.2,3.2,7.2,10.4c0,4.8-0.8,9.6-3.2,13.6c-0.8,1.6-2.4,2.4-3.2,4c-0.8,0-4-0.8-5.6-2.4  c-4-2.4-5.6-4-10.4-4.8v-3.2c0-1.6,0.8-3.2,0.8-5.6c-1.6-0.8-7.2-7.2-12-9.6c-7.2,4.8-12.8,12.8-12.8,16c0,0,0,0.8,0,1.6l84,72  c0.8-0.8,1.6-1.6,1.6-1.6c0-0.8,0.8-0.8,0.8-1.6c0.8,1.6,1.6,4.8,2.4,8l21.6,18.4c0-9.6,0-21.6,0-34.4c0.8-2.4,2.4-4.8,3.2-6.4  c0-0.8,0.8-0.8,1.6-0.8v-0.8c0,0,0.8,0,1.6-0.8c0.8,0-0.8-0.8,1.6-3.2c1.6-1.6,4-2.4,4-3.2s-2.4-3.2-2.4-3.2s0.8,0,1.6-0.8  c0-0.8,0-1.6,0-1.6h0.8v-4.8l-4,2.4H310.4z M238.4,180c-1.6,0-4.8-0.8-6.4-0.8l0,0v-0.8c0,0,0.8,0,1.6,0  C236,177.6,238.4,179.2,238.4,180L238.4,180z"/>
<path style="fill:#14477D;" d="M313.6,234.4L313.6,234.4L313.6,234.4z"/>
<g>
</g>
<g>
</g>
<g>
</g>
<g>
</g>
<g>
</g>
<g>
</g>
<g>
</g>
<g>
</g>
<g>
</g>
<g>
</g>
<g>
</g>
<g>
</g>
<g>
</g>
<g>
</g>
<g>
</g>
</svg>
