<?xml version="1.0" encoding="iso-8859-1"?>
<!-- Generator: Adobe Illustrator 19.0.0, SVG Export Plug-In . SVG Version: 6.00 Build 0)  -->
<svg xmlns="http://www.w3.org/2000/svg"  version="1.1" id="Layer_1" x="0px" y="0px" viewBox="0 0 496 496" style="enable-background:new 0 0 496 496;" xml:space="preserve">
<path style="fill:#2A9847;" d="M0,304.8v64.8c0,27.2,21.6,48.8,48,48.8h400c26.4,0,48-21.6,48-48.8v-64.8H0z"/>
<path style="fill:#1E8436;" d="M448,418.4c26.4,0,48-21.6,48-48.8v-64.8H315.2L448,418.4z"/>
<path style="fill:#2A9847;" d="M448,77.6H48c-26.4,0-48,21.6-48,48.8v64.8h496v-64.8C496,99.2,474.4,77.6,448,77.6z"/>
<path style="fill:#1E8436;" d="M448,77.6H48l132.8,113.6H496v-64.8C496,99.2,474.4,77.6,448,77.6z"/>
<path style="fill:#156D28;" d="M448,77.6H48l370.4,113.6H496v-64.8C496,99.2,474.4,77.6,448,77.6z"/>
<polygon style="fill:#F3F4F5;" points="0,140.8 0,189.6 0,191.2 0,304.8 0,306.4 0,355.2 496,355.2 496,306.4 496,304.8 496,191.2   496,189.6 496,140.8 "/>
<polygon style="fill:#D3DDE5;" points="180,189.6 180,189.6 316,306.4 373.6,355.2 496,355.2 496,306.4 496,304.8 496,191.2   496,189.6 496,140.8 122.4,140.8 "/>
<polygon style="fill:#C1D1DB;" points="417.6,191.2 496,191.2 496,189.6 496,140.8 255.2,140.8 "/>
<rect y="166.4" style="fill:#C11F40;" width="496" height="162.4"/>
<polygon style="fill:#043C66;" points="180,189.6 180,189.6 316,306.4 343.2,329.6 496,329.6 496,306.4 496,304.8 496,191.2   496,189.6 496,166.4 152.8,166.4 "/>
<polygon style="fill:#A51134;" points="180,189.6 180,189.6 316,306.4 343.2,329.6 496,329.6 496,306.4 496,304.8 496,191.2   496,189.6 496,166.4 152.8,166.4 "/>
<path style="fill:#156D28;" d="M496,369.6c0,27.2-21.6,48.8-48,48.8H48c-26.4,0-48-21.6-48-48.8"/>
<polygon style="fill:#F0C219;" points="248,184.8 264,232.8 314.4,232.8 273.6,263.2 289.6,311.2 248,281.6 206.4,311.2   222.4,263.2 181.6,232.8 232,232.8 "/>
<polygon style="fill:#D39B0D;" points="264,232.8 248,184.8 232,232.8 230.4,232.8 276.8,272 273.6,263.2 314.4,232.8 "/>
<g>
</g>
<g>
</g>
<g>
</g>
<g>
</g>
<g>
</g>
<g>
</g>
<g>
</g>
<g>
</g>
<g>
</g>
<g>
</g>
<g>
</g>
<g>
</g>
<g>
</g>
<g>
</g>
<g>
</g>
</svg>
