<?xml version="1.0" encoding="iso-8859-1"?>
<!-- Generator: Adobe Illustrator 19.0.0, SVG Export Plug-In . SVG Version: 6.00 Build 0)  -->
<svg xmlns="http://www.w3.org/2000/svg"  version="1.1" id="Layer_1" x="0px" y="0px" viewBox="0 0 497.6 497.6" style="enable-background:new 0 0 497.6 497.6;" xml:space="preserve">
<path style="fill:#D32027;" d="M496,370.4c0,27.2-21.6,48.8-48,48.8H48c-26.4,0-48-21.6-48-48.8V127.2C0,100,21.6,78.4,48,78.4h400  c26.4,0,48,21.6,48,48.8V370.4z"/>
<path style="fill:#C41616;" d="M48,78.4h400c26.4,0,48,21.6,48,48.8v243.2c0,27.2-21.6,48.8-48,48.8"/>
<g>
	<path style="fill:#AD0505;" d="M48,78.4h400c26.4,0,48,21.6,48,48.8V216"/>
	<path style="fill:#AD0505;" d="M496,370.4c0,27.2-21.6,48.8-48,48.8H48c-26.4,0-48-21.6-48-48.8"/>
</g>
<path style="fill:#F3F2F2;" d="M496,127.2c0-15.2-6.4-28.8-17.6-37.6l-156.8,92c-18.4-20-44-32.8-73.6-32.8s-55.2,12.8-73.6,32.8  l-156.8-92C6.4,98.4,0,112,0,127.2l0,0l153.6,90.4c-3.2,9.6-4.8,20.8-4.8,31.2c0,11.2,1.6,21.6,4.8,31.2L0,370.4l0,0  c0,15.2,6.4,28.8,17.6,37.6l157.6-92c18.4,20,44,32.8,73.6,32.8S304,336,322.4,316L480,408c10.4-8.8,17.6-22.4,17.6-37.6l0,0  L342.4,280c3.2-9.6,4.8-20.8,4.8-31.2c0-11.2-1.6-21.6-4.8-31.2L496,127.2L496,127.2z"/>
<g>
	<path style="fill:#B5C6C9;" d="M0.8,377.6c0,0.8,0,2.4,0.8,3.2c0,0.8,0,1.6,0.8,1.6c0,0.8,0.8,2.4,0.8,3.2c0,0.8,0.8,1.6,0.8,1.6   c0,0.8,0.8,1.6,0.8,3.2c0,0.8,0.8,1.6,0.8,1.6c0.8,0.8,0.8,1.6,1.6,2.4c0,0.8,0.8,0.8,0.8,1.6c0.8,0.8,0.8,1.6,1.6,2.4   c0,0.8,0.8,0.8,0.8,1.6c0.8,0.8,1.6,1.6,2.4,2.4c0,0.8,0.8,0.8,0.8,1.6c0.8,0.8,2.4,2.4,3.2,3.2l0,0l64-37.6H0c0,1.6,0,3.2,0,5.6   C0,376.8,0.8,376.8,0.8,377.6z"/>
	<path style="fill:#B5C6C9;" d="M478.4,408c1.6-0.8,2.4-2.4,4-3.2l0.8-0.8c0.8-0.8,1.6-1.6,2.4-2.4c0-0.8,0.8-0.8,0.8-1.6   c0.8-0.8,1.6-1.6,1.6-2.4s0.8-0.8,0.8-1.6c0.8-0.8,0.8-1.6,1.6-2.4c0-0.8,0.8-1.6,0.8-1.6c0.8-0.8,0.8-1.6,0.8-3.2   c0-0.8,0.8-1.6,0.8-1.6c0-0.8,0.8-2.4,0.8-3.2c0-0.8,0-1.6,0.8-1.6c0-0.8,0.8-2.4,0.8-3.2c0-0.8,0-0.8,0-1.6c0-1.6,0-3.2,0-5.6   h-80.8L478.4,408z"/>
</g>
<path style="fill:#D5DEE0;" d="M496,127.2c0-1.6,0-3.2,0-5.6c0-0.8,0-0.8,0-1.6c0-0.8,0-2.4-0.8-3.2c0-0.8,0-1.6-0.8-1.6  c0-0.8-0.8-2.4-0.8-3.2c0-0.8-0.8-1.6-0.8-1.6c0-0.8-0.8-1.6-0.8-2.4s-0.8-1.6-0.8-1.6c-0.8-0.8-0.8-1.6-1.6-2.4  c0-0.8-0.8-0.8-0.8-1.6c-0.8-0.8-0.8-1.6-1.6-2.4c0-0.8-0.8-0.8-0.8-1.6c-0.8-0.8-1.6-1.6-2.4-2.4c0-0.8-0.8-0.8-0.8-0.8  c-0.8-0.8-2.4-2.4-4-3.2l0,0l-157.6,89.6c-18.4-20-44-32.8-73.6-32.8s-55.2,12.8-73.6,32.8l-17.6-10.4l181.6,154.4l140,82.4  c1.6-0.8,2.4-2.4,4-3.2l0.8-0.8c0.8-0.8,1.6-1.6,2.4-2.4c0-0.8,0.8-0.8,0.8-1.6c0.8-0.8,1.6-1.6,1.6-2.4s0.8-0.8,0.8-1.6  c0.8-0.8,0.8-1.6,1.6-2.4c0-0.8,0.8-1.6,0.8-1.6c0.8-0.8,0.8-1.6,0.8-3.2c0-0.8,0.8-1.6,0.8-1.6c0-0.8,0.8-2.4,0.8-3.2  c0-0.8,0-1.6,0.8-1.6c0-0.8,0.8-2.4,0.8-3.2c0-0.8,0-0.8,0-1.6c0-1.6,0-3.2,0-5.6l0,0l-152.8-92c3.2-9.6,4.8-20.8,4.8-31.2  c0-11.2-1.6-21.6-4.8-31.2L496,127.2L496,127.2z"/>
<path style="fill:#B5C6C9;" d="M478.4,408c1.6-0.8,2.4-2.4,4-3.2l0.8-0.8c0.8-0.8,1.6-1.6,2.4-2.4c0-0.8,0.8-0.8,0.8-1.6l0,0  c0.8-0.8,1.6-1.6,1.6-2.4v-0.8l0.8-0.8c0.8-0.8,0.8-1.6,1.6-2.4c0-0.8,0.8-1.6,0.8-1.6c0.8-0.8,0.8-1.6,0.8-3.2V388v-0.8  c0-0.8,0.8-1.6,0.8-3.2c0-0.8,0-1.6,0.8-1.6c0-0.8,0.8-2.4,0.8-3.2c0-0.8,0-0.8,0-1.6l0,0c0-1.6,0-3.2,0-5.6h-80L478.4,408z"/>
<g>
	<path style="fill:#D32027;" d="M8,100.8c0.8-0.8,0.8-1.6,1.6-2.4C8.8,99.2,8,100,8,100.8z"/>
	<path style="fill:#D32027;" d="M10.4,96.8c0.8-0.8,1.6-1.6,2.4-2.4C12,94.4,11.2,96,10.4,96.8z"/>
	<path style="fill:#D32027;" d="M0,127.2c0-1.6,0-3.2,0-5.6C0,123.2,0,125.6,0,127.2z"/>
	<path style="fill:#D32027;" d="M5.6,104.8c0.8-0.8,0.8-1.6,1.6-2.4C6.4,103.2,5.6,104,5.6,104.8z"/>
	<path style="fill:#D32027;" d="M3.2,109.6c0-0.8,0.8-1.6,0.8-3.2C4,108,3.2,108.8,3.2,109.6z"/>
	<path style="fill:#D32027;" d="M0.8,120c0-0.8,0-2.4,0.8-3.2C0.8,117.6,0.8,119.2,0.8,120z"/>
	<path style="fill:#D32027;" d="M1.6,114.4c0-0.8,0.8-2.4,0.8-3.2C2.4,112.8,1.6,113.6,1.6,114.4z"/>
	<path style="fill:#D32027;" d="M482.4,92.8c-0.8-0.8-2.4-2.4-4-3.2C480,90.4,480.8,92,482.4,92.8z"/>
	<path style="fill:#D32027;" d="M495.2,116.8c0,0.8,0.8,2.4,0.8,3.2C495.2,119.2,495.2,117.6,495.2,116.8z"/>
	<path style="fill:#D32027;" d="M493.6,111.2c0,0.8,0.8,2.4,0.8,3.2C494.4,113.6,493.6,112.8,493.6,111.2z"/>
	<path style="fill:#D32027;" d="M492,107.2c0.8,0.8,0.8,1.6,0.8,2.4C492.8,108.8,492,108,492,107.2z"/>
	<path style="fill:#D32027;" d="M496,121.6c0,1.6,0,3.2,0,5.6C496,125.6,496,123.2,496,121.6z"/>
	<path style="fill:#D32027;" d="M489.6,102.4c0.8,0.8,0.8,1.6,1.6,2.4C490.4,104,489.6,103.2,489.6,102.4z"/>
	<path style="fill:#D32027;" d="M483.2,93.6c0.8,0.8,1.6,1.6,2.4,2.4C484.8,96,484,95.2,483.2,93.6z"/>
	<path style="fill:#D32027;" d="M486.4,98.4c0.8,0.8,0.8,1.6,1.6,2.4C488,100,487.2,99.2,486.4,98.4z"/>
</g>
<path style="fill:#258F44;" d="M148.8,248.8c0-11.2,1.6-21.6,4.8-31.2L0,127.2v243.2L153.6,280C150.4,270.4,148.8,260,148.8,248.8z"/>
<g>
	<path style="fill:#D32027;" d="M490.4,392.8c-0.8,0.8-0.8,1.6-1.6,2.4C489.6,394.4,490.4,393.6,490.4,392.8z"/>
	<path style="fill:#D32027;" d="M485.6,400.8c-0.8,0.8-1.6,1.6-2.4,2.4C484,403.2,484.8,401.6,485.6,400.8z"/>
	<path style="fill:#D32027;" d="M488,396.8c-0.8,0.8-0.8,1.6-1.6,2.4C487.2,398.4,488,397.6,488,396.8z"/>
	<path style="fill:#D32027;" d="M496,370.4c0,1.6,0,3.2,0,5.6C496,374.4,496,372,496,370.4z"/>
	<path style="fill:#D32027;" d="M495.2,377.6c0,0.8,0,2.4-0.8,3.2C495.2,380,495.2,378.4,495.2,377.6z"/>
</g>
<path style="fill:#15772F;" d="M347.2,248.8c0,11.2-1.6,21.6-4.8,31.2L496,370.4V127.2l-153.6,90.4  C345.6,227.2,347.2,237.6,347.2,248.8z"/>
<polygon style="fill:#0A661E;" points="496,215.2 496,127.2 396.8,185.6 "/>
<g>
	<path style="fill:#D32027;" d="M492.8,388c0,0.8-0.8,1.6-0.8,3.2C492,389.6,492.8,388.8,492.8,388z"/>
	<path style="fill:#D32027;" d="M494.4,383.2c0,0.8-0.8,2.4-0.8,3.2C493.6,384.8,494.4,384,494.4,383.2z"/>
	<path style="fill:#D32027;" d="M9.6,399.2c-0.8-0.8-1.6-1.6-1.6-2.4C8,397.6,8.8,398.4,9.6,399.2z"/>
	<path style="fill:#D32027;" d="M4,390.4c-0.8-0.8-0.8-1.6-0.8-3.2C3.2,388.8,4,389.6,4,390.4z"/>
	<path style="fill:#D32027;" d="M2.4,386.4c0-0.8-0.8-2.4-0.8-3.2C1.6,384,2.4,384.8,2.4,386.4z"/>
	<path style="fill:#D32027;" d="M13.6,404.8c0.8,0.8,2.4,2.4,3.2,3.2C16,407.2,15.2,405.6,13.6,404.8z"/>
	<path style="fill:#D32027;" d="M0.8,380.8c0-0.8-0.8-2.4-0.8-3.2C0.8,378.4,0.8,380,0.8,380.8z"/>
	<path style="fill:#D32027;" d="M12.8,403.2c-0.8-0.8-1.6-1.6-2.4-2.4C11.2,401.6,12,402.4,12.8,403.2z"/>
	<path style="fill:#D32027;" d="M0,370.4c0,1.6,0,3.2,0,5.6C0,374.4,0,372,0,370.4z"/>
	<path style="fill:#D32027;" d="M6.4,395.2c-0.8-0.8-0.8-1.6-1.6-2.4C5.6,393.6,6.4,394.4,6.4,395.2z"/>
	<polygon style="fill:#D32027;" points="248,228 254.4,217.6 267.2,217.6 260.8,207.2 267.2,196 254.4,196 248,184.8 241.6,196    228.8,196 235.2,206.4 228.8,217.6 241.6,217.6  "/>
</g>
<path style="fill:#258F44;" d="M248,229.6l-6.4-11.2H228l6.4-12l-6.4-12h13.6l7.2-12l6.4,12H268l-6.4,12l6.4,12h-13.6L248,229.6z   M230.4,216.8h11.2l5.6,9.6l6.4-9.6h12l-5.6-9.6l5.6-10.4h-11.2l-6.4-10.4l-6.4,9.6h-11.2l5.6,9.6L230.4,216.8z"/>
<polygon style="fill:#D32027;" points="205.6,297.6 212,287.2 224.8,287.2 218.4,276 224.8,264.8 212,264.8 206.4,254.4   199.2,264.8 187.2,264.8 192.8,276 186.4,286.4 199.2,287.2 "/>
<path style="fill:#258F44;" d="M205.6,299.2l-6.4-11.2h-13.6l6.4-12l-6.4-12h13.6l7.2-12l6.4,12h12.8l-6.4,12l7.2,12h-13.6  L205.6,299.2z M188,285.6h11.2l5.6,9.6l6.4-9.6h12l-5.6-9.6l5.6-10.4H212l-5.6-9.6l-6.4,9.6h-11.2l5.6,9.6L188,285.6z"/>
<polygon style="fill:#D32027;" points="289.6,297.6 296.8,287.2 309.6,287.2 303.2,276 308.8,264.8 296.8,264.8 290.4,254.4   284,264.8 271.2,264.8 277.6,276 271.2,286.4 284,287.2 "/>
<path style="fill:#258F44;" d="M289.6,299.2l-6.4-11.2h-13.6l6.4-12l-6.4-12h13.6l7.2-12l6.4,12h12.8l-5.6,12l7.2,12h-13.6  L289.6,299.2z M272.8,285.6H284l5.6,9.6l6.4-9.6h12l-5.6-9.6l5.6-10.4h-12l-5.6-9.6l-6.4,9.6h-11.2l5.6,9.6L272.8,285.6z"/>
<g>
</g>
<g>
</g>
<g>
</g>
<g>
</g>
<g>
</g>
<g>
</g>
<g>
</g>
<g>
</g>
<g>
</g>
<g>
</g>
<g>
</g>
<g>
</g>
<g>
</g>
<g>
</g>
<g>
</g>
</svg>
