<?xml version="1.0" encoding="iso-8859-1"?>
<!-- Generator: Adobe Illustrator 19.0.0, SVG Export Plug-In . SVG Version: 6.00 Build 0)  -->
<svg version="1.1" id="Layer_1" xmlns="http://www.w3.org/2000/svg"  x="0px" y="0px"
	 viewBox="0 0 799.999 799.999" style="enable-background:new 0 0 799.999 799.999;" xml:space="preserve">
<g>
	<path style="fill:#FFE000;" d="M24.807,474.117V325.881h91.322c6.563,0,11.903-5.34,11.903-11.903v-1h27.807v1
		c0,6.563,5.34,11.903,11.903,11.903h607.451v148.236H24.807z"/>
	<path style="fill:#FFE000;" d="M116.129,326.881H25.807v146.236h748.387V326.881H167.742c-7.126,0-12.903-5.775-12.903-12.903
		h-25.807C129.032,321.105,123.255,326.881,116.129,326.881z"/>
	<rect x="24.807" y="497.924" style="fill:#259245;" width="750.387" height="148.236"/>
	<rect x="25.807" y="498.924" style="fill:#259245;" width="748.387" height="146.236"/>
	<path style="fill:#ED1F34;" d="M128.032,314.978v-1c0-6.563-5.34-11.903-11.903-11.903H24.807V153.838h750.387v148.236H167.742
		c-6.563,0-11.903,5.34-11.903,11.903v1L128.032,314.978L128.032,314.978z"/>
	<path style="fill:#ED1F34;" d="M116.129,301.074c7.126,0,12.903,5.775,12.903,12.903h25.807c0-7.128,5.777-12.903,12.903-12.903
		h606.451V154.838H25.807v146.236H116.129z"/>
	<path d="M787.097,129.031H12.903C5.777,129.031,0,134.807,0,141.935v516.129c0,7.128,5.777,12.903,12.903,12.903h774.193
		c7.126,0,12.903-5.775,12.903-12.903V141.935C800,134.807,794.223,129.031,787.097,129.031z M774.193,154.838v146.236H167.742
		c-7.126,0-12.903,5.775-12.903,12.903s5.777,12.903,12.903,12.903h606.451v146.236H25.807V326.881h90.322
		c7.126,0,12.903-5.775,12.903-12.903s-5.777-12.903-12.903-12.903H25.807V154.838H774.193z M25.807,645.16V498.924h748.387V645.16
		H25.807z"/>
</g>
<g>
</g>
<g>
</g>
<g>
</g>
<g>
</g>
<g>
</g>
<g>
</g>
<g>
</g>
<g>
</g>
<g>
</g>
<g>
</g>
<g>
</g>
<g>
</g>
<g>
</g>
<g>
</g>
<g>
</g>
</svg>
