<svg id="Capa_1" data-name="Capa 1" xmlns="http://www.w3.org/2000/svg" viewBox="0 0 141.73 141.73"><defs><style>.cls-1{fill:#85a9db;}.cls-2{fill:#212f41;}</style></defs><title>autoqe</title><path class="cls-1" d="M79.69,79.41C87,100.5,107,104.4,119.6,96.78a26.55,26.55,0,0,0,12.29-17.46c-.07.31-.14.63-.23.94a26.67,26.67,0,0,1-4.18,9.13,26.57,26.57,0,0,1-17.4,10.54,25,25,0,0,1-10-.52,26.67,26.67,0,0,1-9.13-4.18A26.84,26.84,0,0,1,80.33,77.74a25,25,0,0,1,.52-10A26.67,26.67,0,0,1,85,58.58a27.34,27.34,0,0,1,7.7-7,26.38,26.38,0,0,1,9.7-3.51,24.48,24.48,0,0,1,10,.52,26.67,26.67,0,0,1,9.13,4.18,25.39,25.39,0,0,1,7,7.7A27.06,27.06,0,0,1,132,69.08,26.63,26.63,0,0,0,92,51.24C47.77,78.09,74.47,64.45,79.69,79.41Z"/><path class="cls-1" d="M121.59,52.74a26.67,26.67,0,0,0-9.13-4.18,24.48,24.48,0,0,0-10-.52,26.38,26.38,0,0,0-9.7,3.51,27.34,27.34,0,0,0-7.7,7,26.67,26.67,0,0,0-4.18,9.13,25,25,0,0,0-.52,10A26.84,26.84,0,0,0,90.93,95.23a26.67,26.67,0,0,0,9.13,4.18,25,25,0,0,0,10,.52,26.57,26.57,0,0,0,17.4-10.54,26.67,26.67,0,0,0,4.18-9.13c.08-.31.16-.63.23-.94A26.62,26.62,0,0,0,132,69.08a27.06,27.06,0,0,0-3.35-8.64A25.39,25.39,0,0,0,121.59,52.74Zm1.07,19a18.31,18.31,0,0,1-.19,6.47,18.59,18.59,0,0,1-2.53,5.89,14.37,14.37,0,0,1-4.75,4.49A14.06,14.06,0,0,1,109,90.75a16.68,16.68,0,0,1-6.39-.48A17.39,17.39,0,0,1,90,76.24a18.31,18.31,0,0,1,.19-6.47,18.59,18.59,0,0,1,2.53-5.89,14.37,14.37,0,0,1,4.75-4.49,14.7,14.7,0,0,1,6.18-2.13,15.13,15.13,0,0,1,6.39.48,17,17,0,0,1,5.82,2.82,17.76,17.76,0,0,1,4.51,5A16.82,16.82,0,0,1,122.66,71.77Z"/><path class="cls-2" d="M61.19,67.35c-7.93-20.87-28-24.21-40.38-16.24C14.31,55.3,11.07,62.58,9,68.91c.1-.31.12-.63.2-.95a26.67,26.67,0,0,1,3.92-9.24,25.25,25.25,0,0,1,7.41-7.18,25.39,25.39,0,0,1,9.69-3.84,25,25,0,0,1,10,.24,26.67,26.67,0,0,1,9.24,3.92A26.84,26.84,0,0,1,60.59,69a25,25,0,0,1-.24,10,26.67,26.67,0,0,1-3.92,9.24,27.34,27.34,0,0,1-7.5,7.24,26.38,26.38,0,0,1-9.6,3.78,24.48,24.48,0,0,1-10-.24,26.67,26.67,0,0,1-9.24-3.92,25.39,25.39,0,0,1-7.24-7.5,27.06,27.06,0,0,1-3.59-8.54A26.63,26.63,0,0,0,49.66,95.86C93.13,67.78,66.82,82.17,61.19,67.35Z"/><path class="cls-2" d="M20.05,95.18a26.67,26.67,0,0,0,9.24,3.92,24.48,24.48,0,0,0,10,.24,26.38,26.38,0,0,0,9.6-3.78,27.34,27.34,0,0,0,7.5-7.24,26.67,26.67,0,0,0,3.92-9.24,25,25,0,0,0,.24-10A26.84,26.84,0,0,0,49.51,51.86a26.67,26.67,0,0,0-9.24-3.92,25,25,0,0,0-10-.24,25.39,25.39,0,0,0-9.69,3.84,25.25,25.25,0,0,0-7.41,7.18A26.67,26.67,0,0,0,9.21,68c-.08.32-.14.63-.2.95a26.62,26.62,0,0,0,.21,10.23,27.06,27.06,0,0,0,3.59,8.54A25.39,25.39,0,0,0,20.05,95.18Zm-1.6-19a18.31,18.31,0,0,1,0-6.47,18.59,18.59,0,0,1,2.37-6,14.37,14.37,0,0,1,4.62-4.63,14.06,14.06,0,0,1,6.12-2.3,16.68,16.68,0,0,1,6.4.3A17.39,17.39,0,0,1,51,70.82a18.31,18.31,0,0,1,0,6.47,18.59,18.59,0,0,1-2.37,6A14.37,14.37,0,0,1,44,87.87a14.7,14.7,0,0,1-6.12,2.3,15.13,15.13,0,0,1-6.4-.3,17,17,0,0,1-5.9-2.66,17.76,17.76,0,0,1-4.65-4.86A16.82,16.82,0,0,1,18.45,76.2Z"/><circle class="cls-1" cx="34.63" cy="73.66" r="4.82"/><circle class="cls-2" cx="106.67" cy="74.46" r="4.82"/></svg>