<svg id="Capa_1" data-name="Capa 1" xmlns="http://www.w3.org/2000/svg" viewBox="0 0 141.73 141.73"><defs><style>.cls-1{fill:#fff;}.cls-2{fill:#74acdf;}.cls-3{fill:#122b40;}</style></defs><title>autoqe_circ</title><circle class="cls-1" cx="70.87" cy="70.87" r="70.61"/><path class="cls-2" d="M66.12,28.82a25.38,25.38,0,0,1,20.2,40.75l20,9.72V55.59c0-.46,0-.92,0-1.38A40.28,40.28,0,0,0,28,41.27l13.56,6.58A25.4,25.4,0,0,1,66.12,28.82Z"/><polygon class="cls-2" points="106.36 127.8 106.36 94.38 91.63 94.38 106.36 127.8"/><polygon class="cls-2" points="106.36 82.88 103.15 81.32 106.36 82.89 106.36 82.88"/><path class="cls-3" d="M106.36,94.38h23.53L106.36,82.89l-3.22-1.57-5.22-2.55L84.08,72A25.34,25.34,0,0,1,40.91,51.13v-.06L27.06,44.34a40.3,40.3,0,0,0-1.22,9.83v0A40.24,40.24,0,0,0,66.08,94.42c.55,0,1.09,0,1.64,0h38.64Z"/></svg>