<?xml version="1.0" encoding="utf-8"?>
<!-- Generator: Adobe Illustrator 19.0.0, SVG Export Plug-In . SVG Version: 6.00 Build 0)  -->
<svg version="1.1" id="Capa_1" xmlns="http://www.w3.org/2000/svg"  x="0px" y="0px"
	 viewBox="0 0 83.2 86.7" style="enable-background:new 0 0 83.2 86.7;" xml:space="preserve">
<style type="text/css">
	.Sombra_x0020_paralela{fill:none;}
	.Esquinas_x0020_redondeadas_x0020_2_x0020_pt_x002E_{fill:#FFFFFF;stroke:#1D1D1B;stroke-miterlimit:10;}
	.Reflejo_x0020_vivo_x0020_X{fill:none;}
	.Bisel_x0020_suave{fill:url(#SVGID_1_);}
	.Atardecer{fill:#FFFFFF;}
	.Follaje_GS{fill:#FFDB09;}
	.Pompadour_GS{fill-rule:evenodd;clip-rule:evenodd;fill:#56AFE0;}
	.st0{fill:none;stroke:#122B40;stroke-width:5;stroke-miterlimit:10;}
	.st1{fill:#74ACDF;}
</style>
<linearGradient id="SVGID_1_" gradientUnits="userSpaceOnUse" x1="-398.1402" y1="-210.2578" x2="-397.4331" y2="-209.5507">
	<stop  offset="0" style="stop-color:#E6E6EA"/>
	<stop  offset="0.1761" style="stop-color:#E2E2E6"/>
	<stop  offset="0.3567" style="stop-color:#D6D6DA"/>
	<stop  offset="0.5393" style="stop-color:#C1C2C5"/>
	<stop  offset="0.7233" style="stop-color:#A5A6A8"/>
	<stop  offset="0.9067" style="stop-color:#808384"/>
	<stop  offset="1" style="stop-color:#6B6E6E"/>
</linearGradient>
<g id="XMLID_11_">
	<g id="XMLID_88_">
		<path id="XMLID_40_" class="st0" d="M56.5,46.4l-0.2,0c-2.5-0.2-5.8-0.3-8.3-0.3h0c-4.2,0-6.8-5.4-4.1-8.6
			c2.7-3.2,7.5-1.4,9.2,2.2c0.2,0.3,0.3,0.7,0.4,1l2.1,5.6c7.7,0.5,15.3,5.7,19.5,12c3.8,5.9,5.3,13,5.4,19.9
			c-8.7,0-17.4,0.1-26.1,0.2"/>
		<path id="XMLID_35_" class="st1" d="M47.3,37.2L47.3,37.2c-2.1,0.4-3.4,2.4-3.1,4.5l0,0c0.3,1.9,2.3,3.4,4.2,3.4l5.4,0l-1.9-5
			C51.4,38.1,49.2,36.8,47.3,37.2z M49,41.6c-0.4,0.6-1.2,0.7-1.8,0.3c-0.6-0.4-0.7-1.2-0.3-1.8c0.4-0.6,1.2-0.7,1.8-0.3
			C49.3,40.2,49.4,41,49,41.6z"/>
	</g>
	<g id="XMLID_27_">
		<path id="XMLID_33_" class="st0" d="M31.7,45.9l0.1,0.1c1,2.3,2.6,5.2,3.9,7.3l0,0c2.1,3.6-1.3,8.6-5.5,7.8
			c-4.1-0.8-4.9-5.8-2.6-9.1c0.2-0.3,0.4-0.6,0.6-0.8l3.8-4.7c-3.4-6.9-2.7-16.1,0.8-22.9c3.2-6.3,8.6-11.1,14.6-14.6
			c4.3,7.5,8.7,15.1,13.2,22.6"/>
		<path id="XMLID_29_" class="st1" d="M28.3,58.4L28.3,58.4c1.4,1.6,3.8,1.8,5.4,0.4l0,0c1.5-1.2,1.8-3.7,0.8-5.4l-2.7-4.7L28.3,53
			C27.1,54.4,27,56.9,28.3,58.4z M31.2,54.7c0.7,0.1,1.2,0.7,1.2,1.4s-0.7,1.2-1.4,1.2c-0.7-0.1-1.2-0.7-1.2-1.4
			C29.9,55.1,30.5,54.6,31.2,54.7z"/>
	</g>
	<g id="XMLID_59_">
		<path id="XMLID_23_" class="st0" d="M43.3,68.4l0.1-0.1c1.5-2,3.3-4.8,4.5-7l0,0c2.2-3.6,8.1-3,9.5,1c1.3,3.9-2.7,7.1-6.7,6.7
			c-0.4,0-0.7-0.1-1-0.2l-5.9-1.1C39.3,74.1,31,77.9,23.4,78.2c-7,0.2-13.9-2.2-19.8-5.8C8,65,12.5,57.5,16.9,50"/>
		<path id="XMLID_60_" class="st1" d="M56,65.3L56,65.3c0.7-2-0.2-4.2-2.2-4.9l0,0c-1.8-0.7-4.2,0.2-5.1,1.9l-2.8,4.6l5.3,1
			C53,68.3,55.3,67.1,56,65.3z M51.3,64.5c-0.3-0.6,0-1.4,0.6-1.7c0.6-0.3,1.4,0,1.7,0.6c0.3,0.6,0,1.4-0.6,1.7
			C52.3,65.4,51.6,65.1,51.3,64.5z"/>
	</g>
</g>
</svg>
