<svg id="Capa_1" data-name="Capa 1" xmlns="http://www.w3.org/2000/svg" viewBox="0 0 414.56 141.73"><defs><style>.cls-1{fill:#212f41;}.cls-2,.cls-3{fill:#85a9db;}.cls-3{stroke:#85a9db;stroke-miterlimit:10;}</style></defs><title>autoqe_slogan</title><path id="_Trazado_" data-name="&lt;Trazado&gt;" class="cls-1" d="M117.82,81.41a21.49,21.49,0,0,1-7.68-4.8,19.24,19.24,0,0,1-4.92-7.56,27.7,27.7,0,0,1-1.68-9.84V27.78a2.46,2.46,0,0,1,2.4-2.4h6.12a2.46,2.46,0,0,1,2.4,2.4V59.1a15.49,15.49,0,0,0,1.44,7.08,16,16,0,0,0,3.36,4.44,12.06,12.06,0,0,0,4.44,2.28,19.5,19.5,0,0,0,2.28.48,11,11,0,0,0,1.92.12,21.86,21.86,0,0,0,4.2-.6,9.84,9.84,0,0,0,4.44-2.28A12,12,0,0,0,140,66.18a15.49,15.49,0,0,0,1.44-7.08V27.78a2.46,2.46,0,0,1,2.4-2.4h6a2.18,2.18,0,0,1,1.68.72,2.37,2.37,0,0,1,.72,1.68V59.22a24.29,24.29,0,0,1-.48,5.16,19.21,19.21,0,0,1-1.32,4.68,21.14,21.14,0,0,1-4.92,7.56,22.6,22.6,0,0,1-7.68,4.8,29.58,29.58,0,0,1-10.08,1.68A28.88,28.88,0,0,1,117.82,81.41Z"/><path id="_Trazado_2" data-name="&lt;Trazado&gt;" class="cls-1" d="M199.89,34.86h-11.4a2,2,0,0,0-1.68.72,3,3,0,0,0-.72,1.68V79.61a2.46,2.46,0,0,1-2.4,2.4h-6a2.18,2.18,0,0,1-1.68-.72,3,3,0,0,1-.72-1.68V37.38a2.18,2.18,0,0,0-.72-1.68,3,3,0,0,0-1.68-.72H161.37a2.46,2.46,0,0,1-2.4-2.4v-4.8a2.46,2.46,0,0,1,2.4-2.4h38.52a2.46,2.46,0,0,1,2.4,2.4v4.8a2.37,2.37,0,0,1-.72,1.68A2,2,0,0,1,199.89,34.86Z"/><path id="_Trazado_compuesto_" data-name="&lt;Trazado compuesto&gt;" class="cls-1" d="M235,83.21a29.72,29.72,0,0,1-11.4-2.28,27.58,27.58,0,0,1-9.36-6.36,30.05,30.05,0,0,1-6.36-9.36,28.61,28.61,0,0,1-2.28-11.52,30.8,30.8,0,0,1,2.28-11.52,28.14,28.14,0,0,1,6.36-9.36,30.05,30.05,0,0,1,9.36-6.36,29.94,29.94,0,0,1,22.92,0,28.14,28.14,0,0,1,9.36,6.36,30.05,30.05,0,0,1,6.36,9.36,28.61,28.61,0,0,1,2.28,11.52,28.61,28.61,0,0,1-2.28,11.52,28.14,28.14,0,0,1-6.36,9.36,30.05,30.05,0,0,1-9.36,6.36A30.8,30.8,0,0,1,235,83.21Zm0-48.83a16.19,16.19,0,0,0-7.2,1.56,20.94,20.94,0,0,0-5.88,4.2,20.63,20.63,0,0,0-4,6.12,19,19,0,0,0-1.44,7.32A20,20,0,0,0,218,61a19.21,19.21,0,0,0,4,6.12,17.05,17.05,0,0,0,5.88,4.2A16.56,16.56,0,0,0,235,72.9a16.19,16.19,0,0,0,7.2-1.56,20.94,20.94,0,0,0,5.88-4.2,20.63,20.63,0,0,0,4-6.12,19.12,19.12,0,0,0,1.44-7.44,19.4,19.4,0,0,0-1.44-7.32,19.21,19.21,0,0,0-4-6.12,18.79,18.79,0,0,0-5.88-4.2A15.84,15.84,0,0,0,235,34.38Z"/><path id="_Trazado_3" data-name="&lt;Trazado&gt;" class="cls-2" d="M349.15,37.38v9.36a2.46,2.46,0,0,0,2.4,2.4h22.68a2.46,2.46,0,0,1,2.4,2.4v5a2.46,2.46,0,0,1-2.4,2.4H351.55a2.46,2.46,0,0,0-2.4,2.4V69.9a2.46,2.46,0,0,0,2.4,2.4h26.16a2.46,2.46,0,0,1,2.4,2.4v4.92a2.46,2.46,0,0,1-2.4,2.4h-37a2.46,2.46,0,0,1-2.4-2.4v-52a2.46,2.46,0,0,1,2.4-2.4h37a2.46,2.46,0,0,1,2.4,2.4v4.8a2.46,2.46,0,0,1-2.4,2.4H351.55a2.37,2.37,0,0,0-1.68.72A2.44,2.44,0,0,0,349.15,37.38Z"/><path class="cls-1" d="M68.24,114.48a5.93,5.93,0,0,1-2.11-1.32,5.59,5.59,0,0,1-1.37-2.07,7.37,7.37,0,0,1-.47-2.71V99.74a.64.64,0,0,1,.19-.47.61.61,0,0,1,.45-.19h1.69a.65.65,0,0,1,.66.66v8.62a4.33,4.33,0,0,0,.38,1.94,3.89,3.89,0,0,0,.94,1.22,3.19,3.19,0,0,0,1.22.62q.34.08.63.13a3.74,3.74,0,0,0,.54,0,4.88,4.88,0,0,0,1.15-.17,2.84,2.84,0,0,0,1.22-.62,3.48,3.48,0,0,0,1-1.22,4.33,4.33,0,0,0,.38-1.94V99.74a.66.66,0,0,1,.66-.66H77a.65.65,0,0,1,.66.66v8.64a8.25,8.25,0,0,1-.12,1.42,7.06,7.06,0,0,1-.35,1.29,6,6,0,0,1-1.34,2.07,6.2,6.2,0,0,1-2.11,1.32,7.65,7.65,0,0,1-2.77.47A7.47,7.47,0,0,1,68.24,114.48Z"/><path class="cls-1" d="M103.64,101.7h-3.14a.66.66,0,0,0-.66.66V114a.66.66,0,0,1-.66.66H97.52a.66.66,0,0,1-.66-.66V102.36a.66.66,0,0,0-.66-.66H93a.65.65,0,0,1-.66-.66V99.72a.66.66,0,0,1,.66-.66h10.6a.66.66,0,0,1,.66.66V101a.65.65,0,0,1-.66.66Z"/><path class="cls-1" d="M126.17,115a7.79,7.79,0,0,1-3.14-.64,8.18,8.18,0,0,1-4.31-4.31,8.08,8.08,0,0,1,0-6.3A8.15,8.15,0,0,1,123,99.4a8.06,8.06,0,0,1,6.29,0,8.15,8.15,0,0,1,4.31,4.32,8.08,8.08,0,0,1,0,6.3,8.18,8.18,0,0,1-4.31,4.31A7.84,7.84,0,0,1,126.17,115Zm0-13.42a4.61,4.61,0,0,0-2,.44,5.41,5.41,0,0,0-1.62,1.16,5.5,5.5,0,0,0-1.1,1.7,5.26,5.26,0,0,0,0,4,5.68,5.68,0,0,0,1.1,1.7,5.31,5.31,0,0,0,1.62,1.17,4.74,4.74,0,0,0,4,0,5.31,5.31,0,0,0,1.62-1.17,5.66,5.66,0,0,0,1.1-1.7,5.25,5.25,0,0,0,0-4,5.48,5.48,0,0,0-1.1-1.7,5.41,5.41,0,0,0-1.62-1.16A4.61,4.61,0,0,0,126.18,101.55Z"/><path class="cls-2" d="M210,112.69V114a.66.66,0,0,1-.66.66h-9.92a.66.66,0,0,1-.66-.66V99.72a.66.66,0,0,1,.66-.66h1.66a.66.66,0,0,1,.66.66v11.65a.66.66,0,0,0,.66.66h6.93a.65.65,0,0,1,.66.66Z"/><path class="cls-3" d="M256.48,101.7h-3.13a.66.66,0,0,0-.66.66V114a.66.66,0,0,1-.66.66h-1.66a.64.64,0,0,1-.47-.19.63.63,0,0,1-.19-.47V102.36a.66.66,0,0,0-.66-.66h-3.16a.65.65,0,0,1-.66-.66V99.72a.66.66,0,0,1,.66-.66h10.6a.66.66,0,0,1,.66.66V101a.65.65,0,0,1-.66.66Z"/><path class="cls-3" d="M284,115a7.79,7.79,0,0,1-3.14-.64,8.18,8.18,0,0,1-4.31-4.31,8.08,8.08,0,0,1,0-6.3,8.15,8.15,0,0,1,4.31-4.32,8.06,8.06,0,0,1,6.29,0,8.15,8.15,0,0,1,4.31,4.32,8.08,8.08,0,0,1,0,6.3,8.18,8.18,0,0,1-4.31,4.31A7.84,7.84,0,0,1,284,115Zm0-13.42a4.61,4.61,0,0,0-2,.44,5.41,5.41,0,0,0-1.62,1.16,5.49,5.49,0,0,0-1.1,1.7,5.25,5.25,0,0,0,0,4,5.67,5.67,0,0,0,1.1,1.7,5.31,5.31,0,0,0,1.62,1.17,4.74,4.74,0,0,0,4,0,5.32,5.32,0,0,0,1.62-1.17,5.67,5.67,0,0,0,1.1-1.7,5.25,5.25,0,0,0,0-4,5.49,5.49,0,0,0-1.1-1.7A5.42,5.42,0,0,0,286,102,4.61,4.61,0,0,0,284,101.55Z"/><path class="cls-3" d="M345.06,114.48a5.93,5.93,0,0,1-2.11-1.32,5.59,5.59,0,0,1-1.36-2.07,7.35,7.35,0,0,1-.47-2.71V99.74a.64.64,0,0,1,.19-.47.61.61,0,0,1,.45-.19h1.69a.66.66,0,0,1,.66.66v8.62a4.33,4.33,0,0,0,.38,1.94,3.89,3.89,0,0,0,.94,1.22,3.18,3.18,0,0,0,1.22.62q.34.08.63.13a3.74,3.74,0,0,0,.54,0,4.87,4.87,0,0,0,1.15-.17,2.83,2.83,0,0,0,1.22-.62,3.48,3.48,0,0,0,1-1.22,4.33,4.33,0,0,0,.38-1.94V99.74a.66.66,0,0,1,.66-.66h1.66a.66.66,0,0,1,.66.66v8.64a8.26,8.26,0,0,1-.12,1.42,7.06,7.06,0,0,1-.35,1.29,6,6,0,0,1-1.34,2.07,6.19,6.19,0,0,1-2.11,1.32,7.64,7.64,0,0,1-2.77.47A7.47,7.47,0,0,1,345.06,114.48Z"/><path class="cls-3" d="M370.77,102.36v2.58a.66.66,0,0,0,.66.66h6.23a.65.65,0,0,1,.66.66v1.39a.66.66,0,0,1-.66.66h-6.23a.65.65,0,0,0-.66.66v2.35a.65.65,0,0,0,.66.66h7.19a.66.66,0,0,1,.66.66V114a.66.66,0,0,1-.66.66H368.44a.66.66,0,0,1-.66-.66V99.72a.66.66,0,0,1,.66-.66h10.17a.66.66,0,0,1,.66.66V101a.65.65,0,0,1-.66.66h-7.19a.66.66,0,0,0-.66.66Z"/><path class="cls-1" d="M90.88,64c5.23-24.61-11.76-40-28.32-40a29.91,29.91,0,0,0-22,9.65c.25-.26.5-.52.77-.78a30.05,30.05,0,0,1,9.36-6.36,29.94,29.94,0,0,1,22.92,0,28.14,28.14,0,0,1,9.36,6.36,30.05,30.05,0,0,1,6.36,9.36A28.61,28.61,0,0,1,91.56,53.7a28.61,28.61,0,0,1-2.28,11.52,28.14,28.14,0,0,1-6.36,9.36,30.05,30.05,0,0,1-9.36,6.36A30.8,30.8,0,0,1,62,83.21a29.72,29.72,0,0,1-11.4-2.28,27.59,27.59,0,0,1-9.36-6.36,30.05,30.05,0,0,1-6.36-9.36A28.61,28.61,0,0,1,32.65,53.7a30.49,30.49,0,0,1,1.82-10.28A30,30,0,0,0,62.56,83.94C120.87,83.89,87.17,81.45,90.88,64Z"/><path class="cls-1" d="M34.93,65.22a30.05,30.05,0,0,0,6.36,9.36,27.59,27.59,0,0,0,9.36,6.36A29.72,29.72,0,0,0,62,83.21a30.8,30.8,0,0,0,11.52-2.28,30.05,30.05,0,0,0,9.36-6.36,28.14,28.14,0,0,0,6.36-9.36A28.61,28.61,0,0,0,91.56,53.7a28.61,28.61,0,0,0-2.28-11.52,30.05,30.05,0,0,0-6.36-9.36,28.14,28.14,0,0,0-9.36-6.36,29.94,29.94,0,0,0-22.92,0,30.05,30.05,0,0,0-9.36,6.36c-.27.25-.52.52-.77.78a30,30,0,0,0-6.05,9.82A30.49,30.49,0,0,0,32.65,53.7,28.61,28.61,0,0,0,34.93,65.22ZM45,46.26a20.63,20.63,0,0,1,4-6.12,20.94,20.94,0,0,1,5.88-4.2A16.19,16.19,0,0,1,62,34.38a15.84,15.84,0,0,1,7.2,1.56,18.8,18.8,0,0,1,5.88,4.2,19.59,19.59,0,0,1,4,20.88,20.63,20.63,0,0,1-4,6.12,21,21,0,0,1-5.88,4.2A16.19,16.19,0,0,1,62,72.9a16.56,16.56,0,0,1-7.2-1.56A17.05,17.05,0,0,1,49,67.14,19.21,19.21,0,0,1,45,61a20,20,0,0,1-1.44-7.44A19,19,0,0,1,45,46.26Z"/><path class="cls-1" d="M48.82,110.11c1.46-6.86-3.28-11.16-7.9-11.16a8.34,8.34,0,0,0-6.15,2.69l.21-.22a8.38,8.38,0,0,1,2.61-1.77,8.35,8.35,0,0,1,6.39,0,7.85,7.85,0,0,1,2.61,1.77A8.38,8.38,0,0,1,48.38,104a8.43,8.43,0,0,1,0,6.42,7.85,7.85,0,0,1-1.77,2.61A8.38,8.38,0,0,1,44,114.83a8.59,8.59,0,0,1-3.21.64,8.29,8.29,0,0,1-3.18-.64A7.69,7.69,0,0,1,35,113.06a8.38,8.38,0,0,1-1.77-2.61,8,8,0,0,1-.64-3.21,8.5,8.5,0,0,1,.51-2.87,8.37,8.37,0,0,0,7.83,11.3C57.18,115.66,47.79,115,48.82,110.11Z"/><path class="cls-1" d="M33.22,110.45A8.38,8.38,0,0,0,35,113.06a7.69,7.69,0,0,0,2.61,1.77,8.29,8.29,0,0,0,3.18.64,8.59,8.59,0,0,0,3.21-.64,8.38,8.38,0,0,0,2.61-1.77,7.85,7.85,0,0,0,1.77-2.61,8.43,8.43,0,0,0,0-6.42,8.38,8.38,0,0,0-1.77-2.61A7.85,7.85,0,0,0,44,99.64a8.35,8.35,0,0,0-6.39,0A8.38,8.38,0,0,0,35,101.42l-.21.22a8.36,8.36,0,0,0-1.69,2.74,8.5,8.5,0,0,0-.51,2.87A8,8,0,0,0,33.22,110.45ZM36,105.16a5.75,5.75,0,0,1,1.1-1.71,5.84,5.84,0,0,1,1.64-1.17,4.52,4.52,0,0,1,2-.43,4.42,4.42,0,0,1,2,.43,5.24,5.24,0,0,1,1.64,1.17,5.46,5.46,0,0,1,1.1,5.82,5.75,5.75,0,0,1-1.1,1.71,5.84,5.84,0,0,1-1.64,1.17,4.51,4.51,0,0,1-2,.43,4.62,4.62,0,0,1-2-.43A4.75,4.75,0,0,1,37.13,111a5.35,5.35,0,0,1-1.1-1.71,5.58,5.58,0,0,1-.4-2.07A5.29,5.29,0,0,1,36,105.16Z"/><path class="cls-2" d="M178.82,110.11c1.46-6.86-3.28-11.16-7.9-11.16a8.34,8.34,0,0,0-6.15,2.69l.21-.22a8.38,8.38,0,0,1,2.61-1.77,8.35,8.35,0,0,1,6.39,0,7.85,7.85,0,0,1,2.61,1.77,8.38,8.38,0,0,1,1.77,2.61,8.43,8.43,0,0,1,0,6.42,7.85,7.85,0,0,1-1.77,2.61,8.38,8.38,0,0,1-2.61,1.77,8.59,8.59,0,0,1-3.21.64,8.29,8.29,0,0,1-3.18-.64,7.69,7.69,0,0,1-2.61-1.77,8.38,8.38,0,0,1-1.77-2.61,8,8,0,0,1-.64-3.21,8.5,8.5,0,0,1,.51-2.87,8.37,8.37,0,0,0,7.83,11.3C187.18,115.66,177.79,115,178.82,110.11Z"/><path class="cls-2" d="M163.22,110.45a8.38,8.38,0,0,0,1.77,2.61,7.69,7.69,0,0,0,2.61,1.77,8.29,8.29,0,0,0,3.18.64,8.59,8.59,0,0,0,3.21-.64,8.38,8.38,0,0,0,2.61-1.77,7.85,7.85,0,0,0,1.77-2.61,8.43,8.43,0,0,0,0-6.42,8.38,8.38,0,0,0-1.77-2.61A7.85,7.85,0,0,0,174,99.64a8.35,8.35,0,0,0-6.39,0,8.38,8.38,0,0,0-2.61,1.77l-.21.22a8.36,8.36,0,0,0-1.69,2.74,8.5,8.5,0,0,0-.51,2.87A8,8,0,0,0,163.22,110.45Zm2.81-5.29a5.75,5.75,0,0,1,1.1-1.71,5.84,5.84,0,0,1,1.64-1.17,4.52,4.52,0,0,1,2-.43,4.42,4.42,0,0,1,2,.43,5.24,5.24,0,0,1,1.64,1.17,5.46,5.46,0,0,1,1.1,5.82,5.75,5.75,0,0,1-1.1,1.71,5.84,5.84,0,0,1-1.64,1.17,4.51,4.51,0,0,1-2,.43,4.62,4.62,0,0,1-2-.43,4.75,4.75,0,0,1-1.64-1.17,5.35,5.35,0,0,1-1.1-1.71,5.58,5.58,0,0,1-.4-2.07A5.29,5.29,0,0,1,166,105.16Z"/><path class="cls-2" d="M311.94,80.92c-24.61,5.23-40-11.76-40-28.32a29.91,29.91,0,0,1,9.65-22c-.26.25-.52.5-.78.77a30.05,30.05,0,0,0-6.36,9.36,28.45,28.45,0,0,0-2.28,11.4,28.61,28.61,0,0,0,2.28,11.52A28.14,28.14,0,0,0,280.78,73a30.05,30.05,0,0,0,9.36,6.36,30.24,30.24,0,0,0,23,0A28.14,28.14,0,0,0,322.54,73a30.05,30.05,0,0,0,6.36-9.36,30.8,30.8,0,0,0,2.28-11.52,29.72,29.72,0,0,0-2.28-11.4,27.59,27.59,0,0,0-6.36-9.36A30.05,30.05,0,0,0,313.18,25a28.61,28.61,0,0,0-11.52-2.28,30.49,30.49,0,0,0-10.28,1.82A30,30,0,0,1,331.9,52.6C331.85,110.91,329.41,77.21,311.94,80.92Z"/><path class="cls-2" d="M301.66,22.69a30.49,30.49,0,0,0-10.28,1.82,30,30,0,0,0-9.82,6.05c-.26.25-.52.5-.78.77a30.05,30.05,0,0,0-6.36,9.36,28.45,28.45,0,0,0-2.28,11.4,28.61,28.61,0,0,0,2.28,11.52A28.14,28.14,0,0,0,280.78,73a30.05,30.05,0,0,0,9.36,6.36,30.24,30.24,0,0,0,23,0A28.14,28.14,0,0,0,322.54,73a30.05,30.05,0,0,0,6.36-9.36,30.8,30.8,0,0,0,2.28-11.52,29.72,29.72,0,0,0-2.28-11.4,27.59,27.59,0,0,0-6.36-9.36A30.05,30.05,0,0,0,313.18,25,28.61,28.61,0,0,0,301.66,22.69Zm-.12,10.92A20,20,0,0,1,309,35a19.21,19.21,0,0,1,6.12,4,17.05,17.05,0,0,1,4.2,5.88,16.56,16.56,0,0,1,1.56,7.2,16.19,16.19,0,0,1-1.56,7.2,21,21,0,0,1-4.2,5.88,20.63,20.63,0,0,1-6.12,4,19.12,19.12,0,0,1-7.44,1.44,19.52,19.52,0,0,1-13.44-5.4,18.8,18.8,0,0,1-4.2-5.88,15.84,15.84,0,0,1-1.56-7.2,16.19,16.19,0,0,1,1.56-7.2A20.94,20.94,0,0,1,288.1,39a20.63,20.63,0,0,1,6.12-4A19,19,0,0,1,301.54,33.61Z"/><path class="cls-2" d="M319.62,113.88c-6.59,1.4-10.72-3.15-10.72-7.59a8,8,0,0,1,2.59-5.9l-.21.21a8,8,0,0,0-1.7,2.51,8,8,0,0,0,0,6.14,7.54,7.54,0,0,0,1.7,2.51,8,8,0,0,0,2.51,1.7,8.1,8.1,0,0,0,6.17,0,7.54,7.54,0,0,0,2.51-1.7,8,8,0,0,0,1.7-2.51,8.25,8.25,0,0,0,.61-3.09,8,8,0,0,0-.61-3.05,7.39,7.39,0,0,0-1.7-2.51,8.05,8.05,0,0,0-2.51-1.7,7.66,7.66,0,0,0-3.09-.61,8.17,8.17,0,0,0-2.75.49A8,8,0,0,1,325,106.29C324.95,121.91,324.3,112.89,319.62,113.88Z"/><path class="cls-2" d="M316.86,98.28a8.17,8.17,0,0,0-2.75.49,8,8,0,0,0-2.63,1.62l-.21.21a8,8,0,0,0-1.7,2.51,8,8,0,0,0,0,6.14,7.54,7.54,0,0,0,1.7,2.51,8,8,0,0,0,2.51,1.7,8.1,8.1,0,0,0,6.17,0,7.54,7.54,0,0,0,2.51-1.7,8,8,0,0,0,1.7-2.51,8.25,8.25,0,0,0,.61-3.09,8,8,0,0,0-.61-3.05,7.39,7.39,0,0,0-1.7-2.51,8.05,8.05,0,0,0-2.51-1.7A7.66,7.66,0,0,0,316.86,98.28Zm0,2.92a5.36,5.36,0,0,1,2,.39,5.14,5.14,0,0,1,1.64,1.06,4.57,4.57,0,0,1,1.12,1.57,4.44,4.44,0,0,1,.42,1.93,4.34,4.34,0,0,1-.42,1.93,5.61,5.61,0,0,1-1.12,1.57,5.53,5.53,0,0,1-1.64,1.06,5.12,5.12,0,0,1-2,.39,5.23,5.23,0,0,1-3.6-1.45,5,5,0,0,1-1.12-1.57,4.24,4.24,0,0,1-.42-1.93,4.34,4.34,0,0,1,.42-1.93,5.61,5.61,0,0,1,1.12-1.57,5.53,5.53,0,0,1,1.64-1.06A5.08,5.08,0,0,1,316.83,101.21Z"/></svg>