<svg id="Capa_1" data-name="Capa 1" xmlns="http://www.w3.org/2000/svg" viewBox="0 0 566.93 357.44"><defs><style>.cls-1{fill:#85a9db;}.cls-2{fill:#212f41;}</style></defs><title>autoqe_both_inv</title><path class="cls-1" d="M300.6,269.35c13.73,39.41,51.09,46.7,74.6,32.46a49.62,49.62,0,0,0,23-32.64c-.13.59-.26,1.18-.42,1.76A49.85,49.85,0,0,1,389.93,288a49.66,49.66,0,0,1-32.52,19.7,46.68,46.68,0,0,1-18.74-1,49.85,49.85,0,0,1-17.07-7.81,50.17,50.17,0,0,1-19.8-32.69,46.69,46.69,0,0,1,1-18.74,49.85,49.85,0,0,1,7.81-17.07A51.1,51.1,0,0,1,325,217.27a49.31,49.31,0,0,1,18.13-6.56,45.76,45.76,0,0,1,18.74,1,49.86,49.86,0,0,1,17.07,7.81,47.47,47.47,0,0,1,13.14,14.38A50.57,50.57,0,0,1,398.32,250a49.78,49.78,0,0,0-74.69-33.35C240.94,266.88,290.85,241.37,300.6,269.35Z"/><path class="cls-1" d="M378.92,219.5a49.86,49.86,0,0,0-17.07-7.81,45.76,45.76,0,0,0-18.74-1A49.31,49.31,0,0,0,325,217.27a51.1,51.1,0,0,0-14.38,13.14,49.85,49.85,0,0,0-7.81,17.07,46.69,46.69,0,0,0-1,18.74,50.17,50.17,0,0,0,19.8,32.69,49.85,49.85,0,0,0,17.07,7.81,46.68,46.68,0,0,0,18.74,1A49.66,49.66,0,0,0,389.93,288a49.85,49.85,0,0,0,7.81-17.07c.16-.59.29-1.18.42-1.76a49.75,49.75,0,0,0,.15-19.13,50.57,50.57,0,0,0-6.26-16.15A47.47,47.47,0,0,0,378.92,219.5Zm2,35.56a34.22,34.22,0,0,1-.36,12.09,34.74,34.74,0,0,1-4.73,11,26.86,26.86,0,0,1-8.87,8.4,26.28,26.28,0,0,1-11.56,4,31.18,31.18,0,0,1-12-.9,32.5,32.5,0,0,1-23.56-26.22,34.22,34.22,0,0,1,.36-12.09,34.75,34.75,0,0,1,4.73-11,26.86,26.86,0,0,1,8.87-8.4,27.47,27.47,0,0,1,11.56-4,28.29,28.29,0,0,1,12,.91,31.86,31.86,0,0,1,10.88,5.28,33.19,33.19,0,0,1,8.44,9.32A31.44,31.44,0,0,1,380.92,255.06Z"/><path class="cls-2" d="M266,246.8c-14.83-39-52.38-45.25-75.48-30.36-12.15,7.83-18.21,21.43-22,33.27.19-.57.23-1.18.37-1.78a49.85,49.85,0,0,1,7.33-17.28,49.66,49.66,0,0,1,32-20.6,46.68,46.68,0,0,1,18.76.45,49.85,49.85,0,0,1,17.28,7.33A50.17,50.17,0,0,1,264.91,250a46.69,46.69,0,0,1-.45,18.76A49.85,49.85,0,0,1,257.12,286a51.1,51.1,0,0,1-14,13.53,49.31,49.31,0,0,1-17.94,7.07,45.76,45.76,0,0,1-18.76-.45,49.86,49.86,0,0,1-17.28-7.33,47.47,47.47,0,0,1-13.53-14,50.57,50.57,0,0,1-6.71-16,49.78,49.78,0,0,0,75.6,31.24C325.73,247.6,276.55,274.49,266,246.8Z"/><path class="cls-2" d="M189.13,298.83a49.86,49.86,0,0,0,17.28,7.33,45.76,45.76,0,0,0,18.76.45,49.31,49.31,0,0,0,17.94-7.07,51.1,51.1,0,0,0,14-13.53,49.85,49.85,0,0,0,7.33-17.28,46.69,46.69,0,0,0,.45-18.76,50.17,50.17,0,0,0-20.71-32.12,49.85,49.85,0,0,0-17.28-7.33,46.68,46.68,0,0,0-18.76-.45,49.66,49.66,0,0,0-32,20.6,49.85,49.85,0,0,0-7.33,17.28c-.14.59-.26,1.18-.37,1.78a49.75,49.75,0,0,0,.38,19.13,50.57,50.57,0,0,0,6.71,16A47.47,47.47,0,0,0,189.13,298.83Zm-3-35.49a34.22,34.22,0,0,1,0-12.09,34.74,34.74,0,0,1,4.42-11.14,26.86,26.86,0,0,1,8.63-8.65,26.28,26.28,0,0,1,11.44-4.3,31.18,31.18,0,0,1,12,.57,32.5,32.5,0,0,1,24.29,25.55,34.22,34.22,0,0,1,0,12.09,34.75,34.75,0,0,1-4.42,11.14,26.86,26.86,0,0,1-8.63,8.65,27.47,27.47,0,0,1-11.44,4.3,28.29,28.29,0,0,1-12-.57,31.86,31.86,0,0,1-11-5,33.19,33.19,0,0,1-8.69-9.08A31.44,31.44,0,0,1,186.14,263.33Z"/><circle class="cls-1" cx="216.38" cy="258.59" r="9.01"/><circle class="cls-2" cx="351.04" cy="260.08" r="9.01"/><circle class="cls-1" cx="129.76" cy="101.19" r="6.76"/><circle class="cls-2" cx="377.55" cy="100.22" r="6.76"/><path id="_Trazado_" data-name="&lt;Trazado&gt;" class="cls-2" d="M188.54,129.27a22.21,22.21,0,0,1-7.94-5,19.89,19.89,0,0,1-5.08-7.81,28.63,28.63,0,0,1-1.74-10.17V73.84a2.54,2.54,0,0,1,2.48-2.48h6.32a2.54,2.54,0,0,1,2.48,2.48v32.37a16,16,0,0,0,1.49,7.32,16.56,16.56,0,0,0,3.47,4.59,12.46,12.46,0,0,0,4.59,2.36,20.15,20.15,0,0,0,2.36.5,11.35,11.35,0,0,0,2,.12,22.59,22.59,0,0,0,4.34-.62,10.17,10.17,0,0,0,4.59-2.36,12.38,12.38,0,0,0,3.6-4.59,16,16,0,0,0,1.49-7.32V73.84a2.54,2.54,0,0,1,2.48-2.48h6.2a2.25,2.25,0,0,1,1.74.74,2.45,2.45,0,0,1,.74,1.74v32.49a25.1,25.1,0,0,1-.5,5.33,19.86,19.86,0,0,1-1.36,4.84,21.85,21.85,0,0,1-5.08,7.81,23.35,23.35,0,0,1-7.94,5A30.58,30.58,0,0,1,198.83,131,29.85,29.85,0,0,1,188.54,129.27Z"/><path id="_Trazado_2" data-name="&lt;Trazado&gt;" class="cls-2" d="M273.46,81.38H261.53a2.11,2.11,0,0,0-1.76.75,3.16,3.16,0,0,0-.75,1.76v44.34a2.58,2.58,0,0,1-2.51,2.51h-6.28a2.28,2.28,0,0,1-1.76-.75,3.16,3.16,0,0,1-.75-1.76V84a2.28,2.28,0,0,0-.75-1.76,3.16,3.16,0,0,0-1.76-.75H233.14A2.58,2.58,0,0,1,230.63,79V74a2.58,2.58,0,0,1,2.51-2.51h40.32A2.58,2.58,0,0,1,276,74v5a2.48,2.48,0,0,1-.75,1.76A2,2,0,0,1,273.46,81.38Z"/><path id="_Trazado_compuesto_" data-name="&lt;Trazado compuesto&gt;" class="cls-2" d="M307.7,130.29A29.72,29.72,0,0,1,296.3,128a27.58,27.58,0,0,1-9.36-6.36,30.05,30.05,0,0,1-6.36-9.36,28.61,28.61,0,0,1-2.28-11.52,30.8,30.8,0,0,1,2.28-11.52,28.14,28.14,0,0,1,6.36-9.36,30.05,30.05,0,0,1,9.36-6.36,29.94,29.94,0,0,1,22.92,0,28.14,28.14,0,0,1,9.36,6.36,30.05,30.05,0,0,1,6.36,9.36,30.24,30.24,0,0,1,0,23,28.14,28.14,0,0,1-6.36,9.36,30.05,30.05,0,0,1-9.36,6.36A30.8,30.8,0,0,1,307.7,130.29Zm0-48.83A16.19,16.19,0,0,0,300.5,83a20.94,20.94,0,0,0-5.88,4.2,20.63,20.63,0,0,0-4,6.12,19,19,0,0,0-1.44,7.32,20,20,0,0,0,1.44,7.44,19.21,19.21,0,0,0,4,6.12,17.05,17.05,0,0,0,5.88,4.2,16.56,16.56,0,0,0,7.2,1.56,16.19,16.19,0,0,0,7.2-1.56,20.94,20.94,0,0,0,5.88-4.2,20.63,20.63,0,0,0,4-6.12,19.12,19.12,0,0,0,1.44-7.44,19.4,19.4,0,0,0-1.44-7.32,19.21,19.21,0,0,0-4-6.12A18.79,18.79,0,0,0,314.9,83,15.84,15.84,0,0,0,307.7,81.45Z"/><path id="_Trazado_3" data-name="&lt;Trazado&gt;" class="cls-1" d="M434.31,84v9.8a2.58,2.58,0,0,0,2.51,2.51h23.74a2.58,2.58,0,0,1,2.51,2.51v5.28a2.58,2.58,0,0,1-2.51,2.51H436.82a2.58,2.58,0,0,0-2.51,2.51v8.92a2.58,2.58,0,0,0,2.51,2.51H464.2a2.58,2.58,0,0,1,2.51,2.51v5.15a2.58,2.58,0,0,1-2.51,2.51H425.52a2.58,2.58,0,0,1-2.51-2.51V73.85a2.58,2.58,0,0,1,2.51-2.51H464.2a2.58,2.58,0,0,1,2.51,2.51v5a2.58,2.58,0,0,1-2.51,2.51H436.82a2.48,2.48,0,0,0-1.76.75A2.56,2.56,0,0,0,434.31,84Z"/><path class="cls-2" d="M158.54,111.05c5.23-24.61-11.76-40-28.32-40a29.91,29.91,0,0,0-22,9.65c.25-.26.5-.52.77-.78a30.05,30.05,0,0,1,9.36-6.36,29.94,29.94,0,0,1,22.92,0,28.14,28.14,0,0,1,9.36,6.36,30.05,30.05,0,0,1,6.36,9.36,30.24,30.24,0,0,1,0,23,28.14,28.14,0,0,1-6.36,9.36,30.05,30.05,0,0,1-9.36,6.36,30.8,30.8,0,0,1-11.52,2.28A29.72,29.72,0,0,1,118.3,128a27.59,27.59,0,0,1-9.36-6.36,30.05,30.05,0,0,1-6.36-9.36,28.61,28.61,0,0,1-2.28-11.52,30.49,30.49,0,0,1,1.82-10.28A30,30,0,0,0,130.21,131C188.52,131,154.82,128.52,158.54,111.05Z"/><path class="cls-2" d="M102.58,112.29a30.05,30.05,0,0,0,6.36,9.36A27.59,27.59,0,0,0,118.3,128a29.72,29.72,0,0,0,11.4,2.28A30.8,30.8,0,0,0,141.22,128a30.05,30.05,0,0,0,9.36-6.36,28.14,28.14,0,0,0,6.36-9.36,30.24,30.24,0,0,0,0-23,30.05,30.05,0,0,0-6.36-9.36,28.14,28.14,0,0,0-9.36-6.36,29.94,29.94,0,0,0-22.92,0,30.05,30.05,0,0,0-9.36,6.36c-.27.25-.52.52-.77.78a30,30,0,0,0-6.05,9.82,30.49,30.49,0,0,0-1.82,10.28A28.61,28.61,0,0,0,102.58,112.29Zm10.08-19a20.63,20.63,0,0,1,4-6.12A20.94,20.94,0,0,1,122.5,83a16.19,16.19,0,0,1,7.2-1.56A15.84,15.84,0,0,1,136.9,83a18.8,18.8,0,0,1,5.88,4.2,19.59,19.59,0,0,1,4,20.88,20.63,20.63,0,0,1-4,6.12,21,21,0,0,1-5.88,4.2,16.19,16.19,0,0,1-7.2,1.56,16.56,16.56,0,0,1-7.2-1.56,17.05,17.05,0,0,1-5.88-4.2,19.21,19.21,0,0,1-4-6.12,20,20,0,0,1-1.44-7.44A19,19,0,0,1,112.66,93.33Z"/><path class="cls-1" d="M387.59,129c-24.61,5.23-40-11.76-40-28.32a29.91,29.91,0,0,1,9.65-22c-.26.25-.52.5-.78.77a30.05,30.05,0,0,0-6.36,9.36,29.94,29.94,0,0,0,0,22.92,28.14,28.14,0,0,0,6.36,9.36,30.05,30.05,0,0,0,9.36,6.36,30.24,30.24,0,0,0,23,0,28.14,28.14,0,0,0,9.36-6.36,30.05,30.05,0,0,0,6.36-9.36,30.8,30.8,0,0,0,2.28-11.52,29.72,29.72,0,0,0-2.28-11.4,27.59,27.59,0,0,0-6.36-9.36A30.05,30.05,0,0,0,388.83,73a28.61,28.61,0,0,0-11.52-2.28A30.49,30.49,0,0,0,367,72.57a30,30,0,0,1,40.52,28.09C407.5,159,405.06,125.28,387.59,129Z"/><path class="cls-1" d="M377.31,70.76A30.49,30.49,0,0,0,367,72.57a30,30,0,0,0-9.82,6.05c-.26.25-.52.5-.78.77a30.05,30.05,0,0,0-6.36,9.36,29.94,29.94,0,0,0,0,22.92,28.14,28.14,0,0,0,6.36,9.36,30.05,30.05,0,0,0,9.36,6.36,30.24,30.24,0,0,0,23,0,28.14,28.14,0,0,0,9.36-6.36,30.05,30.05,0,0,0,6.36-9.36,30.8,30.8,0,0,0,2.28-11.52,29.72,29.72,0,0,0-2.28-11.4,27.59,27.59,0,0,0-6.36-9.36A30.05,30.05,0,0,0,388.83,73,28.61,28.61,0,0,0,377.31,70.76Zm-.12,10.92a20,20,0,0,1,7.44,1.44,19.21,19.21,0,0,1,6.12,4,17.05,17.05,0,0,1,4.2,5.88,16.56,16.56,0,0,1,1.56,7.2,16.19,16.19,0,0,1-1.56,7.2,21,21,0,0,1-4.2,5.88,20.63,20.63,0,0,1-6.12,4,19.12,19.12,0,0,1-7.44,1.44,19.52,19.52,0,0,1-13.44-5.4,18.8,18.8,0,0,1-4.2-5.88,15.84,15.84,0,0,1-1.56-7.2,16.19,16.19,0,0,1,1.56-7.2,20.94,20.94,0,0,1,4.2-5.88,20.63,20.63,0,0,1,6.12-4A19,19,0,0,1,377.19,81.68Z"/></svg>