<?xml version="1.0" encoding="utf-8"?>
<!-- Generator: Adobe Illustrator 21.1.0, SVG Export Plug-In . SVG Version: 6.00 Build 0)  -->
<svg version="1.1" id="Layer_1" xmlns="http://www.w3.org/2000/svg"  x="0px" y="0px"
	 viewBox="0 0 512 512" style="enable-background:new 0 0 512 512;" xml:space="preserve">
<style type="text/css">
	.st0{fill:#122B40;}
</style>
<g>
	<path class="st0" d="M421-51.2h-50.4c0-58.7-43.3-102-114.7-102h-76.5c-71.5,0-114.7,43.3-114.7,102H38.4
		c-39.8,0-76.8,36.9-76.8,77.2v98.3c0,9.7,7.8,17.5,17.5,17.5h35c6,29.7,32.5,51.3,62.6,51.5c30.8-0.8,56.4-20.8,62.6-51.5h156.3
		c6.8,29.9,31.9,51,62.6,51.5c30.8-1.4,56.2-20.5,62.6-51.5h35c9.7,0,17.5-7.8,17.5-17.5V1.4C473.6-27.6,449.9-51.2,421-51.2z
		 M76.8,167c-21.2,0-38.4-17.2-38.4-38.4c0-21.2,17.2-38.4,38.4-38.4s38.4,17.2,38.4,38.4C115.2,149.8,98,167,76.8,167z M358.4,167
		c-21.2,0-38.4-17.2-38.4-38.4c0-21.2,17.2-38.4,38.4-38.4c21.2,0,38.4,17.2,38.4,38.4C396.8,149.8,379.6,167,358.4,167z
		 M447.9,115.8H421c-5.2-23.2-20.6-40.8-43.5-48.1c-5.8-1.8-12.5-3.2-18.7-3.2c-30.8,0-56.6,21.2-63,51.3H139.4
		c-4.9-23.7-23.1-43.1-46.6-49.2C88,65.4,84.9,65,80,64.7c-4.3-0.3-8.8,0-13,0.7C41,69.3,19.1,89.9,14.1,115.8h-27V26.2
		c0-26,25.6-51.2,51.2-51.2h51.2c8.5,0,19.8,8.4,30.7,16.6c14.3,10.7,29,21.8,46.1,21.8V39c0,14.1,11.5,25.6,25.6,25.6h51.2
		c14.1,0,25.6-11.5,25.6-25.6h38.4c7.1,0,12.8-5.7,12.8-12.8s-5.7-12.8-12.8-12.8h-38.4v-25.6h38.4c7.1,0,12.8-5.7,12.8-12.8
		c0-7.1-5.7-12.8-12.8-12.8h-38.4c0-14.1-11.5-25.6-25.6-25.6H192c-14.1,0-25.6,11.5-25.6,25.6v25.6c-8.5,0-19.8-8.4-30.7-16.6
		c-14.2-10.7-29-21.8-46.1-21.8c0.1-4.8-0.1-9.7,1.2-14.3c2.6-9.2,5-18.9,10.2-26.9c5.4-7.8,11.9-14.8,19.9-20
		c17.4-11.3,37.7-15.4,58.2-15.6H256l11.6,0.4c17,2.8,29.7,3.2,44.9,13.7c21.8,15.1,32.5,36.7,33.1,62.6V-25h51.2
		c17.9,0.5,33.4,11.2,43.2,25.8L440,1c-2.2-0.5-0.6-0.2-4.9-0.4c-21.2,0-38.4,17.2-38.4,38.4c0,21.2,17.2,38.4,38.4,38.4
		c4.3-0.2,8.8-0.4,12.8-2.3V115.8z M192,39v-76.8h51.2V39H192z M435.2,51.8c-7.1,0-12.8-5.7-12.8-12.8s5.7-12.8,12.8-12.8
		S448,31.9,448,39S442.2,51.8,435.2,51.8z"/>
</g>
</svg>
