<svg id="Capa_1" data-name="Capa 1" xmlns="http://www.w3.org/2000/svg" viewBox="0 0 141.73 123">
    <defs>
        <style>
            .cls-1,.cls-2{fill:#122b40;stroke:#122b40;stroke-miterlimit:10;}.cls-2{stroke-linecap:round;stroke-width:6px;}
        </style>
    </defs>
    <title>loc2</title>
    <path class="cls-1"
          d="M113.35,52.72a38.6,38.6,0,0,0,.49-17.24,36.77,36.77,0,0,0-6.47-14.8A53.1,53.1,0,0,0,94.93,8.8,42,42,0,0,0,79,2a46.1,46.1,0,0,0-16.79-.18,47.6,47.6,0,0,0-15.54,6,45.26,45.26,0,0,0-12.48,12,42.62,42.62,0,0,0-6.83,15.93,43.17,43.17,0,0,0-.07,16.64A46.1,46.1,0,0,0,33.39,68a40.8,40.8,0,0,0,12,12.48,44.67,44.67,0,0,0,7.06,3.78c2.64.95,7.16,2.1,7.77,4.86l9.47,32.83,34.66-50.17A60.31,60.31,0,0,0,113.35,52.72Z"/>
    <line class="cls-2" x1="76.8" y1="48.18" x2="58.9" y2="74.02"/>
</svg>