<?xml version="1.0" encoding="iso-8859-1"?>
<!-- Generator: Adobe Illustrator 19.0.0, SVG Export Plug-In . SVG Version: 6.00 Build 0)  -->
<svg xmlns="http://www.w3.org/2000/svg"  version="1.1" id="Layer_1" x="0px" y="0px" viewBox="0 0 496 496" style="enable-background:new 0 0 496 496;" xml:space="preserve">
<path style="fill:#E13E3E;" d="M0,249.2v121.6c0,27.2,21.6,46.4,48,46.4h400c26.4,0,48-19.2,48-46.4V249.2H0z"/>
<path style="fill:#D12A2A;" d="M248,249.2l197.6,168c26.4,0,50.4-19.2,50.4-46.4V249.2H248z"/>
<path style="fill:#FFFFFF;" d="M448,78.8H48c-26.4,0-48,21.6-48,48.8v121.6h496V127.6C496,100.4,474.4,78.8,448,78.8z"/>
<path style="fill:#E9F3F4;" d="M448,78.8H48l200,170.4h248V127.6C496,100.4,474.4,78.8,448,78.8z"/>
<path style="fill:#C11414;" d="M496,370c0,28.8-21.6,47.2-48,47.2H48c-26.4,0-48-20.8-48-48"/>
<path style="fill:#D9ECED;" d="M48,78.8h400c26.4,0,48,21.6,48,48.8v88.8"/>
<g>
</g>
<g>
</g>
<g>
</g>
<g>
</g>
<g>
</g>
<g>
</g>
<g>
</g>
<g>
</g>
<g>
</g>
<g>
</g>
<g>
</g>
<g>
</g>
<g>
</g>
<g>
</g>
<g>
</g>
</svg>
