<?xml version="1.0" encoding="iso-8859-1"?>
<!-- Generator: Adobe Illustrator 19.0.0, SVG Export Plug-In . SVG Version: 6.00 Build 0)  -->
<svg xmlns="http://www.w3.org/2000/svg"  version="1.1" id="Layer_1" x="0px" y="0px" viewBox="0 0 496 496" style="enable-background:new 0 0 496 496;" xml:space="preserve">
<path style="fill:#339846;" d="M496,369.6c0,24-21.6,46.4-48,46.4H48c-26.4,0-48-19.2-48-46.4V126.4C0,99.2,21.6,80,48,80h400  c26.4,0,48,19.2,48,46.4V369.6z"/>
<path style="fill:#268734;" d="M48,80h400c26.4,0,48,19.2,48,46.4v243.2c0,24.8-21.6,46.4-48,46.4"/>
<g>
	<path style="fill:#20772A;" d="M496,368.8c0,27.2-21.6,47.2-48,47.2H48c-26.4,0-48-20.8-48-48"/>
	<path style="fill:#20772A;" d="M48,80h400c26.4,0,48,19.2,48,46.4V216"/>
</g>
<path style="fill:#F8CD1B;" d="M297.6,248L464.8,81.6C460,80,454.4,80,448,80h-80L248,200.8L127.2,80H48c-5.6,0-12,0-16.8,1.6  L198.4,248l-168,166.4C36,416,41.6,416,48,416h80l120-120.8L368.8,416h80c5.6,0,12,0,16.8-1.6L297.6,248z"/>
<g>
	<path style="fill:#F7B31C;" d="M248,296.8L368.8,416h80c5.6,0,12,0,16.8-1.6l-168-167.2L464.8,81.6C460,80,454.4,80,448,80h-80   L248,199.2L127.2,80"/>
</g>
<g>
	<path style="fill:#494949;" d="M30.4,81.6C12.8,88.8,0,105.6,0,126.4v243.2c0,20.8,12.8,37.6,30.4,44.8l168-166.4L30.4,81.6z"/>
	<path style="fill:#494949;" d="M496,369.6V126.4c0-20.8-12.8-37.6-30.4-44.8L297.6,248L464,414.4C482.4,407.2,496,390.4,496,369.6z   "/>
</g>
<g>
	<path style="fill:#2D2D2D;" d="M0,240v129.6c0,20.8,12.8,37.6,30.4,44.8l167.2-167.2"/>
	<path style="fill:#2D2D2D;" d="M297.6,246.4l166.4,168c17.6-7.2,32-24,32-44.8V240"/>
</g>
<g>
</g>
<g>
</g>
<g>
</g>
<g>
</g>
<g>
</g>
<g>
</g>
<g>
</g>
<g>
</g>
<g>
</g>
<g>
</g>
<g>
</g>
<g>
</g>
<g>
</g>
<g>
</g>
<g>
</g>
</svg>
