<?xml version="1.0" encoding="iso-8859-1"?>
<!-- Generator: Adobe Illustrator 19.0.0, SVG Export Plug-In . SVG Version: 6.00 Build 0)  -->
<svg xmlns="http://www.w3.org/2000/svg"  version="1.1" id="Layer_1" x="0px" y="0px" viewBox="0 0 496 496" style="enable-background:new 0 0 496 496;" xml:space="preserve">
<path style="fill:#4166AF;" d="M496,369.2c0,27.2-21.6,48.8-48,48.8H48c-26.4,0-48-21.6-48-48.8V126c0-27.2,21.6-48.8,48-48.8h400  c26.4,0,48,21.6,48,48.8V369.2z"/>
<path style="fill:#28559E;" d="M48,77.2h400c26.4,0,48,21.6,48,48.8v243.2c0,27.2-21.6,48.8-48,48.8"/>
<path style="fill:#0B4182;" d="M48,77.2h400c26.4,0,48,21.6,48,48.8v88.8"/>
<path style="fill:#D8E0EA;" d="M1.6,380.4C6.4,402,25.6,418,48,418h400c22.4,0,41.6-16,46.4-37.6H1.6z"/>
<path style="fill:#C3D2E2;" d="M456.8,417.2c2.4-0.8,4.8-0.8,7.2-1.6c0,0,0.8,0,0.8-0.8c2.4-0.8,4.8-1.6,6.4-3.2l0,0  c2.4-1.6,4-2.4,6.4-4l0,0c1.6-1.6,4-3.2,5.6-5.6l0,0c4.8-5.6,8.8-12.8,11.2-20.8H404l44,37.6c2.4,0,4.8,0,7.2-0.8  C456,417.2,456.8,417.2,456.8,417.2z"/>
<path style="fill:#D8E0EA;" d="M208.8,159.6H496v-34.4c0-1.6,0-3.2,0-4.8H208.8V159.6z"/>
<path style="fill:#C3D2E2;" d="M496,121.2H208.8v5.6l109.6,32.8H496v-34.4C496,124.4,496,122.8,496,121.2z"/>
<rect x="208.8" y="207.6" style="fill:#FFFFFF;" width="287.2" height="39.2"/>
<polygon style="fill:#D8E0EA;" points="208.8,214.8 246.4,246.8 496,246.8 496,207.6 208.8,207.6 "/>
<polygon style="fill:#FFFFFF;" points="120.8,294 120.8,203.6 208.8,203.6 208.8,164.4 120.8,164.4 120.8,77.2 81.6,77.2   81.6,164.4 0,164.4 0,203.6 81.6,203.6 81.6,294 0,294 0,333.2 496,333.2 496,294 "/>
<g>
	<polygon style="fill:#D8E0EA;" points="196,203.6 208.8,203.6 208.8,164.4 150.4,164.4  "/>
	<polygon style="fill:#D8E0EA;" points="120.8,138.8 120.8,77.2 81.6,77.2 81.6,106  "/>
	<polygon style="fill:#D8E0EA;" points="348.8,333.2 496,333.2 496,294 302.4,294  "/>
</g>
<g>
</g>
<g>
</g>
<g>
</g>
<g>
</g>
<g>
</g>
<g>
</g>
<g>
</g>
<g>
</g>
<g>
</g>
<g>
</g>
<g>
</g>
<g>
</g>
<g>
</g>
<g>
</g>
<g>
</g>
</svg>
