<?xml version="1.0" encoding="iso-8859-1"?>
<!-- Generator: Adobe Illustrator 19.0.0, SVG Export Plug-In . SVG Version: 6.00 Build 0)  -->
<svg xmlns="http://www.w3.org/2000/svg"  version="1.1" id="Layer_1" x="0px" y="0px" viewBox="0 0 496.021 496.021" style="enable-background:new 0 0 496.021 496.021;" xml:space="preserve">
<path style="fill:#259F49;" d="M0,304.01v65.6c0,27.2,21.6,46.4,48,46.4h400c26.4,0,48-19.2,48-46.4v-65.6H0z"/>
<path style="fill:#CC3434;" d="M448,80.01H48c-26.4,0-48,19.2-48,46.4v65.6h496v-65.6C496,99.21,474.4,80.01,448,80.01z"/>
<rect y="192.01" style="fill:#205688;" width="496" height="112"/>
<path style="fill:#088228;" d="M446.4,416.01c26.4,0,49.6-19.2,49.6-46.4v-65.6H315.2L446.4,416.01z"/>
<path style="fill:#BC2A2A;" d="M448,80.01H48l132.8,112H496v-65.6C496,99.21,474.4,80.01,448,80.01z"/>
<polygon style="fill:#0D4772;" points="316,304.01 496,304.01 496,192.01 180,192.01 "/>
<path style="fill:#A81818;" d="M448,80.01H48l370.4,112H496v-65.6C496,99.21,474.4,80.01,448,80.01z"/>
<polygon style="fill:#063A59;" points="496,214.41 496,192.01 414.4,192.01 "/>
<path style="fill:#088228;" d="M496,368.81c0.8,28-21.6,47.2-48,47.2H48c-26.4,0-48-20.8-48-48"/>
<rect y="184.01" style="fill:#CED9E4;" width="496" height="8"/>
<polygon style="fill:#99AAB5;" points="180.8,192.01 496,192.01 496,184.01 169.6,184.01 "/>
<rect y="304.01" style="fill:#CED9E4;" width="496" height="8"/>
<polygon style="fill:#99AAB5;" points="315.2,304.01 326.4,312.01 496,312.01 496,304.01 "/>
<g>
</g>
<g>
</g>
<g>
</g>
<g>
</g>
<g>
</g>
<g>
</g>
<g>
</g>
<g>
</g>
<g>
</g>
<g>
</g>
<g>
</g>
<g>
</g>
<g>
</g>
<g>
</g>
<g>
</g>
</svg>
