<?xml version="1.0" encoding="iso-8859-1"?>
<!-- Generator: Adobe Illustrator 19.0.0, SVG Export Plug-In . SVG Version: 6.00 Build 0)  -->
<svg xmlns="http://www.w3.org/2000/svg"  version="1.1" id="Layer_1" x="0px" y="0px" viewBox="0 0 496 496" style="enable-background:new 0 0 496 496;" xml:space="preserve">
<path style="fill:#FFD72E;" d="M496,369.6c0,27.2-21.6,46.4-48,46.4H48c-26.4,0-48-19.2-48-46.4V126.4C0,99.2,21.6,80,48,80h400  c26.4,0,48,19.2,48,46.4V369.6z"/>
<path style="fill:#F2C300;" d="M496,368.8c0,27.2-21.6,47.2-48,47.2H48c-26.4,0-48-20.8-48-48"/>
<path style="fill:#008E56;" d="M48,80h400c26.4,0,48,19.2,48,46.4v243.2c0,27.2-21.6,46.4-48,46.4"/>
<path style="fill:#037255;" d="M448,416c26.4,0,48-16,48-48H391.2L448,416z"/>
<path style="fill:#0EA564;" d="M48,80h400c26.4,0,48,19.2,48,46.4V216"/>
<polygon style="fill:#D32027;" points="248,186.4 263.2,232 310.4,232 272,260.8 286.4,307.2 248,279.2 209.6,307.2 224,260.8   185.6,232 232.8,232 "/>
<polygon style="fill:#B70F1B;" points="263.2,232 248,186.4 232.8,232 231.2,232 275.2,269.6 272,260.8 310.4,232 "/>
<g>
</g>
<g>
</g>
<g>
</g>
<g>
</g>
<g>
</g>
<g>
</g>
<g>
</g>
<g>
</g>
<g>
</g>
<g>
</g>
<g>
</g>
<g>
</g>
<g>
</g>
<g>
</g>
<g>
</g>
</svg>
