<?xml version="1.0" encoding="iso-8859-1"?>
<!-- Generator: Adobe Illustrator 19.0.0, SVG Export Plug-In . SVG Version: 6.00 Build 0)  -->
<svg xmlns="http://www.w3.org/2000/svg"  version="1.1" id="Layer_1" x="0px" y="0px" viewBox="0 0 496 496" style="enable-background:new 0 0 496 496;" xml:space="preserve">
<path style="fill:#45AFE3;" d="M496,369.6c0,27.2-21.6,46.4-48,46.4H48c-26.4,0-48-19.2-48-46.4V126.4C0,99.2,21.6,80,48,80h400  c26.4,0,48,19.2,48,46.4V369.6z"/>
<path style="fill:#179ACE;" d="M48,80h400c26.4,0,48,19.2,48,46.4v243.2c0,27.2-25.6,46.4-52,46.4"/>
<g>
	<path style="fill:#0F8FBC;" d="M496,368.8c0,28.8-21.6,47.2-48,47.2H48c-26.4,0-48-20.8-48-48"/>
	<path style="fill:#0F8FBC;" d="M48,80h400c26.4,0,48,19.2,48,46.4V216"/>
</g>
<polygon style="fill:#CAE0EF;" points="244,130.4 251.2,152 274.4,152 255.2,167.2 262.4,189.6 244,176.8 225.6,190.4 232.8,167.2   213.6,152 236.8,152 "/>
<polygon style="fill:#F3F4F5;" points="244,306.4 251.2,328 274.4,328 255.2,341.6 262.4,363.2 244,349.6 225.6,363.2 232.8,341.6   213.6,328 236.8,328 "/>
<polygon style="fill:#CAE0EF;" points="337.6,218.4 344.8,240 368,240 348.8,254.4 356,276.8 337.6,264 319.2,277.6 326.4,254.4   307.2,240 330.4,240 "/>
<polygon style="fill:#F3F4F5;" points="158.4,218.4 165.6,240 188.8,240 169.6,254.4 176.8,276.8 158.4,264 140,277.6 147.2,254.4   128,240 151.2,240 "/>
<g>
</g>
<g>
</g>
<g>
</g>
<g>
</g>
<g>
</g>
<g>
</g>
<g>
</g>
<g>
</g>
<g>
</g>
<g>
</g>
<g>
</g>
<g>
</g>
<g>
</g>
<g>
</g>
<g>
</g>
</svg>
