<?xml version="1.0" encoding="iso-8859-1"?>
<!-- Generator: Adobe Illustrator 19.0.0, SVG Export Plug-In . SVG Version: 6.00 Build 0)  -->
<svg xmlns="http://www.w3.org/2000/svg"  version="1.1" id="Layer_1" x="0px" y="0px" viewBox="0 0 496 496" style="enable-background:new 0 0 496 496;" xml:space="preserve">
<path style="fill:#28643A;" d="M0,304v65.6C0,396.8,21.6,416,48,416h400c26.4,0,48-19.2,48-46.4V304H0z"/>
<path style="fill:#D25354;" d="M448,80H48C21.6,80,0,99.2,0,126.4V192h496v-65.6C496,99.2,474.4,80,448,80z"/>
<rect y="192" style="fill:#FCB933;" width="496" height="112"/>
<path style="fill:#1C4C29;" d="M446.4,416c26.4,0,49.6-19.2,49.6-46.4V304H315.2L446.4,416z"/>
<path style="fill:#BF4349;" d="M448,80H48l132.8,112H496v-65.6C496,99.2,474.4,80,448,80z"/>
<polygon style="fill:#EA9F1B;" points="316,304 496,304 496,192 180,192 "/>
<path style="fill:#A52D38;" d="M448,80H48l370.4,112H496v-65.6C496,99.2,474.4,80,448,80z"/>
<polygon style="fill:#DD8B07;" points="496,214.4 496,192 414.4,192 "/>
<path style="fill:#1C4C29;" d="M496,368.8c0,28.8-21.6,47.2-48,47.2H48c-26.4,0-48-20.8-48-48"/>
<polygon style="fill:#3A3A3A;" points="248,211.2 257.6,240 288,240 263.2,257.6 272.8,286.4 248,268 223.2,286.4 232.8,257.6   208,240 238.4,240 "/>
<polygon points="257.6,240 248,211.2 238.4,240 237.6,240 264.8,263.2 263.2,257.6 288,240 "/>
<g>
</g>
<g>
</g>
<g>
</g>
<g>
</g>
<g>
</g>
<g>
</g>
<g>
</g>
<g>
</g>
<g>
</g>
<g>
</g>
<g>
</g>
<g>
</g>
<g>
</g>
<g>
</g>
<g>
</g>
</svg>
