<?xml version="1.0" encoding="iso-8859-1"?>
<!-- Generator: Adobe Illustrator 19.0.0, SVG Export Plug-In . SVG Version: 6.00 Build 0)  -->
<svg xmlns="http://www.w3.org/2000/svg"  version="1.1" id="Layer_1" x="0px" y="0px" viewBox="0 0 496.021 496.021" style="enable-background:new 0 0 496.021 496.021;" xml:space="preserve">
<path style="fill:#2E2F30;" d="M0,304.01v65.6c0,27.2,21.6,46.4,48,46.4h400c26.4,0,48-19.2,48-46.4v-65.6H0z"/>
<path style="fill:#CC3434;" d="M448,80.01H48c-26.4,0-48,19.2-48,46.4v65.6h496v-65.6C496,99.21,474.4,80.01,448,80.01z"/>
<rect y="192.01" style="fill:#F5FEFF;" width="496" height="112"/>
<path d="M446.4,416.01c26.4,0,49.6-19.2,49.6-46.4v-65.6H315.2L446.4,416.01z"/>
<path style="fill:#BA2B2B;" d="M448,80.01H48l132.8,112H496v-65.6C496,99.21,474.4,80.01,448,80.01z"/>
<polygon style="fill:#D9E2E1;" points="316,304.01 496,304.01 496,192.01 180,192.01 "/>
<path style="fill:#A32323;" d="M448,80.01H48l370.4,112H496v-65.6C496,99.21,474.4,80.01,448,80.01z"/>
<polygon style="fill:#C9D3D1;" points="496,214.41 496,192.01 414.4,192.01 "/>
<path d="M496,368.81c0.8,28.8-21.6,47.2-48,47.2H48c-26.4,0-48-20.8-48-48"/>
<g>
	<path style="fill:#DB9C00;" d="M288,287.21c-0.8-11.2-0.8-22.4-1.6-33.6c0-4.8,0-9.6-0.8-14.4c-0.8-8,0-16-1.6-23.2   c-1.6-1.6-4-3.2-6.4-2.4c-6.4,0.8-12,7.2-18.4,6.4c-1.6-2.4-3.2-5.6-4-10.4c0-2.4,0-4,0-6.4c0-4-0.8-7.2-3.2-8.8   c-1.6-0.8-4.8-1.6-7.2-1.6c-0.8,0-1.6,0.8-2.4,1.6c-3.2-1.6-8-2.4-7.2,2.4c3.2-1.6,6.4,2.4,6.4,5.6c0.8,6.4-1.6,14.4-4.8,16.8   c-7.2,0-12-5.6-18.4-6.4c-5.6-0.8-7.2,3.2-7.2,8.8c0,4.8,0,10.4-0.8,15.2c0,4.8,0,9.6-0.8,14.4c0,2.4,0,5.6,0,8   c-0.8,4.8,0,11.2-0.8,16c0,4,0,8-0.8,11.2c2.4-0.8,6.4,0,9.6,0c0,0.8,0.8,0.8,0.8,2.4c-2.4,0.8-2.4,2.4-4.8,3.2   c1.6,0.8,1.6,4,3.2,4.8c0,1.6,0,2.4,0.8,2.4c1.6,0.8,6.4,1.6,8.8,2.4c14.4,1.6,36,1.6,49.6-0.8c3.2-0.8,4.8-0.8,4.8-4   c1.6-0.8,1.6-3.2,3.2-4.8c-1.6-0.8-2.4-1.6-3.2-2.4c-0.8-0.8-0.8,0-1.6-0.8c0-0.8,0-1.6,0.8-1.6   C281.6,287.21,285.6,286.41,288,287.21z M220.8,285.61c-0.8,0.8-1.6,0.8-2.4,1.6c-0.8-1.6,0.8-3.2,2.4-3.2   C220.8,284.01,220.8,284.81,220.8,285.61z M261.6,288.81c-3.2,0-6.4,0.8-9.6,0c-0.8-0.8-0.8-2.4,0-3.2c3.2,0,6.4,0,9.6,0   c4-0.8,8.8-1.6,12-2.4c0.8,0,0.8,1.6,0.8,2.4c-2.4,1.6-6.4,1.6-9.6,2.4C264.8,284.81,261.6,285.61,261.6,288.81z M264.8,288.81   c-0.8,0.8-0.8,0.8-1.6,1.6c-0.8-0.8-1.6-0.8-1.6-0.8C261.6,286.41,264.8,285.61,264.8,288.81z M242.4,260.81   c0.8,0.8,1.6,1.6,2.4,1.6c0,1.6-0.8,3.2-0.8,4.8C243.2,265.61,240,262.41,242.4,260.81z M238.4,264.81c-0.8-3.2-0.8-6.4-0.8-9.6   c1.6,1.6,3.2,3.2,4.8,4.8C241.6,261.61,240,263.21,238.4,264.81z M244.8,283.21c0.8-4,0.8-8.8,1.6-12.8c0.8,3.2-0.8,8.8-0.8,12   c0,1.6,1.6,1.6,1.6,3.2c0.8-0.8,1.6-1.6,2.4-2.4c0-4-0.8-8.8-0.8-12.8c0.8,4,1.6,8,1.6,12c0.8,0.8,1.6,0.8,1.6,1.6   c0.8,0,0.8-0.8,1.6-0.8c0.8,0.8,0,1.6,0.8,2.4c-0.8,0-2.4,0-3.2,0c-0.8,0-0.8,0.8-1.6,0.8c-1.6,0-3.2,0-4.8,0   c-0.8-1.6-3.2-0.8-4.8-0.8c0-0.8,0-1.6,0.8-1.6c0-0.8,0.8,0.8,1.6,0.8C243.2,284.01,244,284.01,244.8,283.21z M257.6,264.81   c-1.6-0.8-2.4-3.2-4-4.8c1.6-1.6,3.2-3.2,4.8-4.8l0,0C258.4,258.41,257.6,261.61,257.6,264.81z M260.8,250.41   C260.8,250.41,260.8,251.21,260.8,250.41c0.8,4,4,8,1.6,12c-1.6-0.8-2.4-3.2-4-4C258.4,255.21,259.2,252.81,260.8,250.41z    M254.4,262.41c-0.8,1.6-1.6,4-2.4,5.6c-0.8-1.6-0.8-3.2-1.6-4.8c0.8-0.8,1.6-0.8,2.4-2.4C253.6,260.81,254.4,261.61,254.4,262.41z    M246.4,291.21c-0.8,0-1.6-0.8-2.4-1.6c0-0.8,0.8-0.8,0.8-2.4C246.4,287.21,247.2,289.61,246.4,291.21z M246.4,287.21   c0.8,0,2.4,0,3.2,0c-0.8,0.8-0.8,2.4-2.4,1.6C247.2,288.01,246.4,288.01,246.4,287.21z M250.4,287.21c0.8,0,0.8,1.6,1.6,2.4   c0,0.8-1.6,0.8-1.6,1.6C248.8,290.41,249.6,288.01,250.4,287.21z M260,283.21c0.8,0,1.6,1.6,1.6,2.4c-0.8,0-1.6,0-2.4,0   C259.2,284.81,260,284.01,260,283.21z M264,284.81c0-1.6,0.8-2.4,1.6-3.2c0.8,0.8,1.6,1.6,1.6,2.4   C266.4,284.01,264.8,284.81,264,284.81z M268,284.01c-0.8-0.8-1.6-2.4-3.2-4c-0.8,1.6-1.6,3.2-1.6,4.8h-0.8   c-0.8-0.8-1.6-2.4-1.6-3.2c-0.8,0.8-0.8,2.4-1.6,4c-0.8,0-1.6,0-2.4,0c-1.6-2.4-0.8-5.6,0-8.8c1.6,0.8,2.4,2.4,3.2,4   c0.8-1.6,0.8-3.2,1.6-4.8c1.6,0.8,2.4,2.4,3.2,4c0.8-1.6,1.6-4,2.4-5.6c0,0,0,0,0.8,0c0.8,3.2,1.6,6.4,2.4,9.6   C269.6,284.01,268.8,284.01,268,284.01z M264.8,278.41c-1.6-0.8-1.6-2.4-3.2-4c-0.8,1.6-0.8,3.2-1.6,4.8c-1.6-0.8-2.4-3.2-4-4   c-0.8,1.6-0.8,3.2-0.8,4.8c-0.8-2.4-1.6-5.6-2.4-8.8c0.8,0,2.4,2.4,3.2,3.2c0.8-2.4,0.8-4.8,1.6-6.4c1.6,0.8,1.6,2.4,2.4,3.2   c0.8-1.6,1.6-3.2,2.4-4.8c1.6,0.8,2.4,2.4,4,3.2C268,273.61,265.6,276.01,264.8,278.41z M262.4,266.41c-0.8,1.6-0.8,2.4-1.6,4   c-1.6-0.8-1.6-2.4-2.4-3.2c-0.8,1.6-1.6,4.8-1.6,7.2c-1.6-1.6-4-2.4-4-4.8c0-0.8,0.8-2.4,0.8-3.2c0.8-0.8,0.8-1.6,1.6-3.2   c0.8,0.8,1.6,2.4,3.2,3.2c0-2.4,0-4.8,0.8-7.2c1.6,0.8,2.4,2.4,4,4c0.8-0.8,0.8-1.6,0.8-2.4c1.6,2.4,2.4,6.4,2.4,8.8   C264.8,268.81,264,267.21,262.4,266.41z M264,254.41c0-4.8-0.8-9.6,0-13.6c0,0,0,0,0.8,0c0,8,0.8,16,0.8,24   C264,261.61,264,257.61,264,254.41z M248,264.01c-10.4-6.4-16.8-17.6-16.8-34.4c7.2,0,12.8-1.6,16.8-4.8c1.6,0.8,3.2,1.6,4.8,2.4   c3.2,1.6,7.2,2.4,12,2.4C264.8,246.41,258.4,257.61,248,264.01z M237.6,258.41c-0.8,1.6-2.4,3.2-4,4c-3.2-3.2,0.8-8,0.8-12   C236.8,252.01,237.6,255.21,237.6,258.41z M231.2,240.81L231.2,240.81c1.6,1.6,0.8,5.6,0.8,8.8c0,5.6,0,10.4-1.6,14.4   C230.4,256.81,231.2,248.01,231.2,240.81z M232.8,260.81c0,0.8,0.8,1.6,0.8,2.4c1.6-1.6,2.4-2.4,4-4c0.8,1.6,0.8,4.8,0.8,7.2   c0.8-0.8,1.6-2.4,3.2-3.2c0.8,2.4,1.6,4,2.4,6.4c-0.8,2.4-2.4,3.2-4,4.8c-0.8-2.4-1.6-4.8-2.4-7.2c-1.6,0.8-0.8,3.2-2.4,3.2   c-0.8-1.6-0.8-2.4-1.6-4c-1.6,0.8-2.4,2.4-4,3.2c0-0.8,0.8-1.6,0.8-2.4C231.2,264.81,231.2,262.41,232.8,260.81z M232.8,267.21   c0.8,0.8,1.6,3.2,2.4,4.8c0.8-0.8,0.8-2.4,2.4-3.2c0.8,2.4,1.6,4.8,2.4,6.4c0.8-0.8,2.4-2.4,3.2-3.2c-0.8,2.4-1.6,5.6-1.6,8   c-0.8-0.8-0.8-3.2-0.8-4.8c-1.6,0.8-2.4,3.2-4,4c-0.8-1.6-1.6-3.2-1.6-4.8c-1.6,0.8-1.6,2.4-3.2,4c-0.8-2.4-3.2-4.8-2.4-8   C231.2,269.61,232,268.01,232.8,267.21z M231.2,279.21c0.8-1.6,1.6-2.4,3.2-4c0.8,1.6,1.6,3.2,1.6,4.8c1.6-0.8,2.4-3.2,3.2-4   c0.8,2.4,1.6,6.4,0,8.8c-0.8,0-1.6,0-2.4,0c-0.8-0.8-0.8-2.4-1.6-4c-0.8,0.8-1.6,2.4-2.4,3.2H232c-0.8-1.6-1.6-3.2-1.6-4.8   c-0.8,0.8-1.6,2.4-2.4,3.2c-0.8,0-1.6,0-2.4-0.8c0.8-3.2,1.6-6.4,3.2-10.4C229.6,274.41,230.4,277.61,231.2,279.21z M236.8,285.61   c-0.8,0-1.6,0-2.4,0c0-0.8,0.8-1.6,0.8-2.4C236,283.21,236,284.81,236.8,285.61z M232,284.81c-1.6,0-2.4-0.8-3.2-0.8   c0-1.6,1.6-1.6,1.6-3.2C231.2,282.41,232,283.21,232,284.81z M232,285.61c4.8,0.8,8,0.8,12,0.8c0.8,0.8,0,1.6,0,3.2   c-3.2,0.8-6.4,0-9.6,0c0-3.2-2.4-4-2.4-0.8c-3.2-0.8-8-0.8-8-2.4c0-0.8,0-1.6,0-2.4s-0.8-0.8,0.8-0.8   C227.2,284.01,228.8,284.81,232,285.61z M233.6,288.81c-0.8,0-0.8,0.8-0.8,0.8c-1.6,0-1.6-4,0.8-3.2   C233.6,287.21,233.6,288.01,233.6,288.81z M275.2,284.01c1.6,0,2.4,1.6,2.4,3.2c-0.8,0-1.6-0.8-2.4-0.8   C275.2,285.61,275.2,284.01,275.2,284.01z M270.4,283.21c-1.6-5.6-3.2-10.4-4.8-16c1.6,0.8,2.4,2.4,3.2,3.2c0-13.6-1.6-28-1.6-42.4   c-1.6,0.8-3.2,1.6-6.4,1.6c-5.6,0-10.4-2.4-13.6-4.8c-2.4,1.6-6.4,4-10.4,4.8s-7.2,0.8-9.6-1.6c-0.8,14.4-1.6,28-1.6,42.4   c1.6-0.8,2.4-2.4,4-3.2c-1.6,5.6-3.2,12-4.8,16.8c-3.2-0.8-7.2-3.2-8,2.4c-2.4,0-4,0-6.4,0c0.8,0,0.8-1.6,2.4-3.2   c0.8-21.6,1.6-42.4,2.4-64.8c-1.6,0-3.2,0.8-4,1.6c0-3.2,1.6-6.4,4.8-6.4c7.2-0.8,12.8,6.4,20,6.4c0,0.8-0.8,0.8-1.6,1.6   c1.6,0,4,0,4.8-0.8c0,0.8-0.8,1.6-1.6,2.4c3.2,0,5.6-1.6,6.4-3.2c0.8,0.8,1.6,1.6,2.4,2.4c0.8-0.8,1.6-1.6,2.4-2.4   c1.6,1.6,4,3.2,7.2,3.2c0-0.8-1.6-1.6-1.6-2.4c1.6,0.8,4,0.8,4.8,0.8c0-0.8-1.6-0.8-1.6-1.6c8,0,12-7.2,20-6.4   c3.2,0,4.8,2.4,4.8,6.4c-1.6-0.8-2.4-1.6-4-1.6c0.8,17.6,1.6,39.2,2.4,56.8c0,2.4-0.8,5.6,0,7.2s3.2,2.4,4,4c-2.4,0-5.6,0-8,0   C278.4,283.21,274.4,282.41,270.4,283.21z"/>
	<g>
		<path style="fill:#996A00;" d="M261.6,229.61c-5.6,0-10.4-2.4-13.6-4.8c-2.4,1.6-6.4,4-10.4,4.8s-7.2,0.8-9.6-1.6    c0,0.8,0,1.6,0,3.2l4,3.2c0-1.6,0-2.4,0-4c7.2,0,12.8-1.6,16.8-4.8c1.6,0.8,3.2,1.6,4.8,2.4c3.2,1.6,7.2,2.4,12,2.4    c0,10.4-3.2,19.2-8,25.6h0.8l0.8-0.8l0,0c0,0.8,0,0.8,0,1.6l0,0c0-2.4,0.8-4.8,2.4-6.4c0,0,0,0,0.8,0c0,3.2,2.4,7.2,1.6,10.4l0,0    c0,0,0,0,0-0.8v0.8l0.8,0.8c-0.8-1.6-0.8-4.8-0.8-7.2c0-4.8-0.8-9.6,0-13.6c0,0,0,0,0.8,0c0,7.2,0.8,15.2,0.8,22.4l4,3.2    c0-12.8-0.8-25.6-1.6-38.4C266.4,228.81,264.8,229.61,261.6,229.61z"/>
		<path style="fill:#996A00;" d="M286.4,253.61c0-4.8,0-9.6-0.8-14.4c-0.8-8,0-16-1.6-23.2c-1.6-1.6-4-3.2-6.4-2.4    c-6.4,0.8-12,7.2-18.4,6.4c-1.6-2.4-3.2-5.6-4-10.4c0-2.4,0-4,0-6.4c0-4-0.8-7.2-3.2-8.8c-1.6-0.8-4.8-1.6-7.2-1.6    c-0.8,0-1.6,0.8-2.4,1.6c-3.2-1.6-8-2.4-7.2,2.4c3.2-1.6,6.4,2.4,6.4,5.6c0.8,6.4-1.6,14.4-4.8,16.8c-7.2,0-12-5.6-18.4-6.4    c-4,0-5.6,1.6-6.4,4l0,0c0.8-1.6,2.4-3.2,4.8-3.2c7.2-0.8,12.8,6.4,20,6.4c0,0.8-0.8,0.8-1.6,1.6c1.6,0,4,0,4.8-0.8    c0,0.8-0.8,1.6-1.6,2.4c3.2,0,5.6-1.6,6.4-3.2c0.8,0.8,1.6,1.6,2.4,2.4c0.8-0.8,1.6-1.6,2.4-2.4c1.6,1.6,4,3.2,7.2,3.2    c0-0.8-1.6-1.6-1.6-2.4c1.6,0.8,4,0.8,4.8,0.8c0-0.8-1.6-0.8-1.6-1.6c8,0,12-7.2,20-6.4c3.2,0,4.8,2.4,4.8,6.4    c-1.6-0.8-2.4-1.6-4-1.6c0.8,17.6,1.6,39.2,2.4,56.8c0,0.8,0,1.6,0,2.4l4.8,4C287.2,272.01,287.2,263.21,286.4,253.61z"/>
		<path style="fill:#996A00;" d="M216,220.81c0-0.8,0-1.6,0-2.4c-0.8,0-1.6,0-2.4,0.8L216,220.81z"/>
	</g>
	<path style="fill:#DB9C00;" d="M216.8,219.21c-0.8,20.8-1.6,41.6-2.4,61.6c1.6-0.8,3.2-3.2,4.8-4c0.8-19.2,1.6-35.2,2.4-53.6   C220,221.61,218.4,220.01,216.8,219.21z"/>
	<path style="fill:#996A00;" d="M216.8,221.61l4.8,4c0-0.8,0-1.6,0-2.4c-1.6-1.6-3.2-3.2-4.8-4   C216.8,220.01,216.8,220.81,216.8,221.61z"/>
	<path style="fill:#DB9C00;" d="M279.2,219.21c-0.8,1.6-4,2.4-4.8,4c0,1.6,0,5.6,0,7.2c1.6,14.4,0.8,30.4,1.6,45.6   c0.8,0.8,1.6,1.6,2.4,2.4s1.6,2.4,2.4,1.6C280.8,260.81,280,237.61,279.2,219.21z"/>
	<path style="fill:#996A00;" d="M279.2,219.21c-0.8,1.6-4,2.4-4.8,4c0,1.6,0,5.6,0,7.2c0.8,12.8,0.8,27.2,1.6,41.6l4.8,4   C280.8,257.61,280,236.81,279.2,219.21z"/>
	<path style="fill:#DB9C00;" d="M220.8,275.21c0.8-1.6,3.2-2.4,4-4s0-4,0-6.4c0.8-12,1.6-26.4,1.6-37.6c-1.6-0.8-2.4-2.4-4-3.2   C222.4,240.81,221.6,258.41,220.8,275.21z"/>
	<path style="fill:#996A00;" d="M222.4,226.41l4,3.2c0-0.8,0-1.6,0-2.4c-1.6-0.8-2.4-2.4-4-3.2   C223.2,224.81,222.4,225.61,222.4,226.41z"/>
	<path style="fill:#DB9C00;" d="M269.6,227.21c0.8,14.4,0.8,29.6,1.6,44c0.8,0.8,2.4,2.4,3.2,3.2l0.8,0.8   c-0.8-16.8-1.6-35.2-2.4-50.4C272,225.61,270.4,226.41,269.6,227.21z"/>
	<path style="fill:#996A00;" d="M272.8,224.01c-0.8,0.8-2.4,1.6-3.2,3.2c0.8,13.6,0.8,27.2,1.6,40.8l4,3.2   C274.4,255.21,273.6,238.41,272.8,224.01z"/>
	<path style="fill:#DB9C00;" d="M232,230.41c0.8,15.2,6.4,25.6,16,32c9.6-6.4,15.2-16.8,15.2-32c-6.4,0-12-1.6-15.2-4.8   C244.8,228.81,238.4,230.41,232,230.41z"/>
	<path style="fill:#996A00;" d="M232,230.41c0,1.6,0.8,2.4,0.8,4l23.2,20c4.8-6.4,7.2-14.4,7.2-24c-6.4,0-12-1.6-15.2-4.8   C244.8,228.81,238.4,230.41,232,230.41z"/>
	<g>
		<path style="fill:#DB9C00;" d="M222.4,284.81c0.8,0,1.6,0.8,2.4,0.8C224.8,284.01,223.2,284.01,222.4,284.81    C222.4,284.01,222.4,284.81,222.4,284.81z"/>
		<path style="fill:#DB9C00;" d="M271.2,285.61c0.8,0,1.6-0.8,2.4-0.8C273.6,284.01,271.2,284.01,271.2,285.61z"/>
		<path style="fill:#DB9C00;" d="M229.6,286.41c-0.8-0.8-1.6-0.8-3.2-0.8C227.2,286.41,228.8,286.41,229.6,286.41z"/>
		<path style="fill:#DB9C00;" d="M266.4,286.41c0.8,0,3.2,0,3.2-0.8C268,285.61,266.4,286.41,266.4,286.41z"/>
		<path style="fill:#DB9C00;" d="M257.6,288.01c0.8,0,2.4,0,3.2,0C260.8,286.41,258.4,286.41,257.6,288.01z"/>
		<path style="fill:#DB9C00;" d="M238.4,287.21c-0.8,0-3.2-0.8-3.2,0.8C236,287.21,238.4,288.01,238.4,287.21z"/>
		<path style="fill:#DB9C00;" d="M243.2,287.21c-0.8,0-3.2,0-3.2,0.8C240.8,288.01,242.4,288.01,243.2,287.21z"/>
		<path style="fill:#DB9C00;" d="M252.8,288.01c0.8,0,1.6,0,3.2,0.8C256,287.21,253.6,287.21,252.8,288.01z"/>
	</g>
	<g>
		<path style="fill:#F5FEFF;" d="M276.8,293.61c-2.4,0-1.6-4-3.2-4.8c-0.8,0-1.6,0-2.4,0.8c2.4-1.6,3.2,2.4,3.2,4.8    c-0.8,0-0.8-0.8-1.6-0.8c-1.6,0-1.6,1.6-3.2,1.6c0-0.8-0.8-0.8-2.4-0.8c-0.8-0.8,0-2.4-0.8-2.4c0,0.8,0.8,1.6,0.8,2.4    c-0.8,0.8-0.8,0.8-0.8,1.6c0,0-0.8,0-1.6,0c0-0.8,0-1.6-0.8-1.6c0,0.8-1.6,0.8-0.8,1.6c0,0,0.8,0,1.6,0.8c0,0.8-0.8,0.8-0.8,1.6    c0.8,0,0.8-0.8,1.6-1.6c1.6,0,3.2-0.8,4,0c0.8,0,0.8-1.6,1.6-1.6c1.6,1.6,3.2-0.8,4-0.8s1.6,0,2.4,0v-0.8    C276.8,292.81,277.6,293.61,276.8,293.61z M263.2,296.01c0-0.8,0-0.8,0.8-0.8c0,0.8,0,0.8,0,0.8S264,296.81,263.2,296.01z     M267.2,296.01c0-0.8,0-0.8,0-1.6C268,294.41,268,295.21,267.2,296.01L267.2,296.01z M269.6,295.21h-0.8    C267.2,294.41,269.6,293.61,269.6,295.21z M268.8,296.01c0-0.8,0.8-0.8,0.8-0.8C269.6,296.01,268.8,296.81,268.8,296.01z     M271.2,295.21c0-1.6,1.6-1.6,2.4-0.8C273.6,295.21,272,295.21,271.2,295.21z"/>
		<path style="fill:#F5FEFF;" d="M223.2,290.41C223.2,289.61,223.2,289.61,223.2,290.41c-0.8-0.8-0.8-0.8-1.6-0.8c0,0.8,0,0,0,0.8    C222.4,290.41,222.4,290.41,223.2,290.41z"/>
		<path style="fill:#F5FEFF;" d="M222.4,291.21c0,0-0.8,0-1.6,0C221.6,292.01,221.6,292.01,222.4,291.21L222.4,291.21z"/>
		<path style="fill:#F5FEFF;" d="M254.4,293.61v-0.8c0,0,0,0-0.8,0C253.6,292.81,253.6,293.61,254.4,293.61    C253.6,293.61,254.4,293.61,254.4,293.61z"/>
		<path style="fill:#F5FEFF;" d="M236,298.41c-0.8-0.8-0.8-1.6-1.6-2.4c1.6-0.8,0.8-3.2,0-3.2s-0.8,0.8-1.6,0.8    c0,0.8,0.8,0.8,0.8,1.6c-0.8,0-2.4,0.8-3.2,0c0-0.8,0-1.6-0.8-1.6c0,0.8,0.8,2.4-0.8,3.2c0.8,0,0.8-0.8,1.6-0.8    c0.8,0.8,2.4,0,3.2,0C235.2,296.81,235.2,299.21,236,298.41c1.6,0,1.6-4,0.8-5.6C236.8,294.41,238.4,298.41,236,298.41z     M232.8,295.21c0-2.4,3.2,0,0.8,0.8L232.8,295.21z"/>
		<path style="fill:#F5FEFF;" d="M239.2,297.61c0-1.6,0.8-4,0-4.8C239.2,293.61,238.4,296.01,239.2,297.61z"/>
		<path style="fill:#F5FEFF;" d="M258.4,294.41c-0.8,0.8,0.8,0.8,0,1.6c0,0.8-0.8,0.8-1.6,0.8c-1.6-0.8,0-4-0.8-4.8    c0,0.8,0.8,2.4,0,4c-0.8,0-1.6,0-1.6,0.8c1.6,0,3.2,0,4.8,0C259.2,296.81,260,294.41,258.4,294.41z"/>
		<path style="fill:#F5FEFF;" d="M255.2,294.41c0-0.8-0.8,0-0.8,0C252.8,294.41,255.2,295.21,255.2,294.41z"/>
		<path style="fill:#F5FEFF;" d="M260.8,294.41c-0.8,0.8,0.8,1.6,0.8,2.4s-0.8,0.8-0.8,1.6C261.6,298.41,262.4,295.21,260.8,294.41z     M261.6,296.81c-0.8,0-0.8-0.8-0.8-0.8C260.8,295.21,261.6,296.01,261.6,296.81z"/>
		<path style="fill:#F5FEFF;" d="M275.2,295.21c0.8,0,1.6,0.8,1.6,0C276,295.21,275.2,294.41,275.2,295.21z"/>
		<path style="fill:#F5FEFF;" d="M250.4,297.61h-0.8c0-0.8,0-1.6-0.8-1.6c-1.6,0.8-4,0-5.6-0.8c0,0.8,0.8,1.6-0.8,2.4    c-0.8,0-0.8-1.6-1.6-1.6c-0.8,0.8,0.8,1.6,0.8,1.6c0,0.8-0.8,1.6-1.6,2.4c0.8,0,1.6-1.6,2.4-2.4c2.4,0,2.4,0,4.8,0    c0,0.8,0.8,0.8,1.6,1.6c0.8,0,0.8-1.6,0.8-1.6c1.6,0,2.4,0,3.2-0.8C252.8,295.21,250.4,296.01,250.4,297.61z M248,299.21    c-0.8,0-0.8-0.8-0.8-1.6c-0.8,0-2.4,0-3.2,0c0-3.2,3.2,0,4.8-1.6C249.6,297.61,248.8,298.41,248,299.21z M251.2,297.61    c-0.8-0.8,0.8-1.6,0.8-0.8C252,297.61,252,297.61,251.2,297.61z"/>
		<path style="fill:#F5FEFF;" d="M222.4,297.61v-0.8c0,0,0-0.8-0.8,0C221.6,296.01,221.6,296.81,222.4,297.61z"/>
		<path style="fill:#F5FEFF;" d="M223.2,297.61c0.8,0.8,1.6,0,1.6-0.8C224,296.01,223.2,296.81,223.2,297.61z"/>
		<path style="fill:#F5FEFF;" d="M225.6,297.61h0.8l0,0C226.4,296.01,224.8,296.81,225.6,297.61z"/>
		<path style="fill:#F5FEFF;" d="M256,298.41c-0.8,0-0.8,1.6,0,1.6V298.41z"/>
		<path style="fill:#F5FEFF;" d="M256.8,299.21c0,0.8,0.8,0.8,0.8,0.8C259.2,299.21,256.8,297.61,256.8,299.21z"/>
		<path style="fill:#F5FEFF;" d="M228,293.61c1.6,2.4-1.6,3.2-2.4,1.6c0-0.8,0.8-0.8,0.8-1.6c-0.8,0-0.8,1.6-0.8,1.6    c-3.2,0-0.8-4-0.8-5.6c0,0,0,0-0.8,0c0,1.6-0.8,3.2-2.4,4c0,1.6,1.6,1.6,3.2,2.4c0.8,0.8,2.4,0.8,3.2,0.8    C228,295.21,229.6,293.61,228,293.61z"/>
	</g>
</g>
<g>
</g>
<g>
</g>
<g>
</g>
<g>
</g>
<g>
</g>
<g>
</g>
<g>
</g>
<g>
</g>
<g>
</g>
<g>
</g>
<g>
</g>
<g>
</g>
<g>
</g>
<g>
</g>
<g>
</g>
</svg>
