<?xml version="1.0" encoding="iso-8859-1"?>
<!-- Generator: Adobe Illustrator 19.0.0, SVG Export Plug-In . SVG Version: 6.00 Build 0)  -->
<svg xmlns="http://www.w3.org/2000/svg"  version="1.1" id="Layer_1" x="0px" y="0px" viewBox="0 0 496.8 496.8" style="enable-background:new 0 0 496.8 496.8;" xml:space="preserve">
<path style="fill:#FFFFFF;" d="M496,370.4c0,27.2-21.6,48.8-48,48.8H48c-26.4,0-48-21.6-48-48.8V127.2C0,100,21.6,78.4,48,78.4h400  c26.4,0,48,21.6,48,48.8V370.4z"/>
<path style="fill:#E9F3F4;" d="M48,78.4h400c26.4,0,48,21.6,48,48.8v243.2c0,27.2-21.6,48.8-48,48.8"/>
<path style="fill:#D9ECED;" d="M48,78.4h400c26.4,0,48,21.6,48,48.8V216"/>
<path style="fill:#E73B36;" d="M0,127.2v20h496v-20c0-24.8-18.4-44.8-41.6-48H41.6C18.4,81.6,0,102.4,0,127.2z"/>
<path style="fill:#C91717;" d="M495.2,118.4C495.2,118.4,495.2,117.6,495.2,118.4c-0.8-3.2-1.6-5.6-2.4-8.8v-0.8  c-0.8-2.4-2.4-4.8-3.2-7.2c0,0,0-0.8-0.8-0.8c-1.6-2.4-3.2-4-4.8-6.4c0,0,0,0-0.8-0.8c-1.6-2.4-4-4-5.6-5.6l0,0  c-6.4-5.6-14.4-8.8-23.2-10.4H48l80.8,68.8H496v-20C496,124,496,121.6,495.2,118.4z"/>
<path style="fill:#A80B0B;" d="M496,122.4c0-1.6,0-2.4-0.8-4v-0.8c-0.8-2.4-1.6-4.8-2.4-8v-0.8l0,0c-0.8-2.4-2.4-4.8-3.2-7.2  c0,0,0-0.8-0.8-0.8c-1.6-2.4-3.2-4-4.8-6.4c0,0,0,0-0.8-0.8c-1.6-2.4-4-4-5.6-5.6l0,0l0,0c-1.6-1.6-3.2-2.4-4.8-3.2c0,0,0,0-0.8,0  c-5.6-3.2-11.2-5.6-17.6-6.4H49.6l224,68.8H496v-20C496,125.6,496,124,496,122.4z"/>
<rect y="214.4" style="fill:#E73B36;" width="496" height="68.8"/>
<polygon style="fill:#C91717;" points="288,283.2 496,283.2 496,214.4 208,214.4 "/>
<path style="fill:#E73B36;" d="M0,350.4v20c0,24.8,18.4,44.8,41.6,48h412.8c23.2-3.2,41.6-23.2,41.6-48v-20H0z"/>
<path style="fill:#C91717;" d="M448,419.2h7.2c8.8-0.8,16.8-4.8,23.2-10.4l0,0c2.4-1.6,4-4,5.6-5.6c0,0,0,0,0.8-0.8  c1.6-1.6,3.2-4,4.8-6.4c0,0,0-0.8,0.8-0.8c1.6-2.4,2.4-4.8,3.2-7.2v-0.8c0.8-2.4,1.6-4.8,2.4-8v-0.8c0.8-2.4,0.8-5.6,0.8-8.8v-20  H367.2L448,419.2z"/>
<path style="fill:#A80B0B;" d="M496,370.4c0,27.2-21.6,48.8-48,48.8H48c-26.4,0-48-21.6-48-48.8"/>
<path style="fill:#2A7CBB;" d="M0,124c0,0.8,0,2.4,0,3.2v243.2c0,0.8,0,2.4,0,3.2l182.4-124.8L0,124z"/>
<path style="fill:#0B6CA8;" d="M0,216.8c0,0.8,0,26.4,0,27.2v127.2c0,0.8,0,2.4,0,3.2l182.4-125.6L0,216.8z"/>
<polygon style="fill:#FFFFFF;" points="70.4,213.6 79.2,240.8 107.2,240.8 84,256.8 92.8,284 70.4,267.2 47.2,284 56,256.8   32.8,240.8 61.6,240.8 "/>
<g>
</g>
<g>
</g>
<g>
</g>
<g>
</g>
<g>
</g>
<g>
</g>
<g>
</g>
<g>
</g>
<g>
</g>
<g>
</g>
<g>
</g>
<g>
</g>
<g>
</g>
<g>
</g>
<g>
</g>
</svg>
