<?xml version="1.0" encoding="iso-8859-1"?>
<!-- Generator: Adobe Illustrator 19.0.0, SVG Export Plug-In . SVG Version: 6.00 Build 0)  -->
<svg xmlns="http://www.w3.org/2000/svg"  version="1.1" id="Layer_1" x="0px" y="0px" viewBox="0 0 496 496" style="enable-background:new 0 0 496 496;" xml:space="preserve">
<path style="fill:#171796;" d="M0,304.8v64.8c0,27.2,21.6,48.8,48,48.8h400c26.4,0,48-21.6,48-48.8v-64.8H0z"/>
<path style="fill:#FF0000;" d="M448,77.6H48c-26.4,0-48,21.6-48,48.8v64.8h496v-64.8C496,99.2,474.4,77.6,448,77.6z"/>
<rect y="189.6" style="fill:#FFFFFF;" width="496" height="116"/>
<path style="fill:#0B0B7A;" d="M448,418.4c26.4,0,48-21.6,48-48.8v-64.8H315.2L448,418.4z"/>
<path style="fill:#E20303;" d="M448,77.6H48l132.8,113.6H496v-64.8C496,99.2,474.4,77.6,448,77.6z"/>
<polygon style="fill:#D9E6ED;" points="316,306.4 496,306.4 496,189.6 180,189.6 "/>
<path style="fill:#D30000;" d="M448,77.6H48l370.4,113.6H496v-64.8C496,99.2,474.4,77.6,448,77.6z"/>
<polygon style="fill:#C6DAE5;" points="496,214.4 496,189.6 414.4,189.6 "/>
<path style="fill:#070751;" d="M496,369.6c0,27.2-21.6,48.8-48,48.8H48c-26.4,0-48-21.6-48-48.8"/>
<path style="fill:#0093DD;" d="M312,186.4l15.2-33.6L316,135.2l-20,7.2l-8.8,36C296,180,304,182.4,312,186.4L312,186.4z"/>
<path style="fill:#0068B5;" d="M287.2,177.6c8.8,2.4,16.8,4.8,24.8,8.8l0,0l15.2-33.6L316,135.2"/>
<path style="fill:#FF0000;" d="M316.8,175.2l4-8.8c-8.8-4-18.4-7.2-28-9.6l-2.4,8.8C299.2,168,308,171.2,316.8,175.2L316.8,175.2z"/>
<path style="fill:#CE0202;" d="M294.4,167.2c8,2.4,15.2,4.8,22.4,8l4-8.8c-7.2-3.2-13.6-5.6-20.8-8L294.4,167.2z"/>
<path style="fill:#2727C1;" d="M232,136L232,136l-18.4-10.4l-13.6,16l8.8,36c8.8-2.4,16.8-4,26.4-4L232,136L232,136z"/>
<path style="fill:#171796;" d="M208.8,177.6c8.8-2.4,16.8-4,26.4-4L232,136l0,0l0,0l-18.4-10.4"/>
<path style="fill:#2727C1;" d="M296.8,141.6L296.8,141.6l-13.6-16L264,136l-3.2,36.8c8.8,0.8,17.6,2.4,26.4,4L296.8,141.6  L296.8,141.6z"/>
<path style="fill:#171796;" d="M261.6,172.8c8.8,0.8,17.6,2.4,26.4,4l8.8-36l0,0l0,0l-13.6-16"/>
<path style="fill:#0093DD;" d="M200,141.6L200,141.6l-20-7.2L168.8,152l4,9.6l10.4,24c8-3.2,16-6.4,24.8-8.8L200,141.6L200,141.6z"/>
<path style="fill:#0068B5;" d="M208.8,177.6l-8.8-36l0,0l0,0l-20-7.2L168.8,152"/>
<path style="fill:#FFFFFF;" d="M181.6,189.6v79.2c0,36,29.6,66.4,66.4,66.4c36,0,66.4-29.6,66.4-66.4v-79.2L181.6,189.6L181.6,189.6  z"/>
<path style="fill:#CADDDC;" d="M248,335.2c36,0,66.4-29.6,66.4-66.4v-79.2h-67.2"/>
<g>
	<polygon style="fill:#FF0000;" points="209.6,192 184.8,192 184.8,220 209.6,220  "/>
	<polygon style="fill:#FF0000;" points="209.6,248 235.2,248 235.2,220 209.6,220  "/>
	<path style="fill:#FF0000;" d="M184.8,268.8c0,2.4,0,4.8,0.8,7.2h24.8v-28h-25.6V268.8z"/>
	<polygon style="fill:#FF0000;" points="260.8,248 235.2,248 235.2,276 260.8,276  "/>
</g>
<g>
	<polyline style="fill:#B70000;" points="260.8,276 260.8,248 235.2,248  "/>
	<polygon style="fill:#B70000;" points="260.8,304 286.4,304 286.4,276 260.8,276  "/>
	<path style="fill:#B70000;" d="M286.4,319.2c5.6-4,10.4-9.6,14.4-15.2h-14.4V319.2z"/>
</g>
<g>
	<polygon style="fill:#FF0000;" points="209.6,304 235.2,304 235.2,276 209.6,276  "/>
	<path style="fill:#FF0000;" d="M195.2,304c4,5.6,8.8,11.2,14.4,15.2V304H195.2z"/>
	<path style="fill:#FF0000;" d="M252.8,332c3.2,0,5.6-0.8,8-0.8V304h-25.6v27.2c2.4,0.8,5.6,0.8,8,0.8   C246.4,332,249.6,332,252.8,332L252.8,332z"/>
</g>
<g>
	<path style="fill:#B70000;" d="M252.8,332L252.8,332c3.2,0,5.6-0.8,8-0.8V304h-25.6"/>
	<path style="fill:#B70000;" d="M311.2,276c0-2.4,0.8-4.8,0.8-7.2V248h-25.6v28H311.2L311.2,276z"/>
	<polygon style="fill:#B70000;" points="260.8,248 286.4,248 286.4,220 260.8,220  "/>
</g>
<polygon style="fill:#FF0000;" points="260.8,192 235.2,192 235.2,220 260.8,220 "/>
<g>
	<polyline style="fill:#B70000;" points="260.8,220 260.8,192 235.2,192  "/>
	<polygon style="fill:#B70000;" points="311.2,220 311.2,192 286.4,192 286.4,220  "/>
</g>
<path style="fill:#FFFFFF;" d="M200,164L200,164L200,164L200,164L200,164L200,164L200,164v-0.8l0,0l0,0l0,0l0,0l0,0l0,0l0,0l0,0l0,0  l0,0l0,0l0,0l0,0l0,0l0,0l0,0l0,0l0,0l0,0l0,0l0,0l0,0l0,0l0,0l0,0l0,0l0,0l0,0l0,0l0,0l0,0l0,0l0,0l0,0l0,0l0,0l0,0v-0.8v0.8l0,0  l0,0l0,0l0,0l0,0l0,0l0,0l0,0l0,0l0,0l0,0l0,0l0,0l0,0l0,0l0,0l0,0l0,0l0,0l0,0l0,0l0,0l0,0l0,0l0,0l0,0l0,0l0,0l0,0l0,0l0,0l0,0  l0,0l0,0l0,0l0,0l0,0l0,0V164v0.8v0.8v0.8v0.8v0.8v0.8v0.8v0.8v0.8v0.8l0,0l0,0l0,0l0,0l0,0l0,0l0,0l0,0l0,0l0,0h-0.8h-0.8h-0.8  h-0.8H196h-0.8h-0.8h-0.8h-0.8H192h-0.8l0,0l0,0l0,0l0,0l0,0l0,0l0,0l0,0l0,0l0,0l0,0l0,0l0,0l0,0l0,0l0,0l0,0l0,0l0,0l0,0l0,0l0,0  l0,0l0,0l0,0l0,0l0,0l0,0l0,0l0,0l0,0l0,0l0,0l0,0l0,0l0,0l0,0l0,0l0,0l0,0l0,0l0,0l0,0l0,0l0,0v0.8l0,0l0,0l0,0l0,0l0,0l0,0l0,0  l0,0l0,0l0,0l0,0l0,0l0,0l0,0l0,0l0,0l0,0l0,0l0,0l0,0l0,0l0,0h0.8l0,0h0.8h0.8h0.8h0.8h0.8h0.8l0,0l0,0l0,0l0,0h0.8h0.8h0.8h0.8  h0.8h0.8h0.8h0.8h0.8h0.8h0.8l0,0l0,0l0,0l0,0l0,0l0,0l0,0l0,0l0,0l0,0V172v-0.8v-0.8v-0.8v-0.8V168v-0.8v-0.8v-0.8L200,164L200,164  L200,164L200,164z M180.8,165.6L180.8,165.6L180.8,165.6L180.8,165.6L180.8,165.6z"/>
<polygon style="fill:#CADDDC;" points="197.6,170.4 197.6,169.6 197.6,169.6 198.4,168.8 198.4,168.8 198.4,168 198.4,168   199.2,167.2 199.2,167.2 199.2,166.4 199.2,166.4 199.2,165.6 200,164.8 200,164.8 200,164 200,164 200,164 200,164 200,164   200,163.2 200,163.2 200,163.2 200,163.2 200,163.2 200,162.4 200,162.4 200,162.4 200,162.4 200,162.4 199.2,162.4 199.2,161.6   199.2,161.6 199.2,161.6 199.2,161.6 199.2,161.6 199.2,160.8 199.2,160.8 199.2,160.8 199.2,160.8 199.2,160.8 199.2,160.8   199.2,160 199.2,160 199.2,160 199.2,160 199.2,160 199.2,160 199.2,159.2 198.4,159.2 198.4,159.2 198.4,159.2 198.4,159.2   198.4,159.2 198.4,159.2 198.4,159.2 198.4,159.2 198.4,159.2 198.4,159.2 198.4,159.2 198.4,159.2 198.4,158.4 198.4,159.2   198.4,159.2 198.4,159.2 198.4,159.2 198.4,159.2 198.4,159.2 198.4,159.2 198.4,159.2 198.4,159.2 198.4,159.2 198.4,160   198.4,160 198.4,160 198.4,160 198.4,160 198.4,160 198.4,160 198.4,160 198.4,160 198.4,160 198.4,160 198.4,160 198.4,160   198.4,160 198.4,160 198.4,160 198.4,160.8 198.4,160.8 198.4,160.8 198.4,160.8 198.4,160.8 198.4,160.8 198.4,160.8 198.4,160.8   198.4,160.8 198.4,160.8 198.4,160.8 198.4,160.8 198.4,160.8 198.4,161.6 198.4,161.6 198.4,162.4 198.4,162.4 198.4,163.2   198.4,164 197.6,164 197.6,164.8 197.6,164.8 197.6,165.6 196.8,165.6 196.8,166.4 196.8,166.4 196,167.2 196,167.2 196,167.2   195.2,168 195.2,168 194.4,168.8 194.4,168.8 "/>
<g>
	<polygon style="fill:#FFFFFF;" points="180.8,165.6 180.8,165.6 180.8,165.6 180.8,165.6 180.8,165.6  "/>
	<polygon style="fill:#FFFFFF;" points="180.8,165.6 180.8,165.6 180,164.8  "/>
	<path style="fill:#FFFFFF;" d="M200,164L200,164L200,164z"/>
</g>
<path style="fill:#FF0000;" d="M206.4,168.8c8.8-2.4,18.4-4,27.2-4.8l-0.8-9.6c-9.6,0.8-20,2.4-28.8,4.8L206.4,168.8L206.4,168.8z"/>
<path style="fill:#CE0202;" d="M210.4,157.6l-0.8,10.4c8-1.6,16-3.2,24.8-4l-0.8-9.6C225.6,155.2,217.6,156,210.4,157.6z"/>
<path style="fill:#FF0000;" d="M201.6,150.4c9.6-2.4,20-4,30.4-4.8V136c-11.2,0.8-21.6,2.4-32,5.6L201.6,150.4z"/>
<path style="fill:#CE0202;" d="M211.2,148c7.2-1.6,13.6-2.4,20.8-3.2V144v-8c-6.4,0.8-12.8,1.6-19.2,2.4L211.2,148z"/>
<path style="fill:#FFFFFF;" d="M290.4,165.6c9.6,2.4,18.4,5.6,26.4,9.6l-0.8,2.4c-8.8-4-17.6-6.4-26.4-8.8L290.4,165.6z   M320.8,167.2l0.8-2.4c-8.8-4-18.4-7.2-28.8-9.6l-0.8,2.4C302.4,159.2,312,163.2,320.8,167.2L320.8,167.2z"/>
<g>
	<path style="fill:#CADDDC;" d="M321.6,164.8c-6.4-3.2-13.6-5.6-20.8-8l-1.6,2.4c7.2,2.4,14.4,4.8,20.8,8l0,0v-0.8L321.6,164.8z"/>
	<path style="fill:#CADDDC;" d="M316,177.6l0.8-2.4c-7.2-3.2-15.2-5.6-22.4-8l-1.6,2.4C300.8,171.2,308.8,174.4,316,177.6z"/>
</g>
<polygon style="fill:#DDA300;" points="192,152 188.8,149.6 189.6,146.4 189.6,145.6 189.6,145.6 186.4,147.2 183.2,144.8   183.2,144.8 183.2,144.8 182.4,148 179.2,149.6 179.2,149.6 179.2,149.6 181.6,152 181.6,155.2 181.6,155.2 181.6,155.2   184.8,154.4 187.2,156.8 187.2,156.8 187.2,156.8 188,152.8 191.2,152 "/>
<polygon style="fill:#F7DB17;" points="318.4,144.8 318.4,144.8 315.2,144 314.4,140 314.4,140 313.6,140 311.2,142.4 308,141.6   308,141.6 308,141.6 308.8,144.8 305.6,147.2 305.6,147.2 305.6,148 308.8,148.8 309.6,152 309.6,152.8 310.4,152 312.8,149.6   316,151.2 316,151.2 316,151.2 315.2,147.2 318.4,145.6 "/>
<polygon style="fill:#DDA300;" points="316,151.2 316,151.2 316,151.2 315.2,147.2 318.4,145.6 318.4,144.8 318.4,144.8 315.2,144   314.4,140 314.4,140 313.6,140 311.2,142.4 310.4,142.4 307.2,148 308.8,148.8 309.6,152 309.6,152.8 310.4,152 312.8,149.6 "/>
<path style="fill:#0093DD;" d="M264,136L264,136l-16-13.6L232,136l3.2,36.8c4,0,8.8-0.8,12.8-0.8c4.8,0,8.8,0,13.6,0.8L264,136  L264,136z"/>
<path style="fill:#0068B5;" d="M248,172.8c4.8,0,8.8,0,13.6,0.8L264,136l0,0l0,0l-16-13.6"/>
<path style="fill:#F7DB17;" d="M253.6,160c0,0-0.8,0-1.6,0c0.8-0.8,0.8-1.6,0.8-2.4l0,0c0,0,0,0-0.8,0h-0.8l0,0v-0.8l0,0  c0.8-0.8,0.8-1.6,1.6-2.4l0,0l0,0H252c-0.8,0-0.8,0-0.8,0.8c-0.8,0-0.8,0-1.6,0.8c0,0,0-0.8-0.8-0.8v-0.8c0-0.8-0.8-0.8-0.8-1.6l0,0  l0,0l0,0c0,0.8-0.8,0.8-0.8,1.6c0,0-0.8,0,0,0.8c-0.8,0-0.8,0-0.8,0.8c-0.8-0.8-0.8-0.8-1.6-0.8c0,0,0-0.8-0.8-0.8h-0.8l0,0l0,0  c0.8,0.8,0.8,1.6,1.6,2.4l0,0v0.8l0,0H244h-0.8l0,0c0,0.8,0,1.6,0.8,2.4h-0.8l0,0c0,0.8,0.8,0.8,1.6,1.6l-0.8,0.8v0.8l0,0  c0.8,0,0.8,0,1.6,0c0,0.8,0,0.8,0,1.6h0.8c0,0,0,0,0,0.8c0,0,0,0,0,0.8l0,0c0.8,0,0.8,0,1.6,0c0,0.8,0,0.8,0,1.6l0,0l0.8-0.8l0,0  c0,0,0,0,0,0.8l0,0l0.8-0.8l0.8,0.8l0,0c0-0.8,0-0.8,0-1.6c0.8,0,0.8,0,1.6,0l0,0v-0.8c0,0,0,0,0-0.8h0.8c0-0.8,0-0.8,0-1.6  c0.8,0,0.8,0,1.6,0l0,0c0,0,0,0,0-0.8s0-0.8-0.8-0.8C253.6,160.8,253.6,160,253.6,160L253.6,160z"/>
<path style="fill:#DDA300;" d="M253.6,160c0,0-0.8,0-1.6,0c0.8-0.8,0.8-1.6,0.8-2.4l0,0c0,0,0,0-0.8,0h-0.8l0,0v-0.8l0,0  c0.8-0.8,0.8-1.6,1.6-2.4l0,0l0,0H252c-0.8,0-0.8,0-0.8,0.8c-0.8,0-0.8,0-1.6,0.8c0,0,0-0.8-0.8-0.8v-0.8c0-0.8-0.8-0.8-0.8-1.6l0,0  v14.4l0.8-0.8l0.8,0.8l0,0c0-0.8,0-0.8,0-1.6c0.8,0,0.8,0,1.6,0l0,0v-0.8c0,0,0,0,0-0.8h0.8c0-0.8,0-0.8,0-1.6c0.8,0,0.8,0,1.6,0  l0,0c0,0,0,0,0-0.8s0-0.8-0.8-0.8C253.6,160.8,253.6,160,253.6,160L253.6,160z"/>
<path style="fill:#F7DB17;" d="M243.2,150.4L243.2,150.4c0-0.8,0-0.8,0-1.6c0.8,0,0.8,0,1.6,0l0,0V148c0,0,0,0,0-0.8h0.8  c0-0.8,0-0.8-0.8-1.6c0.8,0,0.8,0,1.6,0l0,0c0,0,0,0,0-0.8c0,0,0-0.8-0.8-0.8c0.8,0,0.8-0.8,1.6-1.6l0,0c0,0-0.8,0-1.6,0  c0.8-0.8,0.8-1.6,0.8-2.4l0,0c0,0,0,0-0.8,0h-0.8l0,0v-0.8l0,0c0.8-0.8,0.8-1.6,1.6-2.4l0,0l0,0h-0.8c-0.8,0-0.8,0-0.8,0.8  c-0.8,0-0.8,0-1.6,0.8c0,0,0-0.8-0.8-0.8v-0.8c0-0.8-0.8-0.8-0.8-0.8l0,0l0,0l0,0c0,0.8-0.8,0.8-0.8,1.6c0,0-0.8,0,0,0.8  c-0.8,0-0.8,0-0.8,0.8c-0.8-0.8-0.8-0.8-1.6-0.8c0,0,0-0.8-0.8-0.8h-0.8l0,0l0,0c0.8,0.8,0.8,1.6,1.6,2.4l0,0v0.8l0,0h-0.8h-0.8l0,0  c0,0.8,0,1.6,0.8,2.4h-0.8l0,0c0,0.8,0.8,0.8,1.6,1.6l-0.8,0.8v0.8l0,0c0.8,0,0.8,0,1.6,0c0,0.8,0,0.8,0,1.6h0.8c0,0,0,0,0,0.8  c0,0,0,0,0,0.8l0,0c0.8,0,0.8,0,1.6,0c0,0.8,0,0.8,0,1.6l0,0l0.8-0.8l0,0c0,0,0,0,0,0.8l0,0C241.6,150.4,241.6,150.4,243.2,150.4  C242.4,149.6,242.4,150.4,243.2,150.4z"/>
<path style="fill:#DDA300;" d="M260.8,143.2L260.8,143.2c-0.8,0-0.8,0-1.6,0c0.8-0.8,0.8-1.6,0.8-2.4l0,0c0,0,0,0-0.8,0h-0.8l0,0  V140l0,0c0.8-0.8,0.8-1.6,1.6-2.4l0,0l0,0h-0.8c-0.8,0-0.8,0-0.8,0.8c-0.8,0-0.8,0-1.6,0.8c0-0.8,0-0.8-0.8-0.8v-0.8  c0-0.8-0.8-0.8-0.8-1.6l0,0l0,0l0,0c0,0.8-0.8,0.8-0.8,0.8s-0.8,0,0,0.8c-0.8,0-0.8,0-0.8,0.8c0-0.8-0.8-0.8-1.6-0.8  c0,0,0-0.8-0.8-0.8h-0.8l0,0l0,0c0.8,0.8,0.8,1.6,1.6,2.4l0,0v0.8l0,0h-0.8h-0.8l0,0c0,0.8,0,1.6,0.8,2.4c0,0-0.8,0-1.6,0l0,0  c0,0.8,0.8,0.8,1.6,1.6l-0.8,0.8v0.8l0,0c0.8,0,0.8,0,1.6,0c0,0.8-0.8,0.8-0.8,1.6h0.8c0,0,0,0,0,0.8v0.8l0,0c0.8,0,0.8,0,1.6,0  c0,0.8,0,0.8,0,1.6l0,0l0.8-0.8l0.8,0.8l0,0v-0.8l0,0l0.8,0.8l0,0c0,0,0-0.8,0-1.6c0.8,0,0.8,0,1.6,0l0,0V148v-0.8h0.8  c0-0.8,0-0.8,0-1.6c0.8,0,0.8,0,1.6,0l0,0v-0.8c0,0,0-0.8-0.8-0.8C260.8,144.8,260.8,144,260.8,143.2z"/>
<path style="fill:#2727C1;" d="M317.6,168c-0.8-0.8-0.8-0.8-1.6-0.8c-0.8,0-1.6-0.8-1.6-0.8h-0.8c-0.8,0-0.8,0-1.6-0.8  c-1.6-0.8-3.2-1.6-4.8-0.8c0,0,0,0-0.8,0c-0.8-0.8-1.6-0.8-3.2-0.8c-1.6-0.8-2.4-1.6-3.2-1.6c0,0-0.8,0-0.8-0.8l0,0l0,0  c0,0,0,0,0-0.8c0,0,0,0-0.8,0l-0.8-0.8c0,0,0,0-0.8,0l0,0l0,0c0,0,0,0-0.8,0h-0.8c0,0,0,0-0.8,0c0,0,0,0,0,0.8l0,0c0,0,0,0,0.8,0  c0,0,0,0,0.8,0l0,0l0,0c0,0,0,0.8,0.8,0.8l0,0l0,0c0,0,0,0-0.8,0h-0.8h-0.8l0,0l0,0h-0.8l0,0l0,0h0.8h0.8c0,0,0,0,0.8,0h0.8  c0,0,0,0,0.8,0h0.8h0.8c0,0,0,0.8,0.8,0.8l0,0h-0.8h-0.8c0,0,0,0-0.8,0l0,0h-0.8l0,0l0,0l0,0c0,0,0,0,0.8,0h0.8c0.8,0,0.8,0,1.6,0  h0.8c0,0,0,0,0.8,0c0,0,0,0,0.8,0c0.8-0.8,1.6,0,2.4,0c0,0,0.8,0,1.6,0l0,0h-0.8h-0.8c0,0-0.8,0,0,0.8c0,0,0,0,0.8,0l0,0l0,0  c0,0,0,0,0.8,0h0.8l0,0h0.8h0.8l0,0c0,0,0,0,0.8,0s0.8,0.8,1.6,0.8c0.8,0,1.6,0.8,1.6,0.8s0.8,0,0.8,0.8l0,0v0.8l0,0  c-0.8,0-0.8,0-0.8,0.8l0,0c0,0,0,0,0.8,0c0,0,0.8,0,0.8-0.8c0,0,0.8-0.8,0-0.8l0,0c0,0,0-0.8,0-1.6l0,0h-0.8c0,0-0.8,0-0.8-0.8v-0.8  v-0.8l0,0c0,0,0,0,0.8,0c0,0,0.8,0,0.8,0.8c0.8,0,0.8,0.8,1.6,0.8c0.8,0,0.8,0.8,1.6,0.8c0.8,0,0.8,0,1.6,0  C317.6,168,317.6,168,317.6,168z"/>
<g>
	<path style="fill:#171796;" d="M312.8,172c0,0,0.8,0,0.8-0.8c0,0,0.8-0.8,0-0.8l0,0c0,0,0-0.8,0-1.6l0,0h-0.8c0,0-0.8,0-0.8-0.8   v-0.8v-0.8l0,0c0,0,0,0,0.8,0c0,0,0.8,0,0.8,0.8c0.8,0,0.8,0.8,1.6,0.8c0.8,0,0.8,0.8,1.6,0.8c0.8,0,0.8,0,1.6,0c0,0,0.8-0.8,0-0.8   c-0.8-0.8-0.8-0.8-1.6-0.8c-0.8,0-1.6-0.8-1.6-0.8h-0.8c-0.8,0-0.8,0-1.6-0.8c-1.6-0.8-3.2-1.6-4.8-0.8c0,0,0,0-0.8,0   c-0.8-0.8-1.6-0.8-3.2-0.8c-1.6-0.8-2.4-1.6-3.2-1.6c0,0-0.8,0-0.8-0.8l0,0l0,0l-0.8,1.6l0,0l0,0l0,0c0,0,0,0-0.8,0l0,0l-2.4,1.6   c0,0,0,0,0.8,0h0.8c0,0,0,0,0.8,0h0.8h0.8c0,0,0,0.8,0.8,0.8l0,0H300h-0.8c0,0,0,0-0.8,0l0,0h-0.8l0,0l0,0l0,0c0,0,0,0,0.8,0h0.8   c0.8,0,0.8,0,1.6,0h0.8c0,0,0,0,0.8,0c0,0,0,0,0.8,0c0.8-0.8,1.6,0,2.4,0c0,0,0.8,0,1.6,0l0,0h-0.8h-0.8c0,0-0.8,0,0,0.8   c0,0,0,0,0.8,0l0,0l0,0c0,0,0,0,0.8,0h0.8l0,0h0.8h0.8l0,0c0,0,0,0,0.8,0s0.8,0.8,1.6,0.8c0.8,0,1.6,0.8,1.6,0.8s0.8,0,0.8,0.8l0,0   v0.8l0,0C311.2,171.2,311.2,171.2,312.8,172C312,172,312,172,312.8,172C312,172,312,172,312.8,172z"/>
	<path style="fill:#171796;" d="M298.4,160.8L298.4,160.8L298.4,160.8L298.4,160.8z"/>
</g>
<path style="fill:#F7DB17;" d="M288,152.8L288,152.8c-0.8,0-1.6,0-1.6,0.8c-0.8,0-0.8,0-1.6,0c-0.8,0-0.8,0-1.6,0l-0.8-0.8  c-0.8,0-0.8,0-1.6,0H280h-0.8c0-0.8-0.8-0.8-0.8-0.8c-0.8,0-1.6,0-1.6,0s0,0-0.8,0c0,0,0-0.8-0.8-0.8c0-0.8,0-0.8-0.8-0.8  c0,0,0,0-0.8,0l0,0c0,0,0,0,0-0.8l0,0c0,0,0,0,0-0.8l0,0c0,0,0,0,0-0.8c0,0,0.8,0.8,0.8,0c0.8,0,0.8,0,0.8-0.8c0.8,0,0.8-0.8,0-0.8  s-0.8,0-1.6,0c0,0,0,0-0.8,0c0.8,0,1.6,0,2.4,0s1.6,0.8,2.4,0.8c0.8,0.8,1.6,0.8,2.4,1.6c1.6,0.8,2.4,0.8,4,0.8c0.8,0,1.6,0,1.6-0.8  l0,0l0,0h-0.8c-0.8,0-1.6,0-2.4-0.8c-1.6-0.8-1.6-0.8-2.4-1.6s-0.8-0.8-1.6-1.6c1.6,0.8,3.2,1.6,5.6,0.8l0,0h-0.8  c-0.8,0-1.6,0-2.4,0c0-1.6-0.8-1.6-0.8-1.6c-0.8,0-0.8-0.8-1.6-0.8c-0.8,0-0.8-0.8-1.6-0.8c-0.8,0-1.6,0-2.4,0s-1.6,0-1.6,0.8  c-0.8,0-0.8,0.8-1.6,0.8c0,0-0.8,0-0.8,0.8c0,0,0,0-0.8-0.8c-0.8,0-1.6,0-1.6,0l0,0c0,0,0,0,0,0.8l0,0c0,0,0,0,0.8,0.8  c0,0,0,0,0.8,0l0,0l-0.8,0.8c0,0,0,0.8-0.8,0.8s0,0.8,0,0.8s0,0,0,0.8l0,0h0.8h0.8l0,0c-0.8,0.8-0.8,0.8,0,0.8c0,0.8,0,0.8,0,0.8  l0,0c0,0,0,0,0,0.8l0,0c-0.8,0-0.8,0.8-0.8,0.8s0,0,0,0.8c0,0,0,0-0.8,0.8c0,0,0,0.8,0.8,0.8v0.8v0.8l0,0l0,0c0,0,0,0,0,0.8l0,0  c0,0,0,0,0,0.8l0,0v0.8v0.8v0.8l-0.8,0.8c0,0.8-0.8,0.8-1.6,0.8c-0.8,0-0.8,0.8,0,0.8c0,0,0,0,0.8,0.8c0.8,0,0.8,0,1.6,0v-0.8l0,0  l0,0c0,0,0,0,0-0.8v-0.8l0.8-0.8c0,0,0,0,0-0.8c0,0,0,0,0.8,0l0,0v0.8c0,0,0,0.8,0,1.6v0.8l0,0l0,0l0,0c0,0,0,0.8-0.8,0.8  c0,0,0,0-0.8,0.8l0,0c0,0,0,0-0.8,0.8l0,0l0,0l0,0c0,0,0,0,0,0.8h0.8h0.8v-0.8l0,0c0,0,0,0,0-0.8c0,0,0,0,0-0.8l0,0  c0,0,0-0.8,0.8-0.8v-0.8c0,0,0,0,0-0.8c0,0,0,0,0.8,0h0.8h0.8c0,0,0,0.8,0.8,0l0,0v0.8l0,0c0,0,0,0,0,0.8l-0.8,0.8c0,0,0,0-0.8,0.8  c-0.8,0-0.8,0.8-1.6,0.8c0,0,0,0-0.8,0l0,0l0,0c0,0,0,0,0,0.8h0.8h0.8v-0.8l0,0l0,0c0,0,0,0,0-0.8v-0.8c0,0,0.8-0.8,1.6-1.6h0.8  l0.8-0.8c0,0,0,0,0.8,0l0,0c0,0,0,0,0.8,0c0,0,0,0,0.8,0c0,0,0,0,0,0.8l-0.8,0.8c0,0.8-0.8,0.8-0.8,0.8c-0.8,0-0.8,0.8-0.8,0.8l0,0  h-0.8l0,0c0,0,0,0.8,0.8,0.8c0,0,0,0,0,0.8c0,0,0.8,0,1.6,0c0,0,0.8,0,0.8-0.8V164l0,0l0.8-0.8c0.8-0.8,0.8-0.8,1.6-1.6l0,0l0.8-0.8  l0,0l0,0V160l0,0v-0.8c0.8,0,0.8-0.8,0-0.8c0.8,0,0-0.8,0-0.8v-0.8c0.8,0,0.8,0,0.8-0.8c0,0,0,0,0-0.8h0.8h0.8c0.8,0,0.8,0,0.8-0.8  c0,0,0,0,0-0.8c0.8,0,0.8,0,0.8-0.8C288.8,153.6,288.8,153.6,288,152.8C288.8,152.8,288.8,152.8,288,152.8z"/>
<path style="fill:#DDA300;" d="M287.2,154.4C287.2,154.4,288,154.4,287.2,154.4c0.8-0.8,0.8-0.8,1.6-0.8l0,0c0-0.8,0-0.8-0.8-0.8  h-0.8h-0.8c-0.8,0-0.8,0-1.6,0c-0.8,0-0.8,0-1.6,0l-0.8-0.8c-0.8,0-0.8,0-1.6,0H280h-0.8c0,0-0.8,0-0.8,0c-0.8,0-1.6,0-1.6,0  s0,0-0.8,0c0,0,0-0.8-0.8-0.8c0-0.8,0-0.8-0.8-0.8c0,0,0,0-0.8,0l0,0c0,0,0,0,0-0.8l0,0c0,0,0,0,0-0.8l0,0c0,0,0,0,0-0.8  c0,0,0.8,0.8,0.8,0c0.8,0,0.8,0,0.8-0.8c0.8,0,0.8-0.8,0-0.8s-0.8,0-1.6,0c0,0,0,0-0.8,0c0.8,0,1.6,0,2.4,0s1.6,0.8,2.4,0.8  c0.8,0.8,1.6,0.8,2.4,1.6c1.6,0.8,2.4,0.8,4,0.8c0.8,0,1.6,0,1.6-0.8l0,0l0,0h-0.8c-0.8,0-1.6,0-2.4-0.8c-1.6-0.8-1.6-0.8-2.4-1.6  s-0.8-0.8-1.6-1.6c1.6,0.8,3.2,1.6,5.6,0.8l0,0h-0.8c-0.8,0-1.6,0-2.4,0c0-1.6-0.8-1.6-0.8-1.6c-0.8,0-0.8-0.8-1.6-0.8  c-0.8,0-0.8-0.8-1.6-0.8c-0.8,0-0.8,0-1.6,0l-5.6,12.8l0,0l0,0l0,0l0,0l0,0l0,0c0,0,0,0,0,0.8l0,0c0,0,0,0,0,0.8l0,0v0.8v0.8v0.8  l-0.8,0.8c0,0.8-0.8,0.8-1.6,0.8c-0.8,0-0.8,0.8,0,0.8c0,0,0,0,0.8,0.8c0.8,0,0.8,0,1.6,0v-0.8l0,0l0,0c0,0,0,0,0-0.8V160l0.8-0.8  c0,0,0,0,0-0.8c0,0,0,0,0.8,0l0,0v0.8c0,0,0,0.8,0,1.6v0.8l0,0l0,0l0,0c0,0,0,0.8-0.8,0.8c0,0,0,0-0.8,0.8l0,0c0,0,0,0-0.8,0.8l0,0  l0,0l0,0c0,0,0,0,0,0.8h0.8h0.8V164l0,0c0,0,0,0,0-0.8c0,0,0,0,0-0.8l0,0c0,0,0-0.8,0.8-0.8v-0.8c0,0,0,0,0-0.8c0,0,0,0,0.8,0h0.8  h0.8c0,0,0,0.8,0.8,0l0,0v0.8l0,0c0,0,0,0,0,0.8l-0.8,0.8c0,0,0,0-0.8,0.8c-0.8,0-0.8,0.8-1.6,0.8c0,0,0,0-0.8,0l0,0l0,0  c0,0,0,0,0,0.8h0.8h0.8V164l0,0l0,0c0,0,0,0,0-0.8v-0.8c0,0,0.8-0.8,1.6-1.6h0.8l0.8-0.8c0,0,0,0,0.8,0l0,0c0,0,0,0,0.8,0  c0,0,0,0,0.8,0c0,0,0,0,0,0.8l-0.8,0.8c0,0.8-0.8,0.8-0.8,0.8c-0.8,0-0.8,0.8-0.8,0.8l0,0h-0.8l0,0c0,0,0,0.8,0.8,0.8c0,0,0,0,0,0.8  c0,0,0.8,0,1.6,0c0,0,0.8,0,0.8-0.8v-0.8l0,0l0.8-0.8c0.8-0.8,0.8-0.8,1.6-1.6l0,0l0.8-0.8l0,0l0,0v-0.8l0,0v-0.8  c0.8,0,0.8-0.8,0-0.8c0.8,0,0-0.8,0-0.8V156c0.8,0,0.8,0,0.8-0.8c0,0,0,0,0-0.8h0.8h0.8C287.2,155.2,287.2,155.2,287.2,154.4z"/>
<g>
</g>
<g>
</g>
<g>
</g>
<g>
</g>
<g>
</g>
<g>
</g>
<g>
</g>
<g>
</g>
<g>
</g>
<g>
</g>
<g>
</g>
<g>
</g>
<g>
</g>
<g>
</g>
<g>
</g>
</svg>
