<?xml version="1.0" encoding="iso-8859-1"?>
<!-- Generator: Adobe Illustrator 19.0.0, SVG Export Plug-In . SVG Version: 6.00 Build 0)  -->
<svg xmlns="http://www.w3.org/2000/svg"  version="1.1" id="Layer_1" x="0px" y="0px" viewBox="0 0 496 496" style="enable-background:new 0 0 496 496;" xml:space="preserve">
<path style="fill:#359846;" d="M0,248v121.6C0,396.8,21.6,416,48,416h400c26.4,0,48-19.2,48-46.4V248H0z"/>
<path style="fill:#198428;" d="M248,248l197.6,168c26.4,0,50.4-19.2,50.4-46.4V248H248z"/>
<path style="fill:#DB2727;" d="M448,80H48C21.6,80,0,99.2,0,126.4V248h496V126.4C496,99.2,474.4,80,448,80z"/>
<path style="fill:#C11414;" d="M448,80H48l200,168h248V126.4C496,99.2,474.4,80,448,80z"/>
<path style="fill:#0E7217;" d="M496,368.8c0,29.6-21.6,47.2-48,47.2H48c-26.4,0-48-20.8-48-48"/>
<path style="fill:#AD0000;" d="M48,80h400c26.4,0,48,19.2,48,46.4V216"/>
<polygon style="fill:#F8D12E;" points="248,183.2 264,232 315.2,232 273.6,262.4 289.6,312 248,281.6 206.4,312 222.4,262.4   180.8,232 232,232 "/>
<polygon style="fill:#F7A62F;" points="264,232 248,183.2 232,232 230.4,232 248,248 276.8,272 273.6,262.4 315.2,232 "/>
<g>
</g>
<g>
</g>
<g>
</g>
<g>
</g>
<g>
</g>
<g>
</g>
<g>
</g>
<g>
</g>
<g>
</g>
<g>
</g>
<g>
</g>
<g>
</g>
<g>
</g>
<g>
</g>
<g>
</g>
</svg>
