<?xml version="1.0" encoding="iso-8859-1"?>
<!-- Generator: Adobe Illustrator 19.0.0, SVG Export Plug-In . SVG Version: 6.00 Build 0)  -->
<svg xmlns="http://www.w3.org/2000/svg"  version="1.1" id="Layer_1" x="0px" y="0px" viewBox="0 0 496 496" style="enable-background:new 0 0 496 496;" xml:space="preserve">
<g>
	<path style="fill:#45AFE3;" d="M0,304v65.6C0,396.8,21.6,416,48,416h400c26.4,0,48-19.2,48-46.4V304H0z"/>
	<path style="fill:#45AFE3;" d="M448,80H48C21.6,80,0,99.2,0,126.4V192h496v-65.6C496,99.2,474.4,80,448,80z"/>
</g>
<rect y="192" style="fill:#F8D12E;" width="496" height="112"/>
<path style="fill:#0A9ACC;" d="M446.4,416c26.4,0,49.6-19.2,49.6-46.4V304H315.2L446.4,416z"/>
<path style="fill:#1AA1D6;" d="M448,80H48l132.8,112H496v-65.6C496,99.2,474.4,80,448,80z"/>
<polygon style="fill:#F7AF2F;" points="316,304 496,304 496,192 180,192 "/>
<path style="fill:#108BC1;" d="M448,80H48l370.4,112H496v-65.6C496,99.2,474.4,80,448,80z"/>
<polygon style="fill:#E08E0B;" points="496,214.4 496,192 414.4,192 "/>
<path style="fill:#108BC1;" d="M496,368.8c0,29.6-21.6,47.2-48,47.2H48c-26.4,0-48-20.8-48-48"/>
<polygon style="fill:#3A3A3A;" points="168,248 0,140.8 0,189.6 0,191.2 0,304.8 0,306.4 0,354.4 "/>
<polyline style="fill:#151515;" points="0,192 0,191.2 0,304.8 0,306.4 0,354.4 168,248.8 "/>
<g>
</g>
<g>
</g>
<g>
</g>
<g>
</g>
<g>
</g>
<g>
</g>
<g>
</g>
<g>
</g>
<g>
</g>
<g>
</g>
<g>
</g>
<g>
</g>
<g>
</g>
<g>
</g>
<g>
</g>
</svg>
