<?xml version="1.0" encoding="utf-8"?>
<!-- Generator: Adobe Illustrator 19.0.0, SVG Export Plug-In . SVG Version: 6.00 Build 0)  -->
<svg version="1.1" id="Capa_1" xmlns="http://www.w3.org/2000/svg"  x="0px" y="0px"
	 viewBox="0 0 85 85" style="enable-background:new 0 0 85 85;" xml:space="preserve">
<style type="text/css">
	.st0{fill:#32485A;}
	.st1{fill:#1D3448;}
</style>
<g>
	<path class="st0" d="M1,59.6c3.9-7.7,9.9-12.2,18.8-11.6c2.1,0.1,2.9-1,3.7-2.7c4.3-9.6,12.8-10.3,21.8-10.2c8,0.1,15,1.8,18.7,9.9
		c0.8,1.7,1.3,3.1,3.5,3c4-0.2,7.4,1.6,10.8,4c1.3-4.4-0.7-7.2-3.2-9.7c-3-3-4.8-6.6-5.6-10.7c-0.7-3.6-1.1-6.8-4.7-9.3
		c-4.7-3.2,0.2-6.7,0.8-10.1c0-0.1,0.4-0.2,0.5-0.3c3.3-2.6,0.7,7,4.9,2.4c1.6-1.7,1.4-1,4.3,1c4,2.7,1.6,4.9,0.1,6.9
		c-4,5.3-4.7,10.9,0.2,15.7c8.3,8.1,6.5,18.6,8.2,28.3c0.2,1.2,0.8,3.2-1.4,3.6c-1,0.2-2.5,0.3-3.1-0.3c-1.8-1.7,0.6-2.3,1.2-3.4
		c2.3-5.2-2.9-13.3-9.6-14.3c-5.1-0.8-9.2-1.7-10.8-7.6c-0.7-2.6-3.6-4.5-6.4-5.1c-6.6-1.4-13.3-1.5-19.9,0.1
		c-3.4,0.8-6.4,3.3-7.2,6.9c-1,4.3-3.5,4.9-7.4,5c-9,0-13.5,3.7-14.8,11.2c-0.2,1-0.7,2.5-0.2,3.1C8.7,70.9,4,69.8,1,69.9
		C1,66.5,1,63,1,59.6z"/>
	<path class="st1" d="M8.5,65.6c0.7-4.7,3.1-7.6,8.1-7.5c4.9,0.1,7.6,3.2,7.5,7.9c-0.1,4.8-3.2,7.7-7.9,7.5
		C11.5,73.4,8.9,70.4,8.5,65.6z"/>
	<path class="st1" d="M75.2,65.9c-0.5,5-3.2,7.8-7.9,7.7c-4.8-0.1-7.7-3.3-7.6-7.9c0.1-4.6,2.9-7.6,7.9-7.5
		C72.6,58.3,74.9,61.2,75.2,65.9z"/>
	<path class="st0" d="M53,49.9c-2.6,2.1-5.1,4.3-8,6.7c1.9,0.3,3.4,0.5,5.3,0.8c-4.4,3.8-8,8.5-14.1,1.9
		C41.5,55.7,45.7,50.4,53,49.9z"/>
</g>
</svg>
