<?xml version="1.0" encoding="iso-8859-1"?>
<!-- Generator: Adobe Illustrator 19.0.0, SVG Export Plug-In . SVG Version: 6.00 Build 0)  -->
<svg xmlns="http://www.w3.org/2000/svg"  version="1.1" id="Layer_1" x="0px" y="0px" viewBox="0 0 512 512" style="enable-background:new 0 0 512 512;" xml:space="preserve" width="512px" height="512px">
<g>
	<g>
		<path d="M435.2,185.6h-25.6c0-58.94-43.46-102.4-115.2-102.4h-76.8c-71.74,0-115.2,43.46-115.2,102.4H76.8    C36.958,185.6,0,222.336,0,262.4V352c0,14.14,11.46,25.6,25.6,25.6h26.957c6.042,29.542,32.495,51.081,62.643,51.2    c30.771-0.785,56.388-20.651,62.643-51.2h156.314c6.784,29.756,31.949,50.739,62.643,51.2c30.839-1.382,56.158-20.395,62.643-51.2    H486.4c14.14,0,25.6-11.46,25.6-25.6v-89.6C512,222.66,474.94,185.6,435.2,185.6z M115.2,403.2c-21.205,0-38.4-17.195-38.4-38.4    c0-21.214,17.195-38.4,38.4-38.4s38.4,17.186,38.4,38.4C153.6,386.005,136.405,403.2,115.2,403.2z M396.8,403.2    c-21.205,0-38.4-17.195-38.4-38.4c0-21.214,17.195-38.4,38.4-38.4c21.205,0,38.4,17.186,38.4,38.4    C435.2,386.005,418.005,403.2,396.8,403.2z M459.443,352c-5.248-23.168-20.557-40.832-43.511-48.077    c-5.803-1.826-12.544-3.183-18.739-3.183c-30.805,0.009-56.559,21.222-63.036,51.268H177.843    c-4.855-23.723-23.134-43.145-46.643-49.195c-4.762-1.212-7.808-1.562-12.706-1.92c-4.275-0.333-8.832,0.008-13.03,0.657    C79.411,305.493,57.574,326.067,52.557,352H25.6v-89.6c0-26.035,25.6-51.2,51.2-51.2H128c8.525,0,19.797,8.448,30.729,16.649    c14.251,10.701,28.996,21.751,46.071,21.751v25.6c0,14.14,11.46,25.6,25.6,25.6h51.2c14.14,0,25.6-11.46,25.6-25.6h38.4    c7.074,0,12.8-5.726,12.8-12.8c0-7.074-5.726-12.8-12.8-12.8h-38.4V224h38.4c7.074,0,12.8-5.726,12.8-12.8s-5.726-12.8-12.8-12.8    h-38.4c0-14.14-11.46-25.6-25.6-25.6h-51.2c-14.14,0-25.6,11.46-25.6,25.6V224c-8.525,0-19.797-8.448-30.729-16.648    C159.821,196.651,145.075,185.6,128,185.6c0.094-4.787-0.068-9.719,1.229-14.328c2.569-9.233,4.966-18.859,10.24-26.854    c5.393-7.808,11.87-14.831,19.891-20.045c17.434-11.315,37.683-15.394,58.24-15.573h76.8l11.563,0.435    c17.05,2.799,29.653,3.208,44.911,13.73c21.803,15.053,32.503,36.702,33.126,62.635v25.6h51.2    c17.937,0.546,33.374,11.238,43.162,25.839l0.085,0.145c-2.21-0.452-0.614-0.171-4.855-0.384c-21.205,0-38.4,17.186-38.4,38.4    c0,21.205,17.195,38.4,38.4,38.4c4.318-0.222,8.832-0.375,12.8-2.304V352H459.443z M230.4,275.2v-76.8h51.2v76.8H230.4z     M473.6,288c-7.066,0-12.8-5.734-12.8-12.8s5.734-12.8,12.8-12.8c7.066,0,12.8,5.734,12.8,12.8S480.666,288,473.6,288z" fill="#122b40"/>
	</g>
</g>
<g>
</g>
<g>
</g>
<g>
</g>
<g>
</g>
<g>
</g>
<g>
</g>
<g>
</g>
<g>
</g>
<g>
</g>
<g>
</g>
<g>
</g>
<g>
</g>
<g>
</g>
<g>
</g>
<g>
</g>
</svg>
