<?xml version="1.0" encoding="utf-8"?>
<!-- Generator: Adobe Illustrator 19.0.0, SVG Export Plug-In . SVG Version: 6.00 Build 0)  -->
<svg version="1.1" id="Capa_1" xmlns="http://www.w3.org/2000/svg"  x="0px" y="0px"
	 viewBox="0 0 95.2 95.2" style="enable-background:new 0 0 95.2 95.2;" xml:space="preserve">
<style type="text/css">
	.Sombra_x0020_paralela{fill:none;}
	.Esquinas_x0020_redondeadas_x0020_2_x0020_pt_x002E_{fill:#FFFFFF;stroke:#1D1D1B;stroke-miterlimit:10;}
	.Reflejo_x0020_vivo_x0020_X{fill:none;}
	.Bisel_x0020_suave{fill:url(#SVGID_1_);}
	.Atardecer{fill:#FFFFFF;}
	.Follaje_GS{fill:#FFDB09;}
	.Pompadour_GS{fill-rule:evenodd;clip-rule:evenodd;fill:#56AFE0;}
	.st0{fill:none;stroke:url(#XMLID_42_);stroke-miterlimit:10;}
	.st1{fill:none;stroke:url(#XMLID_43_);stroke-miterlimit:10;}
	.st2{fill:none;stroke:url(#XMLID_44_);stroke-miterlimit:10;}
	.st3{fill:none;stroke:url(#XMLID_45_);stroke-miterlimit:10;}
	.st4{fill:none;stroke:url(#XMLID_46_);stroke-miterlimit:10;}
	.st5{fill:none;stroke:url(#XMLID_47_);stroke-miterlimit:10;}
	.st6{fill:none;stroke:url(#XMLID_48_);stroke-miterlimit:10;}
	.st7{fill:none;stroke:url(#XMLID_49_);stroke-miterlimit:10;}
</style>
<linearGradient id="SVGID_1_" gradientUnits="userSpaceOnUse" x1="-5.186580e-02" y1="2.0568" x2="0.6552" y2="2.7639">
	<stop  offset="0" style="stop-color:#E6E6EA"/>
	<stop  offset="0.1761" style="stop-color:#E2E2E6"/>
	<stop  offset="0.3567" style="stop-color:#D6D6DA"/>
	<stop  offset="0.5393" style="stop-color:#C1C2C5"/>
	<stop  offset="0.7233" style="stop-color:#A5A6A8"/>
	<stop  offset="0.9067" style="stop-color:#808384"/>
	<stop  offset="1" style="stop-color:#6B6E6E"/>
</linearGradient>
<g id="XMLID_40_">
	<linearGradient id="XMLID_42_" gradientUnits="userSpaceOnUse" x1="20.4189" y1="80.7246" x2="76.3881" y2="24.7554">
		<stop  offset="0" style="stop-color:#122B40"/>
		<stop  offset="1" style="stop-color:#00B1FF"/>
	</linearGradient>
	<path id="XMLID_96_" class="st0" d="M48.4,45.4c7.3,0,14.6,0,21.9,0c1.5,0,1.5,0,1.5,1.5c0,9.4,0,18.9,0,28.3c0,1.4,0,1.4,1.4,1.4
		c2,0,4,0,6,0c0.8,0,1-0.3,1-1c0-12,0-24,0-36.1c0-0.6-0.2-1-0.8-1.2c-9.5-3.2-19-6.4-28.4-9.8c-1.8-0.6-3.4-0.6-5.2,0
		c-9.4,3.3-18.9,6.5-28.3,9.7c-0.6,0.2-0.9,0.5-0.9,1.2c0,12,0,24,0,36.1c0,0.7,0.2,1,1,1c2,0,4,0,6,0c1.4,0,1.4,0,1.4-1.4
		c0-9.5,0-19,0-28.5c0-1,0.3-1.3,1.3-1.3C33.7,45.4,41.1,45.4,48.4,45.4z M48.4,73.6c3.4,0,6.8,0,10.2,0c1.9,0,1.9,0,1.9,1.9
		c0,0.8,0.3,1.2,1.1,1.2c1.3,0,2.6,0,3.9,0c0.7,0,1-0.3,1-1c0-3.6,0-7.3-0.2-10.9c-0.1-1.2-0.5-2.4-1-3.5C64.8,60,64.7,60,66,59.5
		c0.7-0.2,1.2-0.6,1-1.4c-0.1-0.8-0.6-1.3-1.5-1.3c-0.6,0-1.3-0.1-1.9,0c-0.7,0.1-1.2-0.2-1.6-0.9c-0.9-1.6-1.9-3.1-2.9-4.7
		c-0.6-1-1.5-1.5-2.7-1.5c-5.4,0-10.8,0-16.2,0c-1.2,0-2.1,0.5-2.7,1.5c-0.7,1.2-1.6,2.3-2.2,3.6c-0.7,1.6-1.8,2.2-3.6,2
		c-1.4-0.2-2,0.3-2.1,1.2c-0.1,1.2,0.8,1.4,1.6,1.6c0.8,0.2,0.7,0.5,0.4,1.1c-0.4,0.8-0.9,1.6-1,2.4c-0.2,4.2-0.3,8.4-0.4,12.6
		c0,0.3,0.5,0.7,0.8,0.8c1.4,0.1,2.9,0.1,4.3,0c0.3,0,0.6-0.5,0.8-0.8c0.1-0.2,0.1-0.6,0-0.9c-0.1-1,0.2-1.3,1.2-1.3
		C41.2,73.6,44.8,73.6,48.4,73.6z M10.9,36.9c0,2.4,0,2.4,2.4,2.4c0.8,0,1.2-0.2,1.1-1c-0.1-0.8,0.2-1.2,1-1.4
		c10.8-3.7,21.6-7.4,32.4-11c0.4-0.1,0.9-0.1,1.3,0c10.6,3.6,21.2,7.3,31.9,10.9c1,0.3,1.6,0.7,1.4,1.8c-0.1,0.6,0.3,0.9,0.8,0.7
		c0.9-0.2,2,0.6,2.7-0.5c0.1-0.1,0-0.4,0-0.6c0-0.8-0.1-1.6,0-2.4c0.1-0.8-0.3-1.1-1-1.4c-11.9-4-23.8-8.1-35.6-12.1
		c-0.5-0.2-1.2-0.2-1.7,0C36,26.1,24.5,30.1,12.9,34C10.5,34.9,11,34.2,10.9,36.9z"/>
	<linearGradient id="XMLID_43_" gradientUnits="userSpaceOnUse" x1="22.8638" y1="83.1694" x2="74.0186" y2="32.0146">
		<stop  offset="0" style="stop-color:#122B40"/>
		<stop  offset="1" style="stop-color:#00B1FF"/>
	</linearGradient>
	<path id="XMLID_95_" class="st1" d="M48.4,45.4c-7.4,0-14.7,0-22.1,0c-1,0-1.3,0.3-1.3,1.3c0,9.5,0,19,0,28.5c0,1.4,0,1.4-1.4,1.4
		c-2,0-4,0-6,0c-0.8,0-1-0.3-1-1c0-12,0-24,0-36.1c0-0.7,0.3-1,0.9-1.2c9.4-3.2,18.9-6.4,28.3-9.7c1.8-0.6,3.4-0.6,5.2,0
		c9.4,3.3,18.9,6.5,28.4,9.8c0.6,0.2,0.8,0.5,0.8,1.2c0,12,0,24,0,36.1c0,0.7-0.2,1-1,1c-2,0-4,0-6,0c-1.4,0-1.4,0-1.4-1.4
		c0-9.4,0-18.9,0-28.3c0-1.5,0-1.5-1.5-1.5C63,45.4,55.7,45.4,48.4,45.4z"/>
	<linearGradient id="XMLID_44_" gradientUnits="userSpaceOnUse" x1="34.3637" y1="80.6876" x2="62.5972" y2="52.4541">
		<stop  offset="0" style="stop-color:#122B40"/>
		<stop  offset="1" style="stop-color:#00B1FF"/>
	</linearGradient>
	<path id="XMLID_89_" class="st2" d="M48.4,73.6c-3.6,0-7.3,0-10.9,0c-1,0-1.4,0.3-1.2,1.3c0,0.3,0.1,0.7,0,0.9
		c-0.2,0.3-0.5,0.8-0.8,0.8c-1.4,0.1-2.9,0.1-4.3,0c-0.3,0-0.8-0.5-0.8-0.8c0.1-4.2,0.2-8.4,0.4-12.6c0-0.8,0.6-1.6,1-2.4
		c0.3-0.6,0.4-0.9-0.4-1.1c-0.8-0.2-1.7-0.4-1.6-1.6c0.1-0.9,0.7-1.4,2.1-1.2c1.8,0.2,2.8-0.4,3.6-2c0.6-1.3,1.5-2.4,2.2-3.6
		c0.6-1,1.5-1.5,2.7-1.5c5.4,0,10.8,0,16.2,0c1.2,0,2.1,0.5,2.7,1.5c0.9,1.6,2,3.1,2.9,4.7c0.4,0.6,0.8,0.9,1.6,0.9
		c0.6-0.1,1.3,0,1.9,0c0.9,0,1.3,0.5,1.5,1.3c0.1,0.8-0.4,1.2-1,1.4c-1.3,0.5-1.2,0.5-0.6,1.7c0.5,1.1,0.9,2.3,1,3.5
		c0.2,3.6,0.1,7.3,0.2,10.9c0,0.7-0.3,1-1,1c-1.3,0-2.6,0-3.9,0c-0.9,0-1.1-0.4-1.1-1.2c0-1.9,0-1.9-1.9-1.9
		C55.2,73.6,51.8,73.6,48.4,73.6z M48.4,60c4.3,0,8.6,0,12.9,0c1.1,0,1.3-0.3,0.8-1.3c-1.3-2.2-2.7-4.3-4-6.5c-0.5-0.8-1.1-1-1.9-1
		c-5.2,0-10.3,0-15.5,0c-0.9,0-1.5,0.3-2,1.1c-1.3,2.1-2.6,4.2-3.8,6.2c-0.2,0.3-0.3,0.7-0.4,1.1c0.4,0.1,0.8,0.3,1.2,0.3
		C39.9,60,44.2,60,48.4,60z M48.5,70c-1.3,0-2.6,0-3.9,0c-0.8,0-1.1,0.3-1.1,1.1c0,0.8,0.3,1.1,1.1,1.1c2.5,0,5.1,0,7.6,0
		c0.8,0,1-0.4,1-1.1c0-0.7-0.3-1.1-1-1C51,70,49.8,70,48.5,70z M38.7,67.7C38.6,67.6,38.7,67.7,38.7,67.7c0.7,0,1.5,0.3,1.5-0.9
		c0.1-1.3-0.1-1.6-1.3-1.7c-1.7-0.1-3.5-0.3-5.2-0.4c-0.7-0.1-1.3,0-1.3,0.9c0,1.2,0.2,1.6,1.2,1.7C35.3,67.4,36.9,67.5,38.7,67.7z
		 M58,67.7c2-0.2,3.7-0.3,5.4-0.5c0.8-0.1,1.1-0.6,1-1.8c-0.1-0.8-0.5-0.9-1.1-0.8c-1.9,0.2-3.8,0.3-5.7,0.5c-0.6,0.1-1,0.4-1,1
		C56.5,67.6,56.7,67.7,58,67.7z"/>
	<linearGradient id="XMLID_45_" gradientUnits="userSpaceOnUse" x1="28.3951" y1="56.8858" x2="68.4568" y2="16.8241">
		<stop  offset="0" style="stop-color:#122B40"/>
		<stop  offset="1" style="stop-color:#00B1FF"/>
	</linearGradient>
	<path id="XMLID_88_" class="st3" d="M10.9,36.9c0.1-2.7-0.4-2,2-2.9c11.5-4,23.1-7.9,34.7-11.8c0.5-0.2,1.2-0.2,1.7,0
		c11.9,4,23.8,8.1,35.6,12.1c0.7,0.2,1.1,0.6,1,1.4c-0.1,0.8,0,1.6,0,2.4c0,0.2,0.1,0.5,0,0.6c-0.7,1.1-1.8,0.3-2.7,0.5
		c-0.5,0.1-0.9-0.2-0.8-0.7c0.2-1.1-0.4-1.5-1.4-1.8c-10.6-3.6-21.3-7.3-31.9-10.9c-0.4-0.1-0.9-0.2-1.3,0
		c-10.8,3.7-21.6,7.4-32.4,11c-0.7,0.2-1.1,0.6-1,1.4c0.1,0.8-0.3,1-1.1,1C10.9,39.3,10.9,39.3,10.9,36.9z"/>
	<linearGradient id="XMLID_46_" gradientUnits="userSpaceOnUse" x1="40.1748" y1="66.367" x2="56.604" y2="49.9378">
		<stop  offset="0" style="stop-color:#122B40"/>
		<stop  offset="1" style="stop-color:#00B1FF"/>
	</linearGradient>
	<path id="XMLID_87_" class="st4" d="M48.4,60c-4.2,0-8.5,0-12.7,0c-0.4,0-0.8-0.2-1.2-0.3c0.1-0.4,0.2-0.8,0.4-1.1
		c1.3-2.1,2.6-4.2,3.8-6.2c0.5-0.8,1.1-1.1,2-1.1c5.2,0,10.3,0,15.5,0c0.9,0,1.5,0.3,1.9,1c1.3,2.2,2.7,4.3,4,6.5
		c0.6,0.9,0.4,1.3-0.8,1.3C57.1,60,52.8,60,48.4,60z"/>
	<linearGradient id="XMLID_47_" gradientUnits="userSpaceOnUse" x1="45.3537" y1="74.1485" x2="51.5273" y2="67.9749">
		<stop  offset="0" style="stop-color:#122B40"/>
		<stop  offset="1" style="stop-color:#00B1FF"/>
	</linearGradient>
	<path id="XMLID_86_" class="st5" d="M48.5,70c1.3,0,2.5,0,3.8,0c0.7,0,1,0.3,1,1c0,0.7-0.2,1.1-1,1.1c-2.5,0-5.1,0-7.6,0
		c-0.8,0-1.1-0.3-1.1-1.1c0-0.8,0.3-1.1,1.1-1.1C46,70,47.2,70,48.5,70z"/>
	<linearGradient id="XMLID_48_" gradientUnits="userSpaceOnUse" x1="33.8278" y1="68.6931" x2="38.9329" y2="63.588">
		<stop  offset="0" style="stop-color:#122B40"/>
		<stop  offset="1" style="stop-color:#00B1FF"/>
	</linearGradient>
	<path id="XMLID_85_" class="st6" d="M38.7,67.7c-1.8-0.2-3.5-0.3-5.1-0.4c-1-0.1-1.2-0.5-1.2-1.7c0-1,0.6-1,1.3-0.9
		c1.7,0.2,3.5,0.3,5.2,0.4c1.2,0.1,1.4,0.4,1.3,1.7C40.2,67.9,39.5,67.7,38.7,67.7C38.7,67.7,38.6,67.6,38.7,67.7z"/>
	<linearGradient id="XMLID_49_" gradientUnits="userSpaceOnUse" x1="57.6102" y1="69.0308" x2="63.3682" y2="63.2728">
		<stop  offset="0" style="stop-color:#122B40"/>
		<stop  offset="1" style="stop-color:#00B1FF"/>
	</linearGradient>
	<path id="XMLID_84_" class="st7" d="M58,67.7c-1.4,0.1-1.6-0.1-1.4-1.6c0-0.7,0.4-1,1-1c1.9-0.2,3.8-0.3,5.7-0.5
		c0.6-0.1,1.1,0.1,1.1,0.8c0.1,1.2-0.1,1.7-1,1.8C61.7,67.4,60.1,67.5,58,67.7z"/>
</g>
</svg>
