<?xml version="1.0" encoding="utf-8"?>
<!-- Generator: Adobe Illustrator 19.0.0, SVG Export Plug-In . SVG Version: 6.00 Build 0)  -->
<svg version="1.1" id="Capa_1" xmlns="http://www.w3.org/2000/svg"  x="0px" y="0px"
	 viewBox="-249 373.7 95.2 95.2" style="enable-background:new -249 373.7 95.2 95.2;" xml:space="preserve">
<style type="text/css">
	.st0{fill:none;stroke:#122B40;stroke-miterlimit:10;}
	.st1{fill:#74ACDF;stroke:#122B40;stroke-miterlimit:10;}
</style>
<g id="XMLID_40_">
	<path id="XMLID_96_" class="st0" d="M-201.4,416c9,0,17.9,0,26.9,0c1.8,0,1.8,0,1.8,2c0,12.5,0,25,0,37.5c0,1.9,0,1.9,1.7,1.9
		c2.5,0,4.9,0,7.4,0c1,0,1.2-0.4,1.2-1.3c0-15.9,0-31.8,0-47.8c0-0.8-0.2-1.3-1-1.6c-11.7-4.2-23.3-8.5-34.9-13
		c-2.2-0.8-4.2-0.8-6.4,0c-11.5,4.4-23.2,8.6-34.8,12.9c-0.7,0.3-1.1,0.7-1.1,1.6c0,15.9,0,31.8,0,47.8c0,0.9,0.2,1.3,1.2,1.3
		c2.5,0,4.9,0,7.4,0c1.7,0,1.7,0,1.7-1.9c0-12.6,0-25.2,0-37.8c0-1.3,0.4-1.7,1.6-1.7C-219.5,416-210.4,416-201.4,416z
		 M-201.4,453.4c4.2,0,8.4,0,12.5,0c2.3,0,2.3,0,2.3,2.5c0,1.1,0.4,1.6,1.4,1.6c1.6,0,3.2,0,4.8,0c0.9,0,1.2-0.4,1.2-1.3
		c0-4.8,0-9.7-0.2-14.4c-0.1-1.6-0.6-3.2-1.2-4.6c-0.6-1.7-0.7-1.7,0.9-2.4c0.9-0.3,1.5-0.8,1.2-1.9c-0.1-1.1-0.7-1.7-1.8-1.7
		c-0.7,0-1.6-0.1-2.3,0c-0.9,0.1-1.5-0.3-2-1.2c-1.1-2.1-2.3-4.1-3.6-6.2c-0.7-1.3-1.8-2-3.3-2c-6.6,0-13.3,0-19.9,0
		c-1.5,0-2.6,0.7-3.3,2c-0.9,1.6-2,3-2.7,4.8c-0.9,2.1-2.2,2.9-4.4,2.7c-1.7-0.3-2.5,0.4-2.6,1.6c-0.1,1.6,1,1.9,2,2.1
		c1,0.3,0.9,0.7,0.5,1.5c-0.5,1.1-1.1,2.1-1.2,3.2c-0.2,5.6-0.4,11.1-0.5,16.7c0,0.4,0.6,0.9,1,1.1c1.7,0.1,3.6,0.1,5.3,0
		c0.4,0,0.7-0.7,1-1.1c0.1-0.3,0.1-0.8,0-1.2c-0.1-1.3,0.2-1.7,1.5-1.7C-210.3,453.4-205.8,453.4-201.4,453.4z M-247.5,404.8
		c0,3.2,0,3.2,2.9,3.2c1,0,1.5-0.3,1.4-1.3s0.2-1.6,1.2-1.9c13.3-4.9,26.5-9.8,39.8-14.6c0.5-0.1,1.1-0.1,1.6,0
		c13,4.8,26,9.7,39.2,14.4c1.2,0.4,2,0.9,1.7,2.4c-0.1,0.8,0.4,1.2,1,0.9c1.1-0.3,2.5,0.8,3.3-0.7c0.1-0.1,0-0.5,0-0.8
		c0-1.1-0.1-2.1,0-3.2c0.1-1.1-0.4-1.5-1.2-1.9c-14.6-5.3-29.2-10.7-43.7-16c-0.6-0.3-1.5-0.3-2.1,0c-14.2,5-28.4,10.3-42.6,15.5
		C-248,402.1-247.4,401.2-247.5,404.8z"/>
	<path id="XMLID_95_" class="st0" d="M-201.4,416c-9.1,0-18.1,0-27.1,0c-1.2,0-1.6,0.4-1.6,1.7c0,12.6,0,25.2,0,37.8
		c0,1.9,0,1.9-1.7,1.9c-2.5,0-4.9,0-7.4,0c-1,0-1.2-0.4-1.2-1.3c0-15.9,0-31.8,0-47.8c0-0.9,0.4-1.3,1.1-1.6
		c11.5-4.2,23.2-8.5,34.8-12.9c2.2-0.8,4.2-0.8,6.4,0c11.5,4.4,23.2,8.6,34.9,13c0.7,0.3,1,0.7,1,1.6c0,15.9,0,31.8,0,47.8
		c0,0.9-0.2,1.3-1.2,1.3c-2.5,0-4.9,0-7.4,0c-1.7,0-1.7,0-1.7-1.9c0-12.5,0-25,0-37.5c0-2,0-2-1.8-2C-183.5,416-192.5,416-201.4,416
		z"/>
	<path id="XMLID_89_" class="st1" d="M-201.4,453.4c-4.4,0-9,0-13.4,0c-1.2,0-1.7,0.4-1.5,1.7c0,0.4,0.1,0.9,0,1.2
		c-0.2,0.4-0.6,1.1-1,1.1c-1.7,0.1-3.6,0.1-5.3,0c-0.4,0-1-0.7-1-1.1c0.1-5.6,0.2-11.1,0.5-16.7c0-1.1,0.7-2.1,1.2-3.2
		c0.4-0.8,0.5-1.2-0.5-1.5c-1-0.3-2.1-0.5-2-2.1c0.1-1.2,0.9-1.9,2.6-1.6c2.2,0.3,3.4-0.5,4.4-2.7c0.7-1.7,1.8-3.2,2.7-4.8
		c0.7-1.3,1.8-2,3.3-2c6.6,0,13.3,0,19.9,0c1.5,0,2.6,0.7,3.3,2c1.1,2.1,2.5,4.1,3.6,6.2c0.5,0.8,1,1.2,2,1.2c0.7-0.1,1.6,0,2.3,0
		c1.1,0,1.6,0.7,1.8,1.7c0.1,1.1-0.5,1.6-1.2,1.9c-1.6,0.7-1.5,0.7-0.7,2.3c0.6,1.5,1.1,3,1.2,4.6c0.2,4.8,0.1,9.7,0.2,14.4
		c0,0.9-0.4,1.3-1.2,1.3c-1.6,0-3.2,0-4.8,0c-1.1,0-1.4-0.5-1.4-1.6c0-2.5,0-2.5-2.3-2.5C-193.1,453.4-197.3,453.4-201.4,453.4z
		 M-201.4,435.4c5.3,0,10.6,0,15.8,0c1.4,0,1.6-0.4,1-1.7c-1.6-2.9-3.3-5.7-4.9-8.6c-0.6-1.1-1.4-1.3-2.3-1.3c-6.4,0-12.7,0-19,0
		c-1.1,0-1.8,0.4-2.5,1.5c-1.6,2.8-3.2,5.6-4.7,8.2c-0.2,0.4-0.4,0.9-0.5,1.5c0.5,0.1,1,0.4,1.5,0.4
		C-211.9,435.4-206.6,435.4-201.4,435.4z M-201.3,448.6c-1.6,0-3.2,0-4.8,0c-1,0-1.4,0.4-1.4,1.5c0,1.1,0.4,1.5,1.4,1.5
		c3.1,0,6.3,0,9.3,0c1,0,1.2-0.5,1.2-1.5c0-0.9-0.4-1.5-1.2-1.3C-198.2,448.6-199.7,448.6-201.3,448.6z M-213.3,445.6
		C-213.5,445.4-213.3,445.6-213.3,445.6c0.9,0,1.8,0.4,1.8-1.2c0.1-1.7-0.1-2.1-1.6-2.3c-2.1-0.1-4.3-0.4-6.4-0.5
		c-0.9-0.1-1.6,0-1.6,1.2c0,1.6,0.2,2.1,1.5,2.3C-217.5,445.2-215.6,445.3-213.3,445.6z M-189.6,445.6c2.5-0.3,4.5-0.4,6.6-0.7
		c1-0.1,1.4-0.8,1.2-2.4c-0.1-1.1-0.6-1.2-1.4-1.1c-2.3,0.3-4.7,0.4-7,0.7c-0.7,0.1-1.2,0.5-1.2,1.3
		C-191.5,445.4-191.2,445.6-189.6,445.6z"/>
	<path id="XMLID_88_" class="st0" d="M-247.5,404.8c0.1-3.6-0.5-2.7,2.5-3.8c14.1-5.3,28.4-10.5,42.6-15.6c0.6-0.3,1.5-0.3,2.1,0
		c14.6,5.3,29.2,10.7,43.7,16c0.9,0.3,1.4,0.8,1.2,1.9c-0.1,1.1,0,2.1,0,3.2c0,0.3,0.1,0.7,0,0.8c-0.9,1.5-2.2,0.4-3.3,0.7
		c-0.6,0.1-1.1-0.3-1-0.9c0.2-1.5-0.5-2-1.7-2.4c-13-4.8-26.2-9.7-39.2-14.4c-0.5-0.1-1.1-0.3-1.6,0c-13.3,4.9-26.5,9.8-39.8,14.6
		c-0.9,0.3-1.4,0.8-1.2,1.9s-0.4,1.3-1.4,1.3C-247.5,407.9-247.5,407.9-247.5,404.8z"/>
	<path id="XMLID_87_" class="st0" d="M-201.4,435.4c-5.2,0-10.4,0-15.6,0c-0.5,0-1-0.3-1.5-0.4c0.1-0.5,0.2-1.1,0.5-1.5
		c1.6-2.8,3.2-5.6,4.7-8.2c0.6-1.1,1.4-1.5,2.5-1.5c6.4,0,12.7,0,19,0c1.1,0,1.8,0.4,2.3,1.3c1.6,2.9,3.3,5.7,4.9,8.6
		c0.7,1.2,0.5,1.7-1,1.7C-190.7,435.4-196,435.4-201.4,435.4z"/>
	<path id="XMLID_86_" class="st0" d="M-201.3,448.6c1.6,0,3.1,0,4.7,0c0.9,0,1.2,0.4,1.2,1.3c0,0.9-0.2,1.5-1.2,1.5
		c-3.1,0-6.3,0-9.3,0c-1,0-1.4-0.4-1.4-1.5c0-1.1,0.4-1.5,1.4-1.5C-204.4,448.6-202.9,448.6-201.3,448.6z"/>
	<path id="XMLID_85_" class="st0" d="M-213.3,445.6c-2.2-0.3-4.3-0.4-6.3-0.5c-1.2-0.1-1.5-0.7-1.5-2.3c0-1.3,0.7-1.3,1.6-1.2
		c2.1,0.3,4.3,0.4,6.4,0.5c1.5,0.1,1.7,0.5,1.6,2.3C-211.5,445.8-212.4,445.6-213.3,445.6C-213.3,445.6-213.5,445.4-213.3,445.6z"/>
	<path id="XMLID_84_" class="st0" d="M-189.6,445.6c-1.7,0.1-2-0.1-1.7-2.1c0-0.9,0.5-1.3,1.2-1.3c2.3-0.3,4.7-0.4,7-0.7
		c0.7-0.1,1.4,0.1,1.4,1.1c0.1,1.6-0.1,2.3-1.2,2.4C-185.1,445.2-187.1,445.3-189.6,445.6z"/>
</g>
</svg>
