<?xml version="1.0" encoding="utf-8"?>
<!-- Generator: Adobe Illustrator 21.1.0, SVG Export Plug-In . SVG Version: 6.00 Build 0)  -->
<svg version="1.1" id="Capa_1" xmlns="http://www.w3.org/2000/svg"  x="0px" y="0px"
	 viewBox="0 0 512 512" style="enable-background:new 0 0 512 512;" xml:space="preserve">
<style type="text/css">
	.st0{fill:#AFAFAF;}
	.st1{fill:#FFFFFF;}
</style>
<g>
	<path id="Facebook_Places" class="st0" d="M424,127.4c-1.8-6.8-5.5-14.1-8.3-20.5C383,28.2,311.4,0,253.6,0
		C176.2,0,91,51.9,79.6,158.8v21.8c0,0.9,0.3,9.1,0.8,13.2C86.8,244.8,127,299,157,350c32.3,54.6,65.8,108.3,99.1,162
		c20.5-35,40.9-70.5,60.9-104.7c5.5-10,11.8-20,17.2-29.6c3.6-6.4,10.6-12.7,13.8-18.7c32.3-59.2,84.3-118.8,84.3-177.5v-24.1
		C432.4,151.1,424.5,128.8,424,127.4z"/>
</g>
<circle class="st1" cx="256" cy="171.8" r="65.3"/>
</svg>
