<?xml version="1.0" encoding="iso-8859-1"?>
<!-- Generator: Adobe Illustrator 19.0.0, SVG Export Plug-In . SVG Version: 6.00 Build 0)  -->
<svg xmlns="http://www.w3.org/2000/svg"  version="1.1" id="Layer_1" x="0px" y="0px" viewBox="0 0 512 512" style="enable-background:new 0 0 512 512;" xml:space="preserve" width="512px" height="512px">
<g>
	<g>
		<g>
			<path d="M320.025,140.323c-22.202-3.042-46.303-1.972-69.694,3.096c-5.757,1.248-9.413,6.927-8.165,12.685     c1.084,4.996,5.502,8.409,10.415,8.409c0.748,0,1.508-0.079,2.27-0.244c20.981-4.548,42.514-5.519,62.279-2.812     c5.84,0.802,11.216-3.284,12.016-9.12C329.945,146.502,325.862,141.123,320.025,140.323z" fill="#74acdf"/>
			<path d="M397.769,195.574c-5.166,2.832-7.056,9.316-4.223,14.481c0.842,1.535,1.643,3.092,2.38,4.629     c1.836,3.822,5.649,6.051,9.623,6.051c1.548,0,3.121-0.338,4.61-1.053c5.31-2.55,7.548-8.922,4.997-14.233     c-0.903-1.88-1.882-3.782-2.908-5.652C409.416,194.628,402.929,192.742,397.769,195.574z" fill="#74acdf"/>
			<path d="M413.572,230.932c-5.837,0.806-9.913,6.191-9.107,12.025c3.544,25.653-3.278,51.105-19.211,71.67     c-3.607,4.656-2.757,11.357,1.9,14.964c1.943,1.506,4.243,2.235,6.525,2.235c3.185,0,6.337-1.421,8.439-4.134     c19.477-25.139,27.815-56.269,23.48-87.654C424.79,234.202,419.404,230.135,413.572,230.932z" fill="#74acdf"/>
			<path d="M480.16,224c-4.595,0-8.959,0.991-12.909,2.758c-5.767-33.991-21.845-63.141-47.346-85.386     c-25.084-21.882-57.982-36.346-95.882-42.285c1.475-4.318,2.287-8.938,2.287-13.749c0-23.526-19.14-42.665-42.666-42.665     c-23.526,0-42.666,19.139-42.666,42.665c0,4.935,0.852,9.672,2.401,14.086c-17.904,2.874-35.139,7.55-51.466,13.981     l-54.042-46.797c-3.01-2.606-7.222-3.317-10.922-1.849c-3.701,1.472-6.274,4.882-6.673,8.845l-7.147,71.022     c-30.875,17.48-50.471,42.812-59.818,77.272c-5.337,19.68-8.73,20.822-19.673,21.746c-16.804,1.414-24.941,8.63-28.809,14.434     c-5.603,8.409-6.335,19.227-2.177,32.157l12.393,38.527c5.825,18.102,16.617,21.901,24.645,21.901h11.856     c27.571,35.893,53.155,44.429,86.464,52.733c-1.072,13.705-2.942,29.95-4.759,44.596h-27.243     c-5.891,0-10.666,4.776-10.666,10.666s4.775,10.666,10.666,10.666h36.652h58.669h18.327c5.891,0,10.667-4.776,10.667-10.666     s-4.775-10.666-10.667-10.666h-4.073l6.603-22.472c25.591,3.967,51.962,2.132,84.739-5.882c0.132,1.148,0.268,2.308,0.405,3.484     c1.276,10.912,2.723,23.279,2.437,35.284c-0.068,2.871,1.025,5.65,3.032,7.705c2.007,2.055,4.758,3.215,7.631,3.215h62.163     h36.653c5.89,0,10.667-4.776,10.667-10.667c0-5.89-4.776-10.666-10.667-10.666h-23.348c9.571-38.716,27.485-77.785,40.266-94.285     c21.909-28.289,33.488-62.076,33.488-97.711c0-5.881,4.712-10.665,10.505-10.665c5.794,0,10.508,4.784,10.508,10.665     c0,2.823-1.132,5.582-3.104,7.571c-4.15,4.181-4.124,10.934,0.058,15.085c2.08,2.065,4.797,3.095,7.513,3.095     c2.742,0,5.486-1.052,7.571-3.153c5.995-6.039,9.296-14.065,9.296-22.598C512,238.355,497.717,224,480.16,224z M283.645,64.007     c11.763,0,21.333,9.57,21.333,21.332c0,11.763-9.57,21.333-21.333,21.333s-21.333-9.57-21.333-21.333     C262.312,73.577,271.882,64.007,283.645,64.007z M419.301,340.646c-17.026,21.977-36.177,67.697-45.327,107.348h-42.989     c-0.394-9.626-1.478-18.899-2.467-27.349c-0.639-5.459-1.242-10.616-1.586-15.264c-0.237-3.183-1.886-6.094-4.497-7.932     c-2.61-1.839-5.907-2.406-8.983-1.559c-39.445,10.909-68.323,12.992-96.567,6.971c-5.46-1.163-10.885,2.074-12.458,7.425     l-11.08,37.707h-38.598c2.166-17.64,4.343-37.25,5.157-52.24c0.278-5.127-3.135-9.725-8.124-10.942     c-37.203-9.071-59.658-14.547-86.268-51.092c-2.007-2.756-5.213-4.387-8.623-4.387H39.692c-1.515,0-3.283-3.827-4.337-7.103     l-12.393-38.525c-2.01-6.248-2.144-11.146-0.378-13.796c1.787-2.682,6.349-4.46,12.848-5.006     c24.368-2.056,32.32-14.737,38.471-37.419c10.929-40.292,36.156-57.362,54.181-66.697c3.2-1.658,5.347-4.819,5.709-8.404     l5.654-56.191l43.465,37.638c3.084,2.67,7.421,3.351,11.173,1.745c19.426-8.302,41.255-13.999,63.402-16.565     c7.23,5.63,16.306,8.997,26.158,8.997c9.99,0,19.184-3.461,26.462-9.235c67.663,7.403,138.215,47.041,138.215,137.228     C448.323,286.861,438.288,316.131,419.301,340.646z" fill="#74acdf"/>
			<path d="M127.457,213.259c-5.877,0-10.667,4.794-10.667,10.669c0,5.874,4.79,10.665,10.667,10.665     c5.875,0,10.666-4.791,10.666-10.665C138.124,218.052,133.332,213.259,127.457,213.259z" fill="#74acdf"/>
			<path d="M285.357,447.994h-9.954c-5.89,0-10.666,4.776-10.666,10.666s4.776,10.667,10.666,10.667h9.954     c5.89,0,10.666-4.776,10.666-10.667C296.024,452.77,291.248,447.994,285.357,447.994z" fill="#74acdf"/>
		</g>
	</g>
</g>
<g>
</g>
<g>
</g>
<g>
</g>
<g>
</g>
<g>
</g>
<g>
</g>
<g>
</g>
<g>
</g>
<g>
</g>
<g>
</g>
<g>
</g>
<g>
</g>
<g>
</g>
<g>
</g>
<g>
</g>
</svg>
