<?xml version="1.0" encoding="iso-8859-1"?>
<!-- Generator: Adobe Illustrator 16.0.0, SVG Export Plug-In . SVG Version: 6.00 Build 0)  -->
<!DOCTYPE svg PUBLIC "-//W3C//DTD SVG 1.1//EN" "http://www.w3.org/Graphics/SVG/1.1/DTD/svg11.dtd">
<svg xmlns="http://www.w3.org/2000/svg"  version="1.1" id="Capa_1" x="0px" y="0px" width="512px" height="512px" viewBox="0 0 61.094 61.094" style="enable-background:new 0 0 61.094 61.094;" xml:space="preserve">
<g>
	<g>
		<path d="M8.803,28.594c-0.217,0-0.36,0.108-0.43,0.323c-0.07,0.215-0.105,0.545-0.105,0.995c0,0.426,0.034,0.752,0.105,0.979    c0.071,0.226,0.213,0.34,0.43,0.34s0.358-0.114,0.426-0.34c0.067-0.227,0.101-0.553,0.101-0.979c0-0.448-0.033-0.779-0.101-0.995    C9.161,28.702,9.021,28.594,8.803,28.594z" fill="#74acdf"/>
		<path d="M8.896,37.034l-0.135,0.024c-0.126,0.022-0.216,0.049-0.271,0.082c-0.093,0.053-0.14,0.137-0.14,0.25    c0,0.101,0.028,0.173,0.085,0.218c0.057,0.045,0.126,0.067,0.208,0.067c0.128,0,0.247-0.037,0.356-0.111    c0.108-0.074,0.165-0.211,0.169-0.408v-0.218c-0.038,0.022-0.076,0.042-0.114,0.056S8.962,37.021,8.896,37.034z" fill="#74acdf"/>
		<path d="M14.634,31.229c0.217,0,0.358-0.114,0.426-0.34c0.066-0.227,0.101-0.553,0.101-0.98c0-0.446-0.033-0.777-0.101-0.993    c-0.068-0.215-0.209-0.323-0.426-0.323s-0.361,0.108-0.43,0.323c-0.07,0.215-0.105,0.545-0.105,0.993    c0,0.428,0.035,0.754,0.105,0.98C14.274,31.115,14.417,31.229,14.634,31.229z" fill="#74acdf"/>
		<path d="M14.974,36.204c-0.151,0-0.269,0.043-0.353,0.129c-0.083,0.087-0.135,0.202-0.157,0.35h1.015    c-0.011-0.156-0.063-0.275-0.157-0.357C15.229,36.245,15.112,36.204,14.974,36.204z" fill="#74acdf"/>
		<path d="M20.463,28.594c-0.216,0-0.36,0.108-0.43,0.323c-0.07,0.215-0.105,0.545-0.105,0.995c0,0.426,0.034,0.752,0.105,0.979    c0.07,0.226,0.214,0.34,0.43,0.34c0.217,0,0.358-0.114,0.426-0.34c0.067-0.227,0.1-0.553,0.1-0.979c0-0.448-0.033-0.779-0.1-0.995    C20.822,28.702,20.681,28.594,20.463,28.594z" fill="#74acdf"/>
		<path d="M26.294,31.229c0.217,0,0.358-0.114,0.426-0.34c0.066-0.227,0.1-0.553,0.1-0.98c0-0.446-0.034-0.777-0.1-0.993    c-0.068-0.215-0.209-0.323-0.426-0.323s-0.36,0.108-0.43,0.323c-0.07,0.215-0.105,0.545-0.105,0.993    c0,0.428,0.034,0.754,0.105,0.98C25.936,31.116,26.078,31.229,26.294,31.229z" fill="#74acdf"/>
		<path d="M11.719,31.229c0.217,0,0.358-0.114,0.426-0.34c0.066-0.227,0.101-0.553,0.101-0.98c0-0.446-0.034-0.777-0.101-0.993    c-0.068-0.215-0.209-0.323-0.426-0.323s-0.361,0.108-0.43,0.323c-0.07,0.215-0.105,0.545-0.105,0.993    c0,0.428,0.035,0.754,0.105,0.98C11.359,31.115,11.502,31.229,11.719,31.229z" fill="#74acdf"/>
		<path d="M5.887,31.229c0.217,0,0.358-0.114,0.426-0.34c0.067-0.227,0.101-0.553,0.101-0.98c0-0.446-0.033-0.777-0.101-0.993    c-0.068-0.215-0.209-0.323-0.426-0.323c-0.216,0-0.36,0.108-0.43,0.323c-0.07,0.215-0.105,0.545-0.105,0.993    c0,0.428,0.035,0.754,0.105,0.98C5.528,31.115,5.671,31.229,5.887,31.229z" fill="#74acdf"/>
		<polygon points="42.999,36.902 49.512,36.902 49.512,36.789 49.512,30.263 42.999,30.263 42.999,36.789   " fill="#74acdf"/>
		<path d="M29.21,28.594c-0.217,0-0.361,0.108-0.43,0.323c-0.07,0.215-0.105,0.545-0.105,0.995c0,0.426,0.035,0.752,0.105,0.979    c0.069,0.226,0.213,0.34,0.43,0.34s0.358-0.114,0.426-0.34c0.066-0.227,0.1-0.553,0.1-0.979c0-0.448-0.034-0.779-0.1-0.995    C29.568,28.702,29.428,28.594,29.21,28.594z" fill="#74acdf"/>
		<path d="M23.379,28.594c-0.217,0-0.36,0.108-0.43,0.323c-0.07,0.215-0.105,0.545-0.105,0.995c0,0.426,0.035,0.752,0.105,0.979    c0.07,0.226,0.213,0.34,0.43,0.34s0.358-0.114,0.426-0.34c0.067-0.227,0.1-0.553,0.1-0.979c0-0.448-0.033-0.779-0.1-0.995    C23.737,28.702,23.597,28.594,23.379,28.594z" fill="#74acdf"/>
		<path d="M29.173,36.204c-0.151,0-0.269,0.043-0.352,0.129c-0.083,0.087-0.136,0.202-0.158,0.35h1.015    c-0.01-0.156-0.063-0.275-0.157-0.357C29.428,36.245,29.311,36.204,29.173,36.204z" fill="#74acdf"/>
		<path d="M23.095,37.034l-0.134,0.024c-0.125,0.022-0.216,0.049-0.271,0.082c-0.093,0.053-0.14,0.137-0.14,0.25    c0,0.101,0.028,0.173,0.085,0.218c0.056,0.045,0.126,0.067,0.207,0.067c0.128,0,0.248-0.037,0.356-0.111    c0.108-0.074,0.165-0.211,0.168-0.408v-0.218c-0.037,0.022-0.076,0.042-0.114,0.056S23.161,37.021,23.095,37.034z" fill="#74acdf"/>
		<path d="M61.094,38.703V7.864c0-2.255-1.811-4.09-4.036-4.09H4.037C1.81,3.774,0,5.608,0,7.864v30.839    c0,2.255,1.81,4.089,4.037,4.089h30.796V41.75v-1.042v-2.244v-1.562h1.562h0.034v-0.113v-6.867c0-3.435,2.794-6.229,6.228-6.229    h7.196c3.433,0,6.227,2.794,6.227,6.229v6.867v0.113h0.263h1.562v1.562V40.5v1.11v1.086    C59.725,42.301,61.094,40.663,61.094,38.703z M28.885,37.546c0.09,0.056,0.199,0.084,0.325,0.084c0.134,0,0.243-0.035,0.327-0.103    c0.045-0.038,0.086-0.09,0.122-0.156h0.601c-0.016,0.135-0.088,0.271-0.219,0.407c-0.202,0.22-0.484,0.328-0.848,0.328    c-0.3,0-0.565-0.093-0.794-0.276c-0.229-0.185-0.344-0.485-0.344-0.902c0-0.391,0.104-0.689,0.311-0.897    c0.207-0.209,0.475-0.313,0.806-0.313c0.196,0,0.373,0.036,0.53,0.106c0.158,0.07,0.288,0.182,0.39,0.333    c0.093,0.135,0.152,0.29,0.18,0.467c0.015,0.104,0.023,0.253,0.019,0.447H28.65C28.658,37.296,28.737,37.456,28.885,37.546z     M30.205,31.327c-0.19,0.33-0.521,0.497-0.993,0.497c-0.473,0-0.804-0.167-0.995-0.497c-0.191-0.331-0.286-0.803-0.286-1.415    c0-0.614,0.095-1.086,0.286-1.418c0.19-0.333,0.521-0.5,0.995-0.5c0.472,0,0.803,0.166,0.993,0.5    c0.191,0.332,0.286,0.805,0.286,1.418C30.491,30.524,30.396,30.996,30.205,31.327z M27.042,36.387    c-0.052-0.105-0.149-0.158-0.29-0.158c-0.163,0-0.275,0.068-0.336,0.203c-0.032,0.073-0.048,0.157-0.048,0.258v1.343h-0.593V36.69    c0-0.132-0.014-0.23-0.042-0.291c-0.05-0.109-0.146-0.163-0.292-0.163c-0.168,0-0.281,0.054-0.34,0.163    c-0.031,0.062-0.048,0.155-0.048,0.277v1.356h-0.597v-2.25h0.572v0.33c0.073-0.116,0.142-0.202,0.207-0.251    c0.115-0.087,0.263-0.132,0.445-0.132c0.172,0,0.311,0.038,0.417,0.114c0.085,0.068,0.15,0.16,0.194,0.271    c0.077-0.133,0.173-0.229,0.287-0.291c0.121-0.062,0.256-0.094,0.406-0.094c0.099,0,0.197,0.02,0.294,0.058    c0.096,0.038,0.184,0.106,0.262,0.203c0.063,0.079,0.106,0.175,0.128,0.289c0.013,0.077,0.021,0.187,0.021,0.334l-0.004,1.419    h-0.604v-1.435C27.084,36.511,27.071,36.442,27.042,36.387z M23.271,36.25c-0.064-0.034-0.16-0.052-0.286-0.052    c-0.142,0-0.242,0.035-0.3,0.103c-0.042,0.052-0.069,0.12-0.083,0.208h-0.569c0.012-0.197,0.067-0.36,0.166-0.487    c0.156-0.198,0.424-0.298,0.805-0.298c0.248,0,0.468,0.049,0.661,0.147c0.192,0.098,0.288,0.281,0.288,0.554v1.034    c0,0.071,0.001,0.157,0.005,0.26c0.004,0.077,0.015,0.129,0.035,0.157c0.019,0.028,0.048,0.05,0.087,0.067v0.087h-0.641    c-0.018-0.047-0.03-0.089-0.038-0.128c-0.007-0.041-0.013-0.086-0.017-0.137c-0.083,0.088-0.176,0.163-0.283,0.225    c-0.127,0.072-0.271,0.109-0.432,0.109c-0.205,0-0.375-0.058-0.508-0.175c-0.133-0.116-0.201-0.281-0.201-0.494    c0-0.278,0.107-0.479,0.322-0.603c0.118-0.068,0.292-0.116,0.521-0.145l0.203-0.025c0.109-0.014,0.187-0.031,0.235-0.052    c0.084-0.035,0.126-0.092,0.126-0.167C23.368,36.35,23.336,36.288,23.271,36.25z M23.379,31.824c-0.473,0-0.804-0.167-0.995-0.497    c-0.191-0.331-0.286-0.803-0.286-1.415c0-0.614,0.095-1.086,0.286-1.418c0.19-0.333,0.521-0.5,0.995-0.5    c0.472,0,0.803,0.166,0.994,0.5c0.19,0.332,0.285,0.805,0.285,1.418c0,0.612-0.095,1.084-0.285,1.415    C24.183,31.657,23.852,31.824,23.379,31.824z M25.014,29.912c0-0.614,0.095-1.086,0.286-1.418c0.19-0.333,0.521-0.5,0.995-0.5    c0.472,0,0.803,0.166,0.994,0.5c0.191,0.332,0.286,0.805,0.286,1.418c0,0.612-0.095,1.084-0.286,1.415    c-0.19,0.33-0.521,0.497-0.994,0.497c-0.473,0-0.804-0.167-0.995-0.497C25.109,30.996,25.014,30.524,25.014,29.912z     M21.458,31.327c-0.19,0.33-0.522,0.497-0.994,0.497c-0.473,0-0.804-0.167-0.995-0.497c-0.191-0.331-0.285-0.803-0.285-1.415    c0-0.614,0.094-1.086,0.285-1.418c0.191-0.333,0.522-0.5,0.995-0.5c0.472,0,0.803,0.166,0.994,0.5    c0.19,0.332,0.286,0.805,0.286,1.418C21.744,30.524,21.648,30.996,21.458,31.327z M21.564,34.985v3.046h-0.637l-1.24-2.162v2.162    h-0.594v-3.046h0.668l1.209,2.124v-2.124H21.564z M14.686,37.546c0.089,0.056,0.199,0.084,0.325,0.084    c0.135,0,0.244-0.035,0.327-0.103c0.046-0.038,0.087-0.09,0.122-0.156h0.602c-0.016,0.135-0.089,0.271-0.219,0.407    c-0.203,0.22-0.485,0.328-0.848,0.328c-0.3,0-0.564-0.093-0.794-0.276c-0.229-0.185-0.344-0.485-0.344-0.902    c0-0.391,0.104-0.689,0.311-0.897c0.208-0.209,0.475-0.313,0.807-0.313c0.196,0,0.373,0.036,0.53,0.106s0.288,0.182,0.39,0.333    c0.093,0.135,0.152,0.29,0.179,0.467c0.016,0.104,0.023,0.253,0.02,0.447h-1.641C14.459,37.296,14.539,37.456,14.686,37.546z     M12.843,36.387c-0.052-0.105-0.148-0.158-0.29-0.158c-0.162,0-0.275,0.068-0.336,0.203c-0.032,0.073-0.048,0.157-0.048,0.258    v1.343h-0.593V36.69c0-0.132-0.014-0.23-0.042-0.291c-0.05-0.109-0.147-0.163-0.292-0.163c-0.168,0-0.281,0.054-0.34,0.163    c-0.031,0.062-0.047,0.155-0.047,0.277v1.356h-0.598v-2.25h0.573v0.33c0.073-0.116,0.142-0.202,0.206-0.251    c0.115-0.087,0.263-0.132,0.445-0.132c0.172,0,0.311,0.038,0.417,0.114c0.085,0.068,0.15,0.16,0.194,0.271    c0.077-0.133,0.173-0.229,0.287-0.291c0.121-0.062,0.256-0.094,0.406-0.094c0.099,0,0.197,0.02,0.293,0.058    c0.096,0.038,0.184,0.106,0.262,0.203c0.063,0.079,0.106,0.175,0.128,0.289c0.014,0.077,0.021,0.187,0.021,0.334l-0.004,1.419    h-0.604v-1.435C12.885,36.511,12.872,36.442,12.843,36.387z M9.073,36.25c-0.065-0.034-0.161-0.052-0.287-0.052    c-0.142,0-0.242,0.035-0.3,0.103c-0.042,0.052-0.07,0.12-0.083,0.208H7.834c0.012-0.197,0.067-0.36,0.165-0.487    c0.156-0.198,0.425-0.298,0.805-0.298c0.249,0,0.468,0.049,0.661,0.147c0.193,0.098,0.289,0.281,0.289,0.554v1.034    c0,0.071,0.001,0.157,0.004,0.26c0.004,0.077,0.016,0.129,0.036,0.157c0.019,0.028,0.048,0.05,0.086,0.067v0.087H9.239    c-0.018-0.047-0.03-0.089-0.037-0.128c-0.008-0.041-0.013-0.086-0.017-0.137c-0.082,0.088-0.176,0.163-0.282,0.225    C8.776,38.063,8.631,38.1,8.471,38.1c-0.206,0-0.375-0.058-0.508-0.175c-0.134-0.116-0.201-0.281-0.201-0.494    c0-0.278,0.107-0.479,0.323-0.603c0.118-0.068,0.292-0.116,0.521-0.145l0.202-0.025c0.109-0.014,0.188-0.031,0.236-0.052    c0.084-0.035,0.127-0.092,0.127-0.167C9.169,36.35,9.138,36.288,9.073,36.25z M9.798,31.327c-0.191,0.33-0.522,0.497-0.994,0.497    c-0.473,0-0.804-0.167-0.995-0.497c-0.19-0.331-0.286-0.803-0.286-1.415c0-0.614,0.095-1.086,0.286-1.418    c0.19-0.333,0.522-0.5,0.995-0.5c0.472,0,0.803,0.166,0.994,0.5c0.19,0.332,0.285,0.805,0.285,1.418    C10.083,30.524,9.988,30.996,9.798,31.327z M6.388,19.354V17.18h2.208v2.225H6.393C6.393,19.387,6.388,19.371,6.388,19.354z     M14.982,19.354c0,0.017-0.005,0.033-0.005,0.051h-2.204V17.18h2.208V19.354z M12.773,20.549h1.967    c-0.357,0.841-1.082,1.478-1.967,1.739V20.549z M12.202,16.034v0.001h-0.573v3.368H9.742v-5.572h2.168    c1.391,0,2.554,0.933,2.933,2.203H12.202z M8.596,16.034H6.529c0.296-0.992,1.074-1.77,2.067-2.063V16.034z M8.596,20.549v1.739    c-0.884-0.262-1.611-0.898-1.967-1.739H8.596z M9.742,20.549h1.887v1.878H9.742V20.549z M11.719,27.993    c0.472,0,0.803,0.166,0.993,0.499c0.191,0.333,0.286,0.805,0.286,1.417c0,0.613-0.095,1.085-0.286,1.416    c-0.19,0.332-0.521,0.497-0.993,0.497c-0.473,0-0.804-0.165-0.995-0.497c-0.19-0.331-0.285-0.803-0.285-1.416    c0-0.612,0.095-1.084,0.285-1.417C10.915,28.16,11.246,27.993,11.719,27.993z M5.887,27.993c0.472,0,0.803,0.166,0.994,0.499    c0.19,0.333,0.285,0.805,0.285,1.417c0,0.613-0.095,1.085-0.285,1.416c-0.191,0.332-0.522,0.497-0.994,0.497    c-0.473,0-0.804-0.165-0.995-0.497c-0.191-0.331-0.286-0.803-0.286-1.416c0-0.612,0.095-1.084,0.286-1.417    C5.083,28.16,5.415,27.993,5.887,27.993z M4.895,34.985h0.668l1.209,2.124v-2.124h0.593v3.046H6.729l-1.24-2.162v2.162H4.895    V34.985z M13.354,29.912c0-0.614,0.095-1.086,0.285-1.418c0.191-0.333,0.522-0.5,0.995-0.5c0.472,0,0.803,0.166,0.994,0.5    c0.191,0.332,0.286,0.805,0.286,1.418c0,0.612-0.095,1.084-0.286,1.415c-0.19,0.33-0.521,0.497-0.994,0.497    c-0.473,0-0.804-0.167-0.995-0.497C13.449,30.996,13.354,30.524,13.354,29.912z M50.267,20.051c-0.86,0-1.666-0.212-2.395-0.561    c-0.89,0.569-1.943,0.904-3.075,0.904c-3.156,0-5.726-2.568-5.726-5.725s2.569-5.725,5.726-5.725c0.987,0,1.92,0.251,2.732,0.695    c0.812-0.463,1.738-0.749,2.737-0.749c3.076,0,5.578,2.503,5.578,5.58C55.845,17.548,53.343,20.051,50.267,20.051z" fill="#74acdf"/>
		<path d="M45.744,14.323h-0.521h-0.521c0.006-0.249,0.034-0.491,0.073-0.731h0.521h0.521h3.098c-0.059-0.301-0.146-0.59-0.256-0.87    h-2.577h-0.545h-0.542c0.088-0.26,0.189-0.51,0.312-0.751h0.587h0.592h1.794c-0.19-0.313-0.406-0.607-0.661-0.87h-0.362h-0.739    h-0.668c0.213-0.278,0.446-0.533,0.707-0.767c-0.543-0.222-1.136-0.349-1.759-0.349c-2.583,0-4.684,2.101-4.684,4.683    c0,2.583,2.101,4.683,4.684,4.683c0.741,0,1.435-0.189,2.058-0.498c-0.201-0.158-0.402-0.315-0.582-0.5h0.788h0.053    c0.13-0.101,0.226-0.233,0.344-0.347c0.179-0.17,0.368-0.327,0.52-0.523h-1.077h-0.676h-0.64    c-0.137-0.213-0.257-0.439-0.365-0.672h0.587h0.592h2.01c0.148-0.276,0.269-0.565,0.362-0.87h-2.775H45.45h-0.543    c-0.066-0.245-0.114-0.494-0.148-0.751h0.521h0.521h3.137c0.032-0.225,0.069-0.447,0.069-0.682c0-0.064-0.016-0.124-0.018-0.188    L45.744,14.323L45.744,14.323z" fill="#74acdf"/>
		<path d="M54.519,36.789v-6.867c0-2.573-2.094-4.666-4.665-4.666h-7.194c-2.571,0-4.666,2.094-4.666,4.666v6.867h3.445v-6.867    c0-0.673,0.548-1.221,1.221-1.221h7.194c0.674,0,1.221,0.548,1.221,1.221v6.867H54.519z" fill="#74acdf"/>
		<path d="M36.396,40.708v1.042v1.041V57.32h19.948V42.792V41.75v-1.042v-2.244H36.396V40.708z M49.433,45.515    c0,1.062-0.531,1.999-1.338,2.569l1.876,3.33c0.293,0.521,0.047,0.941-0.551,0.941h-5.899c-0.597,0-0.852-0.428-0.572-0.954    l1.709-3.199c-0.913-0.553-1.527-1.544-1.527-2.688c0-1.17,0.645-2.18,1.591-2.724c0.462-0.265,0.988-0.428,1.559-0.428    c0.569,0,1.096,0.163,1.558,0.428C48.787,43.334,49.433,44.344,49.433,45.515z" fill="#74acdf"/>
	</g>
</g>
<g>
</g>
<g>
</g>
<g>
</g>
<g>
</g>
<g>
</g>
<g>
</g>
<g>
</g>
<g>
</g>
<g>
</g>
<g>
</g>
<g>
</g>
<g>
</g>
<g>
</g>
<g>
</g>
<g>
</g>
</svg>
