<?xml version="1.0" encoding="iso-8859-1"?>
<!-- Generator: Adobe Illustrator 19.0.0, SVG Export Plug-In . SVG Version: 6.00 Build 0)  -->
<svg xmlns="http://www.w3.org/2000/svg"  version="1.1" id="Layer_1" x="0px" y="0px" viewBox="0 0 512 512" style="enable-background:new 0 0 512 512;" xml:space="preserve" width="512px" height="512px">
<g>
	<g>
		<path d="M474.339,158.933c-5.595-1.818-11.266-2.682-16.846-2.682c-22.965,0.002-44.325,14.64-51.805,37.66    c-1.665,5.122-2.516,10.314-2.649,15.436l-73.929,24.022c-11.777-20.048-31.551-34.817-54.949-39.928v-77.725    c21.158-7.482,36.321-27.65,36.321-51.37c0-30.09-24.392-54.482-54.482-54.482s-54.482,24.392-54.482,54.482    c0,23.72,15.163,43.888,36.321,51.37v77.725c-23.399,5.112-43.174,19.881-54.949,39.928l-73.928-24.019    c-0.578-22.433-15.072-43.088-37.631-50.417c-5.595-1.818-11.266-2.682-16.846-2.682c-22.965,0.002-44.325,14.64-51.805,37.66    c-9.298,28.617,6.363,59.352,34.98,68.651c5.595,1.817,11.267,2.682,16.847,2.682c16.923,0,32.966-7.956,43.233-21.352    l73.92,24.019c-0.266,2.735-0.41,5.504-0.41,8.308c0,21.607,8.098,41.314,21.41,56.283l-45.703,62.902    c-5.158-1.533-10.368-2.274-15.503-2.274c-22.965,0.002-44.325,14.639-51.805,37.66c-9.298,28.617,6.363,59.352,34.98,68.651    c5.595,1.818,11.267,2.682,16.847,2.682c22.965,0,44.324-14.637,51.804-37.659c5.445-16.756,2.321-34.23-6.937-47.711    l45.691-62.886c10.401,4.557,21.885,7.102,33.968,7.102c12.082,0,23.565-2.546,33.966-7.102l45.684,62.879    c-2.906,4.225-5.263,8.933-6.929,14.057c-9.298,28.617,6.363,59.352,34.98,68.651c5.595,1.817,11.267,2.682,16.847,2.682    c22.965,0,44.324-14.639,51.804-37.659c9.298-28.617-6.362-59.354-34.98-68.652c-5.595-1.818-11.266-2.682-16.846-2.682    c-5.297,0-10.505,0.788-15.481,2.27l-45.705-62.909c13.31-14.969,21.41-34.677,21.41-56.283c0-2.804-0.144-5.574-0.41-8.309    l73.929-24.02c6.478,8.466,15.493,15.129,26.399,18.673c5.595,1.817,11.267,2.682,16.847,2.682    c22.965,0,44.324-14.639,51.804-37.659C518.616,198.968,502.956,168.231,474.339,158.933z M71.766,216.361    c-2.82,8.678-10.7,12.562-17.26,12.562c-1.886,0-3.779-0.304-5.624-0.904c-9.523-3.095-14.754-13.359-11.659-22.882    c2.82-8.678,10.703-12.562,17.262-12.563h0.002c1.883,0,3.773,0.305,5.619,0.903C69.631,196.572,74.861,206.837,71.766,216.361z     M148.736,453.242c-2.82,8.677-10.7,12.562-17.26,12.562c-1.886,0-3.779-0.305-5.624-0.903    c-9.523-3.096-14.754-13.36-11.659-22.884c2.82-8.677,10.703-12.562,17.262-12.562h0.002c1.883,0,3.773,0.303,5.619,0.903    C146.599,433.453,151.83,443.719,148.736,453.242z M237.839,64.346c0-10.014,8.147-18.161,18.161-18.161    s18.161,8.147,18.161,18.161s-8.147,18.161-18.161,18.161S237.839,74.36,237.839,64.346z M255.999,324.648    c-26.703,0-48.428-21.724-48.428-48.428c0-26.705,21.725-48.428,48.428-48.428s48.428,21.725,48.428,48.428    C304.428,302.924,282.703,324.648,255.999,324.648z M363.264,442.028c2.82-8.678,10.703-12.562,17.262-12.563h0.002    c1.884,0,3.774,0.305,5.619,0.903c9.523,3.096,14.754,13.36,11.659,22.885c-2.82,8.678-10.7,12.562-17.26,12.562    c-1.886,0-3.779-0.304-5.624-0.904C365.4,461.816,360.17,451.552,363.264,442.028z M474.774,216.361    c-2.82,8.678-10.7,12.562-17.26,12.562c-1.886,0-3.779-0.304-5.624-0.904c-9.523-3.095-14.754-13.359-11.659-22.882    c2.82-8.678,10.703-12.562,17.262-12.563h0.002c1.883,0,3.773,0.305,5.619,0.903C472.638,196.571,477.87,206.837,474.774,216.361z    " fill="#74acdf"/>
	</g>
</g>
<g>
</g>
<g>
</g>
<g>
</g>
<g>
</g>
<g>
</g>
<g>
</g>
<g>
</g>
<g>
</g>
<g>
</g>
<g>
</g>
<g>
</g>
<g>
</g>
<g>
</g>
<g>
</g>
<g>
</g>
</svg>
