<?xml version="1.0" encoding="iso-8859-1"?>
<!-- Generator: Adobe Illustrator 19.0.0, SVG Export Plug-In . SVG Version: 6.00 Build 0)  -->
<svg xmlns="http://www.w3.org/2000/svg"  version="1.1" id="Layer_1" x="0px" y="0px" viewBox="0 0 502.34 502.34" style="enable-background:new 0 0 502.34 502.34;" xml:space="preserve" width="512px" height="512px">
<g>
	<g>
		<g>
			<path d="M19.321,229.035c5.333,0,9.66-4.328,9.66-9.66c0-45.597,21.214-81.311,48.302-81.311h48.302     c4.154,0,7.835-2.666,9.148-6.608c1.314-3.941-0.058-8.298-3.371-10.8c-9.805-7.371-15.437-18.635-15.437-30.894     c0-21.311,17.331-38.641,38.641-38.641c5.333,0,9.66-4.328,9.66-9.66s-4.328-9.66-9.66-9.66     c-31.966,0-57.962,25.996-57.962,57.962c0,10.385,2.695,20.296,7.728,28.981H77.283c-38.555,0-67.623,43.269-67.623,100.632     C9.66,224.707,13.988,229.035,19.321,229.035z" fill="#afafaf"/>
			<path d="M164.227,99.422h-0.029c-5.323,0.019-9.631,4.338-9.631,9.66c0,4.376,2.908,8.066,6.888,9.255     c7.004,2.753,12.433,11.303,12.433,19.726c0,10.655-8.665,19.321-19.321,19.321H96.605c-27.986,0-48.302,26.073-48.302,61.991     c0,5.333,4.328,9.66,9.66,9.66c5.333,0,9.66-4.328,9.66-9.66c0-25.127,11.911-42.67,28.981-42.67h57.962     c21.301,0,38.641-17.331,38.641-38.642c0-8.453-2.744-16.703-7.371-23.504c21.292-8.578,36.352-29.455,36.352-53.779     c0-23.04-13.64-43.887-34.748-53.122c-4.888-2.145-10.588,0.087-12.723,4.975c-2.145,4.888,0.087,10.588,4.975,12.723     c14.085,6.163,23.175,20.065,23.175,35.425C202.869,82.091,185.529,99.422,164.227,99.422z" fill="#afafaf"/>
			<path d="M489.849,28.969c3.777-3.777,3.777-9.883,0-13.66c-3.777-3.777-9.883-3.777-13.66,0L247.17,244.327H9.66     c-5.333,0-9.66,4.328-9.66,9.66v57.962c0,5.333,4.328,9.66,9.66,9.66h160.227L12.491,479.007c-3.777,3.777-3.777,9.883,0,13.66     c1.884,1.884,4.357,2.83,6.83,2.83c2.473,0,4.946-0.947,6.83-2.83l171.056-171.056h150.567v-77.283H274.49L489.849,28.969z" fill="#afafaf"/>
			<path d="M492.679,244.327H367.094v77.283h125.585c5.333,0,9.66-4.328,9.66-9.66v-57.962     C502.34,248.655,498.012,244.327,492.679,244.327z" fill="#afafaf"/>
		</g>
	</g>
</g>
<g>
</g>
<g>
</g>
<g>
</g>
<g>
</g>
<g>
</g>
<g>
</g>
<g>
</g>
<g>
</g>
<g>
</g>
<g>
</g>
<g>
</g>
<g>
</g>
<g>
</g>
<g>
</g>
<g>
</g>
</svg>
