<?xml version="1.0" encoding="utf-8"?>
<!-- Generator: Adobe Illustrator 21.1.0, SVG Export Plug-In . SVG Version: 6.00 Build 0)  -->
<svg version="1.1" id="Layer_1" xmlns="http://www.w3.org/2000/svg"  x="0px" y="0px"
	 viewBox="0 0 512 512" style="enable-background:new 0 0 512 512;" xml:space="preserve">
<style type="text/css">
	.st0{fill:#74ACDF;}
</style>
<g>
	<g>
		<g>
			<path class="st0" d="M19.7,233.4c5.4,0,9.8-4.4,9.8-9.8c0-46.5,21.6-82.9,49.2-82.9H128c4.2,0,8-2.7,9.3-6.7
				c1.3-4-0.1-8.5-3.4-11c-10-7.5-15.7-19-15.7-31.5c0-21.7,17.7-39.4,39.4-39.4c5.4,0,9.8-4.4,9.8-9.8s-4.4-9.8-9.8-9.8
				c-32.6,0-59.1,26.5-59.1,59.1c0,10.6,2.7,20.7,7.9,29.5H78.8c-39.3,0-68.9,44.1-68.9,102.6C9.8,229,14.3,233.4,19.7,233.4z"/>
			<path class="st0" d="M167.4,101.3L167.4,101.3c-5.5,0-9.8,4.4-9.8,9.8c0,4.5,3,8.2,7,9.4c7.1,2.8,12.7,11.5,12.7,20.1
				c0,10.9-8.8,19.7-19.7,19.7H98.5c-28.5,0-49.2,26.6-49.2,63.2c0,5.4,4.4,9.8,9.8,9.8c5.4,0,9.8-4.4,9.8-9.8
				c0-25.6,12.1-43.5,29.5-43.5h59.1c21.7,0,39.4-17.7,39.4-39.4c0-8.6-2.8-17-7.5-24c21.7-8.7,37.1-30,37.1-54.8
				c0-23.5-13.9-44.7-35.4-54.1c-5-2.2-10.8,0.1-13,5.1c-2.2,5,0.1,10.8,5.1,13c14.4,6.3,23.6,20.5,23.6,36.1
				C206.8,83.7,189.1,101.3,167.4,101.3z"/>
			<path class="st0" d="M251.9,249H9.8c-5.4,0-9.8,4.4-9.8,9.8v59.1c0,5.4,4.4,9.8,9.8,9.8h163.3l28.8,0h152.5V249h-74.7L251.9,249z
				"/>
			<path class="st0" d="M502.2,249h-128v78.8h128c5.4,0,9.8-4.4,9.8-9.8v-59.1C512,253.4,507.6,249,502.2,249z"/>
		</g>
	</g>
</g>
</svg>
