<?xml version="1.0" encoding="iso-8859-1"?>
<!-- Generator: Adobe Illustrator 19.0.0, SVG Export Plug-In . SVG Version: 6.00 Build 0)  -->
<svg xmlns="http://www.w3.org/2000/svg"  version="1.1" id="Layer_1" x="0px" y="0px" viewBox="0 0 512 512" style="enable-background:new 0 0 512 512;" xml:space="preserve" width="512px" height="512px">
<g>
	<g>
		<path d="M489.267,293.643c-10.329-9.754-20.803-13.858-22.836-14.596l-34.514-14.381l-24.173-15.952v-8.115    c18.054-9.442,31.202-27.016,34.54-47.837c15.167-2.017,26.911-15.029,26.911-30.74c0-8.063-3.094-15.415-8.153-20.937v-29.738    c0-47.849-38.928-86.777-86.777-86.777h-6.558c-39.393,0-73.759,26.454-83.854,64.416c-7.575-2.05-15.534-3.165-23.749-3.165    h-6.909c-8.653,0-17.017,1.24-24.952,3.506c-9.977-38.148-44.436-64.758-83.949-64.758h-6.558    c-47.849,0-86.777,38.928-86.777,86.777v29.739c-5.06,5.522-8.154,12.874-8.154,20.937c0,15.711,11.744,28.724,26.911,30.74    c3.337,20.821,16.486,38.395,34.54,47.837v8.115l-24.172,15.951l-34.515,14.381c-2.033,0.737-12.506,4.842-22.836,14.596    C12.362,303.435,0,321.043,0,349.311v49.134c0,4.465,3.62,8.096,8.084,8.096h101.515c-1.506,6.279-2.4,13.263-2.4,21.021v51.772    c0,4.466,3.62,8.097,8.084,8.097h96.051h21.249h48.444h0.022h19.617h4.558c4.466,0,8.084-3.618,8.084-8.084    c0-4.466-3.618-8.084-8.084-8.084h-4.558h-12.754l-9.761-60.512l3.816-10.163l5.767,4.245c1.402,1.033,3.084,1.574,4.791,1.574    c0.647,0,1.296-0.078,1.936-0.235c2.329-0.575,4.285-2.155,5.333-4.313l21.956-45.128l29.293,12.207    c0.176,0.073,0.354,0.14,0.535,0.201c0.371,0.124,37.055,12.978,37.055,58.423v43.701h-33.537v-46.057    c0-4.466-3.618-8.084-8.084-8.084c-4.466,0-8.084,3.618-8.084,8.084v46.057h-8.551c-4.466,0-8.084,3.618-8.084,8.084    c0,4.466,3.618,8.084,8.084,8.084h66.341c4.466,0,8.084-3.721,8.084-8.186V427.56c0-7.758-0.894-14.742-2.4-21.021h101.516    c4.466,0,8.084-3.716,8.084-8.18v-49.05C512,321.043,499.638,303.435,489.267,293.643z M426.954,182.321    c0,27.331-22.236,49.566-49.566,49.566H364.88c-1.746,0-3.488-0.106-5.218-0.286c0.019-0.459,0.034-0.921,0.034-1.385    c0-8.442-3.264-16.133-8.592-21.888v-31.509c0-14.382-3.367-27.99-9.335-40.093c17.73-4.289,38.532-12.495,54.631-28.23    c4.999,10.668,14.336,24.563,30.553,30.714V182.321z M391.575,246.497v16.524l-20.773,21.563l-20.123-19.603    c0.003-0.089,0.014-0.176,0.014-0.265v-12.17c0-0.003,0-0.005,0-0.009v-0.001c1.546-1.609,2.928-3.376,4.115-5.277    c3.325,0.512,6.693,0.796,10.072,0.796h12.508C382.259,248.056,387.003,247.508,391.575,246.497z M343.528,230.217    c0,4.079-1.539,7.795-4.05,10.635c-1.506,0.633-2.776,1.712-3.655,3.068c-1.12,0.688-2.321,1.258-3.599,1.656v-30.716    C338.766,216.9,343.528,223.013,343.528,230.217z M453.027,162.021c0,6.454-4.146,11.943-9.905,13.987v-27.975    C448.883,150.077,453.027,155.567,453.027,162.021z M299.313,93.726c8.01-31.2,36.134-52.989,68.393-52.989h6.558    c38.934,0,70.609,31.675,70.609,70.609v20.391c-0.652-0.144-1.307-0.275-1.974-0.377c-0.698-2.947-3.012-5.323-6.068-6.018    c-22.631-5.148-29.591-34.031-29.655-34.301c-0.701-3.098-3.153-5.498-6.265-6.134c-3.112-0.635-6.309,0.609-8.17,3.183    c-15.158,20.956-40.43,30.097-59.928,34.082c-8.826-11.711-20.41-21.227-33.779-27.581    C299.142,94.308,299.237,94.022,299.313,93.726z M253.196,101.986h6.907v0.002c41.263,0,74.834,33.57,74.834,74.833v22.032    c-0.941-0.224-1.896-0.411-2.867-0.551c-0.021-0.106-0.049-0.208-0.073-0.313c-0.032-0.136-0.065-0.272-0.104-0.405    c-0.039-0.133-0.085-0.261-0.13-0.39c-0.04-0.113-0.079-0.226-0.124-0.338c-0.055-0.137-0.116-0.27-0.179-0.402    c-0.047-0.102-0.094-0.204-0.147-0.304c-0.068-0.13-0.14-0.255-0.214-0.38c-0.059-0.1-0.116-0.199-0.18-0.296    c-0.074-0.114-0.154-0.224-0.234-0.335c-0.074-0.102-0.149-0.205-0.227-0.304c-0.078-0.097-0.158-0.19-0.241-0.284    c-0.092-0.105-0.184-0.209-0.281-0.309c-0.079-0.081-0.161-0.157-0.243-0.235c-0.109-0.102-0.217-0.204-0.331-0.301    c-0.083-0.07-0.169-0.136-0.255-0.204c-0.117-0.092-0.237-0.184-0.361-0.269c-0.095-0.067-0.194-0.127-0.293-0.19    c-0.119-0.076-0.239-0.151-0.363-0.221c-0.116-0.066-0.238-0.125-0.359-0.185c-0.111-0.055-0.22-0.111-0.334-0.161    c-0.147-0.065-0.297-0.121-0.449-0.177c-0.095-0.036-0.189-0.073-0.286-0.105c-0.171-0.056-0.346-0.102-0.522-0.147    c-0.068-0.017-0.135-0.042-0.204-0.057c-24.118-5.488-31.506-36.18-31.573-36.468c-0.701-3.098-3.153-5.498-6.264-6.134    c-3.113-0.638-6.309,0.608-8.17,3.182c-28.096,38.842-89.49,39.219-90.419,39.219c-0.017,0.001-0.026,0-0.039,0    c-0.278,0-0.553,0.014-0.825,0.042c-0.064,0.006-0.124,0.02-0.188,0.028c-0.206,0.026-0.413,0.053-0.613,0.094    c-0.075,0.015-0.148,0.039-0.222,0.057c-0.185,0.043-0.372,0.086-0.552,0.141c-0.097,0.03-0.189,0.07-0.283,0.103    c-0.153,0.054-0.308,0.105-0.457,0.167c-0.12,0.051-0.233,0.111-0.349,0.168c-0.119,0.057-0.24,0.109-0.356,0.171    c-0.119,0.065-0.23,0.139-0.345,0.209c-0.107,0.066-0.217,0.125-0.32,0.195c-0.113,0.077-0.219,0.162-0.327,0.244    c-0.098,0.073-0.201,0.142-0.294,0.22c-0.104,0.085-0.198,0.179-0.298,0.268c-0.092,0.084-0.189,0.164-0.277,0.251    c-0.092,0.092-0.175,0.191-0.262,0.287c-0.087,0.095-0.178,0.186-0.26,0.286c-0.081,0.098-0.153,0.203-0.229,0.304    c-0.079,0.106-0.163,0.207-0.237,0.317c-0.07,0.103-0.13,0.213-0.196,0.32c-0.07,0.115-0.144,0.226-0.209,0.344    c-0.06,0.111-0.111,0.227-0.166,0.342c-0.058,0.121-0.122,0.239-0.175,0.363c-0.05,0.117-0.088,0.239-0.133,0.359    c-0.047,0.127-0.099,0.252-0.14,0.383c-0.039,0.123-0.066,0.25-0.098,0.375c-0.034,0.133-0.074,0.263-0.102,0.398    c-0.005,0.025-0.009,0.051-0.014,0.075c-1.078,0.155-2.139,0.363-3.18,0.623v-22.104    C178.364,135.556,211.934,101.986,253.196,101.986z M256.467,359.976l-21.657-21.093c0.009-0.152,0.023-0.301,0.023-0.454v-12.827    c0-0.008,0-0.014,0-0.02v-6.899c4.95,1.135,10.094,1.755,15.384,1.755h13.179c5.131,0,10.127-0.582,14.94-1.651    c0.148-0.005,0.295-0.015,0.443-0.022v18.05L256.467,359.976z M268.435,390.63l-4.207,11.206h-15.064l-4.755-11.35l11.915-8.77    L268.435,390.63z M147.845,324.481h-13.737l-3.783-10.076l10.999-8.093l10.803,7.951L147.845,324.481z M148.913,356.605    c-4.666,2.37-11.301,6.388-17.897,12.617c-0.092,0.086-0.183,0.177-0.275,0.264l4.652-28.836h10.946L148.913,356.605z     M141.198,284.585l-20.773-21.563v-16.524c4.572,1.01,9.316,1.559,14.188,1.559h12.508c3.877,0,7.745-0.341,11.542-1.012    c0.797,1.297,1.679,2.533,2.645,3.7v1.783c0,0.009,0,0.017,0,0.026v12.164c0,0.089,0.011,0.176,0.013,0.265L141.198,284.585z     M175.033,274.196c1.877-1.827,2.666-4.344,2.377-6.758l7.1,4.685c0.772,2.466,1.692,4.866,2.726,7.204l-14.58,29.971    l-19.17-14.11L175.033,274.196z M170.081,230.218c0-7.206,4.763-13.32,11.305-15.359v30.717    C174.844,243.537,170.081,237.423,170.081,230.218z M165.525,324.122l5.363,3.946c1.402,1.033,3.085,1.574,4.792,1.574    c0.646,0,1.296-0.078,1.935-0.235c2.33-0.575,4.285-2.155,5.333-4.313l14.36-29.518c5.875,7.057,13.137,12.912,21.356,17.17v8.415    l-25.916,17.102c-0.351,0.093-0.701,0.203-1.044,0.345l-27.469,11.447l-2.662-16.498L165.525,324.122z M218.907,340.372    c-0.665,2.694,0.068,5.658,2.199,7.734l23.071,22.474l-21.03,15.479l-17.855-36.702L218.907,340.372z M263.397,304.269h-13.179    c-29.037,0-52.662-23.623-52.662-52.661v-44c17.342-1.258,58.367-7.11,86.011-34.522c5.193,11.295,15.083,26.304,32.492,32.786    v45.735h-0.001C316.057,280.646,292.434,304.269,263.397,304.269z M68.877,176.008c-5.76-2.044-9.904-7.533-9.904-13.987    s4.143-11.943,9.904-13.988V176.008z M77.176,125.138c-0.012,0-0.023,0-0.036,0c-0.03,0-0.059,0.004-0.089,0.004    c-0.03,0-0.059-0.004-0.089-0.004c-3.822,0-7.016,2.655-7.859,6.221c-0.667,0.102-1.324,0.233-1.976,0.377v-20.391    c0-38.934,31.675-70.609,70.609-70.609h6.558c32.259,0,60.384,21.79,68.393,52.989c0.125,0.485,0.296,0.944,0.499,1.384    c-10.646,5.234-20.122,12.488-27.935,21.26c-9.317-9.712-12.562-23.256-12.592-23.385c-0.702-3.098-3.153-5.498-6.265-6.134    c-3.11-0.635-6.309,0.608-8.17,3.182c-25.147,34.763-80.24,35.105-81.047,35.105C77.176,125.138,77.176,125.138,77.176,125.138z     M85.046,182.321v-41.363c15.904-1.212,52.027-6.614,76.872-30.622c2.907,6.08,7.274,13.178,13.593,19.137    c-8.443,13.802-13.318,30.015-13.318,47.346v31.847c-5.144,5.716-8.28,13.272-8.28,21.549c0,0.398,0.016,0.791,0.03,1.186    c-2.255,0.31-4.535,0.485-6.823,0.485h-12.508C107.282,231.888,85.046,209.652,85.046,182.321z M104.44,267.964    c0.303,1.429,0.988,2.797,2.077,3.927l22.527,23.384l-19.055,14.022l-16.572-34.06L104.44,267.964z M110.993,390.372H63.341    v-43.297c0-4.466-3.62-8.084-8.084-8.084s-8.084,3.618-8.084,8.084v43.297H16.168v-41.061c0-42.456,33.499-54.575,34.887-55.057    c0.18-0.061,0.359-0.127,0.535-0.201l27.441-11.433l20.665,42.477c1.05,2.158,3.004,3.738,5.333,4.313    c0.64,0.157,1.289,0.235,1.935,0.235c1.708,0,3.39-0.541,4.792-1.574l5.035-3.706l3.392,9.034L110.993,390.372z M225.697,471.264    h-14.364h-38.26v-0.001v-46.057c0-4.466-3.62-8.084-8.084-8.084c-4.465,0-8.084,3.619-8.084,8.084v46.057h-33.538v-43.701    c0-45.061,35.577-57.911,37.056-58.423c0.18-0.061,0.359-0.127,0.535-0.201l29.833-12.432l22.063,45.353    c1.05,2.158,3.004,3.738,5.333,4.313c0.64,0.156,1.289,0.235,1.935,0.235c1.708,0,3.391-0.541,4.792-1.574l6.094-4.485    l4.425,10.566L225.697,471.264z M242.076,471.263l8.593-53.259h12.274l8.592,53.259H242.076z M289.5,386.058l-6.37-4.689    c-0.017-0.014-0.036-0.026-0.054-0.04l-14.471-10.651l24.08-24.996c1.25-1.298,1.971-2.906,2.186-4.565l12.484,8.237    L289.5,386.058z M347.767,350.057l-27.122-11.304l-25.671-16.939c-0.009-0.005-0.017-0.01-0.025-0.015v-9.051    c7.749-4.015,14.637-9.454,20.324-15.978l13.781,28.326c1.05,2.158,3.004,3.738,5.333,4.313c0.64,0.157,1.289,0.235,1.936,0.235    c1.707,0,3.39-0.541,4.791-1.574l5.363-3.946l3.953,9.436L347.767,350.057z M339.345,309.296l-13.746-28.254    c1.557-3.276,2.851-6.697,3.88-10.231l5.111-3.373c-0.29,2.414,0.501,4.93,2.377,6.758l21.548,20.992L339.345,309.296z     M380.984,369.222c-6.597-6.229-13.231-10.248-17.897-12.618l2.575-15.954h10.946l4.651,28.836    C381.167,369.398,381.075,369.308,380.984,369.222z M377.892,324.481h-13.736l-4.282-10.219l10.803-7.95l10.999,8.094    L377.892,324.481z M382.954,295.274l22.527-23.384c1.089-1.13,1.775-2.496,2.078-3.927l11.02,7.273l-16.57,34.06L382.954,295.274z     M464.827,390.372v-43.297c0-4.466-3.619-8.084-8.084-8.084c-4.466,0-8.084,3.619-8.084,8.084v43.297h-47.654l-9.19-56.973    l3.391-9.034l5.036,3.706c1.402,1.033,3.084,1.574,4.791,1.574c0.647,0,1.296-0.078,1.936-0.235    c2.329-0.574,4.285-2.155,5.333-4.313l20.665-42.477l27.441,11.433c0.176,0.073,0.355,0.14,0.535,0.201    c0.348,0.116,34.887,12.217,34.887,55.057v41.061H464.827z" fill="#74acdf"/>
	</g>
</g>
<g>
</g>
<g>
</g>
<g>
</g>
<g>
</g>
<g>
</g>
<g>
</g>
<g>
</g>
<g>
</g>
<g>
</g>
<g>
</g>
<g>
</g>
<g>
</g>
<g>
</g>
<g>
</g>
<g>
</g>
</svg>
