<?xml version="1.0" encoding="iso-8859-1"?>
<!-- Generator: Adobe Illustrator 16.0.0, SVG Export Plug-In . SVG Version: 6.00 Build 0)  -->
<!DOCTYPE svg PUBLIC "-//W3C//DTD SVG 1.1//EN" "http://www.w3.org/Graphics/SVG/1.1/DTD/svg11.dtd">
<svg xmlns="http://www.w3.org/2000/svg"  version="1.1" id="Capa_1" x="0px" y="0px" width="512px" height="512px" viewBox="0 0 45.318 45.318" style="enable-background:new 0 0 45.318 45.318;" xml:space="preserve">
<g>
	<path d="M22.651,0C14.987,0,8.204,3.829,4.1,9.671L7.188,9.83l2.324,0.984l-0.328,0.278l-1.723-0.278l-0.027,0.333l0.629,0.434   l-0.82,0.163v0.493l-1.695,0.109l1.285,1.203l0.219,0.984l-0.574,0.301l-1.807-1.477v-0.684l0.439-0.684l-0.328-0.41l-1.971,1.313   L2.229,12.84c-0.191,0.4-0.369,0.808-0.539,1.221l0.957,0.116l0.912,1.039l-0.227,0.302l-0.713-0.712l-0.326,0.355l0.555,0.732   L2.729,17.27l-1.457-0.002l-0.074,1.111l1.232,0.748l0.426,0.564L2.21,19.865l-1.826-1.392c-0.121,0.658-0.221,1.325-0.285,2.002   l0.773,0.811l0.125,1.269l-0.838,0.699l-0.152,0.057c0.047,1.627,0.264,3.209,0.635,4.732c0.174,0.709,0.381,1.404,0.619,2.084   c0.086,0.246,0.176,0.488,0.271,0.73L2.45,30.5l0.014,1.776l-0.313,0.028c0.074,0.156,0.152,0.312,0.229,0.467h0.309l-0.082,0.287   l-0.094-0.029c0.043,0.082,0.082,0.164,0.125,0.244c0.049,0.093,0.098,0.185,0.148,0.275c0.225,0.409,0.465,0.81,0.715,1.202   l0.342-0.024v0.399h0.365l0.895-1.269h1.244l1.057,0.637l-0.496,0.484l-0.59-0.119l0.039,0.799l0.311,0.188l1.113,0.084   l0.238-2.015l0.584,0.026l0.646,1.109l0.074,1.605l0.982,0.842l0.264,1.078L9.932,40.03l-0.83,0.78   c0.771,0.578,1.586,1.104,2.43,1.582l0.748-0.104l0.637-0.437l0.092-1.397l0.727-0.043l0.012,0.894l0.396-0.078l0.268,0.479   l-0.73,0.414l-0.727,0.322l-0.598,0.392c3.092,1.584,6.59,2.484,10.295,2.484c3.38,0,6.589-0.75,9.474-2.085l-1.125-0.982   l-1.014-1.778l0.144-1.718l-0.769-1.021l0.313-1.73l-0.457-0.129v-3.756c0,0-1.274-0.968-1.349-0.968   c-0.073,0-0.676-0.163-0.676-0.163l-0.129-0.711l-1.658-2.079l0.164-0.747l0.055-1.223l1.146-0.803l-0.162-1.365l-1.677-0.127   l-1.313-1.496l-0.931-0.252l-0.602-0.11l0.074-0.547l-0.768-0.109v0.311l-1.914-0.475l-0.771-1.178l0.314-0.572l-1.213-1.77   l-0.207-1.294h-0.494l0.166,1.257l0.836,1.295l-0.09,0.512l-0.711-0.109l-0.875-1.492v-1.735l-0.91-0.438v-1.932l1.695-2.061   l-0.111-1.231l0.475-0.337L17.02,9.641l0.035-0.93l-0.674-0.602h-1.879l-0.309,0.328l-2.244-0.018l-0.82-0.693l0.639-0.455h1.641   V6.964l-0.766-0.113l0.494-0.383l1.074-0.165l1.604-1.093h2.771l1.516,0.455l0.51,0.292l0.455,0.036l0.676-0.656l2.188-0.019   l0.492,0.274l0.93,0.2l0.072,0.364l1.477,0.055l-0.199-0.474L25.39,5.701l0.311-0.292l-0.108-0.347h-1.188l1.297-0.966h1.24   l0.58,0.802l0.969,0.055l0.582-0.565l0.439,0.219l-0.803,0.784c0,0-1.111,0.019-1.059,0.019c0.057,0,0.092,0.766,0.092,0.766   l1.348-0.036l0.146-0.365l0.93-0.055l0.109-0.547l-0.546-0.092l0.183-0.492l0.42-0.127l1.457,0.072l-0.803,0.73l0.129,0.564   l0.84,0.128l-0.058-1.022l0.804-0.418l1.424-0.164l2.059,0.912v0.783l0.658,0.164l-0.328,0.621h-0.93l-0.275,0.71l-2.127-0.501   l1.67-0.891l-0.637-0.541l-1.441,0.183l-0.125,0.13L32.644,5.92l-0.025,0.031l-0.412,0.431L31.519,6.44l0.057,0.342l0.238,0.099   l-0.01,0.113l-0.559,0.079l-0.039,0.324l-0.533,0.027l-0.096-0.643l-0.957,0.291l-1.957,1.145l0.221,0.807l0.547,0.355l1.092,0.151   v1.243l0.506-0.081l0.467-0.972l1.162-0.368V7.861l0.646-0.488l1.564,0.369l-0.109,0.986h0.418l1.15-0.565l0.055,1.295l0.838,0.51   l-0.037,0.766l-0.801,0.273l0.055,0.254l0.965,0.439l-0.018,0.529l-0.281,0.023c0-0.01-0.004-0.014-0.004-0.014l-1.217-0.377   l-0.053-0.39l0,0l0.354-0.245v-0.357l-0.383-0.096l-0.097,0.329l-0.672,0.104l-0.065-0.023v0.033l-0.231,0.035l-0.191-0.383   l-0.219-0.096h-0.48l-0.217,0.178v0.397l0.41,0.136l0.404,0.057l-0.091,0.04l-0.368,0.409l-0.164-0.205l-0.355-0.094l-0.973,0.914   l0.127,0.104l-1.435,0.795l-1.351,1.404l-0.092,0.625l-1.354,0.889l-0.668,0.674l0.073,1.35l-0.93-0.433l0.006-0.79l-2.588,0.001   l-1.339,0.679l-0.584,1.072l-0.229,0.852l0.375,0.825l1.057,0.128l1.678-1.121l0.148,0.557l-0.512,0.967L25.15,21.4l0.129,1.973   l1.75,0.297l1.11-1.285l1.351,0.274l0.475,0.658l1.295-0.075l0.037-0.384l0.709,0.348l0.805,1.257l1.385,0.02l0.51,0.895   l0.072,1.094l1.533,0.584l1.932,0.019l0.566,0.929l0.855,0.274L39.5,29.042l-0.938,1.193l-0.274,2.641l-0.847,0.67l-1.26-0.036   l-0.42,0.729l0.312,1.369l-1.367,1.75l-0.438,0.803l-1.303,0.627l-0.859,0.13l-0.034,0.364l0.602,0.172l-0.072,0.393l-0.537,0.521   l0.326,0.412l0.648,0.018L33,41.299l-0.172,0.49l-0.058,0.4l0.548,0.461c7.133-3.825,11.993-11.348,11.993-19.989   C45.311,10.166,35.145,0,22.651,0z M10.28,33.68H9.294v-1.039L8.73,32.695L8.201,33.26l-1.459,0.092l-0.018-0.674h0.438   l-0.018-0.33l-0.676-0.354l-1.203-0.174l-0.557-0.685l0.83-0.83l0.584,0.348l-0.047,0.636l0.611-0.017l0.658-0.348l2.352,1.068   l0.09,1.266h0.494V33.68z M16.966,9.768l-0.092,0.574c0,0-0.365,0-0.41,0c-0.047,0-0.092-0.631-0.092-0.666L16.966,9.768z    M32.705,12.968l-0.457,0.038l0.024-0.317l0.203-0.254l0.274,0.215L32.705,12.968z M34.305,12.407l-0.312,0.027l-0.063,0.301   l-0.24,0.15l-0.385,0.031c-0.015-0.09-0.021-0.16-0.021-0.16h-0.15v-0.322h0.629l0.131-0.336l0.25-0.006l0.285,0.061L34.305,12.407   z" fill="#74acdf"/>
</g>
<g>
</g>
<g>
</g>
<g>
</g>
<g>
</g>
<g>
</g>
<g>
</g>
<g>
</g>
<g>
</g>
<g>
</g>
<g>
</g>
<g>
</g>
<g>
</g>
<g>
</g>
<g>
</g>
<g>
</g>
</svg>
